%TF.GenerationSoftware,KiCad,Pcbnew,8.0.4*%
%TF.CreationDate,2025-12-21T00:45:38-08:00*%
%TF.ProjectId,PLL-Driver,504c4c2d-4472-4697-9665-722e6b696361,rev?*%
%TF.SameCoordinates,Original*%
%TF.FileFunction,Copper,L2,Inr*%
%TF.FilePolarity,Positive*%
%FSLAX46Y46*%
G04 Gerber Fmt 4.6, Leading zero omitted, Abs format (unit mm)*
G04 Created by KiCad (PCBNEW 8.0.4) date 2025-12-21 00:45:38*
%MOMM*%
%LPD*%
G01*
G04 APERTURE LIST*
%TA.AperFunction,ComponentPad*%
%ADD10R,1.700000X1.700000*%
%TD*%
%TA.AperFunction,ComponentPad*%
%ADD11O,1.700000X1.700000*%
%TD*%
%TA.AperFunction,ViaPad*%
%ADD12C,0.609600*%
%TD*%
G04 APERTURE END LIST*
D10*
%TO.N,/Vladj*%
%TO.C,J4*%
X136911000Y-70104000D03*
D11*
%TO.N,GND*%
X134371000Y-70104000D03*
%TD*%
D10*
%TO.N,/VDD*%
%TO.C,J3*%
X148844000Y-66167000D03*
D11*
%TO.N,GND*%
X146304000Y-66167000D03*
%TD*%
D12*
%TO.N,GND*%
X140970000Y-80416400D03*
X140106400Y-80416400D03*
X140970000Y-79552800D03*
X140106400Y-79552800D03*
X161388100Y-88466800D03*
X161388100Y-71551600D03*
X161388100Y-70142000D03*
X161388100Y-68732400D03*
X161388100Y-67322800D03*
X161388100Y-65913200D03*
X159978500Y-88466800D03*
X159978500Y-71551600D03*
X159978500Y-70142000D03*
X159978500Y-68732400D03*
X159978500Y-67322800D03*
X159978500Y-65913200D03*
X158568900Y-88466800D03*
X158568900Y-71551600D03*
X158568900Y-70142000D03*
X158568900Y-68732400D03*
X158568900Y-67322800D03*
X158568900Y-65913200D03*
X157159300Y-88466800D03*
X157159300Y-87057200D03*
X157159300Y-85647600D03*
X157159300Y-84238000D03*
X157159300Y-75780400D03*
X157159300Y-74370800D03*
X157159300Y-72961200D03*
X157159300Y-71551600D03*
X157159300Y-70142000D03*
X157159300Y-68732400D03*
X157159300Y-67322800D03*
X157159300Y-65913200D03*
X155749700Y-88466800D03*
X155749700Y-87057200D03*
X155749700Y-85647600D03*
X155749700Y-84238000D03*
X155749700Y-75780400D03*
X155749700Y-74370800D03*
X155749700Y-72961200D03*
X155749700Y-71551600D03*
X155749700Y-70142000D03*
X155749700Y-68732400D03*
X155749700Y-67322800D03*
X155749700Y-65913200D03*
X154340100Y-88466800D03*
X154340100Y-87057200D03*
X154340100Y-85647600D03*
X154340100Y-84238000D03*
X154340100Y-75780400D03*
X154340100Y-74370800D03*
X154340100Y-72961200D03*
X154340100Y-71551600D03*
X154340100Y-70142000D03*
X154340100Y-68732400D03*
X154340100Y-67322800D03*
X154340100Y-65913200D03*
X152930500Y-88466800D03*
X152930500Y-87057200D03*
X152930500Y-85647600D03*
X152930500Y-84238000D03*
X152930500Y-75780400D03*
X152930500Y-74370800D03*
X152930500Y-72961200D03*
X152930500Y-71551600D03*
X152930500Y-70142000D03*
X152930500Y-68732400D03*
X152930500Y-67322800D03*
X152930500Y-65913200D03*
X151520900Y-88466800D03*
X151520900Y-87057200D03*
X151520900Y-85647600D03*
X151520900Y-84238000D03*
X151520900Y-75780400D03*
X151520900Y-74370800D03*
X151520900Y-72961200D03*
X151520900Y-71551600D03*
X151520900Y-70142000D03*
X151520900Y-68732400D03*
X151520900Y-67322800D03*
X151520900Y-65913200D03*
X150111300Y-88466800D03*
X150111300Y-87057200D03*
X150111300Y-85647600D03*
X150111300Y-84238000D03*
X148701700Y-88466800D03*
X148701700Y-87057200D03*
X148701700Y-85647600D03*
X148701700Y-84238000D03*
X147292100Y-88466800D03*
X147292100Y-87057200D03*
X147292100Y-85647600D03*
X147292100Y-84238000D03*
X147292100Y-68732400D03*
X145882500Y-88466800D03*
X145882500Y-87057200D03*
X145882500Y-85647600D03*
X145882500Y-84238000D03*
X145882500Y-75780400D03*
X145882500Y-74370800D03*
X145882500Y-68732400D03*
X144472900Y-88466800D03*
X144472900Y-87057200D03*
X144472900Y-85647600D03*
X144472900Y-84238000D03*
X144472900Y-75780400D03*
X144472900Y-74370800D03*
X144472900Y-72961200D03*
X144472900Y-71551600D03*
X144472900Y-70142000D03*
X144472900Y-68732400D03*
X143063300Y-88466800D03*
X143063300Y-87057200D03*
X143063300Y-85647600D03*
X143063300Y-84238000D03*
X143063300Y-75780400D03*
X143063300Y-74370800D03*
X143063300Y-72961200D03*
X143063300Y-71551600D03*
X143063300Y-70142000D03*
X143063300Y-68732400D03*
X143063300Y-67322800D03*
X143063300Y-65913200D03*
X141653700Y-88466800D03*
X141653700Y-87057200D03*
X141653700Y-85647600D03*
X141653700Y-84238000D03*
X141653700Y-75780400D03*
X141653700Y-74370800D03*
X141653700Y-72961200D03*
X141653700Y-71551600D03*
X141653700Y-70142000D03*
X141653700Y-68732400D03*
X141653700Y-67322800D03*
X141653700Y-65913200D03*
X140244100Y-88466800D03*
X140244100Y-87057200D03*
X140244100Y-85647600D03*
X140244100Y-84238000D03*
X140244100Y-71551600D03*
X140244100Y-70142000D03*
X140244100Y-68732400D03*
X140244100Y-67322800D03*
X140244100Y-65913200D03*
X138834500Y-88466800D03*
X138834500Y-87057200D03*
X138834500Y-85647600D03*
X138834500Y-84238000D03*
X138834500Y-67322800D03*
X138834500Y-65913200D03*
X137424900Y-88466800D03*
X137424900Y-87057200D03*
X137424900Y-85647600D03*
X137424900Y-84238000D03*
X137424900Y-67322800D03*
X137424900Y-65913200D03*
X136015300Y-88466800D03*
X136015300Y-87057200D03*
X136015300Y-85647600D03*
X136015300Y-84238000D03*
X136015300Y-75780400D03*
X136015300Y-67322800D03*
X136015300Y-65913200D03*
X134605700Y-88466800D03*
X134605700Y-87057200D03*
X134605700Y-85647600D03*
X134605700Y-84238000D03*
X134605700Y-75780400D03*
X134605700Y-74370800D03*
X134605700Y-72961200D03*
X134605700Y-67322800D03*
X134605700Y-65913200D03*
X133196100Y-88466800D03*
X133196100Y-87057200D03*
X133196100Y-85647600D03*
X133196100Y-84238000D03*
X133196100Y-75780400D03*
X133196100Y-74370800D03*
X133196100Y-72961200D03*
X133196100Y-67322800D03*
X133196100Y-65913200D03*
X131786500Y-88466800D03*
X131786500Y-87057200D03*
X131786500Y-85647600D03*
X131786500Y-84238000D03*
X131786500Y-75780400D03*
X131786500Y-74370800D03*
X131786500Y-72961200D03*
X131786500Y-71551600D03*
X131786500Y-70142000D03*
X131786500Y-68732400D03*
X131786500Y-67322800D03*
X131786500Y-65913200D03*
X130376900Y-88466800D03*
X130376900Y-87057200D03*
X130376900Y-85647600D03*
X130376900Y-84238000D03*
X130376900Y-75780400D03*
X130376900Y-74370800D03*
X130376900Y-72961200D03*
X130376900Y-71551600D03*
X130376900Y-70142000D03*
X130376900Y-68732400D03*
X130376900Y-67322800D03*
X130376900Y-65913200D03*
X128967300Y-88466800D03*
X128967300Y-87057200D03*
X128967300Y-85647600D03*
X128967300Y-84238000D03*
X128967300Y-75780400D03*
X128967300Y-74370800D03*
X128967300Y-72961200D03*
X128967300Y-71551600D03*
X128967300Y-70142000D03*
X128967300Y-68732400D03*
X128967300Y-67322800D03*
X128967300Y-65913200D03*
X127557700Y-88466800D03*
X127557700Y-71551600D03*
X127557700Y-70142000D03*
X127557700Y-68732400D03*
X127557700Y-67322800D03*
X127557700Y-65913200D03*
X126148100Y-88466800D03*
X126148100Y-71551600D03*
X126148100Y-70142000D03*
X126148100Y-68732400D03*
X126148100Y-67322800D03*
X126148100Y-65913200D03*
X124738500Y-88466800D03*
X124738500Y-71551600D03*
X124738500Y-70142000D03*
X124738500Y-68732400D03*
X124738500Y-67322800D03*
X124738500Y-65913200D03*
X123328900Y-88466800D03*
X123328900Y-71551600D03*
X123328900Y-70142000D03*
X123328900Y-68732400D03*
X123328900Y-67322800D03*
X123328900Y-65913200D03*
X155414337Y-81001999D03*
X156210175Y-81001999D03*
X157006012Y-81001999D03*
X157801850Y-81001999D03*
X158597687Y-81001999D03*
X159393525Y-81001999D03*
X160189362Y-81001999D03*
X154618500Y-81001999D03*
X160985200Y-81001999D03*
X160189362Y-79001999D03*
X159393525Y-79001999D03*
X158597687Y-79001999D03*
X157801850Y-79001999D03*
X157006012Y-79001999D03*
X156210175Y-79001999D03*
X155414337Y-79001999D03*
X160985200Y-79001999D03*
X154618500Y-79001999D03*
X155414337Y-81751999D03*
X156210175Y-81751999D03*
X157006012Y-81751999D03*
X157801850Y-81751999D03*
X158597687Y-81751999D03*
X159393525Y-81751999D03*
X160189362Y-81751999D03*
X154618500Y-81751999D03*
X160985200Y-81751999D03*
X160189362Y-78251999D03*
X159393525Y-78251999D03*
X158597687Y-78251999D03*
X157801850Y-78251999D03*
X157006012Y-78251999D03*
X156210175Y-78251999D03*
X155414337Y-78251999D03*
X160985200Y-78251999D03*
X154618500Y-78251999D03*
X155414337Y-82501999D03*
X156210175Y-82501999D03*
X157006012Y-82501999D03*
X157801850Y-82501999D03*
X158597687Y-82501999D03*
X159393525Y-82501999D03*
X160189362Y-82501999D03*
X154618500Y-82501999D03*
X160985200Y-82501999D03*
X160189362Y-77501999D03*
X159393525Y-77501999D03*
X158597687Y-77501999D03*
X157801850Y-77501999D03*
X157006012Y-77501999D03*
X156210175Y-77501999D03*
X155414337Y-77501999D03*
X160985200Y-77501999D03*
X154618500Y-77501999D03*
X149617250Y-82501999D03*
X150390500Y-82501999D03*
X151163750Y-82501999D03*
X151937000Y-82501999D03*
X152710250Y-82501999D03*
X153483500Y-82501999D03*
X152710250Y-77501999D03*
X151937000Y-77501999D03*
X151163750Y-77501999D03*
X150390500Y-77501999D03*
X153483500Y-77501999D03*
X149617250Y-81751999D03*
X150390500Y-81751999D03*
X151163750Y-81751999D03*
X151937000Y-81751999D03*
X152710250Y-81751999D03*
X153483500Y-81751999D03*
X152710250Y-78251999D03*
X151937000Y-78251999D03*
X151163750Y-78251999D03*
X150390500Y-78251999D03*
X153483500Y-78251999D03*
X149617250Y-81001999D03*
X150390500Y-81001999D03*
X151163750Y-81001999D03*
X151937000Y-81001999D03*
X152710250Y-81001999D03*
X148844000Y-81076800D03*
X153483500Y-81001999D03*
X152710250Y-79001999D03*
X151937000Y-79001999D03*
X151163750Y-79001999D03*
X150390500Y-79001999D03*
X153483500Y-79001999D03*
X142748000Y-81001999D03*
X143510000Y-81001999D03*
X144272000Y-81001999D03*
X145034000Y-81001999D03*
X145796000Y-81001999D03*
X146558000Y-81001999D03*
X147320000Y-81001999D03*
X148082000Y-81001999D03*
X147320000Y-79001999D03*
X146558000Y-79001999D03*
X145796000Y-79001999D03*
X145034000Y-79001999D03*
X144272000Y-79001999D03*
X143510000Y-79001999D03*
X142748000Y-79001999D03*
X142748000Y-81751999D03*
X143510000Y-81751999D03*
X144272000Y-81751999D03*
X145034000Y-81751999D03*
X145796000Y-81751999D03*
X146558000Y-81751999D03*
X147320000Y-81751999D03*
X148082000Y-81751999D03*
X141986000Y-81751999D03*
X148844000Y-81751999D03*
X147320000Y-78251999D03*
X146558000Y-78251999D03*
X145796000Y-78251999D03*
X145034000Y-78251999D03*
X144272000Y-78251999D03*
X143510000Y-78251999D03*
X142748000Y-78251999D03*
X141986000Y-78251999D03*
X142748000Y-82501999D03*
X143510000Y-82501999D03*
X144272000Y-82501999D03*
X145034000Y-82501999D03*
X145796000Y-82501999D03*
X146558000Y-82501999D03*
X147320000Y-82501999D03*
X148082000Y-82501999D03*
X141986000Y-82501999D03*
X148844000Y-82501999D03*
X147320000Y-77501999D03*
X146558000Y-77501999D03*
X145796000Y-77501999D03*
X145034000Y-77501999D03*
X144272000Y-77501999D03*
X143510000Y-77501999D03*
X142748000Y-77501999D03*
X141986000Y-77501999D03*
X135259233Y-82501999D03*
X136025466Y-82501999D03*
X136791700Y-82501999D03*
X137557933Y-82501999D03*
X138324166Y-82501999D03*
X139090400Y-82501999D03*
X138324166Y-77501999D03*
X137557933Y-77501999D03*
X136791700Y-77501999D03*
X136025466Y-77501999D03*
X135259233Y-77501999D03*
X135259233Y-81751999D03*
X136025466Y-81751999D03*
X136791700Y-81751999D03*
X137557933Y-81751999D03*
X138324166Y-81751999D03*
X139090400Y-81751999D03*
X138324166Y-78251999D03*
X137557933Y-78251999D03*
X136791700Y-78251999D03*
X136025466Y-78251999D03*
X135259233Y-78251999D03*
X139090400Y-78251999D03*
X135259233Y-81001999D03*
X136025466Y-81001999D03*
X136791700Y-81001999D03*
X137557933Y-81001999D03*
X138324166Y-81001999D03*
X138324166Y-79001999D03*
X137557933Y-79001999D03*
X136791700Y-79001999D03*
X136025466Y-79001999D03*
X135259233Y-79001999D03*
X131086200Y-81001999D03*
X131937900Y-81001999D03*
X132789600Y-81001999D03*
X133641300Y-81001999D03*
X130234500Y-81001999D03*
X133641300Y-79001999D03*
X132789600Y-79001999D03*
X131937900Y-79001999D03*
X131086200Y-79001999D03*
X134493000Y-79001999D03*
X130234500Y-79001999D03*
X131086200Y-81751999D03*
X131937900Y-81751999D03*
X132789600Y-81751999D03*
X133641300Y-81751999D03*
X130234500Y-81751999D03*
X134493000Y-81751999D03*
X133641300Y-78251999D03*
X132789600Y-78251999D03*
X131937900Y-78251999D03*
X131086200Y-78251999D03*
X134493000Y-78251999D03*
X130234500Y-78251999D03*
X131086200Y-82501999D03*
X131937900Y-82501999D03*
X132789600Y-82501999D03*
X133641300Y-82501999D03*
X130234500Y-82501999D03*
X134493000Y-82501999D03*
X133641300Y-77501999D03*
X132789600Y-77501999D03*
X131937900Y-77501999D03*
X131086200Y-77501999D03*
X134493000Y-77501999D03*
X130234500Y-77501999D03*
X125169750Y-82501999D03*
X125955700Y-82501999D03*
X126741650Y-82501999D03*
X127527600Y-82501999D03*
X128313550Y-82501999D03*
X124383800Y-82501999D03*
X129099500Y-82501999D03*
X128313550Y-77501999D03*
X127527600Y-77501999D03*
X126741650Y-77501999D03*
X125955700Y-77501999D03*
X125169750Y-77501999D03*
X129099500Y-77501999D03*
X124383800Y-77501999D03*
X125169750Y-81751999D03*
X125955700Y-81751999D03*
X126741650Y-81751999D03*
X127527600Y-81751999D03*
X128313550Y-81751999D03*
X124383800Y-81751999D03*
X129099500Y-81751999D03*
X128313550Y-78251999D03*
X127527600Y-78251999D03*
X126741650Y-78251999D03*
X125955700Y-78251999D03*
X125169750Y-78251999D03*
X129099500Y-78251999D03*
X124383800Y-78251999D03*
X125169750Y-81001999D03*
X125955700Y-81001999D03*
X126741650Y-81001999D03*
X127527600Y-81001999D03*
X128313550Y-81001999D03*
X124383800Y-81001999D03*
X129099500Y-81001999D03*
X128313550Y-79001999D03*
X127527600Y-79001999D03*
X126741650Y-79001999D03*
X125955700Y-79001999D03*
X125169750Y-79001999D03*
X129099500Y-79001999D03*
X124383800Y-79001999D03*
%TD*%
%TA.AperFunction,Conductor*%
%TO.N,GND*%
G36*
X163467739Y-63316985D02*
G01*
X163513494Y-63369789D01*
X163524700Y-63421300D01*
X163524700Y-90578900D01*
X163505015Y-90645939D01*
X163452211Y-90691694D01*
X163400700Y-90702900D01*
X121968300Y-90702900D01*
X121901261Y-90683215D01*
X121855506Y-90630411D01*
X121844300Y-90578900D01*
X121844300Y-84658805D01*
X123501920Y-84658805D01*
X123501920Y-84844792D01*
X123531015Y-85028492D01*
X123588486Y-85205373D01*
X123588487Y-85205376D01*
X123672925Y-85371093D01*
X123782246Y-85521560D01*
X123913759Y-85653073D01*
X124064226Y-85762394D01*
X124145505Y-85803807D01*
X124229942Y-85846831D01*
X124229945Y-85846832D01*
X124318385Y-85875567D01*
X124406828Y-85904304D01*
X124590526Y-85933399D01*
X124590527Y-85933399D01*
X124776513Y-85933399D01*
X124776514Y-85933399D01*
X124960212Y-85904304D01*
X125137097Y-85846831D01*
X125302814Y-85762394D01*
X125453281Y-85653073D01*
X125584794Y-85521560D01*
X125694115Y-85371093D01*
X125778552Y-85205376D01*
X125836025Y-85028491D01*
X125865120Y-84844793D01*
X125865120Y-84658805D01*
X159503880Y-84658805D01*
X159503880Y-84844792D01*
X159532975Y-85028492D01*
X159590446Y-85205373D01*
X159590447Y-85205376D01*
X159674885Y-85371093D01*
X159784206Y-85521560D01*
X159915719Y-85653073D01*
X160066186Y-85762394D01*
X160147465Y-85803807D01*
X160231902Y-85846831D01*
X160231905Y-85846832D01*
X160320345Y-85875567D01*
X160408788Y-85904304D01*
X160592486Y-85933399D01*
X160592487Y-85933399D01*
X160778473Y-85933399D01*
X160778474Y-85933399D01*
X160962172Y-85904304D01*
X161139057Y-85846831D01*
X161304774Y-85762394D01*
X161455241Y-85653073D01*
X161586754Y-85521560D01*
X161696075Y-85371093D01*
X161780512Y-85205376D01*
X161837985Y-85028491D01*
X161867080Y-84844793D01*
X161867080Y-84658805D01*
X161837985Y-84475107D01*
X161780512Y-84298222D01*
X161780512Y-84298221D01*
X161696074Y-84132504D01*
X161586754Y-83982038D01*
X161455241Y-83850525D01*
X161304774Y-83741204D01*
X161139057Y-83656766D01*
X161139054Y-83656765D01*
X160962173Y-83599294D01*
X160870323Y-83584746D01*
X160778474Y-83570199D01*
X160592486Y-83570199D01*
X160531253Y-83579897D01*
X160408786Y-83599294D01*
X160231905Y-83656765D01*
X160231902Y-83656766D01*
X160066185Y-83741204D01*
X159980338Y-83803576D01*
X159915719Y-83850525D01*
X159915717Y-83850527D01*
X159915716Y-83850527D01*
X159784208Y-83982035D01*
X159784208Y-83982036D01*
X159784206Y-83982038D01*
X159737257Y-84046657D01*
X159674885Y-84132504D01*
X159590447Y-84298221D01*
X159590446Y-84298224D01*
X159532975Y-84475105D01*
X159503880Y-84658805D01*
X125865120Y-84658805D01*
X125836025Y-84475107D01*
X125778552Y-84298222D01*
X125778552Y-84298221D01*
X125694114Y-84132504D01*
X125584794Y-83982038D01*
X125453281Y-83850525D01*
X125302814Y-83741204D01*
X125137097Y-83656766D01*
X125137094Y-83656765D01*
X124960213Y-83599294D01*
X124868363Y-83584746D01*
X124776514Y-83570199D01*
X124590526Y-83570199D01*
X124529293Y-83579897D01*
X124406826Y-83599294D01*
X124229945Y-83656765D01*
X124229942Y-83656766D01*
X124064225Y-83741204D01*
X123978378Y-83803576D01*
X123913759Y-83850525D01*
X123913757Y-83850527D01*
X123913756Y-83850527D01*
X123782248Y-83982035D01*
X123782248Y-83982036D01*
X123782246Y-83982038D01*
X123735297Y-84046657D01*
X123672925Y-84132504D01*
X123588487Y-84298221D01*
X123588486Y-84298224D01*
X123531015Y-84475105D01*
X123501920Y-84658805D01*
X121844300Y-84658805D01*
X121844300Y-75159205D01*
X123501920Y-75159205D01*
X123501920Y-75345192D01*
X123531015Y-75528892D01*
X123588486Y-75705773D01*
X123588487Y-75705776D01*
X123672925Y-75871493D01*
X123782246Y-76021960D01*
X123913759Y-76153473D01*
X124064226Y-76262794D01*
X124145505Y-76304207D01*
X124229942Y-76347231D01*
X124229945Y-76347232D01*
X124318385Y-76375967D01*
X124406828Y-76404704D01*
X124590526Y-76433799D01*
X124590527Y-76433799D01*
X124776513Y-76433799D01*
X124776514Y-76433799D01*
X124960212Y-76404704D01*
X125137097Y-76347231D01*
X125302814Y-76262794D01*
X125453281Y-76153473D01*
X125584794Y-76021960D01*
X125694115Y-75871493D01*
X125778552Y-75705776D01*
X125836025Y-75528891D01*
X125865120Y-75345193D01*
X125865120Y-75159205D01*
X159503880Y-75159205D01*
X159503880Y-75345192D01*
X159532975Y-75528892D01*
X159590446Y-75705773D01*
X159590447Y-75705776D01*
X159674885Y-75871493D01*
X159784206Y-76021960D01*
X159915719Y-76153473D01*
X160066186Y-76262794D01*
X160147465Y-76304207D01*
X160231902Y-76347231D01*
X160231905Y-76347232D01*
X160320345Y-76375967D01*
X160408788Y-76404704D01*
X160592486Y-76433799D01*
X160592487Y-76433799D01*
X160778473Y-76433799D01*
X160778474Y-76433799D01*
X160962172Y-76404704D01*
X161139057Y-76347231D01*
X161304774Y-76262794D01*
X161455241Y-76153473D01*
X161586754Y-76021960D01*
X161696075Y-75871493D01*
X161780512Y-75705776D01*
X161837985Y-75528891D01*
X161867080Y-75345193D01*
X161867080Y-75159205D01*
X161837985Y-74975507D01*
X161780512Y-74798622D01*
X161780512Y-74798621D01*
X161696074Y-74632904D01*
X161586754Y-74482438D01*
X161455241Y-74350925D01*
X161304774Y-74241604D01*
X161139057Y-74157166D01*
X161139054Y-74157165D01*
X160962173Y-74099694D01*
X160870323Y-74085146D01*
X160778474Y-74070599D01*
X160592486Y-74070599D01*
X160531253Y-74080297D01*
X160408786Y-74099694D01*
X160231905Y-74157165D01*
X160231902Y-74157166D01*
X160066185Y-74241604D01*
X159980338Y-74303976D01*
X159915719Y-74350925D01*
X159915717Y-74350927D01*
X159915716Y-74350927D01*
X159784208Y-74482435D01*
X159784208Y-74482436D01*
X159784206Y-74482438D01*
X159737257Y-74547057D01*
X159674885Y-74632904D01*
X159590447Y-74798621D01*
X159590446Y-74798624D01*
X159532975Y-74975505D01*
X159503880Y-75159205D01*
X125865120Y-75159205D01*
X125836025Y-74975507D01*
X125778552Y-74798622D01*
X125778552Y-74798621D01*
X125694114Y-74632904D01*
X125584794Y-74482438D01*
X125453281Y-74350925D01*
X125302814Y-74241604D01*
X125137097Y-74157166D01*
X125137094Y-74157165D01*
X124960213Y-74099694D01*
X124868363Y-74085146D01*
X124776514Y-74070599D01*
X124590526Y-74070599D01*
X124529293Y-74080297D01*
X124406826Y-74099694D01*
X124229945Y-74157165D01*
X124229942Y-74157166D01*
X124064225Y-74241604D01*
X123978378Y-74303976D01*
X123913759Y-74350925D01*
X123913757Y-74350927D01*
X123913756Y-74350927D01*
X123782248Y-74482435D01*
X123782248Y-74482436D01*
X123782246Y-74482438D01*
X123735297Y-74547057D01*
X123672925Y-74632904D01*
X123588487Y-74798621D01*
X123588486Y-74798624D01*
X123531015Y-74975505D01*
X123501920Y-75159205D01*
X121844300Y-75159205D01*
X121844300Y-69236434D01*
X135882700Y-69236434D01*
X135882700Y-70971558D01*
X135893044Y-71023566D01*
X135893045Y-71023569D01*
X135932453Y-71082547D01*
X135991431Y-71121955D01*
X135991432Y-71121955D01*
X135991433Y-71121956D01*
X136022578Y-71128150D01*
X136043439Y-71132300D01*
X137778560Y-71132299D01*
X137830569Y-71121955D01*
X137889547Y-71082547D01*
X137928955Y-71023569D01*
X137939300Y-70971561D01*
X137939299Y-69236440D01*
X137928955Y-69184431D01*
X137889547Y-69125453D01*
X137830569Y-69086045D01*
X137830568Y-69086044D01*
X137830567Y-69086044D01*
X137830566Y-69086043D01*
X137778563Y-69075700D01*
X136043441Y-69075700D01*
X135991430Y-69086045D01*
X135952022Y-69112377D01*
X135932455Y-69125452D01*
X135932452Y-69125454D01*
X135893044Y-69184432D01*
X135893043Y-69184433D01*
X135882700Y-69236434D01*
X121844300Y-69236434D01*
X121844300Y-65299434D01*
X147815700Y-65299434D01*
X147815700Y-67034558D01*
X147826044Y-67086566D01*
X147826045Y-67086569D01*
X147865453Y-67145547D01*
X147924431Y-67184955D01*
X147924432Y-67184955D01*
X147924433Y-67184956D01*
X147955578Y-67191150D01*
X147976439Y-67195300D01*
X149711560Y-67195299D01*
X149763569Y-67184955D01*
X149822547Y-67145547D01*
X149861955Y-67086569D01*
X149872300Y-67034561D01*
X149872299Y-65299440D01*
X149861955Y-65247431D01*
X149822547Y-65188453D01*
X149763569Y-65149045D01*
X149763568Y-65149044D01*
X149763567Y-65149044D01*
X149763566Y-65149043D01*
X149711563Y-65138700D01*
X147976441Y-65138700D01*
X147924430Y-65149045D01*
X147885022Y-65175377D01*
X147865455Y-65188452D01*
X147865452Y-65188454D01*
X147826044Y-65247432D01*
X147826043Y-65247433D01*
X147815700Y-65299434D01*
X121844300Y-65299434D01*
X121844300Y-63421300D01*
X121863985Y-63354261D01*
X121916789Y-63308506D01*
X121968300Y-63297300D01*
X163400700Y-63297300D01*
X163467739Y-63316985D01*
G37*
%TD.AperFunction*%
%TD*%
M02*
