M48
; DRILL file {KiCad 8.0.4} date 2025-12-21T00:45:36-0800
; FORMAT={-:-/ absolute / inch / decimal}
; #@! TF.CreationDate,2025-12-21T00:45:36-08:00
; #@! TF.GenerationSoftware,Kicad,Pcbnew,8.0.4
; #@! TF.FileFunction,Plated,1,4,PTH
FMAT,2
INCH
; #@! TA.AperFunction,Plated,PTH,ViaDrill
T1C0.0100
; #@! TA.AperFunction,Plated,PTH,ComponentDrill
T2C0.0394
%
G90
G05
T1
X4.8555Y-2.595
X4.8555Y-2.6505
X4.8555Y-2.706
X4.8555Y-2.7615
X4.8555Y-2.817
X4.8555Y-3.4829
X4.897Y-3.0513
X4.897Y-3.0808
X4.897Y-3.1103
X4.897Y-3.1891
X4.897Y-3.2186
X4.897Y-3.2481
X4.911Y-2.595
X4.911Y-2.6505
X4.911Y-2.706
X4.911Y-2.7615
X4.911Y-2.817
X4.911Y-3.4829
X4.9279Y-3.0513
X4.9279Y-3.0808
X4.9279Y-3.1103
X4.9279Y-3.1891
X4.9279Y-3.2186
X4.9279Y-3.2481
X4.9589Y-3.0513
X4.9589Y-3.0808
X4.9589Y-3.1103
X4.9589Y-3.1891
X4.9589Y-3.2186
X4.9589Y-3.2481
X4.9665Y-2.595
X4.9665Y-2.6505
X4.9665Y-2.706
X4.9665Y-2.7615
X4.9665Y-2.817
X4.9665Y-3.4829
X4.9898Y-3.0513
X4.9898Y-3.0808
X4.9898Y-3.1103
X4.9898Y-3.1891
X4.9898Y-3.2186
X4.9898Y-3.2481
X5.0208Y-3.0513
X5.0208Y-3.0808
X5.0208Y-3.1103
X5.0208Y-3.1891
X5.0208Y-3.2186
X5.0208Y-3.2481
X5.022Y-2.595
X5.022Y-2.6505
X5.022Y-2.706
X5.022Y-2.7615
X5.022Y-2.817
X5.022Y-3.4829
X5.0517Y-3.0513
X5.0517Y-3.0808
X5.0517Y-3.1103
X5.0517Y-3.1891
X5.0517Y-3.2186
X5.0517Y-3.2481
X5.0775Y-2.595
X5.0775Y-2.6505
X5.0775Y-2.706
X5.0775Y-2.7615
X5.0775Y-2.817
X5.0775Y-2.8725
X5.0775Y-2.928
X5.0775Y-2.9835
X5.0775Y-3.3165
X5.0775Y-3.372
X5.0775Y-3.4274
X5.0775Y-3.4829
X5.0827Y-3.0513
X5.0827Y-3.0808
X5.0827Y-3.1103
X5.0827Y-3.1891
X5.0827Y-3.2186
X5.0827Y-3.2481
X5.1273Y-3.0513
X5.1273Y-3.0808
X5.1273Y-3.1103
X5.1273Y-3.1891
X5.1273Y-3.2186
X5.1273Y-3.2481
X5.1329Y-2.595
X5.1329Y-2.6505
X5.1329Y-2.706
X5.1329Y-2.7615
X5.1329Y-2.817
X5.1329Y-2.8725
X5.1329Y-2.928
X5.1329Y-2.9835
X5.1329Y-3.3165
X5.1329Y-3.372
X5.1329Y-3.4274
X5.1329Y-3.4829
X5.1609Y-3.0513
X5.1609Y-3.0808
X5.1609Y-3.1103
X5.1609Y-3.1891
X5.1609Y-3.2186
X5.1609Y-3.2481
X5.1884Y-2.595
X5.1884Y-2.6505
X5.1884Y-2.706
X5.1884Y-2.7615
X5.1884Y-2.817
X5.1884Y-2.8725
X5.1884Y-2.928
X5.1884Y-2.9835
X5.1884Y-3.3165
X5.1884Y-3.372
X5.1884Y-3.4274
X5.1884Y-3.4829
X5.1944Y-3.0513
X5.1944Y-3.0808
X5.1944Y-3.1103
X5.1944Y-3.1891
X5.1944Y-3.2186
X5.1944Y-3.2481
X5.2279Y-3.0513
X5.2279Y-3.0808
X5.2279Y-3.1103
X5.2279Y-3.1891
X5.2279Y-3.2186
X5.2279Y-3.2481
X5.2439Y-2.595
X5.2439Y-2.6505
X5.2439Y-2.8725
X5.2439Y-2.928
X5.2439Y-2.9835
X5.2439Y-3.3165
X5.2439Y-3.372
X5.2439Y-3.4274
X5.2439Y-3.4829
X5.2615Y-3.0513
X5.2615Y-3.0808
X5.2615Y-3.1103
X5.2615Y-3.1891
X5.2615Y-3.2186
X5.2615Y-3.2481
X5.295Y-3.0513
X5.295Y-3.0808
X5.295Y-3.1103
X5.295Y-3.2186
X5.295Y-3.2481
X5.2994Y-2.595
X5.2994Y-2.6505
X5.2994Y-2.8725
X5.2994Y-2.928
X5.2994Y-2.9835
X5.2994Y-3.3165
X5.2994Y-3.372
X5.2994Y-3.4274
X5.2994Y-3.4829
X5.3252Y-3.0513
X5.3252Y-3.0808
X5.3252Y-3.1103
X5.3252Y-3.1891
X5.3252Y-3.2186
X5.3252Y-3.2481
X5.3549Y-2.595
X5.3549Y-2.6505
X5.3549Y-2.9835
X5.3549Y-3.3165
X5.3549Y-3.372
X5.3549Y-3.4274
X5.3549Y-3.4829
X5.3553Y-3.0513
X5.3553Y-3.0808
X5.3553Y-3.1103
X5.3553Y-3.1891
X5.3553Y-3.2186
X5.3553Y-3.2481
X5.3855Y-3.0513
X5.3855Y-3.0808
X5.3855Y-3.1103
X5.3855Y-3.1891
X5.3855Y-3.2186
X5.3855Y-3.2481
X5.4104Y-2.595
X5.4104Y-2.6505
X5.4104Y-3.3165
X5.4104Y-3.372
X5.4104Y-3.4274
X5.4104Y-3.4829
X5.4157Y-3.0513
X5.4157Y-3.0808
X5.4157Y-3.1103
X5.4157Y-3.1891
X5.4157Y-3.2186
X5.4157Y-3.2481
X5.4458Y-3.0513
X5.4458Y-3.0808
X5.4458Y-3.1103
X5.4458Y-3.1891
X5.4458Y-3.2186
X5.4458Y-3.2481
X5.4659Y-2.595
X5.4659Y-2.6505
X5.4659Y-3.3165
X5.4659Y-3.372
X5.4659Y-3.4274
X5.4659Y-3.4829
X5.476Y-3.0808
X5.476Y-3.2186
X5.476Y-3.2481
X5.516Y-3.132
X5.516Y-3.166
X5.5214Y-2.595
X5.5214Y-2.6505
X5.5214Y-2.706
X5.5214Y-2.7615
X5.5214Y-2.817
X5.5214Y-3.3165
X5.5214Y-3.372
X5.5214Y-3.4274
X5.5214Y-3.4829
X5.55Y-3.132
X5.55Y-3.166
X5.5769Y-2.595
X5.5769Y-2.6505
X5.5769Y-2.706
X5.5769Y-2.7615
X5.5769Y-2.817
X5.5769Y-2.8725
X5.5769Y-2.928
X5.5769Y-2.9835
X5.5769Y-3.3165
X5.5769Y-3.372
X5.5769Y-3.4274
X5.5769Y-3.4829
X5.59Y-3.0513
X5.59Y-3.0808
X5.59Y-3.2186
X5.59Y-3.2481
X5.62Y-3.0513
X5.62Y-3.0808
X5.62Y-3.1103
X5.62Y-3.1891
X5.62Y-3.2186
X5.62Y-3.2481
X5.6324Y-2.595
X5.6324Y-2.6505
X5.6324Y-2.706
X5.6324Y-2.7615
X5.6324Y-2.817
X5.6324Y-2.8725
X5.6324Y-2.928
X5.6324Y-2.9835
X5.6324Y-3.3165
X5.6324Y-3.372
X5.6324Y-3.4274
X5.6324Y-3.4829
X5.65Y-3.0513
X5.65Y-3.0808
X5.65Y-3.1103
X5.65Y-3.1891
X5.65Y-3.2186
X5.65Y-3.2481
X5.68Y-3.0513
X5.68Y-3.0808
X5.68Y-3.1103
X5.68Y-3.1891
X5.68Y-3.2186
X5.68Y-3.2481
X5.6879Y-2.706
X5.6879Y-2.7615
X5.6879Y-2.817
X5.6879Y-2.8725
X5.6879Y-2.928
X5.6879Y-2.9835
X5.6879Y-3.3165
X5.6879Y-3.372
X5.6879Y-3.4274
X5.6879Y-3.4829
X5.71Y-3.0513
X5.71Y-3.0808
X5.71Y-3.1103
X5.71Y-3.1891
X5.71Y-3.2186
X5.71Y-3.2481
X5.74Y-3.0513
X5.74Y-3.0808
X5.74Y-3.1103
X5.74Y-3.1891
X5.74Y-3.2186
X5.74Y-3.2481
X5.7434Y-2.706
X5.7434Y-2.928
X5.7434Y-2.9835
X5.7434Y-3.3165
X5.7434Y-3.372
X5.7434Y-3.4274
X5.7434Y-3.4829
X5.77Y-3.0513
X5.77Y-3.0808
X5.77Y-3.1103
X5.77Y-3.1891
X5.77Y-3.2186
X5.77Y-3.2481
X5.7989Y-2.706
X5.7989Y-3.3165
X5.7989Y-3.372
X5.7989Y-3.4274
X5.7989Y-3.4829
X5.8Y-3.0513
X5.8Y-3.0808
X5.8Y-3.1103
X5.8Y-3.1891
X5.8Y-3.2186
X5.8Y-3.2481
X5.83Y-3.1891
X5.83Y-3.2186
X5.83Y-3.2481
X5.8544Y-3.3165
X5.8544Y-3.372
X5.8544Y-3.4274
X5.8544Y-3.4829
X5.86Y-3.192
X5.86Y-3.2186
X5.86Y-3.2481
X5.8904Y-3.1891
X5.8904Y-3.2186
X5.8904Y-3.2481
X5.9099Y-3.3165
X5.9099Y-3.372
X5.9099Y-3.4274
X5.9099Y-3.4829
X5.9209Y-3.0513
X5.9209Y-3.0808
X5.9209Y-3.1103
X5.9209Y-3.1891
X5.9209Y-3.2186
X5.9209Y-3.2481
X5.9513Y-3.0513
X5.9513Y-3.0808
X5.9513Y-3.1103
X5.9513Y-3.1891
X5.9513Y-3.2186
X5.9513Y-3.2481
X5.9654Y-2.595
X5.9654Y-2.6505
X5.9654Y-2.706
X5.9654Y-2.7615
X5.9654Y-2.817
X5.9654Y-2.8725
X5.9654Y-2.928
X5.9654Y-2.9835
X5.9654Y-3.3165
X5.9654Y-3.372
X5.9654Y-3.4274
X5.9654Y-3.4829
X5.9818Y-3.0513
X5.9818Y-3.0808
X5.9818Y-3.1103
X5.9818Y-3.1891
X5.9818Y-3.2186
X5.9818Y-3.2481
X6.0122Y-3.0513
X6.0122Y-3.0808
X6.0122Y-3.1103
X6.0122Y-3.1891
X6.0122Y-3.2186
X6.0122Y-3.2481
X6.0209Y-2.595
X6.0209Y-2.6505
X6.0209Y-2.706
X6.0209Y-2.7615
X6.0209Y-2.817
X6.0209Y-2.8725
X6.0209Y-2.928
X6.0209Y-2.9835
X6.0209Y-3.3165
X6.0209Y-3.372
X6.0209Y-3.4274
X6.0209Y-3.4829
X6.0427Y-3.0513
X6.0427Y-3.0808
X6.0427Y-3.1103
X6.0427Y-3.1891
X6.0427Y-3.2186
X6.0427Y-3.2481
X6.0764Y-2.595
X6.0764Y-2.6505
X6.0764Y-2.706
X6.0764Y-2.7615
X6.0764Y-2.817
X6.0764Y-2.8725
X6.0764Y-2.928
X6.0764Y-2.9835
X6.0764Y-3.3165
X6.0764Y-3.372
X6.0764Y-3.4274
X6.0764Y-3.4829
X6.0873Y-3.0513
X6.0873Y-3.0808
X6.0873Y-3.1103
X6.0873Y-3.1891
X6.0873Y-3.2186
X6.0873Y-3.2481
X6.1187Y-3.0513
X6.1187Y-3.0808
X6.1187Y-3.1103
X6.1187Y-3.1891
X6.1187Y-3.2186
X6.1187Y-3.2481
X6.1319Y-2.595
X6.1319Y-2.6505
X6.1319Y-2.706
X6.1319Y-2.7615
X6.1319Y-2.817
X6.1319Y-2.8725
X6.1319Y-2.928
X6.1319Y-2.9835
X6.1319Y-3.3165
X6.1319Y-3.372
X6.1319Y-3.4274
X6.1319Y-3.4829
X6.15Y-3.0513
X6.15Y-3.0808
X6.15Y-3.1103
X6.15Y-3.1891
X6.15Y-3.2186
X6.15Y-3.2481
X6.1813Y-3.0513
X6.1813Y-3.0808
X6.1813Y-3.1103
X6.1813Y-3.1891
X6.1813Y-3.2186
X6.1813Y-3.2481
X6.1874Y-2.595
X6.1874Y-2.6505
X6.1874Y-2.706
X6.1874Y-2.7615
X6.1874Y-2.817
X6.1874Y-2.8725
X6.1874Y-2.928
X6.1874Y-2.9835
X6.1874Y-3.3165
X6.1874Y-3.372
X6.1874Y-3.4274
X6.1874Y-3.4829
X6.2127Y-3.0513
X6.2127Y-3.0808
X6.2127Y-3.1103
X6.2127Y-3.1891
X6.2127Y-3.2186
X6.2127Y-3.2481
X6.2429Y-2.595
X6.2429Y-2.6505
X6.2429Y-2.706
X6.2429Y-2.7615
X6.2429Y-2.817
X6.2429Y-3.4829
X6.244Y-3.0513
X6.244Y-3.0808
X6.244Y-3.1103
X6.244Y-3.1891
X6.244Y-3.2186
X6.244Y-3.2481
X6.2753Y-3.0513
X6.2753Y-3.0808
X6.2753Y-3.1103
X6.2753Y-3.1891
X6.2753Y-3.2186
X6.2753Y-3.2481
X6.2984Y-2.595
X6.2984Y-2.6505
X6.2984Y-2.706
X6.2984Y-2.7615
X6.2984Y-2.817
X6.2984Y-3.4829
X6.3067Y-3.0513
X6.3067Y-3.0808
X6.3067Y-3.1103
X6.3067Y-3.1891
X6.3067Y-3.2186
X6.3067Y-3.2481
X6.338Y-3.0513
X6.338Y-3.0808
X6.338Y-3.1103
X6.338Y-3.1891
X6.338Y-3.2186
X6.338Y-3.2481
X6.3539Y-2.595
X6.3539Y-2.6505
X6.3539Y-2.706
X6.3539Y-2.7615
X6.3539Y-2.817
X6.3539Y-3.4829
T2
X5.2902Y-2.76
X5.3902Y-2.76
X5.76Y-2.605
X5.86Y-2.605
M30
