%TF.GenerationSoftware,KiCad,Pcbnew,8.0.4*%
%TF.CreationDate,2025-12-21T00:45:36-08:00*%
%TF.ProjectId,PLL-Driver,504c4c2d-4472-4697-9665-722e6b696361,rev?*%
%TF.SameCoordinates,Original*%
%TF.FileFunction,Drillmap*%
%TF.FilePolarity,Positive*%
%FSLAX45Y45*%
G04 Gerber Fmt 4.5, Leading zero omitted, Abs format (unit mm)*
G04 Created by KiCad (PCBNEW 8.0.4) date 2025-12-21 00:45:36*
%MOMM*%
%LPD*%
G01*
G04 APERTURE LIST*
%ADD10C,0.050000*%
%ADD11C,0.200000*%
%ADD12C,0.100000*%
G04 APERTURE END LIST*
D10*
X12166600Y-6311900D02*
X16370300Y-6311900D01*
X16370300Y-9088120D01*
X12166600Y-9088120D01*
X12166600Y-6311900D01*
D11*
D12*
X12320190Y-6578620D02*
X12345590Y-6604020D01*
X12345590Y-6578620D02*
X12320190Y-6604020D01*
X12320190Y-6719580D02*
X12345590Y-6744980D01*
X12345590Y-6719580D02*
X12320190Y-6744980D01*
X12320190Y-6860540D02*
X12345590Y-6885940D01*
X12345590Y-6860540D02*
X12320190Y-6885940D01*
X12320190Y-7001500D02*
X12345590Y-7026900D01*
X12345590Y-7001500D02*
X12320190Y-7026900D01*
X12320190Y-7142460D02*
X12345590Y-7167860D01*
X12345590Y-7142460D02*
X12320190Y-7167860D01*
X12320190Y-8833980D02*
X12345590Y-8859380D01*
X12345590Y-8833980D02*
X12320190Y-8859380D01*
X12425680Y-7737500D02*
X12451080Y-7762900D01*
X12451080Y-7737500D02*
X12425680Y-7762900D01*
X12425680Y-7812500D02*
X12451080Y-7837900D01*
X12451080Y-7812500D02*
X12425680Y-7837900D01*
X12425680Y-7887500D02*
X12451080Y-7912900D01*
X12451080Y-7887500D02*
X12425680Y-7912900D01*
X12425680Y-8087500D02*
X12451080Y-8112900D01*
X12451080Y-8087500D02*
X12425680Y-8112900D01*
X12425680Y-8162500D02*
X12451080Y-8187900D01*
X12451080Y-8162500D02*
X12425680Y-8187900D01*
X12425680Y-8237500D02*
X12451080Y-8262900D01*
X12451080Y-8237500D02*
X12425680Y-8262900D01*
X12461150Y-6578620D02*
X12486550Y-6604020D01*
X12486550Y-6578620D02*
X12461150Y-6604020D01*
X12461150Y-6719580D02*
X12486550Y-6744980D01*
X12486550Y-6719580D02*
X12461150Y-6744980D01*
X12461150Y-6860540D02*
X12486550Y-6885940D01*
X12486550Y-6860540D02*
X12461150Y-6885940D01*
X12461150Y-7001500D02*
X12486550Y-7026900D01*
X12486550Y-7001500D02*
X12461150Y-7026900D01*
X12461150Y-7142460D02*
X12486550Y-7167860D01*
X12486550Y-7142460D02*
X12461150Y-7167860D01*
X12461150Y-8833980D02*
X12486550Y-8859380D01*
X12486550Y-8833980D02*
X12461150Y-8859380D01*
X12504275Y-7737500D02*
X12529675Y-7762900D01*
X12529675Y-7737500D02*
X12504275Y-7762900D01*
X12504275Y-7812500D02*
X12529675Y-7837900D01*
X12529675Y-7812500D02*
X12504275Y-7837900D01*
X12504275Y-7887500D02*
X12529675Y-7912900D01*
X12529675Y-7887500D02*
X12504275Y-7912900D01*
X12504275Y-8087500D02*
X12529675Y-8112900D01*
X12529675Y-8087500D02*
X12504275Y-8112900D01*
X12504275Y-8162500D02*
X12529675Y-8187900D01*
X12529675Y-8162500D02*
X12504275Y-8187900D01*
X12504275Y-8237500D02*
X12529675Y-8262900D01*
X12529675Y-8237500D02*
X12504275Y-8262900D01*
X12582870Y-7737500D02*
X12608270Y-7762900D01*
X12608270Y-7737500D02*
X12582870Y-7762900D01*
X12582870Y-7812500D02*
X12608270Y-7837900D01*
X12608270Y-7812500D02*
X12582870Y-7837900D01*
X12582870Y-7887500D02*
X12608270Y-7912900D01*
X12608270Y-7887500D02*
X12582870Y-7912900D01*
X12582870Y-8087500D02*
X12608270Y-8112900D01*
X12608270Y-8087500D02*
X12582870Y-8112900D01*
X12582870Y-8162500D02*
X12608270Y-8187900D01*
X12608270Y-8162500D02*
X12582870Y-8187900D01*
X12582870Y-8237500D02*
X12608270Y-8262900D01*
X12608270Y-8237500D02*
X12582870Y-8262900D01*
X12602110Y-6578620D02*
X12627510Y-6604020D01*
X12627510Y-6578620D02*
X12602110Y-6604020D01*
X12602110Y-6719580D02*
X12627510Y-6744980D01*
X12627510Y-6719580D02*
X12602110Y-6744980D01*
X12602110Y-6860540D02*
X12627510Y-6885940D01*
X12627510Y-6860540D02*
X12602110Y-6885940D01*
X12602110Y-7001500D02*
X12627510Y-7026900D01*
X12627510Y-7001500D02*
X12602110Y-7026900D01*
X12602110Y-7142460D02*
X12627510Y-7167860D01*
X12627510Y-7142460D02*
X12602110Y-7167860D01*
X12602110Y-8833980D02*
X12627510Y-8859380D01*
X12627510Y-8833980D02*
X12602110Y-8859380D01*
X12661465Y-7737500D02*
X12686865Y-7762900D01*
X12686865Y-7737500D02*
X12661465Y-7762900D01*
X12661465Y-7812500D02*
X12686865Y-7837900D01*
X12686865Y-7812500D02*
X12661465Y-7837900D01*
X12661465Y-7887500D02*
X12686865Y-7912900D01*
X12686865Y-7887500D02*
X12661465Y-7912900D01*
X12661465Y-8087500D02*
X12686865Y-8112900D01*
X12686865Y-8087500D02*
X12661465Y-8112900D01*
X12661465Y-8162500D02*
X12686865Y-8187900D01*
X12686865Y-8162500D02*
X12661465Y-8187900D01*
X12661465Y-8237500D02*
X12686865Y-8262900D01*
X12686865Y-8237500D02*
X12661465Y-8262900D01*
X12740060Y-7737500D02*
X12765460Y-7762900D01*
X12765460Y-7737500D02*
X12740060Y-7762900D01*
X12740060Y-7812500D02*
X12765460Y-7837900D01*
X12765460Y-7812500D02*
X12740060Y-7837900D01*
X12740060Y-7887500D02*
X12765460Y-7912900D01*
X12765460Y-7887500D02*
X12740060Y-7912900D01*
X12740060Y-8087500D02*
X12765460Y-8112900D01*
X12765460Y-8087500D02*
X12740060Y-8112900D01*
X12740060Y-8162500D02*
X12765460Y-8187900D01*
X12765460Y-8162500D02*
X12740060Y-8187900D01*
X12740060Y-8237500D02*
X12765460Y-8262900D01*
X12765460Y-8237500D02*
X12740060Y-8262900D01*
X12743070Y-6578620D02*
X12768470Y-6604020D01*
X12768470Y-6578620D02*
X12743070Y-6604020D01*
X12743070Y-6719580D02*
X12768470Y-6744980D01*
X12768470Y-6719580D02*
X12743070Y-6744980D01*
X12743070Y-6860540D02*
X12768470Y-6885940D01*
X12768470Y-6860540D02*
X12743070Y-6885940D01*
X12743070Y-7001500D02*
X12768470Y-7026900D01*
X12768470Y-7001500D02*
X12743070Y-7026900D01*
X12743070Y-7142460D02*
X12768470Y-7167860D01*
X12768470Y-7142460D02*
X12743070Y-7167860D01*
X12743070Y-8833980D02*
X12768470Y-8859380D01*
X12768470Y-8833980D02*
X12743070Y-8859380D01*
X12818655Y-7737500D02*
X12844055Y-7762900D01*
X12844055Y-7737500D02*
X12818655Y-7762900D01*
X12818655Y-7812500D02*
X12844055Y-7837900D01*
X12844055Y-7812500D02*
X12818655Y-7837900D01*
X12818655Y-7887500D02*
X12844055Y-7912900D01*
X12844055Y-7887500D02*
X12818655Y-7912900D01*
X12818655Y-8087500D02*
X12844055Y-8112900D01*
X12844055Y-8087500D02*
X12818655Y-8112900D01*
X12818655Y-8162500D02*
X12844055Y-8187900D01*
X12844055Y-8162500D02*
X12818655Y-8187900D01*
X12818655Y-8237500D02*
X12844055Y-8262900D01*
X12844055Y-8237500D02*
X12818655Y-8262900D01*
X12884030Y-6578620D02*
X12909430Y-6604020D01*
X12909430Y-6578620D02*
X12884030Y-6604020D01*
X12884030Y-6719580D02*
X12909430Y-6744980D01*
X12909430Y-6719580D02*
X12884030Y-6744980D01*
X12884030Y-6860540D02*
X12909430Y-6885940D01*
X12909430Y-6860540D02*
X12884030Y-6885940D01*
X12884030Y-7001500D02*
X12909430Y-7026900D01*
X12909430Y-7001500D02*
X12884030Y-7026900D01*
X12884030Y-7142460D02*
X12909430Y-7167860D01*
X12909430Y-7142460D02*
X12884030Y-7167860D01*
X12884030Y-7283420D02*
X12909430Y-7308820D01*
X12909430Y-7283420D02*
X12884030Y-7308820D01*
X12884030Y-7424380D02*
X12909430Y-7449780D01*
X12909430Y-7424380D02*
X12884030Y-7449780D01*
X12884030Y-7565340D02*
X12909430Y-7590740D01*
X12909430Y-7565340D02*
X12884030Y-7590740D01*
X12884030Y-8411100D02*
X12909430Y-8436500D01*
X12909430Y-8411100D02*
X12884030Y-8436500D01*
X12884030Y-8552060D02*
X12909430Y-8577460D01*
X12909430Y-8552060D02*
X12884030Y-8577460D01*
X12884030Y-8693020D02*
X12909430Y-8718420D01*
X12909430Y-8693020D02*
X12884030Y-8718420D01*
X12884030Y-8833980D02*
X12909430Y-8859380D01*
X12909430Y-8833980D02*
X12884030Y-8859380D01*
X12897250Y-7737500D02*
X12922650Y-7762900D01*
X12922650Y-7737500D02*
X12897250Y-7762900D01*
X12897250Y-7812500D02*
X12922650Y-7837900D01*
X12922650Y-7812500D02*
X12897250Y-7837900D01*
X12897250Y-7887500D02*
X12922650Y-7912900D01*
X12922650Y-7887500D02*
X12897250Y-7912900D01*
X12897250Y-8087500D02*
X12922650Y-8112900D01*
X12922650Y-8087500D02*
X12897250Y-8112900D01*
X12897250Y-8162500D02*
X12922650Y-8187900D01*
X12922650Y-8162500D02*
X12897250Y-8187900D01*
X12897250Y-8237500D02*
X12922650Y-8262900D01*
X12922650Y-8237500D02*
X12897250Y-8262900D01*
X13010750Y-7737500D02*
X13036150Y-7762900D01*
X13036150Y-7737500D02*
X13010750Y-7762900D01*
X13010750Y-7812500D02*
X13036150Y-7837900D01*
X13036150Y-7812500D02*
X13010750Y-7837900D01*
X13010750Y-7887500D02*
X13036150Y-7912900D01*
X13036150Y-7887500D02*
X13010750Y-7912900D01*
X13010750Y-8087500D02*
X13036150Y-8112900D01*
X13036150Y-8087500D02*
X13010750Y-8112900D01*
X13010750Y-8162500D02*
X13036150Y-8187900D01*
X13036150Y-8162500D02*
X13010750Y-8187900D01*
X13010750Y-8237500D02*
X13036150Y-8262900D01*
X13036150Y-8237500D02*
X13010750Y-8262900D01*
X13024990Y-6578620D02*
X13050390Y-6604020D01*
X13050390Y-6578620D02*
X13024990Y-6604020D01*
X13024990Y-6719580D02*
X13050390Y-6744980D01*
X13050390Y-6719580D02*
X13024990Y-6744980D01*
X13024990Y-6860540D02*
X13050390Y-6885940D01*
X13050390Y-6860540D02*
X13024990Y-6885940D01*
X13024990Y-7001500D02*
X13050390Y-7026900D01*
X13050390Y-7001500D02*
X13024990Y-7026900D01*
X13024990Y-7142460D02*
X13050390Y-7167860D01*
X13050390Y-7142460D02*
X13024990Y-7167860D01*
X13024990Y-7283420D02*
X13050390Y-7308820D01*
X13050390Y-7283420D02*
X13024990Y-7308820D01*
X13024990Y-7424380D02*
X13050390Y-7449780D01*
X13050390Y-7424380D02*
X13024990Y-7449780D01*
X13024990Y-7565340D02*
X13050390Y-7590740D01*
X13050390Y-7565340D02*
X13024990Y-7590740D01*
X13024990Y-8411100D02*
X13050390Y-8436500D01*
X13050390Y-8411100D02*
X13024990Y-8436500D01*
X13024990Y-8552060D02*
X13050390Y-8577460D01*
X13050390Y-8552060D02*
X13024990Y-8577460D01*
X13024990Y-8693020D02*
X13050390Y-8718420D01*
X13050390Y-8693020D02*
X13024990Y-8718420D01*
X13024990Y-8833980D02*
X13050390Y-8859380D01*
X13050390Y-8833980D02*
X13024990Y-8859380D01*
X13095920Y-7737500D02*
X13121320Y-7762900D01*
X13121320Y-7737500D02*
X13095920Y-7762900D01*
X13095920Y-7812500D02*
X13121320Y-7837900D01*
X13121320Y-7812500D02*
X13095920Y-7837900D01*
X13095920Y-7887500D02*
X13121320Y-7912900D01*
X13121320Y-7887500D02*
X13095920Y-7912900D01*
X13095920Y-8087500D02*
X13121320Y-8112900D01*
X13121320Y-8087500D02*
X13095920Y-8112900D01*
X13095920Y-8162500D02*
X13121320Y-8187900D01*
X13121320Y-8162500D02*
X13095920Y-8187900D01*
X13095920Y-8237500D02*
X13121320Y-8262900D01*
X13121320Y-8237500D02*
X13095920Y-8262900D01*
X13165950Y-6578620D02*
X13191350Y-6604020D01*
X13191350Y-6578620D02*
X13165950Y-6604020D01*
X13165950Y-6719580D02*
X13191350Y-6744980D01*
X13191350Y-6719580D02*
X13165950Y-6744980D01*
X13165950Y-6860540D02*
X13191350Y-6885940D01*
X13191350Y-6860540D02*
X13165950Y-6885940D01*
X13165950Y-7001500D02*
X13191350Y-7026900D01*
X13191350Y-7001500D02*
X13165950Y-7026900D01*
X13165950Y-7142460D02*
X13191350Y-7167860D01*
X13191350Y-7142460D02*
X13165950Y-7167860D01*
X13165950Y-7283420D02*
X13191350Y-7308820D01*
X13191350Y-7283420D02*
X13165950Y-7308820D01*
X13165950Y-7424380D02*
X13191350Y-7449780D01*
X13191350Y-7424380D02*
X13165950Y-7449780D01*
X13165950Y-7565340D02*
X13191350Y-7590740D01*
X13191350Y-7565340D02*
X13165950Y-7590740D01*
X13165950Y-8411100D02*
X13191350Y-8436500D01*
X13191350Y-8411100D02*
X13165950Y-8436500D01*
X13165950Y-8552060D02*
X13191350Y-8577460D01*
X13191350Y-8552060D02*
X13165950Y-8577460D01*
X13165950Y-8693020D02*
X13191350Y-8718420D01*
X13191350Y-8693020D02*
X13165950Y-8718420D01*
X13165950Y-8833980D02*
X13191350Y-8859380D01*
X13191350Y-8833980D02*
X13165950Y-8859380D01*
X13181090Y-7737500D02*
X13206490Y-7762900D01*
X13206490Y-7737500D02*
X13181090Y-7762900D01*
X13181090Y-7812500D02*
X13206490Y-7837900D01*
X13206490Y-7812500D02*
X13181090Y-7837900D01*
X13181090Y-7887500D02*
X13206490Y-7912900D01*
X13206490Y-7887500D02*
X13181090Y-7912900D01*
X13181090Y-8087500D02*
X13206490Y-8112900D01*
X13206490Y-8087500D02*
X13181090Y-8112900D01*
X13181090Y-8162500D02*
X13206490Y-8187900D01*
X13206490Y-8162500D02*
X13181090Y-8187900D01*
X13181090Y-8237500D02*
X13206490Y-8262900D01*
X13206490Y-8237500D02*
X13181090Y-8262900D01*
X13266260Y-7737500D02*
X13291660Y-7762900D01*
X13291660Y-7737500D02*
X13266260Y-7762900D01*
X13266260Y-7812500D02*
X13291660Y-7837900D01*
X13291660Y-7812500D02*
X13266260Y-7837900D01*
X13266260Y-7887500D02*
X13291660Y-7912900D01*
X13291660Y-7887500D02*
X13266260Y-7912900D01*
X13266260Y-8087500D02*
X13291660Y-8112900D01*
X13291660Y-8087500D02*
X13266260Y-8112900D01*
X13266260Y-8162500D02*
X13291660Y-8187900D01*
X13291660Y-8162500D02*
X13266260Y-8187900D01*
X13266260Y-8237500D02*
X13291660Y-8262900D01*
X13291660Y-8237500D02*
X13266260Y-8262900D01*
X13306910Y-6578620D02*
X13332310Y-6604020D01*
X13332310Y-6578620D02*
X13306910Y-6604020D01*
X13306910Y-6719580D02*
X13332310Y-6744980D01*
X13332310Y-6719580D02*
X13306910Y-6744980D01*
X13306910Y-7283420D02*
X13332310Y-7308820D01*
X13332310Y-7283420D02*
X13306910Y-7308820D01*
X13306910Y-7424380D02*
X13332310Y-7449780D01*
X13332310Y-7424380D02*
X13306910Y-7449780D01*
X13306910Y-7565340D02*
X13332310Y-7590740D01*
X13332310Y-7565340D02*
X13306910Y-7590740D01*
X13306910Y-8411100D02*
X13332310Y-8436500D01*
X13332310Y-8411100D02*
X13306910Y-8436500D01*
X13306910Y-8552060D02*
X13332310Y-8577460D01*
X13332310Y-8552060D02*
X13306910Y-8577460D01*
X13306910Y-8693020D02*
X13332310Y-8718420D01*
X13332310Y-8693020D02*
X13306910Y-8718420D01*
X13306910Y-8833980D02*
X13332310Y-8859380D01*
X13332310Y-8833980D02*
X13306910Y-8859380D01*
X13351430Y-7737500D02*
X13376830Y-7762900D01*
X13376830Y-7737500D02*
X13351430Y-7762900D01*
X13351430Y-7812500D02*
X13376830Y-7837900D01*
X13376830Y-7812500D02*
X13351430Y-7837900D01*
X13351430Y-7887500D02*
X13376830Y-7912900D01*
X13376830Y-7887500D02*
X13351430Y-7912900D01*
X13351430Y-8087500D02*
X13376830Y-8112900D01*
X13376830Y-8087500D02*
X13351430Y-8112900D01*
X13351430Y-8162500D02*
X13376830Y-8187900D01*
X13376830Y-8162500D02*
X13351430Y-8187900D01*
X13351430Y-8237500D02*
X13376830Y-8262900D01*
X13376830Y-8237500D02*
X13351430Y-8262900D01*
X13436600Y-7737500D02*
X13462000Y-7762900D01*
X13462000Y-7737500D02*
X13436600Y-7762900D01*
X13436600Y-7812500D02*
X13462000Y-7837900D01*
X13462000Y-7812500D02*
X13436600Y-7837900D01*
X13436600Y-7887500D02*
X13462000Y-7912900D01*
X13462000Y-7887500D02*
X13436600Y-7912900D01*
X13436600Y-8162500D02*
X13462000Y-8187900D01*
X13462000Y-8162500D02*
X13436600Y-8187900D01*
X13436600Y-8237500D02*
X13462000Y-8262900D01*
X13462000Y-8237500D02*
X13436600Y-8262900D01*
X13447870Y-6578620D02*
X13473270Y-6604020D01*
X13473270Y-6578620D02*
X13447870Y-6604020D01*
X13447870Y-6719580D02*
X13473270Y-6744980D01*
X13473270Y-6719580D02*
X13447870Y-6744980D01*
X13447870Y-7283420D02*
X13473270Y-7308820D01*
X13473270Y-7283420D02*
X13447870Y-7308820D01*
X13447870Y-7424380D02*
X13473270Y-7449780D01*
X13473270Y-7424380D02*
X13447870Y-7449780D01*
X13447870Y-7565340D02*
X13473270Y-7590740D01*
X13473270Y-7565340D02*
X13447870Y-7590740D01*
X13447870Y-8411100D02*
X13473270Y-8436500D01*
X13473270Y-8411100D02*
X13447870Y-8436500D01*
X13447870Y-8552060D02*
X13473270Y-8577460D01*
X13473270Y-8552060D02*
X13447870Y-8577460D01*
X13447870Y-8693020D02*
X13473270Y-8718420D01*
X13473270Y-8693020D02*
X13447870Y-8718420D01*
X13447870Y-8833980D02*
X13473270Y-8859380D01*
X13473270Y-8833980D02*
X13447870Y-8859380D01*
X13513223Y-7737500D02*
X13538623Y-7762900D01*
X13538623Y-7737500D02*
X13513223Y-7762900D01*
X13513223Y-7812500D02*
X13538623Y-7837900D01*
X13538623Y-7812500D02*
X13513223Y-7837900D01*
X13513223Y-7887500D02*
X13538623Y-7912900D01*
X13538623Y-7887500D02*
X13513223Y-7912900D01*
X13513223Y-8087500D02*
X13538623Y-8112900D01*
X13538623Y-8087500D02*
X13513223Y-8112900D01*
X13513223Y-8162500D02*
X13538623Y-8187900D01*
X13538623Y-8162500D02*
X13513223Y-8187900D01*
X13513223Y-8237500D02*
X13538623Y-8262900D01*
X13538623Y-8237500D02*
X13513223Y-8262900D01*
X13588830Y-6578620D02*
X13614230Y-6604020D01*
X13614230Y-6578620D02*
X13588830Y-6604020D01*
X13588830Y-6719580D02*
X13614230Y-6744980D01*
X13614230Y-6719580D02*
X13588830Y-6744980D01*
X13588830Y-7565340D02*
X13614230Y-7590740D01*
X13614230Y-7565340D02*
X13588830Y-7590740D01*
X13588830Y-8411100D02*
X13614230Y-8436500D01*
X13614230Y-8411100D02*
X13588830Y-8436500D01*
X13588830Y-8552060D02*
X13614230Y-8577460D01*
X13614230Y-8552060D02*
X13588830Y-8577460D01*
X13588830Y-8693020D02*
X13614230Y-8718420D01*
X13614230Y-8693020D02*
X13588830Y-8718420D01*
X13588830Y-8833980D02*
X13614230Y-8859380D01*
X13614230Y-8833980D02*
X13588830Y-8859380D01*
X13589847Y-7737500D02*
X13615247Y-7762900D01*
X13615247Y-7737500D02*
X13589847Y-7762900D01*
X13589847Y-7812500D02*
X13615247Y-7837900D01*
X13615247Y-7812500D02*
X13589847Y-7837900D01*
X13589847Y-7887500D02*
X13615247Y-7912900D01*
X13615247Y-7887500D02*
X13589847Y-7912900D01*
X13589847Y-8087500D02*
X13615247Y-8112900D01*
X13615247Y-8087500D02*
X13589847Y-8112900D01*
X13589847Y-8162500D02*
X13615247Y-8187900D01*
X13615247Y-8162500D02*
X13589847Y-8187900D01*
X13589847Y-8237500D02*
X13615247Y-8262900D01*
X13615247Y-8237500D02*
X13589847Y-8262900D01*
X13666470Y-7737500D02*
X13691870Y-7762900D01*
X13691870Y-7737500D02*
X13666470Y-7762900D01*
X13666470Y-7812500D02*
X13691870Y-7837900D01*
X13691870Y-7812500D02*
X13666470Y-7837900D01*
X13666470Y-7887500D02*
X13691870Y-7912900D01*
X13691870Y-7887500D02*
X13666470Y-7912900D01*
X13666470Y-8087500D02*
X13691870Y-8112900D01*
X13691870Y-8087500D02*
X13666470Y-8112900D01*
X13666470Y-8162500D02*
X13691870Y-8187900D01*
X13691870Y-8162500D02*
X13666470Y-8187900D01*
X13666470Y-8237500D02*
X13691870Y-8262900D01*
X13691870Y-8237500D02*
X13666470Y-8262900D01*
X13729790Y-6578620D02*
X13755190Y-6604020D01*
X13755190Y-6578620D02*
X13729790Y-6604020D01*
X13729790Y-6719580D02*
X13755190Y-6744980D01*
X13755190Y-6719580D02*
X13729790Y-6744980D01*
X13729790Y-8411100D02*
X13755190Y-8436500D01*
X13755190Y-8411100D02*
X13729790Y-8436500D01*
X13729790Y-8552060D02*
X13755190Y-8577460D01*
X13755190Y-8552060D02*
X13729790Y-8577460D01*
X13729790Y-8693020D02*
X13755190Y-8718420D01*
X13755190Y-8693020D02*
X13729790Y-8718420D01*
X13729790Y-8833980D02*
X13755190Y-8859380D01*
X13755190Y-8833980D02*
X13729790Y-8859380D01*
X13743093Y-7737500D02*
X13768493Y-7762900D01*
X13768493Y-7737500D02*
X13743093Y-7762900D01*
X13743093Y-7812500D02*
X13768493Y-7837900D01*
X13768493Y-7812500D02*
X13743093Y-7837900D01*
X13743093Y-7887500D02*
X13768493Y-7912900D01*
X13768493Y-7887500D02*
X13743093Y-7912900D01*
X13743093Y-8087500D02*
X13768493Y-8112900D01*
X13768493Y-8087500D02*
X13743093Y-8112900D01*
X13743093Y-8162500D02*
X13768493Y-8187900D01*
X13768493Y-8162500D02*
X13743093Y-8187900D01*
X13743093Y-8237500D02*
X13768493Y-8262900D01*
X13768493Y-8237500D02*
X13743093Y-8262900D01*
X13819717Y-7737500D02*
X13845117Y-7762900D01*
X13845117Y-7737500D02*
X13819717Y-7762900D01*
X13819717Y-7812500D02*
X13845117Y-7837900D01*
X13845117Y-7812500D02*
X13819717Y-7837900D01*
X13819717Y-7887500D02*
X13845117Y-7912900D01*
X13845117Y-7887500D02*
X13819717Y-7912900D01*
X13819717Y-8087500D02*
X13845117Y-8112900D01*
X13845117Y-8087500D02*
X13819717Y-8112900D01*
X13819717Y-8162500D02*
X13845117Y-8187900D01*
X13845117Y-8162500D02*
X13819717Y-8187900D01*
X13819717Y-8237500D02*
X13845117Y-8262900D01*
X13845117Y-8237500D02*
X13819717Y-8262900D01*
X13870750Y-6578620D02*
X13896150Y-6604020D01*
X13896150Y-6578620D02*
X13870750Y-6604020D01*
X13870750Y-6719580D02*
X13896150Y-6744980D01*
X13896150Y-6719580D02*
X13870750Y-6744980D01*
X13870750Y-8411100D02*
X13896150Y-8436500D01*
X13896150Y-8411100D02*
X13870750Y-8436500D01*
X13870750Y-8552060D02*
X13896150Y-8577460D01*
X13896150Y-8552060D02*
X13870750Y-8577460D01*
X13870750Y-8693020D02*
X13896150Y-8718420D01*
X13896150Y-8693020D02*
X13870750Y-8718420D01*
X13870750Y-8833980D02*
X13896150Y-8859380D01*
X13896150Y-8833980D02*
X13870750Y-8859380D01*
X13896340Y-7812500D02*
X13921740Y-7837900D01*
X13921740Y-7812500D02*
X13896340Y-7837900D01*
X13896340Y-8162500D02*
X13921740Y-8187900D01*
X13921740Y-8162500D02*
X13896340Y-8187900D01*
X13896340Y-8237500D02*
X13921740Y-8262900D01*
X13921740Y-8237500D02*
X13896340Y-8262900D01*
X13997940Y-7942580D02*
X14023340Y-7967980D01*
X14023340Y-7942580D02*
X13997940Y-7967980D01*
X13997940Y-8028940D02*
X14023340Y-8054340D01*
X14023340Y-8028940D02*
X13997940Y-8054340D01*
X14011710Y-6578620D02*
X14037110Y-6604020D01*
X14037110Y-6578620D02*
X14011710Y-6604020D01*
X14011710Y-6719580D02*
X14037110Y-6744980D01*
X14037110Y-6719580D02*
X14011710Y-6744980D01*
X14011710Y-6860540D02*
X14037110Y-6885940D01*
X14037110Y-6860540D02*
X14011710Y-6885940D01*
X14011710Y-7001500D02*
X14037110Y-7026900D01*
X14037110Y-7001500D02*
X14011710Y-7026900D01*
X14011710Y-7142460D02*
X14037110Y-7167860D01*
X14037110Y-7142460D02*
X14011710Y-7167860D01*
X14011710Y-8411100D02*
X14037110Y-8436500D01*
X14037110Y-8411100D02*
X14011710Y-8436500D01*
X14011710Y-8552060D02*
X14037110Y-8577460D01*
X14037110Y-8552060D02*
X14011710Y-8577460D01*
X14011710Y-8693020D02*
X14037110Y-8718420D01*
X14037110Y-8693020D02*
X14011710Y-8718420D01*
X14011710Y-8833980D02*
X14037110Y-8859380D01*
X14037110Y-8833980D02*
X14011710Y-8859380D01*
X14084300Y-7942580D02*
X14109700Y-7967980D01*
X14109700Y-7942580D02*
X14084300Y-7967980D01*
X14084300Y-8028940D02*
X14109700Y-8054340D01*
X14109700Y-8028940D02*
X14084300Y-8054340D01*
X14152670Y-6578620D02*
X14178070Y-6604020D01*
X14178070Y-6578620D02*
X14152670Y-6604020D01*
X14152670Y-6719580D02*
X14178070Y-6744980D01*
X14178070Y-6719580D02*
X14152670Y-6744980D01*
X14152670Y-6860540D02*
X14178070Y-6885940D01*
X14178070Y-6860540D02*
X14152670Y-6885940D01*
X14152670Y-7001500D02*
X14178070Y-7026900D01*
X14178070Y-7001500D02*
X14152670Y-7026900D01*
X14152670Y-7142460D02*
X14178070Y-7167860D01*
X14178070Y-7142460D02*
X14152670Y-7167860D01*
X14152670Y-7283420D02*
X14178070Y-7308820D01*
X14178070Y-7283420D02*
X14152670Y-7308820D01*
X14152670Y-7424380D02*
X14178070Y-7449780D01*
X14178070Y-7424380D02*
X14152670Y-7449780D01*
X14152670Y-7565340D02*
X14178070Y-7590740D01*
X14178070Y-7565340D02*
X14152670Y-7590740D01*
X14152670Y-8411100D02*
X14178070Y-8436500D01*
X14178070Y-8411100D02*
X14152670Y-8436500D01*
X14152670Y-8552060D02*
X14178070Y-8577460D01*
X14178070Y-8552060D02*
X14152670Y-8577460D01*
X14152670Y-8693020D02*
X14178070Y-8718420D01*
X14178070Y-8693020D02*
X14152670Y-8718420D01*
X14152670Y-8833980D02*
X14178070Y-8859380D01*
X14178070Y-8833980D02*
X14152670Y-8859380D01*
X14185900Y-7737500D02*
X14211300Y-7762900D01*
X14211300Y-7737500D02*
X14185900Y-7762900D01*
X14185900Y-7812500D02*
X14211300Y-7837900D01*
X14211300Y-7812500D02*
X14185900Y-7837900D01*
X14185900Y-8162500D02*
X14211300Y-8187900D01*
X14211300Y-8162500D02*
X14185900Y-8187900D01*
X14185900Y-8237500D02*
X14211300Y-8262900D01*
X14211300Y-8237500D02*
X14185900Y-8262900D01*
X14262100Y-7737500D02*
X14287500Y-7762900D01*
X14287500Y-7737500D02*
X14262100Y-7762900D01*
X14262100Y-7812500D02*
X14287500Y-7837900D01*
X14287500Y-7812500D02*
X14262100Y-7837900D01*
X14262100Y-7887500D02*
X14287500Y-7912900D01*
X14287500Y-7887500D02*
X14262100Y-7912900D01*
X14262100Y-8087500D02*
X14287500Y-8112900D01*
X14287500Y-8087500D02*
X14262100Y-8112900D01*
X14262100Y-8162500D02*
X14287500Y-8187900D01*
X14287500Y-8162500D02*
X14262100Y-8187900D01*
X14262100Y-8237500D02*
X14287500Y-8262900D01*
X14287500Y-8237500D02*
X14262100Y-8262900D01*
X14293630Y-6578620D02*
X14319030Y-6604020D01*
X14319030Y-6578620D02*
X14293630Y-6604020D01*
X14293630Y-6719580D02*
X14319030Y-6744980D01*
X14319030Y-6719580D02*
X14293630Y-6744980D01*
X14293630Y-6860540D02*
X14319030Y-6885940D01*
X14319030Y-6860540D02*
X14293630Y-6885940D01*
X14293630Y-7001500D02*
X14319030Y-7026900D01*
X14319030Y-7001500D02*
X14293630Y-7026900D01*
X14293630Y-7142460D02*
X14319030Y-7167860D01*
X14319030Y-7142460D02*
X14293630Y-7167860D01*
X14293630Y-7283420D02*
X14319030Y-7308820D01*
X14319030Y-7283420D02*
X14293630Y-7308820D01*
X14293630Y-7424380D02*
X14319030Y-7449780D01*
X14319030Y-7424380D02*
X14293630Y-7449780D01*
X14293630Y-7565340D02*
X14319030Y-7590740D01*
X14319030Y-7565340D02*
X14293630Y-7590740D01*
X14293630Y-8411100D02*
X14319030Y-8436500D01*
X14319030Y-8411100D02*
X14293630Y-8436500D01*
X14293630Y-8552060D02*
X14319030Y-8577460D01*
X14319030Y-8552060D02*
X14293630Y-8577460D01*
X14293630Y-8693020D02*
X14319030Y-8718420D01*
X14319030Y-8693020D02*
X14293630Y-8718420D01*
X14293630Y-8833980D02*
X14319030Y-8859380D01*
X14319030Y-8833980D02*
X14293630Y-8859380D01*
X14338300Y-7737500D02*
X14363700Y-7762900D01*
X14363700Y-7737500D02*
X14338300Y-7762900D01*
X14338300Y-7812500D02*
X14363700Y-7837900D01*
X14363700Y-7812500D02*
X14338300Y-7837900D01*
X14338300Y-7887500D02*
X14363700Y-7912900D01*
X14363700Y-7887500D02*
X14338300Y-7912900D01*
X14338300Y-8087500D02*
X14363700Y-8112900D01*
X14363700Y-8087500D02*
X14338300Y-8112900D01*
X14338300Y-8162500D02*
X14363700Y-8187900D01*
X14363700Y-8162500D02*
X14338300Y-8187900D01*
X14338300Y-8237500D02*
X14363700Y-8262900D01*
X14363700Y-8237500D02*
X14338300Y-8262900D01*
X14414500Y-7737500D02*
X14439900Y-7762900D01*
X14439900Y-7737500D02*
X14414500Y-7762900D01*
X14414500Y-7812500D02*
X14439900Y-7837900D01*
X14439900Y-7812500D02*
X14414500Y-7837900D01*
X14414500Y-7887500D02*
X14439900Y-7912900D01*
X14439900Y-7887500D02*
X14414500Y-7912900D01*
X14414500Y-8087500D02*
X14439900Y-8112900D01*
X14439900Y-8087500D02*
X14414500Y-8112900D01*
X14414500Y-8162500D02*
X14439900Y-8187900D01*
X14439900Y-8162500D02*
X14414500Y-8187900D01*
X14414500Y-8237500D02*
X14439900Y-8262900D01*
X14439900Y-8237500D02*
X14414500Y-8262900D01*
X14434590Y-6860540D02*
X14459990Y-6885940D01*
X14459990Y-6860540D02*
X14434590Y-6885940D01*
X14434590Y-7001500D02*
X14459990Y-7026900D01*
X14459990Y-7001500D02*
X14434590Y-7026900D01*
X14434590Y-7142460D02*
X14459990Y-7167860D01*
X14459990Y-7142460D02*
X14434590Y-7167860D01*
X14434590Y-7283420D02*
X14459990Y-7308820D01*
X14459990Y-7283420D02*
X14434590Y-7308820D01*
X14434590Y-7424380D02*
X14459990Y-7449780D01*
X14459990Y-7424380D02*
X14434590Y-7449780D01*
X14434590Y-7565340D02*
X14459990Y-7590740D01*
X14459990Y-7565340D02*
X14434590Y-7590740D01*
X14434590Y-8411100D02*
X14459990Y-8436500D01*
X14459990Y-8411100D02*
X14434590Y-8436500D01*
X14434590Y-8552060D02*
X14459990Y-8577460D01*
X14459990Y-8552060D02*
X14434590Y-8577460D01*
X14434590Y-8693020D02*
X14459990Y-8718420D01*
X14459990Y-8693020D02*
X14434590Y-8718420D01*
X14434590Y-8833980D02*
X14459990Y-8859380D01*
X14459990Y-8833980D02*
X14434590Y-8859380D01*
X14490700Y-7737500D02*
X14516100Y-7762900D01*
X14516100Y-7737500D02*
X14490700Y-7762900D01*
X14490700Y-7812500D02*
X14516100Y-7837900D01*
X14516100Y-7812500D02*
X14490700Y-7837900D01*
X14490700Y-7887500D02*
X14516100Y-7912900D01*
X14516100Y-7887500D02*
X14490700Y-7912900D01*
X14490700Y-8087500D02*
X14516100Y-8112900D01*
X14516100Y-8087500D02*
X14490700Y-8112900D01*
X14490700Y-8162500D02*
X14516100Y-8187900D01*
X14516100Y-8162500D02*
X14490700Y-8187900D01*
X14490700Y-8237500D02*
X14516100Y-8262900D01*
X14516100Y-8237500D02*
X14490700Y-8262900D01*
X14566900Y-7737500D02*
X14592300Y-7762900D01*
X14592300Y-7737500D02*
X14566900Y-7762900D01*
X14566900Y-7812500D02*
X14592300Y-7837900D01*
X14592300Y-7812500D02*
X14566900Y-7837900D01*
X14566900Y-7887500D02*
X14592300Y-7912900D01*
X14592300Y-7887500D02*
X14566900Y-7912900D01*
X14566900Y-8087500D02*
X14592300Y-8112900D01*
X14592300Y-8087500D02*
X14566900Y-8112900D01*
X14566900Y-8162500D02*
X14592300Y-8187900D01*
X14592300Y-8162500D02*
X14566900Y-8187900D01*
X14566900Y-8237500D02*
X14592300Y-8262900D01*
X14592300Y-8237500D02*
X14566900Y-8262900D01*
X14575550Y-6860540D02*
X14600950Y-6885940D01*
X14600950Y-6860540D02*
X14575550Y-6885940D01*
X14575550Y-7424380D02*
X14600950Y-7449780D01*
X14600950Y-7424380D02*
X14575550Y-7449780D01*
X14575550Y-7565340D02*
X14600950Y-7590740D01*
X14600950Y-7565340D02*
X14575550Y-7590740D01*
X14575550Y-8411100D02*
X14600950Y-8436500D01*
X14600950Y-8411100D02*
X14575550Y-8436500D01*
X14575550Y-8552060D02*
X14600950Y-8577460D01*
X14600950Y-8552060D02*
X14575550Y-8577460D01*
X14575550Y-8693020D02*
X14600950Y-8718420D01*
X14600950Y-8693020D02*
X14575550Y-8718420D01*
X14575550Y-8833980D02*
X14600950Y-8859380D01*
X14600950Y-8833980D02*
X14575550Y-8859380D01*
X14643100Y-7737500D02*
X14668500Y-7762900D01*
X14668500Y-7737500D02*
X14643100Y-7762900D01*
X14643100Y-7812500D02*
X14668500Y-7837900D01*
X14668500Y-7812500D02*
X14643100Y-7837900D01*
X14643100Y-7887500D02*
X14668500Y-7912900D01*
X14668500Y-7887500D02*
X14643100Y-7912900D01*
X14643100Y-8087500D02*
X14668500Y-8112900D01*
X14668500Y-8087500D02*
X14643100Y-8112900D01*
X14643100Y-8162500D02*
X14668500Y-8187900D01*
X14668500Y-8162500D02*
X14643100Y-8187900D01*
X14643100Y-8237500D02*
X14668500Y-8262900D01*
X14668500Y-8237500D02*
X14643100Y-8262900D01*
X14716510Y-6860540D02*
X14741910Y-6885940D01*
X14741910Y-6860540D02*
X14716510Y-6885940D01*
X14716510Y-8411100D02*
X14741910Y-8436500D01*
X14741910Y-8411100D02*
X14716510Y-8436500D01*
X14716510Y-8552060D02*
X14741910Y-8577460D01*
X14741910Y-8552060D02*
X14716510Y-8577460D01*
X14716510Y-8693020D02*
X14741910Y-8718420D01*
X14741910Y-8693020D02*
X14716510Y-8718420D01*
X14716510Y-8833980D02*
X14741910Y-8859380D01*
X14741910Y-8833980D02*
X14716510Y-8859380D01*
X14719300Y-7737500D02*
X14744700Y-7762900D01*
X14744700Y-7737500D02*
X14719300Y-7762900D01*
X14719300Y-7812500D02*
X14744700Y-7837900D01*
X14744700Y-7812500D02*
X14719300Y-7837900D01*
X14719300Y-7887500D02*
X14744700Y-7912900D01*
X14744700Y-7887500D02*
X14719300Y-7912900D01*
X14719300Y-8087500D02*
X14744700Y-8112900D01*
X14744700Y-8087500D02*
X14719300Y-8112900D01*
X14719300Y-8162500D02*
X14744700Y-8187900D01*
X14744700Y-8162500D02*
X14719300Y-8187900D01*
X14719300Y-8237500D02*
X14744700Y-8262900D01*
X14744700Y-8237500D02*
X14719300Y-8262900D01*
X14795500Y-8087500D02*
X14820900Y-8112900D01*
X14820900Y-8087500D02*
X14795500Y-8112900D01*
X14795500Y-8162500D02*
X14820900Y-8187900D01*
X14820900Y-8162500D02*
X14795500Y-8187900D01*
X14795500Y-8237500D02*
X14820900Y-8262900D01*
X14820900Y-8237500D02*
X14795500Y-8262900D01*
X14857470Y-8411100D02*
X14882870Y-8436500D01*
X14882870Y-8411100D02*
X14857470Y-8436500D01*
X14857470Y-8552060D02*
X14882870Y-8577460D01*
X14882870Y-8552060D02*
X14857470Y-8577460D01*
X14857470Y-8693020D02*
X14882870Y-8718420D01*
X14882870Y-8693020D02*
X14857470Y-8718420D01*
X14857470Y-8833980D02*
X14882870Y-8859380D01*
X14882870Y-8833980D02*
X14857470Y-8859380D01*
X14871700Y-8094980D02*
X14897100Y-8120380D01*
X14897100Y-8094980D02*
X14871700Y-8120380D01*
X14871700Y-8162500D02*
X14897100Y-8187900D01*
X14897100Y-8162500D02*
X14871700Y-8187900D01*
X14871700Y-8237500D02*
X14897100Y-8262900D01*
X14897100Y-8237500D02*
X14871700Y-8262900D01*
X14949025Y-8087500D02*
X14974425Y-8112900D01*
X14974425Y-8087500D02*
X14949025Y-8112900D01*
X14949025Y-8162500D02*
X14974425Y-8187900D01*
X14974425Y-8162500D02*
X14949025Y-8187900D01*
X14949025Y-8237500D02*
X14974425Y-8262900D01*
X14974425Y-8237500D02*
X14949025Y-8262900D01*
X14998430Y-8411100D02*
X15023830Y-8436500D01*
X15023830Y-8411100D02*
X14998430Y-8436500D01*
X14998430Y-8552060D02*
X15023830Y-8577460D01*
X15023830Y-8552060D02*
X14998430Y-8577460D01*
X14998430Y-8693020D02*
X15023830Y-8718420D01*
X15023830Y-8693020D02*
X14998430Y-8718420D01*
X14998430Y-8833980D02*
X15023830Y-8859380D01*
X15023830Y-8833980D02*
X14998430Y-8859380D01*
X15026350Y-7737500D02*
X15051750Y-7762900D01*
X15051750Y-7737500D02*
X15026350Y-7762900D01*
X15026350Y-7812500D02*
X15051750Y-7837900D01*
X15051750Y-7812500D02*
X15026350Y-7837900D01*
X15026350Y-7887500D02*
X15051750Y-7912900D01*
X15051750Y-7887500D02*
X15026350Y-7912900D01*
X15026350Y-8087500D02*
X15051750Y-8112900D01*
X15051750Y-8087500D02*
X15026350Y-8112900D01*
X15026350Y-8162500D02*
X15051750Y-8187900D01*
X15051750Y-8162500D02*
X15026350Y-8187900D01*
X15026350Y-8237500D02*
X15051750Y-8262900D01*
X15051750Y-8237500D02*
X15026350Y-8262900D01*
X15103675Y-7737500D02*
X15129075Y-7762900D01*
X15129075Y-7737500D02*
X15103675Y-7762900D01*
X15103675Y-7812500D02*
X15129075Y-7837900D01*
X15129075Y-7812500D02*
X15103675Y-7837900D01*
X15103675Y-7887500D02*
X15129075Y-7912900D01*
X15129075Y-7887500D02*
X15103675Y-7912900D01*
X15103675Y-8087500D02*
X15129075Y-8112900D01*
X15129075Y-8087500D02*
X15103675Y-8112900D01*
X15103675Y-8162500D02*
X15129075Y-8187900D01*
X15129075Y-8162500D02*
X15103675Y-8187900D01*
X15103675Y-8237500D02*
X15129075Y-8262900D01*
X15129075Y-8237500D02*
X15103675Y-8262900D01*
X15139390Y-6578620D02*
X15164790Y-6604020D01*
X15164790Y-6578620D02*
X15139390Y-6604020D01*
X15139390Y-6719580D02*
X15164790Y-6744980D01*
X15164790Y-6719580D02*
X15139390Y-6744980D01*
X15139390Y-6860540D02*
X15164790Y-6885940D01*
X15164790Y-6860540D02*
X15139390Y-6885940D01*
X15139390Y-7001500D02*
X15164790Y-7026900D01*
X15164790Y-7001500D02*
X15139390Y-7026900D01*
X15139390Y-7142460D02*
X15164790Y-7167860D01*
X15164790Y-7142460D02*
X15139390Y-7167860D01*
X15139390Y-7283420D02*
X15164790Y-7308820D01*
X15164790Y-7283420D02*
X15139390Y-7308820D01*
X15139390Y-7424380D02*
X15164790Y-7449780D01*
X15164790Y-7424380D02*
X15139390Y-7449780D01*
X15139390Y-7565340D02*
X15164790Y-7590740D01*
X15164790Y-7565340D02*
X15139390Y-7590740D01*
X15139390Y-8411100D02*
X15164790Y-8436500D01*
X15164790Y-8411100D02*
X15139390Y-8436500D01*
X15139390Y-8552060D02*
X15164790Y-8577460D01*
X15164790Y-8552060D02*
X15139390Y-8577460D01*
X15139390Y-8693020D02*
X15164790Y-8718420D01*
X15164790Y-8693020D02*
X15139390Y-8718420D01*
X15139390Y-8833980D02*
X15164790Y-8859380D01*
X15164790Y-8833980D02*
X15139390Y-8859380D01*
X15181000Y-7737500D02*
X15206400Y-7762900D01*
X15206400Y-7737500D02*
X15181000Y-7762900D01*
X15181000Y-7812500D02*
X15206400Y-7837900D01*
X15206400Y-7812500D02*
X15181000Y-7837900D01*
X15181000Y-7887500D02*
X15206400Y-7912900D01*
X15206400Y-7887500D02*
X15181000Y-7912900D01*
X15181000Y-8087500D02*
X15206400Y-8112900D01*
X15206400Y-8087500D02*
X15181000Y-8112900D01*
X15181000Y-8162500D02*
X15206400Y-8187900D01*
X15206400Y-8162500D02*
X15181000Y-8187900D01*
X15181000Y-8237500D02*
X15206400Y-8262900D01*
X15206400Y-8237500D02*
X15181000Y-8262900D01*
X15258325Y-7737500D02*
X15283725Y-7762900D01*
X15283725Y-7737500D02*
X15258325Y-7762900D01*
X15258325Y-7812500D02*
X15283725Y-7837900D01*
X15283725Y-7812500D02*
X15258325Y-7837900D01*
X15258325Y-7887500D02*
X15283725Y-7912900D01*
X15283725Y-7887500D02*
X15258325Y-7912900D01*
X15258325Y-8087500D02*
X15283725Y-8112900D01*
X15283725Y-8087500D02*
X15258325Y-8112900D01*
X15258325Y-8162500D02*
X15283725Y-8187900D01*
X15283725Y-8162500D02*
X15258325Y-8187900D01*
X15258325Y-8237500D02*
X15283725Y-8262900D01*
X15283725Y-8237500D02*
X15258325Y-8262900D01*
X15280350Y-6578620D02*
X15305750Y-6604020D01*
X15305750Y-6578620D02*
X15280350Y-6604020D01*
X15280350Y-6719580D02*
X15305750Y-6744980D01*
X15305750Y-6719580D02*
X15280350Y-6744980D01*
X15280350Y-6860540D02*
X15305750Y-6885940D01*
X15305750Y-6860540D02*
X15280350Y-6885940D01*
X15280350Y-7001500D02*
X15305750Y-7026900D01*
X15305750Y-7001500D02*
X15280350Y-7026900D01*
X15280350Y-7142460D02*
X15305750Y-7167860D01*
X15305750Y-7142460D02*
X15280350Y-7167860D01*
X15280350Y-7283420D02*
X15305750Y-7308820D01*
X15305750Y-7283420D02*
X15280350Y-7308820D01*
X15280350Y-7424380D02*
X15305750Y-7449780D01*
X15305750Y-7424380D02*
X15280350Y-7449780D01*
X15280350Y-7565340D02*
X15305750Y-7590740D01*
X15305750Y-7565340D02*
X15280350Y-7590740D01*
X15280350Y-8411100D02*
X15305750Y-8436500D01*
X15305750Y-8411100D02*
X15280350Y-8436500D01*
X15280350Y-8552060D02*
X15305750Y-8577460D01*
X15305750Y-8552060D02*
X15280350Y-8577460D01*
X15280350Y-8693020D02*
X15305750Y-8718420D01*
X15305750Y-8693020D02*
X15280350Y-8718420D01*
X15280350Y-8833980D02*
X15305750Y-8859380D01*
X15305750Y-8833980D02*
X15280350Y-8859380D01*
X15335650Y-7737500D02*
X15361050Y-7762900D01*
X15361050Y-7737500D02*
X15335650Y-7762900D01*
X15335650Y-7812500D02*
X15361050Y-7837900D01*
X15361050Y-7812500D02*
X15335650Y-7837900D01*
X15335650Y-7887500D02*
X15361050Y-7912900D01*
X15361050Y-7887500D02*
X15335650Y-7912900D01*
X15335650Y-8087500D02*
X15361050Y-8112900D01*
X15361050Y-8087500D02*
X15335650Y-8112900D01*
X15335650Y-8162500D02*
X15361050Y-8187900D01*
X15361050Y-8162500D02*
X15335650Y-8187900D01*
X15335650Y-8237500D02*
X15361050Y-8262900D01*
X15361050Y-8237500D02*
X15335650Y-8262900D01*
X15421310Y-6578620D02*
X15446710Y-6604020D01*
X15446710Y-6578620D02*
X15421310Y-6604020D01*
X15421310Y-6719580D02*
X15446710Y-6744980D01*
X15446710Y-6719580D02*
X15421310Y-6744980D01*
X15421310Y-6860540D02*
X15446710Y-6885940D01*
X15446710Y-6860540D02*
X15421310Y-6885940D01*
X15421310Y-7001500D02*
X15446710Y-7026900D01*
X15446710Y-7001500D02*
X15421310Y-7026900D01*
X15421310Y-7142460D02*
X15446710Y-7167860D01*
X15446710Y-7142460D02*
X15421310Y-7167860D01*
X15421310Y-7283420D02*
X15446710Y-7308820D01*
X15446710Y-7283420D02*
X15421310Y-7308820D01*
X15421310Y-7424380D02*
X15446710Y-7449780D01*
X15446710Y-7424380D02*
X15421310Y-7449780D01*
X15421310Y-7565340D02*
X15446710Y-7590740D01*
X15446710Y-7565340D02*
X15421310Y-7590740D01*
X15421310Y-8411100D02*
X15446710Y-8436500D01*
X15446710Y-8411100D02*
X15421310Y-8436500D01*
X15421310Y-8552060D02*
X15446710Y-8577460D01*
X15446710Y-8552060D02*
X15421310Y-8577460D01*
X15421310Y-8693020D02*
X15446710Y-8718420D01*
X15446710Y-8693020D02*
X15421310Y-8718420D01*
X15421310Y-8833980D02*
X15446710Y-8859380D01*
X15446710Y-8833980D02*
X15421310Y-8859380D01*
X15449150Y-7737500D02*
X15474550Y-7762900D01*
X15474550Y-7737500D02*
X15449150Y-7762900D01*
X15449150Y-7812500D02*
X15474550Y-7837900D01*
X15474550Y-7812500D02*
X15449150Y-7837900D01*
X15449150Y-7887500D02*
X15474550Y-7912900D01*
X15474550Y-7887500D02*
X15449150Y-7912900D01*
X15449150Y-8087500D02*
X15474550Y-8112900D01*
X15474550Y-8087500D02*
X15449150Y-8112900D01*
X15449150Y-8162500D02*
X15474550Y-8187900D01*
X15474550Y-8162500D02*
X15449150Y-8187900D01*
X15449150Y-8237500D02*
X15474550Y-8262900D01*
X15474550Y-8237500D02*
X15449150Y-8262900D01*
X15528734Y-7737500D02*
X15554134Y-7762900D01*
X15554134Y-7737500D02*
X15528734Y-7762900D01*
X15528734Y-7812500D02*
X15554134Y-7837900D01*
X15554134Y-7812500D02*
X15528734Y-7837900D01*
X15528734Y-7887500D02*
X15554134Y-7912900D01*
X15554134Y-7887500D02*
X15528734Y-7912900D01*
X15528734Y-8087500D02*
X15554134Y-8112900D01*
X15554134Y-8087500D02*
X15528734Y-8112900D01*
X15528734Y-8162500D02*
X15554134Y-8187900D01*
X15554134Y-8162500D02*
X15528734Y-8187900D01*
X15528734Y-8237500D02*
X15554134Y-8262900D01*
X15554134Y-8237500D02*
X15528734Y-8262900D01*
X15562270Y-6578620D02*
X15587670Y-6604020D01*
X15587670Y-6578620D02*
X15562270Y-6604020D01*
X15562270Y-6719580D02*
X15587670Y-6744980D01*
X15587670Y-6719580D02*
X15562270Y-6744980D01*
X15562270Y-6860540D02*
X15587670Y-6885940D01*
X15587670Y-6860540D02*
X15562270Y-6885940D01*
X15562270Y-7001500D02*
X15587670Y-7026900D01*
X15587670Y-7001500D02*
X15562270Y-7026900D01*
X15562270Y-7142460D02*
X15587670Y-7167860D01*
X15587670Y-7142460D02*
X15562270Y-7167860D01*
X15562270Y-7283420D02*
X15587670Y-7308820D01*
X15587670Y-7283420D02*
X15562270Y-7308820D01*
X15562270Y-7424380D02*
X15587670Y-7449780D01*
X15587670Y-7424380D02*
X15562270Y-7449780D01*
X15562270Y-7565340D02*
X15587670Y-7590740D01*
X15587670Y-7565340D02*
X15562270Y-7590740D01*
X15562270Y-8411100D02*
X15587670Y-8436500D01*
X15587670Y-8411100D02*
X15562270Y-8436500D01*
X15562270Y-8552060D02*
X15587670Y-8577460D01*
X15587670Y-8552060D02*
X15562270Y-8577460D01*
X15562270Y-8693020D02*
X15587670Y-8718420D01*
X15587670Y-8693020D02*
X15562270Y-8718420D01*
X15562270Y-8833980D02*
X15587670Y-8859380D01*
X15587670Y-8833980D02*
X15562270Y-8859380D01*
X15608317Y-7737500D02*
X15633717Y-7762900D01*
X15633717Y-7737500D02*
X15608317Y-7762900D01*
X15608317Y-7812500D02*
X15633717Y-7837900D01*
X15633717Y-7812500D02*
X15608317Y-7837900D01*
X15608317Y-7887500D02*
X15633717Y-7912900D01*
X15633717Y-7887500D02*
X15608317Y-7912900D01*
X15608317Y-8087500D02*
X15633717Y-8112900D01*
X15633717Y-8087500D02*
X15608317Y-8112900D01*
X15608317Y-8162500D02*
X15633717Y-8187900D01*
X15633717Y-8162500D02*
X15608317Y-8187900D01*
X15608317Y-8237500D02*
X15633717Y-8262900D01*
X15633717Y-8237500D02*
X15608317Y-8262900D01*
X15687901Y-7737500D02*
X15713301Y-7762900D01*
X15713301Y-7737500D02*
X15687901Y-7762900D01*
X15687901Y-7812500D02*
X15713301Y-7837900D01*
X15713301Y-7812500D02*
X15687901Y-7837900D01*
X15687901Y-7887500D02*
X15713301Y-7912900D01*
X15713301Y-7887500D02*
X15687901Y-7912900D01*
X15687901Y-8087500D02*
X15713301Y-8112900D01*
X15713301Y-8087500D02*
X15687901Y-8112900D01*
X15687901Y-8162500D02*
X15713301Y-8187900D01*
X15713301Y-8162500D02*
X15687901Y-8187900D01*
X15687901Y-8237500D02*
X15713301Y-8262900D01*
X15713301Y-8237500D02*
X15687901Y-8262900D01*
X15703230Y-6578620D02*
X15728630Y-6604020D01*
X15728630Y-6578620D02*
X15703230Y-6604020D01*
X15703230Y-6719580D02*
X15728630Y-6744980D01*
X15728630Y-6719580D02*
X15703230Y-6744980D01*
X15703230Y-6860540D02*
X15728630Y-6885940D01*
X15728630Y-6860540D02*
X15703230Y-6885940D01*
X15703230Y-7001500D02*
X15728630Y-7026900D01*
X15728630Y-7001500D02*
X15703230Y-7026900D01*
X15703230Y-7142460D02*
X15728630Y-7167860D01*
X15728630Y-7142460D02*
X15703230Y-7167860D01*
X15703230Y-7283420D02*
X15728630Y-7308820D01*
X15728630Y-7283420D02*
X15703230Y-7308820D01*
X15703230Y-7424380D02*
X15728630Y-7449780D01*
X15728630Y-7424380D02*
X15703230Y-7449780D01*
X15703230Y-7565340D02*
X15728630Y-7590740D01*
X15728630Y-7565340D02*
X15703230Y-7590740D01*
X15703230Y-8411100D02*
X15728630Y-8436500D01*
X15728630Y-8411100D02*
X15703230Y-8436500D01*
X15703230Y-8552060D02*
X15728630Y-8577460D01*
X15728630Y-8552060D02*
X15703230Y-8577460D01*
X15703230Y-8693020D02*
X15728630Y-8718420D01*
X15728630Y-8693020D02*
X15703230Y-8718420D01*
X15703230Y-8833980D02*
X15728630Y-8859380D01*
X15728630Y-8833980D02*
X15703230Y-8859380D01*
X15767485Y-7737500D02*
X15792885Y-7762900D01*
X15792885Y-7737500D02*
X15767485Y-7762900D01*
X15767485Y-7812500D02*
X15792885Y-7837900D01*
X15792885Y-7812500D02*
X15767485Y-7837900D01*
X15767485Y-7887500D02*
X15792885Y-7912900D01*
X15792885Y-7887500D02*
X15767485Y-7912900D01*
X15767485Y-8087500D02*
X15792885Y-8112900D01*
X15792885Y-8087500D02*
X15767485Y-8112900D01*
X15767485Y-8162500D02*
X15792885Y-8187900D01*
X15792885Y-8162500D02*
X15767485Y-8187900D01*
X15767485Y-8237500D02*
X15792885Y-8262900D01*
X15792885Y-8237500D02*
X15767485Y-8262900D01*
X15844190Y-6578620D02*
X15869590Y-6604020D01*
X15869590Y-6578620D02*
X15844190Y-6604020D01*
X15844190Y-6719580D02*
X15869590Y-6744980D01*
X15869590Y-6719580D02*
X15844190Y-6744980D01*
X15844190Y-6860540D02*
X15869590Y-6885940D01*
X15869590Y-6860540D02*
X15844190Y-6885940D01*
X15844190Y-7001500D02*
X15869590Y-7026900D01*
X15869590Y-7001500D02*
X15844190Y-7026900D01*
X15844190Y-7142460D02*
X15869590Y-7167860D01*
X15869590Y-7142460D02*
X15844190Y-7167860D01*
X15844190Y-8833980D02*
X15869590Y-8859380D01*
X15869590Y-8833980D02*
X15844190Y-8859380D01*
X15847069Y-7737500D02*
X15872469Y-7762900D01*
X15872469Y-7737500D02*
X15847069Y-7762900D01*
X15847069Y-7812500D02*
X15872469Y-7837900D01*
X15872469Y-7812500D02*
X15847069Y-7837900D01*
X15847069Y-7887500D02*
X15872469Y-7912900D01*
X15872469Y-7887500D02*
X15847069Y-7912900D01*
X15847069Y-8087500D02*
X15872469Y-8112900D01*
X15872469Y-8087500D02*
X15847069Y-8112900D01*
X15847069Y-8162500D02*
X15872469Y-8187900D01*
X15872469Y-8162500D02*
X15847069Y-8187900D01*
X15847069Y-8237500D02*
X15872469Y-8262900D01*
X15872469Y-8237500D02*
X15847069Y-8262900D01*
X15926652Y-7737500D02*
X15952052Y-7762900D01*
X15952052Y-7737500D02*
X15926652Y-7762900D01*
X15926652Y-7812500D02*
X15952052Y-7837900D01*
X15952052Y-7812500D02*
X15926652Y-7837900D01*
X15926652Y-7887500D02*
X15952052Y-7912900D01*
X15952052Y-7887500D02*
X15926652Y-7912900D01*
X15926652Y-8087500D02*
X15952052Y-8112900D01*
X15952052Y-8087500D02*
X15926652Y-8112900D01*
X15926652Y-8162500D02*
X15952052Y-8187900D01*
X15952052Y-8162500D02*
X15926652Y-8187900D01*
X15926652Y-8237500D02*
X15952052Y-8262900D01*
X15952052Y-8237500D02*
X15926652Y-8262900D01*
X15985150Y-6578620D02*
X16010550Y-6604020D01*
X16010550Y-6578620D02*
X15985150Y-6604020D01*
X15985150Y-6719580D02*
X16010550Y-6744980D01*
X16010550Y-6719580D02*
X15985150Y-6744980D01*
X15985150Y-6860540D02*
X16010550Y-6885940D01*
X16010550Y-6860540D02*
X15985150Y-6885940D01*
X15985150Y-7001500D02*
X16010550Y-7026900D01*
X16010550Y-7001500D02*
X15985150Y-7026900D01*
X15985150Y-7142460D02*
X16010550Y-7167860D01*
X16010550Y-7142460D02*
X15985150Y-7167860D01*
X15985150Y-8833980D02*
X16010550Y-8859380D01*
X16010550Y-8833980D02*
X15985150Y-8859380D01*
X16006236Y-7737500D02*
X16031636Y-7762900D01*
X16031636Y-7737500D02*
X16006236Y-7762900D01*
X16006236Y-7812500D02*
X16031636Y-7837900D01*
X16031636Y-7812500D02*
X16006236Y-7837900D01*
X16006236Y-7887500D02*
X16031636Y-7912900D01*
X16031636Y-7887500D02*
X16006236Y-7912900D01*
X16006236Y-8087500D02*
X16031636Y-8112900D01*
X16031636Y-8087500D02*
X16006236Y-8112900D01*
X16006236Y-8162500D02*
X16031636Y-8187900D01*
X16031636Y-8162500D02*
X16006236Y-8187900D01*
X16006236Y-8237500D02*
X16031636Y-8262900D01*
X16031636Y-8237500D02*
X16006236Y-8262900D01*
X16085820Y-7737500D02*
X16111220Y-7762900D01*
X16111220Y-7737500D02*
X16085820Y-7762900D01*
X16085820Y-7812500D02*
X16111220Y-7837900D01*
X16111220Y-7812500D02*
X16085820Y-7837900D01*
X16085820Y-7887500D02*
X16111220Y-7912900D01*
X16111220Y-7887500D02*
X16085820Y-7912900D01*
X16085820Y-8087500D02*
X16111220Y-8112900D01*
X16111220Y-8087500D02*
X16085820Y-8112900D01*
X16085820Y-8162500D02*
X16111220Y-8187900D01*
X16111220Y-8162500D02*
X16085820Y-8187900D01*
X16085820Y-8237500D02*
X16111220Y-8262900D01*
X16111220Y-8237500D02*
X16085820Y-8262900D01*
X16126110Y-6578620D02*
X16151510Y-6604020D01*
X16151510Y-6578620D02*
X16126110Y-6604020D01*
X16126110Y-6719580D02*
X16151510Y-6744980D01*
X16151510Y-6719580D02*
X16126110Y-6744980D01*
X16126110Y-6860540D02*
X16151510Y-6885940D01*
X16151510Y-6860540D02*
X16126110Y-6885940D01*
X16126110Y-7001500D02*
X16151510Y-7026900D01*
X16151510Y-7001500D02*
X16126110Y-7026900D01*
X16126110Y-7142460D02*
X16151510Y-7167860D01*
X16151510Y-7142460D02*
X16126110Y-7167860D01*
X16126110Y-8833980D02*
X16151510Y-8859380D01*
X16151510Y-8833980D02*
X16126110Y-8859380D01*
X13487100Y-7010400D02*
G75*
G02*
X13387100Y-7010400I-50000J0D01*
G01*
X13387100Y-7010400D02*
G75*
G02*
X13487100Y-7010400I50000J0D01*
G01*
X13741100Y-7010400D02*
G75*
G02*
X13641100Y-7010400I-50000J0D01*
G01*
X13641100Y-7010400D02*
G75*
G02*
X13741100Y-7010400I50000J0D01*
G01*
X14680400Y-6616700D02*
G75*
G02*
X14580400Y-6616700I-50000J0D01*
G01*
X14580400Y-6616700D02*
G75*
G02*
X14680400Y-6616700I50000J0D01*
G01*
X14934400Y-6616700D02*
G75*
G02*
X14834400Y-6616700I-50000J0D01*
G01*
X14834400Y-6616700D02*
G75*
G02*
X14934400Y-6616700I50000J0D01*
G01*
D11*
X12424877Y-9402104D02*
X12424877Y-9202104D01*
X12424877Y-9202104D02*
X12472496Y-9202104D01*
X12472496Y-9202104D02*
X12501067Y-9211628D01*
X12501067Y-9211628D02*
X12520115Y-9230675D01*
X12520115Y-9230675D02*
X12529639Y-9249723D01*
X12529639Y-9249723D02*
X12539162Y-9287818D01*
X12539162Y-9287818D02*
X12539162Y-9316390D01*
X12539162Y-9316390D02*
X12529639Y-9354485D01*
X12529639Y-9354485D02*
X12520115Y-9373532D01*
X12520115Y-9373532D02*
X12501067Y-9392580D01*
X12501067Y-9392580D02*
X12472496Y-9402104D01*
X12472496Y-9402104D02*
X12424877Y-9402104D01*
X12624877Y-9402104D02*
X12624877Y-9268770D01*
X12624877Y-9306866D02*
X12634401Y-9287818D01*
X12634401Y-9287818D02*
X12643924Y-9278294D01*
X12643924Y-9278294D02*
X12662972Y-9268770D01*
X12662972Y-9268770D02*
X12682020Y-9268770D01*
X12748686Y-9402104D02*
X12748686Y-9268770D01*
X12748686Y-9202104D02*
X12739162Y-9211628D01*
X12739162Y-9211628D02*
X12748686Y-9221151D01*
X12748686Y-9221151D02*
X12758210Y-9211628D01*
X12758210Y-9211628D02*
X12748686Y-9202104D01*
X12748686Y-9202104D02*
X12748686Y-9221151D01*
X12872496Y-9402104D02*
X12853448Y-9392580D01*
X12853448Y-9392580D02*
X12843924Y-9373532D01*
X12843924Y-9373532D02*
X12843924Y-9202104D01*
X12977258Y-9402104D02*
X12958210Y-9392580D01*
X12958210Y-9392580D02*
X12948686Y-9373532D01*
X12948686Y-9373532D02*
X12948686Y-9202104D01*
X13205829Y-9402104D02*
X13205829Y-9202104D01*
X13205829Y-9202104D02*
X13272496Y-9344961D01*
X13272496Y-9344961D02*
X13339162Y-9202104D01*
X13339162Y-9202104D02*
X13339162Y-9402104D01*
X13520115Y-9402104D02*
X13520115Y-9297342D01*
X13520115Y-9297342D02*
X13510591Y-9278294D01*
X13510591Y-9278294D02*
X13491543Y-9268770D01*
X13491543Y-9268770D02*
X13453448Y-9268770D01*
X13453448Y-9268770D02*
X13434401Y-9278294D01*
X13520115Y-9392580D02*
X13501067Y-9402104D01*
X13501067Y-9402104D02*
X13453448Y-9402104D01*
X13453448Y-9402104D02*
X13434401Y-9392580D01*
X13434401Y-9392580D02*
X13424877Y-9373532D01*
X13424877Y-9373532D02*
X13424877Y-9354485D01*
X13424877Y-9354485D02*
X13434401Y-9335437D01*
X13434401Y-9335437D02*
X13453448Y-9325913D01*
X13453448Y-9325913D02*
X13501067Y-9325913D01*
X13501067Y-9325913D02*
X13520115Y-9316390D01*
X13615353Y-9268770D02*
X13615353Y-9468770D01*
X13615353Y-9278294D02*
X13634401Y-9268770D01*
X13634401Y-9268770D02*
X13672496Y-9268770D01*
X13672496Y-9268770D02*
X13691543Y-9278294D01*
X13691543Y-9278294D02*
X13701067Y-9287818D01*
X13701067Y-9287818D02*
X13710591Y-9306866D01*
X13710591Y-9306866D02*
X13710591Y-9364009D01*
X13710591Y-9364009D02*
X13701067Y-9383056D01*
X13701067Y-9383056D02*
X13691543Y-9392580D01*
X13691543Y-9392580D02*
X13672496Y-9402104D01*
X13672496Y-9402104D02*
X13634401Y-9402104D01*
X13634401Y-9402104D02*
X13615353Y-9392580D01*
X13796305Y-9383056D02*
X13805829Y-9392580D01*
X13805829Y-9392580D02*
X13796305Y-9402104D01*
X13796305Y-9402104D02*
X13786782Y-9392580D01*
X13786782Y-9392580D02*
X13796305Y-9383056D01*
X13796305Y-9383056D02*
X13796305Y-9402104D01*
X13796305Y-9278294D02*
X13805829Y-9287818D01*
X13805829Y-9287818D02*
X13796305Y-9297342D01*
X13796305Y-9297342D02*
X13786782Y-9287818D01*
X13786782Y-9287818D02*
X13796305Y-9278294D01*
X13796305Y-9278294D02*
X13796305Y-9297342D01*
D12*
X12138700Y-9717920D02*
X12164100Y-9743320D01*
X12164100Y-9717920D02*
X12138700Y-9743320D01*
D11*
X12462972Y-9622104D02*
X12482020Y-9622104D01*
X12482020Y-9622104D02*
X12501067Y-9631628D01*
X12501067Y-9631628D02*
X12510591Y-9641151D01*
X12510591Y-9641151D02*
X12520115Y-9660199D01*
X12520115Y-9660199D02*
X12529639Y-9698294D01*
X12529639Y-9698294D02*
X12529639Y-9745913D01*
X12529639Y-9745913D02*
X12520115Y-9784009D01*
X12520115Y-9784009D02*
X12510591Y-9803056D01*
X12510591Y-9803056D02*
X12501067Y-9812580D01*
X12501067Y-9812580D02*
X12482020Y-9822104D01*
X12482020Y-9822104D02*
X12462972Y-9822104D01*
X12462972Y-9822104D02*
X12443924Y-9812580D01*
X12443924Y-9812580D02*
X12434401Y-9803056D01*
X12434401Y-9803056D02*
X12424877Y-9784009D01*
X12424877Y-9784009D02*
X12415353Y-9745913D01*
X12415353Y-9745913D02*
X12415353Y-9698294D01*
X12415353Y-9698294D02*
X12424877Y-9660199D01*
X12424877Y-9660199D02*
X12434401Y-9641151D01*
X12434401Y-9641151D02*
X12443924Y-9631628D01*
X12443924Y-9631628D02*
X12462972Y-9622104D01*
X12615353Y-9803056D02*
X12624877Y-9812580D01*
X12624877Y-9812580D02*
X12615353Y-9822104D01*
X12615353Y-9822104D02*
X12605829Y-9812580D01*
X12605829Y-9812580D02*
X12615353Y-9803056D01*
X12615353Y-9803056D02*
X12615353Y-9822104D01*
X12701067Y-9641151D02*
X12710591Y-9631628D01*
X12710591Y-9631628D02*
X12729639Y-9622104D01*
X12729639Y-9622104D02*
X12777258Y-9622104D01*
X12777258Y-9622104D02*
X12796305Y-9631628D01*
X12796305Y-9631628D02*
X12805829Y-9641151D01*
X12805829Y-9641151D02*
X12815353Y-9660199D01*
X12815353Y-9660199D02*
X12815353Y-9679247D01*
X12815353Y-9679247D02*
X12805829Y-9707818D01*
X12805829Y-9707818D02*
X12691543Y-9822104D01*
X12691543Y-9822104D02*
X12815353Y-9822104D01*
X12996305Y-9622104D02*
X12901067Y-9622104D01*
X12901067Y-9622104D02*
X12891543Y-9717342D01*
X12891543Y-9717342D02*
X12901067Y-9707818D01*
X12901067Y-9707818D02*
X12920115Y-9698294D01*
X12920115Y-9698294D02*
X12967734Y-9698294D01*
X12967734Y-9698294D02*
X12986782Y-9707818D01*
X12986782Y-9707818D02*
X12996305Y-9717342D01*
X12996305Y-9717342D02*
X13005829Y-9736390D01*
X13005829Y-9736390D02*
X13005829Y-9784009D01*
X13005829Y-9784009D02*
X12996305Y-9803056D01*
X12996305Y-9803056D02*
X12986782Y-9812580D01*
X12986782Y-9812580D02*
X12967734Y-9822104D01*
X12967734Y-9822104D02*
X12920115Y-9822104D01*
X12920115Y-9822104D02*
X12901067Y-9812580D01*
X12901067Y-9812580D02*
X12891543Y-9803056D01*
X13177258Y-9688770D02*
X13177258Y-9822104D01*
X13129639Y-9612580D02*
X13082020Y-9755437D01*
X13082020Y-9755437D02*
X13205829Y-9755437D01*
X13282020Y-9822104D02*
X13282020Y-9688770D01*
X13282020Y-9707818D02*
X13291543Y-9698294D01*
X13291543Y-9698294D02*
X13310591Y-9688770D01*
X13310591Y-9688770D02*
X13339163Y-9688770D01*
X13339163Y-9688770D02*
X13358210Y-9698294D01*
X13358210Y-9698294D02*
X13367734Y-9717342D01*
X13367734Y-9717342D02*
X13367734Y-9822104D01*
X13367734Y-9717342D02*
X13377258Y-9698294D01*
X13377258Y-9698294D02*
X13396305Y-9688770D01*
X13396305Y-9688770D02*
X13424877Y-9688770D01*
X13424877Y-9688770D02*
X13443924Y-9698294D01*
X13443924Y-9698294D02*
X13453448Y-9717342D01*
X13453448Y-9717342D02*
X13453448Y-9822104D01*
X13548686Y-9822104D02*
X13548686Y-9688770D01*
X13548686Y-9707818D02*
X13558210Y-9698294D01*
X13558210Y-9698294D02*
X13577258Y-9688770D01*
X13577258Y-9688770D02*
X13605829Y-9688770D01*
X13605829Y-9688770D02*
X13624877Y-9698294D01*
X13624877Y-9698294D02*
X13634401Y-9717342D01*
X13634401Y-9717342D02*
X13634401Y-9822104D01*
X13634401Y-9717342D02*
X13643924Y-9698294D01*
X13643924Y-9698294D02*
X13662972Y-9688770D01*
X13662972Y-9688770D02*
X13691543Y-9688770D01*
X13691543Y-9688770D02*
X13710591Y-9698294D01*
X13710591Y-9698294D02*
X13720115Y-9717342D01*
X13720115Y-9717342D02*
X13720115Y-9822104D01*
X14110591Y-9612580D02*
X13939163Y-9869723D01*
X14367734Y-9622104D02*
X14386782Y-9622104D01*
X14386782Y-9622104D02*
X14405829Y-9631628D01*
X14405829Y-9631628D02*
X14415353Y-9641151D01*
X14415353Y-9641151D02*
X14424877Y-9660199D01*
X14424877Y-9660199D02*
X14434401Y-9698294D01*
X14434401Y-9698294D02*
X14434401Y-9745913D01*
X14434401Y-9745913D02*
X14424877Y-9784009D01*
X14424877Y-9784009D02*
X14415353Y-9803056D01*
X14415353Y-9803056D02*
X14405829Y-9812580D01*
X14405829Y-9812580D02*
X14386782Y-9822104D01*
X14386782Y-9822104D02*
X14367734Y-9822104D01*
X14367734Y-9822104D02*
X14348686Y-9812580D01*
X14348686Y-9812580D02*
X14339163Y-9803056D01*
X14339163Y-9803056D02*
X14329639Y-9784009D01*
X14329639Y-9784009D02*
X14320115Y-9745913D01*
X14320115Y-9745913D02*
X14320115Y-9698294D01*
X14320115Y-9698294D02*
X14329639Y-9660199D01*
X14329639Y-9660199D02*
X14339163Y-9641151D01*
X14339163Y-9641151D02*
X14348686Y-9631628D01*
X14348686Y-9631628D02*
X14367734Y-9622104D01*
X14520115Y-9803056D02*
X14529639Y-9812580D01*
X14529639Y-9812580D02*
X14520115Y-9822104D01*
X14520115Y-9822104D02*
X14510591Y-9812580D01*
X14510591Y-9812580D02*
X14520115Y-9803056D01*
X14520115Y-9803056D02*
X14520115Y-9822104D01*
X14653448Y-9622104D02*
X14672496Y-9622104D01*
X14672496Y-9622104D02*
X14691544Y-9631628D01*
X14691544Y-9631628D02*
X14701067Y-9641151D01*
X14701067Y-9641151D02*
X14710591Y-9660199D01*
X14710591Y-9660199D02*
X14720115Y-9698294D01*
X14720115Y-9698294D02*
X14720115Y-9745913D01*
X14720115Y-9745913D02*
X14710591Y-9784009D01*
X14710591Y-9784009D02*
X14701067Y-9803056D01*
X14701067Y-9803056D02*
X14691544Y-9812580D01*
X14691544Y-9812580D02*
X14672496Y-9822104D01*
X14672496Y-9822104D02*
X14653448Y-9822104D01*
X14653448Y-9822104D02*
X14634401Y-9812580D01*
X14634401Y-9812580D02*
X14624877Y-9803056D01*
X14624877Y-9803056D02*
X14615353Y-9784009D01*
X14615353Y-9784009D02*
X14605829Y-9745913D01*
X14605829Y-9745913D02*
X14605829Y-9698294D01*
X14605829Y-9698294D02*
X14615353Y-9660199D01*
X14615353Y-9660199D02*
X14624877Y-9641151D01*
X14624877Y-9641151D02*
X14634401Y-9631628D01*
X14634401Y-9631628D02*
X14653448Y-9622104D01*
X14910591Y-9822104D02*
X14796306Y-9822104D01*
X14853448Y-9822104D02*
X14853448Y-9622104D01*
X14853448Y-9622104D02*
X14834401Y-9650675D01*
X14834401Y-9650675D02*
X14815353Y-9669723D01*
X14815353Y-9669723D02*
X14796306Y-9679247D01*
X15034401Y-9622104D02*
X15053448Y-9622104D01*
X15053448Y-9622104D02*
X15072496Y-9631628D01*
X15072496Y-9631628D02*
X15082020Y-9641151D01*
X15082020Y-9641151D02*
X15091544Y-9660199D01*
X15091544Y-9660199D02*
X15101067Y-9698294D01*
X15101067Y-9698294D02*
X15101067Y-9745913D01*
X15101067Y-9745913D02*
X15091544Y-9784009D01*
X15091544Y-9784009D02*
X15082020Y-9803056D01*
X15082020Y-9803056D02*
X15072496Y-9812580D01*
X15072496Y-9812580D02*
X15053448Y-9822104D01*
X15053448Y-9822104D02*
X15034401Y-9822104D01*
X15034401Y-9822104D02*
X15015353Y-9812580D01*
X15015353Y-9812580D02*
X15005829Y-9803056D01*
X15005829Y-9803056D02*
X14996306Y-9784009D01*
X14996306Y-9784009D02*
X14986782Y-9745913D01*
X14986782Y-9745913D02*
X14986782Y-9698294D01*
X14986782Y-9698294D02*
X14996306Y-9660199D01*
X14996306Y-9660199D02*
X15005829Y-9641151D01*
X15005829Y-9641151D02*
X15015353Y-9631628D01*
X15015353Y-9631628D02*
X15034401Y-9622104D01*
X15224877Y-9622104D02*
X15243925Y-9622104D01*
X15243925Y-9622104D02*
X15262972Y-9631628D01*
X15262972Y-9631628D02*
X15272496Y-9641151D01*
X15272496Y-9641151D02*
X15282020Y-9660199D01*
X15282020Y-9660199D02*
X15291544Y-9698294D01*
X15291544Y-9698294D02*
X15291544Y-9745913D01*
X15291544Y-9745913D02*
X15282020Y-9784009D01*
X15282020Y-9784009D02*
X15272496Y-9803056D01*
X15272496Y-9803056D02*
X15262972Y-9812580D01*
X15262972Y-9812580D02*
X15243925Y-9822104D01*
X15243925Y-9822104D02*
X15224877Y-9822104D01*
X15224877Y-9822104D02*
X15205829Y-9812580D01*
X15205829Y-9812580D02*
X15196306Y-9803056D01*
X15196306Y-9803056D02*
X15186782Y-9784009D01*
X15186782Y-9784009D02*
X15177258Y-9745913D01*
X15177258Y-9745913D02*
X15177258Y-9698294D01*
X15177258Y-9698294D02*
X15186782Y-9660199D01*
X15186782Y-9660199D02*
X15196306Y-9641151D01*
X15196306Y-9641151D02*
X15205829Y-9631628D01*
X15205829Y-9631628D02*
X15224877Y-9622104D01*
X15367734Y-9622104D02*
X15367734Y-9660199D01*
X15443925Y-9622104D02*
X15443925Y-9660199D01*
X15739163Y-9898294D02*
X15729639Y-9888770D01*
X15729639Y-9888770D02*
X15710591Y-9860199D01*
X15710591Y-9860199D02*
X15701068Y-9841151D01*
X15701068Y-9841151D02*
X15691544Y-9812580D01*
X15691544Y-9812580D02*
X15682020Y-9764961D01*
X15682020Y-9764961D02*
X15682020Y-9726866D01*
X15682020Y-9726866D02*
X15691544Y-9679247D01*
X15691544Y-9679247D02*
X15701068Y-9650675D01*
X15701068Y-9650675D02*
X15710591Y-9631628D01*
X15710591Y-9631628D02*
X15729639Y-9603056D01*
X15729639Y-9603056D02*
X15739163Y-9593532D01*
X15901068Y-9688770D02*
X15901068Y-9822104D01*
X15853448Y-9612580D02*
X15805829Y-9755437D01*
X15805829Y-9755437D02*
X15929639Y-9755437D01*
X16015353Y-9822104D02*
X16053448Y-9822104D01*
X16053448Y-9822104D02*
X16072496Y-9812580D01*
X16072496Y-9812580D02*
X16082020Y-9803056D01*
X16082020Y-9803056D02*
X16101068Y-9774485D01*
X16101068Y-9774485D02*
X16110591Y-9736390D01*
X16110591Y-9736390D02*
X16110591Y-9660199D01*
X16110591Y-9660199D02*
X16101068Y-9641151D01*
X16101068Y-9641151D02*
X16091544Y-9631628D01*
X16091544Y-9631628D02*
X16072496Y-9622104D01*
X16072496Y-9622104D02*
X16034401Y-9622104D01*
X16034401Y-9622104D02*
X16015353Y-9631628D01*
X16015353Y-9631628D02*
X16005829Y-9641151D01*
X16005829Y-9641151D02*
X15996306Y-9660199D01*
X15996306Y-9660199D02*
X15996306Y-9707818D01*
X15996306Y-9707818D02*
X16005829Y-9726866D01*
X16005829Y-9726866D02*
X16015353Y-9736390D01*
X16015353Y-9736390D02*
X16034401Y-9745913D01*
X16034401Y-9745913D02*
X16072496Y-9745913D01*
X16072496Y-9745913D02*
X16091544Y-9736390D01*
X16091544Y-9736390D02*
X16101068Y-9726866D01*
X16101068Y-9726866D02*
X16110591Y-9707818D01*
X16301068Y-9822104D02*
X16186782Y-9822104D01*
X16243925Y-9822104D02*
X16243925Y-9622104D01*
X16243925Y-9622104D02*
X16224877Y-9650675D01*
X16224877Y-9650675D02*
X16205829Y-9669723D01*
X16205829Y-9669723D02*
X16186782Y-9679247D01*
X16539163Y-9822104D02*
X16539163Y-9622104D01*
X16624877Y-9822104D02*
X16624877Y-9717342D01*
X16624877Y-9717342D02*
X16615353Y-9698294D01*
X16615353Y-9698294D02*
X16596306Y-9688770D01*
X16596306Y-9688770D02*
X16567734Y-9688770D01*
X16567734Y-9688770D02*
X16548687Y-9698294D01*
X16548687Y-9698294D02*
X16539163Y-9707818D01*
X16748687Y-9822104D02*
X16729639Y-9812580D01*
X16729639Y-9812580D02*
X16720115Y-9803056D01*
X16720115Y-9803056D02*
X16710591Y-9784009D01*
X16710591Y-9784009D02*
X16710591Y-9726866D01*
X16710591Y-9726866D02*
X16720115Y-9707818D01*
X16720115Y-9707818D02*
X16729639Y-9698294D01*
X16729639Y-9698294D02*
X16748687Y-9688770D01*
X16748687Y-9688770D02*
X16777258Y-9688770D01*
X16777258Y-9688770D02*
X16796306Y-9698294D01*
X16796306Y-9698294D02*
X16805830Y-9707818D01*
X16805830Y-9707818D02*
X16815353Y-9726866D01*
X16815353Y-9726866D02*
X16815353Y-9784009D01*
X16815353Y-9784009D02*
X16805830Y-9803056D01*
X16805830Y-9803056D02*
X16796306Y-9812580D01*
X16796306Y-9812580D02*
X16777258Y-9822104D01*
X16777258Y-9822104D02*
X16748687Y-9822104D01*
X16929639Y-9822104D02*
X16910592Y-9812580D01*
X16910592Y-9812580D02*
X16901068Y-9793532D01*
X16901068Y-9793532D02*
X16901068Y-9622104D01*
X17082020Y-9812580D02*
X17062973Y-9822104D01*
X17062973Y-9822104D02*
X17024877Y-9822104D01*
X17024877Y-9822104D02*
X17005830Y-9812580D01*
X17005830Y-9812580D02*
X16996306Y-9793532D01*
X16996306Y-9793532D02*
X16996306Y-9717342D01*
X16996306Y-9717342D02*
X17005830Y-9698294D01*
X17005830Y-9698294D02*
X17024877Y-9688770D01*
X17024877Y-9688770D02*
X17062973Y-9688770D01*
X17062973Y-9688770D02*
X17082020Y-9698294D01*
X17082020Y-9698294D02*
X17091544Y-9717342D01*
X17091544Y-9717342D02*
X17091544Y-9736390D01*
X17091544Y-9736390D02*
X16996306Y-9755437D01*
X17167734Y-9812580D02*
X17186782Y-9822104D01*
X17186782Y-9822104D02*
X17224877Y-9822104D01*
X17224877Y-9822104D02*
X17243925Y-9812580D01*
X17243925Y-9812580D02*
X17253449Y-9793532D01*
X17253449Y-9793532D02*
X17253449Y-9784009D01*
X17253449Y-9784009D02*
X17243925Y-9764961D01*
X17243925Y-9764961D02*
X17224877Y-9755437D01*
X17224877Y-9755437D02*
X17196306Y-9755437D01*
X17196306Y-9755437D02*
X17177258Y-9745913D01*
X17177258Y-9745913D02*
X17167734Y-9726866D01*
X17167734Y-9726866D02*
X17167734Y-9717342D01*
X17167734Y-9717342D02*
X17177258Y-9698294D01*
X17177258Y-9698294D02*
X17196306Y-9688770D01*
X17196306Y-9688770D02*
X17224877Y-9688770D01*
X17224877Y-9688770D02*
X17243925Y-9698294D01*
X17320115Y-9898294D02*
X17329639Y-9888770D01*
X17329639Y-9888770D02*
X17348687Y-9860199D01*
X17348687Y-9860199D02*
X17358211Y-9841151D01*
X17358211Y-9841151D02*
X17367734Y-9812580D01*
X17367734Y-9812580D02*
X17377258Y-9764961D01*
X17377258Y-9764961D02*
X17377258Y-9726866D01*
X17377258Y-9726866D02*
X17367734Y-9679247D01*
X17367734Y-9679247D02*
X17358211Y-9650675D01*
X17358211Y-9650675D02*
X17348687Y-9631628D01*
X17348687Y-9631628D02*
X17329639Y-9603056D01*
X17329639Y-9603056D02*
X17320115Y-9593532D01*
D12*
X12164100Y-9994620D02*
G75*
G02*
X12064100Y-9994620I-50000J0D01*
G01*
X12064100Y-9994620D02*
G75*
G02*
X12164100Y-9994620I50000J0D01*
G01*
D11*
X12529639Y-10086104D02*
X12415353Y-10086104D01*
X12472496Y-10086104D02*
X12472496Y-9886104D01*
X12472496Y-9886104D02*
X12453448Y-9914675D01*
X12453448Y-9914675D02*
X12434401Y-9933723D01*
X12434401Y-9933723D02*
X12415353Y-9943247D01*
X12615353Y-10067056D02*
X12624877Y-10076580D01*
X12624877Y-10076580D02*
X12615353Y-10086104D01*
X12615353Y-10086104D02*
X12605829Y-10076580D01*
X12605829Y-10076580D02*
X12615353Y-10067056D01*
X12615353Y-10067056D02*
X12615353Y-10086104D01*
X12748686Y-9886104D02*
X12767734Y-9886104D01*
X12767734Y-9886104D02*
X12786782Y-9895628D01*
X12786782Y-9895628D02*
X12796305Y-9905151D01*
X12796305Y-9905151D02*
X12805829Y-9924199D01*
X12805829Y-9924199D02*
X12815353Y-9962294D01*
X12815353Y-9962294D02*
X12815353Y-10009913D01*
X12815353Y-10009913D02*
X12805829Y-10048009D01*
X12805829Y-10048009D02*
X12796305Y-10067056D01*
X12796305Y-10067056D02*
X12786782Y-10076580D01*
X12786782Y-10076580D02*
X12767734Y-10086104D01*
X12767734Y-10086104D02*
X12748686Y-10086104D01*
X12748686Y-10086104D02*
X12729639Y-10076580D01*
X12729639Y-10076580D02*
X12720115Y-10067056D01*
X12720115Y-10067056D02*
X12710591Y-10048009D01*
X12710591Y-10048009D02*
X12701067Y-10009913D01*
X12701067Y-10009913D02*
X12701067Y-9962294D01*
X12701067Y-9962294D02*
X12710591Y-9924199D01*
X12710591Y-9924199D02*
X12720115Y-9905151D01*
X12720115Y-9905151D02*
X12729639Y-9895628D01*
X12729639Y-9895628D02*
X12748686Y-9886104D01*
X12939162Y-9886104D02*
X12958210Y-9886104D01*
X12958210Y-9886104D02*
X12977258Y-9895628D01*
X12977258Y-9895628D02*
X12986782Y-9905151D01*
X12986782Y-9905151D02*
X12996305Y-9924199D01*
X12996305Y-9924199D02*
X13005829Y-9962294D01*
X13005829Y-9962294D02*
X13005829Y-10009913D01*
X13005829Y-10009913D02*
X12996305Y-10048009D01*
X12996305Y-10048009D02*
X12986782Y-10067056D01*
X12986782Y-10067056D02*
X12977258Y-10076580D01*
X12977258Y-10076580D02*
X12958210Y-10086104D01*
X12958210Y-10086104D02*
X12939162Y-10086104D01*
X12939162Y-10086104D02*
X12920115Y-10076580D01*
X12920115Y-10076580D02*
X12910591Y-10067056D01*
X12910591Y-10067056D02*
X12901067Y-10048009D01*
X12901067Y-10048009D02*
X12891543Y-10009913D01*
X12891543Y-10009913D02*
X12891543Y-9962294D01*
X12891543Y-9962294D02*
X12901067Y-9924199D01*
X12901067Y-9924199D02*
X12910591Y-9905151D01*
X12910591Y-9905151D02*
X12920115Y-9895628D01*
X12920115Y-9895628D02*
X12939162Y-9886104D01*
X13129639Y-9886104D02*
X13148686Y-9886104D01*
X13148686Y-9886104D02*
X13167734Y-9895628D01*
X13167734Y-9895628D02*
X13177258Y-9905151D01*
X13177258Y-9905151D02*
X13186782Y-9924199D01*
X13186782Y-9924199D02*
X13196305Y-9962294D01*
X13196305Y-9962294D02*
X13196305Y-10009913D01*
X13196305Y-10009913D02*
X13186782Y-10048009D01*
X13186782Y-10048009D02*
X13177258Y-10067056D01*
X13177258Y-10067056D02*
X13167734Y-10076580D01*
X13167734Y-10076580D02*
X13148686Y-10086104D01*
X13148686Y-10086104D02*
X13129639Y-10086104D01*
X13129639Y-10086104D02*
X13110591Y-10076580D01*
X13110591Y-10076580D02*
X13101067Y-10067056D01*
X13101067Y-10067056D02*
X13091543Y-10048009D01*
X13091543Y-10048009D02*
X13082020Y-10009913D01*
X13082020Y-10009913D02*
X13082020Y-9962294D01*
X13082020Y-9962294D02*
X13091543Y-9924199D01*
X13091543Y-9924199D02*
X13101067Y-9905151D01*
X13101067Y-9905151D02*
X13110591Y-9895628D01*
X13110591Y-9895628D02*
X13129639Y-9886104D01*
X13282020Y-10086104D02*
X13282020Y-9952770D01*
X13282020Y-9971818D02*
X13291543Y-9962294D01*
X13291543Y-9962294D02*
X13310591Y-9952770D01*
X13310591Y-9952770D02*
X13339163Y-9952770D01*
X13339163Y-9952770D02*
X13358210Y-9962294D01*
X13358210Y-9962294D02*
X13367734Y-9981342D01*
X13367734Y-9981342D02*
X13367734Y-10086104D01*
X13367734Y-9981342D02*
X13377258Y-9962294D01*
X13377258Y-9962294D02*
X13396305Y-9952770D01*
X13396305Y-9952770D02*
X13424877Y-9952770D01*
X13424877Y-9952770D02*
X13443924Y-9962294D01*
X13443924Y-9962294D02*
X13453448Y-9981342D01*
X13453448Y-9981342D02*
X13453448Y-10086104D01*
X13548686Y-10086104D02*
X13548686Y-9952770D01*
X13548686Y-9971818D02*
X13558210Y-9962294D01*
X13558210Y-9962294D02*
X13577258Y-9952770D01*
X13577258Y-9952770D02*
X13605829Y-9952770D01*
X13605829Y-9952770D02*
X13624877Y-9962294D01*
X13624877Y-9962294D02*
X13634401Y-9981342D01*
X13634401Y-9981342D02*
X13634401Y-10086104D01*
X13634401Y-9981342D02*
X13643924Y-9962294D01*
X13643924Y-9962294D02*
X13662972Y-9952770D01*
X13662972Y-9952770D02*
X13691543Y-9952770D01*
X13691543Y-9952770D02*
X13710591Y-9962294D01*
X13710591Y-9962294D02*
X13720115Y-9981342D01*
X13720115Y-9981342D02*
X13720115Y-10086104D01*
X14110591Y-9876580D02*
X13939163Y-10133723D01*
X14367734Y-9886104D02*
X14386782Y-9886104D01*
X14386782Y-9886104D02*
X14405829Y-9895628D01*
X14405829Y-9895628D02*
X14415353Y-9905151D01*
X14415353Y-9905151D02*
X14424877Y-9924199D01*
X14424877Y-9924199D02*
X14434401Y-9962294D01*
X14434401Y-9962294D02*
X14434401Y-10009913D01*
X14434401Y-10009913D02*
X14424877Y-10048009D01*
X14424877Y-10048009D02*
X14415353Y-10067056D01*
X14415353Y-10067056D02*
X14405829Y-10076580D01*
X14405829Y-10076580D02*
X14386782Y-10086104D01*
X14386782Y-10086104D02*
X14367734Y-10086104D01*
X14367734Y-10086104D02*
X14348686Y-10076580D01*
X14348686Y-10076580D02*
X14339163Y-10067056D01*
X14339163Y-10067056D02*
X14329639Y-10048009D01*
X14329639Y-10048009D02*
X14320115Y-10009913D01*
X14320115Y-10009913D02*
X14320115Y-9962294D01*
X14320115Y-9962294D02*
X14329639Y-9924199D01*
X14329639Y-9924199D02*
X14339163Y-9905151D01*
X14339163Y-9905151D02*
X14348686Y-9895628D01*
X14348686Y-9895628D02*
X14367734Y-9886104D01*
X14520115Y-10067056D02*
X14529639Y-10076580D01*
X14529639Y-10076580D02*
X14520115Y-10086104D01*
X14520115Y-10086104D02*
X14510591Y-10076580D01*
X14510591Y-10076580D02*
X14520115Y-10067056D01*
X14520115Y-10067056D02*
X14520115Y-10086104D01*
X14653448Y-9886104D02*
X14672496Y-9886104D01*
X14672496Y-9886104D02*
X14691544Y-9895628D01*
X14691544Y-9895628D02*
X14701067Y-9905151D01*
X14701067Y-9905151D02*
X14710591Y-9924199D01*
X14710591Y-9924199D02*
X14720115Y-9962294D01*
X14720115Y-9962294D02*
X14720115Y-10009913D01*
X14720115Y-10009913D02*
X14710591Y-10048009D01*
X14710591Y-10048009D02*
X14701067Y-10067056D01*
X14701067Y-10067056D02*
X14691544Y-10076580D01*
X14691544Y-10076580D02*
X14672496Y-10086104D01*
X14672496Y-10086104D02*
X14653448Y-10086104D01*
X14653448Y-10086104D02*
X14634401Y-10076580D01*
X14634401Y-10076580D02*
X14624877Y-10067056D01*
X14624877Y-10067056D02*
X14615353Y-10048009D01*
X14615353Y-10048009D02*
X14605829Y-10009913D01*
X14605829Y-10009913D02*
X14605829Y-9962294D01*
X14605829Y-9962294D02*
X14615353Y-9924199D01*
X14615353Y-9924199D02*
X14624877Y-9905151D01*
X14624877Y-9905151D02*
X14634401Y-9895628D01*
X14634401Y-9895628D02*
X14653448Y-9886104D01*
X14786782Y-9886104D02*
X14910591Y-9886104D01*
X14910591Y-9886104D02*
X14843925Y-9962294D01*
X14843925Y-9962294D02*
X14872496Y-9962294D01*
X14872496Y-9962294D02*
X14891544Y-9971818D01*
X14891544Y-9971818D02*
X14901067Y-9981342D01*
X14901067Y-9981342D02*
X14910591Y-10000390D01*
X14910591Y-10000390D02*
X14910591Y-10048009D01*
X14910591Y-10048009D02*
X14901067Y-10067056D01*
X14901067Y-10067056D02*
X14891544Y-10076580D01*
X14891544Y-10076580D02*
X14872496Y-10086104D01*
X14872496Y-10086104D02*
X14815353Y-10086104D01*
X14815353Y-10086104D02*
X14796306Y-10076580D01*
X14796306Y-10076580D02*
X14786782Y-10067056D01*
X15005829Y-10086104D02*
X15043925Y-10086104D01*
X15043925Y-10086104D02*
X15062972Y-10076580D01*
X15062972Y-10076580D02*
X15072496Y-10067056D01*
X15072496Y-10067056D02*
X15091544Y-10038485D01*
X15091544Y-10038485D02*
X15101067Y-10000390D01*
X15101067Y-10000390D02*
X15101067Y-9924199D01*
X15101067Y-9924199D02*
X15091544Y-9905151D01*
X15091544Y-9905151D02*
X15082020Y-9895628D01*
X15082020Y-9895628D02*
X15062972Y-9886104D01*
X15062972Y-9886104D02*
X15024877Y-9886104D01*
X15024877Y-9886104D02*
X15005829Y-9895628D01*
X15005829Y-9895628D02*
X14996306Y-9905151D01*
X14996306Y-9905151D02*
X14986782Y-9924199D01*
X14986782Y-9924199D02*
X14986782Y-9971818D01*
X14986782Y-9971818D02*
X14996306Y-9990866D01*
X14996306Y-9990866D02*
X15005829Y-10000390D01*
X15005829Y-10000390D02*
X15024877Y-10009913D01*
X15024877Y-10009913D02*
X15062972Y-10009913D01*
X15062972Y-10009913D02*
X15082020Y-10000390D01*
X15082020Y-10000390D02*
X15091544Y-9990866D01*
X15091544Y-9990866D02*
X15101067Y-9971818D01*
X15272496Y-9952770D02*
X15272496Y-10086104D01*
X15224877Y-9876580D02*
X15177258Y-10019437D01*
X15177258Y-10019437D02*
X15301067Y-10019437D01*
X15367734Y-9886104D02*
X15367734Y-9924199D01*
X15443925Y-9886104D02*
X15443925Y-9924199D01*
X15739163Y-10162294D02*
X15729639Y-10152770D01*
X15729639Y-10152770D02*
X15710591Y-10124199D01*
X15710591Y-10124199D02*
X15701068Y-10105151D01*
X15701068Y-10105151D02*
X15691544Y-10076580D01*
X15691544Y-10076580D02*
X15682020Y-10028961D01*
X15682020Y-10028961D02*
X15682020Y-9990866D01*
X15682020Y-9990866D02*
X15691544Y-9943247D01*
X15691544Y-9943247D02*
X15701068Y-9914675D01*
X15701068Y-9914675D02*
X15710591Y-9895628D01*
X15710591Y-9895628D02*
X15729639Y-9867056D01*
X15729639Y-9867056D02*
X15739163Y-9857532D01*
X15901068Y-9952770D02*
X15901068Y-10086104D01*
X15853448Y-9876580D02*
X15805829Y-10019437D01*
X15805829Y-10019437D02*
X15929639Y-10019437D01*
X16158210Y-10086104D02*
X16158210Y-9886104D01*
X16243925Y-10086104D02*
X16243925Y-9981342D01*
X16243925Y-9981342D02*
X16234401Y-9962294D01*
X16234401Y-9962294D02*
X16215353Y-9952770D01*
X16215353Y-9952770D02*
X16186782Y-9952770D01*
X16186782Y-9952770D02*
X16167734Y-9962294D01*
X16167734Y-9962294D02*
X16158210Y-9971818D01*
X16367734Y-10086104D02*
X16348687Y-10076580D01*
X16348687Y-10076580D02*
X16339163Y-10067056D01*
X16339163Y-10067056D02*
X16329639Y-10048009D01*
X16329639Y-10048009D02*
X16329639Y-9990866D01*
X16329639Y-9990866D02*
X16339163Y-9971818D01*
X16339163Y-9971818D02*
X16348687Y-9962294D01*
X16348687Y-9962294D02*
X16367734Y-9952770D01*
X16367734Y-9952770D02*
X16396306Y-9952770D01*
X16396306Y-9952770D02*
X16415353Y-9962294D01*
X16415353Y-9962294D02*
X16424877Y-9971818D01*
X16424877Y-9971818D02*
X16434401Y-9990866D01*
X16434401Y-9990866D02*
X16434401Y-10048009D01*
X16434401Y-10048009D02*
X16424877Y-10067056D01*
X16424877Y-10067056D02*
X16415353Y-10076580D01*
X16415353Y-10076580D02*
X16396306Y-10086104D01*
X16396306Y-10086104D02*
X16367734Y-10086104D01*
X16548687Y-10086104D02*
X16529639Y-10076580D01*
X16529639Y-10076580D02*
X16520115Y-10057532D01*
X16520115Y-10057532D02*
X16520115Y-9886104D01*
X16701068Y-10076580D02*
X16682020Y-10086104D01*
X16682020Y-10086104D02*
X16643925Y-10086104D01*
X16643925Y-10086104D02*
X16624877Y-10076580D01*
X16624877Y-10076580D02*
X16615353Y-10057532D01*
X16615353Y-10057532D02*
X16615353Y-9981342D01*
X16615353Y-9981342D02*
X16624877Y-9962294D01*
X16624877Y-9962294D02*
X16643925Y-9952770D01*
X16643925Y-9952770D02*
X16682020Y-9952770D01*
X16682020Y-9952770D02*
X16701068Y-9962294D01*
X16701068Y-9962294D02*
X16710591Y-9981342D01*
X16710591Y-9981342D02*
X16710591Y-10000390D01*
X16710591Y-10000390D02*
X16615353Y-10019437D01*
X16786782Y-10076580D02*
X16805830Y-10086104D01*
X16805830Y-10086104D02*
X16843925Y-10086104D01*
X16843925Y-10086104D02*
X16862973Y-10076580D01*
X16862973Y-10076580D02*
X16872496Y-10057532D01*
X16872496Y-10057532D02*
X16872496Y-10048009D01*
X16872496Y-10048009D02*
X16862973Y-10028961D01*
X16862973Y-10028961D02*
X16843925Y-10019437D01*
X16843925Y-10019437D02*
X16815353Y-10019437D01*
X16815353Y-10019437D02*
X16796306Y-10009913D01*
X16796306Y-10009913D02*
X16786782Y-9990866D01*
X16786782Y-9990866D02*
X16786782Y-9981342D01*
X16786782Y-9981342D02*
X16796306Y-9962294D01*
X16796306Y-9962294D02*
X16815353Y-9952770D01*
X16815353Y-9952770D02*
X16843925Y-9952770D01*
X16843925Y-9952770D02*
X16862973Y-9962294D01*
X16939163Y-10162294D02*
X16948687Y-10152770D01*
X16948687Y-10152770D02*
X16967734Y-10124199D01*
X16967734Y-10124199D02*
X16977258Y-10105151D01*
X16977258Y-10105151D02*
X16986782Y-10076580D01*
X16986782Y-10076580D02*
X16996306Y-10028961D01*
X16996306Y-10028961D02*
X16996306Y-9990866D01*
X16996306Y-9990866D02*
X16986782Y-9943247D01*
X16986782Y-9943247D02*
X16977258Y-9914675D01*
X16977258Y-9914675D02*
X16967734Y-9895628D01*
X16967734Y-9895628D02*
X16948687Y-9867056D01*
X16948687Y-9867056D02*
X16939163Y-9857532D01*
M02*
