%TF.GenerationSoftware,KiCad,Pcbnew,8.0.4*%
%TF.CreationDate,2025-12-21T00:45:38-08:00*%
%TF.ProjectId,PLL-Driver,504c4c2d-4472-4697-9665-722e6b696361,rev?*%
%TF.SameCoordinates,Original*%
%TF.FileFunction,Legend,Top*%
%TF.FilePolarity,Positive*%
%FSLAX46Y46*%
G04 Gerber Fmt 4.6, Leading zero omitted, Abs format (unit mm)*
G04 Created by KiCad (PCBNEW 8.0.4) date 2025-12-21 00:45:38*
%MOMM*%
%LPD*%
G01*
G04 APERTURE LIST*
%ADD10C,0.100000*%
%ADD11C,0.127000*%
%ADD12C,0.150000*%
%ADD13C,0.000000*%
%ADD14C,0.152400*%
%ADD15C,0.120000*%
%ADD16C,0.508000*%
G04 APERTURE END LIST*
D10*
X153136600Y-88696800D02*
X156438600Y-88696800D01*
X156438600Y-90373200D01*
X153136600Y-90373200D01*
X153136600Y-88696800D01*
G36*
X153136600Y-88696800D02*
G01*
X156438600Y-88696800D01*
X156438600Y-90373200D01*
X153136600Y-90373200D01*
X153136600Y-88696800D01*
G37*
D11*
X122875618Y-89953000D02*
X122875618Y-89064000D01*
X122875618Y-89064000D02*
X123171952Y-89699000D01*
X123171952Y-89699000D02*
X123468285Y-89064000D01*
X123468285Y-89064000D02*
X123468285Y-89953000D01*
X124018618Y-89953000D02*
X123933952Y-89910667D01*
X123933952Y-89910667D02*
X123891618Y-89868333D01*
X123891618Y-89868333D02*
X123849285Y-89783667D01*
X123849285Y-89783667D02*
X123849285Y-89529667D01*
X123849285Y-89529667D02*
X123891618Y-89445000D01*
X123891618Y-89445000D02*
X123933952Y-89402667D01*
X123933952Y-89402667D02*
X124018618Y-89360333D01*
X124018618Y-89360333D02*
X124145618Y-89360333D01*
X124145618Y-89360333D02*
X124230285Y-89402667D01*
X124230285Y-89402667D02*
X124272618Y-89445000D01*
X124272618Y-89445000D02*
X124314952Y-89529667D01*
X124314952Y-89529667D02*
X124314952Y-89783667D01*
X124314952Y-89783667D02*
X124272618Y-89868333D01*
X124272618Y-89868333D02*
X124230285Y-89910667D01*
X124230285Y-89910667D02*
X124145618Y-89953000D01*
X124145618Y-89953000D02*
X124018618Y-89953000D01*
X124695951Y-89360333D02*
X124695951Y-89953000D01*
X124695951Y-89445000D02*
X124738285Y-89402667D01*
X124738285Y-89402667D02*
X124822951Y-89360333D01*
X124822951Y-89360333D02*
X124949951Y-89360333D01*
X124949951Y-89360333D02*
X125034618Y-89402667D01*
X125034618Y-89402667D02*
X125076951Y-89487333D01*
X125076951Y-89487333D02*
X125076951Y-89953000D01*
X125373284Y-89360333D02*
X125711951Y-89360333D01*
X125500284Y-89064000D02*
X125500284Y-89826000D01*
X125500284Y-89826000D02*
X125542618Y-89910667D01*
X125542618Y-89910667D02*
X125627284Y-89953000D01*
X125627284Y-89953000D02*
X125711951Y-89953000D01*
X126685617Y-89953000D02*
X126685617Y-89064000D01*
X126685617Y-89064000D02*
X126981951Y-89699000D01*
X126981951Y-89699000D02*
X127278284Y-89064000D01*
X127278284Y-89064000D02*
X127278284Y-89953000D01*
X128082617Y-89360333D02*
X128082617Y-89953000D01*
X127701617Y-89360333D02*
X127701617Y-89826000D01*
X127701617Y-89826000D02*
X127743951Y-89910667D01*
X127743951Y-89910667D02*
X127828617Y-89953000D01*
X127828617Y-89953000D02*
X127955617Y-89953000D01*
X127955617Y-89953000D02*
X128040284Y-89910667D01*
X128040284Y-89910667D02*
X128082617Y-89868333D01*
X128505950Y-89953000D02*
X128505950Y-89360333D01*
X128505950Y-89529667D02*
X128548284Y-89445000D01*
X128548284Y-89445000D02*
X128590617Y-89402667D01*
X128590617Y-89402667D02*
X128675284Y-89360333D01*
X128675284Y-89360333D02*
X128759950Y-89360333D01*
X129437283Y-89953000D02*
X129437283Y-89487333D01*
X129437283Y-89487333D02*
X129394950Y-89402667D01*
X129394950Y-89402667D02*
X129310283Y-89360333D01*
X129310283Y-89360333D02*
X129140950Y-89360333D01*
X129140950Y-89360333D02*
X129056283Y-89402667D01*
X129437283Y-89910667D02*
X129352617Y-89953000D01*
X129352617Y-89953000D02*
X129140950Y-89953000D01*
X129140950Y-89953000D02*
X129056283Y-89910667D01*
X129056283Y-89910667D02*
X129013950Y-89826000D01*
X129013950Y-89826000D02*
X129013950Y-89741333D01*
X129013950Y-89741333D02*
X129056283Y-89656667D01*
X129056283Y-89656667D02*
X129140950Y-89614333D01*
X129140950Y-89614333D02*
X129352617Y-89614333D01*
X129352617Y-89614333D02*
X129437283Y-89572000D01*
X130241616Y-89953000D02*
X130241616Y-89064000D01*
X130241616Y-89910667D02*
X130156950Y-89953000D01*
X130156950Y-89953000D02*
X129987616Y-89953000D01*
X129987616Y-89953000D02*
X129902950Y-89910667D01*
X129902950Y-89910667D02*
X129860616Y-89868333D01*
X129860616Y-89868333D02*
X129818283Y-89783667D01*
X129818283Y-89783667D02*
X129818283Y-89529667D01*
X129818283Y-89529667D02*
X129860616Y-89445000D01*
X129860616Y-89445000D02*
X129902950Y-89402667D01*
X129902950Y-89402667D02*
X129987616Y-89360333D01*
X129987616Y-89360333D02*
X130156950Y-89360333D01*
X130156950Y-89360333D02*
X130241616Y-89402667D01*
X131553949Y-90249333D02*
X131553949Y-88979333D01*
X132866282Y-89953000D02*
X132866282Y-89064000D01*
X132866282Y-89064000D02*
X133204949Y-89064000D01*
X133204949Y-89064000D02*
X133289616Y-89106333D01*
X133289616Y-89106333D02*
X133331949Y-89148667D01*
X133331949Y-89148667D02*
X133374282Y-89233333D01*
X133374282Y-89233333D02*
X133374282Y-89360333D01*
X133374282Y-89360333D02*
X133331949Y-89445000D01*
X133331949Y-89445000D02*
X133289616Y-89487333D01*
X133289616Y-89487333D02*
X133204949Y-89529667D01*
X133204949Y-89529667D02*
X132866282Y-89529667D01*
X134178616Y-89953000D02*
X133755282Y-89953000D01*
X133755282Y-89953000D02*
X133755282Y-89064000D01*
X134898283Y-89953000D02*
X134474949Y-89953000D01*
X134474949Y-89953000D02*
X134474949Y-89064000D01*
X135871949Y-89953000D02*
X135871949Y-89064000D01*
X135871949Y-89064000D02*
X136083616Y-89064000D01*
X136083616Y-89064000D02*
X136210616Y-89106333D01*
X136210616Y-89106333D02*
X136295283Y-89191000D01*
X136295283Y-89191000D02*
X136337616Y-89275667D01*
X136337616Y-89275667D02*
X136379949Y-89445000D01*
X136379949Y-89445000D02*
X136379949Y-89572000D01*
X136379949Y-89572000D02*
X136337616Y-89741333D01*
X136337616Y-89741333D02*
X136295283Y-89826000D01*
X136295283Y-89826000D02*
X136210616Y-89910667D01*
X136210616Y-89910667D02*
X136083616Y-89953000D01*
X136083616Y-89953000D02*
X135871949Y-89953000D01*
X136760949Y-89953000D02*
X136760949Y-89360333D01*
X136760949Y-89529667D02*
X136803283Y-89445000D01*
X136803283Y-89445000D02*
X136845616Y-89402667D01*
X136845616Y-89402667D02*
X136930283Y-89360333D01*
X136930283Y-89360333D02*
X137014949Y-89360333D01*
X137311282Y-89953000D02*
X137311282Y-89360333D01*
X137311282Y-89064000D02*
X137268949Y-89106333D01*
X137268949Y-89106333D02*
X137311282Y-89148667D01*
X137311282Y-89148667D02*
X137353616Y-89106333D01*
X137353616Y-89106333D02*
X137311282Y-89064000D01*
X137311282Y-89064000D02*
X137311282Y-89148667D01*
X137649949Y-89360333D02*
X137861615Y-89953000D01*
X137861615Y-89953000D02*
X138073282Y-89360333D01*
X138750615Y-89910667D02*
X138665948Y-89953000D01*
X138665948Y-89953000D02*
X138496615Y-89953000D01*
X138496615Y-89953000D02*
X138411948Y-89910667D01*
X138411948Y-89910667D02*
X138369615Y-89826000D01*
X138369615Y-89826000D02*
X138369615Y-89487333D01*
X138369615Y-89487333D02*
X138411948Y-89402667D01*
X138411948Y-89402667D02*
X138496615Y-89360333D01*
X138496615Y-89360333D02*
X138665948Y-89360333D01*
X138665948Y-89360333D02*
X138750615Y-89402667D01*
X138750615Y-89402667D02*
X138792948Y-89487333D01*
X138792948Y-89487333D02*
X138792948Y-89572000D01*
X138792948Y-89572000D02*
X138369615Y-89656667D01*
X139173948Y-89953000D02*
X139173948Y-89360333D01*
X139173948Y-89529667D02*
X139216282Y-89445000D01*
X139216282Y-89445000D02*
X139258615Y-89402667D01*
X139258615Y-89402667D02*
X139343282Y-89360333D01*
X139343282Y-89360333D02*
X139427948Y-89360333D01*
X140613281Y-90249333D02*
X140613281Y-88979333D01*
X142433614Y-89953000D02*
X142137281Y-89529667D01*
X141925614Y-89953000D02*
X141925614Y-89064000D01*
X141925614Y-89064000D02*
X142264281Y-89064000D01*
X142264281Y-89064000D02*
X142348948Y-89106333D01*
X142348948Y-89106333D02*
X142391281Y-89148667D01*
X142391281Y-89148667D02*
X142433614Y-89233333D01*
X142433614Y-89233333D02*
X142433614Y-89360333D01*
X142433614Y-89360333D02*
X142391281Y-89445000D01*
X142391281Y-89445000D02*
X142348948Y-89487333D01*
X142348948Y-89487333D02*
X142264281Y-89529667D01*
X142264281Y-89529667D02*
X141925614Y-89529667D01*
X143153281Y-89910667D02*
X143068614Y-89953000D01*
X143068614Y-89953000D02*
X142899281Y-89953000D01*
X142899281Y-89953000D02*
X142814614Y-89910667D01*
X142814614Y-89910667D02*
X142772281Y-89826000D01*
X142772281Y-89826000D02*
X142772281Y-89487333D01*
X142772281Y-89487333D02*
X142814614Y-89402667D01*
X142814614Y-89402667D02*
X142899281Y-89360333D01*
X142899281Y-89360333D02*
X143068614Y-89360333D01*
X143068614Y-89360333D02*
X143153281Y-89402667D01*
X143153281Y-89402667D02*
X143195614Y-89487333D01*
X143195614Y-89487333D02*
X143195614Y-89572000D01*
X143195614Y-89572000D02*
X142772281Y-89656667D01*
X143491948Y-89360333D02*
X143703614Y-89953000D01*
X143703614Y-89953000D02*
X143915281Y-89360333D01*
X145100614Y-89064000D02*
X145185280Y-89064000D01*
X145185280Y-89064000D02*
X145269947Y-89106333D01*
X145269947Y-89106333D02*
X145312280Y-89148667D01*
X145312280Y-89148667D02*
X145354614Y-89233333D01*
X145354614Y-89233333D02*
X145396947Y-89402667D01*
X145396947Y-89402667D02*
X145396947Y-89614333D01*
X145396947Y-89614333D02*
X145354614Y-89783667D01*
X145354614Y-89783667D02*
X145312280Y-89868333D01*
X145312280Y-89868333D02*
X145269947Y-89910667D01*
X145269947Y-89910667D02*
X145185280Y-89953000D01*
X145185280Y-89953000D02*
X145100614Y-89953000D01*
X145100614Y-89953000D02*
X145015947Y-89910667D01*
X145015947Y-89910667D02*
X144973614Y-89868333D01*
X144973614Y-89868333D02*
X144931280Y-89783667D01*
X144931280Y-89783667D02*
X144888947Y-89614333D01*
X144888947Y-89614333D02*
X144888947Y-89402667D01*
X144888947Y-89402667D02*
X144931280Y-89233333D01*
X144931280Y-89233333D02*
X144973614Y-89148667D01*
X144973614Y-89148667D02*
X145015947Y-89106333D01*
X145015947Y-89106333D02*
X145100614Y-89064000D01*
X146666947Y-90249333D02*
X146666947Y-88979333D01*
X147936947Y-89699000D02*
X148360280Y-89699000D01*
X147852280Y-89953000D02*
X148148614Y-89064000D01*
X148148614Y-89064000D02*
X148444947Y-89953000D01*
X148698947Y-89910667D02*
X148825947Y-89953000D01*
X148825947Y-89953000D02*
X149037614Y-89953000D01*
X149037614Y-89953000D02*
X149122280Y-89910667D01*
X149122280Y-89910667D02*
X149164614Y-89868333D01*
X149164614Y-89868333D02*
X149206947Y-89783667D01*
X149206947Y-89783667D02*
X149206947Y-89699000D01*
X149206947Y-89699000D02*
X149164614Y-89614333D01*
X149164614Y-89614333D02*
X149122280Y-89572000D01*
X149122280Y-89572000D02*
X149037614Y-89529667D01*
X149037614Y-89529667D02*
X148868280Y-89487333D01*
X148868280Y-89487333D02*
X148783614Y-89445000D01*
X148783614Y-89445000D02*
X148741280Y-89402667D01*
X148741280Y-89402667D02*
X148698947Y-89318000D01*
X148698947Y-89318000D02*
X148698947Y-89233333D01*
X148698947Y-89233333D02*
X148741280Y-89148667D01*
X148741280Y-89148667D02*
X148783614Y-89106333D01*
X148783614Y-89106333D02*
X148868280Y-89064000D01*
X148868280Y-89064000D02*
X149079947Y-89064000D01*
X149079947Y-89064000D02*
X149206947Y-89106333D01*
X149545614Y-89910667D02*
X149672614Y-89953000D01*
X149672614Y-89953000D02*
X149884281Y-89953000D01*
X149884281Y-89953000D02*
X149968947Y-89910667D01*
X149968947Y-89910667D02*
X150011281Y-89868333D01*
X150011281Y-89868333D02*
X150053614Y-89783667D01*
X150053614Y-89783667D02*
X150053614Y-89699000D01*
X150053614Y-89699000D02*
X150011281Y-89614333D01*
X150011281Y-89614333D02*
X149968947Y-89572000D01*
X149968947Y-89572000D02*
X149884281Y-89529667D01*
X149884281Y-89529667D02*
X149714947Y-89487333D01*
X149714947Y-89487333D02*
X149630281Y-89445000D01*
X149630281Y-89445000D02*
X149587947Y-89402667D01*
X149587947Y-89402667D02*
X149545614Y-89318000D01*
X149545614Y-89318000D02*
X149545614Y-89233333D01*
X149545614Y-89233333D02*
X149587947Y-89148667D01*
X149587947Y-89148667D02*
X149630281Y-89106333D01*
X149630281Y-89106333D02*
X149714947Y-89064000D01*
X149714947Y-89064000D02*
X149926614Y-89064000D01*
X149926614Y-89064000D02*
X150053614Y-89106333D01*
X150434614Y-89064000D02*
X150434614Y-89783667D01*
X150434614Y-89783667D02*
X150476948Y-89868333D01*
X150476948Y-89868333D02*
X150519281Y-89910667D01*
X150519281Y-89910667D02*
X150603948Y-89953000D01*
X150603948Y-89953000D02*
X150773281Y-89953000D01*
X150773281Y-89953000D02*
X150857948Y-89910667D01*
X150857948Y-89910667D02*
X150900281Y-89868333D01*
X150900281Y-89868333D02*
X150942614Y-89783667D01*
X150942614Y-89783667D02*
X150942614Y-89064000D01*
X151365947Y-89953000D02*
X151365947Y-89064000D01*
X151365947Y-89064000D02*
X151662281Y-89699000D01*
X151662281Y-89699000D02*
X151958614Y-89064000D01*
X151958614Y-89064000D02*
X151958614Y-89953000D01*
X152381947Y-89868333D02*
X152424281Y-89910667D01*
X152424281Y-89910667D02*
X152381947Y-89953000D01*
X152381947Y-89953000D02*
X152339614Y-89910667D01*
X152339614Y-89910667D02*
X152381947Y-89868333D01*
X152381947Y-89868333D02*
X152381947Y-89953000D01*
X152381947Y-89402667D02*
X152424281Y-89445000D01*
X152424281Y-89445000D02*
X152381947Y-89487333D01*
X152381947Y-89487333D02*
X152339614Y-89445000D01*
X152339614Y-89445000D02*
X152381947Y-89402667D01*
X152381947Y-89402667D02*
X152381947Y-89487333D01*
D12*
X139852495Y-82360419D02*
X139852495Y-83169942D01*
X139852495Y-83169942D02*
X139900114Y-83265180D01*
X139900114Y-83265180D02*
X139947733Y-83312800D01*
X139947733Y-83312800D02*
X140042971Y-83360419D01*
X140042971Y-83360419D02*
X140233447Y-83360419D01*
X140233447Y-83360419D02*
X140328685Y-83312800D01*
X140328685Y-83312800D02*
X140376304Y-83265180D01*
X140376304Y-83265180D02*
X140423923Y-83169942D01*
X140423923Y-83169942D02*
X140423923Y-82360419D01*
X141423923Y-83360419D02*
X140852495Y-83360419D01*
X141138209Y-83360419D02*
X141138209Y-82360419D01*
X141138209Y-82360419D02*
X141042971Y-82503276D01*
X141042971Y-82503276D02*
X140947733Y-82598514D01*
X140947733Y-82598514D02*
X140852495Y-82646133D01*
X137972800Y-78550419D02*
X137972800Y-78788514D01*
X137734705Y-78693276D02*
X137972800Y-78788514D01*
X137972800Y-78788514D02*
X138210895Y-78693276D01*
X137829943Y-78978990D02*
X137972800Y-78788514D01*
X137972800Y-78788514D02*
X138115657Y-78978990D01*
X138734800Y-77432819D02*
X138734800Y-77670914D01*
X138496705Y-77575676D02*
X138734800Y-77670914D01*
X138734800Y-77670914D02*
X138972895Y-77575676D01*
X138591943Y-77861390D02*
X138734800Y-77670914D01*
X138734800Y-77670914D02*
X138877657Y-77861390D01*
X150328333Y-79448819D02*
X149852143Y-79448819D01*
X149852143Y-79448819D02*
X149852143Y-78448819D01*
X151185476Y-79448819D02*
X150614048Y-79448819D01*
X150899762Y-79448819D02*
X150899762Y-78448819D01*
X150899762Y-78448819D02*
X150804524Y-78591676D01*
X150804524Y-78591676D02*
X150709286Y-78686914D01*
X150709286Y-78686914D02*
X150614048Y-78734533D01*
X138695819Y-70437333D02*
X139410104Y-70437333D01*
X139410104Y-70437333D02*
X139552961Y-70484952D01*
X139552961Y-70484952D02*
X139648200Y-70580190D01*
X139648200Y-70580190D02*
X139695819Y-70723047D01*
X139695819Y-70723047D02*
X139695819Y-70818285D01*
X139029152Y-69532571D02*
X139695819Y-69532571D01*
X138648200Y-69770666D02*
X139362485Y-70008761D01*
X139362485Y-70008761D02*
X139362485Y-69389714D01*
X150628819Y-66500333D02*
X151343104Y-66500333D01*
X151343104Y-66500333D02*
X151485961Y-66547952D01*
X151485961Y-66547952D02*
X151581200Y-66643190D01*
X151581200Y-66643190D02*
X151628819Y-66786047D01*
X151628819Y-66786047D02*
X151628819Y-66881285D01*
X150628819Y-66119380D02*
X150628819Y-65500333D01*
X150628819Y-65500333D02*
X151009771Y-65833666D01*
X151009771Y-65833666D02*
X151009771Y-65690809D01*
X151009771Y-65690809D02*
X151057390Y-65595571D01*
X151057390Y-65595571D02*
X151105009Y-65547952D01*
X151105009Y-65547952D02*
X151200247Y-65500333D01*
X151200247Y-65500333D02*
X151438342Y-65500333D01*
X151438342Y-65500333D02*
X151533580Y-65547952D01*
X151533580Y-65547952D02*
X151581200Y-65595571D01*
X151581200Y-65595571D02*
X151628819Y-65690809D01*
X151628819Y-65690809D02*
X151628819Y-65976523D01*
X151628819Y-65976523D02*
X151581200Y-66071761D01*
X151581200Y-66071761D02*
X151533580Y-66119380D01*
X156257666Y-85514718D02*
X156257666Y-86229003D01*
X156257666Y-86229003D02*
X156210047Y-86371860D01*
X156210047Y-86371860D02*
X156114809Y-86467099D01*
X156114809Y-86467099D02*
X155971952Y-86514718D01*
X155971952Y-86514718D02*
X155876714Y-86514718D01*
X156686238Y-85609956D02*
X156733857Y-85562337D01*
X156733857Y-85562337D02*
X156829095Y-85514718D01*
X156829095Y-85514718D02*
X157067190Y-85514718D01*
X157067190Y-85514718D02*
X157162428Y-85562337D01*
X157162428Y-85562337D02*
X157210047Y-85609956D01*
X157210047Y-85609956D02*
X157257666Y-85705194D01*
X157257666Y-85705194D02*
X157257666Y-85800432D01*
X157257666Y-85800432D02*
X157210047Y-85943289D01*
X157210047Y-85943289D02*
X156638619Y-86514718D01*
X156638619Y-86514718D02*
X157257666Y-86514718D01*
X127733466Y-85916419D02*
X127733466Y-86630704D01*
X127733466Y-86630704D02*
X127685847Y-86773561D01*
X127685847Y-86773561D02*
X127590609Y-86868800D01*
X127590609Y-86868800D02*
X127447752Y-86916419D01*
X127447752Y-86916419D02*
X127352514Y-86916419D01*
X128733466Y-86916419D02*
X128162038Y-86916419D01*
X128447752Y-86916419D02*
X128447752Y-85916419D01*
X128447752Y-85916419D02*
X128352514Y-86059276D01*
X128352514Y-86059276D02*
X128257276Y-86154514D01*
X128257276Y-86154514D02*
X128162038Y-86202133D01*
X145020833Y-71860580D02*
X144973214Y-71908200D01*
X144973214Y-71908200D02*
X144830357Y-71955819D01*
X144830357Y-71955819D02*
X144735119Y-71955819D01*
X144735119Y-71955819D02*
X144592262Y-71908200D01*
X144592262Y-71908200D02*
X144497024Y-71812961D01*
X144497024Y-71812961D02*
X144449405Y-71717723D01*
X144449405Y-71717723D02*
X144401786Y-71527247D01*
X144401786Y-71527247D02*
X144401786Y-71384390D01*
X144401786Y-71384390D02*
X144449405Y-71193914D01*
X144449405Y-71193914D02*
X144497024Y-71098676D01*
X144497024Y-71098676D02*
X144592262Y-71003438D01*
X144592262Y-71003438D02*
X144735119Y-70955819D01*
X144735119Y-70955819D02*
X144830357Y-70955819D01*
X144830357Y-70955819D02*
X144973214Y-71003438D01*
X144973214Y-71003438D02*
X145020833Y-71051057D01*
X145354167Y-70955819D02*
X146020833Y-70955819D01*
X146020833Y-70955819D02*
X145592262Y-71955819D01*
X145871833Y-75407580D02*
X145824214Y-75455200D01*
X145824214Y-75455200D02*
X145681357Y-75502819D01*
X145681357Y-75502819D02*
X145586119Y-75502819D01*
X145586119Y-75502819D02*
X145443262Y-75455200D01*
X145443262Y-75455200D02*
X145348024Y-75359961D01*
X145348024Y-75359961D02*
X145300405Y-75264723D01*
X145300405Y-75264723D02*
X145252786Y-75074247D01*
X145252786Y-75074247D02*
X145252786Y-74931390D01*
X145252786Y-74931390D02*
X145300405Y-74740914D01*
X145300405Y-74740914D02*
X145348024Y-74645676D01*
X145348024Y-74645676D02*
X145443262Y-74550438D01*
X145443262Y-74550438D02*
X145586119Y-74502819D01*
X145586119Y-74502819D02*
X145681357Y-74502819D01*
X145681357Y-74502819D02*
X145824214Y-74550438D01*
X145824214Y-74550438D02*
X145871833Y-74598057D01*
X146728976Y-74502819D02*
X146538500Y-74502819D01*
X146538500Y-74502819D02*
X146443262Y-74550438D01*
X146443262Y-74550438D02*
X146395643Y-74598057D01*
X146395643Y-74598057D02*
X146300405Y-74740914D01*
X146300405Y-74740914D02*
X146252786Y-74931390D01*
X146252786Y-74931390D02*
X146252786Y-75312342D01*
X146252786Y-75312342D02*
X146300405Y-75407580D01*
X146300405Y-75407580D02*
X146348024Y-75455200D01*
X146348024Y-75455200D02*
X146443262Y-75502819D01*
X146443262Y-75502819D02*
X146633738Y-75502819D01*
X146633738Y-75502819D02*
X146728976Y-75455200D01*
X146728976Y-75455200D02*
X146776595Y-75407580D01*
X146776595Y-75407580D02*
X146824214Y-75312342D01*
X146824214Y-75312342D02*
X146824214Y-75074247D01*
X146824214Y-75074247D02*
X146776595Y-74979009D01*
X146776595Y-74979009D02*
X146728976Y-74931390D01*
X146728976Y-74931390D02*
X146633738Y-74883771D01*
X146633738Y-74883771D02*
X146443262Y-74883771D01*
X146443262Y-74883771D02*
X146348024Y-74931390D01*
X146348024Y-74931390D02*
X146300405Y-74979009D01*
X146300405Y-74979009D02*
X146252786Y-75074247D01*
X145871833Y-73694580D02*
X145824214Y-73742200D01*
X145824214Y-73742200D02*
X145681357Y-73789819D01*
X145681357Y-73789819D02*
X145586119Y-73789819D01*
X145586119Y-73789819D02*
X145443262Y-73742200D01*
X145443262Y-73742200D02*
X145348024Y-73646961D01*
X145348024Y-73646961D02*
X145300405Y-73551723D01*
X145300405Y-73551723D02*
X145252786Y-73361247D01*
X145252786Y-73361247D02*
X145252786Y-73218390D01*
X145252786Y-73218390D02*
X145300405Y-73027914D01*
X145300405Y-73027914D02*
X145348024Y-72932676D01*
X145348024Y-72932676D02*
X145443262Y-72837438D01*
X145443262Y-72837438D02*
X145586119Y-72789819D01*
X145586119Y-72789819D02*
X145681357Y-72789819D01*
X145681357Y-72789819D02*
X145824214Y-72837438D01*
X145824214Y-72837438D02*
X145871833Y-72885057D01*
X146776595Y-72789819D02*
X146300405Y-72789819D01*
X146300405Y-72789819D02*
X146252786Y-73266009D01*
X146252786Y-73266009D02*
X146300405Y-73218390D01*
X146300405Y-73218390D02*
X146395643Y-73170771D01*
X146395643Y-73170771D02*
X146633738Y-73170771D01*
X146633738Y-73170771D02*
X146728976Y-73218390D01*
X146728976Y-73218390D02*
X146776595Y-73266009D01*
X146776595Y-73266009D02*
X146824214Y-73361247D01*
X146824214Y-73361247D02*
X146824214Y-73599342D01*
X146824214Y-73599342D02*
X146776595Y-73694580D01*
X146776595Y-73694580D02*
X146728976Y-73742200D01*
X146728976Y-73742200D02*
X146633738Y-73789819D01*
X146633738Y-73789819D02*
X146395643Y-73789819D01*
X146395643Y-73789819D02*
X146300405Y-73742200D01*
X146300405Y-73742200D02*
X146252786Y-73694580D01*
X145248333Y-82782580D02*
X145200714Y-82830200D01*
X145200714Y-82830200D02*
X145057857Y-82877819D01*
X145057857Y-82877819D02*
X144962619Y-82877819D01*
X144962619Y-82877819D02*
X144819762Y-82830200D01*
X144819762Y-82830200D02*
X144724524Y-82734961D01*
X144724524Y-82734961D02*
X144676905Y-82639723D01*
X144676905Y-82639723D02*
X144629286Y-82449247D01*
X144629286Y-82449247D02*
X144629286Y-82306390D01*
X144629286Y-82306390D02*
X144676905Y-82115914D01*
X144676905Y-82115914D02*
X144724524Y-82020676D01*
X144724524Y-82020676D02*
X144819762Y-81925438D01*
X144819762Y-81925438D02*
X144962619Y-81877819D01*
X144962619Y-81877819D02*
X145057857Y-81877819D01*
X145057857Y-81877819D02*
X145200714Y-81925438D01*
X145200714Y-81925438D02*
X145248333Y-81973057D01*
X146105476Y-82211152D02*
X146105476Y-82877819D01*
X145867381Y-81830200D02*
X145629286Y-82544485D01*
X145629286Y-82544485D02*
X146248333Y-82544485D01*
X133692580Y-80736165D02*
X133740200Y-80783784D01*
X133740200Y-80783784D02*
X133787819Y-80926641D01*
X133787819Y-80926641D02*
X133787819Y-81021879D01*
X133787819Y-81021879D02*
X133740200Y-81164736D01*
X133740200Y-81164736D02*
X133644961Y-81259974D01*
X133644961Y-81259974D02*
X133549723Y-81307593D01*
X133549723Y-81307593D02*
X133359247Y-81355212D01*
X133359247Y-81355212D02*
X133216390Y-81355212D01*
X133216390Y-81355212D02*
X133025914Y-81307593D01*
X133025914Y-81307593D02*
X132930676Y-81259974D01*
X132930676Y-81259974D02*
X132835438Y-81164736D01*
X132835438Y-81164736D02*
X132787819Y-81021879D01*
X132787819Y-81021879D02*
X132787819Y-80926641D01*
X132787819Y-80926641D02*
X132835438Y-80783784D01*
X132835438Y-80783784D02*
X132883057Y-80736165D01*
X132787819Y-80402831D02*
X132787819Y-79783784D01*
X132787819Y-79783784D02*
X133168771Y-80117117D01*
X133168771Y-80117117D02*
X133168771Y-79974260D01*
X133168771Y-79974260D02*
X133216390Y-79879022D01*
X133216390Y-79879022D02*
X133264009Y-79831403D01*
X133264009Y-79831403D02*
X133359247Y-79783784D01*
X133359247Y-79783784D02*
X133597342Y-79783784D01*
X133597342Y-79783784D02*
X133692580Y-79831403D01*
X133692580Y-79831403D02*
X133740200Y-79879022D01*
X133740200Y-79879022D02*
X133787819Y-79974260D01*
X133787819Y-79974260D02*
X133787819Y-80259974D01*
X133787819Y-80259974D02*
X133740200Y-80355212D01*
X133740200Y-80355212D02*
X133692580Y-80402831D01*
X153884333Y-79201579D02*
X153836714Y-79249199D01*
X153836714Y-79249199D02*
X153693857Y-79296818D01*
X153693857Y-79296818D02*
X153598619Y-79296818D01*
X153598619Y-79296818D02*
X153455762Y-79249199D01*
X153455762Y-79249199D02*
X153360524Y-79153960D01*
X153360524Y-79153960D02*
X153312905Y-79058722D01*
X153312905Y-79058722D02*
X153265286Y-78868246D01*
X153265286Y-78868246D02*
X153265286Y-78725389D01*
X153265286Y-78725389D02*
X153312905Y-78534913D01*
X153312905Y-78534913D02*
X153360524Y-78439675D01*
X153360524Y-78439675D02*
X153455762Y-78344437D01*
X153455762Y-78344437D02*
X153598619Y-78296818D01*
X153598619Y-78296818D02*
X153693857Y-78296818D01*
X153693857Y-78296818D02*
X153836714Y-78344437D01*
X153836714Y-78344437D02*
X153884333Y-78392056D01*
X154265286Y-78392056D02*
X154312905Y-78344437D01*
X154312905Y-78344437D02*
X154408143Y-78296818D01*
X154408143Y-78296818D02*
X154646238Y-78296818D01*
X154646238Y-78296818D02*
X154741476Y-78344437D01*
X154741476Y-78344437D02*
X154789095Y-78392056D01*
X154789095Y-78392056D02*
X154836714Y-78487294D01*
X154836714Y-78487294D02*
X154836714Y-78582532D01*
X154836714Y-78582532D02*
X154789095Y-78725389D01*
X154789095Y-78725389D02*
X154217667Y-79296818D01*
X154217667Y-79296818D02*
X154836714Y-79296818D01*
X129500333Y-79201579D02*
X129452714Y-79249199D01*
X129452714Y-79249199D02*
X129309857Y-79296818D01*
X129309857Y-79296818D02*
X129214619Y-79296818D01*
X129214619Y-79296818D02*
X129071762Y-79249199D01*
X129071762Y-79249199D02*
X128976524Y-79153960D01*
X128976524Y-79153960D02*
X128928905Y-79058722D01*
X128928905Y-79058722D02*
X128881286Y-78868246D01*
X128881286Y-78868246D02*
X128881286Y-78725389D01*
X128881286Y-78725389D02*
X128928905Y-78534913D01*
X128928905Y-78534913D02*
X128976524Y-78439675D01*
X128976524Y-78439675D02*
X129071762Y-78344437D01*
X129071762Y-78344437D02*
X129214619Y-78296818D01*
X129214619Y-78296818D02*
X129309857Y-78296818D01*
X129309857Y-78296818D02*
X129452714Y-78344437D01*
X129452714Y-78344437D02*
X129500333Y-78392056D01*
X130452714Y-79296818D02*
X129881286Y-79296818D01*
X130167000Y-79296818D02*
X130167000Y-78296818D01*
X130167000Y-78296818D02*
X130071762Y-78439675D01*
X130071762Y-78439675D02*
X129976524Y-78534913D01*
X129976524Y-78534913D02*
X129881286Y-78582532D01*
D13*
%TO.C,U1*%
G36*
X141228699Y-77944599D02*
G01*
X140847699Y-77944599D01*
X140847699Y-77690599D01*
X141228699Y-77690599D01*
X141228699Y-77944599D01*
G37*
D14*
X138912600Y-81627599D02*
X139616561Y-81627599D01*
X142163800Y-81627599D02*
X142163800Y-80923638D01*
X142163800Y-78376399D02*
X141459839Y-78376399D01*
X138912600Y-78376399D02*
X138912600Y-79080360D01*
X138912600Y-80923638D02*
X138912600Y-81627599D01*
X141459839Y-81627599D02*
X142163800Y-81627599D01*
X142163800Y-79080360D02*
X142163800Y-78376399D01*
X139616561Y-78376399D02*
X138912600Y-78376399D01*
D15*
%TO.C,L1*%
X149354000Y-78955732D02*
X149354000Y-79298266D01*
X148334000Y-78955732D02*
X148334000Y-79298266D01*
%TO.C,J4*%
X138241000Y-68774000D02*
X138241000Y-70104000D01*
X136911000Y-68774000D02*
X138241000Y-68774000D01*
X135641000Y-68774000D02*
X133041000Y-68774000D01*
X135641000Y-68774000D02*
X135641000Y-71434000D01*
X133041000Y-68774000D02*
X133041000Y-71434000D01*
X135641000Y-71434000D02*
X133041000Y-71434000D01*
%TO.C,J3*%
X150174000Y-64837000D02*
X150174000Y-66167000D01*
X148844000Y-64837000D02*
X150174000Y-64837000D01*
X147574000Y-64837000D02*
X144974000Y-64837000D01*
X147574000Y-64837000D02*
X147574000Y-67497000D01*
X144974000Y-64837000D02*
X144974000Y-67497000D01*
X147574000Y-67497000D02*
X144974000Y-67497000D01*
D16*
%TO.C,J2*%
X161366200Y-88904699D02*
G75*
G02*
X160604200Y-88904699I-381000J0D01*
G01*
X160604200Y-88904699D02*
G75*
G02*
X161366200Y-88904699I381000J0D01*
G01*
%TO.C,J1*%
X124764800Y-71099299D02*
G75*
G02*
X124002800Y-71099299I-381000J0D01*
G01*
X124002800Y-71099299D02*
G75*
G02*
X124764800Y-71099299I381000J0D01*
G01*
D15*
%TO.C,C7*%
X147835233Y-70991000D02*
X148127767Y-70991000D01*
X147835233Y-72011000D02*
X148127767Y-72011000D01*
%TO.C,C6*%
X148160665Y-74570000D02*
X148392335Y-74570000D01*
X148160665Y-75290000D02*
X148392335Y-75290000D01*
%TO.C,C5*%
X148160665Y-72919000D02*
X148392335Y-72919000D01*
X148160665Y-73639000D02*
X148392335Y-73639000D01*
%TO.C,C4*%
X145182000Y-80685334D02*
X145182000Y-80453664D01*
X145902000Y-80685334D02*
X145902000Y-80453664D01*
%TO.C,C3*%
X134133000Y-80685334D02*
X134133000Y-80453664D01*
X134853000Y-80685334D02*
X134853000Y-80453664D01*
%TO.C,C2*%
X153935165Y-79641999D02*
X154166835Y-79641999D01*
X153935165Y-80361999D02*
X154166835Y-80361999D01*
%TO.C,C1*%
X129551165Y-79641999D02*
X129782835Y-79641999D01*
X129551165Y-80361999D02*
X129782835Y-80361999D01*
%TD*%
M02*
