%TF.GenerationSoftware,KiCad,Pcbnew,8.0.4*%
%TF.CreationDate,2025-12-21T00:45:38-08:00*%
%TF.ProjectId,PLL-Driver,504c4c2d-4472-4697-9665-722e6b696361,rev?*%
%TF.SameCoordinates,Original*%
%TF.FileFunction,Paste,Top*%
%TF.FilePolarity,Positive*%
%FSLAX46Y46*%
G04 Gerber Fmt 4.6, Leading zero omitted, Abs format (unit mm)*
G04 Created by KiCad (PCBNEW 8.0.4) date 2025-12-21 00:45:38*
%MOMM*%
%LPD*%
G01*
G04 APERTURE LIST*
G04 Aperture macros list*
%AMRoundRect*
0 Rectangle with rounded corners*
0 $1 Rounding radius*
0 $2 $3 $4 $5 $6 $7 $8 $9 X,Y pos of 4 corners*
0 Add a 4 corners polygon primitive as box body*
4,1,4,$2,$3,$4,$5,$6,$7,$8,$9,$2,$3,0*
0 Add four circle primitives for the rounded corners*
1,1,$1+$1,$2,$3*
1,1,$1+$1,$4,$5*
1,1,$1+$1,$6,$7*
1,1,$1+$1,$8,$9*
0 Add four rect primitives between the rounded corners*
20,1,$1+$1,$2,$3,$4,$5,0*
20,1,$1+$1,$4,$5,$6,$7,0*
20,1,$1+$1,$6,$7,$8,$9,0*
20,1,$1+$1,$8,$9,$2,$3,0*%
G04 Aperture macros list end*
%ADD10R,0.711200X0.177800*%
%ADD11R,0.177800X0.711200*%
%ADD12R,1.447800X1.447800*%
%ADD13RoundRect,0.237500X-0.237500X0.287500X-0.237500X-0.287500X0.237500X-0.287500X0.237500X0.287500X0*%
%ADD14R,0.127000X0.127000*%
%ADD15R,5.003800X5.994400*%
%ADD16R,5.003800X0.482600*%
%ADD17RoundRect,0.237500X-0.300000X-0.237500X0.300000X-0.237500X0.300000X0.237500X-0.300000X0.237500X0*%
%ADD18RoundRect,0.155000X-0.212500X-0.155000X0.212500X-0.155000X0.212500X0.155000X-0.212500X0.155000X0*%
%ADD19RoundRect,0.155000X0.155000X-0.212500X0.155000X0.212500X-0.155000X0.212500X-0.155000X-0.212500X0*%
G04 APERTURE END LIST*
D10*
%TO.C,U1*%
X139090400Y-79502000D03*
X139090400Y-80001999D03*
X139090400Y-80501998D03*
D11*
X140038201Y-81449799D03*
X140538200Y-81449799D03*
X141038199Y-81449799D03*
D10*
X141986000Y-80501998D03*
X141986000Y-80001999D03*
X141986000Y-79502000D03*
D11*
X141038199Y-78554199D03*
X140538200Y-78554199D03*
X140038201Y-78554199D03*
D12*
X140538200Y-80001999D03*
%TD*%
D13*
%TO.C,L1*%
X148844000Y-78251999D03*
X148844000Y-80001999D03*
%TD*%
D14*
%TO.C,J2*%
X160985200Y-77461999D03*
X160985200Y-82541999D03*
D15*
X160980378Y-76002313D03*
D14*
X160985200Y-77461999D03*
X160985200Y-82541999D03*
D15*
X160985200Y-84002499D03*
D16*
X160985200Y-80001999D03*
%TD*%
%TO.C,J1*%
X124383800Y-80001999D03*
D15*
X124383800Y-76001499D03*
D14*
X124383800Y-77461999D03*
X124383800Y-82541999D03*
D15*
X124388622Y-84001685D03*
D14*
X124383800Y-77461999D03*
X124383800Y-82541999D03*
%TD*%
D17*
%TO.C,C7*%
X147119000Y-71501000D03*
X148844000Y-71501000D03*
%TD*%
D18*
%TO.C,C6*%
X147709000Y-74930000D03*
X148844000Y-74930000D03*
%TD*%
%TO.C,C5*%
X147709000Y-73279000D03*
X148844000Y-73279000D03*
%TD*%
D19*
%TO.C,C4*%
X145542000Y-81136999D03*
X145542000Y-80001999D03*
%TD*%
%TO.C,C3*%
X134493000Y-81136999D03*
X134493000Y-80001999D03*
%TD*%
D18*
%TO.C,C2*%
X153483500Y-80001999D03*
X154618500Y-80001999D03*
%TD*%
%TO.C,C1*%
X129099500Y-80001999D03*
X130234500Y-80001999D03*
%TD*%
M02*
