%TF.GenerationSoftware,KiCad,Pcbnew,8.0.4*%
%TF.CreationDate,2025-12-21T10:28:18-08:00*%
%TF.ProjectId,Power_Amplifier,506f7765-725f-4416-9d70-6c6966696572,rev?*%
%TF.SameCoordinates,Original*%
%TF.FileFunction,Soldermask,Top*%
%TF.FilePolarity,Negative*%
%FSLAX46Y46*%
G04 Gerber Fmt 4.6, Leading zero omitted, Abs format (unit mm)*
G04 Created by KiCad (PCBNEW 8.0.4) date 2025-12-21 10:28:18*
%MOMM*%
%LPD*%
G01*
G04 APERTURE LIST*
G04 Aperture macros list*
%AMRoundRect*
0 Rectangle with rounded corners*
0 $1 Rounding radius*
0 $2 $3 $4 $5 $6 $7 $8 $9 X,Y pos of 4 corners*
0 Add a 4 corners polygon primitive as box body*
4,1,4,$2,$3,$4,$5,$6,$7,$8,$9,$2,$3,0*
0 Add four circle primitives for the rounded corners*
1,1,$1+$1,$2,$3*
1,1,$1+$1,$4,$5*
1,1,$1+$1,$6,$7*
1,1,$1+$1,$8,$9*
0 Add four rect primitives between the rounded corners*
20,1,$1+$1,$2,$3,$4,$5,0*
20,1,$1+$1,$4,$5,$6,$7,0*
20,1,$1+$1,$6,$7,$8,$9,0*
20,1,$1+$1,$8,$9,$2,$3,0*%
G04 Aperture macros list end*
%ADD10R,5.003800X0.482600*%
%ADD11R,5.003800X5.994400*%
%ADD12R,0.127000X0.127000*%
%ADD13RoundRect,0.160000X-0.197500X-0.160000X0.197500X-0.160000X0.197500X0.160000X-0.197500X0.160000X0*%
%ADD14R,1.700000X1.700000*%
%ADD15O,1.700000X1.700000*%
%ADD16RoundRect,0.155000X-0.212500X-0.155000X0.212500X-0.155000X0.212500X0.155000X-0.212500X0.155000X0*%
%ADD17RoundRect,0.160000X-0.160000X0.197500X-0.160000X-0.197500X0.160000X-0.197500X0.160000X0.197500X0*%
%ADD18R,3.600000X3.600000*%
%ADD19R,0.300000X0.850000*%
%ADD20R,0.850000X0.300000*%
%ADD21RoundRect,0.155000X0.212500X0.155000X-0.212500X0.155000X-0.212500X-0.155000X0.212500X-0.155000X0*%
%ADD22RoundRect,0.160000X-0.222500X-0.160000X0.222500X-0.160000X0.222500X0.160000X-0.222500X0.160000X0*%
%ADD23RoundRect,0.250000X0.325000X0.650000X-0.325000X0.650000X-0.325000X-0.650000X0.325000X-0.650000X0*%
%ADD24RoundRect,0.160000X0.197500X0.160000X-0.197500X0.160000X-0.197500X-0.160000X0.197500X-0.160000X0*%
G04 APERTURE END LIST*
D10*
%TO.C,J8*%
X147497800Y-66713100D03*
D11*
X147497800Y-70713600D03*
D12*
X147497800Y-69253100D03*
X147497800Y-64173100D03*
D11*
X147492978Y-62713414D03*
D12*
X147497800Y-69253100D03*
X147497800Y-64173100D03*
%TD*%
%TO.C,J1*%
X96545400Y-69253400D03*
X96545400Y-64173400D03*
D11*
X96550222Y-70713086D03*
D12*
X96545400Y-69253400D03*
X96545400Y-64173400D03*
D11*
X96545400Y-62712900D03*
D10*
X96545400Y-66713400D03*
%TD*%
D13*
%TO.C,R4*%
X109295000Y-78613000D03*
X110490000Y-78613000D03*
%TD*%
D14*
%TO.C,J7*%
X142082600Y-80721200D03*
D15*
X144622600Y-80721200D03*
%TD*%
D16*
%TO.C,C15*%
X110930500Y-74549000D03*
X112065500Y-74549000D03*
%TD*%
%TO.C,C9*%
X109922500Y-61595000D03*
X111057500Y-61595000D03*
%TD*%
D17*
%TO.C,R1*%
X128524000Y-72300500D03*
X128524000Y-73495500D03*
%TD*%
D16*
%TO.C,C1*%
X109922500Y-60325000D03*
X111057500Y-60325000D03*
%TD*%
D18*
%TO.C,IC1*%
X115529600Y-66963400D03*
D19*
X113779600Y-64513400D03*
X114279600Y-64513400D03*
X114779600Y-64513400D03*
X115279600Y-64513400D03*
X115779600Y-64513400D03*
X116279600Y-64513400D03*
X116779600Y-64513400D03*
X117279600Y-64513400D03*
D20*
X117979600Y-65213400D03*
X117979600Y-65713400D03*
X117979600Y-66213400D03*
X117979600Y-66713400D03*
X117979600Y-67213400D03*
X117979600Y-67713400D03*
X117979600Y-68213400D03*
X117979600Y-68713400D03*
D19*
X117279600Y-69413400D03*
X116779600Y-69413400D03*
X116279600Y-69413400D03*
X115779600Y-69413400D03*
X115279600Y-69413400D03*
X114779600Y-69413400D03*
X114279600Y-69413400D03*
X113779600Y-69413400D03*
D20*
X113079600Y-68713400D03*
X113079600Y-68213400D03*
X113079600Y-67713400D03*
X113079600Y-67213400D03*
X113079600Y-66713400D03*
X113079600Y-66213400D03*
X113079600Y-65713400D03*
X113079600Y-65213400D03*
%TD*%
D16*
%TO.C,C10*%
X113351500Y-60325000D03*
X114486500Y-60325000D03*
%TD*%
D14*
%TO.C,J3*%
X115016200Y-83261200D03*
D15*
X112476200Y-83261200D03*
%TD*%
D14*
%TO.C,J5*%
X129443400Y-86563200D03*
D15*
X126903400Y-86563200D03*
%TD*%
D21*
%TO.C,C18*%
X130742500Y-82296000D03*
X129607500Y-82296000D03*
%TD*%
%TO.C,C3*%
X119126000Y-58801000D03*
X117991000Y-58801000D03*
%TD*%
D16*
%TO.C,C2*%
X113351500Y-61595000D03*
X114486500Y-61595000D03*
%TD*%
D22*
%TO.C,L1*%
X111695500Y-57277000D03*
X112840500Y-57277000D03*
%TD*%
D23*
%TO.C,C17*%
X121617000Y-54610000D03*
X118667000Y-54610000D03*
%TD*%
D21*
%TO.C,C12*%
X123317000Y-75311000D03*
X122182000Y-75311000D03*
%TD*%
%TO.C,C4*%
X123317000Y-76581000D03*
X122182000Y-76581000D03*
%TD*%
%TO.C,C13*%
X118618000Y-75057000D03*
X117483000Y-75057000D03*
%TD*%
D16*
%TO.C,C16*%
X105283000Y-73787000D03*
X106418000Y-73787000D03*
%TD*%
D22*
%TO.C,L2*%
X114870500Y-57277000D03*
X116015500Y-57277000D03*
%TD*%
D16*
%TO.C,C8*%
X105283000Y-72263000D03*
X106418000Y-72263000D03*
%TD*%
D13*
%TO.C,R3*%
X113956500Y-78613000D03*
X115151500Y-78613000D03*
%TD*%
D21*
%TO.C,C20*%
X137727500Y-77470000D03*
X136592500Y-77470000D03*
%TD*%
D14*
%TO.C,J2*%
X112577800Y-53289200D03*
D15*
X110037800Y-53289200D03*
%TD*%
D21*
%TO.C,C5*%
X118618000Y-76327000D03*
X117483000Y-76327000D03*
%TD*%
D16*
%TO.C,C7*%
X110930500Y-73279000D03*
X112065500Y-73279000D03*
%TD*%
%TO.C,C6*%
X114240500Y-74295000D03*
X115375500Y-74295000D03*
%TD*%
D14*
%TO.C,J4*%
X122687000Y-83312000D03*
D15*
X120147000Y-83312000D03*
%TD*%
D24*
%TO.C,R2*%
X130264500Y-75565000D03*
X129069500Y-75565000D03*
%TD*%
D16*
%TO.C,C11*%
X117966500Y-60263000D03*
X119101500Y-60263000D03*
%TD*%
%TO.C,C14*%
X114240500Y-75565000D03*
X115375500Y-75565000D03*
%TD*%
D21*
%TO.C,C19*%
X134882700Y-83464400D03*
X133747700Y-83464400D03*
%TD*%
D14*
%TO.C,J6*%
X136139000Y-86563200D03*
D15*
X138679000Y-86563200D03*
%TD*%
M02*
