M48
; DRILL file {KiCad 8.0.4} date 2025-12-21T10:28:16-0800
; FORMAT={-:-/ absolute / inch / decimal}
; #@! TF.CreationDate,2025-12-21T10:28:16-08:00
; #@! TF.GenerationSoftware,Kicad,Pcbnew,8.0.4
; #@! TF.FileFunction,Plated,1,4,PTH
FMAT,2
INCH
; #@! TA.AperFunction,Plated,PTH,ViaDrill
T1C0.0100
; #@! TA.AperFunction,Plated,PTH,ComponentDrill
T2C0.0394
%
G90
G05
T1
X3.7595Y-2.12
X3.7595Y-2.1755
X3.7595Y-2.231
X3.7595Y-2.2865
X3.7595Y-2.9524
X3.7595Y-3.0079
X3.7595Y-3.0634
X3.7595Y-3.1189
X3.7595Y-3.1744
X3.7595Y-3.2299
X3.7595Y-3.2854
X3.7595Y-3.3409
X3.7595Y-3.3964
X3.7595Y-3.4519
X3.813Y-2.695
X3.815Y-2.12
X3.815Y-2.1755
X3.815Y-2.231
X3.815Y-2.2865
X3.815Y-2.9524
X3.815Y-3.0079
X3.815Y-3.0634
X3.815Y-3.1189
X3.815Y-3.1744
X3.815Y-3.2299
X3.815Y-3.2854
X3.815Y-3.3409
X3.815Y-3.3964
X3.815Y-3.4519
X3.818Y-2.56
X3.8308Y-2.725
X3.8312Y-2.5871
X3.8312Y-2.6659
X3.8375Y-2.53
X3.8425Y-2.695
X3.8475Y-2.56
X3.8603Y-2.725
X3.8608Y-2.5871
X3.8608Y-2.6659
X3.8671Y-2.53
X3.8705Y-2.12
X3.8705Y-2.1755
X3.8705Y-2.231
X3.8705Y-2.2865
X3.8705Y-2.9524
X3.8705Y-3.0079
X3.8705Y-3.0634
X3.8705Y-3.1189
X3.8705Y-3.1744
X3.8705Y-3.2299
X3.8705Y-3.2854
X3.8705Y-3.3409
X3.8705Y-3.3964
X3.8705Y-3.4519
X3.8721Y-2.695
X3.8771Y-2.56
X3.8899Y-2.725
X3.8904Y-2.5871
X3.8904Y-2.6659
X3.8966Y-2.53
X3.9016Y-2.695
X3.9066Y-2.56
X3.9194Y-2.725
X3.9199Y-2.5871
X3.9199Y-2.6659
X3.926Y-2.12
X3.926Y-2.1755
X3.926Y-2.231
X3.926Y-2.2865
X3.926Y-2.9524
X3.926Y-3.0079
X3.926Y-3.0634
X3.926Y-3.1189
X3.926Y-3.1744
X3.926Y-3.2299
X3.926Y-3.2854
X3.926Y-3.3409
X3.926Y-3.3964
X3.926Y-3.4519
X3.9262Y-2.53
X3.9312Y-2.695
X3.9362Y-2.56
X3.949Y-2.725
X3.9495Y-2.5871
X3.9495Y-2.6659
X3.9558Y-2.53
X3.9608Y-2.695
X3.9658Y-2.56
X3.9785Y-2.725
X3.979Y-2.5871
X3.979Y-2.6659
X3.9815Y-2.12
X3.9815Y-2.1755
X3.9815Y-2.231
X3.9815Y-2.2865
X3.9815Y-2.342
X3.9815Y-2.3975
X3.9815Y-2.453
X3.9815Y-2.8415
X3.9815Y-2.897
X3.9815Y-2.9524
X3.9815Y-3.0079
X3.9815Y-3.0634
X3.9815Y-3.1189
X3.9815Y-3.1744
X3.9815Y-3.2299
X3.9815Y-3.2854
X3.9815Y-3.3409
X3.9815Y-3.3964
X3.9815Y-3.4519
X3.9853Y-2.53
X3.9903Y-2.695
X3.9953Y-2.56
X4.0081Y-2.725
X4.0086Y-2.5871
X4.0086Y-2.6659
X4.0149Y-2.53
X4.0199Y-2.695
X4.0249Y-2.56
X4.0369Y-2.12
X4.0369Y-2.1755
X4.0369Y-2.231
X4.0369Y-2.2865
X4.0369Y-2.342
X4.0369Y-2.3975
X4.0369Y-2.453
X4.0369Y-2.8415
X4.0369Y-2.897
X4.0369Y-2.9524
X4.0369Y-3.0079
X4.0369Y-3.0634
X4.0369Y-3.1189
X4.0369Y-3.1744
X4.0369Y-3.2299
X4.0369Y-3.2854
X4.0369Y-3.3409
X4.0369Y-3.3964
X4.0369Y-3.4519
X4.0377Y-2.725
X4.0381Y-2.5871
X4.0381Y-2.6659
X4.0444Y-2.53
X4.0494Y-2.695
X4.0544Y-2.56
X4.0672Y-2.725
X4.0677Y-2.5871
X4.0677Y-2.6659
X4.074Y-2.53
X4.079Y-2.695
X4.084Y-2.56
X4.0924Y-2.12
X4.0924Y-2.1755
X4.0924Y-2.231
X4.0924Y-2.2865
X4.0924Y-2.342
X4.0924Y-2.3975
X4.0924Y-2.453
X4.0924Y-3.0079
X4.0924Y-3.0634
X4.0924Y-3.1189
X4.0924Y-3.1744
X4.0924Y-3.2299
X4.0924Y-3.2854
X4.0924Y-3.3409
X4.0924Y-3.3964
X4.0924Y-3.4519
X4.0968Y-2.725
X4.0973Y-2.5871
X4.0973Y-2.6659
X4.1035Y-2.53
X4.1085Y-2.695
X4.1135Y-2.56
X4.12Y-2.845
X4.12Y-2.905
X4.1263Y-2.725
X4.1268Y-2.5871
X4.1268Y-2.6659
X4.1331Y-2.53
X4.1381Y-2.695
X4.1431Y-2.56
X4.1479Y-2.12
X4.1479Y-2.1755
X4.1479Y-2.231
X4.1479Y-2.2865
X4.1479Y-2.342
X4.1479Y-2.3975
X4.1479Y-2.453
X4.1479Y-3.0634
X4.1479Y-3.1189
X4.1479Y-3.1744
X4.1479Y-3.2299
X4.1479Y-3.2854
X4.1479Y-3.3409
X4.1479Y-3.3964
X4.1479Y-3.4519
X4.1559Y-2.725
X4.1564Y-2.5871
X4.1564Y-2.6659
X4.1627Y-2.53
X4.1677Y-2.695
X4.1727Y-2.56
X4.1854Y-2.725
X4.1859Y-2.5871
X4.1859Y-2.6659
X4.1922Y-2.53
X4.1972Y-2.695
X4.2022Y-2.56
X4.2034Y-2.12
X4.2034Y-2.1755
X4.2034Y-2.231
X4.2034Y-2.2865
X4.2034Y-2.342
X4.2034Y-2.3975
X4.2034Y-2.453
X4.2034Y-3.1189
X4.2034Y-3.1744
X4.2034Y-3.2299
X4.2034Y-3.2854
X4.2034Y-3.3409
X4.2034Y-3.3964
X4.2034Y-3.4519
X4.215Y-2.725
X4.2155Y-2.5871
X4.2155Y-2.6659
X4.2218Y-2.53
X4.2268Y-2.695
X4.2318Y-2.56
X4.24Y-2.901
X4.2451Y-2.5871
X4.2451Y-2.6659
X4.2513Y-2.53
X4.2563Y-2.695
X4.2589Y-2.1755
X4.2589Y-2.231
X4.2589Y-2.2865
X4.2589Y-3.1744
X4.2589Y-3.2299
X4.2589Y-3.2854
X4.2589Y-3.3409
X4.2589Y-3.3964
X4.2589Y-3.4519
X4.2613Y-2.56
X4.2746Y-2.5871
X4.2746Y-2.6659
X4.2809Y-2.53
X4.2859Y-2.695
X4.2909Y-2.56
X4.3042Y-2.5871
X4.3042Y-2.6659
X4.305Y-2.375
X4.305Y-2.425
X4.305Y-3.01
X4.3104Y-2.53
X4.3144Y-2.1755
X4.3144Y-2.231
X4.3144Y-2.2865
X4.3144Y-3.1744
X4.3144Y-3.2299
X4.3144Y-3.2854
X4.3144Y-3.3409
X4.3144Y-3.3964
X4.3144Y-3.4519
X4.315Y-2.825
X4.3154Y-2.695
X4.3204Y-2.56
X4.3337Y-2.5871
X4.3337Y-2.6659
X4.34Y-2.53
X4.345Y-2.695
X4.345Y-2.885
X4.345Y-2.935
X4.35Y-2.56
X4.3633Y-2.5871
X4.3633Y-2.6659
X4.3696Y-2.53
X4.3699Y-2.1755
X4.3699Y-3.1744
X4.3699Y-3.3964
X4.3699Y-3.4519
X4.3746Y-2.695
X4.375Y-2.825
X4.3796Y-2.56
X4.3928Y-2.5871
X4.3928Y-2.6659
X4.3991Y-2.53
X4.4091Y-2.56
X4.4224Y-2.5871
X4.4224Y-2.6659
X4.4254Y-2.1755
X4.4254Y-3.1744
X4.4254Y-3.3964
X4.4254Y-3.4519
X4.44Y-2.375
X4.44Y-2.425
X4.44Y-2.775
X4.452Y-2.5871
X4.452Y-2.6659
X4.46Y-2.31
X4.465Y-2.54
X4.475Y-2.925
X4.475Y-2.975
X4.4809Y-2.1755
X4.4809Y-3.3964
X4.4809Y-3.4519
X4.495Y-2.58
X4.495Y-2.61
X4.495Y-2.645
X4.495Y-2.68
X4.53Y-2.58
X4.53Y-2.61
X4.53Y-2.645
X4.53Y-2.68
X4.5364Y-3.3964
X4.5364Y-3.4519
X4.565Y-2.58
X4.565Y-2.61
X4.565Y-2.645
X4.565Y-2.68
X4.57Y-2.32
X4.58Y-2.355
X4.58Y-2.39
X4.58Y-2.425
X4.5845Y-2.9528
X4.585Y-2.9
X4.5919Y-3.3964
X4.5919Y-3.4519
X4.6Y-2.58
X4.6Y-2.61
X4.6Y-2.645
X4.6Y-2.68
X4.6449Y-2.5871
X4.645Y-2.655
X4.6474Y-3.1189
X4.6474Y-3.1744
X4.6474Y-3.2299
X4.6474Y-3.2854
X4.6474Y-3.3409
X4.6474Y-3.3964
X4.6474Y-3.4519
X4.6749Y-2.5871
X4.68Y-2.885
X4.6899Y-2.56
X4.69Y-3.005
X4.695Y-2.955
X4.7029Y-3.1189
X4.7029Y-3.1744
X4.7029Y-3.3964
X4.7029Y-3.4519
X4.7049Y-2.53
X4.705Y-2.5871
X4.7137Y-2.3731
X4.715Y-2.315
X4.7199Y-2.56
X4.7349Y-2.53
X4.7351Y-2.5871
X4.75Y-2.56
X4.7584Y-2.231
X4.7584Y-2.453
X4.7584Y-3.3964
X4.7584Y-3.4519
X4.765Y-2.53
X4.7651Y-2.5871
X4.7801Y-2.56
X4.785Y-2.74
X4.7951Y-2.53
X4.7952Y-2.5871
X4.8101Y-2.56
X4.8139Y-2.2865
X4.8139Y-2.342
X4.8139Y-2.3975
X4.8139Y-2.453
X4.8139Y-3.3964
X4.8139Y-3.4519
X4.82Y-2.135
X4.82Y-2.165
X4.825Y-2.77
X4.8251Y-2.53
X4.8253Y-2.5871
X4.8402Y-2.56
X4.8552Y-2.53
X4.8553Y-2.5871
X4.86Y-2.8
X4.8694Y-2.2865
X4.8694Y-2.342
X4.8694Y-2.3975
X4.8694Y-2.453
X4.8694Y-3.3964
X4.8694Y-3.4519
X4.8703Y-2.56
X4.875Y-2.965
X4.875Y-3.015
X4.8853Y-2.53
X4.8854Y-2.5871
X4.895Y-2.83
X4.9003Y-2.56
X4.9153Y-2.53
X4.9155Y-2.5871
X4.9155Y-2.6659
X4.9249Y-2.12
X4.9249Y-2.1755
X4.9249Y-2.231
X4.9249Y-2.2865
X4.9249Y-2.342
X4.9249Y-2.3975
X4.9249Y-2.453
X4.9249Y-3.1189
X4.9249Y-3.1744
X4.9249Y-3.2299
X4.9249Y-3.2854
X4.9249Y-3.3409
X4.9304Y-2.56
X4.9454Y-2.53
X4.9455Y-2.5871
X4.9455Y-2.6659
X4.9605Y-2.56
X4.9649Y-2.695
X4.9755Y-2.53
X4.9756Y-2.5871
X4.9756Y-2.6659
X4.9804Y-2.12
X4.9804Y-2.1755
X4.9804Y-2.231
X4.9804Y-2.2865
X4.9804Y-2.342
X4.9804Y-2.3975
X4.9804Y-2.453
X4.9804Y-3.0079
X4.9804Y-3.0634
X4.9804Y-3.1189
X4.9804Y-3.1744
X4.9804Y-3.2299
X4.9804Y-3.2854
X4.9849Y-2.725
X4.9905Y-2.56
X4.995Y-2.695
X5.0055Y-2.53
X5.0057Y-2.5871
X5.0057Y-2.6659
X5.015Y-2.725
X5.0206Y-2.56
X5.0251Y-2.695
X5.0356Y-2.53
X5.0357Y-2.5871
X5.0357Y-2.6659
X5.0359Y-2.12
X5.0359Y-2.1755
X5.0359Y-2.231
X5.0359Y-2.2865
X5.0359Y-2.342
X5.0359Y-2.3975
X5.0359Y-2.453
X5.0451Y-2.725
X5.0507Y-2.56
X5.0551Y-2.695
X5.0657Y-2.53
X5.0658Y-2.5871
X5.0658Y-2.6659
X5.0751Y-2.725
X5.0807Y-2.56
X5.0852Y-2.695
X5.0914Y-2.12
X5.0914Y-2.1755
X5.0914Y-2.231
X5.0914Y-2.2865
X5.0914Y-2.342
X5.0914Y-2.3975
X5.0914Y-2.453
X5.0957Y-2.53
X5.0959Y-2.5871
X5.0959Y-2.6659
X5.1052Y-2.725
X5.1108Y-2.56
X5.1153Y-2.695
X5.1258Y-2.53
X5.126Y-2.5871
X5.126Y-2.6659
X5.13Y-3.075
X5.1353Y-2.725
X5.1409Y-2.56
X5.1453Y-2.695
X5.1469Y-2.12
X5.1469Y-2.1755
X5.1469Y-2.231
X5.1469Y-2.2865
X5.1469Y-2.342
X5.1469Y-2.3975
X5.1469Y-2.453
X5.15Y-3.155
X5.1559Y-2.53
X5.156Y-2.5871
X5.156Y-2.6659
X5.1653Y-2.725
X5.17Y-3.24
X5.171Y-2.56
X5.1754Y-2.695
X5.186Y-2.53
X5.1861Y-2.5871
X5.1861Y-2.6659
X5.1954Y-2.725
X5.201Y-2.56
X5.2024Y-2.12
X5.2024Y-2.1755
X5.2024Y-2.231
X5.2024Y-2.2865
X5.2024Y-2.342
X5.2024Y-2.3975
X5.2024Y-2.453
X5.2024Y-3.3964
X5.2024Y-3.4519
X5.2055Y-2.695
X5.206Y-2.926
X5.216Y-2.53
X5.2162Y-2.5871
X5.2162Y-2.6659
X5.2255Y-2.725
X5.2311Y-2.56
X5.2355Y-2.695
X5.243Y-3.286
X5.2461Y-2.53
X5.2462Y-2.5871
X5.2462Y-2.6659
X5.2555Y-2.725
X5.2579Y-2.12
X5.2579Y-2.1755
X5.2579Y-2.231
X5.2579Y-2.2865
X5.2579Y-2.342
X5.2579Y-2.3975
X5.2579Y-2.453
X5.2579Y-3.4519
X5.2612Y-2.56
X5.265Y-2.957
X5.2656Y-2.695
X5.2762Y-2.53
X5.2763Y-2.5871
X5.2763Y-2.6659
X5.2856Y-2.725
X5.2912Y-2.56
X5.292Y-3.012
X5.2957Y-2.695
X5.3Y-3.056
X5.3062Y-2.53
X5.3064Y-2.5871
X5.3064Y-2.6659
X5.3134Y-2.12
X5.3134Y-2.1755
X5.3134Y-2.231
X5.3134Y-2.2865
X5.3134Y-2.342
X5.3134Y-2.3975
X5.3134Y-2.453
X5.3157Y-2.725
X5.3213Y-2.56
X5.3257Y-2.695
X5.3363Y-2.53
X5.3364Y-2.5871
X5.3364Y-2.6659
X5.3457Y-2.725
X5.3514Y-2.56
X5.355Y-3.05
X5.3558Y-2.695
X5.3664Y-2.53
X5.3665Y-2.5871
X5.3665Y-2.6659
X5.3689Y-2.12
X5.3689Y-2.1755
X5.3689Y-2.231
X5.3689Y-2.2865
X5.3689Y-2.342
X5.3689Y-2.3975
X5.3689Y-2.453
X5.3689Y-3.1189
X5.3758Y-2.725
X5.3814Y-2.56
X5.3859Y-2.695
X5.3964Y-2.53
X5.3966Y-2.5871
X5.3966Y-2.6659
X5.4059Y-2.725
X5.4115Y-2.56
X5.416Y-2.695
X5.4244Y-2.12
X5.4244Y-2.1755
X5.4244Y-2.231
X5.4244Y-2.2865
X5.4244Y-2.342
X5.4244Y-2.3975
X5.4244Y-2.453
X5.4244Y-3.1744
X5.4244Y-3.2299
X5.4244Y-3.2854
X5.4265Y-2.53
X5.4266Y-2.5871
X5.4266Y-2.6659
X5.436Y-2.725
X5.4416Y-2.56
X5.446Y-2.695
X5.4566Y-2.53
X5.4567Y-2.5871
X5.4567Y-2.6659
X5.466Y-2.725
X5.4716Y-2.56
X5.4761Y-2.695
X5.4798Y-2.12
X5.4798Y-2.1755
X5.4798Y-2.231
X5.4798Y-2.2865
X5.4798Y-2.342
X5.4798Y-2.3975
X5.4798Y-2.453
X5.4798Y-2.8415
X5.4798Y-3.2299
X5.4798Y-3.2854
X5.4866Y-2.53
X5.4868Y-2.5871
X5.4868Y-2.6659
X5.4961Y-2.725
X5.5017Y-2.56
X5.5062Y-2.695
X5.5167Y-2.53
X5.5168Y-2.5871
X5.5168Y-2.6659
X5.5262Y-2.725
X5.5318Y-2.56
X5.5353Y-2.12
X5.5353Y-2.1755
X5.5353Y-2.231
X5.5353Y-2.2865
X5.5353Y-2.342
X5.5353Y-2.3975
X5.5353Y-2.453
X5.5353Y-2.8415
X5.5353Y-2.897
X5.5353Y-2.9524
X5.5353Y-3.0079
X5.5353Y-3.2854
X5.5353Y-3.3409
X5.5362Y-2.695
X5.5468Y-2.53
X5.5469Y-2.5871
X5.5469Y-2.6659
X5.5562Y-2.725
X5.5618Y-2.56
X5.5663Y-2.695
X5.5768Y-2.53
X5.577Y-2.5871
X5.577Y-2.6659
X5.5863Y-2.725
X5.5908Y-2.12
X5.5908Y-2.1755
X5.5908Y-2.231
X5.5908Y-2.2865
X5.5908Y-2.342
X5.5908Y-2.3975
X5.5908Y-2.453
X5.5908Y-2.8415
X5.5908Y-2.897
X5.5908Y-2.9524
X5.5908Y-3.0079
X5.5908Y-3.0634
X5.5908Y-3.2854
X5.5908Y-3.3409
X5.5908Y-3.3964
X5.5908Y-3.4519
X5.5919Y-2.56
X5.5964Y-2.695
X5.6069Y-2.53
X5.607Y-2.5871
X5.607Y-2.6659
X5.6164Y-2.725
X5.622Y-2.56
X5.6264Y-2.695
X5.637Y-2.53
X5.6371Y-2.5871
X5.6371Y-2.6659
X5.6463Y-2.12
X5.6463Y-2.1755
X5.6463Y-2.231
X5.6463Y-2.2865
X5.6463Y-2.342
X5.6463Y-2.3975
X5.6463Y-2.453
X5.6463Y-2.8415
X5.6463Y-2.897
X5.6463Y-2.9524
X5.6463Y-3.0079
X5.6463Y-3.0634
X5.6463Y-3.2854
X5.6463Y-3.3409
X5.6463Y-3.3964
X5.6463Y-3.4519
X5.6464Y-2.725
X5.652Y-2.56
X5.6565Y-2.695
X5.667Y-2.53
X5.6672Y-2.5871
X5.6672Y-2.6659
X5.6765Y-2.725
X5.6821Y-2.56
X5.6866Y-2.695
X5.6971Y-2.53
X5.6972Y-2.5871
X5.6972Y-2.6659
X5.7018Y-2.12
X5.7018Y-2.1755
X5.7018Y-2.231
X5.7018Y-2.2865
X5.7018Y-2.9524
X5.7018Y-3.0079
X5.7018Y-3.0634
X5.7018Y-3.2854
X5.7018Y-3.3409
X5.7018Y-3.3964
X5.7018Y-3.4519
X5.7066Y-2.725
X5.7122Y-2.56
X5.7166Y-2.695
X5.7272Y-2.53
X5.7273Y-2.5871
X5.7273Y-2.6659
X5.7366Y-2.725
X5.7422Y-2.56
X5.7467Y-2.695
X5.7572Y-2.53
X5.7573Y-2.12
X5.7573Y-2.1755
X5.7573Y-2.231
X5.7573Y-2.2865
X5.7573Y-2.9524
X5.7573Y-3.0079
X5.7573Y-3.0634
X5.7573Y-3.2854
X5.7573Y-3.3409
X5.7573Y-3.3964
X5.7573Y-3.4519
X5.7574Y-2.5871
X5.7574Y-2.6659
X5.7667Y-2.725
X5.7723Y-2.56
X5.7768Y-2.695
X5.7873Y-2.53
X5.7874Y-2.5871
X5.7874Y-2.6659
X5.7968Y-2.725
X5.8024Y-2.56
X5.8068Y-2.695
X5.8128Y-2.12
X5.8128Y-2.1755
X5.8128Y-2.231
X5.8128Y-2.2865
X5.8128Y-2.9524
X5.8128Y-3.0079
X5.8128Y-3.0634
X5.8128Y-3.1189
X5.8128Y-3.1744
X5.8128Y-3.2299
X5.8128Y-3.2854
X5.8128Y-3.3409
X5.8128Y-3.3964
X5.8128Y-3.4519
X5.8174Y-2.53
X5.8175Y-2.5871
X5.8175Y-2.6659
X5.8268Y-2.725
X5.8324Y-2.56
T2
X4.3322Y-2.098
X4.4282Y-3.278
X4.4322Y-2.098
X4.5282Y-3.278
X4.7302Y-3.28
X4.8302Y-3.28
X4.9962Y-3.408
X5.0962Y-3.408
X5.3598Y-3.408
X5.4598Y-3.408
X5.5938Y-3.178
X5.6938Y-3.178
M30
