%TF.GenerationSoftware,KiCad,Pcbnew,8.0.4*%
%TF.CreationDate,2025-12-21T10:28:18-08:00*%
%TF.ProjectId,Power_Amplifier,506f7765-725f-4416-9d70-6c6966696572,rev?*%
%TF.SameCoordinates,Original*%
%TF.FileFunction,Copper,L1,Top*%
%TF.FilePolarity,Positive*%
%FSLAX46Y46*%
G04 Gerber Fmt 4.6, Leading zero omitted, Abs format (unit mm)*
G04 Created by KiCad (PCBNEW 8.0.4) date 2025-12-21 10:28:18*
%MOMM*%
%LPD*%
G01*
G04 APERTURE LIST*
G04 Aperture macros list*
%AMRoundRect*
0 Rectangle with rounded corners*
0 $1 Rounding radius*
0 $2 $3 $4 $5 $6 $7 $8 $9 X,Y pos of 4 corners*
0 Add a 4 corners polygon primitive as box body*
4,1,4,$2,$3,$4,$5,$6,$7,$8,$9,$2,$3,0*
0 Add four circle primitives for the rounded corners*
1,1,$1+$1,$2,$3*
1,1,$1+$1,$4,$5*
1,1,$1+$1,$6,$7*
1,1,$1+$1,$8,$9*
0 Add four rect primitives between the rounded corners*
20,1,$1+$1,$2,$3,$4,$5,0*
20,1,$1+$1,$4,$5,$6,$7,0*
20,1,$1+$1,$6,$7,$8,$9,0*
20,1,$1+$1,$8,$9,$2,$3,0*%
G04 Aperture macros list end*
%TA.AperFunction,SMDPad,CuDef*%
%ADD10R,5.003800X0.482600*%
%TD*%
%TA.AperFunction,SMDPad,CuDef*%
%ADD11R,5.003800X5.994400*%
%TD*%
%TA.AperFunction,SMDPad,CuDef*%
%ADD12R,0.127000X0.127000*%
%TD*%
%TA.AperFunction,SMDPad,CuDef*%
%ADD13RoundRect,0.160000X-0.197500X-0.160000X0.197500X-0.160000X0.197500X0.160000X-0.197500X0.160000X0*%
%TD*%
%TA.AperFunction,ComponentPad*%
%ADD14R,1.700000X1.700000*%
%TD*%
%TA.AperFunction,ComponentPad*%
%ADD15O,1.700000X1.700000*%
%TD*%
%TA.AperFunction,SMDPad,CuDef*%
%ADD16RoundRect,0.155000X-0.212500X-0.155000X0.212500X-0.155000X0.212500X0.155000X-0.212500X0.155000X0*%
%TD*%
%TA.AperFunction,SMDPad,CuDef*%
%ADD17RoundRect,0.160000X-0.160000X0.197500X-0.160000X-0.197500X0.160000X-0.197500X0.160000X0.197500X0*%
%TD*%
%TA.AperFunction,SMDPad,CuDef*%
%ADD18R,3.600000X3.600000*%
%TD*%
%TA.AperFunction,SMDPad,CuDef*%
%ADD19R,0.300000X0.850000*%
%TD*%
%TA.AperFunction,SMDPad,CuDef*%
%ADD20R,0.850000X0.300000*%
%TD*%
%TA.AperFunction,SMDPad,CuDef*%
%ADD21RoundRect,0.155000X0.212500X0.155000X-0.212500X0.155000X-0.212500X-0.155000X0.212500X-0.155000X0*%
%TD*%
%TA.AperFunction,SMDPad,CuDef*%
%ADD22RoundRect,0.160000X-0.222500X-0.160000X0.222500X-0.160000X0.222500X0.160000X-0.222500X0.160000X0*%
%TD*%
%TA.AperFunction,SMDPad,CuDef*%
%ADD23RoundRect,0.250000X0.325000X0.650000X-0.325000X0.650000X-0.325000X-0.650000X0.325000X-0.650000X0*%
%TD*%
%TA.AperFunction,SMDPad,CuDef*%
%ADD24RoundRect,0.160000X0.197500X0.160000X-0.197500X0.160000X-0.197500X-0.160000X0.197500X-0.160000X0*%
%TD*%
%TA.AperFunction,ViaPad*%
%ADD25C,0.609600*%
%TD*%
%TA.AperFunction,Conductor*%
%ADD26C,0.889000*%
%TD*%
%TA.AperFunction,Conductor*%
%ADD27C,0.342900*%
%TD*%
%TA.AperFunction,Conductor*%
%ADD28C,0.340360*%
%TD*%
%TA.AperFunction,Conductor*%
%ADD29C,0.304800*%
%TD*%
%TA.AperFunction,Conductor*%
%ADD30C,0.508000*%
%TD*%
%TA.AperFunction,Conductor*%
%ADD31C,0.381000*%
%TD*%
%TA.AperFunction,Conductor*%
%ADD32C,0.762000*%
%TD*%
G04 APERTURE END LIST*
D10*
%TO.P,J8,1,1*%
%TO.N,/RF_OUT*%
X147497800Y-66713100D03*
D11*
%TO.P,J8,2,2*%
%TO.N,GND*%
X147497800Y-70713600D03*
D12*
X147497800Y-69253100D03*
%TO.P,J8,3,3*%
X147497800Y-64173100D03*
D11*
X147492978Y-62713414D03*
D12*
%TO.P,J8,4,4*%
X147497800Y-69253100D03*
%TO.P,J8,5,5*%
X147497800Y-64173100D03*
%TD*%
%TO.P,J1,5,5*%
%TO.N,GND*%
X96545400Y-69253400D03*
%TO.P,J1,4,4*%
X96545400Y-64173400D03*
D11*
%TO.P,J1,3,3*%
X96550222Y-70713086D03*
D12*
X96545400Y-69253400D03*
%TO.P,J1,2,2*%
X96545400Y-64173400D03*
D11*
X96545400Y-62712900D03*
D10*
%TO.P,J1,1,1*%
%TO.N,/RF_IN*%
X96545400Y-66713400D03*
%TD*%
D13*
%TO.P,R4,1*%
%TO.N,Net-(IC1-VG1)*%
X109295000Y-78613000D03*
%TO.P,R4,2*%
%TO.N,Net-(IC1-VG2)*%
X110490000Y-78613000D03*
%TD*%
D14*
%TO.P,J7,1,Pin_1*%
%TO.N,/VDET*%
X142082600Y-80721200D03*
D15*
%TO.P,J7,2,Pin_2*%
%TO.N,GND*%
X144622600Y-80721200D03*
%TD*%
D16*
%TO.P,C15,1*%
%TO.N,GND*%
X110930500Y-74549000D03*
%TO.P,C15,2*%
%TO.N,Net-(IC1-VG2)*%
X112065500Y-74549000D03*
%TD*%
%TO.P,C9,1*%
%TO.N,GND*%
X109922500Y-61595000D03*
%TO.P,C9,2*%
%TO.N,Net-(IC1-VD1)*%
X111057500Y-61595000D03*
%TD*%
D17*
%TO.P,R1,1*%
%TO.N,/VDET*%
X128524000Y-72300500D03*
%TO.P,R1,2*%
%TO.N,/5V*%
X128524000Y-73495500D03*
%TD*%
D16*
%TO.P,C1,1*%
%TO.N,GND*%
X109922500Y-60325000D03*
%TO.P,C1,2*%
%TO.N,Net-(IC1-VD1)*%
X111057500Y-60325000D03*
%TD*%
D18*
%TO.P,IC1,33,EP*%
%TO.N,GND*%
X115529600Y-66963400D03*
D19*
%TO.P,IC1,32,NC_15*%
X113779600Y-64513400D03*
%TO.P,IC1,31,VD1*%
%TO.N,Net-(IC1-VD1)*%
X114279600Y-64513400D03*
%TO.P,IC1,30,VD2_2*%
%TO.N,Net-(IC1-VD2_1)*%
X114779600Y-64513400D03*
%TO.P,IC1,29,VD2_1*%
X115279600Y-64513400D03*
%TO.P,IC1,28,NC_14*%
%TO.N,GND*%
X115779600Y-64513400D03*
%TO.P,IC1,27,VD3_3*%
%TO.N,/VDD*%
X116279600Y-64513400D03*
%TO.P,IC1,26,VD3_2*%
X116779600Y-64513400D03*
%TO.P,IC1,25,VD3_1*%
X117279600Y-64513400D03*
D20*
%TO.P,IC1,24,NC_13*%
%TO.N,GND*%
X117979600Y-65213400D03*
%TO.P,IC1,23,NC_12*%
X117979600Y-65713400D03*
%TO.P,IC1,22,NC_11*%
X117979600Y-66213400D03*
%TO.P,IC1,21,RF-OUT*%
%TO.N,/RF_OUT*%
X117979600Y-66713400D03*
%TO.P,IC1,20,NC_10*%
%TO.N,GND*%
X117979600Y-67213400D03*
%TO.P,IC1,19,NC_9*%
X117979600Y-67713400D03*
%TO.P,IC1,18,VDET*%
%TO.N,/VDET*%
X117979600Y-68213400D03*
%TO.P,IC1,17,VREF*%
%TO.N,/5V*%
X117979600Y-68713400D03*
D19*
%TO.P,IC1,16,VD3B_3*%
%TO.N,/VD3B*%
X117279600Y-69413400D03*
%TO.P,IC1,15,VD3B_2*%
X116779600Y-69413400D03*
%TO.P,IC1,14,VD3B_1*%
X116279600Y-69413400D03*
%TO.P,IC1,13,NC_8*%
%TO.N,GND*%
X115779600Y-69413400D03*
%TO.P,IC1,12,VD2B*%
%TO.N,Net-(IC1-VD2B)*%
X115279600Y-69413400D03*
%TO.P,IC1,11,VG3*%
%TO.N,/VGG*%
X114779600Y-69413400D03*
%TO.P,IC1,10,VG2*%
%TO.N,Net-(IC1-VG2)*%
X114279600Y-69413400D03*
%TO.P,IC1,9,VG1*%
%TO.N,Net-(IC1-VG1)*%
X113779600Y-69413400D03*
D20*
%TO.P,IC1,8,NC_7*%
%TO.N,GND*%
X113079600Y-68713400D03*
%TO.P,IC1,7,NC_6*%
X113079600Y-68213400D03*
%TO.P,IC1,6,NC_5*%
X113079600Y-67713400D03*
%TO.P,IC1,5,NC_4*%
X113079600Y-67213400D03*
%TO.P,IC1,4,RF-IN*%
%TO.N,/RF_IN*%
X113079600Y-66713400D03*
%TO.P,IC1,3,NC_3*%
%TO.N,GND*%
X113079600Y-66213400D03*
%TO.P,IC1,2,NC_2*%
X113079600Y-65713400D03*
%TO.P,IC1,1,NC_1*%
X113079600Y-65213400D03*
%TD*%
D16*
%TO.P,C10,1*%
%TO.N,GND*%
X113351500Y-60325000D03*
%TO.P,C10,2*%
%TO.N,Net-(IC1-VD2_1)*%
X114486500Y-60325000D03*
%TD*%
D14*
%TO.P,J3,1,Pin_1*%
%TO.N,/VGG*%
X115016200Y-83261200D03*
D15*
%TO.P,J3,2,Pin_2*%
%TO.N,GND*%
X112476200Y-83261200D03*
%TD*%
D14*
%TO.P,J5,1,Pin_1*%
%TO.N,/VREF*%
X129443400Y-86563200D03*
D15*
%TO.P,J5,2,Pin_2*%
%TO.N,GND*%
X126903400Y-86563200D03*
%TD*%
D21*
%TO.P,C18,1*%
%TO.N,GND*%
X130742500Y-82296000D03*
%TO.P,C18,2*%
%TO.N,/VREF*%
X129607500Y-82296000D03*
%TD*%
%TO.P,C3,1*%
%TO.N,GND*%
X119126000Y-58801000D03*
%TO.P,C3,2*%
%TO.N,/VDD*%
X117991000Y-58801000D03*
%TD*%
D16*
%TO.P,C2,1*%
%TO.N,GND*%
X113351500Y-61595000D03*
%TO.P,C2,2*%
%TO.N,Net-(IC1-VD2_1)*%
X114486500Y-61595000D03*
%TD*%
D22*
%TO.P,L1,1,1*%
%TO.N,Net-(IC1-VD1)*%
X111695500Y-57277000D03*
%TO.P,L1,2,2*%
%TO.N,Net-(IC1-VD2_1)*%
X112840500Y-57277000D03*
%TD*%
D23*
%TO.P,C17,1*%
%TO.N,GND*%
X121617000Y-54610000D03*
%TO.P,C17,2*%
%TO.N,/VDD*%
X118667000Y-54610000D03*
%TD*%
D21*
%TO.P,C12,1*%
%TO.N,GND*%
X123317000Y-75311000D03*
%TO.P,C12,2*%
%TO.N,/VD3B*%
X122182000Y-75311000D03*
%TD*%
%TO.P,C4,1*%
%TO.N,GND*%
X123317000Y-76581000D03*
%TO.P,C4,2*%
%TO.N,/VD3B*%
X122182000Y-76581000D03*
%TD*%
%TO.P,C13,1*%
%TO.N,GND*%
X118618000Y-75057000D03*
%TO.P,C13,2*%
%TO.N,Net-(IC1-VD2B)*%
X117483000Y-75057000D03*
%TD*%
D16*
%TO.P,C16,1*%
%TO.N,GND*%
X105283000Y-73787000D03*
%TO.P,C16,2*%
%TO.N,Net-(IC1-VG1)*%
X106418000Y-73787000D03*
%TD*%
D22*
%TO.P,L2,1,1*%
%TO.N,Net-(IC1-VD2_1)*%
X114870500Y-57277000D03*
%TO.P,L2,2,2*%
%TO.N,/VDD*%
X116015500Y-57277000D03*
%TD*%
D16*
%TO.P,C8,1*%
%TO.N,GND*%
X105283000Y-72263000D03*
%TO.P,C8,2*%
%TO.N,Net-(IC1-VG1)*%
X106418000Y-72263000D03*
%TD*%
D13*
%TO.P,R3,1*%
%TO.N,Net-(IC1-VG2)*%
X113956500Y-78613000D03*
%TO.P,R3,2*%
%TO.N,/VGG*%
X115151500Y-78613000D03*
%TD*%
D21*
%TO.P,C20,1*%
%TO.N,/VDET*%
X137727500Y-77470000D03*
%TO.P,C20,2*%
%TO.N,GND*%
X136592500Y-77470000D03*
%TD*%
D14*
%TO.P,J2,1,Pin_1*%
%TO.N,/VDD*%
X112577800Y-53289200D03*
D15*
%TO.P,J2,2,Pin_2*%
%TO.N,GND*%
X110037800Y-53289200D03*
%TD*%
D21*
%TO.P,C5,1*%
%TO.N,GND*%
X118618000Y-76327000D03*
%TO.P,C5,2*%
%TO.N,Net-(IC1-VD2B)*%
X117483000Y-76327000D03*
%TD*%
D16*
%TO.P,C7,1*%
%TO.N,GND*%
X110930500Y-73279000D03*
%TO.P,C7,2*%
%TO.N,Net-(IC1-VG2)*%
X112065500Y-73279000D03*
%TD*%
%TO.P,C6,1*%
%TO.N,GND*%
X114240500Y-74295000D03*
%TO.P,C6,2*%
%TO.N,/VGG*%
X115375500Y-74295000D03*
%TD*%
D14*
%TO.P,J4,1,Pin_1*%
%TO.N,/VD3B*%
X122687000Y-83312000D03*
D15*
%TO.P,J4,2,Pin_2*%
%TO.N,GND*%
X120147000Y-83312000D03*
%TD*%
D24*
%TO.P,R2,1*%
%TO.N,/5V*%
X130264500Y-75565000D03*
%TO.P,R2,2*%
%TO.N,/VREF*%
X129069500Y-75565000D03*
%TD*%
D16*
%TO.P,C11,1*%
%TO.N,/VDD*%
X117966500Y-60263000D03*
%TO.P,C11,2*%
%TO.N,GND*%
X119101500Y-60263000D03*
%TD*%
%TO.P,C14,1*%
%TO.N,GND*%
X114240500Y-75565000D03*
%TO.P,C14,2*%
%TO.N,/VGG*%
X115375500Y-75565000D03*
%TD*%
D21*
%TO.P,C19,1*%
%TO.N,/5V*%
X134882700Y-83464400D03*
%TO.P,C19,2*%
%TO.N,GND*%
X133747700Y-83464400D03*
%TD*%
D14*
%TO.P,J6,1,Pin_1*%
%TO.N,/5V*%
X136139000Y-86563200D03*
D15*
%TO.P,J6,2,Pin_2*%
%TO.N,GND*%
X138679000Y-86563200D03*
%TD*%
D25*
%TO.N,GND*%
X147645700Y-87678600D03*
X147645700Y-86269000D03*
X147645700Y-84859400D03*
X147645700Y-83449800D03*
X147645700Y-82040200D03*
X147645700Y-80630600D03*
X147645700Y-79221000D03*
X147645700Y-77811400D03*
X147645700Y-76401800D03*
X147645700Y-74992200D03*
X147645700Y-58077000D03*
X147645700Y-56667400D03*
X147645700Y-55257800D03*
X147645700Y-53848200D03*
X146236100Y-87678600D03*
X146236100Y-86269000D03*
X146236100Y-84859400D03*
X146236100Y-83449800D03*
X146236100Y-77811400D03*
X146236100Y-76401800D03*
X146236100Y-74992200D03*
X146236100Y-58077000D03*
X146236100Y-56667400D03*
X146236100Y-55257800D03*
X146236100Y-53848200D03*
X144826500Y-87678600D03*
X144826500Y-86269000D03*
X144826500Y-84859400D03*
X144826500Y-83449800D03*
X144826500Y-77811400D03*
X144826500Y-76401800D03*
X144826500Y-74992200D03*
X144826500Y-58077000D03*
X144826500Y-56667400D03*
X144826500Y-55257800D03*
X144826500Y-53848200D03*
X143416900Y-87678600D03*
X143416900Y-86269000D03*
X143416900Y-84859400D03*
X143416900Y-83449800D03*
X143416900Y-77811400D03*
X143416900Y-76401800D03*
X143416900Y-74992200D03*
X143416900Y-73582600D03*
X143416900Y-72173000D03*
X143416900Y-62305800D03*
X143416900Y-60896200D03*
X143416900Y-59486600D03*
X143416900Y-58077000D03*
X143416900Y-56667400D03*
X143416900Y-55257800D03*
X143416900Y-53848200D03*
X142007300Y-87678600D03*
X142007300Y-86269000D03*
X142007300Y-84859400D03*
X142007300Y-83449800D03*
X142007300Y-77811400D03*
X142007300Y-76401800D03*
X142007300Y-74992200D03*
X142007300Y-73582600D03*
X142007300Y-72173000D03*
X142007300Y-62305800D03*
X142007300Y-60896200D03*
X142007300Y-59486600D03*
X142007300Y-58077000D03*
X142007300Y-56667400D03*
X142007300Y-55257800D03*
X142007300Y-53848200D03*
X140597700Y-84859400D03*
X140597700Y-83449800D03*
X140597700Y-76401800D03*
X140597700Y-74992200D03*
X140597700Y-73582600D03*
X140597700Y-72173000D03*
X140597700Y-62305800D03*
X140597700Y-60896200D03*
X140597700Y-59486600D03*
X140597700Y-58077000D03*
X140597700Y-56667400D03*
X140597700Y-55257800D03*
X140597700Y-53848200D03*
X139188100Y-83449800D03*
X139188100Y-82040200D03*
X139188100Y-72173000D03*
X139188100Y-62305800D03*
X139188100Y-60896200D03*
X139188100Y-59486600D03*
X139188100Y-58077000D03*
X139188100Y-56667400D03*
X139188100Y-55257800D03*
X139188100Y-53848200D03*
X137778500Y-83449800D03*
X137778500Y-82040200D03*
X137778500Y-80630600D03*
X137778500Y-62305800D03*
X137778500Y-60896200D03*
X137778500Y-59486600D03*
X137778500Y-58077000D03*
X137778500Y-56667400D03*
X137778500Y-55257800D03*
X137778500Y-53848200D03*
X136368900Y-79221000D03*
X136368900Y-62305800D03*
X136368900Y-60896200D03*
X136368900Y-59486600D03*
X136368900Y-58077000D03*
X136368900Y-56667400D03*
X136368900Y-55257800D03*
X136368900Y-53848200D03*
X134959300Y-62305800D03*
X134959300Y-60896200D03*
X134959300Y-59486600D03*
X134959300Y-58077000D03*
X134959300Y-56667400D03*
X134959300Y-55257800D03*
X134959300Y-53848200D03*
X133549700Y-87678600D03*
X133549700Y-62305800D03*
X133549700Y-60896200D03*
X133549700Y-59486600D03*
X133549700Y-58077000D03*
X133549700Y-56667400D03*
X133549700Y-55257800D03*
X133549700Y-53848200D03*
X132140100Y-87678600D03*
X132140100Y-86269000D03*
X132140100Y-62305800D03*
X132140100Y-60896200D03*
X132140100Y-59486600D03*
X132140100Y-58077000D03*
X132140100Y-56667400D03*
X132140100Y-55257800D03*
X132140100Y-53848200D03*
X130730500Y-62305800D03*
X130730500Y-60896200D03*
X130730500Y-59486600D03*
X130730500Y-58077000D03*
X130730500Y-56667400D03*
X130730500Y-55257800D03*
X130730500Y-53848200D03*
X129320900Y-62305800D03*
X129320900Y-60896200D03*
X129320900Y-59486600D03*
X129320900Y-58077000D03*
X129320900Y-56667400D03*
X129320900Y-55257800D03*
X129320900Y-53848200D03*
X127911300Y-62305800D03*
X127911300Y-60896200D03*
X127911300Y-59486600D03*
X127911300Y-58077000D03*
X127911300Y-56667400D03*
X127911300Y-55257800D03*
X127911300Y-53848200D03*
X126501700Y-83449800D03*
X126501700Y-82040200D03*
X126501700Y-80630600D03*
X126501700Y-79221000D03*
X126501700Y-77811400D03*
X126501700Y-76401800D03*
X126501700Y-62305800D03*
X126501700Y-60896200D03*
X126501700Y-59486600D03*
X126501700Y-58077000D03*
X126501700Y-56667400D03*
X126501700Y-55257800D03*
X126501700Y-53848200D03*
X125092100Y-84859400D03*
X125092100Y-83449800D03*
X125092100Y-82040200D03*
X125092100Y-80630600D03*
X125092100Y-79221000D03*
X125092100Y-62305800D03*
X125092100Y-60896200D03*
X125092100Y-59486600D03*
X125092100Y-58077000D03*
X125092100Y-56667400D03*
X125092100Y-55257800D03*
X125092100Y-53848200D03*
X123682500Y-87678600D03*
X123682500Y-86269000D03*
X123682500Y-62305800D03*
X123682500Y-60896200D03*
X123682500Y-59486600D03*
X123682500Y-58077000D03*
X122272900Y-87678600D03*
X122272900Y-86269000D03*
X122272900Y-62305800D03*
X122272900Y-60896200D03*
X122272900Y-59486600D03*
X122272900Y-58077000D03*
X120863300Y-87678600D03*
X120863300Y-86269000D03*
X120863300Y-62305800D03*
X120863300Y-56667400D03*
X119453700Y-87678600D03*
X119453700Y-86269000D03*
X119453700Y-80630600D03*
X119453700Y-79221000D03*
X118044100Y-87678600D03*
X118044100Y-86269000D03*
X118044100Y-84859400D03*
X118044100Y-83449800D03*
X118044100Y-82040200D03*
X118044100Y-80630600D03*
X118044100Y-79221000D03*
X116634500Y-87678600D03*
X116634500Y-86269000D03*
X115224900Y-87678600D03*
X115224900Y-86269000D03*
X113815300Y-87678600D03*
X113815300Y-86269000D03*
X113815300Y-55257800D03*
X112405700Y-87678600D03*
X112405700Y-86269000D03*
X112405700Y-80630600D03*
X112405700Y-55257800D03*
X110996100Y-87678600D03*
X110996100Y-86269000D03*
X110996100Y-80630600D03*
X110996100Y-55257800D03*
X109586500Y-87678600D03*
X109586500Y-86269000D03*
X109586500Y-84859400D03*
X109586500Y-83449800D03*
X109586500Y-82040200D03*
X109586500Y-80630600D03*
X109586500Y-58077000D03*
X109586500Y-56667400D03*
X109586500Y-55257800D03*
X108176900Y-87678600D03*
X108176900Y-86269000D03*
X108176900Y-84859400D03*
X108176900Y-83449800D03*
X108176900Y-82040200D03*
X108176900Y-80630600D03*
X108176900Y-58077000D03*
X108176900Y-56667400D03*
X108176900Y-55257800D03*
X106767300Y-87678600D03*
X106767300Y-86269000D03*
X106767300Y-84859400D03*
X106767300Y-83449800D03*
X106767300Y-82040200D03*
X106767300Y-80630600D03*
X106767300Y-79221000D03*
X106767300Y-62305800D03*
X106767300Y-60896200D03*
X106767300Y-59486600D03*
X106767300Y-58077000D03*
X106767300Y-56667400D03*
X106767300Y-55257800D03*
X106767300Y-53848200D03*
X105357700Y-87678600D03*
X105357700Y-86269000D03*
X105357700Y-84859400D03*
X105357700Y-83449800D03*
X105357700Y-82040200D03*
X105357700Y-80630600D03*
X105357700Y-79221000D03*
X105357700Y-77811400D03*
X105357700Y-62305800D03*
X105357700Y-60896200D03*
X105357700Y-59486600D03*
X105357700Y-58077000D03*
X105357700Y-56667400D03*
X105357700Y-55257800D03*
X105357700Y-53848200D03*
X103948100Y-87678600D03*
X103948100Y-86269000D03*
X103948100Y-84859400D03*
X103948100Y-83449800D03*
X103948100Y-82040200D03*
X103948100Y-80630600D03*
X103948100Y-79221000D03*
X103948100Y-77811400D03*
X103948100Y-76401800D03*
X103948100Y-62305800D03*
X103948100Y-60896200D03*
X103948100Y-59486600D03*
X103948100Y-58077000D03*
X103948100Y-56667400D03*
X103948100Y-55257800D03*
X103948100Y-53848200D03*
X102538500Y-87678600D03*
X102538500Y-86269000D03*
X102538500Y-84859400D03*
X102538500Y-83449800D03*
X102538500Y-82040200D03*
X102538500Y-80630600D03*
X102538500Y-79221000D03*
X102538500Y-77811400D03*
X102538500Y-76401800D03*
X102538500Y-74992200D03*
X102538500Y-73582600D03*
X102538500Y-72173000D03*
X102538500Y-62305800D03*
X102538500Y-60896200D03*
X102538500Y-59486600D03*
X102538500Y-58077000D03*
X102538500Y-56667400D03*
X102538500Y-55257800D03*
X102538500Y-53848200D03*
X101128900Y-87678600D03*
X101128900Y-86269000D03*
X101128900Y-84859400D03*
X101128900Y-83449800D03*
X101128900Y-82040200D03*
X101128900Y-80630600D03*
X101128900Y-79221000D03*
X101128900Y-77811400D03*
X101128900Y-76401800D03*
X101128900Y-74992200D03*
X101128900Y-73582600D03*
X101128900Y-72173000D03*
X101128900Y-62305800D03*
X101128900Y-60896200D03*
X101128900Y-59486600D03*
X101128900Y-58077000D03*
X101128900Y-56667400D03*
X101128900Y-55257800D03*
X101128900Y-53848200D03*
X99719300Y-87678600D03*
X99719300Y-86269000D03*
X99719300Y-84859400D03*
X99719300Y-83449800D03*
X99719300Y-82040200D03*
X99719300Y-80630600D03*
X99719300Y-79221000D03*
X99719300Y-77811400D03*
X99719300Y-76401800D03*
X99719300Y-74992200D03*
X99719300Y-58077000D03*
X99719300Y-56667400D03*
X99719300Y-55257800D03*
X99719300Y-53848200D03*
X98309700Y-87678600D03*
X98309700Y-86269000D03*
X98309700Y-84859400D03*
X98309700Y-83449800D03*
X98309700Y-82040200D03*
X98309700Y-80630600D03*
X98309700Y-79221000D03*
X98309700Y-77811400D03*
X98309700Y-76401800D03*
X98309700Y-74992200D03*
X98309700Y-58077000D03*
X98309700Y-56667400D03*
X98309700Y-55257800D03*
X98309700Y-53848200D03*
X96900100Y-87678600D03*
X96900100Y-86269000D03*
X96900100Y-84859400D03*
X96900100Y-83449800D03*
X96900100Y-82040200D03*
X96900100Y-80630600D03*
X96900100Y-79221000D03*
X96900100Y-77811400D03*
X96900100Y-76401800D03*
X96900100Y-74992200D03*
X96900100Y-58077000D03*
X96900100Y-56667400D03*
X96900100Y-55257800D03*
X96900100Y-53848200D03*
X95490500Y-87678600D03*
X95490500Y-86269000D03*
X95490500Y-84859400D03*
X95490500Y-83449800D03*
X95490500Y-82040200D03*
X95490500Y-80630600D03*
X95490500Y-79221000D03*
X95490500Y-77811400D03*
X95490500Y-76401800D03*
X95490500Y-74992200D03*
X95490500Y-58077000D03*
X95490500Y-56667400D03*
X95490500Y-55257800D03*
X95490500Y-53848200D03*
X107696000Y-73685400D03*
X134620000Y-77622400D03*
X134416800Y-76504800D03*
X133731000Y-75107800D03*
X132232400Y-74320400D03*
X115951000Y-65532000D03*
X136037687Y-68453000D03*
X114173000Y-66294000D03*
X104070494Y-67713400D03*
X98477859Y-65024000D03*
X116332000Y-60706000D03*
X126377068Y-64262000D03*
X144706441Y-64262000D03*
X101480894Y-65024000D03*
X108575047Y-67713400D03*
X119507047Y-65713400D03*
X104821252Y-67713400D03*
X143561718Y-65024000D03*
X123325667Y-65713400D03*
X137836421Y-65713400D03*
X101818217Y-67713400D03*
X105731447Y-64262000D03*
X107486965Y-65024000D03*
X113411000Y-64516000D03*
X135545250Y-67713400D03*
X146237384Y-67713400D03*
X106736206Y-65024000D03*
X143182489Y-65713400D03*
X124333000Y-71882000D03*
X132490354Y-65713400D03*
X137832926Y-64262000D03*
X139363869Y-67713400D03*
X115951000Y-67183000D03*
X147493545Y-68453000D03*
X129050963Y-65024000D03*
X137836421Y-67713400D03*
X115062000Y-65532815D03*
X130959411Y-64262000D03*
X115062000Y-66294000D03*
X121794724Y-64262000D03*
X97313664Y-65713400D03*
X140620030Y-68453000D03*
X103319735Y-67713400D03*
X133250583Y-64262000D03*
X98815182Y-67713400D03*
X135924478Y-65024000D03*
X133633307Y-65024000D03*
X145966097Y-68453000D03*
X119761000Y-58801000D03*
X109347000Y-76454000D03*
X120267276Y-64262000D03*
X101818217Y-65713400D03*
X122555000Y-70358000D03*
X108237724Y-65024000D03*
X129435458Y-67713400D03*
X105559482Y-69215000D03*
X138328858Y-68453000D03*
X113665000Y-74295000D03*
X118872000Y-73279000D03*
X142797994Y-65024000D03*
X131455343Y-68453000D03*
X130302000Y-78105000D03*
X128668239Y-64262000D03*
X129435458Y-65713400D03*
X110363000Y-74549000D03*
X132869583Y-65024000D03*
X103319735Y-65713400D03*
X136308973Y-67713400D03*
X99725377Y-64262000D03*
X136305478Y-64262000D03*
X96849341Y-68453000D03*
X127144286Y-65713400D03*
X102568976Y-67713400D03*
X132982791Y-68453000D03*
X133254078Y-67713400D03*
X126873000Y-68453000D03*
X136801410Y-68453000D03*
X115951000Y-66294000D03*
X100730135Y-65024000D03*
X101226894Y-64262000D03*
X126380563Y-65713400D03*
X104980688Y-64262000D03*
X128671734Y-67713400D03*
X137072697Y-65713400D03*
X100476135Y-64262000D03*
X130962906Y-67713400D03*
X108861482Y-68453000D03*
X110076564Y-65713400D03*
X142147478Y-68453000D03*
X97473100Y-64262000D03*
X114173000Y-67183000D03*
X98802653Y-69215000D03*
X135781963Y-69215000D03*
X127904515Y-64262000D03*
X134510239Y-68453000D03*
X127140791Y-64262000D03*
X144709936Y-65713400D03*
X141891754Y-69215000D03*
X126109276Y-68453000D03*
X104648000Y-72263000D03*
X142911202Y-68453000D03*
X130199182Y-67713400D03*
X129164171Y-68453000D03*
X109601000Y-71755000D03*
X110827323Y-65713400D03*
X138600145Y-65713400D03*
X139092582Y-68453000D03*
X124853115Y-65713400D03*
X116332000Y-59817000D03*
X131318000Y-82296000D03*
X115951815Y-68072000D03*
X111125000Y-71755000D03*
X101353894Y-68453000D03*
X145470165Y-64262000D03*
X105858447Y-68453000D03*
X146474097Y-69215000D03*
X118743323Y-65713400D03*
X132490354Y-67713400D03*
X119122552Y-65024000D03*
X97727100Y-65024000D03*
X130962906Y-65713400D03*
X145089165Y-65024000D03*
X110363000Y-68453000D03*
X116840000Y-66294000D03*
X108110724Y-68453000D03*
X99101618Y-68453000D03*
X141655041Y-65713400D03*
X99228618Y-65024000D03*
X140506822Y-65024000D03*
X107061000Y-69215000D03*
X107824288Y-65713400D03*
X145710373Y-69215000D03*
X105234688Y-65024000D03*
X132727067Y-69215000D03*
X137309410Y-69215000D03*
X138596650Y-64262000D03*
X123322172Y-64262000D03*
X98815182Y-65713400D03*
X110076564Y-67713400D03*
X136308973Y-65713400D03*
X134014307Y-64262000D03*
X103307206Y-69215000D03*
X122428000Y-54991000D03*
X101054929Y-69215000D03*
X137072697Y-67713400D03*
X121413724Y-65024000D03*
X147764832Y-67713400D03*
X109612241Y-68453000D03*
X98223859Y-64262000D03*
X97600100Y-68453000D03*
X128671734Y-65713400D03*
X125616839Y-65713400D03*
X135541755Y-64262000D03*
X98064423Y-67713400D03*
X125613344Y-64262000D03*
X135018239Y-69215000D03*
X102556447Y-69215000D03*
X104057964Y-69215000D03*
X109739241Y-65024000D03*
X121798219Y-65713400D03*
X122561943Y-65713400D03*
X138836858Y-69215000D03*
X116840000Y-67183000D03*
X142655478Y-69215000D03*
X104483929Y-65024000D03*
X122558448Y-64262000D03*
X133254078Y-65713400D03*
X99979377Y-65024000D03*
X147761337Y-64262000D03*
X102982412Y-65024000D03*
X124468620Y-65024000D03*
X104229929Y-64262000D03*
X112776000Y-61595000D03*
X125996068Y-65024000D03*
X139743098Y-65024000D03*
X109347000Y-60325000D03*
X104821252Y-65713400D03*
X116078000Y-58928000D03*
X131726630Y-65713400D03*
X121539000Y-69596000D03*
X105572011Y-67713400D03*
X127523515Y-65024000D03*
X110490000Y-65024000D03*
X119728861Y-60276051D03*
X128144723Y-69215000D03*
X116840815Y-68072000D03*
X136688202Y-65024000D03*
X123825000Y-76581000D03*
X131342135Y-65024000D03*
X99565941Y-67713400D03*
X121031000Y-64262000D03*
X126617276Y-69215000D03*
X135545250Y-65713400D03*
X145202373Y-68453000D03*
X105985447Y-65024000D03*
X147001108Y-67713400D03*
X114173815Y-68072000D03*
X146729821Y-68453000D03*
X142418765Y-67713400D03*
X144438650Y-68453000D03*
X139856306Y-68453000D03*
X122941172Y-65024000D03*
X110363000Y-73279000D03*
X119126000Y-76327000D03*
X130195687Y-64262000D03*
X101067458Y-65713400D03*
X120270771Y-65713400D03*
X131963343Y-69215000D03*
X143178994Y-64262000D03*
X148144061Y-65024000D03*
X104648000Y-73787000D03*
X116840000Y-65532000D03*
X130578411Y-65024000D03*
X106310241Y-69215000D03*
X104070494Y-65713400D03*
X148001545Y-69215000D03*
X109325805Y-67713400D03*
X115062000Y-67183000D03*
X111578082Y-65713400D03*
X104356929Y-68453000D03*
X106482206Y-64262000D03*
X142415270Y-64262000D03*
X127908010Y-65713400D03*
X102728412Y-64262000D03*
X137565134Y-68453000D03*
X107983724Y-64262000D03*
X141655041Y-67713400D03*
X137069202Y-64262000D03*
X112776000Y-70485000D03*
X133172200Y-83464400D03*
X130199182Y-65713400D03*
X140127593Y-67713400D03*
X139600582Y-69215000D03*
X144946650Y-69215000D03*
X97313664Y-67713400D03*
X134017802Y-67713400D03*
X101805688Y-69215000D03*
X116332000Y-61595000D03*
X116459000Y-73660000D03*
X134254515Y-69215000D03*
X128400447Y-68453000D03*
X131199619Y-69215000D03*
X142034270Y-65024000D03*
X116447348Y-75001773D03*
X128908447Y-69215000D03*
X140891317Y-65713400D03*
X137451926Y-65024000D03*
X124085896Y-64262000D03*
X123704896Y-65024000D03*
X131726630Y-67713400D03*
X127636723Y-68453000D03*
X123444000Y-71120000D03*
X107824288Y-67713400D03*
X99852377Y-68453000D03*
X112328841Y-67713400D03*
X138073134Y-69215000D03*
X143942718Y-64262000D03*
X101977653Y-64262000D03*
X113079600Y-65713400D03*
X133746515Y-68453000D03*
X147001108Y-65713400D03*
X140364306Y-69215000D03*
X111113759Y-68453000D03*
X144325441Y-65024000D03*
X110236000Y-64262000D03*
X134781526Y-67713400D03*
X134778031Y-64262000D03*
X143182489Y-67713400D03*
X128287239Y-65024000D03*
X103479171Y-64262000D03*
X143946213Y-67713400D03*
X129672171Y-69215000D03*
X129431963Y-64262000D03*
X105572011Y-65713400D03*
X130435895Y-69215000D03*
X112328841Y-65713400D03*
X108988482Y-65024000D03*
X125232344Y-65024000D03*
X106322770Y-67713400D03*
X112776000Y-60325000D03*
X141270546Y-65024000D03*
X109347000Y-61595000D03*
X134017802Y-65713400D03*
X136545687Y-69215000D03*
X100304170Y-69215000D03*
X146237384Y-65713400D03*
X104808723Y-69215000D03*
X146233889Y-64262000D03*
X127144286Y-67713400D03*
X139363869Y-65713400D03*
X143419202Y-69215000D03*
X124089391Y-65713400D03*
X132219067Y-68453000D03*
X108575047Y-65713400D03*
X101067458Y-67713400D03*
X145473660Y-65713400D03*
X140891317Y-67713400D03*
X122177448Y-65024000D03*
X132486859Y-64262000D03*
X129927895Y-68453000D03*
X97301135Y-69215000D03*
X147380337Y-65024000D03*
X126380563Y-67713400D03*
X98350859Y-68453000D03*
X120650000Y-65024000D03*
X111737518Y-64262000D03*
X113284000Y-58674000D03*
X111991518Y-65024000D03*
X145473660Y-67713400D03*
X147764832Y-65713400D03*
X144182926Y-69215000D03*
X130810000Y-80137000D03*
X102231653Y-65024000D03*
X103733171Y-65024000D03*
X126759791Y-65024000D03*
X141651546Y-64262000D03*
X132105859Y-65024000D03*
X124849620Y-64262000D03*
X124853115Y-67713400D03*
X107232965Y-64262000D03*
X121034495Y-65713400D03*
X110827323Y-67713400D03*
X102104653Y-68453000D03*
X142418765Y-65713400D03*
X113079600Y-67713400D03*
X106322770Y-65713400D03*
X145852889Y-65024000D03*
X140127593Y-65713400D03*
X119503552Y-64262000D03*
X141383754Y-68453000D03*
X98064423Y-65713400D03*
X127908010Y-67713400D03*
X119886276Y-65024000D03*
X99553412Y-69215000D03*
X141128030Y-69215000D03*
X139360374Y-64262000D03*
X115062815Y-68072000D03*
X146616613Y-65024000D03*
X138215650Y-65024000D03*
X114173000Y-65532000D03*
X143946213Y-65713400D03*
X113665000Y-75565000D03*
X131723135Y-64262000D03*
X96976341Y-65024000D03*
X119253000Y-75057000D03*
X109325805Y-65713400D03*
X98974618Y-64262000D03*
X140124098Y-64262000D03*
X147237821Y-69215000D03*
X144709936Y-67713400D03*
X117979600Y-65713400D03*
X138600145Y-67713400D03*
X143674926Y-68453000D03*
X135273963Y-68453000D03*
X102855412Y-68453000D03*
X134397031Y-65024000D03*
X140887822Y-64262000D03*
X134781526Y-65713400D03*
X100603135Y-68453000D03*
X109485241Y-64262000D03*
X129814687Y-65024000D03*
X138979374Y-65024000D03*
X102568976Y-65713400D03*
X125616839Y-67713400D03*
X133490791Y-69215000D03*
X100316700Y-65713400D03*
X123825000Y-75311000D03*
X130691619Y-68453000D03*
X117983000Y-67437000D03*
X103606171Y-68453000D03*
X108734482Y-64262000D03*
X100316700Y-67713400D03*
X111578082Y-67713400D03*
X107073529Y-65713400D03*
X135160755Y-65024000D03*
X146997613Y-64262000D03*
X98051894Y-69215000D03*
X107359965Y-68453000D03*
X106609206Y-68453000D03*
X136017000Y-77470000D03*
X110986759Y-64262000D03*
X122428000Y-54229000D03*
X105107688Y-68453000D03*
X127381000Y-69215000D03*
X99565941Y-65713400D03*
X111240759Y-65024000D03*
X107073529Y-67713400D03*
%TD*%
D26*
%TO.N,/5V*%
X134882700Y-85306900D02*
X136139000Y-86563200D01*
X134882700Y-83464400D02*
X134882700Y-85306900D01*
X134882700Y-81923700D02*
X134882700Y-83464400D01*
X131572000Y-76962000D02*
X131572000Y-78613000D01*
X131572000Y-78613000D02*
X134882700Y-81923700D01*
X130264500Y-75654500D02*
X131572000Y-76962000D01*
X130264500Y-75565000D02*
X130264500Y-75654500D01*
%TO.N,/VREF*%
X129607500Y-86399100D02*
X129443400Y-86563200D01*
X129607500Y-82296000D02*
X129607500Y-86399100D01*
%TO.N,/VDET*%
X140978700Y-80721200D02*
X137727500Y-77470000D01*
X142082600Y-80721200D02*
X140978700Y-80721200D01*
%TO.N,/VDD*%
X112577800Y-53289200D02*
X117346200Y-53289200D01*
X117346200Y-53289200D02*
X118667000Y-54610000D01*
D27*
%TO.N,/RF_IN*%
X113079600Y-66713400D02*
X96545400Y-66713400D01*
D28*
%TO.N,/RF_OUT*%
X147497800Y-66713100D02*
X147599400Y-66713100D01*
X147497500Y-66713400D02*
X147497800Y-66713100D01*
X117979600Y-66713400D02*
X147497500Y-66713400D01*
D26*
%TO.N,Net-(IC1-VD1)*%
X111057500Y-60325000D02*
X111057500Y-61595000D01*
X111057500Y-62162500D02*
X112141000Y-63246000D01*
D29*
X113665000Y-63246000D02*
X114277200Y-63858200D01*
D26*
X111695500Y-57277000D02*
X111695500Y-59687000D01*
D29*
X114277200Y-63858200D02*
X114277200Y-64513400D01*
D26*
X111057500Y-61595000D02*
X111057500Y-62162500D01*
X111695500Y-59687000D02*
X111057500Y-60325000D01*
D30*
X112141000Y-63246000D02*
X113665000Y-63246000D01*
D26*
%TO.N,Net-(IC1-VD2_1)*%
X112840500Y-57277000D02*
X114870500Y-57277000D01*
X114486500Y-60325000D02*
X114486500Y-61595000D01*
X114486500Y-61908500D02*
X115001100Y-62423100D01*
X114486500Y-61595000D02*
X114486500Y-61908500D01*
X115001100Y-62423100D02*
X115001100Y-64513400D01*
X114870500Y-59941000D02*
X114486500Y-60325000D01*
X114870500Y-57277000D02*
X114870500Y-59941000D01*
%TO.N,Net-(IC1-VD2B)*%
X117483000Y-76327000D02*
X117483000Y-75057000D01*
X117483000Y-72525000D02*
X116586000Y-71628000D01*
X117483000Y-75057000D02*
X117483000Y-72525000D01*
D29*
X115279600Y-70321600D02*
X115279600Y-69413400D01*
X116586000Y-71628000D02*
X115279600Y-70321600D01*
D26*
%TO.N,Net-(IC1-VG2)*%
X110490000Y-78613000D02*
X110490000Y-77597000D01*
X113956500Y-78613000D02*
X110490000Y-78613000D01*
X112065500Y-73279000D02*
X112065500Y-72846500D01*
X112065500Y-76021500D02*
X112065500Y-74549000D01*
D29*
X113411000Y-71501000D02*
X114279600Y-70632400D01*
D26*
X112065500Y-74549000D02*
X112065500Y-73279000D01*
D29*
X114279600Y-70632400D02*
X114279600Y-69413400D01*
D26*
X112065500Y-72846500D02*
X113411000Y-71501000D01*
X110490000Y-77597000D02*
X112065500Y-76021500D01*
D31*
%TO.N,Net-(IC1-VG1)*%
X111887000Y-69596000D02*
X112069600Y-69413400D01*
D26*
X108712000Y-70485000D02*
X106934000Y-72263000D01*
X106418000Y-72263000D02*
X106418000Y-73787000D01*
D31*
X112069600Y-69413400D02*
X113779600Y-69413400D01*
D26*
X106934000Y-72263000D02*
X106418000Y-72263000D01*
X106418000Y-75736000D02*
X109295000Y-78613000D01*
X111887000Y-69596000D02*
X110998000Y-70485000D01*
X106418000Y-73787000D02*
X106418000Y-75736000D01*
X110998000Y-70485000D02*
X108712000Y-70485000D01*
%TO.N,/VDD*%
X117279600Y-63060400D02*
X117279600Y-64513400D01*
X117966500Y-62373500D02*
X117279600Y-63060400D01*
X116015500Y-57277000D02*
X116467000Y-57277000D01*
X117991000Y-58801000D02*
X117991000Y-60238500D01*
X117966500Y-60263000D02*
X117966500Y-62373500D01*
X116467000Y-57277000D02*
X117991000Y-58801000D01*
X118667000Y-54625500D02*
X116015500Y-57277000D01*
X116779600Y-64513400D02*
X116501100Y-64513400D01*
X117991000Y-60238500D02*
X117966500Y-60263000D01*
X117279600Y-64513400D02*
X116779600Y-64513400D01*
X118667000Y-54610000D02*
X118667000Y-54625500D01*
%TO.N,/VD3B*%
X122182000Y-74938000D02*
X117856000Y-70612000D01*
X122182000Y-76581000D02*
X122182000Y-75311000D01*
X122174000Y-79248000D02*
X122174000Y-76589000D01*
X122687000Y-79761000D02*
X122687000Y-83312000D01*
X122174000Y-76589000D02*
X122182000Y-76581000D01*
X122182000Y-75311000D02*
X122114500Y-75311000D01*
X116779600Y-69413400D02*
X116501100Y-69413400D01*
X117856000Y-69469000D02*
X116835200Y-69469000D01*
X117856000Y-70612000D02*
X117856000Y-69469000D01*
X122174000Y-79248000D02*
X122687000Y-79761000D01*
X122182000Y-75311000D02*
X122182000Y-74938000D01*
D29*
%TO.N,/VGG*%
X114808000Y-71628000D02*
X114779600Y-71599600D01*
D26*
X115375500Y-76640500D02*
X115375500Y-75565000D01*
D29*
X114779600Y-71599600D02*
X114779600Y-69413400D01*
D26*
X115375500Y-72195500D02*
X115375500Y-74295000D01*
X115443000Y-76708000D02*
X115375500Y-76640500D01*
X114808000Y-71628000D02*
X115375500Y-72195500D01*
X115375500Y-75565000D02*
X115375500Y-74295000D01*
X115189000Y-83088400D02*
X115189000Y-78650500D01*
X115189000Y-78650500D02*
X115151500Y-78613000D01*
X115151500Y-78613000D02*
X115151500Y-76999500D01*
X115151500Y-76999500D02*
X115443000Y-76708000D01*
X115016200Y-83261200D02*
X115189000Y-83088400D01*
%TO.N,/VREF*%
X129069500Y-81758000D02*
X129069500Y-75565000D01*
X129607500Y-82296000D02*
X129069500Y-81758000D01*
D29*
%TO.N,/5V*%
X117979600Y-68713400D02*
X118497400Y-68713400D01*
D30*
X118872000Y-69088000D02*
X119380000Y-69596000D01*
D26*
X122809000Y-73025000D02*
X123279500Y-73495500D01*
D32*
X122809000Y-73025000D02*
X119380000Y-69596000D01*
D26*
X130264500Y-75236000D02*
X130264500Y-75565000D01*
X128524000Y-73495500D02*
X130264500Y-75236000D01*
D29*
X118497400Y-68713400D02*
X118872000Y-69088000D01*
D26*
X123279500Y-73495500D02*
X128524000Y-73495500D01*
%TO.N,/VDET*%
X127291500Y-72300500D02*
X123190000Y-68199000D01*
D29*
X119619600Y-68213400D02*
X117979600Y-68213400D01*
D26*
X123190000Y-68199000D02*
X119634000Y-68199000D01*
X137727500Y-74862500D02*
X135165500Y-72300500D01*
D29*
X119634000Y-68199000D02*
X119619600Y-68213400D01*
D26*
X137727500Y-77470000D02*
X137727500Y-74862500D01*
X135165500Y-72300500D02*
X133731000Y-72300500D01*
X133731000Y-72300500D02*
X127291500Y-72300500D01*
D28*
%TO.N,/RF_IN*%
X96482200Y-66713400D02*
X96469200Y-66700400D01*
%TD*%
%TA.AperFunction,Conductor*%
%TO.N,GND*%
G36*
X122947705Y-68841485D02*
G01*
X122968347Y-68858119D01*
X126771247Y-72661019D01*
X126804732Y-72722342D01*
X126799748Y-72792034D01*
X126757876Y-72847967D01*
X126692412Y-72872384D01*
X126683566Y-72872700D01*
X123588835Y-72872700D01*
X123521796Y-72853015D01*
X123501154Y-72836381D01*
X123206015Y-72541242D01*
X123206011Y-72541239D01*
X123104012Y-72473085D01*
X123104002Y-72473080D01*
X123031272Y-72442954D01*
X122991044Y-72416074D01*
X119723419Y-69148450D01*
X119723411Y-69148444D01*
X119595887Y-69074818D01*
X119595882Y-69074816D01*
X119583604Y-69071526D01*
X119561390Y-69065574D01*
X119501731Y-69029209D01*
X119471203Y-68966362D01*
X119479498Y-68896987D01*
X119523984Y-68843109D01*
X119590536Y-68821835D01*
X119593486Y-68821800D01*
X122880666Y-68821800D01*
X122947705Y-68841485D01*
G37*
%TD.AperFunction*%
%TA.AperFunction,Conductor*%
G36*
X114148820Y-71717328D02*
G01*
X114196432Y-71768464D01*
X114207166Y-71799776D01*
X114209131Y-71809654D01*
X114209134Y-71809664D01*
X114256080Y-71923003D01*
X114256085Y-71923012D01*
X114324239Y-72025011D01*
X114324242Y-72025015D01*
X114716381Y-72417153D01*
X114749866Y-72478476D01*
X114752700Y-72504834D01*
X114752700Y-76466165D01*
X114733015Y-76533204D01*
X114716381Y-76553846D01*
X114667742Y-76602484D01*
X114667739Y-76602488D01*
X114599585Y-76704487D01*
X114599580Y-76704496D01*
X114552634Y-76817835D01*
X114552632Y-76817843D01*
X114528700Y-76938155D01*
X114528700Y-78014308D01*
X114509015Y-78081347D01*
X114456211Y-78127102D01*
X114387053Y-78137046D01*
X114335810Y-78117411D01*
X114251510Y-78061084D01*
X114251503Y-78061080D01*
X114138164Y-78014134D01*
X114138156Y-78014132D01*
X114017843Y-77990200D01*
X114017840Y-77990200D01*
X111276934Y-77990200D01*
X111209895Y-77970515D01*
X111164140Y-77917711D01*
X111154196Y-77848553D01*
X111183221Y-77784997D01*
X111189253Y-77778519D01*
X111854532Y-77113241D01*
X112549260Y-76418513D01*
X112617418Y-76316507D01*
X112636864Y-76269559D01*
X112664366Y-76203164D01*
X112688300Y-76082840D01*
X112688300Y-74487660D01*
X112688300Y-73217660D01*
X112688300Y-73155834D01*
X112707985Y-73088795D01*
X112724619Y-73068153D01*
X113894757Y-71898015D01*
X113894760Y-71898012D01*
X113962918Y-71796007D01*
X113970989Y-71776519D01*
X114014827Y-71722118D01*
X114081120Y-71700051D01*
X114148820Y-71717328D01*
G37*
%TD.AperFunction*%
%TA.AperFunction,Conductor*%
G36*
X113401904Y-69801885D02*
G01*
X113447659Y-69854689D01*
X113456481Y-69882007D01*
X113461645Y-69907969D01*
X113501053Y-69966947D01*
X113560031Y-70006355D01*
X113560032Y-70006355D01*
X113560033Y-70006356D01*
X113591178Y-70012550D01*
X113612039Y-70016700D01*
X113824900Y-70016699D01*
X113891939Y-70036383D01*
X113937694Y-70089187D01*
X113948900Y-70140699D01*
X113948900Y-70444057D01*
X113929215Y-70511096D01*
X113912581Y-70531738D01*
X113597427Y-70846892D01*
X113536104Y-70880377D01*
X113485554Y-70880828D01*
X113472342Y-70878200D01*
X113472340Y-70878200D01*
X113349660Y-70878200D01*
X113349658Y-70878200D01*
X113229342Y-70902133D01*
X113229339Y-70902134D01*
X113229337Y-70902134D01*
X113229336Y-70902135D01*
X113217562Y-70907012D01*
X113115988Y-70949084D01*
X113013988Y-71017239D01*
X113013984Y-71017242D01*
X111989988Y-72041240D01*
X111668488Y-72362740D01*
X111625113Y-72406115D01*
X111581738Y-72449489D01*
X111513585Y-72551487D01*
X111513580Y-72551496D01*
X111466634Y-72664835D01*
X111466632Y-72664843D01*
X111442700Y-72785155D01*
X111442700Y-75712165D01*
X111423015Y-75779204D01*
X111406381Y-75799846D01*
X110740063Y-76466165D01*
X110092988Y-77113240D01*
X110049613Y-77156615D01*
X110006238Y-77199989D01*
X109938085Y-77301987D01*
X109938080Y-77301996D01*
X109891134Y-77415335D01*
X109891132Y-77415343D01*
X109867200Y-77535655D01*
X109867200Y-78005065D01*
X109847515Y-78072104D01*
X109794711Y-78117859D01*
X109725553Y-78127803D01*
X109661997Y-78098778D01*
X109655519Y-78092746D01*
X107077119Y-75514346D01*
X107043634Y-75453023D01*
X107040800Y-75426665D01*
X107040800Y-72975729D01*
X107060485Y-72908690D01*
X107113289Y-72862935D01*
X107117326Y-72861177D01*
X107229006Y-72814918D01*
X107331012Y-72746760D01*
X108933653Y-71144119D01*
X108994976Y-71110634D01*
X109021334Y-71107800D01*
X111059342Y-71107800D01*
X111059343Y-71107799D01*
X111179664Y-71083866D01*
X111293006Y-71036918D01*
X111395012Y-70968760D01*
X112370760Y-69993012D01*
X112438918Y-69891006D01*
X112440937Y-69886132D01*
X112452280Y-69858748D01*
X112496120Y-69804344D01*
X112562414Y-69782279D01*
X112566841Y-69782200D01*
X113334865Y-69782200D01*
X113401904Y-69801885D01*
G37*
%TD.AperFunction*%
%TA.AperFunction,Conductor*%
G36*
X112511191Y-57805998D02*
G01*
X112545487Y-57828914D01*
X112545493Y-57828917D01*
X112545494Y-57828918D01*
X112658836Y-57875866D01*
X112779155Y-57899799D01*
X112779158Y-57899800D01*
X112779160Y-57899800D01*
X114123700Y-57899800D01*
X114190739Y-57919485D01*
X114236494Y-57972289D01*
X114247700Y-58023800D01*
X114247700Y-59631666D01*
X114228015Y-59698705D01*
X114211381Y-59719347D01*
X114089488Y-59841240D01*
X114062072Y-59868656D01*
X114002738Y-59927989D01*
X113934585Y-60029987D01*
X113934580Y-60029996D01*
X113887634Y-60143335D01*
X113887632Y-60143343D01*
X113863700Y-60263655D01*
X113863700Y-61969844D01*
X113887632Y-62090156D01*
X113887634Y-62090164D01*
X113934580Y-62203503D01*
X113934585Y-62203512D01*
X114002739Y-62305511D01*
X114002742Y-62305515D01*
X114341981Y-62644753D01*
X114375466Y-62706076D01*
X114378300Y-62732434D01*
X114378300Y-63192257D01*
X114358615Y-63259296D01*
X114305811Y-63305051D01*
X114236653Y-63314995D01*
X114173097Y-63285970D01*
X114166619Y-63279938D01*
X114128675Y-63241994D01*
X114096582Y-63186409D01*
X114067839Y-63079139D01*
X114056000Y-63058633D01*
X114010930Y-62980568D01*
X114010924Y-62980560D01*
X113930439Y-62900075D01*
X113930431Y-62900069D01*
X113831867Y-62843164D01*
X113831862Y-62843161D01*
X113795211Y-62833340D01*
X113721913Y-62813700D01*
X113721911Y-62813700D01*
X112640834Y-62813700D01*
X112573795Y-62794015D01*
X112553153Y-62777381D01*
X111716619Y-61940847D01*
X111683134Y-61879524D01*
X111680300Y-61853166D01*
X111680300Y-60634334D01*
X111699985Y-60567295D01*
X111716619Y-60546653D01*
X112179257Y-60084015D01*
X112179260Y-60084012D01*
X112247418Y-59982007D01*
X112294366Y-59868664D01*
X112318300Y-59748340D01*
X112318300Y-59625660D01*
X112318300Y-57909100D01*
X112337985Y-57842061D01*
X112390789Y-57796306D01*
X112459947Y-57786362D01*
X112511191Y-57805998D01*
G37*
%TD.AperFunction*%
%TA.AperFunction,Conductor*%
G36*
X149954939Y-51251985D02*
G01*
X150000694Y-51304789D01*
X150011900Y-51356300D01*
X150011900Y-66169500D01*
X149992215Y-66236539D01*
X149939411Y-66282294D01*
X149887900Y-66293500D01*
X144978341Y-66293500D01*
X144926329Y-66303845D01*
X144926327Y-66303846D01*
X144866202Y-66344022D01*
X144799525Y-66364900D01*
X144797311Y-66364920D01*
X117933718Y-66364920D01*
X117874174Y-66380875D01*
X117842081Y-66385100D01*
X117537041Y-66385100D01*
X117485030Y-66395445D01*
X117445622Y-66421777D01*
X117426055Y-66434852D01*
X117426052Y-66434854D01*
X117386644Y-66493832D01*
X117386643Y-66493833D01*
X117376300Y-66545835D01*
X117376300Y-66880958D01*
X117386644Y-66932966D01*
X117386645Y-66932969D01*
X117426053Y-66991947D01*
X117485031Y-67031355D01*
X117485032Y-67031355D01*
X117485033Y-67031356D01*
X117516178Y-67037550D01*
X117537039Y-67041700D01*
X117842080Y-67041699D01*
X117874173Y-67045924D01*
X117884753Y-67048758D01*
X117933722Y-67061880D01*
X144798210Y-67061880D01*
X144865249Y-67081565D01*
X144867101Y-67082778D01*
X144867352Y-67082945D01*
X144867353Y-67082947D01*
X144926331Y-67122355D01*
X144926332Y-67122355D01*
X144926333Y-67122356D01*
X144957478Y-67128550D01*
X144978339Y-67132700D01*
X149887900Y-67132699D01*
X149954939Y-67152384D01*
X150000694Y-67205188D01*
X150011900Y-67256699D01*
X150011900Y-90045500D01*
X149992215Y-90112539D01*
X149939411Y-90158294D01*
X149887900Y-90169500D01*
X94129900Y-90169500D01*
X94062861Y-90149815D01*
X94017106Y-90097011D01*
X94005900Y-90045500D01*
X94005900Y-71370206D01*
X95663520Y-71370206D01*
X95663520Y-71556194D01*
X95665178Y-71566660D01*
X95692615Y-71739893D01*
X95750086Y-71916774D01*
X95750087Y-71916777D01*
X95833934Y-72081335D01*
X95834525Y-72082494D01*
X95943846Y-72232961D01*
X96075359Y-72364474D01*
X96225826Y-72473795D01*
X96307105Y-72515208D01*
X96391542Y-72558232D01*
X96391545Y-72558233D01*
X96479985Y-72586968D01*
X96568428Y-72615705D01*
X96752126Y-72644800D01*
X96752127Y-72644800D01*
X96938113Y-72644800D01*
X96938114Y-72644800D01*
X97121812Y-72615705D01*
X97298697Y-72558232D01*
X97464414Y-72473795D01*
X97614881Y-72364474D01*
X97746394Y-72232961D01*
X97769139Y-72201655D01*
X105795200Y-72201655D01*
X105795200Y-75797344D01*
X105819132Y-75917656D01*
X105819134Y-75917664D01*
X105866080Y-76031003D01*
X105866085Y-76031012D01*
X105934239Y-76133011D01*
X105934242Y-76133015D01*
X108897984Y-79096757D01*
X108897988Y-79096760D01*
X108999993Y-79164918D01*
X109113335Y-79211865D01*
X109142803Y-79217726D01*
X109233657Y-79235800D01*
X109233660Y-79235800D01*
X109356341Y-79235800D01*
X109396812Y-79227749D01*
X109476664Y-79211865D01*
X109590006Y-79164918D01*
X109692012Y-79096760D01*
X109778760Y-79010012D01*
X109789395Y-78994094D01*
X109843004Y-78949288D01*
X109912328Y-78940578D01*
X109975357Y-78970730D01*
X109995600Y-78994089D01*
X110006240Y-79010013D01*
X110092984Y-79096757D01*
X110092988Y-79096760D01*
X110194987Y-79164914D01*
X110194993Y-79164917D01*
X110194994Y-79164918D01*
X110308336Y-79211866D01*
X110428655Y-79235799D01*
X110428658Y-79235800D01*
X110428660Y-79235800D01*
X114017842Y-79235800D01*
X114017843Y-79235799D01*
X114138164Y-79211866D01*
X114251506Y-79164918D01*
X114353512Y-79096760D01*
X114353515Y-79096757D01*
X114354519Y-79095754D01*
X114355174Y-79095396D01*
X114358222Y-79092895D01*
X114358696Y-79093472D01*
X114415842Y-79062269D01*
X114485534Y-79067253D01*
X114541467Y-79109125D01*
X114565884Y-79174589D01*
X114566200Y-79183435D01*
X114566200Y-82108900D01*
X114546515Y-82175939D01*
X114493711Y-82221694D01*
X114442200Y-82232900D01*
X114148641Y-82232900D01*
X114096630Y-82243245D01*
X114057222Y-82269577D01*
X114037655Y-82282652D01*
X114037652Y-82282654D01*
X113998244Y-82341632D01*
X113998243Y-82341633D01*
X113987900Y-82393634D01*
X113987900Y-84128758D01*
X113998004Y-84179558D01*
X113998245Y-84180769D01*
X114037653Y-84239747D01*
X114096631Y-84279155D01*
X114096632Y-84279155D01*
X114096633Y-84279156D01*
X114127778Y-84285350D01*
X114148639Y-84289500D01*
X115883760Y-84289499D01*
X115935769Y-84279155D01*
X115994747Y-84239747D01*
X116034155Y-84180769D01*
X116034395Y-84179565D01*
X116044499Y-84128765D01*
X116044500Y-84128761D01*
X116044499Y-82393640D01*
X116034155Y-82341631D01*
X115994747Y-82282653D01*
X115935769Y-82243245D01*
X115935768Y-82243244D01*
X115935767Y-82243244D01*
X115911607Y-82238438D01*
X115849696Y-82206052D01*
X115815123Y-82145335D01*
X115811800Y-82116821D01*
X115811800Y-78589157D01*
X115811799Y-78589155D01*
X115787867Y-78468838D01*
X115783739Y-78458873D01*
X115774300Y-78411419D01*
X115774300Y-77308834D01*
X115793985Y-77241795D01*
X115810614Y-77221157D01*
X115926760Y-77105012D01*
X115994918Y-77003007D01*
X116041866Y-76889664D01*
X116065800Y-76769340D01*
X116065800Y-76646660D01*
X116065800Y-76646657D01*
X116065799Y-76646655D01*
X116060895Y-76622003D01*
X116041866Y-76526336D01*
X116034543Y-76508656D01*
X116007739Y-76443944D01*
X115998300Y-76396492D01*
X115998300Y-72220434D01*
X116017985Y-72153395D01*
X116070789Y-72107640D01*
X116139947Y-72097696D01*
X116203503Y-72126721D01*
X116209981Y-72132753D01*
X116823881Y-72746653D01*
X116857366Y-72807976D01*
X116860200Y-72834334D01*
X116860200Y-76388344D01*
X116884132Y-76508656D01*
X116884134Y-76508664D01*
X116931080Y-76622003D01*
X116931085Y-76622012D01*
X116999239Y-76724011D01*
X116999242Y-76724015D01*
X117085984Y-76810757D01*
X117085988Y-76810760D01*
X117187987Y-76878914D01*
X117187993Y-76878917D01*
X117187994Y-76878918D01*
X117301336Y-76925866D01*
X117421655Y-76949799D01*
X117421658Y-76949800D01*
X117421660Y-76949800D01*
X117544342Y-76949800D01*
X117544343Y-76949799D01*
X117664664Y-76925866D01*
X117778006Y-76878918D01*
X117880012Y-76810760D01*
X117966760Y-76724012D01*
X118034918Y-76622006D01*
X118081866Y-76508664D01*
X118105800Y-76388340D01*
X118105800Y-74995660D01*
X118105800Y-72463660D01*
X118105800Y-72463657D01*
X118105799Y-72463655D01*
X118096549Y-72417153D01*
X118081866Y-72343336D01*
X118036148Y-72232963D01*
X118034919Y-72229996D01*
X118034914Y-72229987D01*
X117966761Y-72127989D01*
X117936468Y-72097696D01*
X117880012Y-72041240D01*
X117441837Y-71603065D01*
X116983015Y-71144242D01*
X116983011Y-71144239D01*
X116881012Y-71076085D01*
X116881003Y-71076080D01*
X116767664Y-71029134D01*
X116767656Y-71029132D01*
X116647343Y-71005200D01*
X116647340Y-71005200D01*
X116524660Y-71005200D01*
X116511442Y-71007829D01*
X116441851Y-71001600D01*
X116399572Y-70973892D01*
X115646619Y-70220938D01*
X115613134Y-70159615D01*
X115610300Y-70133257D01*
X115610300Y-69369861D01*
X115609239Y-69361803D01*
X115610149Y-69361683D01*
X115608883Y-69352055D01*
X115878300Y-69352055D01*
X115878300Y-69474744D01*
X115902232Y-69595056D01*
X115902234Y-69595064D01*
X115941861Y-69690732D01*
X115951300Y-69738184D01*
X115951300Y-69855958D01*
X115951978Y-69859366D01*
X115961645Y-69907969D01*
X116001053Y-69966947D01*
X116060031Y-70006355D01*
X116060032Y-70006355D01*
X116060033Y-70006356D01*
X116091178Y-70012550D01*
X116112039Y-70016700D01*
X116329510Y-70016699D01*
X116353703Y-70019082D01*
X116439757Y-70036200D01*
X116439760Y-70036200D01*
X116552423Y-70036200D01*
X116599875Y-70045638D01*
X116653536Y-70067866D01*
X116760724Y-70089187D01*
X116773855Y-70091799D01*
X116773858Y-70091800D01*
X116773860Y-70091800D01*
X117109200Y-70091800D01*
X117176239Y-70111485D01*
X117221994Y-70164289D01*
X117233200Y-70215800D01*
X117233200Y-70673344D01*
X117257132Y-70793656D01*
X117257134Y-70793664D01*
X117304080Y-70907003D01*
X117304085Y-70907012D01*
X117372239Y-71009011D01*
X117372242Y-71009015D01*
X121464939Y-75101711D01*
X121498424Y-75163034D01*
X121498876Y-75213581D01*
X121491700Y-75249660D01*
X121491700Y-75372344D01*
X121515632Y-75492656D01*
X121515634Y-75492664D01*
X121549761Y-75575053D01*
X121559200Y-75622506D01*
X121559200Y-76475229D01*
X121556817Y-76499421D01*
X121551200Y-76527658D01*
X121551200Y-79309344D01*
X121575132Y-79429656D01*
X121575134Y-79429664D01*
X121622080Y-79543003D01*
X121622085Y-79543012D01*
X121690239Y-79645011D01*
X121690242Y-79645015D01*
X122027881Y-79982653D01*
X122061366Y-80043976D01*
X122064200Y-80070334D01*
X122064200Y-82159700D01*
X122044515Y-82226739D01*
X121991711Y-82272494D01*
X121940201Y-82283700D01*
X121819441Y-82283700D01*
X121767430Y-82294045D01*
X121728022Y-82320377D01*
X121708455Y-82333452D01*
X121708452Y-82333454D01*
X121669044Y-82392432D01*
X121669043Y-82392433D01*
X121658700Y-82444434D01*
X121658700Y-84179558D01*
X121658941Y-84180769D01*
X121669045Y-84231569D01*
X121708453Y-84290547D01*
X121767431Y-84329955D01*
X121767432Y-84329955D01*
X121767433Y-84329956D01*
X121798578Y-84336150D01*
X121819439Y-84340300D01*
X123554560Y-84340299D01*
X123606569Y-84329955D01*
X123665547Y-84290547D01*
X123704955Y-84231569D01*
X123715300Y-84179561D01*
X123715299Y-82444440D01*
X123704955Y-82392431D01*
X123665547Y-82333453D01*
X123606569Y-82294045D01*
X123606568Y-82294044D01*
X123606567Y-82294044D01*
X123606566Y-82294043D01*
X123554565Y-82283700D01*
X123554561Y-82283700D01*
X123433800Y-82283700D01*
X123366761Y-82264015D01*
X123321006Y-82211211D01*
X123309800Y-82159700D01*
X123309800Y-79699657D01*
X123309799Y-79699655D01*
X123298930Y-79645012D01*
X123285866Y-79579336D01*
X123238918Y-79465994D01*
X123238917Y-79465993D01*
X123238914Y-79465987D01*
X123170761Y-79363989D01*
X123170760Y-79363988D01*
X123084012Y-79277240D01*
X122833119Y-79026347D01*
X122799634Y-78965024D01*
X122796800Y-78938666D01*
X122796800Y-76694770D01*
X122799183Y-76670577D01*
X122804800Y-76642340D01*
X122804800Y-74876657D01*
X122804799Y-74876655D01*
X122797307Y-74838989D01*
X122780866Y-74756336D01*
X122733918Y-74642994D01*
X122733917Y-74642993D01*
X122733914Y-74642987D01*
X122665761Y-74540989D01*
X122665760Y-74540988D01*
X122579012Y-74454240D01*
X118515119Y-70390347D01*
X118481634Y-70329024D01*
X118478800Y-70302666D01*
X118478800Y-69605526D01*
X118498485Y-69538487D01*
X118551289Y-69492732D01*
X118620447Y-69482788D01*
X118684003Y-69511813D01*
X118690461Y-69517825D01*
X118767692Y-69595056D01*
X118789311Y-69616675D01*
X118821403Y-69672261D01*
X118858814Y-69811876D01*
X118858818Y-69811887D01*
X118932444Y-69939411D01*
X118932450Y-69939419D01*
X122200074Y-73207044D01*
X122226954Y-73247272D01*
X122257080Y-73320002D01*
X122257085Y-73320012D01*
X122325239Y-73422011D01*
X122325242Y-73422015D01*
X122882483Y-73979257D01*
X122882491Y-73979263D01*
X122984482Y-74047411D01*
X122984484Y-74047412D01*
X122984493Y-74047418D01*
X123016557Y-74060699D01*
X123016558Y-74060700D01*
X123097831Y-74094364D01*
X123097836Y-74094366D01*
X123218155Y-74118299D01*
X123218158Y-74118300D01*
X123218160Y-74118300D01*
X128214666Y-74118300D01*
X128281705Y-74137985D01*
X128302347Y-74154619D01*
X128916436Y-74768708D01*
X128949921Y-74830031D01*
X128944937Y-74899723D01*
X128903065Y-74955656D01*
X128876208Y-74970950D01*
X128774497Y-75013080D01*
X128774487Y-75013085D01*
X128672488Y-75081239D01*
X128672484Y-75081242D01*
X128585742Y-75167984D01*
X128585739Y-75167988D01*
X128517585Y-75269987D01*
X128517580Y-75269996D01*
X128470634Y-75383335D01*
X128470632Y-75383343D01*
X128446700Y-75503655D01*
X128446700Y-81819344D01*
X128470632Y-81939656D01*
X128470634Y-81939664D01*
X128517580Y-82053003D01*
X128517585Y-82053012D01*
X128585739Y-82155011D01*
X128585742Y-82155015D01*
X128948381Y-82517653D01*
X128981866Y-82578976D01*
X128984700Y-82605334D01*
X128984700Y-85410900D01*
X128965015Y-85477939D01*
X128912211Y-85523694D01*
X128860700Y-85534900D01*
X128575841Y-85534900D01*
X128523830Y-85545245D01*
X128484422Y-85571577D01*
X128464855Y-85584652D01*
X128464852Y-85584654D01*
X128425444Y-85643632D01*
X128425443Y-85643633D01*
X128415100Y-85695634D01*
X128415100Y-87430758D01*
X128425444Y-87482766D01*
X128425445Y-87482769D01*
X128464853Y-87541747D01*
X128523831Y-87581155D01*
X128523832Y-87581155D01*
X128523833Y-87581156D01*
X128554978Y-87587350D01*
X128575839Y-87591500D01*
X130310960Y-87591499D01*
X130362969Y-87581155D01*
X130421947Y-87541747D01*
X130461355Y-87482769D01*
X130471700Y-87430761D01*
X130471699Y-85695640D01*
X130461355Y-85643631D01*
X130421947Y-85584653D01*
X130362969Y-85545245D01*
X130362968Y-85545244D01*
X130362967Y-85545244D01*
X130330108Y-85538708D01*
X130268197Y-85506323D01*
X130233623Y-85445607D01*
X130230300Y-85417091D01*
X130230300Y-82234657D01*
X130230299Y-82234655D01*
X130219760Y-82181672D01*
X130206366Y-82114336D01*
X130159418Y-82000994D01*
X130159417Y-82000993D01*
X130159414Y-82000987D01*
X130091261Y-81898989D01*
X130054627Y-81862355D01*
X130004512Y-81812240D01*
X129728619Y-81536347D01*
X129695134Y-81475024D01*
X129692300Y-81448666D01*
X129692300Y-76262434D01*
X129711985Y-76195395D01*
X129764789Y-76149640D01*
X129833947Y-76139696D01*
X129897503Y-76168721D01*
X129903981Y-76174753D01*
X130912881Y-77183653D01*
X130946366Y-77244976D01*
X130949200Y-77271334D01*
X130949200Y-78674344D01*
X130973132Y-78794656D01*
X130973134Y-78794664D01*
X131020080Y-78908003D01*
X131020085Y-78908012D01*
X131088239Y-79010011D01*
X131088242Y-79010015D01*
X134223581Y-82145353D01*
X134257066Y-82206676D01*
X134259900Y-82233034D01*
X134259900Y-85368244D01*
X134283832Y-85488556D01*
X134283834Y-85488564D01*
X134330780Y-85601903D01*
X134330785Y-85601912D01*
X134398939Y-85703911D01*
X134398942Y-85703915D01*
X135074381Y-86379353D01*
X135107866Y-86440676D01*
X135110700Y-86467034D01*
X135110700Y-87430758D01*
X135121044Y-87482766D01*
X135121045Y-87482769D01*
X135160453Y-87541747D01*
X135219431Y-87581155D01*
X135219432Y-87581155D01*
X135219433Y-87581156D01*
X135250578Y-87587350D01*
X135271439Y-87591500D01*
X137006560Y-87591499D01*
X137058569Y-87581155D01*
X137117547Y-87541747D01*
X137156955Y-87482769D01*
X137167300Y-87430761D01*
X137167299Y-85695640D01*
X137156955Y-85643631D01*
X137117547Y-85584653D01*
X137058569Y-85545245D01*
X137058568Y-85545244D01*
X137058567Y-85545244D01*
X137058566Y-85545243D01*
X137006565Y-85534900D01*
X137006561Y-85534900D01*
X136042835Y-85534900D01*
X135975796Y-85515215D01*
X135955154Y-85498581D01*
X135541819Y-85085246D01*
X135508334Y-85023923D01*
X135505500Y-84997565D01*
X135505500Y-81862357D01*
X135505499Y-81862355D01*
X135481566Y-81742036D01*
X135434618Y-81628694D01*
X135434617Y-81628693D01*
X135434614Y-81628687D01*
X135366461Y-81526689D01*
X135339800Y-81500028D01*
X135279712Y-81439940D01*
X132231119Y-78391347D01*
X132197634Y-78330024D01*
X132194800Y-78303666D01*
X132194800Y-76900657D01*
X132194799Y-76900655D01*
X132190474Y-76878914D01*
X132170866Y-76780336D01*
X132126245Y-76672612D01*
X132124600Y-76668013D01*
X132055760Y-76564988D01*
X132055757Y-76564984D01*
X130923619Y-75432846D01*
X130890134Y-75371523D01*
X130887300Y-75345165D01*
X130887300Y-75174657D01*
X130887299Y-75174655D01*
X130876521Y-75120472D01*
X130863366Y-75054336D01*
X130816418Y-74940994D01*
X130816417Y-74940993D01*
X130816414Y-74940987D01*
X130748261Y-74838989D01*
X130710427Y-74801155D01*
X130661512Y-74752240D01*
X129888529Y-73979257D01*
X129044254Y-73134981D01*
X129010769Y-73073658D01*
X129015753Y-73003966D01*
X129057625Y-72948033D01*
X129123089Y-72923616D01*
X129131935Y-72923300D01*
X133669660Y-72923300D01*
X134856166Y-72923300D01*
X134923205Y-72942985D01*
X134943847Y-72959619D01*
X137068381Y-75084153D01*
X137101866Y-75145476D01*
X137104700Y-75171834D01*
X137104700Y-77531344D01*
X137128632Y-77651656D01*
X137128634Y-77651664D01*
X137175580Y-77765003D01*
X137175585Y-77765012D01*
X137243739Y-77867011D01*
X137243742Y-77867015D01*
X140494940Y-81118212D01*
X140581688Y-81204960D01*
X140581689Y-81204961D01*
X140683687Y-81273114D01*
X140683693Y-81273117D01*
X140683694Y-81273118D01*
X140797036Y-81320066D01*
X140917355Y-81343999D01*
X140917358Y-81344000D01*
X140917360Y-81344000D01*
X140930301Y-81344000D01*
X140997340Y-81363685D01*
X141043095Y-81416489D01*
X141054301Y-81468000D01*
X141054301Y-81588760D01*
X141064645Y-81640769D01*
X141104053Y-81699747D01*
X141163031Y-81739155D01*
X141163032Y-81739155D01*
X141163033Y-81739156D01*
X141194178Y-81745350D01*
X141215039Y-81749500D01*
X142950160Y-81749499D01*
X143002169Y-81739155D01*
X143061147Y-81699747D01*
X143100555Y-81640769D01*
X143102957Y-81628696D01*
X143110899Y-81588765D01*
X143110900Y-81588761D01*
X143110899Y-79853640D01*
X143100555Y-79801631D01*
X143061147Y-79742653D01*
X143002169Y-79703245D01*
X143002168Y-79703244D01*
X143002167Y-79703244D01*
X143002166Y-79703243D01*
X142950163Y-79692900D01*
X141215041Y-79692900D01*
X141163030Y-79703245D01*
X141104051Y-79742654D01*
X141098620Y-79750783D01*
X141045005Y-79795585D01*
X140975680Y-79804289D01*
X140912654Y-79774131D01*
X140907840Y-79769568D01*
X138386619Y-77248347D01*
X138353134Y-77187024D01*
X138350300Y-77160666D01*
X138350300Y-74801157D01*
X138350299Y-74801155D01*
X138326367Y-74680843D01*
X138326366Y-74680836D01*
X138279418Y-74567494D01*
X138279417Y-74567493D01*
X138279414Y-74567487D01*
X138211261Y-74465489D01*
X138200012Y-74454240D01*
X138124512Y-74378740D01*
X136850244Y-73104472D01*
X135562515Y-71816742D01*
X135562511Y-71816739D01*
X135460512Y-71748585D01*
X135460503Y-71748580D01*
X135347164Y-71701634D01*
X135347156Y-71701632D01*
X135226843Y-71677700D01*
X135226840Y-71677700D01*
X133792340Y-71677700D01*
X127600834Y-71677700D01*
X127533795Y-71658015D01*
X127513153Y-71641381D01*
X127241678Y-71369906D01*
X146016480Y-71369906D01*
X146016480Y-71555894D01*
X146016528Y-71556194D01*
X146045575Y-71739593D01*
X146103046Y-71916474D01*
X146103047Y-71916477D01*
X146158349Y-72025012D01*
X146187485Y-72082194D01*
X146296806Y-72232661D01*
X146428319Y-72364174D01*
X146578786Y-72473495D01*
X146660065Y-72514908D01*
X146744502Y-72557932D01*
X146744505Y-72557933D01*
X146832945Y-72586668D01*
X146921388Y-72615405D01*
X147105086Y-72644500D01*
X147105087Y-72644500D01*
X147291073Y-72644500D01*
X147291074Y-72644500D01*
X147474772Y-72615405D01*
X147651657Y-72557932D01*
X147817374Y-72473495D01*
X147967841Y-72364174D01*
X148099354Y-72232661D01*
X148208675Y-72082194D01*
X148293112Y-71916477D01*
X148350585Y-71739592D01*
X148379680Y-71555894D01*
X148379680Y-71369906D01*
X148350585Y-71186208D01*
X148317332Y-71083865D01*
X148293113Y-71009325D01*
X148293112Y-71009322D01*
X148234229Y-70893759D01*
X148208675Y-70843606D01*
X148099354Y-70693139D01*
X147967841Y-70561626D01*
X147817374Y-70452305D01*
X147651657Y-70367867D01*
X147651654Y-70367866D01*
X147474773Y-70310395D01*
X147382923Y-70295847D01*
X147291074Y-70281300D01*
X147105086Y-70281300D01*
X147043853Y-70290998D01*
X146921386Y-70310395D01*
X146744505Y-70367866D01*
X146744502Y-70367867D01*
X146578785Y-70452305D01*
X146519443Y-70495420D01*
X146428319Y-70561626D01*
X146428317Y-70561628D01*
X146428316Y-70561628D01*
X146296808Y-70693136D01*
X146296808Y-70693137D01*
X146296806Y-70693139D01*
X146249857Y-70757758D01*
X146187485Y-70843605D01*
X146103047Y-71009322D01*
X146103046Y-71009325D01*
X146045575Y-71186206D01*
X146022326Y-71332994D01*
X146016480Y-71369906D01*
X127241678Y-71369906D01*
X123587015Y-67715242D01*
X123587011Y-67715239D01*
X123485012Y-67647085D01*
X123485003Y-67647080D01*
X123371664Y-67600134D01*
X123371656Y-67600132D01*
X123251343Y-67576200D01*
X123251340Y-67576200D01*
X119572660Y-67576200D01*
X119572657Y-67576200D01*
X119452343Y-67600132D01*
X119452335Y-67600134D01*
X119338996Y-67647080D01*
X119338987Y-67647085D01*
X119236988Y-67715239D01*
X119236984Y-67715242D01*
X119150242Y-67801984D01*
X119150239Y-67801988D01*
X119133132Y-67827591D01*
X119079519Y-67872396D01*
X119030030Y-67882700D01*
X117936060Y-67882700D01*
X117928005Y-67883760D01*
X117927885Y-67882850D01*
X117910781Y-67885100D01*
X117537041Y-67885100D01*
X117485030Y-67895445D01*
X117426052Y-67934854D01*
X117386644Y-67993832D01*
X117386643Y-67993833D01*
X117376300Y-68045835D01*
X117376300Y-68380959D01*
X117376301Y-68380960D01*
X117387886Y-68439210D01*
X117387886Y-68487587D01*
X117376300Y-68545838D01*
X117376300Y-68686100D01*
X117356615Y-68753139D01*
X117303811Y-68798894D01*
X117252301Y-68810100D01*
X117112040Y-68810100D01*
X117112039Y-68810101D01*
X117053789Y-68821686D01*
X117005412Y-68821686D01*
X116947159Y-68810099D01*
X116941100Y-68809503D01*
X116941138Y-68809110D01*
X116926992Y-68807717D01*
X116898560Y-68802061D01*
X116840942Y-68790600D01*
X116840940Y-68790600D01*
X116439760Y-68790600D01*
X116439755Y-68790600D01*
X116353704Y-68807717D01*
X116329514Y-68810100D01*
X116112041Y-68810100D01*
X116060030Y-68820445D01*
X116026112Y-68843109D01*
X116001055Y-68859852D01*
X116001052Y-68859854D01*
X115961644Y-68918832D01*
X115961643Y-68918833D01*
X115951300Y-68970834D01*
X115951300Y-69088615D01*
X115941861Y-69136068D01*
X115902234Y-69231735D01*
X115902232Y-69231743D01*
X115878300Y-69352055D01*
X115608883Y-69352055D01*
X115607899Y-69344575D01*
X115607899Y-68970841D01*
X115607008Y-68966362D01*
X115597555Y-68918831D01*
X115558147Y-68859853D01*
X115499169Y-68820445D01*
X115499168Y-68820444D01*
X115499167Y-68820444D01*
X115499166Y-68820443D01*
X115447163Y-68810100D01*
X115112040Y-68810100D01*
X115112039Y-68810101D01*
X115053789Y-68821686D01*
X115005412Y-68821686D01*
X114947161Y-68810100D01*
X114612040Y-68810100D01*
X114612039Y-68810101D01*
X114553789Y-68821686D01*
X114505412Y-68821686D01*
X114447161Y-68810100D01*
X114112040Y-68810100D01*
X114112039Y-68810101D01*
X114053789Y-68821686D01*
X114005412Y-68821686D01*
X113947161Y-68810100D01*
X113612041Y-68810100D01*
X113560030Y-68820445D01*
X113526112Y-68843109D01*
X113501053Y-68859853D01*
X113461645Y-68918831D01*
X113456481Y-68944791D01*
X113424097Y-69006701D01*
X113363382Y-69041276D01*
X113334864Y-69044600D01*
X112207922Y-69044600D01*
X112160469Y-69035161D01*
X112068664Y-68997134D01*
X112068656Y-68997132D01*
X111948343Y-68973200D01*
X111948340Y-68973200D01*
X111825660Y-68973200D01*
X111825657Y-68973200D01*
X111705343Y-68997132D01*
X111705335Y-68997134D01*
X111591996Y-69044080D01*
X111591987Y-69044085D01*
X111489988Y-69112239D01*
X111489984Y-69112242D01*
X110776347Y-69825881D01*
X110715024Y-69859366D01*
X110688666Y-69862200D01*
X108650657Y-69862200D01*
X108530343Y-69886132D01*
X108530335Y-69886134D01*
X108416996Y-69933080D01*
X108416987Y-69933085D01*
X108314988Y-70001239D01*
X108314984Y-70001242D01*
X106712347Y-71603881D01*
X106651024Y-71637366D01*
X106624666Y-71640200D01*
X106356657Y-71640200D01*
X106236343Y-71664132D01*
X106236335Y-71664134D01*
X106122996Y-71711080D01*
X106122987Y-71711085D01*
X106020988Y-71779239D01*
X106020984Y-71779242D01*
X105934242Y-71865984D01*
X105934239Y-71865988D01*
X105866085Y-71967987D01*
X105866080Y-71967996D01*
X105819134Y-72081335D01*
X105819132Y-72081343D01*
X105795200Y-72201655D01*
X97769139Y-72201655D01*
X97855715Y-72082494D01*
X97940152Y-71916777D01*
X97997625Y-71739892D01*
X98026720Y-71556194D01*
X98026720Y-71370206D01*
X97997625Y-71186508D01*
X97949021Y-71036918D01*
X97940153Y-71009625D01*
X97940152Y-71009622D01*
X97887866Y-70907006D01*
X97855715Y-70843906D01*
X97746394Y-70693439D01*
X97614881Y-70561926D01*
X97464414Y-70452605D01*
X97447638Y-70444057D01*
X97298697Y-70368167D01*
X97298694Y-70368166D01*
X97121813Y-70310695D01*
X97029963Y-70296147D01*
X96938114Y-70281600D01*
X96752126Y-70281600D01*
X96690893Y-70291298D01*
X96568426Y-70310695D01*
X96391545Y-70368166D01*
X96391542Y-70368167D01*
X96225825Y-70452605D01*
X96166896Y-70495420D01*
X96075359Y-70561926D01*
X96075357Y-70561928D01*
X96075356Y-70561928D01*
X95943848Y-70693436D01*
X95943848Y-70693437D01*
X95943846Y-70693439D01*
X95896897Y-70758058D01*
X95834525Y-70843905D01*
X95750087Y-71009622D01*
X95750086Y-71009625D01*
X95692615Y-71186506D01*
X95692615Y-71186508D01*
X95663520Y-71370206D01*
X94005900Y-71370206D01*
X94005900Y-67256999D01*
X94025585Y-67189960D01*
X94078389Y-67144205D01*
X94129895Y-67132999D01*
X99064860Y-67132999D01*
X99116869Y-67122655D01*
X99117318Y-67122355D01*
X99174649Y-67084048D01*
X99241326Y-67063170D01*
X99243540Y-67063150D01*
X113125643Y-67063150D01*
X113125645Y-67063150D01*
X113189932Y-67045923D01*
X113222025Y-67041699D01*
X113522158Y-67041699D01*
X113522160Y-67041699D01*
X113574169Y-67031355D01*
X113633147Y-66991947D01*
X113672555Y-66932969D01*
X113682900Y-66880961D01*
X113682899Y-66545840D01*
X113672555Y-66493831D01*
X113633147Y-66434853D01*
X113574169Y-66395445D01*
X113574168Y-66395444D01*
X113574167Y-66395444D01*
X113574166Y-66395443D01*
X113522165Y-66385100D01*
X113522161Y-66385100D01*
X113222023Y-66385100D01*
X113189930Y-66380875D01*
X113188970Y-66380617D01*
X113125645Y-66363650D01*
X113125644Y-66363650D01*
X99243540Y-66363650D01*
X99176501Y-66343965D01*
X99174650Y-66342753D01*
X99165584Y-66336695D01*
X99116869Y-66304145D01*
X99116866Y-66304144D01*
X99116866Y-66304143D01*
X99064865Y-66293800D01*
X94129900Y-66293800D01*
X94062861Y-66274115D01*
X94017106Y-66221311D01*
X94005900Y-66169800D01*
X94005900Y-61870606D01*
X95663520Y-61870606D01*
X95663520Y-62056593D01*
X95692615Y-62240293D01*
X95750086Y-62417174D01*
X95750087Y-62417177D01*
X95820392Y-62555156D01*
X95834525Y-62582894D01*
X95943846Y-62733361D01*
X96075359Y-62864874D01*
X96225826Y-62974195D01*
X96307105Y-63015608D01*
X96391542Y-63058632D01*
X96391545Y-63058633D01*
X96479985Y-63087368D01*
X96568428Y-63116105D01*
X96752126Y-63145200D01*
X96752127Y-63145200D01*
X96938113Y-63145200D01*
X96938114Y-63145200D01*
X97121812Y-63116105D01*
X97298697Y-63058632D01*
X97464414Y-62974195D01*
X97614881Y-62864874D01*
X97746394Y-62733361D01*
X97855715Y-62582894D01*
X97940152Y-62417177D01*
X97997625Y-62240292D01*
X98026720Y-62056594D01*
X98026720Y-61870606D01*
X97997625Y-61686908D01*
X97940152Y-61510023D01*
X97940152Y-61510022D01*
X97855714Y-61344305D01*
X97855496Y-61344005D01*
X97746394Y-61193839D01*
X97614881Y-61062326D01*
X97464414Y-60953005D01*
X97463825Y-60952705D01*
X97298697Y-60868567D01*
X97298694Y-60868566D01*
X97121813Y-60811095D01*
X97029963Y-60796547D01*
X96938114Y-60782000D01*
X96752126Y-60782000D01*
X96690893Y-60791698D01*
X96568426Y-60811095D01*
X96391545Y-60868566D01*
X96391542Y-60868567D01*
X96225825Y-60953005D01*
X96139978Y-61015377D01*
X96075359Y-61062326D01*
X96075357Y-61062328D01*
X96075356Y-61062328D01*
X95943848Y-61193836D01*
X95943848Y-61193837D01*
X95943846Y-61193839D01*
X95896897Y-61258458D01*
X95834525Y-61344305D01*
X95750087Y-61510022D01*
X95750086Y-61510025D01*
X95692615Y-61686906D01*
X95663520Y-61870606D01*
X94005900Y-61870606D01*
X94005900Y-60263655D01*
X110434700Y-60263655D01*
X110434700Y-62223844D01*
X110458632Y-62344156D01*
X110458634Y-62344164D01*
X110505580Y-62457503D01*
X110505585Y-62457512D01*
X110573739Y-62559511D01*
X110573742Y-62559515D01*
X111743984Y-63729757D01*
X111743988Y-63729760D01*
X111845988Y-63797915D01*
X111845989Y-63797915D01*
X111845993Y-63797918D01*
X111959336Y-63844865D01*
X111998715Y-63852698D01*
X112079658Y-63868800D01*
X112079660Y-63868800D01*
X112202341Y-63868800D01*
X112242812Y-63860749D01*
X112322664Y-63844865D01*
X112436006Y-63797918D01*
X112538012Y-63729760D01*
X112538015Y-63729757D01*
X112553154Y-63714619D01*
X112614477Y-63681134D01*
X112640835Y-63678300D01*
X113578258Y-63678300D01*
X113645297Y-63697985D01*
X113665939Y-63714619D01*
X113910181Y-63958861D01*
X113943666Y-64020184D01*
X113946500Y-64046542D01*
X113946500Y-64556935D01*
X113946501Y-64556944D01*
X113947075Y-64559086D01*
X113951300Y-64591177D01*
X113951300Y-64955958D01*
X113959495Y-64997160D01*
X113961645Y-65007969D01*
X114001053Y-65066947D01*
X114060031Y-65106355D01*
X114060032Y-65106355D01*
X114060033Y-65106356D01*
X114091178Y-65112550D01*
X114112039Y-65116700D01*
X114447160Y-65116699D01*
X114499169Y-65106355D01*
X114499171Y-65106353D01*
X114505408Y-65105113D01*
X114553789Y-65105114D01*
X114588782Y-65112074D01*
X114612039Y-65116700D01*
X114829510Y-65116699D01*
X114853703Y-65119082D01*
X114939757Y-65136200D01*
X114939760Y-65136200D01*
X115062441Y-65136200D01*
X115148493Y-65119082D01*
X115172686Y-65116699D01*
X115447158Y-65116699D01*
X115447160Y-65116699D01*
X115499169Y-65106355D01*
X115558147Y-65066947D01*
X115597555Y-65007969D01*
X115599705Y-64997163D01*
X115607899Y-64955964D01*
X115607900Y-64955961D01*
X115607899Y-64667389D01*
X115610281Y-64643200D01*
X115623900Y-64574740D01*
X115623900Y-62361760D01*
X115623900Y-62361757D01*
X115623899Y-62361755D01*
X115612712Y-62305515D01*
X115599966Y-62241436D01*
X115555345Y-62133712D01*
X115553700Y-62129113D01*
X115484860Y-62026088D01*
X115484857Y-62026084D01*
X115145619Y-61686846D01*
X115112134Y-61625523D01*
X115109300Y-61599165D01*
X115109300Y-60634334D01*
X115128985Y-60567295D01*
X115145619Y-60546653D01*
X115354257Y-60338015D01*
X115354260Y-60338012D01*
X115422418Y-60236006D01*
X115469366Y-60122664D01*
X115493300Y-60002340D01*
X115493300Y-59879660D01*
X115493300Y-57909100D01*
X115512985Y-57842061D01*
X115565789Y-57796306D01*
X115634947Y-57786362D01*
X115686191Y-57805998D01*
X115720487Y-57828914D01*
X115720493Y-57828917D01*
X115720494Y-57828918D01*
X115833836Y-57875866D01*
X115954155Y-57899799D01*
X115954158Y-57899800D01*
X115954160Y-57899800D01*
X116076840Y-57899800D01*
X116157666Y-57899800D01*
X116224705Y-57919485D01*
X116245347Y-57936119D01*
X117331881Y-59022653D01*
X117365366Y-59083976D01*
X117368200Y-59110334D01*
X117368200Y-60066276D01*
X117365817Y-60090467D01*
X117343700Y-60201655D01*
X117343700Y-62064166D01*
X117324015Y-62131205D01*
X117307381Y-62151847D01*
X116882588Y-62576640D01*
X116854464Y-62604764D01*
X116795838Y-62663389D01*
X116727685Y-62765387D01*
X116727680Y-62765396D01*
X116680734Y-62878735D01*
X116680732Y-62878743D01*
X116656800Y-62999055D01*
X116656800Y-63766600D01*
X116637115Y-63833639D01*
X116584311Y-63879394D01*
X116532800Y-63890600D01*
X116439755Y-63890600D01*
X116353704Y-63907717D01*
X116329514Y-63910100D01*
X116112041Y-63910100D01*
X116060030Y-63920445D01*
X116001052Y-63959854D01*
X115961644Y-64018832D01*
X115961643Y-64018833D01*
X115951300Y-64070834D01*
X115951300Y-64188615D01*
X115941861Y-64236068D01*
X115902234Y-64331735D01*
X115902232Y-64331743D01*
X115878300Y-64452055D01*
X115878300Y-64574744D01*
X115902232Y-64695056D01*
X115902234Y-64695064D01*
X115941861Y-64790732D01*
X115951300Y-64838184D01*
X115951300Y-64955958D01*
X115959495Y-64997160D01*
X115961645Y-65007969D01*
X116001053Y-65066947D01*
X116060031Y-65106355D01*
X116060032Y-65106355D01*
X116060033Y-65106356D01*
X116091178Y-65112550D01*
X116112039Y-65116700D01*
X116329510Y-65116699D01*
X116353703Y-65119082D01*
X116439757Y-65136200D01*
X116439760Y-65136200D01*
X117340941Y-65136200D01*
X117384180Y-65127598D01*
X117426997Y-65119081D01*
X117441135Y-65117689D01*
X117441097Y-65117296D01*
X117447157Y-65116699D01*
X117447160Y-65116699D01*
X117499169Y-65106355D01*
X117527566Y-65087380D01*
X117548991Y-65075927D01*
X117574606Y-65065318D01*
X117676612Y-64997160D01*
X117763360Y-64910412D01*
X117831518Y-64808406D01*
X117878466Y-64695064D01*
X117902400Y-64574740D01*
X117902400Y-63369734D01*
X117922085Y-63302695D01*
X117938719Y-63282053D01*
X118450257Y-62770515D01*
X118450260Y-62770512D01*
X118518418Y-62668507D01*
X118544821Y-62604764D01*
X118565366Y-62555164D01*
X118589300Y-62434840D01*
X118589300Y-61870306D01*
X146016480Y-61870306D01*
X146016480Y-62056294D01*
X146023586Y-62101160D01*
X146045575Y-62239993D01*
X146103046Y-62416874D01*
X146103047Y-62416877D01*
X146175724Y-62559512D01*
X146187485Y-62582594D01*
X146296806Y-62733061D01*
X146428319Y-62864574D01*
X146578786Y-62973895D01*
X146628175Y-62999060D01*
X146744502Y-63058332D01*
X146744505Y-63058333D01*
X146808541Y-63079139D01*
X146921388Y-63115805D01*
X147105086Y-63144900D01*
X147105087Y-63144900D01*
X147291073Y-63144900D01*
X147291074Y-63144900D01*
X147474772Y-63115805D01*
X147651657Y-63058332D01*
X147817374Y-62973895D01*
X147967841Y-62864574D01*
X148099354Y-62733061D01*
X148208675Y-62582594D01*
X148293112Y-62416877D01*
X148350585Y-62239992D01*
X148379680Y-62056294D01*
X148379680Y-61870306D01*
X148350585Y-61686608D01*
X148293210Y-61510025D01*
X148293113Y-61509725D01*
X148293112Y-61509722D01*
X148250088Y-61425285D01*
X148208675Y-61344006D01*
X148099354Y-61193539D01*
X147967841Y-61062026D01*
X147817374Y-60952705D01*
X147651657Y-60868267D01*
X147651654Y-60868266D01*
X147474773Y-60810795D01*
X147382923Y-60796247D01*
X147291074Y-60781700D01*
X147105086Y-60781700D01*
X147043853Y-60791398D01*
X146921386Y-60810795D01*
X146744505Y-60868266D01*
X146744502Y-60868267D01*
X146578785Y-60952705D01*
X146492938Y-61015077D01*
X146428319Y-61062026D01*
X146428317Y-61062028D01*
X146428316Y-61062028D01*
X146296808Y-61193536D01*
X146296808Y-61193537D01*
X146296806Y-61193539D01*
X146249857Y-61258158D01*
X146187485Y-61344005D01*
X146103047Y-61509722D01*
X146103046Y-61509725D01*
X146045575Y-61686606D01*
X146045527Y-61686908D01*
X146016480Y-61870306D01*
X118589300Y-61870306D01*
X118589300Y-60435221D01*
X118591683Y-60411029D01*
X118613800Y-60299842D01*
X118613800Y-58739657D01*
X118613799Y-58739655D01*
X118589867Y-58619343D01*
X118589866Y-58619336D01*
X118545245Y-58511612D01*
X118543599Y-58507011D01*
X118474763Y-58403991D01*
X118474757Y-58403983D01*
X117209703Y-57138929D01*
X117176218Y-57077606D01*
X117181202Y-57007914D01*
X117209701Y-56963569D01*
X118448653Y-55724618D01*
X118509976Y-55691133D01*
X118536334Y-55688299D01*
X119043590Y-55688299D01*
X119043592Y-55688299D01*
X119072525Y-55685587D01*
X119194392Y-55642944D01*
X119298275Y-55566275D01*
X119374944Y-55462392D01*
X119417587Y-55340525D01*
X119420300Y-55311593D01*
X119420299Y-53908408D01*
X119417587Y-53879475D01*
X119374944Y-53757608D01*
X119298275Y-53653725D01*
X119194392Y-53577056D01*
X119194390Y-53577055D01*
X119072532Y-53534414D01*
X119072520Y-53534412D01*
X119043597Y-53531700D01*
X119043593Y-53531700D01*
X118520834Y-53531700D01*
X118453795Y-53512015D01*
X118433153Y-53495381D01*
X117743215Y-52805442D01*
X117743211Y-52805439D01*
X117641212Y-52737285D01*
X117641203Y-52737280D01*
X117527864Y-52690334D01*
X117527856Y-52690332D01*
X117407543Y-52666400D01*
X117407540Y-52666400D01*
X113730099Y-52666400D01*
X113663060Y-52646715D01*
X113617305Y-52593911D01*
X113606099Y-52542400D01*
X113606099Y-52421641D01*
X113595755Y-52369633D01*
X113595755Y-52369631D01*
X113556347Y-52310653D01*
X113497369Y-52271245D01*
X113497368Y-52271244D01*
X113497367Y-52271244D01*
X113497366Y-52271243D01*
X113445363Y-52260900D01*
X111710241Y-52260900D01*
X111658230Y-52271245D01*
X111618822Y-52297577D01*
X111599255Y-52310652D01*
X111599252Y-52310654D01*
X111559844Y-52369632D01*
X111559843Y-52369633D01*
X111549500Y-52421634D01*
X111549500Y-54156758D01*
X111559844Y-54208766D01*
X111559845Y-54208769D01*
X111599253Y-54267747D01*
X111658231Y-54307155D01*
X111658232Y-54307155D01*
X111658233Y-54307156D01*
X111689378Y-54313350D01*
X111710239Y-54317500D01*
X113445360Y-54317499D01*
X113497369Y-54307155D01*
X113556347Y-54267747D01*
X113595755Y-54208769D01*
X113606100Y-54156761D01*
X113606100Y-54036000D01*
X113625785Y-53968961D01*
X113678589Y-53923206D01*
X113730100Y-53912000D01*
X117036866Y-53912000D01*
X117103905Y-53931685D01*
X117124547Y-53948319D01*
X117706296Y-54530068D01*
X117739781Y-54591391D01*
X117734797Y-54661083D01*
X117706296Y-54705430D01*
X115530681Y-56881046D01*
X115469358Y-56914531D01*
X115399666Y-56909547D01*
X115355319Y-56881046D01*
X115267515Y-56793242D01*
X115267511Y-56793239D01*
X115165512Y-56725085D01*
X115165503Y-56725080D01*
X115052164Y-56678134D01*
X115052156Y-56678132D01*
X114931843Y-56654200D01*
X114931840Y-56654200D01*
X112779160Y-56654200D01*
X112779157Y-56654200D01*
X112658843Y-56678132D01*
X112658835Y-56678134D01*
X112545496Y-56725080D01*
X112545487Y-56725085D01*
X112443488Y-56793239D01*
X112443484Y-56793242D01*
X112355681Y-56881046D01*
X112294358Y-56914531D01*
X112224666Y-56909547D01*
X112180319Y-56881046D01*
X112092515Y-56793242D01*
X112092511Y-56793239D01*
X111990512Y-56725085D01*
X111990503Y-56725080D01*
X111877164Y-56678134D01*
X111877156Y-56678132D01*
X111756843Y-56654200D01*
X111756840Y-56654200D01*
X111634160Y-56654200D01*
X111634157Y-56654200D01*
X111513843Y-56678132D01*
X111513835Y-56678134D01*
X111400496Y-56725080D01*
X111400487Y-56725085D01*
X111298488Y-56793239D01*
X111298484Y-56793242D01*
X111211742Y-56879984D01*
X111211739Y-56879988D01*
X111143585Y-56981987D01*
X111143580Y-56981996D01*
X111096634Y-57095335D01*
X111096632Y-57095343D01*
X111072700Y-57215655D01*
X111072700Y-59377666D01*
X111053015Y-59444705D01*
X111036381Y-59465347D01*
X110660488Y-59841240D01*
X110633072Y-59868656D01*
X110573738Y-59927989D01*
X110505585Y-60029987D01*
X110505580Y-60029996D01*
X110458634Y-60143335D01*
X110458632Y-60143343D01*
X110434700Y-60263655D01*
X94005900Y-60263655D01*
X94005900Y-51356300D01*
X94025585Y-51289261D01*
X94078389Y-51243506D01*
X94129900Y-51232300D01*
X149887900Y-51232300D01*
X149954939Y-51251985D01*
G37*
%TD.AperFunction*%
%TD*%
M02*
