%TF.GenerationSoftware,KiCad,Pcbnew,8.0.4*%
%TF.CreationDate,2025-12-21T10:28:17-08:00*%
%TF.ProjectId,Power_Amplifier,506f7765-725f-4416-9d70-6c6966696572,rev?*%
%TF.SameCoordinates,Original*%
%TF.FileFunction,Drillmap*%
%TF.FilePolarity,Positive*%
%FSLAX45Y45*%
G04 Gerber Fmt 4.5, Leading zero omitted, Abs format (unit mm)*
G04 Created by KiCad (PCBNEW 8.0.4) date 2025-12-21 10:28:17*
%MOMM*%
%LPD*%
G01*
G04 APERTURE LIST*
%ADD10C,0.050000*%
%ADD11C,0.200000*%
%ADD12C,0.100000*%
G04 APERTURE END LIST*
D10*
X9382760Y-5105400D02*
X15019020Y-5105400D01*
X15019020Y-9034780D01*
X9382760Y-9034780D01*
X9382760Y-5105400D01*
D11*
D12*
X9536350Y-5372120D02*
X9561750Y-5397520D01*
X9561750Y-5372120D02*
X9536350Y-5397520D01*
X9536350Y-5513080D02*
X9561750Y-5538480D01*
X9561750Y-5513080D02*
X9536350Y-5538480D01*
X9536350Y-5654040D02*
X9561750Y-5679440D01*
X9561750Y-5654040D02*
X9536350Y-5679440D01*
X9536350Y-5795000D02*
X9561750Y-5820400D01*
X9561750Y-5795000D02*
X9536350Y-5820400D01*
X9536350Y-7486520D02*
X9561750Y-7511920D01*
X9561750Y-7486520D02*
X9536350Y-7511920D01*
X9536350Y-7627480D02*
X9561750Y-7652880D01*
X9561750Y-7627480D02*
X9536350Y-7652880D01*
X9536350Y-7768440D02*
X9561750Y-7793840D01*
X9561750Y-7768440D02*
X9536350Y-7793840D01*
X9536350Y-7909400D02*
X9561750Y-7934800D01*
X9561750Y-7909400D02*
X9536350Y-7934800D01*
X9536350Y-8050360D02*
X9561750Y-8075760D01*
X9561750Y-8050360D02*
X9536350Y-8075760D01*
X9536350Y-8191320D02*
X9561750Y-8216720D01*
X9561750Y-8191320D02*
X9536350Y-8216720D01*
X9536350Y-8332280D02*
X9561750Y-8357680D01*
X9561750Y-8332280D02*
X9536350Y-8357680D01*
X9536350Y-8473240D02*
X9561750Y-8498640D01*
X9561750Y-8473240D02*
X9536350Y-8498640D01*
X9536350Y-8614200D02*
X9561750Y-8639600D01*
X9561750Y-8614200D02*
X9536350Y-8639600D01*
X9536350Y-8755160D02*
X9561750Y-8780560D01*
X9561750Y-8755160D02*
X9536350Y-8780560D01*
X9672234Y-6832600D02*
X9697634Y-6858000D01*
X9697634Y-6832600D02*
X9672234Y-6858000D01*
X9677310Y-5372120D02*
X9702710Y-5397520D01*
X9702710Y-5372120D02*
X9677310Y-5397520D01*
X9677310Y-5513080D02*
X9702710Y-5538480D01*
X9702710Y-5513080D02*
X9677310Y-5538480D01*
X9677310Y-5654040D02*
X9702710Y-5679440D01*
X9702710Y-5654040D02*
X9677310Y-5679440D01*
X9677310Y-5795000D02*
X9702710Y-5820400D01*
X9702710Y-5795000D02*
X9677310Y-5820400D01*
X9677310Y-7486520D02*
X9702710Y-7511920D01*
X9702710Y-7486520D02*
X9677310Y-7511920D01*
X9677310Y-7627480D02*
X9702710Y-7652880D01*
X9702710Y-7627480D02*
X9677310Y-7652880D01*
X9677310Y-7768440D02*
X9702710Y-7793840D01*
X9702710Y-7768440D02*
X9677310Y-7793840D01*
X9677310Y-7909400D02*
X9702710Y-7934800D01*
X9702710Y-7909400D02*
X9677310Y-7934800D01*
X9677310Y-8050360D02*
X9702710Y-8075760D01*
X9702710Y-8050360D02*
X9677310Y-8075760D01*
X9677310Y-8191320D02*
X9702710Y-8216720D01*
X9702710Y-8191320D02*
X9677310Y-8216720D01*
X9677310Y-8332280D02*
X9702710Y-8357680D01*
X9702710Y-8332280D02*
X9677310Y-8357680D01*
X9677310Y-8473240D02*
X9702710Y-8498640D01*
X9702710Y-8473240D02*
X9677310Y-8498640D01*
X9677310Y-8614200D02*
X9702710Y-8639600D01*
X9702710Y-8614200D02*
X9677310Y-8639600D01*
X9677310Y-8755160D02*
X9702710Y-8780560D01*
X9702710Y-8755160D02*
X9677310Y-8780560D01*
X9684934Y-6489700D02*
X9710334Y-6515100D01*
X9710334Y-6489700D02*
X9684934Y-6515100D01*
X9717414Y-6908800D02*
X9742814Y-6934200D01*
X9742814Y-6908800D02*
X9717414Y-6934200D01*
X9718666Y-6558640D02*
X9744066Y-6584040D01*
X9744066Y-6558640D02*
X9718666Y-6584040D01*
X9718666Y-6758640D02*
X9744066Y-6784040D01*
X9744066Y-6758640D02*
X9718666Y-6784040D01*
X9734610Y-6413500D02*
X9760010Y-6438900D01*
X9760010Y-6413500D02*
X9734610Y-6438900D01*
X9747310Y-6832600D02*
X9772710Y-6858000D01*
X9772710Y-6832600D02*
X9747310Y-6858000D01*
X9760010Y-6489700D02*
X9785410Y-6515100D01*
X9785410Y-6489700D02*
X9760010Y-6515100D01*
X9792489Y-6908800D02*
X9817889Y-6934200D01*
X9817889Y-6908800D02*
X9792489Y-6934200D01*
X9793742Y-6558640D02*
X9819142Y-6584040D01*
X9819142Y-6558640D02*
X9793742Y-6584040D01*
X9793742Y-6758640D02*
X9819142Y-6784040D01*
X9819142Y-6758640D02*
X9793742Y-6784040D01*
X9809686Y-6413500D02*
X9835086Y-6438900D01*
X9835086Y-6413500D02*
X9809686Y-6438900D01*
X9818270Y-5372120D02*
X9843670Y-5397520D01*
X9843670Y-5372120D02*
X9818270Y-5397520D01*
X9818270Y-5513080D02*
X9843670Y-5538480D01*
X9843670Y-5513080D02*
X9818270Y-5538480D01*
X9818270Y-5654040D02*
X9843670Y-5679440D01*
X9843670Y-5654040D02*
X9818270Y-5679440D01*
X9818270Y-5795000D02*
X9843670Y-5820400D01*
X9843670Y-5795000D02*
X9818270Y-5820400D01*
X9818270Y-7486520D02*
X9843670Y-7511920D01*
X9843670Y-7486520D02*
X9818270Y-7511920D01*
X9818270Y-7627480D02*
X9843670Y-7652880D01*
X9843670Y-7627480D02*
X9818270Y-7652880D01*
X9818270Y-7768440D02*
X9843670Y-7793840D01*
X9843670Y-7768440D02*
X9818270Y-7793840D01*
X9818270Y-7909400D02*
X9843670Y-7934800D01*
X9843670Y-7909400D02*
X9818270Y-7934800D01*
X9818270Y-8050360D02*
X9843670Y-8075760D01*
X9843670Y-8050360D02*
X9818270Y-8075760D01*
X9818270Y-8191320D02*
X9843670Y-8216720D01*
X9843670Y-8191320D02*
X9818270Y-8216720D01*
X9818270Y-8332280D02*
X9843670Y-8357680D01*
X9843670Y-8332280D02*
X9818270Y-8357680D01*
X9818270Y-8473240D02*
X9843670Y-8498640D01*
X9843670Y-8473240D02*
X9818270Y-8498640D01*
X9818270Y-8614200D02*
X9843670Y-8639600D01*
X9843670Y-8614200D02*
X9818270Y-8639600D01*
X9818270Y-8755160D02*
X9843670Y-8780560D01*
X9843670Y-8755160D02*
X9818270Y-8780560D01*
X9822386Y-6832600D02*
X9847786Y-6858000D01*
X9847786Y-6832600D02*
X9822386Y-6858000D01*
X9835086Y-6489700D02*
X9860486Y-6515100D01*
X9860486Y-6489700D02*
X9835086Y-6515100D01*
X9867565Y-6908800D02*
X9892965Y-6934200D01*
X9892965Y-6908800D02*
X9867565Y-6934200D01*
X9868818Y-6558640D02*
X9894218Y-6584040D01*
X9894218Y-6558640D02*
X9868818Y-6584040D01*
X9868818Y-6758640D02*
X9894218Y-6784040D01*
X9894218Y-6758640D02*
X9868818Y-6784040D01*
X9884762Y-6413500D02*
X9910162Y-6438900D01*
X9910162Y-6413500D02*
X9884762Y-6438900D01*
X9897462Y-6832600D02*
X9922862Y-6858000D01*
X9922862Y-6832600D02*
X9897462Y-6858000D01*
X9910162Y-6489700D02*
X9935562Y-6515100D01*
X9935562Y-6489700D02*
X9910162Y-6515100D01*
X9942641Y-6908800D02*
X9968041Y-6934200D01*
X9968041Y-6908800D02*
X9942641Y-6934200D01*
X9943894Y-6558640D02*
X9969294Y-6584040D01*
X9969294Y-6558640D02*
X9943894Y-6584040D01*
X9943894Y-6758640D02*
X9969294Y-6784040D01*
X9969294Y-6758640D02*
X9943894Y-6784040D01*
X9959230Y-5372120D02*
X9984630Y-5397520D01*
X9984630Y-5372120D02*
X9959230Y-5397520D01*
X9959230Y-5513080D02*
X9984630Y-5538480D01*
X9984630Y-5513080D02*
X9959230Y-5538480D01*
X9959230Y-5654040D02*
X9984630Y-5679440D01*
X9984630Y-5654040D02*
X9959230Y-5679440D01*
X9959230Y-5795000D02*
X9984630Y-5820400D01*
X9984630Y-5795000D02*
X9959230Y-5820400D01*
X9959230Y-7486520D02*
X9984630Y-7511920D01*
X9984630Y-7486520D02*
X9959230Y-7511920D01*
X9959230Y-7627480D02*
X9984630Y-7652880D01*
X9984630Y-7627480D02*
X9959230Y-7652880D01*
X9959230Y-7768440D02*
X9984630Y-7793840D01*
X9984630Y-7768440D02*
X9959230Y-7793840D01*
X9959230Y-7909400D02*
X9984630Y-7934800D01*
X9984630Y-7909400D02*
X9959230Y-7934800D01*
X9959230Y-8050360D02*
X9984630Y-8075760D01*
X9984630Y-8050360D02*
X9959230Y-8075760D01*
X9959230Y-8191320D02*
X9984630Y-8216720D01*
X9984630Y-8191320D02*
X9959230Y-8216720D01*
X9959230Y-8332280D02*
X9984630Y-8357680D01*
X9984630Y-8332280D02*
X9959230Y-8357680D01*
X9959230Y-8473240D02*
X9984630Y-8498640D01*
X9984630Y-8473240D02*
X9959230Y-8498640D01*
X9959230Y-8614200D02*
X9984630Y-8639600D01*
X9984630Y-8614200D02*
X9959230Y-8639600D01*
X9959230Y-8755160D02*
X9984630Y-8780560D01*
X9984630Y-8755160D02*
X9959230Y-8780560D01*
X9959838Y-6413500D02*
X9985238Y-6438900D01*
X9985238Y-6413500D02*
X9959838Y-6438900D01*
X9972538Y-6832600D02*
X9997938Y-6858000D01*
X9997938Y-6832600D02*
X9972538Y-6858000D01*
X9985238Y-6489700D02*
X10010638Y-6515100D01*
X10010638Y-6489700D02*
X9985238Y-6515100D01*
X10017717Y-6908800D02*
X10043117Y-6934200D01*
X10043117Y-6908800D02*
X10017717Y-6934200D01*
X10018970Y-6558640D02*
X10044370Y-6584040D01*
X10044370Y-6558640D02*
X10018970Y-6584040D01*
X10018970Y-6758640D02*
X10044370Y-6784040D01*
X10044370Y-6758640D02*
X10018970Y-6784040D01*
X10034914Y-6413500D02*
X10060314Y-6438900D01*
X10060314Y-6413500D02*
X10034914Y-6438900D01*
X10047614Y-6832600D02*
X10073014Y-6858000D01*
X10073014Y-6832600D02*
X10047614Y-6858000D01*
X10060314Y-6489700D02*
X10085714Y-6515100D01*
X10085714Y-6489700D02*
X10060314Y-6515100D01*
X10092793Y-6908800D02*
X10118193Y-6934200D01*
X10118193Y-6908800D02*
X10092793Y-6934200D01*
X10094046Y-6558640D02*
X10119446Y-6584040D01*
X10119446Y-6558640D02*
X10094046Y-6584040D01*
X10094046Y-6758640D02*
X10119446Y-6784040D01*
X10119446Y-6758640D02*
X10094046Y-6784040D01*
X10100190Y-5372120D02*
X10125590Y-5397520D01*
X10125590Y-5372120D02*
X10100190Y-5397520D01*
X10100190Y-5513080D02*
X10125590Y-5538480D01*
X10125590Y-5513080D02*
X10100190Y-5538480D01*
X10100190Y-5654040D02*
X10125590Y-5679440D01*
X10125590Y-5654040D02*
X10100190Y-5679440D01*
X10100190Y-5795000D02*
X10125590Y-5820400D01*
X10125590Y-5795000D02*
X10100190Y-5820400D01*
X10100190Y-5935960D02*
X10125590Y-5961360D01*
X10125590Y-5935960D02*
X10100190Y-5961360D01*
X10100190Y-6076920D02*
X10125590Y-6102320D01*
X10125590Y-6076920D02*
X10100190Y-6102320D01*
X10100190Y-6217880D02*
X10125590Y-6243280D01*
X10125590Y-6217880D02*
X10100190Y-6243280D01*
X10100190Y-7204600D02*
X10125590Y-7230000D01*
X10125590Y-7204600D02*
X10100190Y-7230000D01*
X10100190Y-7345560D02*
X10125590Y-7370960D01*
X10125590Y-7345560D02*
X10100190Y-7370960D01*
X10100190Y-7486520D02*
X10125590Y-7511920D01*
X10125590Y-7486520D02*
X10100190Y-7511920D01*
X10100190Y-7627480D02*
X10125590Y-7652880D01*
X10125590Y-7627480D02*
X10100190Y-7652880D01*
X10100190Y-7768440D02*
X10125590Y-7793840D01*
X10125590Y-7768440D02*
X10100190Y-7793840D01*
X10100190Y-7909400D02*
X10125590Y-7934800D01*
X10125590Y-7909400D02*
X10100190Y-7934800D01*
X10100190Y-8050360D02*
X10125590Y-8075760D01*
X10125590Y-8050360D02*
X10100190Y-8075760D01*
X10100190Y-8191320D02*
X10125590Y-8216720D01*
X10125590Y-8191320D02*
X10100190Y-8216720D01*
X10100190Y-8332280D02*
X10125590Y-8357680D01*
X10125590Y-8332280D02*
X10100190Y-8357680D01*
X10100190Y-8473240D02*
X10125590Y-8498640D01*
X10125590Y-8473240D02*
X10100190Y-8498640D01*
X10100190Y-8614200D02*
X10125590Y-8639600D01*
X10125590Y-8614200D02*
X10100190Y-8639600D01*
X10100190Y-8755160D02*
X10125590Y-8780560D01*
X10125590Y-8755160D02*
X10100190Y-8780560D01*
X10109989Y-6413500D02*
X10135389Y-6438900D01*
X10135389Y-6413500D02*
X10109989Y-6438900D01*
X10122689Y-6832600D02*
X10148089Y-6858000D01*
X10148089Y-6832600D02*
X10122689Y-6858000D01*
X10135389Y-6489700D02*
X10160789Y-6515100D01*
X10160789Y-6489700D02*
X10135389Y-6515100D01*
X10167869Y-6908800D02*
X10193269Y-6934200D01*
X10193269Y-6908800D02*
X10167869Y-6934200D01*
X10169122Y-6558640D02*
X10194522Y-6584040D01*
X10194522Y-6558640D02*
X10169122Y-6584040D01*
X10169122Y-6758640D02*
X10194522Y-6784040D01*
X10194522Y-6758640D02*
X10169122Y-6784040D01*
X10185065Y-6413500D02*
X10210465Y-6438900D01*
X10210465Y-6413500D02*
X10185065Y-6438900D01*
X10197765Y-6832600D02*
X10223165Y-6858000D01*
X10223165Y-6832600D02*
X10197765Y-6858000D01*
X10210465Y-6489700D02*
X10235865Y-6515100D01*
X10235865Y-6489700D02*
X10210465Y-6515100D01*
X10241150Y-5372120D02*
X10266550Y-5397520D01*
X10266550Y-5372120D02*
X10241150Y-5397520D01*
X10241150Y-5513080D02*
X10266550Y-5538480D01*
X10266550Y-5513080D02*
X10241150Y-5538480D01*
X10241150Y-5654040D02*
X10266550Y-5679440D01*
X10266550Y-5654040D02*
X10241150Y-5679440D01*
X10241150Y-5795000D02*
X10266550Y-5820400D01*
X10266550Y-5795000D02*
X10241150Y-5820400D01*
X10241150Y-5935960D02*
X10266550Y-5961360D01*
X10266550Y-5935960D02*
X10241150Y-5961360D01*
X10241150Y-6076920D02*
X10266550Y-6102320D01*
X10266550Y-6076920D02*
X10241150Y-6102320D01*
X10241150Y-6217880D02*
X10266550Y-6243280D01*
X10266550Y-6217880D02*
X10241150Y-6243280D01*
X10241150Y-7204600D02*
X10266550Y-7230000D01*
X10266550Y-7204600D02*
X10241150Y-7230000D01*
X10241150Y-7345560D02*
X10266550Y-7370960D01*
X10266550Y-7345560D02*
X10241150Y-7370960D01*
X10241150Y-7486520D02*
X10266550Y-7511920D01*
X10266550Y-7486520D02*
X10241150Y-7511920D01*
X10241150Y-7627480D02*
X10266550Y-7652880D01*
X10266550Y-7627480D02*
X10241150Y-7652880D01*
X10241150Y-7768440D02*
X10266550Y-7793840D01*
X10266550Y-7768440D02*
X10241150Y-7793840D01*
X10241150Y-7909400D02*
X10266550Y-7934800D01*
X10266550Y-7909400D02*
X10241150Y-7934800D01*
X10241150Y-8050360D02*
X10266550Y-8075760D01*
X10266550Y-8050360D02*
X10241150Y-8075760D01*
X10241150Y-8191320D02*
X10266550Y-8216720D01*
X10266550Y-8191320D02*
X10241150Y-8216720D01*
X10241150Y-8332280D02*
X10266550Y-8357680D01*
X10266550Y-8332280D02*
X10241150Y-8357680D01*
X10241150Y-8473240D02*
X10266550Y-8498640D01*
X10266550Y-8473240D02*
X10241150Y-8498640D01*
X10241150Y-8614200D02*
X10266550Y-8639600D01*
X10266550Y-8614200D02*
X10241150Y-8639600D01*
X10241150Y-8755160D02*
X10266550Y-8780560D01*
X10266550Y-8755160D02*
X10241150Y-8780560D01*
X10242945Y-6908800D02*
X10268345Y-6934200D01*
X10268345Y-6908800D02*
X10242945Y-6934200D01*
X10244198Y-6558640D02*
X10269598Y-6584040D01*
X10269598Y-6558640D02*
X10244198Y-6584040D01*
X10244198Y-6758640D02*
X10269598Y-6784040D01*
X10269598Y-6758640D02*
X10244198Y-6784040D01*
X10260141Y-6413500D02*
X10285541Y-6438900D01*
X10285541Y-6413500D02*
X10260141Y-6438900D01*
X10272841Y-6832600D02*
X10298241Y-6858000D01*
X10298241Y-6832600D02*
X10272841Y-6858000D01*
X10285541Y-6489700D02*
X10310941Y-6515100D01*
X10310941Y-6489700D02*
X10285541Y-6515100D01*
X10318021Y-6908800D02*
X10343421Y-6934200D01*
X10343421Y-6908800D02*
X10318021Y-6934200D01*
X10319274Y-6558640D02*
X10344674Y-6584040D01*
X10344674Y-6558640D02*
X10319274Y-6584040D01*
X10319274Y-6758640D02*
X10344674Y-6784040D01*
X10344674Y-6758640D02*
X10319274Y-6784040D01*
X10335217Y-6413500D02*
X10360617Y-6438900D01*
X10360617Y-6413500D02*
X10335217Y-6438900D01*
X10347917Y-6832600D02*
X10373317Y-6858000D01*
X10373317Y-6832600D02*
X10347917Y-6858000D01*
X10360617Y-6489700D02*
X10386017Y-6515100D01*
X10386017Y-6489700D02*
X10360617Y-6515100D01*
X10382110Y-5372120D02*
X10407510Y-5397520D01*
X10407510Y-5372120D02*
X10382110Y-5397520D01*
X10382110Y-5513080D02*
X10407510Y-5538480D01*
X10407510Y-5513080D02*
X10382110Y-5538480D01*
X10382110Y-5654040D02*
X10407510Y-5679440D01*
X10407510Y-5654040D02*
X10382110Y-5679440D01*
X10382110Y-5795000D02*
X10407510Y-5820400D01*
X10407510Y-5795000D02*
X10382110Y-5820400D01*
X10382110Y-5935960D02*
X10407510Y-5961360D01*
X10407510Y-5935960D02*
X10382110Y-5961360D01*
X10382110Y-6076920D02*
X10407510Y-6102320D01*
X10407510Y-6076920D02*
X10382110Y-6102320D01*
X10382110Y-6217880D02*
X10407510Y-6243280D01*
X10407510Y-6217880D02*
X10382110Y-6243280D01*
X10382110Y-7627480D02*
X10407510Y-7652880D01*
X10407510Y-7627480D02*
X10382110Y-7652880D01*
X10382110Y-7768440D02*
X10407510Y-7793840D01*
X10407510Y-7768440D02*
X10382110Y-7793840D01*
X10382110Y-7909400D02*
X10407510Y-7934800D01*
X10407510Y-7909400D02*
X10382110Y-7934800D01*
X10382110Y-8050360D02*
X10407510Y-8075760D01*
X10407510Y-8050360D02*
X10382110Y-8075760D01*
X10382110Y-8191320D02*
X10407510Y-8216720D01*
X10407510Y-8191320D02*
X10382110Y-8216720D01*
X10382110Y-8332280D02*
X10407510Y-8357680D01*
X10407510Y-8332280D02*
X10382110Y-8357680D01*
X10382110Y-8473240D02*
X10407510Y-8498640D01*
X10407510Y-8473240D02*
X10382110Y-8498640D01*
X10382110Y-8614200D02*
X10407510Y-8639600D01*
X10407510Y-8614200D02*
X10382110Y-8639600D01*
X10382110Y-8755160D02*
X10407510Y-8780560D01*
X10407510Y-8755160D02*
X10382110Y-8780560D01*
X10393096Y-6908800D02*
X10418496Y-6934200D01*
X10418496Y-6908800D02*
X10393096Y-6934200D01*
X10394349Y-6558640D02*
X10419749Y-6584040D01*
X10419749Y-6558640D02*
X10394349Y-6584040D01*
X10394349Y-6758640D02*
X10419749Y-6784040D01*
X10419749Y-6758640D02*
X10394349Y-6784040D01*
X10410293Y-6413500D02*
X10435693Y-6438900D01*
X10435693Y-6413500D02*
X10410293Y-6438900D01*
X10422993Y-6832600D02*
X10448393Y-6858000D01*
X10448393Y-6832600D02*
X10422993Y-6858000D01*
X10435693Y-6489700D02*
X10461093Y-6515100D01*
X10461093Y-6489700D02*
X10435693Y-6515100D01*
X10452100Y-7213600D02*
X10477500Y-7239000D01*
X10477500Y-7213600D02*
X10452100Y-7239000D01*
X10452100Y-7366000D02*
X10477500Y-7391400D01*
X10477500Y-7366000D02*
X10452100Y-7391400D01*
X10468172Y-6908800D02*
X10493572Y-6934200D01*
X10493572Y-6908800D02*
X10468172Y-6934200D01*
X10469425Y-6558640D02*
X10494825Y-6584040D01*
X10494825Y-6558640D02*
X10469425Y-6584040D01*
X10469425Y-6758640D02*
X10494825Y-6784040D01*
X10494825Y-6758640D02*
X10469425Y-6784040D01*
X10485369Y-6413500D02*
X10510769Y-6438900D01*
X10510769Y-6413500D02*
X10485369Y-6438900D01*
X10498069Y-6832600D02*
X10523469Y-6858000D01*
X10523469Y-6832600D02*
X10498069Y-6858000D01*
X10510769Y-6489700D02*
X10536169Y-6515100D01*
X10536169Y-6489700D02*
X10510769Y-6515100D01*
X10523070Y-5372120D02*
X10548470Y-5397520D01*
X10548470Y-5372120D02*
X10523070Y-5397520D01*
X10523070Y-5513080D02*
X10548470Y-5538480D01*
X10548470Y-5513080D02*
X10523070Y-5538480D01*
X10523070Y-5654040D02*
X10548470Y-5679440D01*
X10548470Y-5654040D02*
X10523070Y-5679440D01*
X10523070Y-5795000D02*
X10548470Y-5820400D01*
X10548470Y-5795000D02*
X10523070Y-5820400D01*
X10523070Y-5935960D02*
X10548470Y-5961360D01*
X10548470Y-5935960D02*
X10523070Y-5961360D01*
X10523070Y-6076920D02*
X10548470Y-6102320D01*
X10548470Y-6076920D02*
X10523070Y-6102320D01*
X10523070Y-6217880D02*
X10548470Y-6243280D01*
X10548470Y-6217880D02*
X10523070Y-6243280D01*
X10523070Y-7768440D02*
X10548470Y-7793840D01*
X10548470Y-7768440D02*
X10523070Y-7793840D01*
X10523070Y-7909400D02*
X10548470Y-7934800D01*
X10548470Y-7909400D02*
X10523070Y-7934800D01*
X10523070Y-8050360D02*
X10548470Y-8075760D01*
X10548470Y-8050360D02*
X10523070Y-8075760D01*
X10523070Y-8191320D02*
X10548470Y-8216720D01*
X10548470Y-8191320D02*
X10523070Y-8216720D01*
X10523070Y-8332280D02*
X10548470Y-8357680D01*
X10548470Y-8332280D02*
X10523070Y-8357680D01*
X10523070Y-8473240D02*
X10548470Y-8498640D01*
X10548470Y-8473240D02*
X10523070Y-8498640D01*
X10523070Y-8614200D02*
X10548470Y-8639600D01*
X10548470Y-8614200D02*
X10523070Y-8639600D01*
X10523070Y-8755160D02*
X10548470Y-8780560D01*
X10548470Y-8755160D02*
X10523070Y-8780560D01*
X10543248Y-6908800D02*
X10568648Y-6934200D01*
X10568648Y-6908800D02*
X10543248Y-6934200D01*
X10544501Y-6558640D02*
X10569901Y-6584040D01*
X10569901Y-6558640D02*
X10544501Y-6584040D01*
X10544501Y-6758640D02*
X10569901Y-6784040D01*
X10569901Y-6758640D02*
X10544501Y-6784040D01*
X10560445Y-6413500D02*
X10585845Y-6438900D01*
X10585845Y-6413500D02*
X10560445Y-6438900D01*
X10573145Y-6832600D02*
X10598545Y-6858000D01*
X10598545Y-6832600D02*
X10573145Y-6858000D01*
X10585845Y-6489700D02*
X10611245Y-6515100D01*
X10611245Y-6489700D02*
X10585845Y-6515100D01*
X10618324Y-6908800D02*
X10643724Y-6934200D01*
X10643724Y-6908800D02*
X10618324Y-6934200D01*
X10619577Y-6558640D02*
X10644977Y-6584040D01*
X10644977Y-6558640D02*
X10619577Y-6584040D01*
X10619577Y-6758640D02*
X10644977Y-6784040D01*
X10644977Y-6758640D02*
X10619577Y-6784040D01*
X10635521Y-6413500D02*
X10660921Y-6438900D01*
X10660921Y-6413500D02*
X10635521Y-6438900D01*
X10648221Y-6832600D02*
X10673621Y-6858000D01*
X10673621Y-6832600D02*
X10648221Y-6858000D01*
X10660921Y-6489700D02*
X10686321Y-6515100D01*
X10686321Y-6489700D02*
X10660921Y-6515100D01*
X10664030Y-5372120D02*
X10689430Y-5397520D01*
X10689430Y-5372120D02*
X10664030Y-5397520D01*
X10664030Y-5513080D02*
X10689430Y-5538480D01*
X10689430Y-5513080D02*
X10664030Y-5538480D01*
X10664030Y-5654040D02*
X10689430Y-5679440D01*
X10689430Y-5654040D02*
X10664030Y-5679440D01*
X10664030Y-5795000D02*
X10689430Y-5820400D01*
X10689430Y-5795000D02*
X10664030Y-5820400D01*
X10664030Y-5935960D02*
X10689430Y-5961360D01*
X10689430Y-5935960D02*
X10664030Y-5961360D01*
X10664030Y-6076920D02*
X10689430Y-6102320D01*
X10689430Y-6076920D02*
X10664030Y-6102320D01*
X10664030Y-6217880D02*
X10689430Y-6243280D01*
X10689430Y-6217880D02*
X10664030Y-6243280D01*
X10664030Y-7909400D02*
X10689430Y-7934800D01*
X10689430Y-7909400D02*
X10664030Y-7934800D01*
X10664030Y-8050360D02*
X10689430Y-8075760D01*
X10689430Y-8050360D02*
X10664030Y-8075760D01*
X10664030Y-8191320D02*
X10689430Y-8216720D01*
X10689430Y-8191320D02*
X10664030Y-8216720D01*
X10664030Y-8332280D02*
X10689430Y-8357680D01*
X10689430Y-8332280D02*
X10664030Y-8357680D01*
X10664030Y-8473240D02*
X10689430Y-8498640D01*
X10689430Y-8473240D02*
X10664030Y-8498640D01*
X10664030Y-8614200D02*
X10689430Y-8639600D01*
X10689430Y-8614200D02*
X10664030Y-8639600D01*
X10664030Y-8755160D02*
X10689430Y-8780560D01*
X10689430Y-8755160D02*
X10664030Y-8780560D01*
X10693400Y-6908800D02*
X10718800Y-6934200D01*
X10718800Y-6908800D02*
X10693400Y-6934200D01*
X10694653Y-6558640D02*
X10720053Y-6584040D01*
X10720053Y-6558640D02*
X10694653Y-6584040D01*
X10694653Y-6758640D02*
X10720053Y-6784040D01*
X10720053Y-6758640D02*
X10694653Y-6784040D01*
X10710597Y-6413500D02*
X10735997Y-6438900D01*
X10735997Y-6413500D02*
X10710597Y-6438900D01*
X10723297Y-6832600D02*
X10748697Y-6858000D01*
X10748697Y-6832600D02*
X10723297Y-6858000D01*
X10735997Y-6489700D02*
X10761397Y-6515100D01*
X10761397Y-6489700D02*
X10735997Y-6515100D01*
X10756900Y-7355840D02*
X10782300Y-7381240D01*
X10782300Y-7355840D02*
X10756900Y-7381240D01*
X10769729Y-6558640D02*
X10795129Y-6584040D01*
X10795129Y-6558640D02*
X10769729Y-6584040D01*
X10769729Y-6758640D02*
X10795129Y-6784040D01*
X10795129Y-6758640D02*
X10769729Y-6784040D01*
X10785672Y-6413500D02*
X10811072Y-6438900D01*
X10811072Y-6413500D02*
X10785672Y-6438900D01*
X10798372Y-6832600D02*
X10823772Y-6858000D01*
X10823772Y-6832600D02*
X10798372Y-6858000D01*
X10804990Y-5513080D02*
X10830390Y-5538480D01*
X10830390Y-5513080D02*
X10804990Y-5538480D01*
X10804990Y-5654040D02*
X10830390Y-5679440D01*
X10830390Y-5654040D02*
X10804990Y-5679440D01*
X10804990Y-5795000D02*
X10830390Y-5820400D01*
X10830390Y-5795000D02*
X10804990Y-5820400D01*
X10804990Y-8050360D02*
X10830390Y-8075760D01*
X10830390Y-8050360D02*
X10804990Y-8075760D01*
X10804990Y-8191320D02*
X10830390Y-8216720D01*
X10830390Y-8191320D02*
X10804990Y-8216720D01*
X10804990Y-8332280D02*
X10830390Y-8357680D01*
X10830390Y-8332280D02*
X10804990Y-8357680D01*
X10804990Y-8473240D02*
X10830390Y-8498640D01*
X10830390Y-8473240D02*
X10804990Y-8498640D01*
X10804990Y-8614200D02*
X10830390Y-8639600D01*
X10830390Y-8614200D02*
X10804990Y-8639600D01*
X10804990Y-8755160D02*
X10830390Y-8780560D01*
X10830390Y-8755160D02*
X10804990Y-8780560D01*
X10811072Y-6489700D02*
X10836472Y-6515100D01*
X10836472Y-6489700D02*
X10811072Y-6515100D01*
X10844805Y-6558640D02*
X10870205Y-6584040D01*
X10870205Y-6558640D02*
X10844805Y-6584040D01*
X10844805Y-6758640D02*
X10870205Y-6784040D01*
X10870205Y-6758640D02*
X10844805Y-6784040D01*
X10860748Y-6413500D02*
X10886148Y-6438900D01*
X10886148Y-6413500D02*
X10860748Y-6438900D01*
X10873448Y-6832600D02*
X10898848Y-6858000D01*
X10898848Y-6832600D02*
X10873448Y-6858000D01*
X10886148Y-6489700D02*
X10911548Y-6515100D01*
X10911548Y-6489700D02*
X10886148Y-6515100D01*
X10919881Y-6558640D02*
X10945281Y-6584040D01*
X10945281Y-6558640D02*
X10919881Y-6584040D01*
X10919881Y-6758640D02*
X10945281Y-6784040D01*
X10945281Y-6758640D02*
X10919881Y-6784040D01*
X10922000Y-6019800D02*
X10947400Y-6045200D01*
X10947400Y-6019800D02*
X10922000Y-6045200D01*
X10922000Y-6146800D02*
X10947400Y-6172200D01*
X10947400Y-6146800D02*
X10922000Y-6172200D01*
X10922000Y-7632700D02*
X10947400Y-7658100D01*
X10947400Y-7632700D02*
X10922000Y-7658100D01*
X10935824Y-6413500D02*
X10961224Y-6438900D01*
X10961224Y-6413500D02*
X10935824Y-6438900D01*
X10945950Y-5513080D02*
X10971350Y-5538480D01*
X10971350Y-5513080D02*
X10945950Y-5538480D01*
X10945950Y-5654040D02*
X10971350Y-5679440D01*
X10971350Y-5654040D02*
X10945950Y-5679440D01*
X10945950Y-5795000D02*
X10971350Y-5820400D01*
X10971350Y-5795000D02*
X10945950Y-5820400D01*
X10945950Y-8050360D02*
X10971350Y-8075760D01*
X10971350Y-8050360D02*
X10945950Y-8075760D01*
X10945950Y-8191320D02*
X10971350Y-8216720D01*
X10971350Y-8191320D02*
X10945950Y-8216720D01*
X10945950Y-8332280D02*
X10971350Y-8357680D01*
X10971350Y-8332280D02*
X10945950Y-8357680D01*
X10945950Y-8473240D02*
X10971350Y-8498640D01*
X10971350Y-8473240D02*
X10945950Y-8498640D01*
X10945950Y-8614200D02*
X10971350Y-8639600D01*
X10971350Y-8614200D02*
X10945950Y-8639600D01*
X10945950Y-8755160D02*
X10971350Y-8780560D01*
X10971350Y-8755160D02*
X10945950Y-8780560D01*
X10947400Y-7162800D02*
X10972800Y-7188200D01*
X10972800Y-7162800D02*
X10947400Y-7188200D01*
X10948524Y-6832600D02*
X10973924Y-6858000D01*
X10973924Y-6832600D02*
X10948524Y-6858000D01*
X10961224Y-6489700D02*
X10986624Y-6515100D01*
X10986624Y-6489700D02*
X10961224Y-6515100D01*
X10994956Y-6558640D02*
X11020356Y-6584040D01*
X11020356Y-6558640D02*
X10994956Y-6584040D01*
X10994956Y-6758640D02*
X11020356Y-6784040D01*
X11020356Y-6758640D02*
X10994956Y-6784040D01*
X11010900Y-6413500D02*
X11036300Y-6438900D01*
X11036300Y-6413500D02*
X11010900Y-6438900D01*
X11023600Y-6832600D02*
X11049000Y-6858000D01*
X11049000Y-6832600D02*
X11023600Y-6858000D01*
X11023600Y-7315200D02*
X11049000Y-7340600D01*
X11049000Y-7315200D02*
X11023600Y-7340600D01*
X11023600Y-7442200D02*
X11049000Y-7467600D01*
X11049000Y-7442200D02*
X11023600Y-7467600D01*
X11036300Y-6489700D02*
X11061700Y-6515100D01*
X11061700Y-6489700D02*
X11036300Y-6515100D01*
X11070032Y-6558640D02*
X11095432Y-6584040D01*
X11095432Y-6558640D02*
X11070032Y-6584040D01*
X11070032Y-6758640D02*
X11095432Y-6784040D01*
X11095432Y-6758640D02*
X11070032Y-6784040D01*
X11085976Y-6413500D02*
X11111376Y-6438900D01*
X11111376Y-6413500D02*
X11085976Y-6438900D01*
X11086910Y-5513080D02*
X11112310Y-5538480D01*
X11112310Y-5513080D02*
X11086910Y-5538480D01*
X11086910Y-8050360D02*
X11112310Y-8075760D01*
X11112310Y-8050360D02*
X11086910Y-8075760D01*
X11086910Y-8614200D02*
X11112310Y-8639600D01*
X11112310Y-8614200D02*
X11086910Y-8639600D01*
X11086910Y-8755160D02*
X11112310Y-8780560D01*
X11112310Y-8755160D02*
X11086910Y-8780560D01*
X11098676Y-6832600D02*
X11124076Y-6858000D01*
X11124076Y-6832600D02*
X11098676Y-6858000D01*
X11099800Y-7162800D02*
X11125200Y-7188200D01*
X11125200Y-7162800D02*
X11099800Y-7188200D01*
X11111376Y-6489700D02*
X11136776Y-6515100D01*
X11136776Y-6489700D02*
X11111376Y-6515100D01*
X11145108Y-6558640D02*
X11170508Y-6584040D01*
X11170508Y-6558640D02*
X11145108Y-6584040D01*
X11145108Y-6758640D02*
X11170508Y-6784040D01*
X11170508Y-6758640D02*
X11145108Y-6784040D01*
X11161052Y-6413500D02*
X11186452Y-6438900D01*
X11186452Y-6413500D02*
X11161052Y-6438900D01*
X11186452Y-6489700D02*
X11211852Y-6515100D01*
X11211852Y-6489700D02*
X11186452Y-6515100D01*
X11220184Y-6558640D02*
X11245584Y-6584040D01*
X11245584Y-6558640D02*
X11220184Y-6584040D01*
X11220184Y-6758640D02*
X11245584Y-6784040D01*
X11245584Y-6758640D02*
X11220184Y-6784040D01*
X11227870Y-5513080D02*
X11253270Y-5538480D01*
X11253270Y-5513080D02*
X11227870Y-5538480D01*
X11227870Y-8050360D02*
X11253270Y-8075760D01*
X11253270Y-8050360D02*
X11227870Y-8075760D01*
X11227870Y-8614200D02*
X11253270Y-8639600D01*
X11253270Y-8614200D02*
X11227870Y-8639600D01*
X11227870Y-8755160D02*
X11253270Y-8780560D01*
X11253270Y-8755160D02*
X11227870Y-8780560D01*
X11264900Y-6019800D02*
X11290300Y-6045200D01*
X11290300Y-6019800D02*
X11264900Y-6045200D01*
X11264900Y-6146800D02*
X11290300Y-6172200D01*
X11290300Y-6146800D02*
X11264900Y-6172200D01*
X11264900Y-7035800D02*
X11290300Y-7061200D01*
X11290300Y-7035800D02*
X11264900Y-7061200D01*
X11295260Y-6558640D02*
X11320660Y-6584040D01*
X11320660Y-6558640D02*
X11295260Y-6584040D01*
X11295260Y-6758640D02*
X11320660Y-6784040D01*
X11320660Y-6758640D02*
X11295260Y-6784040D01*
X11315700Y-5854700D02*
X11341100Y-5880100D01*
X11341100Y-5854700D02*
X11315700Y-5880100D01*
X11328400Y-6438900D02*
X11353800Y-6464300D01*
X11353800Y-6438900D02*
X11328400Y-6464300D01*
X11353800Y-7416800D02*
X11379200Y-7442200D01*
X11379200Y-7416800D02*
X11353800Y-7442200D01*
X11353800Y-7543800D02*
X11379200Y-7569200D01*
X11379200Y-7543800D02*
X11353800Y-7569200D01*
X11368830Y-5513080D02*
X11394230Y-5538480D01*
X11394230Y-5513080D02*
X11368830Y-5538480D01*
X11368830Y-8614200D02*
X11394230Y-8639600D01*
X11394230Y-8614200D02*
X11368830Y-8639600D01*
X11368830Y-8755160D02*
X11394230Y-8780560D01*
X11394230Y-8755160D02*
X11368830Y-8780560D01*
X11404600Y-6540500D02*
X11430000Y-6565900D01*
X11430000Y-6540500D02*
X11404600Y-6565900D01*
X11404600Y-6616700D02*
X11430000Y-6642100D01*
X11430000Y-6616700D02*
X11404600Y-6642100D01*
X11404600Y-6705600D02*
X11430000Y-6731000D01*
X11430000Y-6705600D02*
X11404600Y-6731000D01*
X11404681Y-6794500D02*
X11430081Y-6819900D01*
X11430081Y-6794500D02*
X11404681Y-6819900D01*
X11493500Y-6540581D02*
X11518900Y-6565981D01*
X11518900Y-6540581D02*
X11493500Y-6565981D01*
X11493500Y-6616700D02*
X11518900Y-6642100D01*
X11518900Y-6616700D02*
X11493500Y-6642100D01*
X11493500Y-6705600D02*
X11518900Y-6731000D01*
X11518900Y-6705600D02*
X11493500Y-6731000D01*
X11493581Y-6794500D02*
X11518981Y-6819900D01*
X11518981Y-6794500D02*
X11493581Y-6819900D01*
X11509790Y-8614200D02*
X11535190Y-8639600D01*
X11535190Y-8614200D02*
X11509790Y-8639600D01*
X11509790Y-8755160D02*
X11535190Y-8780560D01*
X11535190Y-8755160D02*
X11509790Y-8780560D01*
X11582400Y-6540500D02*
X11607800Y-6565900D01*
X11607800Y-6540500D02*
X11582400Y-6565900D01*
X11582400Y-6616700D02*
X11607800Y-6642100D01*
X11607800Y-6616700D02*
X11582400Y-6642100D01*
X11582400Y-6705600D02*
X11607800Y-6731000D01*
X11607800Y-6705600D02*
X11582400Y-6731000D01*
X11582481Y-6794500D02*
X11607881Y-6819900D01*
X11607881Y-6794500D02*
X11582481Y-6819900D01*
X11595100Y-5880100D02*
X11620500Y-5905500D01*
X11620500Y-5880100D02*
X11595100Y-5905500D01*
X11620500Y-5969000D02*
X11645900Y-5994400D01*
X11645900Y-5969000D02*
X11620500Y-5994400D01*
X11620500Y-6057900D02*
X11645900Y-6083300D01*
X11645900Y-6057900D02*
X11620500Y-6083300D01*
X11620500Y-6146800D02*
X11645900Y-6172200D01*
X11645900Y-6146800D02*
X11620500Y-6172200D01*
X11632035Y-7487477D02*
X11657435Y-7512877D01*
X11657435Y-7487477D02*
X11632035Y-7512877D01*
X11633200Y-7353300D02*
X11658600Y-7378700D01*
X11658600Y-7353300D02*
X11633200Y-7378700D01*
X11650750Y-8614200D02*
X11676150Y-8639600D01*
X11676150Y-8614200D02*
X11650750Y-8639600D01*
X11650750Y-8755160D02*
X11676150Y-8780560D01*
X11676150Y-8755160D02*
X11650750Y-8780560D01*
X11671300Y-6540500D02*
X11696700Y-6565900D01*
X11696700Y-6540500D02*
X11671300Y-6565900D01*
X11671300Y-6616700D02*
X11696700Y-6642100D01*
X11696700Y-6616700D02*
X11671300Y-6642100D01*
X11671300Y-6705600D02*
X11696700Y-6731000D01*
X11696700Y-6705600D02*
X11671300Y-6731000D01*
X11671381Y-6794500D02*
X11696781Y-6819900D01*
X11696781Y-6794500D02*
X11671381Y-6819900D01*
X11785260Y-6558640D02*
X11810660Y-6584040D01*
X11810660Y-6558640D02*
X11785260Y-6584040D01*
X11785600Y-6731000D02*
X11811000Y-6756400D01*
X11811000Y-6731000D02*
X11785600Y-6756400D01*
X11791710Y-7909400D02*
X11817110Y-7934800D01*
X11817110Y-7909400D02*
X11791710Y-7934800D01*
X11791710Y-8050360D02*
X11817110Y-8075760D01*
X11817110Y-8050360D02*
X11791710Y-8075760D01*
X11791710Y-8191320D02*
X11817110Y-8216720D01*
X11817110Y-8191320D02*
X11791710Y-8216720D01*
X11791710Y-8332280D02*
X11817110Y-8357680D01*
X11817110Y-8332280D02*
X11791710Y-8357680D01*
X11791710Y-8473240D02*
X11817110Y-8498640D01*
X11817110Y-8473240D02*
X11791710Y-8498640D01*
X11791710Y-8614200D02*
X11817110Y-8639600D01*
X11817110Y-8614200D02*
X11791710Y-8639600D01*
X11791710Y-8755160D02*
X11817110Y-8780560D01*
X11817110Y-8755160D02*
X11791710Y-8780560D01*
X11861632Y-6558640D02*
X11887032Y-6584040D01*
X11887032Y-6558640D02*
X11861632Y-6584040D01*
X11874500Y-7315200D02*
X11899900Y-7340600D01*
X11899900Y-7315200D02*
X11874500Y-7340600D01*
X11899555Y-6489700D02*
X11924955Y-6515100D01*
X11924955Y-6489700D02*
X11899555Y-6515100D01*
X11899900Y-7620000D02*
X11925300Y-7645400D01*
X11925300Y-7620000D02*
X11899900Y-7645400D01*
X11912600Y-7493000D02*
X11938000Y-7518400D01*
X11938000Y-7493000D02*
X11912600Y-7518400D01*
X11932670Y-7909400D02*
X11958070Y-7934800D01*
X11958070Y-7909400D02*
X11932670Y-7934800D01*
X11932670Y-8050360D02*
X11958070Y-8075760D01*
X11958070Y-8050360D02*
X11932670Y-8075760D01*
X11932670Y-8614200D02*
X11958070Y-8639600D01*
X11958070Y-8614200D02*
X11932670Y-8639600D01*
X11932670Y-8755160D02*
X11958070Y-8780560D01*
X11958070Y-8755160D02*
X11932670Y-8780560D01*
X11937655Y-6413500D02*
X11963055Y-6438900D01*
X11963055Y-6413500D02*
X11937655Y-6438900D01*
X11938005Y-6558640D02*
X11963405Y-6584040D01*
X11963405Y-6558640D02*
X11938005Y-6584040D01*
X11960186Y-6014905D02*
X11985586Y-6040305D01*
X11985586Y-6014905D02*
X11960186Y-6040305D01*
X11963400Y-5867400D02*
X11988800Y-5892800D01*
X11988800Y-5867400D02*
X11963400Y-5892800D01*
X11975928Y-6489700D02*
X12001328Y-6515100D01*
X12001328Y-6489700D02*
X11975928Y-6515100D01*
X12014028Y-6413500D02*
X12039428Y-6438900D01*
X12039428Y-6413500D02*
X12014028Y-6438900D01*
X12014377Y-6558640D02*
X12039777Y-6584040D01*
X12039777Y-6558640D02*
X12014377Y-6584040D01*
X12052300Y-6489700D02*
X12077700Y-6515100D01*
X12077700Y-6489700D02*
X12052300Y-6515100D01*
X12073630Y-5654040D02*
X12099030Y-5679440D01*
X12099030Y-5654040D02*
X12073630Y-5679440D01*
X12073630Y-6217880D02*
X12099030Y-6243280D01*
X12099030Y-6217880D02*
X12073630Y-6243280D01*
X12073630Y-8614200D02*
X12099030Y-8639600D01*
X12099030Y-8614200D02*
X12073630Y-8639600D01*
X12073630Y-8755160D02*
X12099030Y-8780560D01*
X12099030Y-8755160D02*
X12073630Y-8780560D01*
X12090400Y-6413500D02*
X12115800Y-6438900D01*
X12115800Y-6413500D02*
X12090400Y-6438900D01*
X12090749Y-6558640D02*
X12116149Y-6584040D01*
X12116149Y-6558640D02*
X12090749Y-6584040D01*
X12128672Y-6489700D02*
X12154072Y-6515100D01*
X12154072Y-6489700D02*
X12128672Y-6515100D01*
X12141200Y-6946900D02*
X12166600Y-6972300D01*
X12166600Y-6946900D02*
X12141200Y-6972300D01*
X12166772Y-6413500D02*
X12192172Y-6438900D01*
X12192172Y-6413500D02*
X12166772Y-6438900D01*
X12167122Y-6558640D02*
X12192522Y-6584040D01*
X12192522Y-6558640D02*
X12167122Y-6584040D01*
X12205045Y-6489700D02*
X12230445Y-6515100D01*
X12230445Y-6489700D02*
X12205045Y-6515100D01*
X12214590Y-5795000D02*
X12239990Y-5820400D01*
X12239990Y-5795000D02*
X12214590Y-5820400D01*
X12214590Y-5935960D02*
X12239990Y-5961360D01*
X12239990Y-5935960D02*
X12214590Y-5961360D01*
X12214590Y-6076920D02*
X12239990Y-6102320D01*
X12239990Y-6076920D02*
X12214590Y-6102320D01*
X12214590Y-6217880D02*
X12239990Y-6243280D01*
X12239990Y-6217880D02*
X12214590Y-6243280D01*
X12214590Y-8614200D02*
X12239990Y-8639600D01*
X12239990Y-8614200D02*
X12214590Y-8639600D01*
X12214590Y-8755160D02*
X12239990Y-8780560D01*
X12239990Y-8755160D02*
X12214590Y-8780560D01*
X12230100Y-5410200D02*
X12255500Y-5435600D01*
X12255500Y-5410200D02*
X12230100Y-5435600D01*
X12230100Y-5486400D02*
X12255500Y-5511800D01*
X12255500Y-5486400D02*
X12230100Y-5511800D01*
X12242800Y-7023100D02*
X12268200Y-7048500D01*
X12268200Y-7023100D02*
X12242800Y-7048500D01*
X12243145Y-6413500D02*
X12268545Y-6438900D01*
X12268545Y-6413500D02*
X12243145Y-6438900D01*
X12243494Y-6558640D02*
X12268894Y-6584040D01*
X12268894Y-6558640D02*
X12243494Y-6584040D01*
X12281417Y-6489700D02*
X12306817Y-6515100D01*
X12306817Y-6489700D02*
X12281417Y-6515100D01*
X12319517Y-6413500D02*
X12344917Y-6438900D01*
X12344917Y-6413500D02*
X12319517Y-6438900D01*
X12319867Y-6558640D02*
X12345267Y-6584040D01*
X12345267Y-6558640D02*
X12319867Y-6584040D01*
X12331700Y-7099300D02*
X12357100Y-7124700D01*
X12357100Y-7099300D02*
X12331700Y-7124700D01*
X12355550Y-5795000D02*
X12380950Y-5820400D01*
X12380950Y-5795000D02*
X12355550Y-5820400D01*
X12355550Y-5935960D02*
X12380950Y-5961360D01*
X12380950Y-5935960D02*
X12355550Y-5961360D01*
X12355550Y-6076920D02*
X12380950Y-6102320D01*
X12380950Y-6076920D02*
X12355550Y-6102320D01*
X12355550Y-6217880D02*
X12380950Y-6243280D01*
X12380950Y-6217880D02*
X12355550Y-6243280D01*
X12355550Y-8614200D02*
X12380950Y-8639600D01*
X12380950Y-8614200D02*
X12355550Y-8639600D01*
X12355550Y-8755160D02*
X12380950Y-8780560D01*
X12380950Y-8755160D02*
X12355550Y-8780560D01*
X12357790Y-6489700D02*
X12383190Y-6515100D01*
X12383190Y-6489700D02*
X12357790Y-6515100D01*
X12369800Y-7518400D02*
X12395200Y-7543800D01*
X12395200Y-7518400D02*
X12369800Y-7543800D01*
X12369800Y-7645400D02*
X12395200Y-7670800D01*
X12395200Y-7645400D02*
X12369800Y-7670800D01*
X12395890Y-6413500D02*
X12421290Y-6438900D01*
X12421290Y-6413500D02*
X12395890Y-6438900D01*
X12396239Y-6558640D02*
X12421639Y-6584040D01*
X12421639Y-6558640D02*
X12396239Y-6584040D01*
X12420600Y-7175500D02*
X12446000Y-7200900D01*
X12446000Y-7175500D02*
X12420600Y-7200900D01*
X12434162Y-6489700D02*
X12459562Y-6515100D01*
X12459562Y-6489700D02*
X12434162Y-6515100D01*
X12472262Y-6413500D02*
X12497662Y-6438900D01*
X12497662Y-6413500D02*
X12472262Y-6438900D01*
X12472611Y-6558640D02*
X12498011Y-6584040D01*
X12498011Y-6558640D02*
X12472611Y-6584040D01*
X12472611Y-6758640D02*
X12498011Y-6784040D01*
X12498011Y-6758640D02*
X12472611Y-6784040D01*
X12496510Y-5372120D02*
X12521910Y-5397520D01*
X12521910Y-5372120D02*
X12496510Y-5397520D01*
X12496510Y-5513080D02*
X12521910Y-5538480D01*
X12521910Y-5513080D02*
X12496510Y-5538480D01*
X12496510Y-5654040D02*
X12521910Y-5679440D01*
X12521910Y-5654040D02*
X12496510Y-5679440D01*
X12496510Y-5795000D02*
X12521910Y-5820400D01*
X12521910Y-5795000D02*
X12496510Y-5820400D01*
X12496510Y-5935960D02*
X12521910Y-5961360D01*
X12521910Y-5935960D02*
X12496510Y-5961360D01*
X12496510Y-6076920D02*
X12521910Y-6102320D01*
X12521910Y-6076920D02*
X12496510Y-6102320D01*
X12496510Y-6217880D02*
X12521910Y-6243280D01*
X12521910Y-6217880D02*
X12496510Y-6243280D01*
X12496510Y-7909400D02*
X12521910Y-7934800D01*
X12521910Y-7909400D02*
X12496510Y-7934800D01*
X12496510Y-8050360D02*
X12521910Y-8075760D01*
X12521910Y-8050360D02*
X12496510Y-8075760D01*
X12496510Y-8191320D02*
X12521910Y-8216720D01*
X12521910Y-8191320D02*
X12496510Y-8216720D01*
X12496510Y-8332280D02*
X12521910Y-8357680D01*
X12521910Y-8332280D02*
X12496510Y-8357680D01*
X12496510Y-8473240D02*
X12521910Y-8498640D01*
X12521910Y-8473240D02*
X12496510Y-8498640D01*
X12510534Y-6489700D02*
X12535934Y-6515100D01*
X12535934Y-6489700D02*
X12510534Y-6515100D01*
X12548634Y-6413500D02*
X12574034Y-6438900D01*
X12574034Y-6413500D02*
X12548634Y-6438900D01*
X12548984Y-6558640D02*
X12574384Y-6584040D01*
X12574384Y-6558640D02*
X12548984Y-6584040D01*
X12548984Y-6758640D02*
X12574384Y-6784040D01*
X12574384Y-6758640D02*
X12548984Y-6784040D01*
X12586907Y-6489700D02*
X12612307Y-6515100D01*
X12612307Y-6489700D02*
X12586907Y-6515100D01*
X12598228Y-6832600D02*
X12623628Y-6858000D01*
X12623628Y-6832600D02*
X12598228Y-6858000D01*
X12625007Y-6413500D02*
X12650407Y-6438900D01*
X12650407Y-6413500D02*
X12625007Y-6438900D01*
X12625356Y-6558640D02*
X12650756Y-6584040D01*
X12650756Y-6558640D02*
X12625356Y-6584040D01*
X12625356Y-6758640D02*
X12650756Y-6784040D01*
X12650756Y-6758640D02*
X12625356Y-6784040D01*
X12637470Y-5372120D02*
X12662870Y-5397520D01*
X12662870Y-5372120D02*
X12637470Y-5397520D01*
X12637470Y-5513080D02*
X12662870Y-5538480D01*
X12662870Y-5513080D02*
X12637470Y-5538480D01*
X12637470Y-5654040D02*
X12662870Y-5679440D01*
X12662870Y-5654040D02*
X12637470Y-5679440D01*
X12637470Y-5795000D02*
X12662870Y-5820400D01*
X12662870Y-5795000D02*
X12637470Y-5820400D01*
X12637470Y-5935960D02*
X12662870Y-5961360D01*
X12662870Y-5935960D02*
X12637470Y-5961360D01*
X12637470Y-6076920D02*
X12662870Y-6102320D01*
X12662870Y-6076920D02*
X12637470Y-6102320D01*
X12637470Y-6217880D02*
X12662870Y-6243280D01*
X12662870Y-6217880D02*
X12637470Y-6243280D01*
X12637470Y-7627480D02*
X12662870Y-7652880D01*
X12662870Y-7627480D02*
X12637470Y-7652880D01*
X12637470Y-7768440D02*
X12662870Y-7793840D01*
X12662870Y-7768440D02*
X12637470Y-7793840D01*
X12637470Y-7909400D02*
X12662870Y-7934800D01*
X12662870Y-7909400D02*
X12637470Y-7934800D01*
X12637470Y-8050360D02*
X12662870Y-8075760D01*
X12662870Y-8050360D02*
X12637470Y-8075760D01*
X12637470Y-8191320D02*
X12662870Y-8216720D01*
X12662870Y-8191320D02*
X12637470Y-8216720D01*
X12637470Y-8332280D02*
X12662870Y-8357680D01*
X12662870Y-8332280D02*
X12637470Y-8357680D01*
X12649028Y-6908800D02*
X12674428Y-6934200D01*
X12674428Y-6908800D02*
X12649028Y-6934200D01*
X12663279Y-6489700D02*
X12688679Y-6515100D01*
X12688679Y-6489700D02*
X12663279Y-6515100D01*
X12674600Y-6832600D02*
X12700000Y-6858000D01*
X12700000Y-6832600D02*
X12674600Y-6858000D01*
X12701379Y-6413500D02*
X12726779Y-6438900D01*
X12726779Y-6413500D02*
X12701379Y-6438900D01*
X12701729Y-6558640D02*
X12727129Y-6584040D01*
X12727129Y-6558640D02*
X12701729Y-6584040D01*
X12701729Y-6758640D02*
X12727129Y-6784040D01*
X12727129Y-6758640D02*
X12701729Y-6784040D01*
X12725400Y-6908800D02*
X12750800Y-6934200D01*
X12750800Y-6908800D02*
X12725400Y-6934200D01*
X12739651Y-6489700D02*
X12765051Y-6515100D01*
X12765051Y-6489700D02*
X12739651Y-6515100D01*
X12750972Y-6832600D02*
X12776372Y-6858000D01*
X12776372Y-6832600D02*
X12750972Y-6858000D01*
X12777751Y-6413500D02*
X12803151Y-6438900D01*
X12803151Y-6413500D02*
X12777751Y-6438900D01*
X12778101Y-6558640D02*
X12803501Y-6584040D01*
X12803501Y-6558640D02*
X12778101Y-6584040D01*
X12778101Y-6758640D02*
X12803501Y-6784040D01*
X12803501Y-6758640D02*
X12778101Y-6784040D01*
X12778430Y-5372120D02*
X12803830Y-5397520D01*
X12803830Y-5372120D02*
X12778430Y-5397520D01*
X12778430Y-5513080D02*
X12803830Y-5538480D01*
X12803830Y-5513080D02*
X12778430Y-5538480D01*
X12778430Y-5654040D02*
X12803830Y-5679440D01*
X12803830Y-5654040D02*
X12778430Y-5679440D01*
X12778430Y-5795000D02*
X12803830Y-5820400D01*
X12803830Y-5795000D02*
X12778430Y-5820400D01*
X12778430Y-5935960D02*
X12803830Y-5961360D01*
X12803830Y-5935960D02*
X12778430Y-5961360D01*
X12778430Y-6076920D02*
X12803830Y-6102320D01*
X12803830Y-6076920D02*
X12778430Y-6102320D01*
X12778430Y-6217880D02*
X12803830Y-6243280D01*
X12803830Y-6217880D02*
X12778430Y-6243280D01*
X12801772Y-6908800D02*
X12827172Y-6934200D01*
X12827172Y-6908800D02*
X12801772Y-6934200D01*
X12816024Y-6489700D02*
X12841424Y-6515100D01*
X12841424Y-6489700D02*
X12816024Y-6515100D01*
X12827345Y-6832600D02*
X12852745Y-6858000D01*
X12852745Y-6832600D02*
X12827345Y-6858000D01*
X12854124Y-6413500D02*
X12879524Y-6438900D01*
X12879524Y-6413500D02*
X12854124Y-6438900D01*
X12854473Y-6558640D02*
X12879873Y-6584040D01*
X12879873Y-6558640D02*
X12854473Y-6584040D01*
X12854473Y-6758640D02*
X12879873Y-6784040D01*
X12879873Y-6758640D02*
X12854473Y-6784040D01*
X12878145Y-6908800D02*
X12903545Y-6934200D01*
X12903545Y-6908800D02*
X12878145Y-6934200D01*
X12892396Y-6489700D02*
X12917796Y-6515100D01*
X12917796Y-6489700D02*
X12892396Y-6515100D01*
X12903717Y-6832600D02*
X12929117Y-6858000D01*
X12929117Y-6832600D02*
X12903717Y-6858000D01*
X12919390Y-5372120D02*
X12944790Y-5397520D01*
X12944790Y-5372120D02*
X12919390Y-5397520D01*
X12919390Y-5513080D02*
X12944790Y-5538480D01*
X12944790Y-5513080D02*
X12919390Y-5538480D01*
X12919390Y-5654040D02*
X12944790Y-5679440D01*
X12944790Y-5654040D02*
X12919390Y-5679440D01*
X12919390Y-5795000D02*
X12944790Y-5820400D01*
X12944790Y-5795000D02*
X12919390Y-5820400D01*
X12919390Y-5935960D02*
X12944790Y-5961360D01*
X12944790Y-5935960D02*
X12919390Y-5961360D01*
X12919390Y-6076920D02*
X12944790Y-6102320D01*
X12944790Y-6076920D02*
X12919390Y-6102320D01*
X12919390Y-6217880D02*
X12944790Y-6243280D01*
X12944790Y-6217880D02*
X12919390Y-6243280D01*
X12930496Y-6413500D02*
X12955896Y-6438900D01*
X12955896Y-6413500D02*
X12930496Y-6438900D01*
X12930846Y-6558640D02*
X12956246Y-6584040D01*
X12956246Y-6558640D02*
X12930846Y-6584040D01*
X12930846Y-6758640D02*
X12956246Y-6784040D01*
X12956246Y-6758640D02*
X12930846Y-6784040D01*
X12954517Y-6908800D02*
X12979917Y-6934200D01*
X12979917Y-6908800D02*
X12954517Y-6934200D01*
X12968769Y-6489700D02*
X12994169Y-6515100D01*
X12994169Y-6489700D02*
X12968769Y-6515100D01*
X12980089Y-6832600D02*
X13005489Y-6858000D01*
X13005489Y-6832600D02*
X12980089Y-6858000D01*
X13006869Y-6413500D02*
X13032269Y-6438900D01*
X13032269Y-6413500D02*
X13006869Y-6438900D01*
X13007218Y-6558640D02*
X13032618Y-6584040D01*
X13032618Y-6558640D02*
X13007218Y-6584040D01*
X13007218Y-6758640D02*
X13032618Y-6784040D01*
X13032618Y-6758640D02*
X13007218Y-6784040D01*
X13017500Y-7797800D02*
X13042900Y-7823200D01*
X13042900Y-7797800D02*
X13017500Y-7823200D01*
X13030889Y-6908800D02*
X13056289Y-6934200D01*
X13056289Y-6908800D02*
X13030889Y-6934200D01*
X13045141Y-6489700D02*
X13070541Y-6515100D01*
X13070541Y-6489700D02*
X13045141Y-6515100D01*
X13056462Y-6832600D02*
X13081862Y-6858000D01*
X13081862Y-6832600D02*
X13056462Y-6858000D01*
X13060350Y-5372120D02*
X13085750Y-5397520D01*
X13085750Y-5372120D02*
X13060350Y-5397520D01*
X13060350Y-5513080D02*
X13085750Y-5538480D01*
X13085750Y-5513080D02*
X13060350Y-5538480D01*
X13060350Y-5654040D02*
X13085750Y-5679440D01*
X13085750Y-5654040D02*
X13060350Y-5679440D01*
X13060350Y-5795000D02*
X13085750Y-5820400D01*
X13085750Y-5795000D02*
X13060350Y-5820400D01*
X13060350Y-5935960D02*
X13085750Y-5961360D01*
X13085750Y-5935960D02*
X13060350Y-5961360D01*
X13060350Y-6076920D02*
X13085750Y-6102320D01*
X13085750Y-6076920D02*
X13060350Y-6102320D01*
X13060350Y-6217880D02*
X13085750Y-6243280D01*
X13085750Y-6217880D02*
X13060350Y-6243280D01*
X13068300Y-8001000D02*
X13093700Y-8026400D01*
X13093700Y-8001000D02*
X13068300Y-8026400D01*
X13083241Y-6413500D02*
X13108641Y-6438900D01*
X13108641Y-6413500D02*
X13083241Y-6438900D01*
X13083591Y-6558640D02*
X13108991Y-6584040D01*
X13108991Y-6558640D02*
X13083591Y-6584040D01*
X13083591Y-6758640D02*
X13108991Y-6784040D01*
X13108991Y-6758640D02*
X13083591Y-6784040D01*
X13107262Y-6908800D02*
X13132662Y-6934200D01*
X13132662Y-6908800D02*
X13107262Y-6934200D01*
X13119100Y-8216900D02*
X13144500Y-8242300D01*
X13144500Y-8216900D02*
X13119100Y-8242300D01*
X13121513Y-6489700D02*
X13146913Y-6515100D01*
X13146913Y-6489700D02*
X13121513Y-6515100D01*
X13132834Y-6832600D02*
X13158234Y-6858000D01*
X13158234Y-6832600D02*
X13132834Y-6858000D01*
X13159613Y-6413500D02*
X13185013Y-6438900D01*
X13185013Y-6413500D02*
X13159613Y-6438900D01*
X13159963Y-6558640D02*
X13185363Y-6584040D01*
X13185363Y-6558640D02*
X13159963Y-6584040D01*
X13159963Y-6758640D02*
X13185363Y-6784040D01*
X13185363Y-6758640D02*
X13159963Y-6784040D01*
X13183634Y-6908800D02*
X13209034Y-6934200D01*
X13209034Y-6908800D02*
X13183634Y-6934200D01*
X13197886Y-6489700D02*
X13223286Y-6515100D01*
X13223286Y-6489700D02*
X13197886Y-6515100D01*
X13201310Y-5372120D02*
X13226710Y-5397520D01*
X13226710Y-5372120D02*
X13201310Y-5397520D01*
X13201310Y-5513080D02*
X13226710Y-5538480D01*
X13226710Y-5513080D02*
X13201310Y-5538480D01*
X13201310Y-5654040D02*
X13226710Y-5679440D01*
X13226710Y-5654040D02*
X13201310Y-5679440D01*
X13201310Y-5795000D02*
X13226710Y-5820400D01*
X13226710Y-5795000D02*
X13201310Y-5820400D01*
X13201310Y-5935960D02*
X13226710Y-5961360D01*
X13226710Y-5935960D02*
X13201310Y-5961360D01*
X13201310Y-6076920D02*
X13226710Y-6102320D01*
X13226710Y-6076920D02*
X13201310Y-6102320D01*
X13201310Y-6217880D02*
X13226710Y-6243280D01*
X13226710Y-6217880D02*
X13201310Y-6243280D01*
X13201310Y-8614200D02*
X13226710Y-8639600D01*
X13226710Y-8614200D02*
X13201310Y-8639600D01*
X13201310Y-8755160D02*
X13226710Y-8780560D01*
X13226710Y-8755160D02*
X13201310Y-8780560D01*
X13209207Y-6832600D02*
X13234607Y-6858000D01*
X13234607Y-6832600D02*
X13209207Y-6858000D01*
X13210540Y-7419340D02*
X13235940Y-7444740D01*
X13235940Y-7419340D02*
X13210540Y-7444740D01*
X13235986Y-6413500D02*
X13261386Y-6438900D01*
X13261386Y-6413500D02*
X13235986Y-6438900D01*
X13236335Y-6558640D02*
X13261735Y-6584040D01*
X13261735Y-6558640D02*
X13236335Y-6584040D01*
X13236335Y-6758640D02*
X13261735Y-6784040D01*
X13261735Y-6758640D02*
X13236335Y-6784040D01*
X13260007Y-6908800D02*
X13285407Y-6934200D01*
X13285407Y-6908800D02*
X13260007Y-6934200D01*
X13274258Y-6489700D02*
X13299658Y-6515100D01*
X13299658Y-6489700D02*
X13274258Y-6515100D01*
X13285579Y-6832600D02*
X13310979Y-6858000D01*
X13310979Y-6832600D02*
X13285579Y-6858000D01*
X13304520Y-8333740D02*
X13329920Y-8359140D01*
X13329920Y-8333740D02*
X13304520Y-8359140D01*
X13312358Y-6413500D02*
X13337758Y-6438900D01*
X13337758Y-6413500D02*
X13312358Y-6438900D01*
X13312708Y-6558640D02*
X13338108Y-6584040D01*
X13338108Y-6558640D02*
X13312708Y-6584040D01*
X13312708Y-6758640D02*
X13338108Y-6784040D01*
X13338108Y-6758640D02*
X13312708Y-6784040D01*
X13336379Y-6908800D02*
X13361779Y-6934200D01*
X13361779Y-6908800D02*
X13336379Y-6934200D01*
X13342270Y-5372120D02*
X13367670Y-5397520D01*
X13367670Y-5372120D02*
X13342270Y-5397520D01*
X13342270Y-5513080D02*
X13367670Y-5538480D01*
X13367670Y-5513080D02*
X13342270Y-5538480D01*
X13342270Y-5654040D02*
X13367670Y-5679440D01*
X13367670Y-5654040D02*
X13342270Y-5679440D01*
X13342270Y-5795000D02*
X13367670Y-5820400D01*
X13367670Y-5795000D02*
X13342270Y-5820400D01*
X13342270Y-5935960D02*
X13367670Y-5961360D01*
X13367670Y-5935960D02*
X13342270Y-5961360D01*
X13342270Y-6076920D02*
X13367670Y-6102320D01*
X13367670Y-6076920D02*
X13342270Y-6102320D01*
X13342270Y-6217880D02*
X13367670Y-6243280D01*
X13367670Y-6217880D02*
X13342270Y-6243280D01*
X13342270Y-8755160D02*
X13367670Y-8780560D01*
X13367670Y-8755160D02*
X13342270Y-8780560D01*
X13350631Y-6489700D02*
X13376031Y-6515100D01*
X13376031Y-6489700D02*
X13350631Y-6515100D01*
X13360400Y-7498080D02*
X13385800Y-7523480D01*
X13385800Y-7498080D02*
X13360400Y-7523480D01*
X13361951Y-6832600D02*
X13387351Y-6858000D01*
X13387351Y-6832600D02*
X13361951Y-6858000D01*
X13388731Y-6413500D02*
X13414131Y-6438900D01*
X13414131Y-6413500D02*
X13388731Y-6438900D01*
X13389080Y-6558640D02*
X13414480Y-6584040D01*
X13414480Y-6558640D02*
X13389080Y-6584040D01*
X13389080Y-6758640D02*
X13414480Y-6784040D01*
X13414480Y-6758640D02*
X13389080Y-6784040D01*
X13412751Y-6908800D02*
X13438151Y-6934200D01*
X13438151Y-6908800D02*
X13412751Y-6934200D01*
X13427003Y-6489700D02*
X13452403Y-6515100D01*
X13452403Y-6489700D02*
X13427003Y-6515100D01*
X13428980Y-7637780D02*
X13454380Y-7663180D01*
X13454380Y-7637780D02*
X13428980Y-7663180D01*
X13438324Y-6832600D02*
X13463724Y-6858000D01*
X13463724Y-6832600D02*
X13438324Y-6858000D01*
X13449300Y-7749540D02*
X13474700Y-7774940D01*
X13474700Y-7749540D02*
X13449300Y-7774940D01*
X13465103Y-6413500D02*
X13490503Y-6438900D01*
X13490503Y-6413500D02*
X13465103Y-6438900D01*
X13465453Y-6558640D02*
X13490853Y-6584040D01*
X13490853Y-6558640D02*
X13465453Y-6584040D01*
X13465453Y-6758640D02*
X13490853Y-6784040D01*
X13490853Y-6758640D02*
X13465453Y-6784040D01*
X13483230Y-5372120D02*
X13508630Y-5397520D01*
X13508630Y-5372120D02*
X13483230Y-5397520D01*
X13483230Y-5513080D02*
X13508630Y-5538480D01*
X13508630Y-5513080D02*
X13483230Y-5538480D01*
X13483230Y-5654040D02*
X13508630Y-5679440D01*
X13508630Y-5654040D02*
X13483230Y-5679440D01*
X13483230Y-5795000D02*
X13508630Y-5820400D01*
X13508630Y-5795000D02*
X13483230Y-5820400D01*
X13483230Y-5935960D02*
X13508630Y-5961360D01*
X13508630Y-5935960D02*
X13483230Y-5961360D01*
X13483230Y-6076920D02*
X13508630Y-6102320D01*
X13508630Y-6076920D02*
X13483230Y-6102320D01*
X13483230Y-6217880D02*
X13508630Y-6243280D01*
X13508630Y-6217880D02*
X13483230Y-6243280D01*
X13489124Y-6908800D02*
X13514524Y-6934200D01*
X13514524Y-6908800D02*
X13489124Y-6934200D01*
X13503375Y-6489700D02*
X13528775Y-6515100D01*
X13528775Y-6489700D02*
X13503375Y-6515100D01*
X13514696Y-6832600D02*
X13540096Y-6858000D01*
X13540096Y-6832600D02*
X13514696Y-6858000D01*
X13541475Y-6413500D02*
X13566875Y-6438900D01*
X13566875Y-6413500D02*
X13541475Y-6438900D01*
X13541825Y-6558640D02*
X13567225Y-6584040D01*
X13567225Y-6558640D02*
X13541825Y-6584040D01*
X13541825Y-6758640D02*
X13567225Y-6784040D01*
X13567225Y-6758640D02*
X13541825Y-6784040D01*
X13565496Y-6908800D02*
X13590896Y-6934200D01*
X13590896Y-6908800D02*
X13565496Y-6934200D01*
X13579748Y-6489700D02*
X13605148Y-6515100D01*
X13605148Y-6489700D02*
X13579748Y-6515100D01*
X13589000Y-7734300D02*
X13614400Y-7759700D01*
X13614400Y-7734300D02*
X13589000Y-7759700D01*
X13591069Y-6832600D02*
X13616469Y-6858000D01*
X13616469Y-6832600D02*
X13591069Y-6858000D01*
X13617848Y-6413500D02*
X13643248Y-6438900D01*
X13643248Y-6413500D02*
X13617848Y-6438900D01*
X13618197Y-6558640D02*
X13643597Y-6584040D01*
X13643597Y-6558640D02*
X13618197Y-6584040D01*
X13618197Y-6758640D02*
X13643597Y-6784040D01*
X13643597Y-6758640D02*
X13618197Y-6784040D01*
X13624190Y-5372120D02*
X13649590Y-5397520D01*
X13649590Y-5372120D02*
X13624190Y-5397520D01*
X13624190Y-5513080D02*
X13649590Y-5538480D01*
X13649590Y-5513080D02*
X13624190Y-5538480D01*
X13624190Y-5654040D02*
X13649590Y-5679440D01*
X13649590Y-5654040D02*
X13624190Y-5679440D01*
X13624190Y-5795000D02*
X13649590Y-5820400D01*
X13649590Y-5795000D02*
X13624190Y-5820400D01*
X13624190Y-5935960D02*
X13649590Y-5961360D01*
X13649590Y-5935960D02*
X13624190Y-5961360D01*
X13624190Y-6076920D02*
X13649590Y-6102320D01*
X13649590Y-6076920D02*
X13624190Y-6102320D01*
X13624190Y-6217880D02*
X13649590Y-6243280D01*
X13649590Y-6217880D02*
X13624190Y-6243280D01*
X13624190Y-7909400D02*
X13649590Y-7934800D01*
X13649590Y-7909400D02*
X13624190Y-7934800D01*
X13641869Y-6908800D02*
X13667269Y-6934200D01*
X13667269Y-6908800D02*
X13641869Y-6934200D01*
X13656120Y-6489700D02*
X13681520Y-6515100D01*
X13681520Y-6489700D02*
X13656120Y-6515100D01*
X13667441Y-6832600D02*
X13692841Y-6858000D01*
X13692841Y-6832600D02*
X13667441Y-6858000D01*
X13694220Y-6413500D02*
X13719620Y-6438900D01*
X13719620Y-6413500D02*
X13694220Y-6438900D01*
X13694570Y-6558640D02*
X13719970Y-6584040D01*
X13719970Y-6558640D02*
X13694570Y-6584040D01*
X13694570Y-6758640D02*
X13719970Y-6784040D01*
X13719970Y-6758640D02*
X13694570Y-6784040D01*
X13718241Y-6908800D02*
X13743641Y-6934200D01*
X13743641Y-6908800D02*
X13718241Y-6934200D01*
X13732493Y-6489700D02*
X13757893Y-6515100D01*
X13757893Y-6489700D02*
X13732493Y-6515100D01*
X13743813Y-6832600D02*
X13769213Y-6858000D01*
X13769213Y-6832600D02*
X13743813Y-6858000D01*
X13765150Y-5372120D02*
X13790550Y-5397520D01*
X13790550Y-5372120D02*
X13765150Y-5397520D01*
X13765150Y-5513080D02*
X13790550Y-5538480D01*
X13790550Y-5513080D02*
X13765150Y-5538480D01*
X13765150Y-5654040D02*
X13790550Y-5679440D01*
X13790550Y-5654040D02*
X13765150Y-5679440D01*
X13765150Y-5795000D02*
X13790550Y-5820400D01*
X13790550Y-5795000D02*
X13765150Y-5820400D01*
X13765150Y-5935960D02*
X13790550Y-5961360D01*
X13790550Y-5935960D02*
X13765150Y-5961360D01*
X13765150Y-6076920D02*
X13790550Y-6102320D01*
X13790550Y-6076920D02*
X13765150Y-6102320D01*
X13765150Y-6217880D02*
X13790550Y-6243280D01*
X13790550Y-6217880D02*
X13765150Y-6243280D01*
X13765150Y-8050360D02*
X13790550Y-8075760D01*
X13790550Y-8050360D02*
X13765150Y-8075760D01*
X13765150Y-8191320D02*
X13790550Y-8216720D01*
X13790550Y-8191320D02*
X13765150Y-8216720D01*
X13765150Y-8332280D02*
X13790550Y-8357680D01*
X13790550Y-8332280D02*
X13765150Y-8357680D01*
X13770593Y-6413500D02*
X13795993Y-6438900D01*
X13795993Y-6413500D02*
X13770593Y-6438900D01*
X13770942Y-6558640D02*
X13796342Y-6584040D01*
X13796342Y-6558640D02*
X13770942Y-6584040D01*
X13770942Y-6758640D02*
X13796342Y-6784040D01*
X13796342Y-6758640D02*
X13770942Y-6784040D01*
X13794613Y-6908800D02*
X13820013Y-6934200D01*
X13820013Y-6908800D02*
X13794613Y-6934200D01*
X13808865Y-6489700D02*
X13834265Y-6515100D01*
X13834265Y-6489700D02*
X13808865Y-6515100D01*
X13820186Y-6832600D02*
X13845586Y-6858000D01*
X13845586Y-6832600D02*
X13820186Y-6858000D01*
X13846965Y-6413500D02*
X13872365Y-6438900D01*
X13872365Y-6413500D02*
X13846965Y-6438900D01*
X13847314Y-6558640D02*
X13872714Y-6584040D01*
X13872714Y-6558640D02*
X13847314Y-6584040D01*
X13847314Y-6758640D02*
X13872714Y-6784040D01*
X13872714Y-6758640D02*
X13847314Y-6784040D01*
X13870986Y-6908800D02*
X13896386Y-6934200D01*
X13896386Y-6908800D02*
X13870986Y-6934200D01*
X13885237Y-6489700D02*
X13910637Y-6515100D01*
X13910637Y-6489700D02*
X13885237Y-6515100D01*
X13896558Y-6832600D02*
X13921958Y-6858000D01*
X13921958Y-6832600D02*
X13896558Y-6858000D01*
X13906110Y-5372120D02*
X13931510Y-5397520D01*
X13931510Y-5372120D02*
X13906110Y-5397520D01*
X13906110Y-5513080D02*
X13931510Y-5538480D01*
X13931510Y-5513080D02*
X13906110Y-5538480D01*
X13906110Y-5654040D02*
X13931510Y-5679440D01*
X13931510Y-5654040D02*
X13906110Y-5679440D01*
X13906110Y-5795000D02*
X13931510Y-5820400D01*
X13931510Y-5795000D02*
X13906110Y-5820400D01*
X13906110Y-5935960D02*
X13931510Y-5961360D01*
X13931510Y-5935960D02*
X13906110Y-5961360D01*
X13906110Y-6076920D02*
X13931510Y-6102320D01*
X13931510Y-6076920D02*
X13906110Y-6102320D01*
X13906110Y-6217880D02*
X13931510Y-6243280D01*
X13931510Y-6217880D02*
X13906110Y-6243280D01*
X13906110Y-7204600D02*
X13931510Y-7230000D01*
X13931510Y-7204600D02*
X13906110Y-7230000D01*
X13906110Y-8191320D02*
X13931510Y-8216720D01*
X13931510Y-8191320D02*
X13906110Y-8216720D01*
X13906110Y-8332280D02*
X13931510Y-8357680D01*
X13931510Y-8332280D02*
X13906110Y-8357680D01*
X13923337Y-6413500D02*
X13948737Y-6438900D01*
X13948737Y-6413500D02*
X13923337Y-6438900D01*
X13923687Y-6558640D02*
X13949087Y-6584040D01*
X13949087Y-6558640D02*
X13923687Y-6584040D01*
X13923687Y-6758640D02*
X13949087Y-6784040D01*
X13949087Y-6758640D02*
X13923687Y-6784040D01*
X13947358Y-6908800D02*
X13972758Y-6934200D01*
X13972758Y-6908800D02*
X13947358Y-6934200D01*
X13961610Y-6489700D02*
X13987010Y-6515100D01*
X13987010Y-6489700D02*
X13961610Y-6515100D01*
X13972931Y-6832600D02*
X13998331Y-6858000D01*
X13998331Y-6832600D02*
X13972931Y-6858000D01*
X13999710Y-6413500D02*
X14025110Y-6438900D01*
X14025110Y-6413500D02*
X13999710Y-6438900D01*
X14000059Y-6558640D02*
X14025459Y-6584040D01*
X14025459Y-6558640D02*
X14000059Y-6584040D01*
X14000059Y-6758640D02*
X14025459Y-6784040D01*
X14025459Y-6758640D02*
X14000059Y-6784040D01*
X14023731Y-6908800D02*
X14049131Y-6934200D01*
X14049131Y-6908800D02*
X14023731Y-6934200D01*
X14037982Y-6489700D02*
X14063382Y-6515100D01*
X14063382Y-6489700D02*
X14037982Y-6515100D01*
X14047070Y-5372120D02*
X14072470Y-5397520D01*
X14072470Y-5372120D02*
X14047070Y-5397520D01*
X14047070Y-5513080D02*
X14072470Y-5538480D01*
X14072470Y-5513080D02*
X14047070Y-5538480D01*
X14047070Y-5654040D02*
X14072470Y-5679440D01*
X14072470Y-5654040D02*
X14047070Y-5679440D01*
X14047070Y-5795000D02*
X14072470Y-5820400D01*
X14072470Y-5795000D02*
X14047070Y-5820400D01*
X14047070Y-5935960D02*
X14072470Y-5961360D01*
X14072470Y-5935960D02*
X14047070Y-5961360D01*
X14047070Y-6076920D02*
X14072470Y-6102320D01*
X14072470Y-6076920D02*
X14047070Y-6102320D01*
X14047070Y-6217880D02*
X14072470Y-6243280D01*
X14072470Y-6217880D02*
X14047070Y-6243280D01*
X14047070Y-7204600D02*
X14072470Y-7230000D01*
X14072470Y-7204600D02*
X14047070Y-7230000D01*
X14047070Y-7345560D02*
X14072470Y-7370960D01*
X14072470Y-7345560D02*
X14047070Y-7370960D01*
X14047070Y-7486520D02*
X14072470Y-7511920D01*
X14072470Y-7486520D02*
X14047070Y-7511920D01*
X14047070Y-7627480D02*
X14072470Y-7652880D01*
X14072470Y-7627480D02*
X14047070Y-7652880D01*
X14047070Y-8332280D02*
X14072470Y-8357680D01*
X14072470Y-8332280D02*
X14047070Y-8357680D01*
X14047070Y-8473240D02*
X14072470Y-8498640D01*
X14072470Y-8473240D02*
X14047070Y-8498640D01*
X14049303Y-6832600D02*
X14074703Y-6858000D01*
X14074703Y-6832600D02*
X14049303Y-6858000D01*
X14076082Y-6413500D02*
X14101482Y-6438900D01*
X14101482Y-6413500D02*
X14076082Y-6438900D01*
X14076432Y-6558640D02*
X14101832Y-6584040D01*
X14101832Y-6558640D02*
X14076432Y-6584040D01*
X14076432Y-6758640D02*
X14101832Y-6784040D01*
X14101832Y-6758640D02*
X14076432Y-6784040D01*
X14100103Y-6908800D02*
X14125503Y-6934200D01*
X14125503Y-6908800D02*
X14100103Y-6934200D01*
X14114355Y-6489700D02*
X14139755Y-6515100D01*
X14139755Y-6489700D02*
X14114355Y-6515100D01*
X14125675Y-6832600D02*
X14151075Y-6858000D01*
X14151075Y-6832600D02*
X14125675Y-6858000D01*
X14152455Y-6413500D02*
X14177855Y-6438900D01*
X14177855Y-6413500D02*
X14152455Y-6438900D01*
X14152804Y-6558640D02*
X14178204Y-6584040D01*
X14178204Y-6558640D02*
X14152804Y-6584040D01*
X14152804Y-6758640D02*
X14178204Y-6784040D01*
X14178204Y-6758640D02*
X14152804Y-6784040D01*
X14176475Y-6908800D02*
X14201875Y-6934200D01*
X14201875Y-6908800D02*
X14176475Y-6934200D01*
X14188030Y-5372120D02*
X14213430Y-5397520D01*
X14213430Y-5372120D02*
X14188030Y-5397520D01*
X14188030Y-5513080D02*
X14213430Y-5538480D01*
X14213430Y-5513080D02*
X14188030Y-5538480D01*
X14188030Y-5654040D02*
X14213430Y-5679440D01*
X14213430Y-5654040D02*
X14188030Y-5679440D01*
X14188030Y-5795000D02*
X14213430Y-5820400D01*
X14213430Y-5795000D02*
X14188030Y-5820400D01*
X14188030Y-5935960D02*
X14213430Y-5961360D01*
X14213430Y-5935960D02*
X14188030Y-5961360D01*
X14188030Y-6076920D02*
X14213430Y-6102320D01*
X14213430Y-6076920D02*
X14188030Y-6102320D01*
X14188030Y-6217880D02*
X14213430Y-6243280D01*
X14213430Y-6217880D02*
X14188030Y-6243280D01*
X14188030Y-7204600D02*
X14213430Y-7230000D01*
X14213430Y-7204600D02*
X14188030Y-7230000D01*
X14188030Y-7345560D02*
X14213430Y-7370960D01*
X14213430Y-7345560D02*
X14188030Y-7370960D01*
X14188030Y-7486520D02*
X14213430Y-7511920D01*
X14213430Y-7486520D02*
X14188030Y-7511920D01*
X14188030Y-7627480D02*
X14213430Y-7652880D01*
X14213430Y-7627480D02*
X14188030Y-7652880D01*
X14188030Y-7768440D02*
X14213430Y-7793840D01*
X14213430Y-7768440D02*
X14188030Y-7793840D01*
X14188030Y-8332280D02*
X14213430Y-8357680D01*
X14213430Y-8332280D02*
X14188030Y-8357680D01*
X14188030Y-8473240D02*
X14213430Y-8498640D01*
X14213430Y-8473240D02*
X14188030Y-8498640D01*
X14188030Y-8614200D02*
X14213430Y-8639600D01*
X14213430Y-8614200D02*
X14188030Y-8639600D01*
X14188030Y-8755160D02*
X14213430Y-8780560D01*
X14213430Y-8755160D02*
X14188030Y-8780560D01*
X14190727Y-6489700D02*
X14216127Y-6515100D01*
X14216127Y-6489700D02*
X14190727Y-6515100D01*
X14202048Y-6832600D02*
X14227448Y-6858000D01*
X14227448Y-6832600D02*
X14202048Y-6858000D01*
X14228827Y-6413500D02*
X14254227Y-6438900D01*
X14254227Y-6413500D02*
X14228827Y-6438900D01*
X14229176Y-6558640D02*
X14254576Y-6584040D01*
X14254576Y-6558640D02*
X14229176Y-6584040D01*
X14229176Y-6758640D02*
X14254576Y-6784040D01*
X14254576Y-6758640D02*
X14229176Y-6784040D01*
X14252848Y-6908800D02*
X14278248Y-6934200D01*
X14278248Y-6908800D02*
X14252848Y-6934200D01*
X14267099Y-6489700D02*
X14292499Y-6515100D01*
X14292499Y-6489700D02*
X14267099Y-6515100D01*
X14278420Y-6832600D02*
X14303820Y-6858000D01*
X14303820Y-6832600D02*
X14278420Y-6858000D01*
X14305199Y-6413500D02*
X14330599Y-6438900D01*
X14330599Y-6413500D02*
X14305199Y-6438900D01*
X14305549Y-6558640D02*
X14330949Y-6584040D01*
X14330949Y-6558640D02*
X14305549Y-6584040D01*
X14305549Y-6758640D02*
X14330949Y-6784040D01*
X14330949Y-6758640D02*
X14305549Y-6784040D01*
X14328990Y-5372120D02*
X14354390Y-5397520D01*
X14354390Y-5372120D02*
X14328990Y-5397520D01*
X14328990Y-5513080D02*
X14354390Y-5538480D01*
X14354390Y-5513080D02*
X14328990Y-5538480D01*
X14328990Y-5654040D02*
X14354390Y-5679440D01*
X14354390Y-5654040D02*
X14328990Y-5679440D01*
X14328990Y-5795000D02*
X14354390Y-5820400D01*
X14354390Y-5795000D02*
X14328990Y-5820400D01*
X14328990Y-5935960D02*
X14354390Y-5961360D01*
X14354390Y-5935960D02*
X14328990Y-5961360D01*
X14328990Y-6076920D02*
X14354390Y-6102320D01*
X14354390Y-6076920D02*
X14328990Y-6102320D01*
X14328990Y-6217880D02*
X14354390Y-6243280D01*
X14354390Y-6217880D02*
X14328990Y-6243280D01*
X14328990Y-7204600D02*
X14354390Y-7230000D01*
X14354390Y-7204600D02*
X14328990Y-7230000D01*
X14328990Y-7345560D02*
X14354390Y-7370960D01*
X14354390Y-7345560D02*
X14328990Y-7370960D01*
X14328990Y-7486520D02*
X14354390Y-7511920D01*
X14354390Y-7486520D02*
X14328990Y-7511920D01*
X14328990Y-7627480D02*
X14354390Y-7652880D01*
X14354390Y-7627480D02*
X14328990Y-7652880D01*
X14328990Y-7768440D02*
X14354390Y-7793840D01*
X14354390Y-7768440D02*
X14328990Y-7793840D01*
X14328990Y-8332280D02*
X14354390Y-8357680D01*
X14354390Y-8332280D02*
X14328990Y-8357680D01*
X14328990Y-8473240D02*
X14354390Y-8498640D01*
X14354390Y-8473240D02*
X14328990Y-8498640D01*
X14328990Y-8614200D02*
X14354390Y-8639600D01*
X14354390Y-8614200D02*
X14328990Y-8639600D01*
X14328990Y-8755160D02*
X14354390Y-8780560D01*
X14354390Y-8755160D02*
X14328990Y-8780560D01*
X14329220Y-6908800D02*
X14354620Y-6934200D01*
X14354620Y-6908800D02*
X14329220Y-6934200D01*
X14343472Y-6489700D02*
X14368872Y-6515100D01*
X14368872Y-6489700D02*
X14343472Y-6515100D01*
X14354793Y-6832600D02*
X14380193Y-6858000D01*
X14380193Y-6832600D02*
X14354793Y-6858000D01*
X14381572Y-6413500D02*
X14406972Y-6438900D01*
X14406972Y-6413500D02*
X14381572Y-6438900D01*
X14381921Y-6558640D02*
X14407321Y-6584040D01*
X14407321Y-6558640D02*
X14381921Y-6584040D01*
X14381921Y-6758640D02*
X14407321Y-6784040D01*
X14407321Y-6758640D02*
X14381921Y-6784040D01*
X14405593Y-6908800D02*
X14430993Y-6934200D01*
X14430993Y-6908800D02*
X14405593Y-6934200D01*
X14419844Y-6489700D02*
X14445244Y-6515100D01*
X14445244Y-6489700D02*
X14419844Y-6515100D01*
X14431165Y-6832600D02*
X14456565Y-6858000D01*
X14456565Y-6832600D02*
X14431165Y-6858000D01*
X14457944Y-6413500D02*
X14483344Y-6438900D01*
X14483344Y-6413500D02*
X14457944Y-6438900D01*
X14458294Y-6558640D02*
X14483694Y-6584040D01*
X14483694Y-6558640D02*
X14458294Y-6584040D01*
X14458294Y-6758640D02*
X14483694Y-6784040D01*
X14483694Y-6758640D02*
X14458294Y-6784040D01*
X14469950Y-5372120D02*
X14495350Y-5397520D01*
X14495350Y-5372120D02*
X14469950Y-5397520D01*
X14469950Y-5513080D02*
X14495350Y-5538480D01*
X14495350Y-5513080D02*
X14469950Y-5538480D01*
X14469950Y-5654040D02*
X14495350Y-5679440D01*
X14495350Y-5654040D02*
X14469950Y-5679440D01*
X14469950Y-5795000D02*
X14495350Y-5820400D01*
X14495350Y-5795000D02*
X14469950Y-5820400D01*
X14469950Y-7486520D02*
X14495350Y-7511920D01*
X14495350Y-7486520D02*
X14469950Y-7511920D01*
X14469950Y-7627480D02*
X14495350Y-7652880D01*
X14495350Y-7627480D02*
X14469950Y-7652880D01*
X14469950Y-7768440D02*
X14495350Y-7793840D01*
X14495350Y-7768440D02*
X14469950Y-7793840D01*
X14469950Y-8332280D02*
X14495350Y-8357680D01*
X14495350Y-8332280D02*
X14469950Y-8357680D01*
X14469950Y-8473240D02*
X14495350Y-8498640D01*
X14495350Y-8473240D02*
X14469950Y-8498640D01*
X14469950Y-8614200D02*
X14495350Y-8639600D01*
X14495350Y-8614200D02*
X14469950Y-8639600D01*
X14469950Y-8755160D02*
X14495350Y-8780560D01*
X14495350Y-8755160D02*
X14469950Y-8780560D01*
X14481965Y-6908800D02*
X14507365Y-6934200D01*
X14507365Y-6908800D02*
X14481965Y-6934200D01*
X14496216Y-6489700D02*
X14521616Y-6515100D01*
X14521616Y-6489700D02*
X14496216Y-6515100D01*
X14507537Y-6832600D02*
X14532937Y-6858000D01*
X14532937Y-6832600D02*
X14507537Y-6858000D01*
X14534316Y-6413500D02*
X14559716Y-6438900D01*
X14559716Y-6413500D02*
X14534316Y-6438900D01*
X14534666Y-6558640D02*
X14560066Y-6584040D01*
X14560066Y-6558640D02*
X14534666Y-6584040D01*
X14534666Y-6758640D02*
X14560066Y-6784040D01*
X14560066Y-6758640D02*
X14534666Y-6784040D01*
X14558337Y-6908800D02*
X14583737Y-6934200D01*
X14583737Y-6908800D02*
X14558337Y-6934200D01*
X14572589Y-6489700D02*
X14597989Y-6515100D01*
X14597989Y-6489700D02*
X14572589Y-6515100D01*
X14583910Y-6832600D02*
X14609310Y-6858000D01*
X14609310Y-6832600D02*
X14583910Y-6858000D01*
X14610689Y-6413500D02*
X14636089Y-6438900D01*
X14636089Y-6413500D02*
X14610689Y-6438900D01*
X14610910Y-5372120D02*
X14636310Y-5397520D01*
X14636310Y-5372120D02*
X14610910Y-5397520D01*
X14610910Y-5513080D02*
X14636310Y-5538480D01*
X14636310Y-5513080D02*
X14610910Y-5538480D01*
X14610910Y-5654040D02*
X14636310Y-5679440D01*
X14636310Y-5654040D02*
X14610910Y-5679440D01*
X14610910Y-5795000D02*
X14636310Y-5820400D01*
X14636310Y-5795000D02*
X14610910Y-5820400D01*
X14610910Y-7486520D02*
X14636310Y-7511920D01*
X14636310Y-7486520D02*
X14610910Y-7511920D01*
X14610910Y-7627480D02*
X14636310Y-7652880D01*
X14636310Y-7627480D02*
X14610910Y-7652880D01*
X14610910Y-7768440D02*
X14636310Y-7793840D01*
X14636310Y-7768440D02*
X14610910Y-7793840D01*
X14610910Y-8332280D02*
X14636310Y-8357680D01*
X14636310Y-8332280D02*
X14610910Y-8357680D01*
X14610910Y-8473240D02*
X14636310Y-8498640D01*
X14636310Y-8473240D02*
X14610910Y-8498640D01*
X14610910Y-8614200D02*
X14636310Y-8639600D01*
X14636310Y-8614200D02*
X14610910Y-8639600D01*
X14610910Y-8755160D02*
X14636310Y-8780560D01*
X14636310Y-8755160D02*
X14610910Y-8780560D01*
X14611038Y-6558640D02*
X14636438Y-6584040D01*
X14636438Y-6558640D02*
X14611038Y-6584040D01*
X14611038Y-6758640D02*
X14636438Y-6784040D01*
X14636438Y-6758640D02*
X14611038Y-6784040D01*
X14634710Y-6908800D02*
X14660110Y-6934200D01*
X14660110Y-6908800D02*
X14634710Y-6934200D01*
X14648961Y-6489700D02*
X14674361Y-6515100D01*
X14674361Y-6489700D02*
X14648961Y-6515100D01*
X14660282Y-6832600D02*
X14685682Y-6858000D01*
X14685682Y-6832600D02*
X14660282Y-6858000D01*
X14687061Y-6413500D02*
X14712461Y-6438900D01*
X14712461Y-6413500D02*
X14687061Y-6438900D01*
X14687411Y-6558640D02*
X14712811Y-6584040D01*
X14712811Y-6558640D02*
X14687411Y-6584040D01*
X14687411Y-6758640D02*
X14712811Y-6784040D01*
X14712811Y-6758640D02*
X14687411Y-6784040D01*
X14711082Y-6908800D02*
X14736482Y-6934200D01*
X14736482Y-6908800D02*
X14711082Y-6934200D01*
X14725334Y-6489700D02*
X14750734Y-6515100D01*
X14750734Y-6489700D02*
X14725334Y-6515100D01*
X14736654Y-6832600D02*
X14762054Y-6858000D01*
X14762054Y-6832600D02*
X14736654Y-6858000D01*
X14751870Y-5372120D02*
X14777270Y-5397520D01*
X14777270Y-5372120D02*
X14751870Y-5397520D01*
X14751870Y-5513080D02*
X14777270Y-5538480D01*
X14777270Y-5513080D02*
X14751870Y-5538480D01*
X14751870Y-5654040D02*
X14777270Y-5679440D01*
X14777270Y-5654040D02*
X14751870Y-5679440D01*
X14751870Y-5795000D02*
X14777270Y-5820400D01*
X14777270Y-5795000D02*
X14751870Y-5820400D01*
X14751870Y-7486520D02*
X14777270Y-7511920D01*
X14777270Y-7486520D02*
X14751870Y-7511920D01*
X14751870Y-7627480D02*
X14777270Y-7652880D01*
X14777270Y-7627480D02*
X14751870Y-7652880D01*
X14751870Y-7768440D02*
X14777270Y-7793840D01*
X14777270Y-7768440D02*
X14751870Y-7793840D01*
X14751870Y-7909400D02*
X14777270Y-7934800D01*
X14777270Y-7909400D02*
X14751870Y-7934800D01*
X14751870Y-8050360D02*
X14777270Y-8075760D01*
X14777270Y-8050360D02*
X14751870Y-8075760D01*
X14751870Y-8191320D02*
X14777270Y-8216720D01*
X14777270Y-8191320D02*
X14751870Y-8216720D01*
X14751870Y-8332280D02*
X14777270Y-8357680D01*
X14777270Y-8332280D02*
X14751870Y-8357680D01*
X14751870Y-8473240D02*
X14777270Y-8498640D01*
X14777270Y-8473240D02*
X14751870Y-8498640D01*
X14751870Y-8614200D02*
X14777270Y-8639600D01*
X14777270Y-8614200D02*
X14751870Y-8639600D01*
X14751870Y-8755160D02*
X14777270Y-8780560D01*
X14777270Y-8755160D02*
X14751870Y-8780560D01*
X14763434Y-6413500D02*
X14788834Y-6438900D01*
X14788834Y-6413500D02*
X14763434Y-6438900D01*
X14763783Y-6558640D02*
X14789183Y-6584040D01*
X14789183Y-6558640D02*
X14763783Y-6584040D01*
X14763783Y-6758640D02*
X14789183Y-6784040D01*
X14789183Y-6758640D02*
X14763783Y-6784040D01*
X14787454Y-6908800D02*
X14812854Y-6934200D01*
X14812854Y-6908800D02*
X14787454Y-6934200D01*
X14801706Y-6489700D02*
X14827106Y-6515100D01*
X14827106Y-6489700D02*
X14801706Y-6515100D01*
X11053780Y-5328920D02*
G75*
G02*
X10953780Y-5328920I-50000J0D01*
G01*
X10953780Y-5328920D02*
G75*
G02*
X11053780Y-5328920I50000J0D01*
G01*
X11297620Y-8326120D02*
G75*
G02*
X11197620Y-8326120I-50000J0D01*
G01*
X11197620Y-8326120D02*
G75*
G02*
X11297620Y-8326120I50000J0D01*
G01*
X11307780Y-5328920D02*
G75*
G02*
X11207780Y-5328920I-50000J0D01*
G01*
X11207780Y-5328920D02*
G75*
G02*
X11307780Y-5328920I50000J0D01*
G01*
X11551620Y-8326120D02*
G75*
G02*
X11451620Y-8326120I-50000J0D01*
G01*
X11451620Y-8326120D02*
G75*
G02*
X11551620Y-8326120I50000J0D01*
G01*
X12064700Y-8331200D02*
G75*
G02*
X11964700Y-8331200I-50000J0D01*
G01*
X11964700Y-8331200D02*
G75*
G02*
X12064700Y-8331200I50000J0D01*
G01*
X12318700Y-8331200D02*
G75*
G02*
X12218700Y-8331200I-50000J0D01*
G01*
X12218700Y-8331200D02*
G75*
G02*
X12318700Y-8331200I50000J0D01*
G01*
X12740340Y-8656320D02*
G75*
G02*
X12640340Y-8656320I-50000J0D01*
G01*
X12640340Y-8656320D02*
G75*
G02*
X12740340Y-8656320I50000J0D01*
G01*
X12994340Y-8656320D02*
G75*
G02*
X12894340Y-8656320I-50000J0D01*
G01*
X12894340Y-8656320D02*
G75*
G02*
X12994340Y-8656320I50000J0D01*
G01*
X13663900Y-8656320D02*
G75*
G02*
X13563900Y-8656320I-50000J0D01*
G01*
X13563900Y-8656320D02*
G75*
G02*
X13663900Y-8656320I50000J0D01*
G01*
X13917900Y-8656320D02*
G75*
G02*
X13817900Y-8656320I-50000J0D01*
G01*
X13817900Y-8656320D02*
G75*
G02*
X13917900Y-8656320I50000J0D01*
G01*
X14258260Y-8072120D02*
G75*
G02*
X14158260Y-8072120I-50000J0D01*
G01*
X14158260Y-8072120D02*
G75*
G02*
X14258260Y-8072120I50000J0D01*
G01*
X14512260Y-8072120D02*
G75*
G02*
X14412260Y-8072120I-50000J0D01*
G01*
X14412260Y-8072120D02*
G75*
G02*
X14512260Y-8072120I50000J0D01*
G01*
D11*
X9641037Y-9348764D02*
X9641037Y-9148764D01*
X9641037Y-9148764D02*
X9688656Y-9148764D01*
X9688656Y-9148764D02*
X9717227Y-9158288D01*
X9717227Y-9158288D02*
X9736275Y-9177335D01*
X9736275Y-9177335D02*
X9745799Y-9196383D01*
X9745799Y-9196383D02*
X9755323Y-9234478D01*
X9755323Y-9234478D02*
X9755323Y-9263050D01*
X9755323Y-9263050D02*
X9745799Y-9301145D01*
X9745799Y-9301145D02*
X9736275Y-9320192D01*
X9736275Y-9320192D02*
X9717227Y-9339240D01*
X9717227Y-9339240D02*
X9688656Y-9348764D01*
X9688656Y-9348764D02*
X9641037Y-9348764D01*
X9841037Y-9348764D02*
X9841037Y-9215430D01*
X9841037Y-9253526D02*
X9850561Y-9234478D01*
X9850561Y-9234478D02*
X9860084Y-9224954D01*
X9860084Y-9224954D02*
X9879132Y-9215430D01*
X9879132Y-9215430D02*
X9898180Y-9215430D01*
X9964846Y-9348764D02*
X9964846Y-9215430D01*
X9964846Y-9148764D02*
X9955323Y-9158288D01*
X9955323Y-9158288D02*
X9964846Y-9167811D01*
X9964846Y-9167811D02*
X9974370Y-9158288D01*
X9974370Y-9158288D02*
X9964846Y-9148764D01*
X9964846Y-9148764D02*
X9964846Y-9167811D01*
X10088656Y-9348764D02*
X10069608Y-9339240D01*
X10069608Y-9339240D02*
X10060084Y-9320192D01*
X10060084Y-9320192D02*
X10060084Y-9148764D01*
X10193418Y-9348764D02*
X10174370Y-9339240D01*
X10174370Y-9339240D02*
X10164846Y-9320192D01*
X10164846Y-9320192D02*
X10164846Y-9148764D01*
X10421989Y-9348764D02*
X10421989Y-9148764D01*
X10421989Y-9148764D02*
X10488656Y-9291621D01*
X10488656Y-9291621D02*
X10555323Y-9148764D01*
X10555323Y-9148764D02*
X10555323Y-9348764D01*
X10736275Y-9348764D02*
X10736275Y-9244002D01*
X10736275Y-9244002D02*
X10726751Y-9224954D01*
X10726751Y-9224954D02*
X10707704Y-9215430D01*
X10707704Y-9215430D02*
X10669608Y-9215430D01*
X10669608Y-9215430D02*
X10650561Y-9224954D01*
X10736275Y-9339240D02*
X10717227Y-9348764D01*
X10717227Y-9348764D02*
X10669608Y-9348764D01*
X10669608Y-9348764D02*
X10650561Y-9339240D01*
X10650561Y-9339240D02*
X10641037Y-9320192D01*
X10641037Y-9320192D02*
X10641037Y-9301145D01*
X10641037Y-9301145D02*
X10650561Y-9282097D01*
X10650561Y-9282097D02*
X10669608Y-9272573D01*
X10669608Y-9272573D02*
X10717227Y-9272573D01*
X10717227Y-9272573D02*
X10736275Y-9263050D01*
X10831513Y-9215430D02*
X10831513Y-9415430D01*
X10831513Y-9224954D02*
X10850561Y-9215430D01*
X10850561Y-9215430D02*
X10888656Y-9215430D01*
X10888656Y-9215430D02*
X10907704Y-9224954D01*
X10907704Y-9224954D02*
X10917227Y-9234478D01*
X10917227Y-9234478D02*
X10926751Y-9253526D01*
X10926751Y-9253526D02*
X10926751Y-9310669D01*
X10926751Y-9310669D02*
X10917227Y-9329716D01*
X10917227Y-9329716D02*
X10907704Y-9339240D01*
X10907704Y-9339240D02*
X10888656Y-9348764D01*
X10888656Y-9348764D02*
X10850561Y-9348764D01*
X10850561Y-9348764D02*
X10831513Y-9339240D01*
X11012465Y-9329716D02*
X11021989Y-9339240D01*
X11021989Y-9339240D02*
X11012465Y-9348764D01*
X11012465Y-9348764D02*
X11002942Y-9339240D01*
X11002942Y-9339240D02*
X11012465Y-9329716D01*
X11012465Y-9329716D02*
X11012465Y-9348764D01*
X11012465Y-9224954D02*
X11021989Y-9234478D01*
X11021989Y-9234478D02*
X11012465Y-9244002D01*
X11012465Y-9244002D02*
X11002942Y-9234478D01*
X11002942Y-9234478D02*
X11012465Y-9224954D01*
X11012465Y-9224954D02*
X11012465Y-9244002D01*
D12*
X9354860Y-9664580D02*
X9380260Y-9689980D01*
X9380260Y-9664580D02*
X9354860Y-9689980D01*
D11*
X9679132Y-9568764D02*
X9698180Y-9568764D01*
X9698180Y-9568764D02*
X9717227Y-9578288D01*
X9717227Y-9578288D02*
X9726751Y-9587811D01*
X9726751Y-9587811D02*
X9736275Y-9606859D01*
X9736275Y-9606859D02*
X9745799Y-9644954D01*
X9745799Y-9644954D02*
X9745799Y-9692573D01*
X9745799Y-9692573D02*
X9736275Y-9730669D01*
X9736275Y-9730669D02*
X9726751Y-9749716D01*
X9726751Y-9749716D02*
X9717227Y-9759240D01*
X9717227Y-9759240D02*
X9698180Y-9768764D01*
X9698180Y-9768764D02*
X9679132Y-9768764D01*
X9679132Y-9768764D02*
X9660084Y-9759240D01*
X9660084Y-9759240D02*
X9650561Y-9749716D01*
X9650561Y-9749716D02*
X9641037Y-9730669D01*
X9641037Y-9730669D02*
X9631513Y-9692573D01*
X9631513Y-9692573D02*
X9631513Y-9644954D01*
X9631513Y-9644954D02*
X9641037Y-9606859D01*
X9641037Y-9606859D02*
X9650561Y-9587811D01*
X9650561Y-9587811D02*
X9660084Y-9578288D01*
X9660084Y-9578288D02*
X9679132Y-9568764D01*
X9831513Y-9749716D02*
X9841037Y-9759240D01*
X9841037Y-9759240D02*
X9831513Y-9768764D01*
X9831513Y-9768764D02*
X9821989Y-9759240D01*
X9821989Y-9759240D02*
X9831513Y-9749716D01*
X9831513Y-9749716D02*
X9831513Y-9768764D01*
X9917227Y-9587811D02*
X9926751Y-9578288D01*
X9926751Y-9578288D02*
X9945799Y-9568764D01*
X9945799Y-9568764D02*
X9993418Y-9568764D01*
X9993418Y-9568764D02*
X10012465Y-9578288D01*
X10012465Y-9578288D02*
X10021989Y-9587811D01*
X10021989Y-9587811D02*
X10031513Y-9606859D01*
X10031513Y-9606859D02*
X10031513Y-9625907D01*
X10031513Y-9625907D02*
X10021989Y-9654478D01*
X10021989Y-9654478D02*
X9907704Y-9768764D01*
X9907704Y-9768764D02*
X10031513Y-9768764D01*
X10212465Y-9568764D02*
X10117227Y-9568764D01*
X10117227Y-9568764D02*
X10107704Y-9664002D01*
X10107704Y-9664002D02*
X10117227Y-9654478D01*
X10117227Y-9654478D02*
X10136275Y-9644954D01*
X10136275Y-9644954D02*
X10183894Y-9644954D01*
X10183894Y-9644954D02*
X10202942Y-9654478D01*
X10202942Y-9654478D02*
X10212465Y-9664002D01*
X10212465Y-9664002D02*
X10221989Y-9683050D01*
X10221989Y-9683050D02*
X10221989Y-9730669D01*
X10221989Y-9730669D02*
X10212465Y-9749716D01*
X10212465Y-9749716D02*
X10202942Y-9759240D01*
X10202942Y-9759240D02*
X10183894Y-9768764D01*
X10183894Y-9768764D02*
X10136275Y-9768764D01*
X10136275Y-9768764D02*
X10117227Y-9759240D01*
X10117227Y-9759240D02*
X10107704Y-9749716D01*
X10393418Y-9635430D02*
X10393418Y-9768764D01*
X10345799Y-9559240D02*
X10298180Y-9702097D01*
X10298180Y-9702097D02*
X10421989Y-9702097D01*
X10498180Y-9768764D02*
X10498180Y-9635430D01*
X10498180Y-9654478D02*
X10507704Y-9644954D01*
X10507704Y-9644954D02*
X10526751Y-9635430D01*
X10526751Y-9635430D02*
X10555323Y-9635430D01*
X10555323Y-9635430D02*
X10574370Y-9644954D01*
X10574370Y-9644954D02*
X10583894Y-9664002D01*
X10583894Y-9664002D02*
X10583894Y-9768764D01*
X10583894Y-9664002D02*
X10593418Y-9644954D01*
X10593418Y-9644954D02*
X10612465Y-9635430D01*
X10612465Y-9635430D02*
X10641037Y-9635430D01*
X10641037Y-9635430D02*
X10660085Y-9644954D01*
X10660085Y-9644954D02*
X10669608Y-9664002D01*
X10669608Y-9664002D02*
X10669608Y-9768764D01*
X10764846Y-9768764D02*
X10764846Y-9635430D01*
X10764846Y-9654478D02*
X10774370Y-9644954D01*
X10774370Y-9644954D02*
X10793418Y-9635430D01*
X10793418Y-9635430D02*
X10821989Y-9635430D01*
X10821989Y-9635430D02*
X10841037Y-9644954D01*
X10841037Y-9644954D02*
X10850561Y-9664002D01*
X10850561Y-9664002D02*
X10850561Y-9768764D01*
X10850561Y-9664002D02*
X10860085Y-9644954D01*
X10860085Y-9644954D02*
X10879132Y-9635430D01*
X10879132Y-9635430D02*
X10907704Y-9635430D01*
X10907704Y-9635430D02*
X10926751Y-9644954D01*
X10926751Y-9644954D02*
X10936275Y-9664002D01*
X10936275Y-9664002D02*
X10936275Y-9768764D01*
X11326751Y-9559240D02*
X11155323Y-9816383D01*
X11583894Y-9568764D02*
X11602942Y-9568764D01*
X11602942Y-9568764D02*
X11621989Y-9578288D01*
X11621989Y-9578288D02*
X11631513Y-9587811D01*
X11631513Y-9587811D02*
X11641037Y-9606859D01*
X11641037Y-9606859D02*
X11650561Y-9644954D01*
X11650561Y-9644954D02*
X11650561Y-9692573D01*
X11650561Y-9692573D02*
X11641037Y-9730669D01*
X11641037Y-9730669D02*
X11631513Y-9749716D01*
X11631513Y-9749716D02*
X11621989Y-9759240D01*
X11621989Y-9759240D02*
X11602942Y-9768764D01*
X11602942Y-9768764D02*
X11583894Y-9768764D01*
X11583894Y-9768764D02*
X11564846Y-9759240D01*
X11564846Y-9759240D02*
X11555323Y-9749716D01*
X11555323Y-9749716D02*
X11545799Y-9730669D01*
X11545799Y-9730669D02*
X11536275Y-9692573D01*
X11536275Y-9692573D02*
X11536275Y-9644954D01*
X11536275Y-9644954D02*
X11545799Y-9606859D01*
X11545799Y-9606859D02*
X11555323Y-9587811D01*
X11555323Y-9587811D02*
X11564846Y-9578288D01*
X11564846Y-9578288D02*
X11583894Y-9568764D01*
X11736275Y-9749716D02*
X11745799Y-9759240D01*
X11745799Y-9759240D02*
X11736275Y-9768764D01*
X11736275Y-9768764D02*
X11726751Y-9759240D01*
X11726751Y-9759240D02*
X11736275Y-9749716D01*
X11736275Y-9749716D02*
X11736275Y-9768764D01*
X11869608Y-9568764D02*
X11888656Y-9568764D01*
X11888656Y-9568764D02*
X11907704Y-9578288D01*
X11907704Y-9578288D02*
X11917227Y-9587811D01*
X11917227Y-9587811D02*
X11926751Y-9606859D01*
X11926751Y-9606859D02*
X11936275Y-9644954D01*
X11936275Y-9644954D02*
X11936275Y-9692573D01*
X11936275Y-9692573D02*
X11926751Y-9730669D01*
X11926751Y-9730669D02*
X11917227Y-9749716D01*
X11917227Y-9749716D02*
X11907704Y-9759240D01*
X11907704Y-9759240D02*
X11888656Y-9768764D01*
X11888656Y-9768764D02*
X11869608Y-9768764D01*
X11869608Y-9768764D02*
X11850561Y-9759240D01*
X11850561Y-9759240D02*
X11841037Y-9749716D01*
X11841037Y-9749716D02*
X11831513Y-9730669D01*
X11831513Y-9730669D02*
X11821989Y-9692573D01*
X11821989Y-9692573D02*
X11821989Y-9644954D01*
X11821989Y-9644954D02*
X11831513Y-9606859D01*
X11831513Y-9606859D02*
X11841037Y-9587811D01*
X11841037Y-9587811D02*
X11850561Y-9578288D01*
X11850561Y-9578288D02*
X11869608Y-9568764D01*
X12126751Y-9768764D02*
X12012466Y-9768764D01*
X12069608Y-9768764D02*
X12069608Y-9568764D01*
X12069608Y-9568764D02*
X12050561Y-9597335D01*
X12050561Y-9597335D02*
X12031513Y-9616383D01*
X12031513Y-9616383D02*
X12012466Y-9625907D01*
X12250561Y-9568764D02*
X12269608Y-9568764D01*
X12269608Y-9568764D02*
X12288656Y-9578288D01*
X12288656Y-9578288D02*
X12298180Y-9587811D01*
X12298180Y-9587811D02*
X12307704Y-9606859D01*
X12307704Y-9606859D02*
X12317227Y-9644954D01*
X12317227Y-9644954D02*
X12317227Y-9692573D01*
X12317227Y-9692573D02*
X12307704Y-9730669D01*
X12307704Y-9730669D02*
X12298180Y-9749716D01*
X12298180Y-9749716D02*
X12288656Y-9759240D01*
X12288656Y-9759240D02*
X12269608Y-9768764D01*
X12269608Y-9768764D02*
X12250561Y-9768764D01*
X12250561Y-9768764D02*
X12231513Y-9759240D01*
X12231513Y-9759240D02*
X12221989Y-9749716D01*
X12221989Y-9749716D02*
X12212466Y-9730669D01*
X12212466Y-9730669D02*
X12202942Y-9692573D01*
X12202942Y-9692573D02*
X12202942Y-9644954D01*
X12202942Y-9644954D02*
X12212466Y-9606859D01*
X12212466Y-9606859D02*
X12221989Y-9587811D01*
X12221989Y-9587811D02*
X12231513Y-9578288D01*
X12231513Y-9578288D02*
X12250561Y-9568764D01*
X12441037Y-9568764D02*
X12460085Y-9568764D01*
X12460085Y-9568764D02*
X12479132Y-9578288D01*
X12479132Y-9578288D02*
X12488656Y-9587811D01*
X12488656Y-9587811D02*
X12498180Y-9606859D01*
X12498180Y-9606859D02*
X12507704Y-9644954D01*
X12507704Y-9644954D02*
X12507704Y-9692573D01*
X12507704Y-9692573D02*
X12498180Y-9730669D01*
X12498180Y-9730669D02*
X12488656Y-9749716D01*
X12488656Y-9749716D02*
X12479132Y-9759240D01*
X12479132Y-9759240D02*
X12460085Y-9768764D01*
X12460085Y-9768764D02*
X12441037Y-9768764D01*
X12441037Y-9768764D02*
X12421989Y-9759240D01*
X12421989Y-9759240D02*
X12412466Y-9749716D01*
X12412466Y-9749716D02*
X12402942Y-9730669D01*
X12402942Y-9730669D02*
X12393418Y-9692573D01*
X12393418Y-9692573D02*
X12393418Y-9644954D01*
X12393418Y-9644954D02*
X12402942Y-9606859D01*
X12402942Y-9606859D02*
X12412466Y-9587811D01*
X12412466Y-9587811D02*
X12421989Y-9578288D01*
X12421989Y-9578288D02*
X12441037Y-9568764D01*
X12583894Y-9568764D02*
X12583894Y-9606859D01*
X12660085Y-9568764D02*
X12660085Y-9606859D01*
X12955323Y-9844954D02*
X12945799Y-9835430D01*
X12945799Y-9835430D02*
X12926751Y-9806859D01*
X12926751Y-9806859D02*
X12917228Y-9787811D01*
X12917228Y-9787811D02*
X12907704Y-9759240D01*
X12907704Y-9759240D02*
X12898180Y-9711621D01*
X12898180Y-9711621D02*
X12898180Y-9673526D01*
X12898180Y-9673526D02*
X12907704Y-9625907D01*
X12907704Y-9625907D02*
X12917228Y-9597335D01*
X12917228Y-9597335D02*
X12926751Y-9578288D01*
X12926751Y-9578288D02*
X12945799Y-9549716D01*
X12945799Y-9549716D02*
X12955323Y-9540192D01*
X13012466Y-9568764D02*
X13145799Y-9568764D01*
X13145799Y-9568764D02*
X13060085Y-9768764D01*
X13307704Y-9568764D02*
X13269608Y-9568764D01*
X13269608Y-9568764D02*
X13250561Y-9578288D01*
X13250561Y-9578288D02*
X13241037Y-9587811D01*
X13241037Y-9587811D02*
X13221989Y-9616383D01*
X13221989Y-9616383D02*
X13212466Y-9654478D01*
X13212466Y-9654478D02*
X13212466Y-9730669D01*
X13212466Y-9730669D02*
X13221989Y-9749716D01*
X13221989Y-9749716D02*
X13231513Y-9759240D01*
X13231513Y-9759240D02*
X13250561Y-9768764D01*
X13250561Y-9768764D02*
X13288656Y-9768764D01*
X13288656Y-9768764D02*
X13307704Y-9759240D01*
X13307704Y-9759240D02*
X13317228Y-9749716D01*
X13317228Y-9749716D02*
X13326751Y-9730669D01*
X13326751Y-9730669D02*
X13326751Y-9683050D01*
X13326751Y-9683050D02*
X13317228Y-9664002D01*
X13317228Y-9664002D02*
X13307704Y-9654478D01*
X13307704Y-9654478D02*
X13288656Y-9644954D01*
X13288656Y-9644954D02*
X13250561Y-9644954D01*
X13250561Y-9644954D02*
X13231513Y-9654478D01*
X13231513Y-9654478D02*
X13221989Y-9664002D01*
X13221989Y-9664002D02*
X13212466Y-9683050D01*
X13507704Y-9568764D02*
X13412466Y-9568764D01*
X13412466Y-9568764D02*
X13402942Y-9664002D01*
X13402942Y-9664002D02*
X13412466Y-9654478D01*
X13412466Y-9654478D02*
X13431513Y-9644954D01*
X13431513Y-9644954D02*
X13479132Y-9644954D01*
X13479132Y-9644954D02*
X13498180Y-9654478D01*
X13498180Y-9654478D02*
X13507704Y-9664002D01*
X13507704Y-9664002D02*
X13517228Y-9683050D01*
X13517228Y-9683050D02*
X13517228Y-9730669D01*
X13517228Y-9730669D02*
X13507704Y-9749716D01*
X13507704Y-9749716D02*
X13498180Y-9759240D01*
X13498180Y-9759240D02*
X13479132Y-9768764D01*
X13479132Y-9768764D02*
X13431513Y-9768764D01*
X13431513Y-9768764D02*
X13412466Y-9759240D01*
X13412466Y-9759240D02*
X13402942Y-9749716D01*
X13755323Y-9768764D02*
X13755323Y-9568764D01*
X13841037Y-9768764D02*
X13841037Y-9664002D01*
X13841037Y-9664002D02*
X13831513Y-9644954D01*
X13831513Y-9644954D02*
X13812466Y-9635430D01*
X13812466Y-9635430D02*
X13783894Y-9635430D01*
X13783894Y-9635430D02*
X13764847Y-9644954D01*
X13764847Y-9644954D02*
X13755323Y-9654478D01*
X13964847Y-9768764D02*
X13945799Y-9759240D01*
X13945799Y-9759240D02*
X13936275Y-9749716D01*
X13936275Y-9749716D02*
X13926751Y-9730669D01*
X13926751Y-9730669D02*
X13926751Y-9673526D01*
X13926751Y-9673526D02*
X13936275Y-9654478D01*
X13936275Y-9654478D02*
X13945799Y-9644954D01*
X13945799Y-9644954D02*
X13964847Y-9635430D01*
X13964847Y-9635430D02*
X13993418Y-9635430D01*
X13993418Y-9635430D02*
X14012466Y-9644954D01*
X14012466Y-9644954D02*
X14021990Y-9654478D01*
X14021990Y-9654478D02*
X14031513Y-9673526D01*
X14031513Y-9673526D02*
X14031513Y-9730669D01*
X14031513Y-9730669D02*
X14021990Y-9749716D01*
X14021990Y-9749716D02*
X14012466Y-9759240D01*
X14012466Y-9759240D02*
X13993418Y-9768764D01*
X13993418Y-9768764D02*
X13964847Y-9768764D01*
X14145799Y-9768764D02*
X14126751Y-9759240D01*
X14126751Y-9759240D02*
X14117228Y-9740192D01*
X14117228Y-9740192D02*
X14117228Y-9568764D01*
X14298180Y-9759240D02*
X14279132Y-9768764D01*
X14279132Y-9768764D02*
X14241037Y-9768764D01*
X14241037Y-9768764D02*
X14221990Y-9759240D01*
X14221990Y-9759240D02*
X14212466Y-9740192D01*
X14212466Y-9740192D02*
X14212466Y-9664002D01*
X14212466Y-9664002D02*
X14221990Y-9644954D01*
X14221990Y-9644954D02*
X14241037Y-9635430D01*
X14241037Y-9635430D02*
X14279132Y-9635430D01*
X14279132Y-9635430D02*
X14298180Y-9644954D01*
X14298180Y-9644954D02*
X14307704Y-9664002D01*
X14307704Y-9664002D02*
X14307704Y-9683050D01*
X14307704Y-9683050D02*
X14212466Y-9702097D01*
X14383894Y-9759240D02*
X14402942Y-9768764D01*
X14402942Y-9768764D02*
X14441037Y-9768764D01*
X14441037Y-9768764D02*
X14460085Y-9759240D01*
X14460085Y-9759240D02*
X14469609Y-9740192D01*
X14469609Y-9740192D02*
X14469609Y-9730669D01*
X14469609Y-9730669D02*
X14460085Y-9711621D01*
X14460085Y-9711621D02*
X14441037Y-9702097D01*
X14441037Y-9702097D02*
X14412466Y-9702097D01*
X14412466Y-9702097D02*
X14393418Y-9692573D01*
X14393418Y-9692573D02*
X14383894Y-9673526D01*
X14383894Y-9673526D02*
X14383894Y-9664002D01*
X14383894Y-9664002D02*
X14393418Y-9644954D01*
X14393418Y-9644954D02*
X14412466Y-9635430D01*
X14412466Y-9635430D02*
X14441037Y-9635430D01*
X14441037Y-9635430D02*
X14460085Y-9644954D01*
X14536275Y-9844954D02*
X14545799Y-9835430D01*
X14545799Y-9835430D02*
X14564847Y-9806859D01*
X14564847Y-9806859D02*
X14574371Y-9787811D01*
X14574371Y-9787811D02*
X14583894Y-9759240D01*
X14583894Y-9759240D02*
X14593418Y-9711621D01*
X14593418Y-9711621D02*
X14593418Y-9673526D01*
X14593418Y-9673526D02*
X14583894Y-9625907D01*
X14583894Y-9625907D02*
X14574371Y-9597335D01*
X14574371Y-9597335D02*
X14564847Y-9578288D01*
X14564847Y-9578288D02*
X14545799Y-9549716D01*
X14545799Y-9549716D02*
X14536275Y-9540192D01*
D12*
X9380260Y-9941280D02*
G75*
G02*
X9280260Y-9941280I-50000J0D01*
G01*
X9280260Y-9941280D02*
G75*
G02*
X9380260Y-9941280I50000J0D01*
G01*
D11*
X9745799Y-10032764D02*
X9631513Y-10032764D01*
X9688656Y-10032764D02*
X9688656Y-9832764D01*
X9688656Y-9832764D02*
X9669608Y-9861335D01*
X9669608Y-9861335D02*
X9650561Y-9880383D01*
X9650561Y-9880383D02*
X9631513Y-9889907D01*
X9831513Y-10013716D02*
X9841037Y-10023240D01*
X9841037Y-10023240D02*
X9831513Y-10032764D01*
X9831513Y-10032764D02*
X9821989Y-10023240D01*
X9821989Y-10023240D02*
X9831513Y-10013716D01*
X9831513Y-10013716D02*
X9831513Y-10032764D01*
X9964846Y-9832764D02*
X9983894Y-9832764D01*
X9983894Y-9832764D02*
X10002942Y-9842288D01*
X10002942Y-9842288D02*
X10012465Y-9851811D01*
X10012465Y-9851811D02*
X10021989Y-9870859D01*
X10021989Y-9870859D02*
X10031513Y-9908954D01*
X10031513Y-9908954D02*
X10031513Y-9956573D01*
X10031513Y-9956573D02*
X10021989Y-9994669D01*
X10021989Y-9994669D02*
X10012465Y-10013716D01*
X10012465Y-10013716D02*
X10002942Y-10023240D01*
X10002942Y-10023240D02*
X9983894Y-10032764D01*
X9983894Y-10032764D02*
X9964846Y-10032764D01*
X9964846Y-10032764D02*
X9945799Y-10023240D01*
X9945799Y-10023240D02*
X9936275Y-10013716D01*
X9936275Y-10013716D02*
X9926751Y-9994669D01*
X9926751Y-9994669D02*
X9917227Y-9956573D01*
X9917227Y-9956573D02*
X9917227Y-9908954D01*
X9917227Y-9908954D02*
X9926751Y-9870859D01*
X9926751Y-9870859D02*
X9936275Y-9851811D01*
X9936275Y-9851811D02*
X9945799Y-9842288D01*
X9945799Y-9842288D02*
X9964846Y-9832764D01*
X10155323Y-9832764D02*
X10174370Y-9832764D01*
X10174370Y-9832764D02*
X10193418Y-9842288D01*
X10193418Y-9842288D02*
X10202942Y-9851811D01*
X10202942Y-9851811D02*
X10212465Y-9870859D01*
X10212465Y-9870859D02*
X10221989Y-9908954D01*
X10221989Y-9908954D02*
X10221989Y-9956573D01*
X10221989Y-9956573D02*
X10212465Y-9994669D01*
X10212465Y-9994669D02*
X10202942Y-10013716D01*
X10202942Y-10013716D02*
X10193418Y-10023240D01*
X10193418Y-10023240D02*
X10174370Y-10032764D01*
X10174370Y-10032764D02*
X10155323Y-10032764D01*
X10155323Y-10032764D02*
X10136275Y-10023240D01*
X10136275Y-10023240D02*
X10126751Y-10013716D01*
X10126751Y-10013716D02*
X10117227Y-9994669D01*
X10117227Y-9994669D02*
X10107704Y-9956573D01*
X10107704Y-9956573D02*
X10107704Y-9908954D01*
X10107704Y-9908954D02*
X10117227Y-9870859D01*
X10117227Y-9870859D02*
X10126751Y-9851811D01*
X10126751Y-9851811D02*
X10136275Y-9842288D01*
X10136275Y-9842288D02*
X10155323Y-9832764D01*
X10345799Y-9832764D02*
X10364846Y-9832764D01*
X10364846Y-9832764D02*
X10383894Y-9842288D01*
X10383894Y-9842288D02*
X10393418Y-9851811D01*
X10393418Y-9851811D02*
X10402942Y-9870859D01*
X10402942Y-9870859D02*
X10412465Y-9908954D01*
X10412465Y-9908954D02*
X10412465Y-9956573D01*
X10412465Y-9956573D02*
X10402942Y-9994669D01*
X10402942Y-9994669D02*
X10393418Y-10013716D01*
X10393418Y-10013716D02*
X10383894Y-10023240D01*
X10383894Y-10023240D02*
X10364846Y-10032764D01*
X10364846Y-10032764D02*
X10345799Y-10032764D01*
X10345799Y-10032764D02*
X10326751Y-10023240D01*
X10326751Y-10023240D02*
X10317227Y-10013716D01*
X10317227Y-10013716D02*
X10307704Y-9994669D01*
X10307704Y-9994669D02*
X10298180Y-9956573D01*
X10298180Y-9956573D02*
X10298180Y-9908954D01*
X10298180Y-9908954D02*
X10307704Y-9870859D01*
X10307704Y-9870859D02*
X10317227Y-9851811D01*
X10317227Y-9851811D02*
X10326751Y-9842288D01*
X10326751Y-9842288D02*
X10345799Y-9832764D01*
X10498180Y-10032764D02*
X10498180Y-9899430D01*
X10498180Y-9918478D02*
X10507704Y-9908954D01*
X10507704Y-9908954D02*
X10526751Y-9899430D01*
X10526751Y-9899430D02*
X10555323Y-9899430D01*
X10555323Y-9899430D02*
X10574370Y-9908954D01*
X10574370Y-9908954D02*
X10583894Y-9928002D01*
X10583894Y-9928002D02*
X10583894Y-10032764D01*
X10583894Y-9928002D02*
X10593418Y-9908954D01*
X10593418Y-9908954D02*
X10612465Y-9899430D01*
X10612465Y-9899430D02*
X10641037Y-9899430D01*
X10641037Y-9899430D02*
X10660085Y-9908954D01*
X10660085Y-9908954D02*
X10669608Y-9928002D01*
X10669608Y-9928002D02*
X10669608Y-10032764D01*
X10764846Y-10032764D02*
X10764846Y-9899430D01*
X10764846Y-9918478D02*
X10774370Y-9908954D01*
X10774370Y-9908954D02*
X10793418Y-9899430D01*
X10793418Y-9899430D02*
X10821989Y-9899430D01*
X10821989Y-9899430D02*
X10841037Y-9908954D01*
X10841037Y-9908954D02*
X10850561Y-9928002D01*
X10850561Y-9928002D02*
X10850561Y-10032764D01*
X10850561Y-9928002D02*
X10860085Y-9908954D01*
X10860085Y-9908954D02*
X10879132Y-9899430D01*
X10879132Y-9899430D02*
X10907704Y-9899430D01*
X10907704Y-9899430D02*
X10926751Y-9908954D01*
X10926751Y-9908954D02*
X10936275Y-9928002D01*
X10936275Y-9928002D02*
X10936275Y-10032764D01*
X11326751Y-9823240D02*
X11155323Y-10080383D01*
X11583894Y-9832764D02*
X11602942Y-9832764D01*
X11602942Y-9832764D02*
X11621989Y-9842288D01*
X11621989Y-9842288D02*
X11631513Y-9851811D01*
X11631513Y-9851811D02*
X11641037Y-9870859D01*
X11641037Y-9870859D02*
X11650561Y-9908954D01*
X11650561Y-9908954D02*
X11650561Y-9956573D01*
X11650561Y-9956573D02*
X11641037Y-9994669D01*
X11641037Y-9994669D02*
X11631513Y-10013716D01*
X11631513Y-10013716D02*
X11621989Y-10023240D01*
X11621989Y-10023240D02*
X11602942Y-10032764D01*
X11602942Y-10032764D02*
X11583894Y-10032764D01*
X11583894Y-10032764D02*
X11564846Y-10023240D01*
X11564846Y-10023240D02*
X11555323Y-10013716D01*
X11555323Y-10013716D02*
X11545799Y-9994669D01*
X11545799Y-9994669D02*
X11536275Y-9956573D01*
X11536275Y-9956573D02*
X11536275Y-9908954D01*
X11536275Y-9908954D02*
X11545799Y-9870859D01*
X11545799Y-9870859D02*
X11555323Y-9851811D01*
X11555323Y-9851811D02*
X11564846Y-9842288D01*
X11564846Y-9842288D02*
X11583894Y-9832764D01*
X11736275Y-10013716D02*
X11745799Y-10023240D01*
X11745799Y-10023240D02*
X11736275Y-10032764D01*
X11736275Y-10032764D02*
X11726751Y-10023240D01*
X11726751Y-10023240D02*
X11736275Y-10013716D01*
X11736275Y-10013716D02*
X11736275Y-10032764D01*
X11869608Y-9832764D02*
X11888656Y-9832764D01*
X11888656Y-9832764D02*
X11907704Y-9842288D01*
X11907704Y-9842288D02*
X11917227Y-9851811D01*
X11917227Y-9851811D02*
X11926751Y-9870859D01*
X11926751Y-9870859D02*
X11936275Y-9908954D01*
X11936275Y-9908954D02*
X11936275Y-9956573D01*
X11936275Y-9956573D02*
X11926751Y-9994669D01*
X11926751Y-9994669D02*
X11917227Y-10013716D01*
X11917227Y-10013716D02*
X11907704Y-10023240D01*
X11907704Y-10023240D02*
X11888656Y-10032764D01*
X11888656Y-10032764D02*
X11869608Y-10032764D01*
X11869608Y-10032764D02*
X11850561Y-10023240D01*
X11850561Y-10023240D02*
X11841037Y-10013716D01*
X11841037Y-10013716D02*
X11831513Y-9994669D01*
X11831513Y-9994669D02*
X11821989Y-9956573D01*
X11821989Y-9956573D02*
X11821989Y-9908954D01*
X11821989Y-9908954D02*
X11831513Y-9870859D01*
X11831513Y-9870859D02*
X11841037Y-9851811D01*
X11841037Y-9851811D02*
X11850561Y-9842288D01*
X11850561Y-9842288D02*
X11869608Y-9832764D01*
X12002942Y-9832764D02*
X12126751Y-9832764D01*
X12126751Y-9832764D02*
X12060085Y-9908954D01*
X12060085Y-9908954D02*
X12088656Y-9908954D01*
X12088656Y-9908954D02*
X12107704Y-9918478D01*
X12107704Y-9918478D02*
X12117227Y-9928002D01*
X12117227Y-9928002D02*
X12126751Y-9947050D01*
X12126751Y-9947050D02*
X12126751Y-9994669D01*
X12126751Y-9994669D02*
X12117227Y-10013716D01*
X12117227Y-10013716D02*
X12107704Y-10023240D01*
X12107704Y-10023240D02*
X12088656Y-10032764D01*
X12088656Y-10032764D02*
X12031513Y-10032764D01*
X12031513Y-10032764D02*
X12012466Y-10023240D01*
X12012466Y-10023240D02*
X12002942Y-10013716D01*
X12221989Y-10032764D02*
X12260085Y-10032764D01*
X12260085Y-10032764D02*
X12279132Y-10023240D01*
X12279132Y-10023240D02*
X12288656Y-10013716D01*
X12288656Y-10013716D02*
X12307704Y-9985145D01*
X12307704Y-9985145D02*
X12317227Y-9947050D01*
X12317227Y-9947050D02*
X12317227Y-9870859D01*
X12317227Y-9870859D02*
X12307704Y-9851811D01*
X12307704Y-9851811D02*
X12298180Y-9842288D01*
X12298180Y-9842288D02*
X12279132Y-9832764D01*
X12279132Y-9832764D02*
X12241037Y-9832764D01*
X12241037Y-9832764D02*
X12221989Y-9842288D01*
X12221989Y-9842288D02*
X12212466Y-9851811D01*
X12212466Y-9851811D02*
X12202942Y-9870859D01*
X12202942Y-9870859D02*
X12202942Y-9918478D01*
X12202942Y-9918478D02*
X12212466Y-9937526D01*
X12212466Y-9937526D02*
X12221989Y-9947050D01*
X12221989Y-9947050D02*
X12241037Y-9956573D01*
X12241037Y-9956573D02*
X12279132Y-9956573D01*
X12279132Y-9956573D02*
X12298180Y-9947050D01*
X12298180Y-9947050D02*
X12307704Y-9937526D01*
X12307704Y-9937526D02*
X12317227Y-9918478D01*
X12488656Y-9899430D02*
X12488656Y-10032764D01*
X12441037Y-9823240D02*
X12393418Y-9966097D01*
X12393418Y-9966097D02*
X12517227Y-9966097D01*
X12583894Y-9832764D02*
X12583894Y-9870859D01*
X12660085Y-9832764D02*
X12660085Y-9870859D01*
X12955323Y-10108954D02*
X12945799Y-10099430D01*
X12945799Y-10099430D02*
X12926751Y-10070859D01*
X12926751Y-10070859D02*
X12917228Y-10051811D01*
X12917228Y-10051811D02*
X12907704Y-10023240D01*
X12907704Y-10023240D02*
X12898180Y-9975621D01*
X12898180Y-9975621D02*
X12898180Y-9937526D01*
X12898180Y-9937526D02*
X12907704Y-9889907D01*
X12907704Y-9889907D02*
X12917228Y-9861335D01*
X12917228Y-9861335D02*
X12926751Y-9842288D01*
X12926751Y-9842288D02*
X12945799Y-9813716D01*
X12945799Y-9813716D02*
X12955323Y-9804192D01*
X13136275Y-10032764D02*
X13021989Y-10032764D01*
X13079132Y-10032764D02*
X13079132Y-9832764D01*
X13079132Y-9832764D02*
X13060085Y-9861335D01*
X13060085Y-9861335D02*
X13041037Y-9880383D01*
X13041037Y-9880383D02*
X13021989Y-9889907D01*
X13212466Y-9851811D02*
X13221989Y-9842288D01*
X13221989Y-9842288D02*
X13241037Y-9832764D01*
X13241037Y-9832764D02*
X13288656Y-9832764D01*
X13288656Y-9832764D02*
X13307704Y-9842288D01*
X13307704Y-9842288D02*
X13317228Y-9851811D01*
X13317228Y-9851811D02*
X13326751Y-9870859D01*
X13326751Y-9870859D02*
X13326751Y-9889907D01*
X13326751Y-9889907D02*
X13317228Y-9918478D01*
X13317228Y-9918478D02*
X13202942Y-10032764D01*
X13202942Y-10032764D02*
X13326751Y-10032764D01*
X13564847Y-10032764D02*
X13564847Y-9832764D01*
X13650561Y-10032764D02*
X13650561Y-9928002D01*
X13650561Y-9928002D02*
X13641037Y-9908954D01*
X13641037Y-9908954D02*
X13621990Y-9899430D01*
X13621990Y-9899430D02*
X13593418Y-9899430D01*
X13593418Y-9899430D02*
X13574370Y-9908954D01*
X13574370Y-9908954D02*
X13564847Y-9918478D01*
X13774370Y-10032764D02*
X13755323Y-10023240D01*
X13755323Y-10023240D02*
X13745799Y-10013716D01*
X13745799Y-10013716D02*
X13736275Y-9994669D01*
X13736275Y-9994669D02*
X13736275Y-9937526D01*
X13736275Y-9937526D02*
X13745799Y-9918478D01*
X13745799Y-9918478D02*
X13755323Y-9908954D01*
X13755323Y-9908954D02*
X13774370Y-9899430D01*
X13774370Y-9899430D02*
X13802942Y-9899430D01*
X13802942Y-9899430D02*
X13821990Y-9908954D01*
X13821990Y-9908954D02*
X13831513Y-9918478D01*
X13831513Y-9918478D02*
X13841037Y-9937526D01*
X13841037Y-9937526D02*
X13841037Y-9994669D01*
X13841037Y-9994669D02*
X13831513Y-10013716D01*
X13831513Y-10013716D02*
X13821990Y-10023240D01*
X13821990Y-10023240D02*
X13802942Y-10032764D01*
X13802942Y-10032764D02*
X13774370Y-10032764D01*
X13955323Y-10032764D02*
X13936275Y-10023240D01*
X13936275Y-10023240D02*
X13926751Y-10004192D01*
X13926751Y-10004192D02*
X13926751Y-9832764D01*
X14107704Y-10023240D02*
X14088656Y-10032764D01*
X14088656Y-10032764D02*
X14050561Y-10032764D01*
X14050561Y-10032764D02*
X14031513Y-10023240D01*
X14031513Y-10023240D02*
X14021990Y-10004192D01*
X14021990Y-10004192D02*
X14021990Y-9928002D01*
X14021990Y-9928002D02*
X14031513Y-9908954D01*
X14031513Y-9908954D02*
X14050561Y-9899430D01*
X14050561Y-9899430D02*
X14088656Y-9899430D01*
X14088656Y-9899430D02*
X14107704Y-9908954D01*
X14107704Y-9908954D02*
X14117228Y-9928002D01*
X14117228Y-9928002D02*
X14117228Y-9947050D01*
X14117228Y-9947050D02*
X14021990Y-9966097D01*
X14193418Y-10023240D02*
X14212466Y-10032764D01*
X14212466Y-10032764D02*
X14250561Y-10032764D01*
X14250561Y-10032764D02*
X14269609Y-10023240D01*
X14269609Y-10023240D02*
X14279132Y-10004192D01*
X14279132Y-10004192D02*
X14279132Y-9994669D01*
X14279132Y-9994669D02*
X14269609Y-9975621D01*
X14269609Y-9975621D02*
X14250561Y-9966097D01*
X14250561Y-9966097D02*
X14221990Y-9966097D01*
X14221990Y-9966097D02*
X14202942Y-9956573D01*
X14202942Y-9956573D02*
X14193418Y-9937526D01*
X14193418Y-9937526D02*
X14193418Y-9928002D01*
X14193418Y-9928002D02*
X14202942Y-9908954D01*
X14202942Y-9908954D02*
X14221990Y-9899430D01*
X14221990Y-9899430D02*
X14250561Y-9899430D01*
X14250561Y-9899430D02*
X14269609Y-9908954D01*
X14345799Y-10108954D02*
X14355323Y-10099430D01*
X14355323Y-10099430D02*
X14374371Y-10070859D01*
X14374371Y-10070859D02*
X14383894Y-10051811D01*
X14383894Y-10051811D02*
X14393418Y-10023240D01*
X14393418Y-10023240D02*
X14402942Y-9975621D01*
X14402942Y-9975621D02*
X14402942Y-9937526D01*
X14402942Y-9937526D02*
X14393418Y-9889907D01*
X14393418Y-9889907D02*
X14383894Y-9861335D01*
X14383894Y-9861335D02*
X14374371Y-9842288D01*
X14374371Y-9842288D02*
X14355323Y-9813716D01*
X14355323Y-9813716D02*
X14345799Y-9804192D01*
M02*
