%TF.GenerationSoftware,KiCad,Pcbnew,8.0.4*%
%TF.CreationDate,2025-12-21T10:28:18-08:00*%
%TF.ProjectId,Power_Amplifier,506f7765-725f-4416-9d70-6c6966696572,rev?*%
%TF.SameCoordinates,Original*%
%TF.FileFunction,Legend,Top*%
%TF.FilePolarity,Positive*%
%FSLAX46Y46*%
G04 Gerber Fmt 4.6, Leading zero omitted, Abs format (unit mm)*
G04 Created by KiCad (PCBNEW 8.0.4) date 2025-12-21 10:28:18*
%MOMM*%
%LPD*%
G01*
G04 APERTURE LIST*
%ADD10C,0.177800*%
%ADD11C,0.200000*%
%ADD12C,0.150000*%
%ADD13C,0.254000*%
%ADD14C,0.508000*%
%ADD15C,0.120000*%
%ADD16C,0.250000*%
G04 APERTURE END LIST*
D10*
X115048344Y-52627899D02*
X115302344Y-53389899D01*
X115302344Y-53389899D02*
X115556344Y-52627899D01*
X115810344Y-53389899D02*
X115810344Y-52627899D01*
X115810344Y-52627899D02*
X115991773Y-52627899D01*
X115991773Y-52627899D02*
X116100630Y-52664185D01*
X116100630Y-52664185D02*
X116173201Y-52736756D01*
X116173201Y-52736756D02*
X116209487Y-52809328D01*
X116209487Y-52809328D02*
X116245773Y-52954471D01*
X116245773Y-52954471D02*
X116245773Y-53063328D01*
X116245773Y-53063328D02*
X116209487Y-53208471D01*
X116209487Y-53208471D02*
X116173201Y-53281042D01*
X116173201Y-53281042D02*
X116100630Y-53353614D01*
X116100630Y-53353614D02*
X115991773Y-53389899D01*
X115991773Y-53389899D02*
X115810344Y-53389899D01*
X116572344Y-53389899D02*
X116572344Y-52627899D01*
X116572344Y-52627899D02*
X116753773Y-52627899D01*
X116753773Y-52627899D02*
X116862630Y-52664185D01*
X116862630Y-52664185D02*
X116935201Y-52736756D01*
X116935201Y-52736756D02*
X116971487Y-52809328D01*
X116971487Y-52809328D02*
X117007773Y-52954471D01*
X117007773Y-52954471D02*
X117007773Y-53063328D01*
X117007773Y-53063328D02*
X116971487Y-53208471D01*
X116971487Y-53208471D02*
X116935201Y-53281042D01*
X116935201Y-53281042D02*
X116862630Y-53353614D01*
X116862630Y-53353614D02*
X116753773Y-53389899D01*
X116753773Y-53389899D02*
X116572344Y-53389899D01*
X114133944Y-85444699D02*
X114387944Y-86206699D01*
X114387944Y-86206699D02*
X114641944Y-85444699D01*
X115295087Y-85480985D02*
X115222516Y-85444699D01*
X115222516Y-85444699D02*
X115113658Y-85444699D01*
X115113658Y-85444699D02*
X115004801Y-85480985D01*
X115004801Y-85480985D02*
X114932230Y-85553556D01*
X114932230Y-85553556D02*
X114895944Y-85626128D01*
X114895944Y-85626128D02*
X114859658Y-85771271D01*
X114859658Y-85771271D02*
X114859658Y-85880128D01*
X114859658Y-85880128D02*
X114895944Y-86025271D01*
X114895944Y-86025271D02*
X114932230Y-86097842D01*
X114932230Y-86097842D02*
X115004801Y-86170414D01*
X115004801Y-86170414D02*
X115113658Y-86206699D01*
X115113658Y-86206699D02*
X115186230Y-86206699D01*
X115186230Y-86206699D02*
X115295087Y-86170414D01*
X115295087Y-86170414D02*
X115331373Y-86134128D01*
X115331373Y-86134128D02*
X115331373Y-85880128D01*
X115331373Y-85880128D02*
X115186230Y-85880128D01*
X116057087Y-85480985D02*
X115984516Y-85444699D01*
X115984516Y-85444699D02*
X115875658Y-85444699D01*
X115875658Y-85444699D02*
X115766801Y-85480985D01*
X115766801Y-85480985D02*
X115694230Y-85553556D01*
X115694230Y-85553556D02*
X115657944Y-85626128D01*
X115657944Y-85626128D02*
X115621658Y-85771271D01*
X115621658Y-85771271D02*
X115621658Y-85880128D01*
X115621658Y-85880128D02*
X115657944Y-86025271D01*
X115657944Y-86025271D02*
X115694230Y-86097842D01*
X115694230Y-86097842D02*
X115766801Y-86170414D01*
X115766801Y-86170414D02*
X115875658Y-86206699D01*
X115875658Y-86206699D02*
X115948230Y-86206699D01*
X115948230Y-86206699D02*
X116057087Y-86170414D01*
X116057087Y-86170414D02*
X116093373Y-86134128D01*
X116093373Y-86134128D02*
X116093373Y-85880128D01*
X116093373Y-85880128D02*
X115948230Y-85880128D01*
X121703144Y-85343099D02*
X121957144Y-86105099D01*
X121957144Y-86105099D02*
X122211144Y-85343099D01*
X122465144Y-86105099D02*
X122465144Y-85343099D01*
X122465144Y-85343099D02*
X122646573Y-85343099D01*
X122646573Y-85343099D02*
X122755430Y-85379385D01*
X122755430Y-85379385D02*
X122828001Y-85451956D01*
X122828001Y-85451956D02*
X122864287Y-85524528D01*
X122864287Y-85524528D02*
X122900573Y-85669671D01*
X122900573Y-85669671D02*
X122900573Y-85778528D01*
X122900573Y-85778528D02*
X122864287Y-85923671D01*
X122864287Y-85923671D02*
X122828001Y-85996242D01*
X122828001Y-85996242D02*
X122755430Y-86068814D01*
X122755430Y-86068814D02*
X122646573Y-86105099D01*
X122646573Y-86105099D02*
X122465144Y-86105099D01*
X123154573Y-85343099D02*
X123626287Y-85343099D01*
X123626287Y-85343099D02*
X123372287Y-85633385D01*
X123372287Y-85633385D02*
X123481144Y-85633385D01*
X123481144Y-85633385D02*
X123553716Y-85669671D01*
X123553716Y-85669671D02*
X123590001Y-85705956D01*
X123590001Y-85705956D02*
X123626287Y-85778528D01*
X123626287Y-85778528D02*
X123626287Y-85959956D01*
X123626287Y-85959956D02*
X123590001Y-86032528D01*
X123590001Y-86032528D02*
X123553716Y-86068814D01*
X123553716Y-86068814D02*
X123481144Y-86105099D01*
X123481144Y-86105099D02*
X123263430Y-86105099D01*
X123263430Y-86105099D02*
X123190858Y-86068814D01*
X123190858Y-86068814D02*
X123154573Y-86032528D01*
X124206858Y-85705956D02*
X124315715Y-85742242D01*
X124315715Y-85742242D02*
X124352001Y-85778528D01*
X124352001Y-85778528D02*
X124388287Y-85851099D01*
X124388287Y-85851099D02*
X124388287Y-85959956D01*
X124388287Y-85959956D02*
X124352001Y-86032528D01*
X124352001Y-86032528D02*
X124315715Y-86068814D01*
X124315715Y-86068814D02*
X124243144Y-86105099D01*
X124243144Y-86105099D02*
X123952858Y-86105099D01*
X123952858Y-86105099D02*
X123952858Y-85343099D01*
X123952858Y-85343099D02*
X124206858Y-85343099D01*
X124206858Y-85343099D02*
X124279430Y-85379385D01*
X124279430Y-85379385D02*
X124315715Y-85415671D01*
X124315715Y-85415671D02*
X124352001Y-85488242D01*
X124352001Y-85488242D02*
X124352001Y-85560814D01*
X124352001Y-85560814D02*
X124315715Y-85633385D01*
X124315715Y-85633385D02*
X124279430Y-85669671D01*
X124279430Y-85669671D02*
X124206858Y-85705956D01*
X124206858Y-85705956D02*
X123952858Y-85705956D01*
X129119944Y-88797499D02*
X129373944Y-89559499D01*
X129373944Y-89559499D02*
X129627944Y-88797499D01*
X130317373Y-89559499D02*
X130063373Y-89196642D01*
X129881944Y-89559499D02*
X129881944Y-88797499D01*
X129881944Y-88797499D02*
X130172230Y-88797499D01*
X130172230Y-88797499D02*
X130244801Y-88833785D01*
X130244801Y-88833785D02*
X130281087Y-88870071D01*
X130281087Y-88870071D02*
X130317373Y-88942642D01*
X130317373Y-88942642D02*
X130317373Y-89051499D01*
X130317373Y-89051499D02*
X130281087Y-89124071D01*
X130281087Y-89124071D02*
X130244801Y-89160356D01*
X130244801Y-89160356D02*
X130172230Y-89196642D01*
X130172230Y-89196642D02*
X129881944Y-89196642D01*
X130643944Y-89160356D02*
X130897944Y-89160356D01*
X131006801Y-89559499D02*
X130643944Y-89559499D01*
X130643944Y-89559499D02*
X130643944Y-88797499D01*
X130643944Y-88797499D02*
X131006801Y-88797499D01*
X131587373Y-89160356D02*
X131333373Y-89160356D01*
X131333373Y-89559499D02*
X131333373Y-88797499D01*
X131333373Y-88797499D02*
X131696230Y-88797499D01*
X136195658Y-88746699D02*
X135832801Y-88746699D01*
X135832801Y-88746699D02*
X135796515Y-89109556D01*
X135796515Y-89109556D02*
X135832801Y-89073271D01*
X135832801Y-89073271D02*
X135905373Y-89036985D01*
X135905373Y-89036985D02*
X136086801Y-89036985D01*
X136086801Y-89036985D02*
X136159373Y-89073271D01*
X136159373Y-89073271D02*
X136195658Y-89109556D01*
X136195658Y-89109556D02*
X136231944Y-89182128D01*
X136231944Y-89182128D02*
X136231944Y-89363556D01*
X136231944Y-89363556D02*
X136195658Y-89436128D01*
X136195658Y-89436128D02*
X136159373Y-89472414D01*
X136159373Y-89472414D02*
X136086801Y-89508699D01*
X136086801Y-89508699D02*
X135905373Y-89508699D01*
X135905373Y-89508699D02*
X135832801Y-89472414D01*
X135832801Y-89472414D02*
X135796515Y-89436128D01*
X136449658Y-88746699D02*
X136703658Y-89508699D01*
X136703658Y-89508699D02*
X136957658Y-88746699D01*
D11*
X131114800Y-55727600D02*
X139623800Y-55727600D01*
X139623800Y-56870600D01*
X131114800Y-56870600D01*
X131114800Y-55727600D01*
G36*
X131114800Y-55727600D02*
G01*
X139623800Y-55727600D01*
X139623800Y-56870600D01*
X131114800Y-56870600D01*
X131114800Y-55727600D01*
G37*
D10*
X126688801Y-54855522D02*
X126688801Y-54093522D01*
X126688801Y-54093522D02*
X126942801Y-54637808D01*
X126942801Y-54637808D02*
X127196801Y-54093522D01*
X127196801Y-54093522D02*
X127196801Y-54855522D01*
X127668515Y-54855522D02*
X127595944Y-54819237D01*
X127595944Y-54819237D02*
X127559658Y-54782951D01*
X127559658Y-54782951D02*
X127523372Y-54710379D01*
X127523372Y-54710379D02*
X127523372Y-54492665D01*
X127523372Y-54492665D02*
X127559658Y-54420094D01*
X127559658Y-54420094D02*
X127595944Y-54383808D01*
X127595944Y-54383808D02*
X127668515Y-54347522D01*
X127668515Y-54347522D02*
X127777372Y-54347522D01*
X127777372Y-54347522D02*
X127849944Y-54383808D01*
X127849944Y-54383808D02*
X127886230Y-54420094D01*
X127886230Y-54420094D02*
X127922515Y-54492665D01*
X127922515Y-54492665D02*
X127922515Y-54710379D01*
X127922515Y-54710379D02*
X127886230Y-54782951D01*
X127886230Y-54782951D02*
X127849944Y-54819237D01*
X127849944Y-54819237D02*
X127777372Y-54855522D01*
X127777372Y-54855522D02*
X127668515Y-54855522D01*
X128249087Y-54347522D02*
X128249087Y-54855522D01*
X128249087Y-54420094D02*
X128285373Y-54383808D01*
X128285373Y-54383808D02*
X128357944Y-54347522D01*
X128357944Y-54347522D02*
X128466801Y-54347522D01*
X128466801Y-54347522D02*
X128539373Y-54383808D01*
X128539373Y-54383808D02*
X128575659Y-54456379D01*
X128575659Y-54456379D02*
X128575659Y-54855522D01*
X128829659Y-54347522D02*
X129119945Y-54347522D01*
X128938516Y-54093522D02*
X128938516Y-54746665D01*
X128938516Y-54746665D02*
X128974802Y-54819237D01*
X128974802Y-54819237D02*
X129047373Y-54855522D01*
X129047373Y-54855522D02*
X129119945Y-54855522D01*
X129954516Y-54855522D02*
X129954516Y-54093522D01*
X129954516Y-54093522D02*
X130208516Y-54637808D01*
X130208516Y-54637808D02*
X130462516Y-54093522D01*
X130462516Y-54093522D02*
X130462516Y-54855522D01*
X131151945Y-54347522D02*
X131151945Y-54855522D01*
X130825373Y-54347522D02*
X130825373Y-54746665D01*
X130825373Y-54746665D02*
X130861659Y-54819237D01*
X130861659Y-54819237D02*
X130934230Y-54855522D01*
X130934230Y-54855522D02*
X131043087Y-54855522D01*
X131043087Y-54855522D02*
X131115659Y-54819237D01*
X131115659Y-54819237D02*
X131151945Y-54782951D01*
X131514802Y-54855522D02*
X131514802Y-54347522D01*
X131514802Y-54492665D02*
X131551088Y-54420094D01*
X131551088Y-54420094D02*
X131587374Y-54383808D01*
X131587374Y-54383808D02*
X131659945Y-54347522D01*
X131659945Y-54347522D02*
X131732516Y-54347522D01*
X132313088Y-54855522D02*
X132313088Y-54456379D01*
X132313088Y-54456379D02*
X132276802Y-54383808D01*
X132276802Y-54383808D02*
X132204230Y-54347522D01*
X132204230Y-54347522D02*
X132059088Y-54347522D01*
X132059088Y-54347522D02*
X131986516Y-54383808D01*
X132313088Y-54819237D02*
X132240516Y-54855522D01*
X132240516Y-54855522D02*
X132059088Y-54855522D01*
X132059088Y-54855522D02*
X131986516Y-54819237D01*
X131986516Y-54819237D02*
X131950230Y-54746665D01*
X131950230Y-54746665D02*
X131950230Y-54674094D01*
X131950230Y-54674094D02*
X131986516Y-54601522D01*
X131986516Y-54601522D02*
X132059088Y-54565237D01*
X132059088Y-54565237D02*
X132240516Y-54565237D01*
X132240516Y-54565237D02*
X132313088Y-54528951D01*
X133002517Y-54855522D02*
X133002517Y-54093522D01*
X133002517Y-54819237D02*
X132929945Y-54855522D01*
X132929945Y-54855522D02*
X132784802Y-54855522D01*
X132784802Y-54855522D02*
X132712231Y-54819237D01*
X132712231Y-54819237D02*
X132675945Y-54782951D01*
X132675945Y-54782951D02*
X132639659Y-54710379D01*
X132639659Y-54710379D02*
X132639659Y-54492665D01*
X132639659Y-54492665D02*
X132675945Y-54420094D01*
X132675945Y-54420094D02*
X132712231Y-54383808D01*
X132712231Y-54383808D02*
X132784802Y-54347522D01*
X132784802Y-54347522D02*
X132929945Y-54347522D01*
X132929945Y-54347522D02*
X133002517Y-54383808D01*
X134127374Y-55109522D02*
X134127374Y-54020951D01*
X135252230Y-54855522D02*
X135252230Y-54093522D01*
X135252230Y-54093522D02*
X135542516Y-54093522D01*
X135542516Y-54093522D02*
X135615087Y-54129808D01*
X135615087Y-54129808D02*
X135651373Y-54166094D01*
X135651373Y-54166094D02*
X135687659Y-54238665D01*
X135687659Y-54238665D02*
X135687659Y-54347522D01*
X135687659Y-54347522D02*
X135651373Y-54420094D01*
X135651373Y-54420094D02*
X135615087Y-54456379D01*
X135615087Y-54456379D02*
X135542516Y-54492665D01*
X135542516Y-54492665D02*
X135252230Y-54492665D01*
X135977944Y-54637808D02*
X136340802Y-54637808D01*
X135905373Y-54855522D02*
X136159373Y-54093522D01*
X136159373Y-54093522D02*
X136413373Y-54855522D01*
X137429373Y-55109522D02*
X137429373Y-54020951D01*
X138989658Y-54855522D02*
X138735658Y-54492665D01*
X138554229Y-54855522D02*
X138554229Y-54093522D01*
X138554229Y-54093522D02*
X138844515Y-54093522D01*
X138844515Y-54093522D02*
X138917086Y-54129808D01*
X138917086Y-54129808D02*
X138953372Y-54166094D01*
X138953372Y-54166094D02*
X138989658Y-54238665D01*
X138989658Y-54238665D02*
X138989658Y-54347522D01*
X138989658Y-54347522D02*
X138953372Y-54420094D01*
X138953372Y-54420094D02*
X138917086Y-54456379D01*
X138917086Y-54456379D02*
X138844515Y-54492665D01*
X138844515Y-54492665D02*
X138554229Y-54492665D01*
X139316229Y-54456379D02*
X139570229Y-54456379D01*
X139679086Y-54855522D02*
X139316229Y-54855522D01*
X139316229Y-54855522D02*
X139316229Y-54093522D01*
X139316229Y-54093522D02*
X139679086Y-54093522D01*
X139896801Y-54093522D02*
X140150801Y-54855522D01*
X140150801Y-54855522D02*
X140404801Y-54093522D01*
X141384515Y-54093522D02*
X141457086Y-54093522D01*
X141457086Y-54093522D02*
X141529658Y-54129808D01*
X141529658Y-54129808D02*
X141565944Y-54166094D01*
X141565944Y-54166094D02*
X141602229Y-54238665D01*
X141602229Y-54238665D02*
X141638515Y-54383808D01*
X141638515Y-54383808D02*
X141638515Y-54565237D01*
X141638515Y-54565237D02*
X141602229Y-54710379D01*
X141602229Y-54710379D02*
X141565944Y-54782951D01*
X141565944Y-54782951D02*
X141529658Y-54819237D01*
X141529658Y-54819237D02*
X141457086Y-54855522D01*
X141457086Y-54855522D02*
X141384515Y-54855522D01*
X141384515Y-54855522D02*
X141311944Y-54819237D01*
X141311944Y-54819237D02*
X141275658Y-54782951D01*
X141275658Y-54782951D02*
X141239372Y-54710379D01*
X141239372Y-54710379D02*
X141203086Y-54565237D01*
X141203086Y-54565237D02*
X141203086Y-54383808D01*
X141203086Y-54383808D02*
X141239372Y-54238665D01*
X141239372Y-54238665D02*
X141275658Y-54166094D01*
X141275658Y-54166094D02*
X141311944Y-54129808D01*
X141311944Y-54129808D02*
X141384515Y-54093522D01*
X126652515Y-55864585D02*
X127015373Y-55864585D01*
X126579944Y-56082299D02*
X126833944Y-55320299D01*
X126833944Y-55320299D02*
X127087944Y-56082299D01*
X127305658Y-56046014D02*
X127414516Y-56082299D01*
X127414516Y-56082299D02*
X127595944Y-56082299D01*
X127595944Y-56082299D02*
X127668516Y-56046014D01*
X127668516Y-56046014D02*
X127704801Y-56009728D01*
X127704801Y-56009728D02*
X127741087Y-55937156D01*
X127741087Y-55937156D02*
X127741087Y-55864585D01*
X127741087Y-55864585D02*
X127704801Y-55792014D01*
X127704801Y-55792014D02*
X127668516Y-55755728D01*
X127668516Y-55755728D02*
X127595944Y-55719442D01*
X127595944Y-55719442D02*
X127450801Y-55683156D01*
X127450801Y-55683156D02*
X127378230Y-55646871D01*
X127378230Y-55646871D02*
X127341944Y-55610585D01*
X127341944Y-55610585D02*
X127305658Y-55538014D01*
X127305658Y-55538014D02*
X127305658Y-55465442D01*
X127305658Y-55465442D02*
X127341944Y-55392871D01*
X127341944Y-55392871D02*
X127378230Y-55356585D01*
X127378230Y-55356585D02*
X127450801Y-55320299D01*
X127450801Y-55320299D02*
X127632230Y-55320299D01*
X127632230Y-55320299D02*
X127741087Y-55356585D01*
X128031372Y-56046014D02*
X128140230Y-56082299D01*
X128140230Y-56082299D02*
X128321658Y-56082299D01*
X128321658Y-56082299D02*
X128394230Y-56046014D01*
X128394230Y-56046014D02*
X128430515Y-56009728D01*
X128430515Y-56009728D02*
X128466801Y-55937156D01*
X128466801Y-55937156D02*
X128466801Y-55864585D01*
X128466801Y-55864585D02*
X128430515Y-55792014D01*
X128430515Y-55792014D02*
X128394230Y-55755728D01*
X128394230Y-55755728D02*
X128321658Y-55719442D01*
X128321658Y-55719442D02*
X128176515Y-55683156D01*
X128176515Y-55683156D02*
X128103944Y-55646871D01*
X128103944Y-55646871D02*
X128067658Y-55610585D01*
X128067658Y-55610585D02*
X128031372Y-55538014D01*
X128031372Y-55538014D02*
X128031372Y-55465442D01*
X128031372Y-55465442D02*
X128067658Y-55392871D01*
X128067658Y-55392871D02*
X128103944Y-55356585D01*
X128103944Y-55356585D02*
X128176515Y-55320299D01*
X128176515Y-55320299D02*
X128357944Y-55320299D01*
X128357944Y-55320299D02*
X128466801Y-55356585D01*
X128793372Y-55320299D02*
X128793372Y-55937156D01*
X128793372Y-55937156D02*
X128829658Y-56009728D01*
X128829658Y-56009728D02*
X128865944Y-56046014D01*
X128865944Y-56046014D02*
X128938515Y-56082299D01*
X128938515Y-56082299D02*
X129083658Y-56082299D01*
X129083658Y-56082299D02*
X129156229Y-56046014D01*
X129156229Y-56046014D02*
X129192515Y-56009728D01*
X129192515Y-56009728D02*
X129228801Y-55937156D01*
X129228801Y-55937156D02*
X129228801Y-55320299D01*
X129591658Y-56082299D02*
X129591658Y-55320299D01*
X129591658Y-55320299D02*
X129845658Y-55864585D01*
X129845658Y-55864585D02*
X130099658Y-55320299D01*
X130099658Y-55320299D02*
X130099658Y-56082299D01*
X130462515Y-56009728D02*
X130498801Y-56046014D01*
X130498801Y-56046014D02*
X130462515Y-56082299D01*
X130462515Y-56082299D02*
X130426229Y-56046014D01*
X130426229Y-56046014D02*
X130462515Y-56009728D01*
X130462515Y-56009728D02*
X130462515Y-56082299D01*
X130462515Y-55610585D02*
X130498801Y-55646871D01*
X130498801Y-55646871D02*
X130462515Y-55683156D01*
X130462515Y-55683156D02*
X130426229Y-55646871D01*
X130426229Y-55646871D02*
X130462515Y-55610585D01*
X130462515Y-55610585D02*
X130462515Y-55683156D01*
D12*
X143227466Y-72708419D02*
X143227466Y-73422704D01*
X143227466Y-73422704D02*
X143179847Y-73565561D01*
X143179847Y-73565561D02*
X143084609Y-73660800D01*
X143084609Y-73660800D02*
X142941752Y-73708419D01*
X142941752Y-73708419D02*
X142846514Y-73708419D01*
X143846514Y-73136990D02*
X143751276Y-73089371D01*
X143751276Y-73089371D02*
X143703657Y-73041752D01*
X143703657Y-73041752D02*
X143656038Y-72946514D01*
X143656038Y-72946514D02*
X143656038Y-72898895D01*
X143656038Y-72898895D02*
X143703657Y-72803657D01*
X143703657Y-72803657D02*
X143751276Y-72756038D01*
X143751276Y-72756038D02*
X143846514Y-72708419D01*
X143846514Y-72708419D02*
X144036990Y-72708419D01*
X144036990Y-72708419D02*
X144132228Y-72756038D01*
X144132228Y-72756038D02*
X144179847Y-72803657D01*
X144179847Y-72803657D02*
X144227466Y-72898895D01*
X144227466Y-72898895D02*
X144227466Y-72946514D01*
X144227466Y-72946514D02*
X144179847Y-73041752D01*
X144179847Y-73041752D02*
X144132228Y-73089371D01*
X144132228Y-73089371D02*
X144036990Y-73136990D01*
X144036990Y-73136990D02*
X143846514Y-73136990D01*
X143846514Y-73136990D02*
X143751276Y-73184609D01*
X143751276Y-73184609D02*
X143703657Y-73232228D01*
X143703657Y-73232228D02*
X143656038Y-73327466D01*
X143656038Y-73327466D02*
X143656038Y-73517942D01*
X143656038Y-73517942D02*
X143703657Y-73613180D01*
X143703657Y-73613180D02*
X143751276Y-73660800D01*
X143751276Y-73660800D02*
X143846514Y-73708419D01*
X143846514Y-73708419D02*
X144036990Y-73708419D01*
X144036990Y-73708419D02*
X144132228Y-73660800D01*
X144132228Y-73660800D02*
X144179847Y-73613180D01*
X144179847Y-73613180D02*
X144227466Y-73517942D01*
X144227466Y-73517942D02*
X144227466Y-73327466D01*
X144227466Y-73327466D02*
X144179847Y-73232228D01*
X144179847Y-73232228D02*
X144132228Y-73184609D01*
X144132228Y-73184609D02*
X144036990Y-73136990D01*
X99996666Y-72911619D02*
X99996666Y-73625904D01*
X99996666Y-73625904D02*
X99949047Y-73768761D01*
X99949047Y-73768761D02*
X99853809Y-73864000D01*
X99853809Y-73864000D02*
X99710952Y-73911619D01*
X99710952Y-73911619D02*
X99615714Y-73911619D01*
X100996666Y-73911619D02*
X100425238Y-73911619D01*
X100710952Y-73911619D02*
X100710952Y-72911619D01*
X100710952Y-72911619D02*
X100615714Y-73054476D01*
X100615714Y-73054476D02*
X100520476Y-73149714D01*
X100520476Y-73149714D02*
X100425238Y-73197333D01*
X109725833Y-80337819D02*
X109392500Y-79861628D01*
X109154405Y-80337819D02*
X109154405Y-79337819D01*
X109154405Y-79337819D02*
X109535357Y-79337819D01*
X109535357Y-79337819D02*
X109630595Y-79385438D01*
X109630595Y-79385438D02*
X109678214Y-79433057D01*
X109678214Y-79433057D02*
X109725833Y-79528295D01*
X109725833Y-79528295D02*
X109725833Y-79671152D01*
X109725833Y-79671152D02*
X109678214Y-79766390D01*
X109678214Y-79766390D02*
X109630595Y-79814009D01*
X109630595Y-79814009D02*
X109535357Y-79861628D01*
X109535357Y-79861628D02*
X109154405Y-79861628D01*
X110582976Y-79671152D02*
X110582976Y-80337819D01*
X110344881Y-79290200D02*
X110106786Y-80004485D01*
X110106786Y-80004485D02*
X110725833Y-80004485D01*
X139207419Y-81054533D02*
X139921704Y-81054533D01*
X139921704Y-81054533D02*
X140064561Y-81102152D01*
X140064561Y-81102152D02*
X140159800Y-81197390D01*
X140159800Y-81197390D02*
X140207419Y-81340247D01*
X140207419Y-81340247D02*
X140207419Y-81435485D01*
X139207419Y-80673580D02*
X139207419Y-80006914D01*
X139207419Y-80006914D02*
X140207419Y-80435485D01*
X108188142Y-75289580D02*
X108140523Y-75337200D01*
X108140523Y-75337200D02*
X107997666Y-75384819D01*
X107997666Y-75384819D02*
X107902428Y-75384819D01*
X107902428Y-75384819D02*
X107759571Y-75337200D01*
X107759571Y-75337200D02*
X107664333Y-75241961D01*
X107664333Y-75241961D02*
X107616714Y-75146723D01*
X107616714Y-75146723D02*
X107569095Y-74956247D01*
X107569095Y-74956247D02*
X107569095Y-74813390D01*
X107569095Y-74813390D02*
X107616714Y-74622914D01*
X107616714Y-74622914D02*
X107664333Y-74527676D01*
X107664333Y-74527676D02*
X107759571Y-74432438D01*
X107759571Y-74432438D02*
X107902428Y-74384819D01*
X107902428Y-74384819D02*
X107997666Y-74384819D01*
X107997666Y-74384819D02*
X108140523Y-74432438D01*
X108140523Y-74432438D02*
X108188142Y-74480057D01*
X109140523Y-75384819D02*
X108569095Y-75384819D01*
X108854809Y-75384819D02*
X108854809Y-74384819D01*
X108854809Y-74384819D02*
X108759571Y-74527676D01*
X108759571Y-74527676D02*
X108664333Y-74622914D01*
X108664333Y-74622914D02*
X108569095Y-74670533D01*
X110045285Y-74384819D02*
X109569095Y-74384819D01*
X109569095Y-74384819D02*
X109521476Y-74861009D01*
X109521476Y-74861009D02*
X109569095Y-74813390D01*
X109569095Y-74813390D02*
X109664333Y-74765771D01*
X109664333Y-74765771D02*
X109902428Y-74765771D01*
X109902428Y-74765771D02*
X109997666Y-74813390D01*
X109997666Y-74813390D02*
X110045285Y-74861009D01*
X110045285Y-74861009D02*
X110092904Y-74956247D01*
X110092904Y-74956247D02*
X110092904Y-75194342D01*
X110092904Y-75194342D02*
X110045285Y-75289580D01*
X110045285Y-75289580D02*
X109997666Y-75337200D01*
X109997666Y-75337200D02*
X109902428Y-75384819D01*
X109902428Y-75384819D02*
X109664333Y-75384819D01*
X109664333Y-75384819D02*
X109569095Y-75337200D01*
X109569095Y-75337200D02*
X109521476Y-75289580D01*
X108153833Y-62208580D02*
X108106214Y-62256200D01*
X108106214Y-62256200D02*
X107963357Y-62303819D01*
X107963357Y-62303819D02*
X107868119Y-62303819D01*
X107868119Y-62303819D02*
X107725262Y-62256200D01*
X107725262Y-62256200D02*
X107630024Y-62160961D01*
X107630024Y-62160961D02*
X107582405Y-62065723D01*
X107582405Y-62065723D02*
X107534786Y-61875247D01*
X107534786Y-61875247D02*
X107534786Y-61732390D01*
X107534786Y-61732390D02*
X107582405Y-61541914D01*
X107582405Y-61541914D02*
X107630024Y-61446676D01*
X107630024Y-61446676D02*
X107725262Y-61351438D01*
X107725262Y-61351438D02*
X107868119Y-61303819D01*
X107868119Y-61303819D02*
X107963357Y-61303819D01*
X107963357Y-61303819D02*
X108106214Y-61351438D01*
X108106214Y-61351438D02*
X108153833Y-61399057D01*
X108630024Y-62303819D02*
X108820500Y-62303819D01*
X108820500Y-62303819D02*
X108915738Y-62256200D01*
X108915738Y-62256200D02*
X108963357Y-62208580D01*
X108963357Y-62208580D02*
X109058595Y-62065723D01*
X109058595Y-62065723D02*
X109106214Y-61875247D01*
X109106214Y-61875247D02*
X109106214Y-61494295D01*
X109106214Y-61494295D02*
X109058595Y-61399057D01*
X109058595Y-61399057D02*
X109010976Y-61351438D01*
X109010976Y-61351438D02*
X108915738Y-61303819D01*
X108915738Y-61303819D02*
X108725262Y-61303819D01*
X108725262Y-61303819D02*
X108630024Y-61351438D01*
X108630024Y-61351438D02*
X108582405Y-61399057D01*
X108582405Y-61399057D02*
X108534786Y-61494295D01*
X108534786Y-61494295D02*
X108534786Y-61732390D01*
X108534786Y-61732390D02*
X108582405Y-61827628D01*
X108582405Y-61827628D02*
X108630024Y-61875247D01*
X108630024Y-61875247D02*
X108725262Y-61922866D01*
X108725262Y-61922866D02*
X108915738Y-61922866D01*
X108915738Y-61922866D02*
X109010976Y-61875247D01*
X109010976Y-61875247D02*
X109058595Y-61827628D01*
X109058595Y-61827628D02*
X109106214Y-61732390D01*
X130148819Y-73064666D02*
X129672628Y-73397999D01*
X130148819Y-73636094D02*
X129148819Y-73636094D01*
X129148819Y-73636094D02*
X129148819Y-73255142D01*
X129148819Y-73255142D02*
X129196438Y-73159904D01*
X129196438Y-73159904D02*
X129244057Y-73112285D01*
X129244057Y-73112285D02*
X129339295Y-73064666D01*
X129339295Y-73064666D02*
X129482152Y-73064666D01*
X129482152Y-73064666D02*
X129577390Y-73112285D01*
X129577390Y-73112285D02*
X129625009Y-73159904D01*
X129625009Y-73159904D02*
X129672628Y-73255142D01*
X129672628Y-73255142D02*
X129672628Y-73636094D01*
X130148819Y-72112285D02*
X130148819Y-72683713D01*
X130148819Y-72397999D02*
X129148819Y-72397999D01*
X129148819Y-72397999D02*
X129291676Y-72493237D01*
X129291676Y-72493237D02*
X129386914Y-72588475D01*
X129386914Y-72588475D02*
X129434533Y-72683713D01*
X108223833Y-60430580D02*
X108176214Y-60478200D01*
X108176214Y-60478200D02*
X108033357Y-60525819D01*
X108033357Y-60525819D02*
X107938119Y-60525819D01*
X107938119Y-60525819D02*
X107795262Y-60478200D01*
X107795262Y-60478200D02*
X107700024Y-60382961D01*
X107700024Y-60382961D02*
X107652405Y-60287723D01*
X107652405Y-60287723D02*
X107604786Y-60097247D01*
X107604786Y-60097247D02*
X107604786Y-59954390D01*
X107604786Y-59954390D02*
X107652405Y-59763914D01*
X107652405Y-59763914D02*
X107700024Y-59668676D01*
X107700024Y-59668676D02*
X107795262Y-59573438D01*
X107795262Y-59573438D02*
X107938119Y-59525819D01*
X107938119Y-59525819D02*
X108033357Y-59525819D01*
X108033357Y-59525819D02*
X108176214Y-59573438D01*
X108176214Y-59573438D02*
X108223833Y-59621057D01*
X109176214Y-60525819D02*
X108604786Y-60525819D01*
X108890500Y-60525819D02*
X108890500Y-59525819D01*
X108890500Y-59525819D02*
X108795262Y-59668676D01*
X108795262Y-59668676D02*
X108700024Y-59763914D01*
X108700024Y-59763914D02*
X108604786Y-59811533D01*
D13*
X116108237Y-63693318D02*
X116108237Y-62423318D01*
X117438714Y-63572365D02*
X117378238Y-63632842D01*
X117378238Y-63632842D02*
X117196809Y-63693318D01*
X117196809Y-63693318D02*
X117075857Y-63693318D01*
X117075857Y-63693318D02*
X116894428Y-63632842D01*
X116894428Y-63632842D02*
X116773476Y-63511889D01*
X116773476Y-63511889D02*
X116712999Y-63390937D01*
X116712999Y-63390937D02*
X116652523Y-63149032D01*
X116652523Y-63149032D02*
X116652523Y-62967603D01*
X116652523Y-62967603D02*
X116712999Y-62725699D01*
X116712999Y-62725699D02*
X116773476Y-62604746D01*
X116773476Y-62604746D02*
X116894428Y-62483794D01*
X116894428Y-62483794D02*
X117075857Y-62423318D01*
X117075857Y-62423318D02*
X117196809Y-62423318D01*
X117196809Y-62423318D02*
X117378238Y-62483794D01*
X117378238Y-62483794D02*
X117438714Y-62544270D01*
X118648238Y-63693318D02*
X117922523Y-63693318D01*
X118285380Y-63693318D02*
X118285380Y-62423318D01*
X118285380Y-62423318D02*
X118164428Y-62604746D01*
X118164428Y-62604746D02*
X118043476Y-62725699D01*
X118043476Y-62725699D02*
X117922523Y-62786175D01*
D12*
X113149142Y-59414580D02*
X113101523Y-59462200D01*
X113101523Y-59462200D02*
X112958666Y-59509819D01*
X112958666Y-59509819D02*
X112863428Y-59509819D01*
X112863428Y-59509819D02*
X112720571Y-59462200D01*
X112720571Y-59462200D02*
X112625333Y-59366961D01*
X112625333Y-59366961D02*
X112577714Y-59271723D01*
X112577714Y-59271723D02*
X112530095Y-59081247D01*
X112530095Y-59081247D02*
X112530095Y-58938390D01*
X112530095Y-58938390D02*
X112577714Y-58747914D01*
X112577714Y-58747914D02*
X112625333Y-58652676D01*
X112625333Y-58652676D02*
X112720571Y-58557438D01*
X112720571Y-58557438D02*
X112863428Y-58509819D01*
X112863428Y-58509819D02*
X112958666Y-58509819D01*
X112958666Y-58509819D02*
X113101523Y-58557438D01*
X113101523Y-58557438D02*
X113149142Y-58605057D01*
X114101523Y-59509819D02*
X113530095Y-59509819D01*
X113815809Y-59509819D02*
X113815809Y-58509819D01*
X113815809Y-58509819D02*
X113720571Y-58652676D01*
X113720571Y-58652676D02*
X113625333Y-58747914D01*
X113625333Y-58747914D02*
X113530095Y-58795533D01*
X114720571Y-58509819D02*
X114815809Y-58509819D01*
X114815809Y-58509819D02*
X114911047Y-58557438D01*
X114911047Y-58557438D02*
X114958666Y-58605057D01*
X114958666Y-58605057D02*
X115006285Y-58700295D01*
X115006285Y-58700295D02*
X115053904Y-58890771D01*
X115053904Y-58890771D02*
X115053904Y-59128866D01*
X115053904Y-59128866D02*
X115006285Y-59319342D01*
X115006285Y-59319342D02*
X114958666Y-59414580D01*
X114958666Y-59414580D02*
X114911047Y-59462200D01*
X114911047Y-59462200D02*
X114815809Y-59509819D01*
X114815809Y-59509819D02*
X114720571Y-59509819D01*
X114720571Y-59509819D02*
X114625333Y-59462200D01*
X114625333Y-59462200D02*
X114577714Y-59414580D01*
X114577714Y-59414580D02*
X114530095Y-59319342D01*
X114530095Y-59319342D02*
X114482476Y-59128866D01*
X114482476Y-59128866D02*
X114482476Y-58890771D01*
X114482476Y-58890771D02*
X114530095Y-58700295D01*
X114530095Y-58700295D02*
X114577714Y-58605057D01*
X114577714Y-58605057D02*
X114625333Y-58557438D01*
X114625333Y-58557438D02*
X114720571Y-58509819D01*
X111731466Y-85256019D02*
X111731466Y-85970304D01*
X111731466Y-85970304D02*
X111683847Y-86113161D01*
X111683847Y-86113161D02*
X111588609Y-86208400D01*
X111588609Y-86208400D02*
X111445752Y-86256019D01*
X111445752Y-86256019D02*
X111350514Y-86256019D01*
X112112419Y-85256019D02*
X112731466Y-85256019D01*
X112731466Y-85256019D02*
X112398133Y-85636971D01*
X112398133Y-85636971D02*
X112540990Y-85636971D01*
X112540990Y-85636971D02*
X112636228Y-85684590D01*
X112636228Y-85684590D02*
X112683847Y-85732209D01*
X112683847Y-85732209D02*
X112731466Y-85827447D01*
X112731466Y-85827447D02*
X112731466Y-86065542D01*
X112731466Y-86065542D02*
X112683847Y-86160780D01*
X112683847Y-86160780D02*
X112636228Y-86208400D01*
X112636228Y-86208400D02*
X112540990Y-86256019D01*
X112540990Y-86256019D02*
X112255276Y-86256019D01*
X112255276Y-86256019D02*
X112160038Y-86208400D01*
X112160038Y-86208400D02*
X112112419Y-86160780D01*
X125853866Y-88761219D02*
X125853866Y-89475504D01*
X125853866Y-89475504D02*
X125806247Y-89618361D01*
X125806247Y-89618361D02*
X125711009Y-89713600D01*
X125711009Y-89713600D02*
X125568152Y-89761219D01*
X125568152Y-89761219D02*
X125472914Y-89761219D01*
X126806247Y-88761219D02*
X126330057Y-88761219D01*
X126330057Y-88761219D02*
X126282438Y-89237409D01*
X126282438Y-89237409D02*
X126330057Y-89189790D01*
X126330057Y-89189790D02*
X126425295Y-89142171D01*
X126425295Y-89142171D02*
X126663390Y-89142171D01*
X126663390Y-89142171D02*
X126758628Y-89189790D01*
X126758628Y-89189790D02*
X126806247Y-89237409D01*
X126806247Y-89237409D02*
X126853866Y-89332647D01*
X126853866Y-89332647D02*
X126853866Y-89570742D01*
X126853866Y-89570742D02*
X126806247Y-89665980D01*
X126806247Y-89665980D02*
X126758628Y-89713600D01*
X126758628Y-89713600D02*
X126663390Y-89761219D01*
X126663390Y-89761219D02*
X126425295Y-89761219D01*
X126425295Y-89761219D02*
X126330057Y-89713600D01*
X126330057Y-89713600D02*
X126282438Y-89665980D01*
X129532142Y-83815580D02*
X129484523Y-83863200D01*
X129484523Y-83863200D02*
X129341666Y-83910819D01*
X129341666Y-83910819D02*
X129246428Y-83910819D01*
X129246428Y-83910819D02*
X129103571Y-83863200D01*
X129103571Y-83863200D02*
X129008333Y-83767961D01*
X129008333Y-83767961D02*
X128960714Y-83672723D01*
X128960714Y-83672723D02*
X128913095Y-83482247D01*
X128913095Y-83482247D02*
X128913095Y-83339390D01*
X128913095Y-83339390D02*
X128960714Y-83148914D01*
X128960714Y-83148914D02*
X129008333Y-83053676D01*
X129008333Y-83053676D02*
X129103571Y-82958438D01*
X129103571Y-82958438D02*
X129246428Y-82910819D01*
X129246428Y-82910819D02*
X129341666Y-82910819D01*
X129341666Y-82910819D02*
X129484523Y-82958438D01*
X129484523Y-82958438D02*
X129532142Y-83006057D01*
X130484523Y-83910819D02*
X129913095Y-83910819D01*
X130198809Y-83910819D02*
X130198809Y-82910819D01*
X130198809Y-82910819D02*
X130103571Y-83053676D01*
X130103571Y-83053676D02*
X130008333Y-83148914D01*
X130008333Y-83148914D02*
X129913095Y-83196533D01*
X131055952Y-83339390D02*
X130960714Y-83291771D01*
X130960714Y-83291771D02*
X130913095Y-83244152D01*
X130913095Y-83244152D02*
X130865476Y-83148914D01*
X130865476Y-83148914D02*
X130865476Y-83101295D01*
X130865476Y-83101295D02*
X130913095Y-83006057D01*
X130913095Y-83006057D02*
X130960714Y-82958438D01*
X130960714Y-82958438D02*
X131055952Y-82910819D01*
X131055952Y-82910819D02*
X131246428Y-82910819D01*
X131246428Y-82910819D02*
X131341666Y-82958438D01*
X131341666Y-82958438D02*
X131389285Y-83006057D01*
X131389285Y-83006057D02*
X131436904Y-83101295D01*
X131436904Y-83101295D02*
X131436904Y-83148914D01*
X131436904Y-83148914D02*
X131389285Y-83244152D01*
X131389285Y-83244152D02*
X131341666Y-83291771D01*
X131341666Y-83291771D02*
X131246428Y-83339390D01*
X131246428Y-83339390D02*
X131055952Y-83339390D01*
X131055952Y-83339390D02*
X130960714Y-83387009D01*
X130960714Y-83387009D02*
X130913095Y-83434628D01*
X130913095Y-83434628D02*
X130865476Y-83529866D01*
X130865476Y-83529866D02*
X130865476Y-83720342D01*
X130865476Y-83720342D02*
X130913095Y-83815580D01*
X130913095Y-83815580D02*
X130960714Y-83863200D01*
X130960714Y-83863200D02*
X131055952Y-83910819D01*
X131055952Y-83910819D02*
X131246428Y-83910819D01*
X131246428Y-83910819D02*
X131341666Y-83863200D01*
X131341666Y-83863200D02*
X131389285Y-83815580D01*
X131389285Y-83815580D02*
X131436904Y-83720342D01*
X131436904Y-83720342D02*
X131436904Y-83529866D01*
X131436904Y-83529866D02*
X131389285Y-83434628D01*
X131389285Y-83434628D02*
X131341666Y-83387009D01*
X131341666Y-83387009D02*
X131246428Y-83339390D01*
X120677833Y-58906580D02*
X120630214Y-58954200D01*
X120630214Y-58954200D02*
X120487357Y-59001819D01*
X120487357Y-59001819D02*
X120392119Y-59001819D01*
X120392119Y-59001819D02*
X120249262Y-58954200D01*
X120249262Y-58954200D02*
X120154024Y-58858961D01*
X120154024Y-58858961D02*
X120106405Y-58763723D01*
X120106405Y-58763723D02*
X120058786Y-58573247D01*
X120058786Y-58573247D02*
X120058786Y-58430390D01*
X120058786Y-58430390D02*
X120106405Y-58239914D01*
X120106405Y-58239914D02*
X120154024Y-58144676D01*
X120154024Y-58144676D02*
X120249262Y-58049438D01*
X120249262Y-58049438D02*
X120392119Y-58001819D01*
X120392119Y-58001819D02*
X120487357Y-58001819D01*
X120487357Y-58001819D02*
X120630214Y-58049438D01*
X120630214Y-58049438D02*
X120677833Y-58097057D01*
X121011167Y-58001819D02*
X121630214Y-58001819D01*
X121630214Y-58001819D02*
X121296881Y-58382771D01*
X121296881Y-58382771D02*
X121439738Y-58382771D01*
X121439738Y-58382771D02*
X121534976Y-58430390D01*
X121534976Y-58430390D02*
X121582595Y-58478009D01*
X121582595Y-58478009D02*
X121630214Y-58573247D01*
X121630214Y-58573247D02*
X121630214Y-58811342D01*
X121630214Y-58811342D02*
X121582595Y-58906580D01*
X121582595Y-58906580D02*
X121534976Y-58954200D01*
X121534976Y-58954200D02*
X121439738Y-59001819D01*
X121439738Y-59001819D02*
X121154024Y-59001819D01*
X121154024Y-59001819D02*
X121058786Y-58954200D01*
X121058786Y-58954200D02*
X121011167Y-58906580D01*
X113752333Y-63097580D02*
X113704714Y-63145200D01*
X113704714Y-63145200D02*
X113561857Y-63192819D01*
X113561857Y-63192819D02*
X113466619Y-63192819D01*
X113466619Y-63192819D02*
X113323762Y-63145200D01*
X113323762Y-63145200D02*
X113228524Y-63049961D01*
X113228524Y-63049961D02*
X113180905Y-62954723D01*
X113180905Y-62954723D02*
X113133286Y-62764247D01*
X113133286Y-62764247D02*
X113133286Y-62621390D01*
X113133286Y-62621390D02*
X113180905Y-62430914D01*
X113180905Y-62430914D02*
X113228524Y-62335676D01*
X113228524Y-62335676D02*
X113323762Y-62240438D01*
X113323762Y-62240438D02*
X113466619Y-62192819D01*
X113466619Y-62192819D02*
X113561857Y-62192819D01*
X113561857Y-62192819D02*
X113704714Y-62240438D01*
X113704714Y-62240438D02*
X113752333Y-62288057D01*
X114133286Y-62288057D02*
X114180905Y-62240438D01*
X114180905Y-62240438D02*
X114276143Y-62192819D01*
X114276143Y-62192819D02*
X114514238Y-62192819D01*
X114514238Y-62192819D02*
X114609476Y-62240438D01*
X114609476Y-62240438D02*
X114657095Y-62288057D01*
X114657095Y-62288057D02*
X114704714Y-62383295D01*
X114704714Y-62383295D02*
X114704714Y-62478533D01*
X114704714Y-62478533D02*
X114657095Y-62621390D01*
X114657095Y-62621390D02*
X114085667Y-63192819D01*
X114085667Y-63192819D02*
X114704714Y-63192819D01*
X112101333Y-56461819D02*
X111625143Y-56461819D01*
X111625143Y-56461819D02*
X111625143Y-55461819D01*
X112958476Y-56461819D02*
X112387048Y-56461819D01*
X112672762Y-56461819D02*
X112672762Y-55461819D01*
X112672762Y-55461819D02*
X112577524Y-55604676D01*
X112577524Y-55604676D02*
X112482286Y-55699914D01*
X112482286Y-55699914D02*
X112387048Y-55747533D01*
X119499142Y-56819580D02*
X119451523Y-56867200D01*
X119451523Y-56867200D02*
X119308666Y-56914819D01*
X119308666Y-56914819D02*
X119213428Y-56914819D01*
X119213428Y-56914819D02*
X119070571Y-56867200D01*
X119070571Y-56867200D02*
X118975333Y-56771961D01*
X118975333Y-56771961D02*
X118927714Y-56676723D01*
X118927714Y-56676723D02*
X118880095Y-56486247D01*
X118880095Y-56486247D02*
X118880095Y-56343390D01*
X118880095Y-56343390D02*
X118927714Y-56152914D01*
X118927714Y-56152914D02*
X118975333Y-56057676D01*
X118975333Y-56057676D02*
X119070571Y-55962438D01*
X119070571Y-55962438D02*
X119213428Y-55914819D01*
X119213428Y-55914819D02*
X119308666Y-55914819D01*
X119308666Y-55914819D02*
X119451523Y-55962438D01*
X119451523Y-55962438D02*
X119499142Y-56010057D01*
X120451523Y-56914819D02*
X119880095Y-56914819D01*
X120165809Y-56914819D02*
X120165809Y-55914819D01*
X120165809Y-55914819D02*
X120070571Y-56057676D01*
X120070571Y-56057676D02*
X119975333Y-56152914D01*
X119975333Y-56152914D02*
X119880095Y-56200533D01*
X120784857Y-55914819D02*
X121451523Y-55914819D01*
X121451523Y-55914819D02*
X121022952Y-56914819D01*
X124900642Y-75670580D02*
X124853023Y-75718200D01*
X124853023Y-75718200D02*
X124710166Y-75765819D01*
X124710166Y-75765819D02*
X124614928Y-75765819D01*
X124614928Y-75765819D02*
X124472071Y-75718200D01*
X124472071Y-75718200D02*
X124376833Y-75622961D01*
X124376833Y-75622961D02*
X124329214Y-75527723D01*
X124329214Y-75527723D02*
X124281595Y-75337247D01*
X124281595Y-75337247D02*
X124281595Y-75194390D01*
X124281595Y-75194390D02*
X124329214Y-75003914D01*
X124329214Y-75003914D02*
X124376833Y-74908676D01*
X124376833Y-74908676D02*
X124472071Y-74813438D01*
X124472071Y-74813438D02*
X124614928Y-74765819D01*
X124614928Y-74765819D02*
X124710166Y-74765819D01*
X124710166Y-74765819D02*
X124853023Y-74813438D01*
X124853023Y-74813438D02*
X124900642Y-74861057D01*
X125853023Y-75765819D02*
X125281595Y-75765819D01*
X125567309Y-75765819D02*
X125567309Y-74765819D01*
X125567309Y-74765819D02*
X125472071Y-74908676D01*
X125472071Y-74908676D02*
X125376833Y-75003914D01*
X125376833Y-75003914D02*
X125281595Y-75051533D01*
X126233976Y-74861057D02*
X126281595Y-74813438D01*
X126281595Y-74813438D02*
X126376833Y-74765819D01*
X126376833Y-74765819D02*
X126614928Y-74765819D01*
X126614928Y-74765819D02*
X126710166Y-74813438D01*
X126710166Y-74813438D02*
X126757785Y-74861057D01*
X126757785Y-74861057D02*
X126805404Y-74956295D01*
X126805404Y-74956295D02*
X126805404Y-75051533D01*
X126805404Y-75051533D02*
X126757785Y-75194390D01*
X126757785Y-75194390D02*
X126186357Y-75765819D01*
X126186357Y-75765819D02*
X126805404Y-75765819D01*
X124995833Y-76940580D02*
X124948214Y-76988200D01*
X124948214Y-76988200D02*
X124805357Y-77035819D01*
X124805357Y-77035819D02*
X124710119Y-77035819D01*
X124710119Y-77035819D02*
X124567262Y-76988200D01*
X124567262Y-76988200D02*
X124472024Y-76892961D01*
X124472024Y-76892961D02*
X124424405Y-76797723D01*
X124424405Y-76797723D02*
X124376786Y-76607247D01*
X124376786Y-76607247D02*
X124376786Y-76464390D01*
X124376786Y-76464390D02*
X124424405Y-76273914D01*
X124424405Y-76273914D02*
X124472024Y-76178676D01*
X124472024Y-76178676D02*
X124567262Y-76083438D01*
X124567262Y-76083438D02*
X124710119Y-76035819D01*
X124710119Y-76035819D02*
X124805357Y-76035819D01*
X124805357Y-76035819D02*
X124948214Y-76083438D01*
X124948214Y-76083438D02*
X124995833Y-76131057D01*
X125852976Y-76369152D02*
X125852976Y-77035819D01*
X125614881Y-75988200D02*
X125376786Y-76702485D01*
X125376786Y-76702485D02*
X125995833Y-76702485D01*
X119372142Y-74273580D02*
X119324523Y-74321200D01*
X119324523Y-74321200D02*
X119181666Y-74368819D01*
X119181666Y-74368819D02*
X119086428Y-74368819D01*
X119086428Y-74368819D02*
X118943571Y-74321200D01*
X118943571Y-74321200D02*
X118848333Y-74225961D01*
X118848333Y-74225961D02*
X118800714Y-74130723D01*
X118800714Y-74130723D02*
X118753095Y-73940247D01*
X118753095Y-73940247D02*
X118753095Y-73797390D01*
X118753095Y-73797390D02*
X118800714Y-73606914D01*
X118800714Y-73606914D02*
X118848333Y-73511676D01*
X118848333Y-73511676D02*
X118943571Y-73416438D01*
X118943571Y-73416438D02*
X119086428Y-73368819D01*
X119086428Y-73368819D02*
X119181666Y-73368819D01*
X119181666Y-73368819D02*
X119324523Y-73416438D01*
X119324523Y-73416438D02*
X119372142Y-73464057D01*
X120324523Y-74368819D02*
X119753095Y-74368819D01*
X120038809Y-74368819D02*
X120038809Y-73368819D01*
X120038809Y-73368819D02*
X119943571Y-73511676D01*
X119943571Y-73511676D02*
X119848333Y-73606914D01*
X119848333Y-73606914D02*
X119753095Y-73654533D01*
X120657857Y-73368819D02*
X121276904Y-73368819D01*
X121276904Y-73368819D02*
X120943571Y-73749771D01*
X120943571Y-73749771D02*
X121086428Y-73749771D01*
X121086428Y-73749771D02*
X121181666Y-73797390D01*
X121181666Y-73797390D02*
X121229285Y-73845009D01*
X121229285Y-73845009D02*
X121276904Y-73940247D01*
X121276904Y-73940247D02*
X121276904Y-74178342D01*
X121276904Y-74178342D02*
X121229285Y-74273580D01*
X121229285Y-74273580D02*
X121181666Y-74321200D01*
X121181666Y-74321200D02*
X121086428Y-74368819D01*
X121086428Y-74368819D02*
X120800714Y-74368819D01*
X120800714Y-74368819D02*
X120705476Y-74321200D01*
X120705476Y-74321200D02*
X120657857Y-74273580D01*
X102540642Y-74146580D02*
X102493023Y-74194200D01*
X102493023Y-74194200D02*
X102350166Y-74241819D01*
X102350166Y-74241819D02*
X102254928Y-74241819D01*
X102254928Y-74241819D02*
X102112071Y-74194200D01*
X102112071Y-74194200D02*
X102016833Y-74098961D01*
X102016833Y-74098961D02*
X101969214Y-74003723D01*
X101969214Y-74003723D02*
X101921595Y-73813247D01*
X101921595Y-73813247D02*
X101921595Y-73670390D01*
X101921595Y-73670390D02*
X101969214Y-73479914D01*
X101969214Y-73479914D02*
X102016833Y-73384676D01*
X102016833Y-73384676D02*
X102112071Y-73289438D01*
X102112071Y-73289438D02*
X102254928Y-73241819D01*
X102254928Y-73241819D02*
X102350166Y-73241819D01*
X102350166Y-73241819D02*
X102493023Y-73289438D01*
X102493023Y-73289438D02*
X102540642Y-73337057D01*
X103493023Y-74241819D02*
X102921595Y-74241819D01*
X103207309Y-74241819D02*
X103207309Y-73241819D01*
X103207309Y-73241819D02*
X103112071Y-73384676D01*
X103112071Y-73384676D02*
X103016833Y-73479914D01*
X103016833Y-73479914D02*
X102921595Y-73527533D01*
X104350166Y-73241819D02*
X104159690Y-73241819D01*
X104159690Y-73241819D02*
X104064452Y-73289438D01*
X104064452Y-73289438D02*
X104016833Y-73337057D01*
X104016833Y-73337057D02*
X103921595Y-73479914D01*
X103921595Y-73479914D02*
X103873976Y-73670390D01*
X103873976Y-73670390D02*
X103873976Y-74051342D01*
X103873976Y-74051342D02*
X103921595Y-74146580D01*
X103921595Y-74146580D02*
X103969214Y-74194200D01*
X103969214Y-74194200D02*
X104064452Y-74241819D01*
X104064452Y-74241819D02*
X104254928Y-74241819D01*
X104254928Y-74241819D02*
X104350166Y-74194200D01*
X104350166Y-74194200D02*
X104397785Y-74146580D01*
X104397785Y-74146580D02*
X104445404Y-74051342D01*
X104445404Y-74051342D02*
X104445404Y-73813247D01*
X104445404Y-73813247D02*
X104397785Y-73718009D01*
X104397785Y-73718009D02*
X104350166Y-73670390D01*
X104350166Y-73670390D02*
X104254928Y-73622771D01*
X104254928Y-73622771D02*
X104064452Y-73622771D01*
X104064452Y-73622771D02*
X103969214Y-73670390D01*
X103969214Y-73670390D02*
X103921595Y-73718009D01*
X103921595Y-73718009D02*
X103873976Y-73813247D01*
X115276333Y-56561819D02*
X114800143Y-56561819D01*
X114800143Y-56561819D02*
X114800143Y-55561819D01*
X115562048Y-55657057D02*
X115609667Y-55609438D01*
X115609667Y-55609438D02*
X115704905Y-55561819D01*
X115704905Y-55561819D02*
X115943000Y-55561819D01*
X115943000Y-55561819D02*
X116038238Y-55609438D01*
X116038238Y-55609438D02*
X116085857Y-55657057D01*
X116085857Y-55657057D02*
X116133476Y-55752295D01*
X116133476Y-55752295D02*
X116133476Y-55847533D01*
X116133476Y-55847533D02*
X116085857Y-55990390D01*
X116085857Y-55990390D02*
X115514429Y-56561819D01*
X115514429Y-56561819D02*
X116133476Y-56561819D01*
X103457333Y-72622580D02*
X103409714Y-72670200D01*
X103409714Y-72670200D02*
X103266857Y-72717819D01*
X103266857Y-72717819D02*
X103171619Y-72717819D01*
X103171619Y-72717819D02*
X103028762Y-72670200D01*
X103028762Y-72670200D02*
X102933524Y-72574961D01*
X102933524Y-72574961D02*
X102885905Y-72479723D01*
X102885905Y-72479723D02*
X102838286Y-72289247D01*
X102838286Y-72289247D02*
X102838286Y-72146390D01*
X102838286Y-72146390D02*
X102885905Y-71955914D01*
X102885905Y-71955914D02*
X102933524Y-71860676D01*
X102933524Y-71860676D02*
X103028762Y-71765438D01*
X103028762Y-71765438D02*
X103171619Y-71717819D01*
X103171619Y-71717819D02*
X103266857Y-71717819D01*
X103266857Y-71717819D02*
X103409714Y-71765438D01*
X103409714Y-71765438D02*
X103457333Y-71813057D01*
X104028762Y-72146390D02*
X103933524Y-72098771D01*
X103933524Y-72098771D02*
X103885905Y-72051152D01*
X103885905Y-72051152D02*
X103838286Y-71955914D01*
X103838286Y-71955914D02*
X103838286Y-71908295D01*
X103838286Y-71908295D02*
X103885905Y-71813057D01*
X103885905Y-71813057D02*
X103933524Y-71765438D01*
X103933524Y-71765438D02*
X104028762Y-71717819D01*
X104028762Y-71717819D02*
X104219238Y-71717819D01*
X104219238Y-71717819D02*
X104314476Y-71765438D01*
X104314476Y-71765438D02*
X104362095Y-71813057D01*
X104362095Y-71813057D02*
X104409714Y-71908295D01*
X104409714Y-71908295D02*
X104409714Y-71955914D01*
X104409714Y-71955914D02*
X104362095Y-72051152D01*
X104362095Y-72051152D02*
X104314476Y-72098771D01*
X104314476Y-72098771D02*
X104219238Y-72146390D01*
X104219238Y-72146390D02*
X104028762Y-72146390D01*
X104028762Y-72146390D02*
X103933524Y-72194009D01*
X103933524Y-72194009D02*
X103885905Y-72241628D01*
X103885905Y-72241628D02*
X103838286Y-72336866D01*
X103838286Y-72336866D02*
X103838286Y-72527342D01*
X103838286Y-72527342D02*
X103885905Y-72622580D01*
X103885905Y-72622580D02*
X103933524Y-72670200D01*
X103933524Y-72670200D02*
X104028762Y-72717819D01*
X104028762Y-72717819D02*
X104219238Y-72717819D01*
X104219238Y-72717819D02*
X104314476Y-72670200D01*
X104314476Y-72670200D02*
X104362095Y-72622580D01*
X104362095Y-72622580D02*
X104409714Y-72527342D01*
X104409714Y-72527342D02*
X104409714Y-72336866D01*
X104409714Y-72336866D02*
X104362095Y-72241628D01*
X104362095Y-72241628D02*
X104314476Y-72194009D01*
X104314476Y-72194009D02*
X104219238Y-72146390D01*
X114387333Y-80337819D02*
X114054000Y-79861628D01*
X113815905Y-80337819D02*
X113815905Y-79337819D01*
X113815905Y-79337819D02*
X114196857Y-79337819D01*
X114196857Y-79337819D02*
X114292095Y-79385438D01*
X114292095Y-79385438D02*
X114339714Y-79433057D01*
X114339714Y-79433057D02*
X114387333Y-79528295D01*
X114387333Y-79528295D02*
X114387333Y-79671152D01*
X114387333Y-79671152D02*
X114339714Y-79766390D01*
X114339714Y-79766390D02*
X114292095Y-79814009D01*
X114292095Y-79814009D02*
X114196857Y-79861628D01*
X114196857Y-79861628D02*
X113815905Y-79861628D01*
X114720667Y-79337819D02*
X115339714Y-79337819D01*
X115339714Y-79337819D02*
X115006381Y-79718771D01*
X115006381Y-79718771D02*
X115149238Y-79718771D01*
X115149238Y-79718771D02*
X115244476Y-79766390D01*
X115244476Y-79766390D02*
X115292095Y-79814009D01*
X115292095Y-79814009D02*
X115339714Y-79909247D01*
X115339714Y-79909247D02*
X115339714Y-80147342D01*
X115339714Y-80147342D02*
X115292095Y-80242580D01*
X115292095Y-80242580D02*
X115244476Y-80290200D01*
X115244476Y-80290200D02*
X115149238Y-80337819D01*
X115149238Y-80337819D02*
X114863524Y-80337819D01*
X114863524Y-80337819D02*
X114768286Y-80290200D01*
X114768286Y-80290200D02*
X114720667Y-80242580D01*
X136390142Y-79353580D02*
X136342523Y-79401200D01*
X136342523Y-79401200D02*
X136199666Y-79448819D01*
X136199666Y-79448819D02*
X136104428Y-79448819D01*
X136104428Y-79448819D02*
X135961571Y-79401200D01*
X135961571Y-79401200D02*
X135866333Y-79305961D01*
X135866333Y-79305961D02*
X135818714Y-79210723D01*
X135818714Y-79210723D02*
X135771095Y-79020247D01*
X135771095Y-79020247D02*
X135771095Y-78877390D01*
X135771095Y-78877390D02*
X135818714Y-78686914D01*
X135818714Y-78686914D02*
X135866333Y-78591676D01*
X135866333Y-78591676D02*
X135961571Y-78496438D01*
X135961571Y-78496438D02*
X136104428Y-78448819D01*
X136104428Y-78448819D02*
X136199666Y-78448819D01*
X136199666Y-78448819D02*
X136342523Y-78496438D01*
X136342523Y-78496438D02*
X136390142Y-78544057D01*
X136771095Y-78544057D02*
X136818714Y-78496438D01*
X136818714Y-78496438D02*
X136913952Y-78448819D01*
X136913952Y-78448819D02*
X137152047Y-78448819D01*
X137152047Y-78448819D02*
X137247285Y-78496438D01*
X137247285Y-78496438D02*
X137294904Y-78544057D01*
X137294904Y-78544057D02*
X137342523Y-78639295D01*
X137342523Y-78639295D02*
X137342523Y-78734533D01*
X137342523Y-78734533D02*
X137294904Y-78877390D01*
X137294904Y-78877390D02*
X136723476Y-79448819D01*
X136723476Y-79448819D02*
X137342523Y-79448819D01*
X137961571Y-78448819D02*
X138056809Y-78448819D01*
X138056809Y-78448819D02*
X138152047Y-78496438D01*
X138152047Y-78496438D02*
X138199666Y-78544057D01*
X138199666Y-78544057D02*
X138247285Y-78639295D01*
X138247285Y-78639295D02*
X138294904Y-78829771D01*
X138294904Y-78829771D02*
X138294904Y-79067866D01*
X138294904Y-79067866D02*
X138247285Y-79258342D01*
X138247285Y-79258342D02*
X138199666Y-79353580D01*
X138199666Y-79353580D02*
X138152047Y-79401200D01*
X138152047Y-79401200D02*
X138056809Y-79448819D01*
X138056809Y-79448819D02*
X137961571Y-79448819D01*
X137961571Y-79448819D02*
X137866333Y-79401200D01*
X137866333Y-79401200D02*
X137818714Y-79353580D01*
X137818714Y-79353580D02*
X137771095Y-79258342D01*
X137771095Y-79258342D02*
X137723476Y-79067866D01*
X137723476Y-79067866D02*
X137723476Y-78829771D01*
X137723476Y-78829771D02*
X137771095Y-78639295D01*
X137771095Y-78639295D02*
X137818714Y-78544057D01*
X137818714Y-78544057D02*
X137866333Y-78496438D01*
X137866333Y-78496438D02*
X137961571Y-78448819D01*
X106448266Y-52642419D02*
X106448266Y-53356704D01*
X106448266Y-53356704D02*
X106400647Y-53499561D01*
X106400647Y-53499561D02*
X106305409Y-53594800D01*
X106305409Y-53594800D02*
X106162552Y-53642419D01*
X106162552Y-53642419D02*
X106067314Y-53642419D01*
X106876838Y-52737657D02*
X106924457Y-52690038D01*
X106924457Y-52690038D02*
X107019695Y-52642419D01*
X107019695Y-52642419D02*
X107257790Y-52642419D01*
X107257790Y-52642419D02*
X107353028Y-52690038D01*
X107353028Y-52690038D02*
X107400647Y-52737657D01*
X107400647Y-52737657D02*
X107448266Y-52832895D01*
X107448266Y-52832895D02*
X107448266Y-52928133D01*
X107448266Y-52928133D02*
X107400647Y-53070990D01*
X107400647Y-53070990D02*
X106829219Y-53642419D01*
X106829219Y-53642419D02*
X107448266Y-53642419D01*
X120169833Y-76940580D02*
X120122214Y-76988200D01*
X120122214Y-76988200D02*
X119979357Y-77035819D01*
X119979357Y-77035819D02*
X119884119Y-77035819D01*
X119884119Y-77035819D02*
X119741262Y-76988200D01*
X119741262Y-76988200D02*
X119646024Y-76892961D01*
X119646024Y-76892961D02*
X119598405Y-76797723D01*
X119598405Y-76797723D02*
X119550786Y-76607247D01*
X119550786Y-76607247D02*
X119550786Y-76464390D01*
X119550786Y-76464390D02*
X119598405Y-76273914D01*
X119598405Y-76273914D02*
X119646024Y-76178676D01*
X119646024Y-76178676D02*
X119741262Y-76083438D01*
X119741262Y-76083438D02*
X119884119Y-76035819D01*
X119884119Y-76035819D02*
X119979357Y-76035819D01*
X119979357Y-76035819D02*
X120122214Y-76083438D01*
X120122214Y-76083438D02*
X120169833Y-76131057D01*
X121074595Y-76035819D02*
X120598405Y-76035819D01*
X120598405Y-76035819D02*
X120550786Y-76512009D01*
X120550786Y-76512009D02*
X120598405Y-76464390D01*
X120598405Y-76464390D02*
X120693643Y-76416771D01*
X120693643Y-76416771D02*
X120931738Y-76416771D01*
X120931738Y-76416771D02*
X121026976Y-76464390D01*
X121026976Y-76464390D02*
X121074595Y-76512009D01*
X121074595Y-76512009D02*
X121122214Y-76607247D01*
X121122214Y-76607247D02*
X121122214Y-76845342D01*
X121122214Y-76845342D02*
X121074595Y-76940580D01*
X121074595Y-76940580D02*
X121026976Y-76988200D01*
X121026976Y-76988200D02*
X120931738Y-77035819D01*
X120931738Y-77035819D02*
X120693643Y-77035819D01*
X120693643Y-77035819D02*
X120598405Y-76988200D01*
X120598405Y-76988200D02*
X120550786Y-76940580D01*
X109112833Y-73511580D02*
X109065214Y-73559200D01*
X109065214Y-73559200D02*
X108922357Y-73606819D01*
X108922357Y-73606819D02*
X108827119Y-73606819D01*
X108827119Y-73606819D02*
X108684262Y-73559200D01*
X108684262Y-73559200D02*
X108589024Y-73463961D01*
X108589024Y-73463961D02*
X108541405Y-73368723D01*
X108541405Y-73368723D02*
X108493786Y-73178247D01*
X108493786Y-73178247D02*
X108493786Y-73035390D01*
X108493786Y-73035390D02*
X108541405Y-72844914D01*
X108541405Y-72844914D02*
X108589024Y-72749676D01*
X108589024Y-72749676D02*
X108684262Y-72654438D01*
X108684262Y-72654438D02*
X108827119Y-72606819D01*
X108827119Y-72606819D02*
X108922357Y-72606819D01*
X108922357Y-72606819D02*
X109065214Y-72654438D01*
X109065214Y-72654438D02*
X109112833Y-72702057D01*
X109446167Y-72606819D02*
X110112833Y-72606819D01*
X110112833Y-72606819D02*
X109684262Y-73606819D01*
X114446833Y-73511580D02*
X114399214Y-73559200D01*
X114399214Y-73559200D02*
X114256357Y-73606819D01*
X114256357Y-73606819D02*
X114161119Y-73606819D01*
X114161119Y-73606819D02*
X114018262Y-73559200D01*
X114018262Y-73559200D02*
X113923024Y-73463961D01*
X113923024Y-73463961D02*
X113875405Y-73368723D01*
X113875405Y-73368723D02*
X113827786Y-73178247D01*
X113827786Y-73178247D02*
X113827786Y-73035390D01*
X113827786Y-73035390D02*
X113875405Y-72844914D01*
X113875405Y-72844914D02*
X113923024Y-72749676D01*
X113923024Y-72749676D02*
X114018262Y-72654438D01*
X114018262Y-72654438D02*
X114161119Y-72606819D01*
X114161119Y-72606819D02*
X114256357Y-72606819D01*
X114256357Y-72606819D02*
X114399214Y-72654438D01*
X114399214Y-72654438D02*
X114446833Y-72702057D01*
X115303976Y-72606819D02*
X115113500Y-72606819D01*
X115113500Y-72606819D02*
X115018262Y-72654438D01*
X115018262Y-72654438D02*
X114970643Y-72702057D01*
X114970643Y-72702057D02*
X114875405Y-72844914D01*
X114875405Y-72844914D02*
X114827786Y-73035390D01*
X114827786Y-73035390D02*
X114827786Y-73416342D01*
X114827786Y-73416342D02*
X114875405Y-73511580D01*
X114875405Y-73511580D02*
X114923024Y-73559200D01*
X114923024Y-73559200D02*
X115018262Y-73606819D01*
X115018262Y-73606819D02*
X115208738Y-73606819D01*
X115208738Y-73606819D02*
X115303976Y-73559200D01*
X115303976Y-73559200D02*
X115351595Y-73511580D01*
X115351595Y-73511580D02*
X115399214Y-73416342D01*
X115399214Y-73416342D02*
X115399214Y-73178247D01*
X115399214Y-73178247D02*
X115351595Y-73083009D01*
X115351595Y-73083009D02*
X115303976Y-73035390D01*
X115303976Y-73035390D02*
X115208738Y-72987771D01*
X115208738Y-72987771D02*
X115018262Y-72987771D01*
X115018262Y-72987771D02*
X114923024Y-73035390D01*
X114923024Y-73035390D02*
X114875405Y-73083009D01*
X114875405Y-73083009D02*
X114827786Y-73178247D01*
X118741866Y-85256019D02*
X118741866Y-85970304D01*
X118741866Y-85970304D02*
X118694247Y-86113161D01*
X118694247Y-86113161D02*
X118599009Y-86208400D01*
X118599009Y-86208400D02*
X118456152Y-86256019D01*
X118456152Y-86256019D02*
X118360914Y-86256019D01*
X119646628Y-85589352D02*
X119646628Y-86256019D01*
X119408533Y-85208400D02*
X119170438Y-85922685D01*
X119170438Y-85922685D02*
X119789485Y-85922685D01*
X129500333Y-77189819D02*
X129167000Y-76713628D01*
X128928905Y-77189819D02*
X128928905Y-76189819D01*
X128928905Y-76189819D02*
X129309857Y-76189819D01*
X129309857Y-76189819D02*
X129405095Y-76237438D01*
X129405095Y-76237438D02*
X129452714Y-76285057D01*
X129452714Y-76285057D02*
X129500333Y-76380295D01*
X129500333Y-76380295D02*
X129500333Y-76523152D01*
X129500333Y-76523152D02*
X129452714Y-76618390D01*
X129452714Y-76618390D02*
X129405095Y-76666009D01*
X129405095Y-76666009D02*
X129309857Y-76713628D01*
X129309857Y-76713628D02*
X128928905Y-76713628D01*
X129881286Y-76285057D02*
X129928905Y-76237438D01*
X129928905Y-76237438D02*
X130024143Y-76189819D01*
X130024143Y-76189819D02*
X130262238Y-76189819D01*
X130262238Y-76189819D02*
X130357476Y-76237438D01*
X130357476Y-76237438D02*
X130405095Y-76285057D01*
X130405095Y-76285057D02*
X130452714Y-76380295D01*
X130452714Y-76380295D02*
X130452714Y-76475533D01*
X130452714Y-76475533D02*
X130405095Y-76618390D01*
X130405095Y-76618390D02*
X129833667Y-77189819D01*
X129833667Y-77189819D02*
X130452714Y-77189819D01*
X120582642Y-60684580D02*
X120535023Y-60732200D01*
X120535023Y-60732200D02*
X120392166Y-60779819D01*
X120392166Y-60779819D02*
X120296928Y-60779819D01*
X120296928Y-60779819D02*
X120154071Y-60732200D01*
X120154071Y-60732200D02*
X120058833Y-60636961D01*
X120058833Y-60636961D02*
X120011214Y-60541723D01*
X120011214Y-60541723D02*
X119963595Y-60351247D01*
X119963595Y-60351247D02*
X119963595Y-60208390D01*
X119963595Y-60208390D02*
X120011214Y-60017914D01*
X120011214Y-60017914D02*
X120058833Y-59922676D01*
X120058833Y-59922676D02*
X120154071Y-59827438D01*
X120154071Y-59827438D02*
X120296928Y-59779819D01*
X120296928Y-59779819D02*
X120392166Y-59779819D01*
X120392166Y-59779819D02*
X120535023Y-59827438D01*
X120535023Y-59827438D02*
X120582642Y-59875057D01*
X121535023Y-60779819D02*
X120963595Y-60779819D01*
X121249309Y-60779819D02*
X121249309Y-59779819D01*
X121249309Y-59779819D02*
X121154071Y-59922676D01*
X121154071Y-59922676D02*
X121058833Y-60017914D01*
X121058833Y-60017914D02*
X120963595Y-60065533D01*
X122487404Y-60779819D02*
X121915976Y-60779819D01*
X122201690Y-60779819D02*
X122201690Y-59779819D01*
X122201690Y-59779819D02*
X122106452Y-59922676D01*
X122106452Y-59922676D02*
X122011214Y-60017914D01*
X122011214Y-60017914D02*
X121915976Y-60065533D01*
X114165142Y-77321580D02*
X114117523Y-77369200D01*
X114117523Y-77369200D02*
X113974666Y-77416819D01*
X113974666Y-77416819D02*
X113879428Y-77416819D01*
X113879428Y-77416819D02*
X113736571Y-77369200D01*
X113736571Y-77369200D02*
X113641333Y-77273961D01*
X113641333Y-77273961D02*
X113593714Y-77178723D01*
X113593714Y-77178723D02*
X113546095Y-76988247D01*
X113546095Y-76988247D02*
X113546095Y-76845390D01*
X113546095Y-76845390D02*
X113593714Y-76654914D01*
X113593714Y-76654914D02*
X113641333Y-76559676D01*
X113641333Y-76559676D02*
X113736571Y-76464438D01*
X113736571Y-76464438D02*
X113879428Y-76416819D01*
X113879428Y-76416819D02*
X113974666Y-76416819D01*
X113974666Y-76416819D02*
X114117523Y-76464438D01*
X114117523Y-76464438D02*
X114165142Y-76512057D01*
X115117523Y-77416819D02*
X114546095Y-77416819D01*
X114831809Y-77416819D02*
X114831809Y-76416819D01*
X114831809Y-76416819D02*
X114736571Y-76559676D01*
X114736571Y-76559676D02*
X114641333Y-76654914D01*
X114641333Y-76654914D02*
X114546095Y-76702533D01*
X115974666Y-76750152D02*
X115974666Y-77416819D01*
X115736571Y-76369200D02*
X115498476Y-77083485D01*
X115498476Y-77083485D02*
X116117523Y-77083485D01*
X136833780Y-84107257D02*
X136881400Y-84154876D01*
X136881400Y-84154876D02*
X136929019Y-84297733D01*
X136929019Y-84297733D02*
X136929019Y-84392971D01*
X136929019Y-84392971D02*
X136881400Y-84535828D01*
X136881400Y-84535828D02*
X136786161Y-84631066D01*
X136786161Y-84631066D02*
X136690923Y-84678685D01*
X136690923Y-84678685D02*
X136500447Y-84726304D01*
X136500447Y-84726304D02*
X136357590Y-84726304D01*
X136357590Y-84726304D02*
X136167114Y-84678685D01*
X136167114Y-84678685D02*
X136071876Y-84631066D01*
X136071876Y-84631066D02*
X135976638Y-84535828D01*
X135976638Y-84535828D02*
X135929019Y-84392971D01*
X135929019Y-84392971D02*
X135929019Y-84297733D01*
X135929019Y-84297733D02*
X135976638Y-84154876D01*
X135976638Y-84154876D02*
X136024257Y-84107257D01*
X136929019Y-83154876D02*
X136929019Y-83726304D01*
X136929019Y-83440590D02*
X135929019Y-83440590D01*
X135929019Y-83440590D02*
X136071876Y-83535828D01*
X136071876Y-83535828D02*
X136167114Y-83631066D01*
X136167114Y-83631066D02*
X136214733Y-83726304D01*
X136929019Y-82678685D02*
X136929019Y-82488209D01*
X136929019Y-82488209D02*
X136881400Y-82392971D01*
X136881400Y-82392971D02*
X136833780Y-82345352D01*
X136833780Y-82345352D02*
X136690923Y-82250114D01*
X136690923Y-82250114D02*
X136500447Y-82202495D01*
X136500447Y-82202495D02*
X136119495Y-82202495D01*
X136119495Y-82202495D02*
X136024257Y-82250114D01*
X136024257Y-82250114D02*
X135976638Y-82297733D01*
X135976638Y-82297733D02*
X135929019Y-82392971D01*
X135929019Y-82392971D02*
X135929019Y-82583447D01*
X135929019Y-82583447D02*
X135976638Y-82678685D01*
X135976638Y-82678685D02*
X136024257Y-82726304D01*
X136024257Y-82726304D02*
X136119495Y-82773923D01*
X136119495Y-82773923D02*
X136357590Y-82773923D01*
X136357590Y-82773923D02*
X136452828Y-82726304D01*
X136452828Y-82726304D02*
X136500447Y-82678685D01*
X136500447Y-82678685D02*
X136548066Y-82583447D01*
X136548066Y-82583447D02*
X136548066Y-82392971D01*
X136548066Y-82392971D02*
X136500447Y-82297733D01*
X136500447Y-82297733D02*
X136452828Y-82250114D01*
X136452828Y-82250114D02*
X136357590Y-82202495D01*
X139468266Y-88558019D02*
X139468266Y-89272304D01*
X139468266Y-89272304D02*
X139420647Y-89415161D01*
X139420647Y-89415161D02*
X139325409Y-89510400D01*
X139325409Y-89510400D02*
X139182552Y-89558019D01*
X139182552Y-89558019D02*
X139087314Y-89558019D01*
X140373028Y-88558019D02*
X140182552Y-88558019D01*
X140182552Y-88558019D02*
X140087314Y-88605638D01*
X140087314Y-88605638D02*
X140039695Y-88653257D01*
X140039695Y-88653257D02*
X139944457Y-88796114D01*
X139944457Y-88796114D02*
X139896838Y-88986590D01*
X139896838Y-88986590D02*
X139896838Y-89367542D01*
X139896838Y-89367542D02*
X139944457Y-89462780D01*
X139944457Y-89462780D02*
X139992076Y-89510400D01*
X139992076Y-89510400D02*
X140087314Y-89558019D01*
X140087314Y-89558019D02*
X140277790Y-89558019D01*
X140277790Y-89558019D02*
X140373028Y-89510400D01*
X140373028Y-89510400D02*
X140420647Y-89462780D01*
X140420647Y-89462780D02*
X140468266Y-89367542D01*
X140468266Y-89367542D02*
X140468266Y-89129447D01*
X140468266Y-89129447D02*
X140420647Y-89034209D01*
X140420647Y-89034209D02*
X140373028Y-88986590D01*
X140373028Y-88986590D02*
X140277790Y-88938971D01*
X140277790Y-88938971D02*
X140087314Y-88938971D01*
X140087314Y-88938971D02*
X139992076Y-88986590D01*
X139992076Y-88986590D02*
X139944457Y-89034209D01*
X139944457Y-89034209D02*
X139896838Y-89129447D01*
D14*
%TO.C,J8*%
X147878800Y-75615800D02*
G75*
G02*
X147116800Y-75615800I-381000J0D01*
G01*
X147116800Y-75615800D02*
G75*
G02*
X147878800Y-75615800I381000J0D01*
G01*
%TO.C,J1*%
X96926400Y-57810700D02*
G75*
G02*
X96164400Y-57810700I-381000J0D01*
G01*
X96164400Y-57810700D02*
G75*
G02*
X96926400Y-57810700I381000J0D01*
G01*
D15*
%TO.C,R4*%
X109724879Y-78233000D02*
X110060121Y-78233000D01*
X109724879Y-78993000D02*
X110060121Y-78993000D01*
%TO.C,J7*%
X140752600Y-82051200D02*
X140752600Y-80721200D01*
X142082600Y-82051200D02*
X140752600Y-82051200D01*
X143352600Y-82051200D02*
X145952600Y-82051200D01*
X143352600Y-82051200D02*
X143352600Y-79391200D01*
X145952600Y-82051200D02*
X145952600Y-79391200D01*
X143352600Y-79391200D02*
X145952600Y-79391200D01*
%TO.C,C15*%
X111382165Y-74189000D02*
X111613835Y-74189000D01*
X111382165Y-74909000D02*
X111613835Y-74909000D01*
%TO.C,C9*%
X110374165Y-61235000D02*
X110605835Y-61235000D01*
X110374165Y-61955000D02*
X110605835Y-61955000D01*
%TO.C,R1*%
X128144000Y-72730379D02*
X128144000Y-73065621D01*
X128904000Y-72730379D02*
X128904000Y-73065621D01*
%TO.C,C1*%
X110374165Y-59965000D02*
X110605835Y-59965000D01*
X110374165Y-60685000D02*
X110605835Y-60685000D01*
D16*
%TO.C,IC1*%
X112779600Y-64463400D02*
G75*
G02*
X112529600Y-64463400I-125000J0D01*
G01*
X112529600Y-64463400D02*
G75*
G02*
X112779600Y-64463400I125000J0D01*
G01*
D15*
%TO.C,C10*%
X113803165Y-59965000D02*
X114034835Y-59965000D01*
X113803165Y-60685000D02*
X114034835Y-60685000D01*
%TO.C,J3*%
X111146200Y-81931200D02*
X111146200Y-84591200D01*
X113746200Y-81931200D02*
X111146200Y-81931200D01*
X113746200Y-81931200D02*
X113746200Y-84591200D01*
X113746200Y-84591200D02*
X111146200Y-84591200D01*
X115016200Y-81931200D02*
X116346200Y-81931200D01*
X116346200Y-81931200D02*
X116346200Y-83261200D01*
%TO.C,J5*%
X125573400Y-85233200D02*
X125573400Y-87893200D01*
X128173400Y-85233200D02*
X125573400Y-85233200D01*
X128173400Y-85233200D02*
X128173400Y-87893200D01*
X128173400Y-87893200D02*
X125573400Y-87893200D01*
X129443400Y-85233200D02*
X130773400Y-85233200D01*
X130773400Y-85233200D02*
X130773400Y-86563200D01*
%TO.C,C18*%
X130290835Y-81936000D02*
X130059165Y-81936000D01*
X130290835Y-82656000D02*
X130059165Y-82656000D01*
%TO.C,C3*%
X118674335Y-58441000D02*
X118442665Y-58441000D01*
X118674335Y-59161000D02*
X118442665Y-59161000D01*
%TO.C,C2*%
X113803165Y-61235000D02*
X114034835Y-61235000D01*
X113803165Y-61955000D02*
X114034835Y-61955000D01*
%TO.C,L1*%
X112167800Y-56917000D02*
X112368200Y-56917000D01*
X112167800Y-57637000D02*
X112368200Y-57637000D01*
%TO.C,C17*%
X120853252Y-53700000D02*
X119430748Y-53700000D01*
X120853252Y-55520000D02*
X119430748Y-55520000D01*
%TO.C,C12*%
X122865335Y-74951000D02*
X122633665Y-74951000D01*
X122865335Y-75671000D02*
X122633665Y-75671000D01*
%TO.C,C4*%
X122865335Y-76221000D02*
X122633665Y-76221000D01*
X122865335Y-76941000D02*
X122633665Y-76941000D01*
%TO.C,C13*%
X118166335Y-74697000D02*
X117934665Y-74697000D01*
X118166335Y-75417000D02*
X117934665Y-75417000D01*
%TO.C,C16*%
X105734665Y-73427000D02*
X105966335Y-73427000D01*
X105734665Y-74147000D02*
X105966335Y-74147000D01*
%TO.C,L2*%
X115342800Y-56917000D02*
X115543200Y-56917000D01*
X115342800Y-57637000D02*
X115543200Y-57637000D01*
%TO.C,C8*%
X105734665Y-71903000D02*
X105966335Y-71903000D01*
X105734665Y-72623000D02*
X105966335Y-72623000D01*
%TO.C,R3*%
X114386379Y-78233000D02*
X114721621Y-78233000D01*
X114386379Y-78993000D02*
X114721621Y-78993000D01*
%TO.C,C20*%
X137275835Y-77110000D02*
X137044165Y-77110000D01*
X137275835Y-77830000D02*
X137044165Y-77830000D01*
%TO.C,J2*%
X108707800Y-51959200D02*
X108707800Y-54619200D01*
X111307800Y-51959200D02*
X108707800Y-51959200D01*
X111307800Y-51959200D02*
X111307800Y-54619200D01*
X111307800Y-54619200D02*
X108707800Y-54619200D01*
X112577800Y-51959200D02*
X113907800Y-51959200D01*
X113907800Y-51959200D02*
X113907800Y-53289200D01*
%TO.C,C5*%
X118166335Y-75967000D02*
X117934665Y-75967000D01*
X118166335Y-76687000D02*
X117934665Y-76687000D01*
%TO.C,C7*%
X111382165Y-72919000D02*
X111613835Y-72919000D01*
X111382165Y-73639000D02*
X111613835Y-73639000D01*
%TO.C,C6*%
X114692165Y-73935000D02*
X114923835Y-73935000D01*
X114692165Y-74655000D02*
X114923835Y-74655000D01*
%TO.C,J4*%
X118817000Y-81982000D02*
X118817000Y-84642000D01*
X121417000Y-81982000D02*
X118817000Y-81982000D01*
X121417000Y-81982000D02*
X121417000Y-84642000D01*
X121417000Y-84642000D02*
X118817000Y-84642000D01*
X122687000Y-81982000D02*
X124017000Y-81982000D01*
X124017000Y-81982000D02*
X124017000Y-83312000D01*
%TO.C,R2*%
X129834621Y-75185000D02*
X129499379Y-75185000D01*
X129834621Y-75945000D02*
X129499379Y-75945000D01*
%TO.C,C11*%
X118418165Y-59903000D02*
X118649835Y-59903000D01*
X118418165Y-60623000D02*
X118649835Y-60623000D01*
%TO.C,C14*%
X114692165Y-75205000D02*
X114923835Y-75205000D01*
X114692165Y-75925000D02*
X114923835Y-75925000D01*
%TO.C,C19*%
X134431035Y-83104400D02*
X134199365Y-83104400D01*
X134431035Y-83824400D02*
X134199365Y-83824400D01*
%TO.C,J6*%
X134809000Y-87893200D02*
X134809000Y-86563200D01*
X136139000Y-87893200D02*
X134809000Y-87893200D01*
X137409000Y-85233200D02*
X140009000Y-85233200D01*
X137409000Y-87893200D02*
X137409000Y-85233200D01*
X137409000Y-87893200D02*
X140009000Y-87893200D01*
X140009000Y-87893200D02*
X140009000Y-85233200D01*
%TD*%
M02*
