%TF.GenerationSoftware,KiCad,Pcbnew,8.0.4*%
%TF.CreationDate,2025-12-20T23:20:30-08:00*%
%TF.ProjectId,Thesis,54686573-6973-42e6-9b69-6361645f7063,rev?*%
%TF.SameCoordinates,Original*%
%TF.FileFunction,Legend,Bot*%
%TF.FilePolarity,Positive*%
%FSLAX46Y46*%
G04 Gerber Fmt 4.6, Leading zero omitted, Abs format (unit mm)*
G04 Created by KiCad (PCBNEW 8.0.4) date 2025-12-20 23:20:30*
%MOMM*%
%LPD*%
G01*
G04 APERTURE LIST*
%ADD10C,0.150000*%
%ADD11C,0.508000*%
%ADD12C,0.120000*%
G04 APERTURE END LIST*
D10*
X156471857Y-127613580D02*
X156519476Y-127661200D01*
X156519476Y-127661200D02*
X156662333Y-127708819D01*
X156662333Y-127708819D02*
X156757571Y-127708819D01*
X156757571Y-127708819D02*
X156900428Y-127661200D01*
X156900428Y-127661200D02*
X156995666Y-127565961D01*
X156995666Y-127565961D02*
X157043285Y-127470723D01*
X157043285Y-127470723D02*
X157090904Y-127280247D01*
X157090904Y-127280247D02*
X157090904Y-127137390D01*
X157090904Y-127137390D02*
X157043285Y-126946914D01*
X157043285Y-126946914D02*
X156995666Y-126851676D01*
X156995666Y-126851676D02*
X156900428Y-126756438D01*
X156900428Y-126756438D02*
X156757571Y-126708819D01*
X156757571Y-126708819D02*
X156662333Y-126708819D01*
X156662333Y-126708819D02*
X156519476Y-126756438D01*
X156519476Y-126756438D02*
X156471857Y-126804057D01*
X156138523Y-126708819D02*
X155519476Y-126708819D01*
X155519476Y-126708819D02*
X155852809Y-127089771D01*
X155852809Y-127089771D02*
X155709952Y-127089771D01*
X155709952Y-127089771D02*
X155614714Y-127137390D01*
X155614714Y-127137390D02*
X155567095Y-127185009D01*
X155567095Y-127185009D02*
X155519476Y-127280247D01*
X155519476Y-127280247D02*
X155519476Y-127518342D01*
X155519476Y-127518342D02*
X155567095Y-127613580D01*
X155567095Y-127613580D02*
X155614714Y-127661200D01*
X155614714Y-127661200D02*
X155709952Y-127708819D01*
X155709952Y-127708819D02*
X155995666Y-127708819D01*
X155995666Y-127708819D02*
X156090904Y-127661200D01*
X156090904Y-127661200D02*
X156138523Y-127613580D01*
X155043285Y-127708819D02*
X154852809Y-127708819D01*
X154852809Y-127708819D02*
X154757571Y-127661200D01*
X154757571Y-127661200D02*
X154709952Y-127613580D01*
X154709952Y-127613580D02*
X154614714Y-127470723D01*
X154614714Y-127470723D02*
X154567095Y-127280247D01*
X154567095Y-127280247D02*
X154567095Y-126899295D01*
X154567095Y-126899295D02*
X154614714Y-126804057D01*
X154614714Y-126804057D02*
X154662333Y-126756438D01*
X154662333Y-126756438D02*
X154757571Y-126708819D01*
X154757571Y-126708819D02*
X154948047Y-126708819D01*
X154948047Y-126708819D02*
X155043285Y-126756438D01*
X155043285Y-126756438D02*
X155090904Y-126804057D01*
X155090904Y-126804057D02*
X155138523Y-126899295D01*
X155138523Y-126899295D02*
X155138523Y-127137390D01*
X155138523Y-127137390D02*
X155090904Y-127232628D01*
X155090904Y-127232628D02*
X155043285Y-127280247D01*
X155043285Y-127280247D02*
X154948047Y-127327866D01*
X154948047Y-127327866D02*
X154757571Y-127327866D01*
X154757571Y-127327866D02*
X154662333Y-127280247D01*
X154662333Y-127280247D02*
X154614714Y-127232628D01*
X154614714Y-127232628D02*
X154567095Y-127137390D01*
X138437857Y-123549580D02*
X138485476Y-123597200D01*
X138485476Y-123597200D02*
X138628333Y-123644819D01*
X138628333Y-123644819D02*
X138723571Y-123644819D01*
X138723571Y-123644819D02*
X138866428Y-123597200D01*
X138866428Y-123597200D02*
X138961666Y-123501961D01*
X138961666Y-123501961D02*
X139009285Y-123406723D01*
X139009285Y-123406723D02*
X139056904Y-123216247D01*
X139056904Y-123216247D02*
X139056904Y-123073390D01*
X139056904Y-123073390D02*
X139009285Y-122882914D01*
X139009285Y-122882914D02*
X138961666Y-122787676D01*
X138961666Y-122787676D02*
X138866428Y-122692438D01*
X138866428Y-122692438D02*
X138723571Y-122644819D01*
X138723571Y-122644819D02*
X138628333Y-122644819D01*
X138628333Y-122644819D02*
X138485476Y-122692438D01*
X138485476Y-122692438D02*
X138437857Y-122740057D01*
X137485476Y-123644819D02*
X138056904Y-123644819D01*
X137771190Y-123644819D02*
X137771190Y-122644819D01*
X137771190Y-122644819D02*
X137866428Y-122787676D01*
X137866428Y-122787676D02*
X137961666Y-122882914D01*
X137961666Y-122882914D02*
X138056904Y-122930533D01*
X137104523Y-122740057D02*
X137056904Y-122692438D01*
X137056904Y-122692438D02*
X136961666Y-122644819D01*
X136961666Y-122644819D02*
X136723571Y-122644819D01*
X136723571Y-122644819D02*
X136628333Y-122692438D01*
X136628333Y-122692438D02*
X136580714Y-122740057D01*
X136580714Y-122740057D02*
X136533095Y-122835295D01*
X136533095Y-122835295D02*
X136533095Y-122930533D01*
X136533095Y-122930533D02*
X136580714Y-123073390D01*
X136580714Y-123073390D02*
X137152142Y-123644819D01*
X137152142Y-123644819D02*
X136533095Y-123644819D01*
X137675857Y-113611819D02*
X138009190Y-113135628D01*
X138247285Y-113611819D02*
X138247285Y-112611819D01*
X138247285Y-112611819D02*
X137866333Y-112611819D01*
X137866333Y-112611819D02*
X137771095Y-112659438D01*
X137771095Y-112659438D02*
X137723476Y-112707057D01*
X137723476Y-112707057D02*
X137675857Y-112802295D01*
X137675857Y-112802295D02*
X137675857Y-112945152D01*
X137675857Y-112945152D02*
X137723476Y-113040390D01*
X137723476Y-113040390D02*
X137771095Y-113088009D01*
X137771095Y-113088009D02*
X137866333Y-113135628D01*
X137866333Y-113135628D02*
X138247285Y-113135628D01*
X136723476Y-113611819D02*
X137294904Y-113611819D01*
X137009190Y-113611819D02*
X137009190Y-112611819D01*
X137009190Y-112611819D02*
X137104428Y-112754676D01*
X137104428Y-112754676D02*
X137199666Y-112849914D01*
X137199666Y-112849914D02*
X137294904Y-112897533D01*
X136342523Y-112707057D02*
X136294904Y-112659438D01*
X136294904Y-112659438D02*
X136199666Y-112611819D01*
X136199666Y-112611819D02*
X135961571Y-112611819D01*
X135961571Y-112611819D02*
X135866333Y-112659438D01*
X135866333Y-112659438D02*
X135818714Y-112707057D01*
X135818714Y-112707057D02*
X135771095Y-112802295D01*
X135771095Y-112802295D02*
X135771095Y-112897533D01*
X135771095Y-112897533D02*
X135818714Y-113040390D01*
X135818714Y-113040390D02*
X136390142Y-113611819D01*
X136390142Y-113611819D02*
X135771095Y-113611819D01*
X153648580Y-132199142D02*
X153696200Y-132151523D01*
X153696200Y-132151523D02*
X153743819Y-132008666D01*
X153743819Y-132008666D02*
X153743819Y-131913428D01*
X153743819Y-131913428D02*
X153696200Y-131770571D01*
X153696200Y-131770571D02*
X153600961Y-131675333D01*
X153600961Y-131675333D02*
X153505723Y-131627714D01*
X153505723Y-131627714D02*
X153315247Y-131580095D01*
X153315247Y-131580095D02*
X153172390Y-131580095D01*
X153172390Y-131580095D02*
X152981914Y-131627714D01*
X152981914Y-131627714D02*
X152886676Y-131675333D01*
X152886676Y-131675333D02*
X152791438Y-131770571D01*
X152791438Y-131770571D02*
X152743819Y-131913428D01*
X152743819Y-131913428D02*
X152743819Y-132008666D01*
X152743819Y-132008666D02*
X152791438Y-132151523D01*
X152791438Y-132151523D02*
X152839057Y-132199142D01*
X153077152Y-133056285D02*
X153743819Y-133056285D01*
X152696200Y-132818190D02*
X153410485Y-132580095D01*
X153410485Y-132580095D02*
X153410485Y-133199142D01*
X152743819Y-134056285D02*
X152743819Y-133580095D01*
X152743819Y-133580095D02*
X153220009Y-133532476D01*
X153220009Y-133532476D02*
X153172390Y-133580095D01*
X153172390Y-133580095D02*
X153124771Y-133675333D01*
X153124771Y-133675333D02*
X153124771Y-133913428D01*
X153124771Y-133913428D02*
X153172390Y-134008666D01*
X153172390Y-134008666D02*
X153220009Y-134056285D01*
X153220009Y-134056285D02*
X153315247Y-134103904D01*
X153315247Y-134103904D02*
X153553342Y-134103904D01*
X153553342Y-134103904D02*
X153648580Y-134056285D01*
X153648580Y-134056285D02*
X153696200Y-134008666D01*
X153696200Y-134008666D02*
X153743819Y-133913428D01*
X153743819Y-133913428D02*
X153743819Y-133675333D01*
X153743819Y-133675333D02*
X153696200Y-133580095D01*
X153696200Y-133580095D02*
X153648580Y-133532476D01*
X148343857Y-131804580D02*
X148391476Y-131852200D01*
X148391476Y-131852200D02*
X148534333Y-131899819D01*
X148534333Y-131899819D02*
X148629571Y-131899819D01*
X148629571Y-131899819D02*
X148772428Y-131852200D01*
X148772428Y-131852200D02*
X148867666Y-131756961D01*
X148867666Y-131756961D02*
X148915285Y-131661723D01*
X148915285Y-131661723D02*
X148962904Y-131471247D01*
X148962904Y-131471247D02*
X148962904Y-131328390D01*
X148962904Y-131328390D02*
X148915285Y-131137914D01*
X148915285Y-131137914D02*
X148867666Y-131042676D01*
X148867666Y-131042676D02*
X148772428Y-130947438D01*
X148772428Y-130947438D02*
X148629571Y-130899819D01*
X148629571Y-130899819D02*
X148534333Y-130899819D01*
X148534333Y-130899819D02*
X148391476Y-130947438D01*
X148391476Y-130947438D02*
X148343857Y-130995057D01*
X147486714Y-131233152D02*
X147486714Y-131899819D01*
X147724809Y-130852200D02*
X147962904Y-131566485D01*
X147962904Y-131566485D02*
X147343857Y-131566485D01*
X146534333Y-131233152D02*
X146534333Y-131899819D01*
X146772428Y-130852200D02*
X147010523Y-131566485D01*
X147010523Y-131566485D02*
X146391476Y-131566485D01*
X133008666Y-125041819D02*
X133341999Y-124565628D01*
X133580094Y-125041819D02*
X133580094Y-124041819D01*
X133580094Y-124041819D02*
X133199142Y-124041819D01*
X133199142Y-124041819D02*
X133103904Y-124089438D01*
X133103904Y-124089438D02*
X133056285Y-124137057D01*
X133056285Y-124137057D02*
X133008666Y-124232295D01*
X133008666Y-124232295D02*
X133008666Y-124375152D01*
X133008666Y-124375152D02*
X133056285Y-124470390D01*
X133056285Y-124470390D02*
X133103904Y-124518009D01*
X133103904Y-124518009D02*
X133199142Y-124565628D01*
X133199142Y-124565628D02*
X133580094Y-124565628D01*
X132532475Y-125041819D02*
X132341999Y-125041819D01*
X132341999Y-125041819D02*
X132246761Y-124994200D01*
X132246761Y-124994200D02*
X132199142Y-124946580D01*
X132199142Y-124946580D02*
X132103904Y-124803723D01*
X132103904Y-124803723D02*
X132056285Y-124613247D01*
X132056285Y-124613247D02*
X132056285Y-124232295D01*
X132056285Y-124232295D02*
X132103904Y-124137057D01*
X132103904Y-124137057D02*
X132151523Y-124089438D01*
X132151523Y-124089438D02*
X132246761Y-124041819D01*
X132246761Y-124041819D02*
X132437237Y-124041819D01*
X132437237Y-124041819D02*
X132532475Y-124089438D01*
X132532475Y-124089438D02*
X132580094Y-124137057D01*
X132580094Y-124137057D02*
X132627713Y-124232295D01*
X132627713Y-124232295D02*
X132627713Y-124470390D01*
X132627713Y-124470390D02*
X132580094Y-124565628D01*
X132580094Y-124565628D02*
X132532475Y-124613247D01*
X132532475Y-124613247D02*
X132437237Y-124660866D01*
X132437237Y-124660866D02*
X132246761Y-124660866D01*
X132246761Y-124660866D02*
X132151523Y-124613247D01*
X132151523Y-124613247D02*
X132103904Y-124565628D01*
X132103904Y-124565628D02*
X132056285Y-124470390D01*
X138437857Y-111325819D02*
X138771190Y-110849628D01*
X139009285Y-111325819D02*
X139009285Y-110325819D01*
X139009285Y-110325819D02*
X138628333Y-110325819D01*
X138628333Y-110325819D02*
X138533095Y-110373438D01*
X138533095Y-110373438D02*
X138485476Y-110421057D01*
X138485476Y-110421057D02*
X138437857Y-110516295D01*
X138437857Y-110516295D02*
X138437857Y-110659152D01*
X138437857Y-110659152D02*
X138485476Y-110754390D01*
X138485476Y-110754390D02*
X138533095Y-110802009D01*
X138533095Y-110802009D02*
X138628333Y-110849628D01*
X138628333Y-110849628D02*
X139009285Y-110849628D01*
X137485476Y-111325819D02*
X138056904Y-111325819D01*
X137771190Y-111325819D02*
X137771190Y-110325819D01*
X137771190Y-110325819D02*
X137866428Y-110468676D01*
X137866428Y-110468676D02*
X137961666Y-110563914D01*
X137961666Y-110563914D02*
X138056904Y-110611533D01*
X137152142Y-110325819D02*
X136533095Y-110325819D01*
X136533095Y-110325819D02*
X136866428Y-110706771D01*
X136866428Y-110706771D02*
X136723571Y-110706771D01*
X136723571Y-110706771D02*
X136628333Y-110754390D01*
X136628333Y-110754390D02*
X136580714Y-110802009D01*
X136580714Y-110802009D02*
X136533095Y-110897247D01*
X136533095Y-110897247D02*
X136533095Y-111135342D01*
X136533095Y-111135342D02*
X136580714Y-111230580D01*
X136580714Y-111230580D02*
X136628333Y-111278200D01*
X136628333Y-111278200D02*
X136723571Y-111325819D01*
X136723571Y-111325819D02*
X137009285Y-111325819D01*
X137009285Y-111325819D02*
X137104523Y-111278200D01*
X137104523Y-111278200D02*
X137152142Y-111230580D01*
X154537580Y-118356142D02*
X154585200Y-118308523D01*
X154585200Y-118308523D02*
X154632819Y-118165666D01*
X154632819Y-118165666D02*
X154632819Y-118070428D01*
X154632819Y-118070428D02*
X154585200Y-117927571D01*
X154585200Y-117927571D02*
X154489961Y-117832333D01*
X154489961Y-117832333D02*
X154394723Y-117784714D01*
X154394723Y-117784714D02*
X154204247Y-117737095D01*
X154204247Y-117737095D02*
X154061390Y-117737095D01*
X154061390Y-117737095D02*
X153870914Y-117784714D01*
X153870914Y-117784714D02*
X153775676Y-117832333D01*
X153775676Y-117832333D02*
X153680438Y-117927571D01*
X153680438Y-117927571D02*
X153632819Y-118070428D01*
X153632819Y-118070428D02*
X153632819Y-118165666D01*
X153632819Y-118165666D02*
X153680438Y-118308523D01*
X153680438Y-118308523D02*
X153728057Y-118356142D01*
X153632819Y-118689476D02*
X153632819Y-119308523D01*
X153632819Y-119308523D02*
X154013771Y-118975190D01*
X154013771Y-118975190D02*
X154013771Y-119118047D01*
X154013771Y-119118047D02*
X154061390Y-119213285D01*
X154061390Y-119213285D02*
X154109009Y-119260904D01*
X154109009Y-119260904D02*
X154204247Y-119308523D01*
X154204247Y-119308523D02*
X154442342Y-119308523D01*
X154442342Y-119308523D02*
X154537580Y-119260904D01*
X154537580Y-119260904D02*
X154585200Y-119213285D01*
X154585200Y-119213285D02*
X154632819Y-119118047D01*
X154632819Y-119118047D02*
X154632819Y-118832333D01*
X154632819Y-118832333D02*
X154585200Y-118737095D01*
X154585200Y-118737095D02*
X154537580Y-118689476D01*
X153728057Y-119689476D02*
X153680438Y-119737095D01*
X153680438Y-119737095D02*
X153632819Y-119832333D01*
X153632819Y-119832333D02*
X153632819Y-120070428D01*
X153632819Y-120070428D02*
X153680438Y-120165666D01*
X153680438Y-120165666D02*
X153728057Y-120213285D01*
X153728057Y-120213285D02*
X153823295Y-120260904D01*
X153823295Y-120260904D02*
X153918533Y-120260904D01*
X153918533Y-120260904D02*
X154061390Y-120213285D01*
X154061390Y-120213285D02*
X154632819Y-119641857D01*
X154632819Y-119641857D02*
X154632819Y-120260904D01*
X156471857Y-129010580D02*
X156519476Y-129058200D01*
X156519476Y-129058200D02*
X156662333Y-129105819D01*
X156662333Y-129105819D02*
X156757571Y-129105819D01*
X156757571Y-129105819D02*
X156900428Y-129058200D01*
X156900428Y-129058200D02*
X156995666Y-128962961D01*
X156995666Y-128962961D02*
X157043285Y-128867723D01*
X157043285Y-128867723D02*
X157090904Y-128677247D01*
X157090904Y-128677247D02*
X157090904Y-128534390D01*
X157090904Y-128534390D02*
X157043285Y-128343914D01*
X157043285Y-128343914D02*
X156995666Y-128248676D01*
X156995666Y-128248676D02*
X156900428Y-128153438D01*
X156900428Y-128153438D02*
X156757571Y-128105819D01*
X156757571Y-128105819D02*
X156662333Y-128105819D01*
X156662333Y-128105819D02*
X156519476Y-128153438D01*
X156519476Y-128153438D02*
X156471857Y-128201057D01*
X155614714Y-128439152D02*
X155614714Y-129105819D01*
X155852809Y-128058200D02*
X156090904Y-128772485D01*
X156090904Y-128772485D02*
X155471857Y-128772485D01*
X154900428Y-128105819D02*
X154805190Y-128105819D01*
X154805190Y-128105819D02*
X154709952Y-128153438D01*
X154709952Y-128153438D02*
X154662333Y-128201057D01*
X154662333Y-128201057D02*
X154614714Y-128296295D01*
X154614714Y-128296295D02*
X154567095Y-128486771D01*
X154567095Y-128486771D02*
X154567095Y-128724866D01*
X154567095Y-128724866D02*
X154614714Y-128915342D01*
X154614714Y-128915342D02*
X154662333Y-129010580D01*
X154662333Y-129010580D02*
X154709952Y-129058200D01*
X154709952Y-129058200D02*
X154805190Y-129105819D01*
X154805190Y-129105819D02*
X154900428Y-129105819D01*
X154900428Y-129105819D02*
X154995666Y-129058200D01*
X154995666Y-129058200D02*
X155043285Y-129010580D01*
X155043285Y-129010580D02*
X155090904Y-128915342D01*
X155090904Y-128915342D02*
X155138523Y-128724866D01*
X155138523Y-128724866D02*
X155138523Y-128486771D01*
X155138523Y-128486771D02*
X155090904Y-128296295D01*
X155090904Y-128296295D02*
X155043285Y-128201057D01*
X155043285Y-128201057D02*
X154995666Y-128153438D01*
X154995666Y-128153438D02*
X154900428Y-128105819D01*
X156471857Y-124057580D02*
X156519476Y-124105200D01*
X156519476Y-124105200D02*
X156662333Y-124152819D01*
X156662333Y-124152819D02*
X156757571Y-124152819D01*
X156757571Y-124152819D02*
X156900428Y-124105200D01*
X156900428Y-124105200D02*
X156995666Y-124009961D01*
X156995666Y-124009961D02*
X157043285Y-123914723D01*
X157043285Y-123914723D02*
X157090904Y-123724247D01*
X157090904Y-123724247D02*
X157090904Y-123581390D01*
X157090904Y-123581390D02*
X157043285Y-123390914D01*
X157043285Y-123390914D02*
X156995666Y-123295676D01*
X156995666Y-123295676D02*
X156900428Y-123200438D01*
X156900428Y-123200438D02*
X156757571Y-123152819D01*
X156757571Y-123152819D02*
X156662333Y-123152819D01*
X156662333Y-123152819D02*
X156519476Y-123200438D01*
X156519476Y-123200438D02*
X156471857Y-123248057D01*
X156138523Y-123152819D02*
X155519476Y-123152819D01*
X155519476Y-123152819D02*
X155852809Y-123533771D01*
X155852809Y-123533771D02*
X155709952Y-123533771D01*
X155709952Y-123533771D02*
X155614714Y-123581390D01*
X155614714Y-123581390D02*
X155567095Y-123629009D01*
X155567095Y-123629009D02*
X155519476Y-123724247D01*
X155519476Y-123724247D02*
X155519476Y-123962342D01*
X155519476Y-123962342D02*
X155567095Y-124057580D01*
X155567095Y-124057580D02*
X155614714Y-124105200D01*
X155614714Y-124105200D02*
X155709952Y-124152819D01*
X155709952Y-124152819D02*
X155995666Y-124152819D01*
X155995666Y-124152819D02*
X156090904Y-124105200D01*
X156090904Y-124105200D02*
X156138523Y-124057580D01*
X154948047Y-123581390D02*
X155043285Y-123533771D01*
X155043285Y-123533771D02*
X155090904Y-123486152D01*
X155090904Y-123486152D02*
X155138523Y-123390914D01*
X155138523Y-123390914D02*
X155138523Y-123343295D01*
X155138523Y-123343295D02*
X155090904Y-123248057D01*
X155090904Y-123248057D02*
X155043285Y-123200438D01*
X155043285Y-123200438D02*
X154948047Y-123152819D01*
X154948047Y-123152819D02*
X154757571Y-123152819D01*
X154757571Y-123152819D02*
X154662333Y-123200438D01*
X154662333Y-123200438D02*
X154614714Y-123248057D01*
X154614714Y-123248057D02*
X154567095Y-123343295D01*
X154567095Y-123343295D02*
X154567095Y-123390914D01*
X154567095Y-123390914D02*
X154614714Y-123486152D01*
X154614714Y-123486152D02*
X154662333Y-123533771D01*
X154662333Y-123533771D02*
X154757571Y-123581390D01*
X154757571Y-123581390D02*
X154948047Y-123581390D01*
X154948047Y-123581390D02*
X155043285Y-123629009D01*
X155043285Y-123629009D02*
X155090904Y-123676628D01*
X155090904Y-123676628D02*
X155138523Y-123771866D01*
X155138523Y-123771866D02*
X155138523Y-123962342D01*
X155138523Y-123962342D02*
X155090904Y-124057580D01*
X155090904Y-124057580D02*
X155043285Y-124105200D01*
X155043285Y-124105200D02*
X154948047Y-124152819D01*
X154948047Y-124152819D02*
X154757571Y-124152819D01*
X154757571Y-124152819D02*
X154662333Y-124105200D01*
X154662333Y-124105200D02*
X154614714Y-124057580D01*
X154614714Y-124057580D02*
X154567095Y-123962342D01*
X154567095Y-123962342D02*
X154567095Y-123771866D01*
X154567095Y-123771866D02*
X154614714Y-123676628D01*
X154614714Y-123676628D02*
X154662333Y-123629009D01*
X154662333Y-123629009D02*
X154757571Y-123581390D01*
X151997580Y-132199142D02*
X152045200Y-132151523D01*
X152045200Y-132151523D02*
X152092819Y-132008666D01*
X152092819Y-132008666D02*
X152092819Y-131913428D01*
X152092819Y-131913428D02*
X152045200Y-131770571D01*
X152045200Y-131770571D02*
X151949961Y-131675333D01*
X151949961Y-131675333D02*
X151854723Y-131627714D01*
X151854723Y-131627714D02*
X151664247Y-131580095D01*
X151664247Y-131580095D02*
X151521390Y-131580095D01*
X151521390Y-131580095D02*
X151330914Y-131627714D01*
X151330914Y-131627714D02*
X151235676Y-131675333D01*
X151235676Y-131675333D02*
X151140438Y-131770571D01*
X151140438Y-131770571D02*
X151092819Y-131913428D01*
X151092819Y-131913428D02*
X151092819Y-132008666D01*
X151092819Y-132008666D02*
X151140438Y-132151523D01*
X151140438Y-132151523D02*
X151188057Y-132199142D01*
X151426152Y-133056285D02*
X152092819Y-133056285D01*
X151045200Y-132818190D02*
X151759485Y-132580095D01*
X151759485Y-132580095D02*
X151759485Y-133199142D01*
X151092819Y-134008666D02*
X151092819Y-133818190D01*
X151092819Y-133818190D02*
X151140438Y-133722952D01*
X151140438Y-133722952D02*
X151188057Y-133675333D01*
X151188057Y-133675333D02*
X151330914Y-133580095D01*
X151330914Y-133580095D02*
X151521390Y-133532476D01*
X151521390Y-133532476D02*
X151902342Y-133532476D01*
X151902342Y-133532476D02*
X151997580Y-133580095D01*
X151997580Y-133580095D02*
X152045200Y-133627714D01*
X152045200Y-133627714D02*
X152092819Y-133722952D01*
X152092819Y-133722952D02*
X152092819Y-133913428D01*
X152092819Y-133913428D02*
X152045200Y-134008666D01*
X152045200Y-134008666D02*
X151997580Y-134056285D01*
X151997580Y-134056285D02*
X151902342Y-134103904D01*
X151902342Y-134103904D02*
X151664247Y-134103904D01*
X151664247Y-134103904D02*
X151569009Y-134056285D01*
X151569009Y-134056285D02*
X151521390Y-134008666D01*
X151521390Y-134008666D02*
X151473771Y-133913428D01*
X151473771Y-133913428D02*
X151473771Y-133722952D01*
X151473771Y-133722952D02*
X151521390Y-133627714D01*
X151521390Y-133627714D02*
X151569009Y-133580095D01*
X151569009Y-133580095D02*
X151664247Y-133532476D01*
X145012580Y-115181142D02*
X145060200Y-115133523D01*
X145060200Y-115133523D02*
X145107819Y-114990666D01*
X145107819Y-114990666D02*
X145107819Y-114895428D01*
X145107819Y-114895428D02*
X145060200Y-114752571D01*
X145060200Y-114752571D02*
X144964961Y-114657333D01*
X144964961Y-114657333D02*
X144869723Y-114609714D01*
X144869723Y-114609714D02*
X144679247Y-114562095D01*
X144679247Y-114562095D02*
X144536390Y-114562095D01*
X144536390Y-114562095D02*
X144345914Y-114609714D01*
X144345914Y-114609714D02*
X144250676Y-114657333D01*
X144250676Y-114657333D02*
X144155438Y-114752571D01*
X144155438Y-114752571D02*
X144107819Y-114895428D01*
X144107819Y-114895428D02*
X144107819Y-114990666D01*
X144107819Y-114990666D02*
X144155438Y-115133523D01*
X144155438Y-115133523D02*
X144203057Y-115181142D01*
X145107819Y-116133523D02*
X145107819Y-115562095D01*
X145107819Y-115847809D02*
X144107819Y-115847809D01*
X144107819Y-115847809D02*
X144250676Y-115752571D01*
X144250676Y-115752571D02*
X144345914Y-115657333D01*
X144345914Y-115657333D02*
X144393533Y-115562095D01*
X144107819Y-117038285D02*
X144107819Y-116562095D01*
X144107819Y-116562095D02*
X144584009Y-116514476D01*
X144584009Y-116514476D02*
X144536390Y-116562095D01*
X144536390Y-116562095D02*
X144488771Y-116657333D01*
X144488771Y-116657333D02*
X144488771Y-116895428D01*
X144488771Y-116895428D02*
X144536390Y-116990666D01*
X144536390Y-116990666D02*
X144584009Y-117038285D01*
X144584009Y-117038285D02*
X144679247Y-117085904D01*
X144679247Y-117085904D02*
X144917342Y-117085904D01*
X144917342Y-117085904D02*
X145012580Y-117038285D01*
X145012580Y-117038285D02*
X145060200Y-116990666D01*
X145060200Y-116990666D02*
X145107819Y-116895428D01*
X145107819Y-116895428D02*
X145107819Y-116657333D01*
X145107819Y-116657333D02*
X145060200Y-116562095D01*
X145060200Y-116562095D02*
X145012580Y-116514476D01*
X156471857Y-125454580D02*
X156519476Y-125502200D01*
X156519476Y-125502200D02*
X156662333Y-125549819D01*
X156662333Y-125549819D02*
X156757571Y-125549819D01*
X156757571Y-125549819D02*
X156900428Y-125502200D01*
X156900428Y-125502200D02*
X156995666Y-125406961D01*
X156995666Y-125406961D02*
X157043285Y-125311723D01*
X157043285Y-125311723D02*
X157090904Y-125121247D01*
X157090904Y-125121247D02*
X157090904Y-124978390D01*
X157090904Y-124978390D02*
X157043285Y-124787914D01*
X157043285Y-124787914D02*
X156995666Y-124692676D01*
X156995666Y-124692676D02*
X156900428Y-124597438D01*
X156900428Y-124597438D02*
X156757571Y-124549819D01*
X156757571Y-124549819D02*
X156662333Y-124549819D01*
X156662333Y-124549819D02*
X156519476Y-124597438D01*
X156519476Y-124597438D02*
X156471857Y-124645057D01*
X156138523Y-124549819D02*
X155519476Y-124549819D01*
X155519476Y-124549819D02*
X155852809Y-124930771D01*
X155852809Y-124930771D02*
X155709952Y-124930771D01*
X155709952Y-124930771D02*
X155614714Y-124978390D01*
X155614714Y-124978390D02*
X155567095Y-125026009D01*
X155567095Y-125026009D02*
X155519476Y-125121247D01*
X155519476Y-125121247D02*
X155519476Y-125359342D01*
X155519476Y-125359342D02*
X155567095Y-125454580D01*
X155567095Y-125454580D02*
X155614714Y-125502200D01*
X155614714Y-125502200D02*
X155709952Y-125549819D01*
X155709952Y-125549819D02*
X155995666Y-125549819D01*
X155995666Y-125549819D02*
X156090904Y-125502200D01*
X156090904Y-125502200D02*
X156138523Y-125454580D01*
X154662333Y-124549819D02*
X154852809Y-124549819D01*
X154852809Y-124549819D02*
X154948047Y-124597438D01*
X154948047Y-124597438D02*
X154995666Y-124645057D01*
X154995666Y-124645057D02*
X155090904Y-124787914D01*
X155090904Y-124787914D02*
X155138523Y-124978390D01*
X155138523Y-124978390D02*
X155138523Y-125359342D01*
X155138523Y-125359342D02*
X155090904Y-125454580D01*
X155090904Y-125454580D02*
X155043285Y-125502200D01*
X155043285Y-125502200D02*
X154948047Y-125549819D01*
X154948047Y-125549819D02*
X154757571Y-125549819D01*
X154757571Y-125549819D02*
X154662333Y-125502200D01*
X154662333Y-125502200D02*
X154614714Y-125454580D01*
X154614714Y-125454580D02*
X154567095Y-125359342D01*
X154567095Y-125359342D02*
X154567095Y-125121247D01*
X154567095Y-125121247D02*
X154614714Y-125026009D01*
X154614714Y-125026009D02*
X154662333Y-124978390D01*
X154662333Y-124978390D02*
X154757571Y-124930771D01*
X154757571Y-124930771D02*
X154948047Y-124930771D01*
X154948047Y-124930771D02*
X155043285Y-124978390D01*
X155043285Y-124978390D02*
X155090904Y-125026009D01*
X155090904Y-125026009D02*
X155138523Y-125121247D01*
X143615580Y-115181142D02*
X143663200Y-115133523D01*
X143663200Y-115133523D02*
X143710819Y-114990666D01*
X143710819Y-114990666D02*
X143710819Y-114895428D01*
X143710819Y-114895428D02*
X143663200Y-114752571D01*
X143663200Y-114752571D02*
X143567961Y-114657333D01*
X143567961Y-114657333D02*
X143472723Y-114609714D01*
X143472723Y-114609714D02*
X143282247Y-114562095D01*
X143282247Y-114562095D02*
X143139390Y-114562095D01*
X143139390Y-114562095D02*
X142948914Y-114609714D01*
X142948914Y-114609714D02*
X142853676Y-114657333D01*
X142853676Y-114657333D02*
X142758438Y-114752571D01*
X142758438Y-114752571D02*
X142710819Y-114895428D01*
X142710819Y-114895428D02*
X142710819Y-114990666D01*
X142710819Y-114990666D02*
X142758438Y-115133523D01*
X142758438Y-115133523D02*
X142806057Y-115181142D01*
X143710819Y-116133523D02*
X143710819Y-115562095D01*
X143710819Y-115847809D02*
X142710819Y-115847809D01*
X142710819Y-115847809D02*
X142853676Y-115752571D01*
X142853676Y-115752571D02*
X142948914Y-115657333D01*
X142948914Y-115657333D02*
X142996533Y-115562095D01*
X143044152Y-116990666D02*
X143710819Y-116990666D01*
X142663200Y-116752571D02*
X143377485Y-116514476D01*
X143377485Y-116514476D02*
X143377485Y-117133523D01*
X134627857Y-118183819D02*
X134961190Y-117707628D01*
X135199285Y-118183819D02*
X135199285Y-117183819D01*
X135199285Y-117183819D02*
X134818333Y-117183819D01*
X134818333Y-117183819D02*
X134723095Y-117231438D01*
X134723095Y-117231438D02*
X134675476Y-117279057D01*
X134675476Y-117279057D02*
X134627857Y-117374295D01*
X134627857Y-117374295D02*
X134627857Y-117517152D01*
X134627857Y-117517152D02*
X134675476Y-117612390D01*
X134675476Y-117612390D02*
X134723095Y-117660009D01*
X134723095Y-117660009D02*
X134818333Y-117707628D01*
X134818333Y-117707628D02*
X135199285Y-117707628D01*
X133675476Y-118183819D02*
X134246904Y-118183819D01*
X133961190Y-118183819D02*
X133961190Y-117183819D01*
X133961190Y-117183819D02*
X134056428Y-117326676D01*
X134056428Y-117326676D02*
X134151666Y-117421914D01*
X134151666Y-117421914D02*
X134246904Y-117469533D01*
X132723095Y-118183819D02*
X133294523Y-118183819D01*
X133008809Y-118183819D02*
X133008809Y-117183819D01*
X133008809Y-117183819D02*
X133104047Y-117326676D01*
X133104047Y-117326676D02*
X133199285Y-117421914D01*
X133199285Y-117421914D02*
X133294523Y-117469533D01*
X148343857Y-130280580D02*
X148391476Y-130328200D01*
X148391476Y-130328200D02*
X148534333Y-130375819D01*
X148534333Y-130375819D02*
X148629571Y-130375819D01*
X148629571Y-130375819D02*
X148772428Y-130328200D01*
X148772428Y-130328200D02*
X148867666Y-130232961D01*
X148867666Y-130232961D02*
X148915285Y-130137723D01*
X148915285Y-130137723D02*
X148962904Y-129947247D01*
X148962904Y-129947247D02*
X148962904Y-129804390D01*
X148962904Y-129804390D02*
X148915285Y-129613914D01*
X148915285Y-129613914D02*
X148867666Y-129518676D01*
X148867666Y-129518676D02*
X148772428Y-129423438D01*
X148772428Y-129423438D02*
X148629571Y-129375819D01*
X148629571Y-129375819D02*
X148534333Y-129375819D01*
X148534333Y-129375819D02*
X148391476Y-129423438D01*
X148391476Y-129423438D02*
X148343857Y-129471057D01*
X147486714Y-129709152D02*
X147486714Y-130375819D01*
X147724809Y-129328200D02*
X147962904Y-130042485D01*
X147962904Y-130042485D02*
X147343857Y-130042485D01*
X147010523Y-129471057D02*
X146962904Y-129423438D01*
X146962904Y-129423438D02*
X146867666Y-129375819D01*
X146867666Y-129375819D02*
X146629571Y-129375819D01*
X146629571Y-129375819D02*
X146534333Y-129423438D01*
X146534333Y-129423438D02*
X146486714Y-129471057D01*
X146486714Y-129471057D02*
X146439095Y-129566295D01*
X146439095Y-129566295D02*
X146439095Y-129661533D01*
X146439095Y-129661533D02*
X146486714Y-129804390D01*
X146486714Y-129804390D02*
X147058142Y-130375819D01*
X147058142Y-130375819D02*
X146439095Y-130375819D01*
X149232857Y-119580819D02*
X149566190Y-119104628D01*
X149804285Y-119580819D02*
X149804285Y-118580819D01*
X149804285Y-118580819D02*
X149423333Y-118580819D01*
X149423333Y-118580819D02*
X149328095Y-118628438D01*
X149328095Y-118628438D02*
X149280476Y-118676057D01*
X149280476Y-118676057D02*
X149232857Y-118771295D01*
X149232857Y-118771295D02*
X149232857Y-118914152D01*
X149232857Y-118914152D02*
X149280476Y-119009390D01*
X149280476Y-119009390D02*
X149328095Y-119057009D01*
X149328095Y-119057009D02*
X149423333Y-119104628D01*
X149423333Y-119104628D02*
X149804285Y-119104628D01*
X148280476Y-119580819D02*
X148851904Y-119580819D01*
X148566190Y-119580819D02*
X148566190Y-118580819D01*
X148566190Y-118580819D02*
X148661428Y-118723676D01*
X148661428Y-118723676D02*
X148756666Y-118818914D01*
X148756666Y-118818914D02*
X148851904Y-118866533D01*
X147709047Y-119009390D02*
X147804285Y-118961771D01*
X147804285Y-118961771D02*
X147851904Y-118914152D01*
X147851904Y-118914152D02*
X147899523Y-118818914D01*
X147899523Y-118818914D02*
X147899523Y-118771295D01*
X147899523Y-118771295D02*
X147851904Y-118676057D01*
X147851904Y-118676057D02*
X147804285Y-118628438D01*
X147804285Y-118628438D02*
X147709047Y-118580819D01*
X147709047Y-118580819D02*
X147518571Y-118580819D01*
X147518571Y-118580819D02*
X147423333Y-118628438D01*
X147423333Y-118628438D02*
X147375714Y-118676057D01*
X147375714Y-118676057D02*
X147328095Y-118771295D01*
X147328095Y-118771295D02*
X147328095Y-118818914D01*
X147328095Y-118818914D02*
X147375714Y-118914152D01*
X147375714Y-118914152D02*
X147423333Y-118961771D01*
X147423333Y-118961771D02*
X147518571Y-119009390D01*
X147518571Y-119009390D02*
X147709047Y-119009390D01*
X147709047Y-119009390D02*
X147804285Y-119057009D01*
X147804285Y-119057009D02*
X147851904Y-119104628D01*
X147851904Y-119104628D02*
X147899523Y-119199866D01*
X147899523Y-119199866D02*
X147899523Y-119390342D01*
X147899523Y-119390342D02*
X147851904Y-119485580D01*
X147851904Y-119485580D02*
X147804285Y-119533200D01*
X147804285Y-119533200D02*
X147709047Y-119580819D01*
X147709047Y-119580819D02*
X147518571Y-119580819D01*
X147518571Y-119580819D02*
X147423333Y-119533200D01*
X147423333Y-119533200D02*
X147375714Y-119485580D01*
X147375714Y-119485580D02*
X147328095Y-119390342D01*
X147328095Y-119390342D02*
X147328095Y-119199866D01*
X147328095Y-119199866D02*
X147375714Y-119104628D01*
X147375714Y-119104628D02*
X147423333Y-119057009D01*
X147423333Y-119057009D02*
X147518571Y-119009390D01*
X143136857Y-120596819D02*
X143470190Y-120120628D01*
X143708285Y-120596819D02*
X143708285Y-119596819D01*
X143708285Y-119596819D02*
X143327333Y-119596819D01*
X143327333Y-119596819D02*
X143232095Y-119644438D01*
X143232095Y-119644438D02*
X143184476Y-119692057D01*
X143184476Y-119692057D02*
X143136857Y-119787295D01*
X143136857Y-119787295D02*
X143136857Y-119930152D01*
X143136857Y-119930152D02*
X143184476Y-120025390D01*
X143184476Y-120025390D02*
X143232095Y-120073009D01*
X143232095Y-120073009D02*
X143327333Y-120120628D01*
X143327333Y-120120628D02*
X143708285Y-120120628D01*
X142184476Y-120596819D02*
X142755904Y-120596819D01*
X142470190Y-120596819D02*
X142470190Y-119596819D01*
X142470190Y-119596819D02*
X142565428Y-119739676D01*
X142565428Y-119739676D02*
X142660666Y-119834914D01*
X142660666Y-119834914D02*
X142755904Y-119882533D01*
X141565428Y-119596819D02*
X141470190Y-119596819D01*
X141470190Y-119596819D02*
X141374952Y-119644438D01*
X141374952Y-119644438D02*
X141327333Y-119692057D01*
X141327333Y-119692057D02*
X141279714Y-119787295D01*
X141279714Y-119787295D02*
X141232095Y-119977771D01*
X141232095Y-119977771D02*
X141232095Y-120215866D01*
X141232095Y-120215866D02*
X141279714Y-120406342D01*
X141279714Y-120406342D02*
X141327333Y-120501580D01*
X141327333Y-120501580D02*
X141374952Y-120549200D01*
X141374952Y-120549200D02*
X141470190Y-120596819D01*
X141470190Y-120596819D02*
X141565428Y-120596819D01*
X141565428Y-120596819D02*
X141660666Y-120549200D01*
X141660666Y-120549200D02*
X141708285Y-120501580D01*
X141708285Y-120501580D02*
X141755904Y-120406342D01*
X141755904Y-120406342D02*
X141803523Y-120215866D01*
X141803523Y-120215866D02*
X141803523Y-119977771D01*
X141803523Y-119977771D02*
X141755904Y-119787295D01*
X141755904Y-119787295D02*
X141708285Y-119692057D01*
X141708285Y-119692057D02*
X141660666Y-119644438D01*
X141660666Y-119644438D02*
X141565428Y-119596819D01*
X132722857Y-121136580D02*
X132770476Y-121184200D01*
X132770476Y-121184200D02*
X132913333Y-121231819D01*
X132913333Y-121231819D02*
X133008571Y-121231819D01*
X133008571Y-121231819D02*
X133151428Y-121184200D01*
X133151428Y-121184200D02*
X133246666Y-121088961D01*
X133246666Y-121088961D02*
X133294285Y-120993723D01*
X133294285Y-120993723D02*
X133341904Y-120803247D01*
X133341904Y-120803247D02*
X133341904Y-120660390D01*
X133341904Y-120660390D02*
X133294285Y-120469914D01*
X133294285Y-120469914D02*
X133246666Y-120374676D01*
X133246666Y-120374676D02*
X133151428Y-120279438D01*
X133151428Y-120279438D02*
X133008571Y-120231819D01*
X133008571Y-120231819D02*
X132913333Y-120231819D01*
X132913333Y-120231819D02*
X132770476Y-120279438D01*
X132770476Y-120279438D02*
X132722857Y-120327057D01*
X131770476Y-121231819D02*
X132341904Y-121231819D01*
X132056190Y-121231819D02*
X132056190Y-120231819D01*
X132056190Y-120231819D02*
X132151428Y-120374676D01*
X132151428Y-120374676D02*
X132246666Y-120469914D01*
X132246666Y-120469914D02*
X132341904Y-120517533D01*
X131437142Y-120231819D02*
X130818095Y-120231819D01*
X130818095Y-120231819D02*
X131151428Y-120612771D01*
X131151428Y-120612771D02*
X131008571Y-120612771D01*
X131008571Y-120612771D02*
X130913333Y-120660390D01*
X130913333Y-120660390D02*
X130865714Y-120708009D01*
X130865714Y-120708009D02*
X130818095Y-120803247D01*
X130818095Y-120803247D02*
X130818095Y-121041342D01*
X130818095Y-121041342D02*
X130865714Y-121136580D01*
X130865714Y-121136580D02*
X130913333Y-121184200D01*
X130913333Y-121184200D02*
X131008571Y-121231819D01*
X131008571Y-121231819D02*
X131294285Y-121231819D01*
X131294285Y-121231819D02*
X131389523Y-121184200D01*
X131389523Y-121184200D02*
X131437142Y-121136580D01*
X141342904Y-105880819D02*
X140771476Y-105880819D01*
X141057190Y-106880819D02*
X141057190Y-105880819D01*
X140438142Y-106880819D02*
X140438142Y-105880819D01*
X140438142Y-105880819D02*
X140057190Y-105880819D01*
X140057190Y-105880819D02*
X139961952Y-105928438D01*
X139961952Y-105928438D02*
X139914333Y-105976057D01*
X139914333Y-105976057D02*
X139866714Y-106071295D01*
X139866714Y-106071295D02*
X139866714Y-106214152D01*
X139866714Y-106214152D02*
X139914333Y-106309390D01*
X139914333Y-106309390D02*
X139961952Y-106357009D01*
X139961952Y-106357009D02*
X140057190Y-106404628D01*
X140057190Y-106404628D02*
X140438142Y-106404628D01*
X138914333Y-106880819D02*
X139485761Y-106880819D01*
X139200047Y-106880819D02*
X139200047Y-105880819D01*
X139200047Y-105880819D02*
X139295285Y-106023676D01*
X139295285Y-106023676D02*
X139390523Y-106118914D01*
X139390523Y-106118914D02*
X139485761Y-106166533D01*
X153013580Y-118356142D02*
X153061200Y-118308523D01*
X153061200Y-118308523D02*
X153108819Y-118165666D01*
X153108819Y-118165666D02*
X153108819Y-118070428D01*
X153108819Y-118070428D02*
X153061200Y-117927571D01*
X153061200Y-117927571D02*
X152965961Y-117832333D01*
X152965961Y-117832333D02*
X152870723Y-117784714D01*
X152870723Y-117784714D02*
X152680247Y-117737095D01*
X152680247Y-117737095D02*
X152537390Y-117737095D01*
X152537390Y-117737095D02*
X152346914Y-117784714D01*
X152346914Y-117784714D02*
X152251676Y-117832333D01*
X152251676Y-117832333D02*
X152156438Y-117927571D01*
X152156438Y-117927571D02*
X152108819Y-118070428D01*
X152108819Y-118070428D02*
X152108819Y-118165666D01*
X152108819Y-118165666D02*
X152156438Y-118308523D01*
X152156438Y-118308523D02*
X152204057Y-118356142D01*
X152108819Y-118689476D02*
X152108819Y-119308523D01*
X152108819Y-119308523D02*
X152489771Y-118975190D01*
X152489771Y-118975190D02*
X152489771Y-119118047D01*
X152489771Y-119118047D02*
X152537390Y-119213285D01*
X152537390Y-119213285D02*
X152585009Y-119260904D01*
X152585009Y-119260904D02*
X152680247Y-119308523D01*
X152680247Y-119308523D02*
X152918342Y-119308523D01*
X152918342Y-119308523D02*
X153013580Y-119260904D01*
X153013580Y-119260904D02*
X153061200Y-119213285D01*
X153061200Y-119213285D02*
X153108819Y-119118047D01*
X153108819Y-119118047D02*
X153108819Y-118832333D01*
X153108819Y-118832333D02*
X153061200Y-118737095D01*
X153061200Y-118737095D02*
X153013580Y-118689476D01*
X153108819Y-120260904D02*
X153108819Y-119689476D01*
X153108819Y-119975190D02*
X152108819Y-119975190D01*
X152108819Y-119975190D02*
X152251676Y-119879952D01*
X152251676Y-119879952D02*
X152346914Y-119784714D01*
X152346914Y-119784714D02*
X152394533Y-119689476D01*
D11*
%TO.C,J6*%
X137016300Y-167716200D02*
G75*
G02*
X136254300Y-167716200I-381000J0D01*
G01*
X136254300Y-167716200D02*
G75*
G02*
X137016300Y-167716200I381000J0D01*
G01*
%TO.C,J5*%
X168033700Y-85521800D02*
G75*
G02*
X167271700Y-85521800I-381000J0D01*
G01*
X167271700Y-85521800D02*
G75*
G02*
X168033700Y-85521800I381000J0D01*
G01*
%TO.C,J4*%
X142565700Y-85521800D02*
G75*
G02*
X141803700Y-85521800I-381000J0D01*
G01*
X141803700Y-85521800D02*
G75*
G02*
X142565700Y-85521800I381000J0D01*
G01*
%TO.C,J3*%
X57531000Y-132956300D02*
G75*
G02*
X56769000Y-132956300I-381000J0D01*
G01*
X56769000Y-132956300D02*
G75*
G02*
X57531000Y-132956300I381000J0D01*
G01*
%TO.C,J1*%
X28498800Y-121645300D02*
G75*
G02*
X27736800Y-121645300I-381000J0D01*
G01*
X27736800Y-121645300D02*
G75*
G02*
X28498800Y-121645300I381000J0D01*
G01*
%TO.C,J19*%
X45339000Y-132956300D02*
G75*
G02*
X44577000Y-132956300I-381000J0D01*
G01*
X44577000Y-132956300D02*
G75*
G02*
X45339000Y-132956300I381000J0D01*
G01*
%TO.C,J17*%
X61480700Y-148844000D02*
G75*
G02*
X60718700Y-148844000I-381000J0D01*
G01*
X60718700Y-148844000D02*
G75*
G02*
X61480700Y-148844000I381000J0D01*
G01*
%TO.C,J9*%
X183337200Y-146062700D02*
G75*
G02*
X182575200Y-146062700I-381000J0D01*
G01*
X182575200Y-146062700D02*
G75*
G02*
X183337200Y-146062700I381000J0D01*
G01*
%TO.C,J8*%
X115999354Y-167716200D02*
G75*
G02*
X115237354Y-167716200I-381000J0D01*
G01*
X115237354Y-167716200D02*
G75*
G02*
X115999354Y-167716200I381000J0D01*
G01*
%TO.C,J2*%
X55986300Y-167716200D02*
G75*
G02*
X55224300Y-167716200I-381000J0D01*
G01*
X55224300Y-167716200D02*
G75*
G02*
X55986300Y-167716200I381000J0D01*
G01*
%TO.C,J10*%
X73291700Y-85598000D02*
G75*
G02*
X72529700Y-85598000I-381000J0D01*
G01*
X72529700Y-85598000D02*
G75*
G02*
X73291700Y-85598000I381000J0D01*
G01*
%TO.C,J16*%
X61480700Y-135636000D02*
G75*
G02*
X60718700Y-135636000I-381000J0D01*
G01*
X60718700Y-135636000D02*
G75*
G02*
X61480700Y-135636000I381000J0D01*
G01*
D12*
%TO.C,C39*%
X152202335Y-126386000D02*
X151970665Y-126386000D01*
X152202335Y-127106000D02*
X151970665Y-127106000D01*
%TO.C,C12*%
X137560267Y-121203000D02*
X137267733Y-121203000D01*
X137560267Y-122223000D02*
X137267733Y-122223000D01*
%TO.C,R12*%
X139446724Y-114031500D02*
X138937276Y-114031500D01*
X139446724Y-115076500D02*
X138937276Y-115076500D01*
%TO.C,C45*%
X152548000Y-129969335D02*
X152548000Y-129737665D01*
X153268000Y-129969335D02*
X153268000Y-129737665D01*
%TO.C,C44*%
X145149835Y-129434000D02*
X144918165Y-129434000D01*
X145149835Y-130154000D02*
X144918165Y-130154000D01*
%TO.C,R9*%
X134097500Y-124205276D02*
X134097500Y-124714724D01*
X135142500Y-124205276D02*
X135142500Y-124714724D01*
%TO.C,R13*%
X139582000Y-111759276D02*
X139582000Y-112268724D01*
X140627000Y-111759276D02*
X140627000Y-112268724D01*
%TO.C,C32*%
X152294000Y-121804165D02*
X152294000Y-122035835D01*
X153014000Y-121804165D02*
X153014000Y-122035835D01*
%TO.C,C40*%
X152202335Y-127402000D02*
X151970665Y-127402000D01*
X152202335Y-128122000D02*
X151970665Y-128122000D01*
%TO.C,C38*%
X152261835Y-124100000D02*
X152030165Y-124100000D01*
X152261835Y-124820000D02*
X152030165Y-124820000D01*
%TO.C,C46*%
X151532000Y-129969335D02*
X151532000Y-129737665D01*
X152252000Y-129969335D02*
X152252000Y-129737665D01*
%TO.C,C15*%
X139594500Y-117240267D02*
X139594500Y-116947733D01*
X140614500Y-117240267D02*
X140614500Y-116947733D01*
%TO.C,C36*%
X152261835Y-125116000D02*
X152030165Y-125116000D01*
X152261835Y-125836000D02*
X152030165Y-125836000D01*
%TO.C,C14*%
X137666000Y-117240267D02*
X137666000Y-116947733D01*
X138686000Y-117240267D02*
X138686000Y-116947733D01*
%TO.C,R11*%
X135875500Y-118871276D02*
X135875500Y-119380724D01*
X136920500Y-118871276D02*
X136920500Y-119380724D01*
%TO.C,C42*%
X145149835Y-128164000D02*
X144918165Y-128164000D01*
X145149835Y-128884000D02*
X144918165Y-128884000D01*
%TO.C,R18*%
X149337500Y-121920724D02*
X149337500Y-121411276D01*
X150382500Y-121920724D02*
X150382500Y-121411276D01*
%TO.C,R10*%
X139582000Y-121055224D02*
X139582000Y-120545776D01*
X140627000Y-121055224D02*
X140627000Y-120545776D01*
%TO.C,C13*%
X134110000Y-120704233D02*
X134110000Y-120996767D01*
X135130000Y-120704233D02*
X135130000Y-120996767D01*
%TO.C,TP1*%
X141158000Y-108458000D02*
G75*
G02*
X139258000Y-108458000I-950000J0D01*
G01*
X139258000Y-108458000D02*
G75*
G02*
X141158000Y-108458000I950000J0D01*
G01*
%TO.C,C31*%
X151278000Y-121804165D02*
X151278000Y-122035835D01*
X151998000Y-121804165D02*
X151998000Y-122035835D01*
%TD*%
M02*
