M48
; DRILL file {KiCad 8.0.4} date 2025-12-20T23:20:23-0800
; FORMAT={-:-/ absolute / inch / decimal}
; #@! TF.CreationDate,2025-12-20T23:20:23-08:00
; #@! TF.GenerationSoftware,Kicad,Pcbnew,8.0.4
; #@! TF.FileFunction,Plated,1,4,PTH
FMAT,2
INCH
; #@! TA.AperFunction,Plated,PTH,ViaDrill
T1C0.0100
; #@! TA.AperFunction,Plated,PTH,ViaDrill
T2C0.0118
; #@! TA.AperFunction,Plated,PTH,ComponentDrill
T3C0.0394
%
G90
G05
T1
X1.0655Y-3.3255
X1.0655Y-3.381
X1.0655Y-3.4365
X1.0655Y-3.492
X1.0655Y-3.5475
X1.0655Y-3.6029
X1.0655Y-3.6584
X1.0655Y-3.7139
X1.0655Y-3.7694
X1.0655Y-3.8249
X1.0655Y-3.8804
X1.0655Y-3.9359
X1.0655Y-3.9914
X1.0655Y-4.0469
X1.0655Y-4.1024
X1.0655Y-4.1579
X1.0655Y-4.2134
X1.0655Y-4.2689
X1.0655Y-4.3244
X1.0655Y-4.3799
X1.0655Y-4.4354
X1.0655Y-4.4909
X1.0655Y-4.5464
X1.0655Y-4.6019
X1.0655Y-4.6574
X1.0655Y-4.7129
X1.0655Y-4.7684
X1.0655Y-5.4898
X1.0655Y-5.5453
X1.0655Y-5.6008
X1.0655Y-5.6563
X1.0655Y-5.7118
X1.0655Y-5.7673
X1.0655Y-5.8228
X1.0655Y-5.8783
X1.0655Y-5.9338
X1.0655Y-5.9893
X1.0655Y-6.0448
X1.0655Y-6.1003
X1.0655Y-6.1558
X1.0655Y-6.2113
X1.0655Y-6.2668
X1.0655Y-6.3223
X1.0655Y-6.3778
X1.0655Y-6.4332
X1.0655Y-6.4887
X1.0655Y-6.5442
X1.0655Y-6.5997
X1.107Y-5.0413
X1.107Y-5.0708
X1.107Y-5.1003
X1.107Y-5.1791
X1.107Y-5.2086
X1.107Y-5.2381
X1.121Y-3.3255
X1.121Y-3.381
X1.121Y-3.4365
X1.121Y-3.492
X1.121Y-3.5475
X1.121Y-3.6029
X1.121Y-3.6584
X1.121Y-3.7139
X1.121Y-3.7694
X1.121Y-3.8249
X1.121Y-3.8804
X1.121Y-3.9359
X1.121Y-3.9914
X1.121Y-4.0469
X1.121Y-4.1024
X1.121Y-4.1579
X1.121Y-4.2134
X1.121Y-4.2689
X1.121Y-4.3244
X1.121Y-4.3799
X1.121Y-4.4354
X1.121Y-4.4909
X1.121Y-4.5464
X1.121Y-4.6019
X1.121Y-4.6574
X1.121Y-4.7129
X1.121Y-4.7684
X1.121Y-5.4898
X1.121Y-5.5453
X1.121Y-5.6008
X1.121Y-5.6563
X1.121Y-5.7118
X1.121Y-5.7673
X1.121Y-5.8228
X1.121Y-5.8783
X1.121Y-5.9338
X1.121Y-5.9893
X1.121Y-6.0448
X1.121Y-6.1003
X1.121Y-6.1558
X1.121Y-6.2113
X1.121Y-6.2668
X1.121Y-6.3223
X1.121Y-6.3778
X1.121Y-6.4332
X1.121Y-6.4887
X1.121Y-6.5442
X1.121Y-6.5997
X1.1368Y-5.0413
X1.1368Y-5.0708
X1.1368Y-5.1003
X1.1368Y-5.1791
X1.1368Y-5.2086
X1.1368Y-5.2381
X1.1665Y-5.0413
X1.1665Y-5.0708
X1.1665Y-5.1003
X1.1665Y-5.1791
X1.1665Y-5.2086
X1.1665Y-5.2381
X1.1765Y-3.3255
X1.1765Y-3.381
X1.1765Y-3.4365
X1.1765Y-3.492
X1.1765Y-3.5475
X1.1765Y-3.6029
X1.1765Y-3.6584
X1.1765Y-3.7139
X1.1765Y-3.7694
X1.1765Y-3.8249
X1.1765Y-3.8804
X1.1765Y-3.9359
X1.1765Y-3.9914
X1.1765Y-4.0469
X1.1765Y-4.1024
X1.1765Y-4.1579
X1.1765Y-4.2134
X1.1765Y-4.2689
X1.1765Y-4.3244
X1.1765Y-4.3799
X1.1765Y-4.4354
X1.1765Y-4.4909
X1.1765Y-4.5464
X1.1765Y-4.6019
X1.1765Y-4.6574
X1.1765Y-4.7129
X1.1765Y-4.7684
X1.1765Y-5.4898
X1.1765Y-5.5453
X1.1765Y-5.6008
X1.1765Y-5.6563
X1.1765Y-5.7118
X1.1765Y-5.7673
X1.1765Y-5.8228
X1.1765Y-5.8783
X1.1765Y-5.9338
X1.1765Y-5.9893
X1.1765Y-6.0448
X1.1765Y-6.1003
X1.1765Y-6.1558
X1.1765Y-6.2113
X1.1765Y-6.2668
X1.1765Y-6.3223
X1.1765Y-6.3778
X1.1765Y-6.4332
X1.1765Y-6.4887
X1.1765Y-6.5442
X1.1765Y-6.5997
X1.1963Y-5.0413
X1.1963Y-5.0708
X1.1963Y-5.1003
X1.1963Y-5.1791
X1.1963Y-5.2086
X1.1963Y-5.2381
X1.226Y-5.0413
X1.226Y-5.0708
X1.226Y-5.1003
X1.226Y-5.1791
X1.226Y-5.2086
X1.226Y-5.2381
X1.232Y-3.3255
X1.232Y-3.381
X1.232Y-3.4365
X1.232Y-3.492
X1.232Y-3.5475
X1.232Y-3.6029
X1.232Y-3.6584
X1.232Y-3.7139
X1.232Y-3.7694
X1.232Y-3.8249
X1.232Y-3.8804
X1.232Y-3.9359
X1.232Y-3.9914
X1.232Y-4.0469
X1.232Y-4.1024
X1.232Y-4.1579
X1.232Y-4.2134
X1.232Y-4.2689
X1.232Y-4.3244
X1.232Y-4.3799
X1.232Y-4.4354
X1.232Y-4.4909
X1.232Y-4.5464
X1.232Y-4.6019
X1.232Y-4.6574
X1.232Y-4.7129
X1.232Y-4.7684
X1.232Y-5.4898
X1.232Y-5.5453
X1.232Y-5.6008
X1.232Y-5.6563
X1.232Y-5.7118
X1.232Y-5.7673
X1.232Y-5.8228
X1.232Y-5.8783
X1.232Y-5.9338
X1.232Y-5.9893
X1.232Y-6.0448
X1.232Y-6.1003
X1.232Y-6.1558
X1.232Y-6.2113
X1.232Y-6.2668
X1.232Y-6.3223
X1.232Y-6.3778
X1.232Y-6.4332
X1.232Y-6.4887
X1.232Y-6.5442
X1.232Y-6.5997
X1.2558Y-5.0413
X1.2558Y-5.0708
X1.2558Y-5.1003
X1.2558Y-5.1791
X1.2558Y-5.2086
X1.2558Y-5.2381
X1.2855Y-5.0413
X1.2855Y-5.0708
X1.2855Y-5.1003
X1.2855Y-5.1791
X1.2855Y-5.2086
X1.2855Y-5.2381
X1.2875Y-3.3255
X1.2875Y-3.381
X1.2875Y-3.4365
X1.2875Y-3.492
X1.2875Y-3.5475
X1.2875Y-3.6029
X1.2875Y-3.6584
X1.2875Y-3.7139
X1.2875Y-3.7694
X1.2875Y-3.8249
X1.2875Y-3.8804
X1.2875Y-3.9359
X1.2875Y-3.9914
X1.2875Y-4.0469
X1.2875Y-4.1024
X1.2875Y-4.1579
X1.2875Y-4.2134
X1.2875Y-4.2689
X1.2875Y-4.3244
X1.2875Y-4.3799
X1.2875Y-4.4354
X1.2875Y-4.4909
X1.2875Y-4.5464
X1.2875Y-4.6019
X1.2875Y-4.6574
X1.2875Y-4.7129
X1.2875Y-4.7684
X1.2875Y-4.8239
X1.2875Y-4.8794
X1.2875Y-4.9349
X1.2875Y-5.3233
X1.2875Y-5.3788
X1.2875Y-5.4343
X1.2875Y-5.4898
X1.2875Y-5.5453
X1.2875Y-5.6008
X1.2875Y-5.6563
X1.2875Y-5.7118
X1.2875Y-5.7673
X1.2875Y-5.8228
X1.2875Y-5.8783
X1.2875Y-5.9338
X1.2875Y-5.9893
X1.2875Y-6.0448
X1.2875Y-6.1003
X1.2875Y-6.1558
X1.2875Y-6.2113
X1.2875Y-6.2668
X1.2875Y-6.3223
X1.2875Y-6.3778
X1.2875Y-6.4332
X1.2875Y-6.4887
X1.2875Y-6.5442
X1.2875Y-6.5997
X1.3153Y-5.0413
X1.3153Y-5.0708
X1.3153Y-5.1003
X1.3153Y-5.1791
X1.3153Y-5.2086
X1.3153Y-5.2381
X1.3429Y-3.3255
X1.3429Y-3.381
X1.3429Y-3.4365
X1.3429Y-3.492
X1.3429Y-3.5475
X1.3429Y-3.6029
X1.3429Y-3.6584
X1.3429Y-3.7139
X1.3429Y-3.7694
X1.3429Y-3.8249
X1.3429Y-3.8804
X1.3429Y-3.9359
X1.3429Y-3.9914
X1.3429Y-4.0469
X1.3429Y-4.1024
X1.3429Y-4.1579
X1.3429Y-4.2134
X1.3429Y-4.2689
X1.3429Y-4.3244
X1.3429Y-4.3799
X1.3429Y-4.4354
X1.3429Y-4.4909
X1.3429Y-4.5464
X1.3429Y-4.6019
X1.3429Y-4.6574
X1.3429Y-4.7129
X1.3429Y-4.7684
X1.3429Y-4.8239
X1.3429Y-4.8794
X1.3429Y-4.9349
X1.3429Y-5.3233
X1.3429Y-5.3788
X1.3429Y-5.4343
X1.3429Y-5.4898
X1.3429Y-5.5453
X1.3429Y-5.6008
X1.3429Y-5.6563
X1.3429Y-5.7118
X1.3429Y-5.7673
X1.3429Y-5.8228
X1.3429Y-5.8783
X1.3429Y-5.9338
X1.3429Y-5.9893
X1.3429Y-6.0448
X1.3429Y-6.1003
X1.3429Y-6.1558
X1.3429Y-6.2113
X1.3429Y-6.2668
X1.3429Y-6.3223
X1.3429Y-6.3778
X1.3429Y-6.4332
X1.3429Y-6.4887
X1.3429Y-6.5442
X1.3429Y-6.5997
X1.345Y-5.0413
X1.345Y-5.0708
X1.345Y-5.1003
X1.345Y-5.1791
X1.345Y-5.2086
X1.345Y-5.2381
X1.3748Y-5.0413
X1.3748Y-5.0708
X1.3748Y-5.1003
X1.3748Y-5.1791
X1.3748Y-5.2086
X1.3748Y-5.2381
X1.3984Y-3.3255
X1.3984Y-3.381
X1.3984Y-3.4365
X1.3984Y-3.492
X1.3984Y-3.5475
X1.3984Y-3.6029
X1.3984Y-3.6584
X1.3984Y-3.7139
X1.3984Y-3.7694
X1.3984Y-3.8249
X1.3984Y-3.8804
X1.3984Y-3.9359
X1.3984Y-3.9914
X1.3984Y-4.0469
X1.3984Y-4.1024
X1.3984Y-4.1579
X1.3984Y-4.2134
X1.3984Y-4.2689
X1.3984Y-4.3244
X1.3984Y-4.3799
X1.3984Y-4.4354
X1.3984Y-4.4909
X1.3984Y-4.5464
X1.3984Y-4.6019
X1.3984Y-4.6574
X1.3984Y-4.7129
X1.3984Y-4.7684
X1.3984Y-4.8239
X1.3984Y-4.8794
X1.3984Y-5.3233
X1.3984Y-5.3788
X1.3984Y-5.4343
X1.3984Y-5.4898
X1.3984Y-5.5453
X1.3984Y-5.6008
X1.3984Y-5.6563
X1.3984Y-5.7118
X1.3984Y-5.7673
X1.3984Y-5.8228
X1.3984Y-5.8783
X1.3984Y-5.9338
X1.3984Y-5.9893
X1.3984Y-6.0448
X1.3984Y-6.1003
X1.3984Y-6.1558
X1.3984Y-6.2113
X1.3984Y-6.2668
X1.3984Y-6.3223
X1.3984Y-6.3778
X1.3984Y-6.4332
X1.3984Y-6.4887
X1.3984Y-6.5442
X1.3984Y-6.5997
X1.4045Y-5.0413
X1.4045Y-5.0708
X1.4045Y-5.1003
X1.4045Y-5.1791
X1.4045Y-5.2086
X1.4045Y-5.2381
X1.4343Y-5.0413
X1.4343Y-5.0708
X1.4343Y-5.1003
X1.4343Y-5.1791
X1.4343Y-5.2086
X1.4343Y-5.2381
X1.4539Y-3.3255
X1.4539Y-3.381
X1.4539Y-3.4365
X1.4539Y-3.492
X1.4539Y-3.5475
X1.4539Y-3.6029
X1.4539Y-3.6584
X1.4539Y-3.7139
X1.4539Y-3.7694
X1.4539Y-3.8249
X1.4539Y-3.8804
X1.4539Y-3.9359
X1.4539Y-3.9914
X1.4539Y-4.0469
X1.4539Y-4.1024
X1.4539Y-4.1579
X1.4539Y-4.2134
X1.4539Y-4.2689
X1.4539Y-4.3244
X1.4539Y-4.3799
X1.4539Y-4.4354
X1.4539Y-4.4909
X1.4539Y-4.5464
X1.4539Y-4.6019
X1.4539Y-4.6574
X1.4539Y-4.7129
X1.4539Y-4.7684
X1.4539Y-4.8239
X1.4539Y-4.8794
X1.4539Y-5.3233
X1.4539Y-5.3788
X1.4539Y-5.4343
X1.4539Y-5.4898
X1.4539Y-5.5453
X1.4539Y-5.6008
X1.4539Y-5.6563
X1.4539Y-5.7118
X1.4539Y-5.7673
X1.4539Y-5.8228
X1.4539Y-5.8783
X1.4539Y-5.9338
X1.4539Y-5.9893
X1.4539Y-6.0448
X1.4539Y-6.1003
X1.4539Y-6.1558
X1.4539Y-6.2113
X1.4539Y-6.2668
X1.4539Y-6.3223
X1.4539Y-6.3778
X1.4539Y-6.4332
X1.4539Y-6.4887
X1.4539Y-6.5442
X1.4539Y-6.5997
X1.464Y-5.0413
X1.464Y-5.0708
X1.464Y-5.1003
X1.464Y-5.1791
X1.464Y-5.2086
X1.464Y-5.2381
X1.4938Y-5.0413
X1.4938Y-5.0708
X1.4938Y-5.1003
X1.4938Y-5.1791
X1.4938Y-5.2086
X1.4938Y-5.2381
X1.5094Y-3.3255
X1.5094Y-3.381
X1.5094Y-3.4365
X1.5094Y-3.492
X1.5094Y-3.5475
X1.5094Y-3.6029
X1.5094Y-3.6584
X1.5094Y-3.7139
X1.5094Y-3.7694
X1.5094Y-3.8249
X1.5094Y-3.8804
X1.5094Y-3.9359
X1.5094Y-3.9914
X1.5094Y-4.0469
X1.5094Y-4.1024
X1.5094Y-4.1579
X1.5094Y-4.2134
X1.5094Y-4.2689
X1.5094Y-4.3244
X1.5094Y-4.3799
X1.5094Y-4.4354
X1.5094Y-4.4909
X1.5094Y-4.5464
X1.5094Y-4.6019
X1.5094Y-4.6574
X1.5094Y-4.7129
X1.5094Y-4.7684
X1.5094Y-4.8239
X1.5094Y-4.8794
X1.5094Y-5.3233
X1.5094Y-5.3788
X1.5094Y-5.4343
X1.5094Y-5.4898
X1.5094Y-5.5453
X1.5094Y-5.6008
X1.5094Y-5.6563
X1.5094Y-5.7118
X1.5094Y-5.7673
X1.5094Y-5.8228
X1.5094Y-5.8783
X1.5094Y-5.9338
X1.5094Y-5.9893
X1.5094Y-6.0448
X1.5094Y-6.1003
X1.5094Y-6.1558
X1.5094Y-6.2113
X1.5094Y-6.2668
X1.5094Y-6.3223
X1.5094Y-6.3778
X1.5094Y-6.4332
X1.5094Y-6.4887
X1.5094Y-6.5442
X1.5094Y-6.5997
X1.5235Y-5.0413
X1.5235Y-5.0708
X1.5235Y-5.1003
X1.5235Y-5.1791
X1.5235Y-5.2086
X1.5235Y-5.2381
X1.5552Y-5.238
X1.5554Y-5.208
X1.556Y-5.1791
X1.5649Y-3.3255
X1.5649Y-3.381
X1.5649Y-3.4365
X1.5649Y-3.492
X1.5649Y-3.5475
X1.5649Y-3.6029
X1.5649Y-3.6584
X1.5649Y-3.7139
X1.5649Y-3.7694
X1.5649Y-3.8249
X1.5649Y-3.8804
X1.5649Y-3.9359
X1.5649Y-3.9914
X1.5649Y-4.0469
X1.5649Y-4.1024
X1.5649Y-4.1579
X1.5649Y-4.2134
X1.5649Y-4.2689
X1.5649Y-4.3244
X1.5649Y-4.3799
X1.5649Y-4.4354
X1.5649Y-4.4909
X1.5649Y-4.5464
X1.5649Y-4.6019
X1.5649Y-4.6574
X1.5649Y-4.7129
X1.5649Y-5.3233
X1.5649Y-5.3788
X1.5649Y-5.4343
X1.5649Y-5.4898
X1.5649Y-5.5453
X1.5649Y-5.6008
X1.5649Y-5.6563
X1.5649Y-5.7118
X1.5649Y-5.7673
X1.5649Y-5.8228
X1.5649Y-5.8783
X1.5649Y-5.9338
X1.5649Y-5.9893
X1.5649Y-6.0448
X1.5649Y-6.1003
X1.5649Y-6.1558
X1.5649Y-6.2113
X1.5649Y-6.2668
X1.5649Y-6.3223
X1.5649Y-6.3778
X1.5649Y-6.4332
X1.5649Y-6.4887
X1.5649Y-6.5442
X1.5649Y-6.5997
X1.587Y-5.238
X1.5872Y-5.208
X1.588Y-5.1791
X1.6188Y-5.238
X1.619Y-5.208
X1.62Y-5.1791
X1.6204Y-3.3255
X1.6204Y-3.381
X1.6204Y-3.4365
X1.6204Y-3.492
X1.6204Y-3.5475
X1.6204Y-3.6029
X1.6204Y-3.6584
X1.6204Y-3.7139
X1.6204Y-3.7694
X1.6204Y-3.8249
X1.6204Y-3.8804
X1.6204Y-3.9359
X1.6204Y-3.9914
X1.6204Y-4.0469
X1.6204Y-4.1024
X1.6204Y-4.1579
X1.6204Y-4.2134
X1.6204Y-4.2689
X1.6204Y-4.3244
X1.6204Y-4.3799
X1.6204Y-4.4354
X1.6204Y-4.4909
X1.6204Y-4.5464
X1.6204Y-4.6019
X1.6204Y-5.3233
X1.6204Y-5.3788
X1.6204Y-5.4343
X1.6204Y-5.4898
X1.6204Y-5.5453
X1.6204Y-5.6008
X1.6204Y-5.6563
X1.6204Y-5.7118
X1.6204Y-5.7673
X1.6204Y-5.8228
X1.6204Y-5.8783
X1.6204Y-5.9338
X1.6204Y-5.9893
X1.6204Y-6.0448
X1.6204Y-6.1003
X1.6204Y-6.1558
X1.6204Y-6.2113
X1.6204Y-6.2668
X1.6204Y-6.3223
X1.6204Y-6.3778
X1.6204Y-6.4332
X1.6204Y-6.4887
X1.6204Y-6.5442
X1.6204Y-6.5997
X1.6574Y-5.0216
X1.6574Y-5.0511
X1.6574Y-5.0806
X1.6574Y-5.1594
X1.6574Y-5.1889
X1.6574Y-5.2184
X1.6759Y-3.3255
X1.6759Y-3.381
X1.6759Y-3.4365
X1.6759Y-3.492
X1.6759Y-3.5475
X1.6759Y-3.6029
X1.6759Y-3.6584
X1.6759Y-3.7139
X1.6759Y-3.7694
X1.6759Y-3.8249
X1.6759Y-3.8804
X1.6759Y-3.9359
X1.6759Y-3.9914
X1.6759Y-4.0469
X1.6759Y-4.1024
X1.6759Y-4.1579
X1.6759Y-4.2134
X1.6759Y-4.2689
X1.6759Y-4.3244
X1.6759Y-4.3799
X1.6759Y-4.4354
X1.6759Y-4.4909
X1.6759Y-4.5464
X1.6759Y-4.6019
X1.6759Y-5.3233
X1.6759Y-5.3788
X1.6759Y-5.4343
X1.6759Y-5.4898
X1.6759Y-5.5453
X1.6759Y-5.6008
X1.6759Y-5.6563
X1.6759Y-5.7118
X1.6759Y-5.7673
X1.6759Y-5.8228
X1.6759Y-5.8783
X1.6759Y-5.9338
X1.6759Y-5.9893
X1.6759Y-6.0448
X1.6759Y-6.1003
X1.6759Y-6.1558
X1.6759Y-6.2113
X1.6759Y-6.2668
X1.6759Y-6.3223
X1.6759Y-6.3778
X1.6759Y-6.4332
X1.6759Y-6.4887
X1.6759Y-6.5442
X1.6759Y-6.5997
X1.6949Y-5.0216
X1.6949Y-5.0511
X1.6949Y-5.0806
X1.6949Y-5.1594
X1.6949Y-5.1889
X1.6949Y-5.2184
X1.7314Y-3.3255
X1.7314Y-3.381
X1.7314Y-3.4365
X1.7314Y-3.492
X1.7314Y-3.5475
X1.7314Y-3.6029
X1.7314Y-3.6584
X1.7314Y-3.7139
X1.7314Y-3.7694
X1.7314Y-3.8249
X1.7314Y-3.8804
X1.7314Y-3.9359
X1.7314Y-3.9914
X1.7314Y-4.0469
X1.7314Y-4.1024
X1.7314Y-4.1579
X1.7314Y-4.2134
X1.7314Y-4.2689
X1.7314Y-4.3244
X1.7314Y-4.3799
X1.7314Y-4.4354
X1.7314Y-4.4909
X1.7314Y-4.5464
X1.7314Y-4.6019
X1.7314Y-4.8239
X1.7314Y-4.8794
X1.7314Y-4.9349
X1.7314Y-5.3233
X1.7314Y-5.3788
X1.7314Y-5.4343
X1.7314Y-5.4898
X1.7314Y-5.5453
X1.7314Y-5.6008
X1.7314Y-5.6563
X1.7314Y-5.7118
X1.7314Y-5.7673
X1.7314Y-5.8228
X1.7314Y-5.8783
X1.7314Y-5.9338
X1.7314Y-5.9893
X1.7314Y-6.0448
X1.7314Y-6.1003
X1.7314Y-6.1558
X1.7314Y-6.2113
X1.7314Y-6.2668
X1.7314Y-6.3223
X1.7314Y-6.3778
X1.7314Y-6.4332
X1.7314Y-6.4887
X1.7314Y-6.5442
X1.7314Y-6.5997
X1.7325Y-5.0216
X1.7325Y-5.0511
X1.7325Y-5.0806
X1.7325Y-5.1594
X1.7325Y-5.1889
X1.7325Y-5.2184
X1.77Y-5.0216
X1.77Y-5.0511
X1.77Y-5.0806
X1.77Y-5.1594
X1.77Y-5.1889
X1.77Y-5.2184
X1.7869Y-3.3255
X1.7869Y-3.381
X1.7869Y-3.4365
X1.7869Y-3.492
X1.7869Y-3.5475
X1.7869Y-3.6029
X1.7869Y-3.6584
X1.7869Y-3.7139
X1.7869Y-3.7694
X1.7869Y-3.8249
X1.7869Y-3.8804
X1.7869Y-3.9359
X1.7869Y-3.9914
X1.7869Y-4.0469
X1.7869Y-4.1024
X1.7869Y-4.1579
X1.7869Y-4.2134
X1.7869Y-4.2689
X1.7869Y-4.3244
X1.7869Y-4.3799
X1.7869Y-4.4354
X1.7869Y-4.4909
X1.7869Y-4.5464
X1.7869Y-4.6019
X1.7869Y-4.8239
X1.7869Y-4.8794
X1.7869Y-4.9349
X1.7869Y-5.3233
X1.7869Y-5.3788
X1.7869Y-5.4343
X1.7869Y-5.4898
X1.7869Y-5.5453
X1.7869Y-5.6008
X1.7869Y-5.6563
X1.7869Y-5.7118
X1.7869Y-5.7673
X1.7869Y-5.8228
X1.7869Y-5.8783
X1.7869Y-5.9338
X1.7869Y-5.9893
X1.7869Y-6.0448
X1.7869Y-6.1003
X1.7869Y-6.1558
X1.7869Y-6.2113
X1.7869Y-6.2668
X1.7869Y-6.3223
X1.7869Y-6.3778
X1.7869Y-6.4332
X1.7869Y-6.4887
X1.7869Y-6.5442
X1.7869Y-6.5997
X1.804Y-5.021
X1.804Y-5.051
X1.804Y-5.19
X1.804Y-5.2184
X1.838Y-5.021
X1.838Y-5.051
X1.838Y-5.19
X1.838Y-5.2184
X1.8424Y-3.3255
X1.8424Y-3.381
X1.8424Y-3.4365
X1.8424Y-3.492
X1.8424Y-3.5475
X1.8424Y-3.6029
X1.8424Y-3.6584
X1.8424Y-3.7139
X1.8424Y-3.7694
X1.8424Y-3.8249
X1.8424Y-3.8804
X1.8424Y-3.9359
X1.8424Y-3.9914
X1.8424Y-4.0469
X1.8424Y-4.1024
X1.8424Y-4.1579
X1.8424Y-4.2134
X1.8424Y-4.2689
X1.8424Y-4.3244
X1.8424Y-4.3799
X1.8424Y-4.4354
X1.8424Y-4.4909
X1.8424Y-4.5464
X1.8424Y-4.6019
X1.8424Y-4.8239
X1.8424Y-4.8794
X1.8424Y-4.9349
X1.8424Y-5.3233
X1.8424Y-5.3788
X1.8424Y-5.4343
X1.8424Y-5.4898
X1.8424Y-5.5453
X1.8424Y-5.6008
X1.8424Y-5.6563
X1.8424Y-5.7118
X1.8424Y-5.7673
X1.8424Y-5.8228
X1.8424Y-5.8783
X1.8424Y-5.9338
X1.8424Y-5.9893
X1.8424Y-6.0448
X1.8424Y-6.1003
X1.8424Y-6.1558
X1.8424Y-6.2113
X1.8424Y-6.2668
X1.8424Y-6.3223
X1.8424Y-6.3778
X1.8424Y-6.4332
X1.8424Y-6.4887
X1.8424Y-6.5442
X1.8424Y-6.5997
X1.87Y-5.0216
X1.87Y-5.0511
X1.87Y-5.0806
X1.87Y-5.1594
X1.87Y-5.1889
X1.87Y-5.2184
X1.8979Y-3.3255
X1.8979Y-3.381
X1.8979Y-3.4365
X1.8979Y-3.492
X1.8979Y-3.5475
X1.8979Y-3.6029
X1.8979Y-3.6584
X1.8979Y-3.7139
X1.8979Y-3.7694
X1.8979Y-3.8249
X1.8979Y-3.8804
X1.8979Y-3.9359
X1.8979Y-3.9914
X1.8979Y-4.0469
X1.8979Y-4.1024
X1.8979Y-4.1579
X1.8979Y-4.2134
X1.8979Y-4.2689
X1.8979Y-4.3244
X1.8979Y-4.3799
X1.8979Y-4.4354
X1.8979Y-4.4909
X1.8979Y-4.5464
X1.8979Y-4.6019
X1.8979Y-4.8239
X1.8979Y-4.8794
X1.8979Y-4.9349
X1.8979Y-5.3233
X1.8979Y-5.3788
X1.8979Y-5.4343
X1.8979Y-5.4898
X1.8979Y-5.5453
X1.8979Y-5.6008
X1.8979Y-5.6563
X1.8979Y-5.7118
X1.8979Y-5.7673
X1.8979Y-5.8228
X1.8979Y-5.8783
X1.8979Y-5.9338
X1.8979Y-5.9893
X1.8979Y-6.0448
X1.8979Y-6.1003
X1.8979Y-6.1558
X1.8979Y-6.2113
X1.8979Y-6.2668
X1.8979Y-6.3223
X1.8979Y-6.3778
X1.8979Y-6.4332
X1.8979Y-6.4887
X1.8979Y-6.5442
X1.8979Y-6.5997
X1.9039Y-5.0216
X1.9039Y-5.0511
X1.9039Y-5.0806
X1.9039Y-5.1594
X1.9039Y-5.1889
X1.9039Y-5.2184
X1.9378Y-5.0216
X1.9378Y-5.0511
X1.9378Y-5.0806
X1.9378Y-5.1594
X1.9378Y-5.1889
X1.9378Y-5.2184
X1.9534Y-3.3255
X1.9534Y-3.381
X1.9534Y-3.4365
X1.9534Y-3.492
X1.9534Y-3.5475
X1.9534Y-3.6029
X1.9534Y-3.6584
X1.9534Y-3.7139
X1.9534Y-3.7694
X1.9534Y-3.8249
X1.9534Y-3.8804
X1.9534Y-3.9359
X1.9534Y-3.9914
X1.9534Y-4.0469
X1.9534Y-4.1024
X1.9534Y-4.1579
X1.9534Y-4.2134
X1.9534Y-4.2689
X1.9534Y-4.3244
X1.9534Y-4.3799
X1.9534Y-4.4354
X1.9534Y-4.4909
X1.9534Y-4.5464
X1.9534Y-4.6019
X1.9534Y-4.6574
X1.9534Y-4.7129
X1.9534Y-4.7684
X1.9534Y-4.8239
X1.9534Y-4.8794
X1.9534Y-4.9349
X1.9534Y-5.3233
X1.9534Y-5.3788
X1.9534Y-5.4343
X1.9534Y-5.4898
X1.9534Y-5.5453
X1.9534Y-5.6008
X1.9534Y-5.6563
X1.9534Y-5.7118
X1.9534Y-5.7673
X1.9534Y-5.8228
X1.9534Y-5.8783
X1.9534Y-5.9338
X1.9534Y-5.9893
X1.9534Y-6.0448
X1.9534Y-6.1003
X1.9534Y-6.1558
X1.9534Y-6.2113
X1.9534Y-6.2668
X1.9534Y-6.3223
X1.9534Y-6.3778
X1.9534Y-6.4332
X1.9534Y-6.4887
X1.9534Y-6.5442
X1.9534Y-6.5997
X1.9718Y-5.0216
X1.9718Y-5.0511
X1.9718Y-5.0806
X1.9718Y-5.1594
X1.9718Y-5.1889
X1.9718Y-5.2184
X2.0089Y-3.3255
X2.0089Y-3.381
X2.0089Y-3.4365
X2.0089Y-3.492
X2.0089Y-3.5475
X2.0089Y-3.6029
X2.0089Y-3.6584
X2.0089Y-3.7139
X2.0089Y-3.7694
X2.0089Y-3.8249
X2.0089Y-3.8804
X2.0089Y-3.9359
X2.0089Y-3.9914
X2.0089Y-4.0469
X2.0089Y-4.1024
X2.0089Y-4.1579
X2.0089Y-4.2134
X2.0089Y-4.2689
X2.0089Y-4.3244
X2.0089Y-4.3799
X2.0089Y-4.4354
X2.0089Y-4.4909
X2.0089Y-4.5464
X2.0089Y-4.6019
X2.0089Y-4.6574
X2.0089Y-4.7129
X2.0089Y-4.7684
X2.0089Y-4.8239
X2.0089Y-4.8794
X2.0089Y-4.9349
X2.0089Y-5.3233
X2.0089Y-5.3788
X2.0089Y-5.4343
X2.0089Y-5.4898
X2.0089Y-5.5453
X2.0089Y-5.6008
X2.0089Y-5.6563
X2.0089Y-5.7118
X2.0089Y-5.7673
X2.0089Y-5.8228
X2.0089Y-5.8783
X2.0089Y-5.9338
X2.0089Y-5.9893
X2.0089Y-6.0448
X2.0089Y-6.1003
X2.0089Y-6.1558
X2.0089Y-6.2113
X2.0089Y-6.2668
X2.0089Y-6.3223
X2.0089Y-6.3778
X2.0089Y-6.4332
X2.0089Y-6.4887
X2.0089Y-6.5442
X2.0089Y-6.5997
X2.0644Y-3.3255
X2.0644Y-3.381
X2.0644Y-3.4365
X2.0644Y-3.492
X2.0644Y-3.5475
X2.0644Y-3.6029
X2.0644Y-3.6584
X2.0644Y-3.7139
X2.0644Y-3.7694
X2.0644Y-3.8249
X2.0644Y-3.8804
X2.0644Y-3.9359
X2.0644Y-3.9914
X2.0644Y-4.0469
X2.0644Y-4.1024
X2.0644Y-4.1579
X2.0644Y-4.2134
X2.0644Y-4.2689
X2.0644Y-4.3244
X2.0644Y-4.3799
X2.0644Y-4.4354
X2.0644Y-4.4909
X2.0644Y-4.5464
X2.0644Y-4.6019
X2.0644Y-4.6574
X2.0644Y-4.7129
X2.0644Y-4.7684
X2.0644Y-4.8239
X2.0644Y-4.8794
X2.0644Y-4.9349
X2.0644Y-5.2678
X2.0644Y-5.3233
X2.0644Y-5.3788
X2.0644Y-5.4343
X2.0644Y-5.4898
X2.0644Y-5.5453
X2.0644Y-5.6008
X2.0644Y-5.6563
X2.0644Y-5.7118
X2.0644Y-5.7673
X2.0644Y-5.8228
X2.0644Y-5.8783
X2.0644Y-5.9338
X2.0644Y-5.9893
X2.0644Y-6.0448
X2.0644Y-6.1003
X2.0644Y-6.1558
X2.0644Y-6.2113
X2.0644Y-6.2668
X2.0644Y-6.3223
X2.0644Y-6.3778
X2.0644Y-6.4332
X2.0644Y-6.4887
X2.0644Y-6.5442
X2.0644Y-6.5997
X2.1199Y-3.3255
X2.1199Y-3.381
X2.1199Y-3.4365
X2.1199Y-3.492
X2.1199Y-3.5475
X2.1199Y-3.6029
X2.1199Y-3.6584
X2.1199Y-3.7139
X2.1199Y-3.7694
X2.1199Y-3.8249
X2.1199Y-3.8804
X2.1199Y-3.9359
X2.1199Y-3.9914
X2.1199Y-4.0469
X2.1199Y-4.1024
X2.1199Y-4.1579
X2.1199Y-4.2134
X2.1199Y-4.2689
X2.1199Y-4.3244
X2.1199Y-4.3799
X2.1199Y-4.4354
X2.1199Y-4.4909
X2.1199Y-4.5464
X2.1199Y-4.6019
X2.1199Y-4.6574
X2.1199Y-4.7129
X2.1199Y-4.7684
X2.1199Y-4.8239
X2.1199Y-4.8794
X2.1199Y-4.9349
X2.1199Y-5.3233
X2.1199Y-5.3788
X2.1199Y-5.4343
X2.1199Y-5.4898
X2.1199Y-5.5453
X2.1199Y-5.6008
X2.1199Y-5.6563
X2.1199Y-5.7118
X2.1199Y-5.7673
X2.1199Y-5.8228
X2.1199Y-5.8783
X2.1199Y-5.9338
X2.1199Y-5.9893
X2.1199Y-6.0448
X2.1199Y-6.1003
X2.1199Y-6.1558
X2.1199Y-6.2113
X2.1199Y-6.2668
X2.1199Y-6.3223
X2.1199Y-6.3778
X2.1199Y-6.4332
X2.1199Y-6.4887
X2.1199Y-6.5442
X2.1199Y-6.5997
X2.145Y-5.0216
X2.145Y-5.0511
X2.145Y-5.0806
X2.145Y-5.1594
X2.145Y-5.1889
X2.145Y-5.2184
X2.1754Y-3.3255
X2.1754Y-3.381
X2.1754Y-3.4365
X2.1754Y-3.492
X2.1754Y-3.5475
X2.1754Y-3.6029
X2.1754Y-3.6584
X2.1754Y-3.7139
X2.1754Y-3.7694
X2.1754Y-3.8249
X2.1754Y-3.8804
X2.1754Y-3.9359
X2.1754Y-3.9914
X2.1754Y-4.0469
X2.1754Y-4.1024
X2.1754Y-4.1579
X2.1754Y-4.2134
X2.1754Y-4.2689
X2.1754Y-4.3244
X2.1754Y-4.3799
X2.1754Y-4.4354
X2.1754Y-4.4909
X2.1754Y-4.5464
X2.1754Y-4.6019
X2.1754Y-4.6574
X2.1754Y-4.7129
X2.1754Y-4.7684
X2.1754Y-4.8239
X2.1754Y-4.8794
X2.1754Y-4.9349
X2.1754Y-5.3233
X2.1754Y-5.3788
X2.1754Y-5.4343
X2.1754Y-5.4898
X2.1754Y-5.5453
X2.1754Y-5.6008
X2.1754Y-5.6563
X2.1754Y-5.7118
X2.1754Y-5.7673
X2.1754Y-5.8228
X2.1754Y-5.8783
X2.1754Y-5.9338
X2.1754Y-5.9893
X2.1754Y-6.0448
X2.1754Y-6.1003
X2.1754Y-6.1558
X2.1754Y-6.2113
X2.1754Y-6.2668
X2.1754Y-6.3223
X2.1754Y-6.3778
X2.1754Y-6.4332
X2.1754Y-6.4887
X2.1754Y-6.5442
X2.1754Y-6.5997
X2.18Y-5.0216
X2.18Y-5.0511
X2.18Y-5.0806
X2.18Y-5.1594
X2.18Y-5.1889
X2.18Y-5.2184
X2.215Y-5.0216
X2.215Y-5.0511
X2.215Y-5.0806
X2.215Y-5.1594
X2.215Y-5.1889
X2.215Y-5.2184
X2.2309Y-3.5475
X2.2309Y-3.6029
X2.2309Y-3.6584
X2.2309Y-3.7139
X2.2309Y-3.7694
X2.2309Y-3.8249
X2.2309Y-3.8804
X2.2309Y-3.9359
X2.2309Y-3.9914
X2.2309Y-4.0469
X2.2309Y-4.1024
X2.2309Y-4.1579
X2.2309Y-4.2134
X2.2309Y-4.2689
X2.2309Y-4.3244
X2.2309Y-4.3799
X2.2309Y-4.4354
X2.2309Y-4.4909
X2.2309Y-4.5464
X2.2309Y-4.6019
X2.2309Y-4.6574
X2.2309Y-4.7129
X2.2309Y-4.7684
X2.2309Y-4.8239
X2.2309Y-4.8794
X2.2309Y-4.9349
X2.2309Y-5.3233
X2.2309Y-5.3788
X2.2309Y-5.4343
X2.2309Y-5.4898
X2.2309Y-5.5453
X2.2309Y-5.6008
X2.2309Y-5.6563
X2.2309Y-5.7118
X2.2309Y-5.7673
X2.2309Y-5.8228
X2.2309Y-5.8783
X2.2309Y-5.9338
X2.2309Y-5.9893
X2.2309Y-6.0448
X2.2309Y-6.1003
X2.2309Y-6.1558
X2.2309Y-6.2113
X2.2309Y-6.2668
X2.2309Y-6.3223
X2.2309Y-6.3778
X2.2309Y-6.4332
X2.25Y-5.0216
X2.25Y-5.0511
X2.25Y-5.0806
X2.25Y-5.1594
X2.25Y-5.1889
X2.25Y-5.2184
X2.2845Y-5.021
X2.2845Y-5.05
X2.2845Y-5.189
X2.2845Y-5.2184
X2.2864Y-3.5475
X2.2864Y-3.6029
X2.2864Y-3.6584
X2.2864Y-3.7139
X2.2864Y-3.7694
X2.2864Y-3.8249
X2.2864Y-3.8804
X2.2864Y-3.9359
X2.2864Y-3.9914
X2.2864Y-4.0469
X2.2864Y-4.1024
X2.2864Y-4.1579
X2.2864Y-4.2134
X2.2864Y-4.2689
X2.2864Y-4.3244
X2.2864Y-4.3799
X2.2864Y-4.4354
X2.2864Y-4.4909
X2.2864Y-4.5464
X2.2864Y-4.6019
X2.2864Y-4.6574
X2.2864Y-4.7129
X2.2864Y-4.7684
X2.2864Y-4.8239
X2.2864Y-4.8794
X2.2864Y-4.9349
X2.2864Y-5.3233
X2.2864Y-5.3788
X2.2864Y-5.4343
X2.2864Y-5.4898
X2.2864Y-5.5453
X2.2864Y-5.6008
X2.2864Y-5.6563
X2.2864Y-5.7118
X2.2864Y-5.7673
X2.2864Y-5.8228
X2.2864Y-5.8783
X2.2864Y-5.9338
X2.2864Y-5.9893
X2.2864Y-6.0448
X2.2864Y-6.1003
X2.2864Y-6.1558
X2.2864Y-6.2113
X2.2864Y-6.2668
X2.2864Y-6.3223
X2.2864Y-6.3778
X2.2864Y-6.4332
X2.319Y-5.021
X2.319Y-5.05
X2.319Y-5.189
X2.319Y-5.2184
X2.3419Y-3.5475
X2.3419Y-3.6029
X2.3419Y-3.6584
X2.3419Y-3.7139
X2.3419Y-3.7694
X2.3419Y-3.8249
X2.3419Y-3.8804
X2.3419Y-3.9359
X2.3419Y-3.9914
X2.3419Y-4.0469
X2.3419Y-4.1024
X2.3419Y-4.1579
X2.3419Y-4.2134
X2.3419Y-4.2689
X2.3419Y-4.3244
X2.3419Y-4.3799
X2.3419Y-4.4354
X2.3419Y-4.4909
X2.3419Y-4.5464
X2.3419Y-4.6019
X2.3419Y-4.6574
X2.3419Y-4.7129
X2.3419Y-4.7684
X2.3419Y-4.8239
X2.3419Y-4.8794
X2.3419Y-4.9349
X2.3419Y-5.3233
X2.3419Y-5.3788
X2.3419Y-5.4343
X2.3419Y-5.4898
X2.3419Y-5.5453
X2.3419Y-5.6008
X2.3419Y-5.6563
X2.3419Y-5.7118
X2.3419Y-5.7673
X2.3419Y-5.8228
X2.3419Y-5.8783
X2.3419Y-5.9338
X2.3419Y-5.9893
X2.3419Y-6.0448
X2.3419Y-6.1003
X2.3419Y-6.1558
X2.3419Y-6.2113
X2.3419Y-6.2668
X2.3419Y-6.3223
X2.3419Y-6.3778
X2.3419Y-6.4332
X2.3503Y-5.0213
X2.3503Y-5.0508
X2.3503Y-5.0803
X2.3503Y-5.1591
X2.3503Y-5.1886
X2.3503Y-5.2181
X2.3829Y-5.0213
X2.3829Y-5.0508
X2.3829Y-5.0803
X2.3829Y-5.1591
X2.3829Y-5.1886
X2.3829Y-5.2181
X2.4155Y-5.0213
X2.4155Y-5.0508
X2.4155Y-5.0803
X2.4155Y-5.1591
X2.4155Y-5.1886
X2.4155Y-5.2181
X2.419Y-6.217
X2.42Y-6.1826
X2.421Y-6.1482
X2.4216Y-3.37
X2.4216Y-3.3999
X2.4216Y-3.4297
X2.4216Y-3.4596
X2.4216Y-3.4894
X2.4216Y-3.5193
X2.4216Y-3.5491
X2.4216Y-3.579
X2.4216Y-3.6088
X2.4216Y-3.6387
X2.4216Y-3.6685
X2.4216Y-3.6984
X2.4216Y-3.7282
X2.4216Y-3.7581
X2.4216Y-3.7879
X2.4216Y-3.8178
X2.4216Y-3.8476
X2.4216Y-3.8775
X2.4216Y-3.9073
X2.4216Y-3.9372
X2.4216Y-3.967
X2.4216Y-3.9969
X2.4216Y-4.0267
X2.4216Y-4.0566
X2.4216Y-4.0864
X2.4216Y-4.1163
X2.4216Y-4.1461
X2.4216Y-4.176
X2.4216Y-4.2058
X2.4216Y-4.2357
X2.4216Y-4.2655
X2.4216Y-4.2954
X2.4216Y-4.3252
X2.4216Y-4.3551
X2.4216Y-4.3849
X2.4216Y-4.4148
X2.4216Y-4.4446
X2.4216Y-4.4745
X2.4216Y-4.5043
X2.4216Y-4.5342
X2.4216Y-4.564
X2.4216Y-4.5939
X2.4216Y-4.6237
X2.4216Y-4.6536
X2.4216Y-4.6834
X2.4216Y-4.7133
X2.4216Y-4.7431
X2.4216Y-4.773
X2.4216Y-4.82
X2.4216Y-4.8525
X2.4216Y-4.8851
X2.4216Y-4.9176
X2.4216Y-4.9502
X2.4216Y-4.9827
X2.4216Y-5.2529
X2.4216Y-5.29
X2.4216Y-5.39
X2.4216Y-5.4242
X2.4216Y-5.4584
X2.4216Y-5.4926
X2.4216Y-5.5268
X2.4216Y-5.7
X2.4216Y-5.732
X2.4216Y-5.764
X2.4216Y-5.796
X2.4216Y-5.828
X2.4216Y-5.86
X2.4216Y-5.895
X2.4216Y-5.9275
X2.4216Y-5.96
X2.4216Y-5.9908
X2.4216Y-6.0215
X2.4216Y-6.0523
X2.4216Y-6.0831
X2.4216Y-6.1139
X2.422Y-5.3245
X2.422Y-5.359
X2.4413Y-6.2477
X2.4413Y-6.2773
X2.4413Y-6.3069
X2.4413Y-6.3365
X2.4413Y-6.3661
X2.4413Y-6.3958
X2.4413Y-6.4254
X2.4413Y-6.455
X2.4413Y-6.4846
X2.4413Y-6.5142
X2.4413Y-6.5438
X2.4413Y-6.5734
X2.4413Y-6.603
X2.4481Y-5.0213
X2.4481Y-5.0508
X2.4481Y-5.0803
X2.4481Y-5.1591
X2.4481Y-5.1886
X2.4481Y-5.2181
X2.449Y-6.2168
X2.45Y-6.1824
X2.451Y-5.3245
X2.451Y-5.359
X2.451Y-5.895
X2.451Y-5.9275
X2.451Y-6.148
X2.4511Y-3.37
X2.4511Y-3.3999
X2.4511Y-3.4297
X2.4511Y-3.4596
X2.4511Y-3.4894
X2.4511Y-3.5193
X2.4511Y-3.5491
X2.4511Y-3.579
X2.4511Y-3.6088
X2.4511Y-3.6387
X2.4511Y-3.6685
X2.4511Y-3.6984
X2.4511Y-3.7282
X2.4511Y-3.7581
X2.4511Y-3.7879
X2.4511Y-3.8178
X2.4511Y-3.8476
X2.4511Y-3.8775
X2.4511Y-3.9073
X2.4511Y-3.9372
X2.4511Y-3.967
X2.4511Y-3.9969
X2.4511Y-4.0267
X2.4511Y-4.0566
X2.4511Y-4.0864
X2.4511Y-4.1163
X2.4511Y-4.1461
X2.4511Y-4.176
X2.4511Y-4.2058
X2.4511Y-4.2357
X2.4511Y-4.2655
X2.4511Y-4.2954
X2.4511Y-4.3252
X2.4511Y-4.3551
X2.4511Y-4.3849
X2.4511Y-4.4148
X2.4511Y-4.4446
X2.4511Y-4.4745
X2.4511Y-4.5043
X2.4511Y-4.5342
X2.4511Y-4.564
X2.4511Y-4.5939
X2.4511Y-4.6237
X2.4511Y-4.6536
X2.4511Y-4.6834
X2.4511Y-4.7133
X2.4511Y-4.7431
X2.4511Y-4.773
X2.4511Y-4.82
X2.4511Y-4.8525
X2.4511Y-4.8851
X2.4511Y-4.9176
X2.4511Y-4.9502
X2.4511Y-4.9827
X2.4511Y-5.2529
X2.4511Y-5.29
X2.4511Y-5.39
X2.4511Y-5.4242
X2.4511Y-5.4584
X2.4511Y-5.4926
X2.4511Y-5.5268
X2.4511Y-5.7
X2.4511Y-5.732
X2.4511Y-5.764
X2.4511Y-5.796
X2.4511Y-5.828
X2.4511Y-5.86
X2.4511Y-5.96
X2.4511Y-5.9908
X2.4511Y-6.0215
X2.4511Y-6.0523
X2.4511Y-6.0831
X2.4511Y-6.1139
X2.4708Y-6.2477
X2.4708Y-6.2773
X2.4708Y-6.3069
X2.4708Y-6.3365
X2.4708Y-6.3661
X2.4708Y-6.3958
X2.4708Y-6.4254
X2.4708Y-6.455
X2.4708Y-6.4846
X2.4708Y-6.5142
X2.4708Y-6.5438
X2.4708Y-6.5734
X2.4708Y-6.603
X2.479Y-6.2168
X2.48Y-5.188
X2.48Y-5.325
X2.48Y-6.1824
X2.4806Y-3.37
X2.4806Y-3.3999
X2.4806Y-3.4297
X2.4806Y-3.4596
X2.4806Y-3.4894
X2.4806Y-3.5193
X2.4806Y-3.5491
X2.4806Y-3.579
X2.4806Y-3.6088
X2.4806Y-3.6387
X2.4806Y-3.6685
X2.4806Y-3.6984
X2.4806Y-3.7282
X2.4806Y-3.7581
X2.4806Y-3.7879
X2.4806Y-3.8178
X2.4806Y-3.8476
X2.4806Y-3.8775
X2.4806Y-3.9073
X2.4806Y-3.9372
X2.4806Y-3.967
X2.4806Y-3.9969
X2.4806Y-4.0267
X2.4806Y-4.0566
X2.4806Y-4.0864
X2.4806Y-4.1163
X2.4806Y-4.1461
X2.4806Y-4.176
X2.4806Y-4.2058
X2.4806Y-4.2357
X2.4806Y-4.2655
X2.4806Y-4.2954
X2.4806Y-4.3252
X2.4806Y-4.3551
X2.4806Y-4.3849
X2.4806Y-4.4148
X2.4806Y-4.4446
X2.4806Y-4.4745
X2.4806Y-4.5043
X2.4806Y-4.5342
X2.4806Y-4.564
X2.4806Y-4.5939
X2.4806Y-4.6237
X2.4806Y-4.6536
X2.4806Y-4.6834
X2.4806Y-4.7133
X2.4806Y-4.7431
X2.4806Y-4.773
X2.4806Y-4.82
X2.4806Y-4.8525
X2.4806Y-4.8851
X2.4806Y-4.9176
X2.4806Y-4.9502
X2.4806Y-4.9827
X2.4806Y-5.0152
X2.4806Y-5.0478
X2.4806Y-5.0803
X2.4806Y-5.1591
X2.4806Y-5.2158
X2.4806Y-5.2529
X2.4806Y-5.29
X2.4806Y-5.4584
X2.4806Y-5.4926
X2.4806Y-5.5268
X2.4806Y-5.7
X2.4806Y-5.732
X2.4806Y-5.764
X2.4806Y-5.796
X2.4806Y-5.828
X2.4806Y-5.86
X2.4806Y-5.96
X2.4806Y-5.9908
X2.4806Y-6.0215
X2.4806Y-6.0523
X2.4806Y-6.0831
X2.4806Y-6.1139
X2.481Y-6.148
X2.5003Y-6.2477
X2.5003Y-6.2773
X2.5003Y-6.3069
X2.5003Y-6.3365
X2.5003Y-6.3661
X2.5003Y-6.3958
X2.5003Y-6.4254
X2.5003Y-6.455
X2.5003Y-6.4846
X2.5003Y-6.5142
X2.5003Y-6.5438
X2.5003Y-6.5734
X2.5003Y-6.603
X2.5594Y-3.37
X2.5594Y-3.3999
X2.5594Y-3.4297
X2.5594Y-3.4596
X2.5594Y-3.4894
X2.5594Y-3.5193
X2.5594Y-3.5491
X2.5594Y-3.579
X2.5594Y-3.6088
X2.5594Y-3.6387
X2.5594Y-3.6685
X2.5594Y-3.6984
X2.5594Y-3.7282
X2.5594Y-3.7581
X2.5594Y-3.7879
X2.5594Y-3.8178
X2.5594Y-3.8476
X2.5594Y-3.8775
X2.5594Y-3.9073
X2.5594Y-3.9372
X2.5594Y-3.967
X2.5594Y-3.9969
X2.5594Y-4.0267
X2.5594Y-4.0566
X2.5594Y-4.0864
X2.5594Y-4.1163
X2.5594Y-4.1461
X2.5594Y-4.176
X2.5594Y-4.2058
X2.5594Y-4.2357
X2.5594Y-4.2655
X2.5594Y-4.2954
X2.5594Y-4.3252
X2.5594Y-4.3551
X2.5594Y-4.3849
X2.5594Y-4.4148
X2.5594Y-4.4446
X2.5594Y-4.4745
X2.5594Y-4.5043
X2.5594Y-4.5342
X2.5594Y-4.564
X2.5594Y-4.5939
X2.5594Y-4.6237
X2.5594Y-4.6536
X2.5594Y-4.6834
X2.5594Y-4.7133
X2.5594Y-4.7431
X2.5594Y-4.773
X2.5594Y-4.82
X2.5594Y-4.8525
X2.5594Y-4.8851
X2.5594Y-4.9176
X2.5594Y-4.9502
X2.5594Y-4.9827
X2.5594Y-5.0152
X2.5594Y-5.0478
X2.5594Y-5.0803
X2.5594Y-5.1787
X2.5594Y-5.2158
X2.5594Y-5.2529
X2.5594Y-5.29
X2.5594Y-5.4584
X2.5594Y-5.4926
X2.5594Y-5.5268
X2.5594Y-5.7
X2.5594Y-5.732
X2.5594Y-5.764
X2.5594Y-5.796
X2.5594Y-5.828
X2.5594Y-5.86
X2.5594Y-5.96
X2.5594Y-5.9908
X2.5594Y-6.0215
X2.5594Y-6.0523
X2.5594Y-6.0831
X2.5594Y-6.1139
X2.56Y-5.325
X2.5791Y-6.2477
X2.5791Y-6.2773
X2.5791Y-6.3069
X2.5791Y-6.3365
X2.5791Y-6.3661
X2.5791Y-6.3958
X2.5791Y-6.4254
X2.5791Y-6.455
X2.5791Y-6.4846
X2.5791Y-6.5142
X2.5791Y-6.5438
X2.5791Y-6.5734
X2.5791Y-6.603
X2.588Y-5.895
X2.588Y-5.9275
X2.5889Y-3.37
X2.5889Y-3.3999
X2.5889Y-3.4297
X2.5889Y-3.4596
X2.5889Y-3.4894
X2.5889Y-3.5193
X2.5889Y-3.5491
X2.5889Y-3.579
X2.5889Y-3.6088
X2.5889Y-3.6387
X2.5889Y-3.6685
X2.5889Y-3.6984
X2.5889Y-3.7282
X2.5889Y-3.7581
X2.5889Y-3.7879
X2.5889Y-3.8178
X2.5889Y-3.8476
X2.5889Y-3.8775
X2.5889Y-3.9073
X2.5889Y-3.9372
X2.5889Y-3.967
X2.5889Y-3.9969
X2.5889Y-4.0267
X2.5889Y-4.0566
X2.5889Y-4.0864
X2.5889Y-4.1163
X2.5889Y-4.1461
X2.5889Y-4.176
X2.5889Y-4.2058
X2.5889Y-4.2357
X2.5889Y-4.2655
X2.5889Y-4.2954
X2.5889Y-4.3252
X2.5889Y-4.3551
X2.5889Y-4.3849
X2.5889Y-4.4148
X2.5889Y-4.4446
X2.5889Y-4.4745
X2.5889Y-4.5043
X2.5889Y-4.5342
X2.5889Y-4.564
X2.5889Y-4.5939
X2.5889Y-4.6237
X2.5889Y-4.6536
X2.5889Y-4.6834
X2.5889Y-4.7133
X2.5889Y-4.7431
X2.5889Y-4.773
X2.5889Y-4.82
X2.5889Y-4.8525
X2.5889Y-4.8851
X2.5889Y-4.9176
X2.5889Y-4.9502
X2.5889Y-4.9827
X2.5889Y-5.0152
X2.5889Y-5.0478
X2.5889Y-5.0803
X2.5889Y-5.1787
X2.5889Y-5.2158
X2.5889Y-5.2529
X2.5889Y-5.29
X2.5889Y-5.39
X2.5889Y-5.4242
X2.5889Y-5.4584
X2.5889Y-5.4926
X2.5889Y-5.5268
X2.5889Y-5.7
X2.5889Y-5.732
X2.5889Y-5.764
X2.5889Y-5.796
X2.5889Y-5.828
X2.5889Y-5.86
X2.5889Y-5.96
X2.5889Y-5.9908
X2.5889Y-6.0215
X2.5889Y-6.0523
X2.5889Y-6.0831
X2.5889Y-6.1139
X2.589Y-5.3245
X2.589Y-5.359
X2.6086Y-6.2477
X2.6086Y-6.2773
X2.6086Y-6.3069
X2.6086Y-6.3365
X2.6086Y-6.3661
X2.6086Y-6.3958
X2.6086Y-6.4254
X2.6086Y-6.455
X2.6086Y-6.4846
X2.6086Y-6.5142
X2.6086Y-6.5438
X2.6086Y-6.5734
X2.6086Y-6.603
X2.6184Y-3.37
X2.6184Y-3.3999
X2.6184Y-3.4297
X2.6184Y-3.4596
X2.6184Y-3.4894
X2.6184Y-3.5193
X2.6184Y-3.5491
X2.6184Y-3.579
X2.6184Y-3.6088
X2.6184Y-3.6387
X2.6184Y-3.6685
X2.6184Y-3.6984
X2.6184Y-3.7282
X2.6184Y-3.7581
X2.6184Y-3.7879
X2.6184Y-3.8178
X2.6184Y-3.8476
X2.6184Y-3.8775
X2.6184Y-3.9073
X2.6184Y-3.9372
X2.6184Y-3.967
X2.6184Y-3.9969
X2.6184Y-4.0267
X2.6184Y-4.0566
X2.6184Y-4.0864
X2.6184Y-4.1163
X2.6184Y-4.1461
X2.6184Y-4.176
X2.6184Y-4.2058
X2.6184Y-4.2357
X2.6184Y-4.2655
X2.6184Y-4.2954
X2.6184Y-4.3252
X2.6184Y-4.3551
X2.6184Y-4.3849
X2.6184Y-4.4148
X2.6184Y-4.4446
X2.6184Y-4.4745
X2.6184Y-4.5043
X2.6184Y-4.5342
X2.6184Y-4.564
X2.6184Y-4.5939
X2.6184Y-4.6237
X2.6184Y-4.6536
X2.6184Y-4.6834
X2.6184Y-4.7133
X2.6184Y-4.7431
X2.6184Y-4.773
X2.6184Y-4.82
X2.6184Y-4.8525
X2.6184Y-4.8851
X2.6184Y-4.9176
X2.6184Y-4.9502
X2.6184Y-4.9827
X2.6184Y-5.0152
X2.6184Y-5.0478
X2.6184Y-5.0803
X2.6184Y-5.1787
X2.6184Y-5.2158
X2.6184Y-5.2529
X2.6184Y-5.29
X2.6184Y-5.39
X2.6184Y-5.4242
X2.6184Y-5.4584
X2.6184Y-5.4926
X2.6184Y-5.5268
X2.6184Y-5.7
X2.6184Y-5.732
X2.6184Y-5.764
X2.6184Y-5.796
X2.6184Y-5.828
X2.6184Y-5.86
X2.6184Y-5.895
X2.6184Y-5.9275
X2.6184Y-5.96
X2.6184Y-5.9908
X2.6184Y-6.0215
X2.6184Y-6.0523
X2.6184Y-6.0831
X2.6184Y-6.1139
X2.6189Y-5.3245
X2.6189Y-5.359
X2.619Y-5.113
X2.619Y-5.145
X2.6381Y-6.2477
X2.6381Y-6.2773
X2.6381Y-6.3069
X2.6381Y-6.3365
X2.6381Y-6.3661
X2.6381Y-6.3958
X2.6381Y-6.4254
X2.6381Y-6.455
X2.6381Y-6.4846
X2.6381Y-6.5142
X2.6381Y-6.5438
X2.6381Y-6.5734
X2.6381Y-6.603
X2.7304Y-3.5475
X2.7304Y-3.6029
X2.7304Y-3.6584
X2.7304Y-3.7139
X2.7304Y-3.7694
X2.7304Y-3.8249
X2.7304Y-3.8804
X2.7304Y-3.9359
X2.7304Y-3.9914
X2.7304Y-4.0469
X2.7304Y-4.1024
X2.7304Y-4.1579
X2.7304Y-4.2134
X2.7304Y-4.2689
X2.7304Y-4.3244
X2.7304Y-4.3799
X2.7304Y-4.4354
X2.7304Y-4.4909
X2.7304Y-4.5464
X2.7304Y-4.6019
X2.7304Y-4.6574
X2.7304Y-4.7129
X2.7304Y-4.7684
X2.7304Y-4.8239
X2.7304Y-4.8794
X2.7304Y-4.9349
X2.7304Y-4.9904
X2.7304Y-5.0458
X2.7304Y-5.1013
X2.7304Y-5.1568
X2.7304Y-5.2123
X2.7304Y-5.2678
X2.7304Y-5.3233
X2.7304Y-5.3788
X2.7304Y-5.4343
X2.7304Y-5.4898
X2.7304Y-5.5453
X2.7304Y-5.6008
X2.7304Y-5.6563
X2.7304Y-5.7118
X2.7304Y-5.7673
X2.7304Y-5.8228
X2.7304Y-5.8783
X2.7304Y-5.9338
X2.7304Y-6.3223
X2.7304Y-6.3778
X2.7304Y-6.4332
X2.7858Y-3.5475
X2.7858Y-3.6029
X2.7858Y-3.6584
X2.7858Y-3.7139
X2.7858Y-3.7694
X2.7858Y-3.8249
X2.7858Y-3.8804
X2.7858Y-3.9359
X2.7858Y-3.9914
X2.7858Y-4.0469
X2.7858Y-4.1024
X2.7858Y-4.1579
X2.7858Y-4.2134
X2.7858Y-4.2689
X2.7858Y-4.3244
X2.7858Y-4.3799
X2.7858Y-4.4354
X2.7858Y-4.4909
X2.7858Y-4.5464
X2.7858Y-4.6019
X2.7858Y-4.6574
X2.7858Y-4.7129
X2.7858Y-4.7684
X2.7858Y-4.8239
X2.7858Y-4.8794
X2.7858Y-4.9349
X2.7858Y-4.9904
X2.7858Y-5.0458
X2.7858Y-5.1013
X2.7858Y-5.1568
X2.7858Y-5.2123
X2.7858Y-5.2678
X2.7858Y-5.3233
X2.7858Y-5.3788
X2.7858Y-5.4343
X2.7858Y-5.4898
X2.7858Y-5.5453
X2.7858Y-5.6008
X2.7858Y-5.6563
X2.7858Y-5.7118
X2.7858Y-5.7673
X2.7858Y-5.8228
X2.7858Y-5.8783
X2.7858Y-5.9338
X2.7858Y-5.9893
X2.7858Y-6.0448
X2.7858Y-6.1003
X2.7858Y-6.3223
X2.7858Y-6.3778
X2.7858Y-6.4332
X2.8413Y-3.3255
X2.8413Y-3.381
X2.8413Y-3.4365
X2.8413Y-3.492
X2.8413Y-3.5475
X2.8413Y-3.6029
X2.8413Y-3.6584
X2.8413Y-3.7139
X2.8413Y-3.7694
X2.8413Y-3.8249
X2.8413Y-3.8804
X2.8413Y-3.9359
X2.8413Y-3.9914
X2.8413Y-4.0469
X2.8413Y-4.1024
X2.8413Y-4.1579
X2.8413Y-4.2134
X2.8413Y-4.2689
X2.8413Y-4.3244
X2.8413Y-4.3799
X2.8413Y-4.4354
X2.8413Y-4.4909
X2.8413Y-4.5464
X2.8413Y-4.6019
X2.8413Y-4.6574
X2.8413Y-4.7129
X2.8413Y-4.7684
X2.8413Y-4.8239
X2.8413Y-4.8794
X2.8413Y-4.9349
X2.8413Y-4.9904
X2.8413Y-5.0458
X2.8413Y-5.1013
X2.8413Y-5.1568
X2.8413Y-5.2123
X2.8413Y-5.2678
X2.8413Y-5.3233
X2.8413Y-5.3788
X2.8413Y-5.4343
X2.8413Y-5.4898
X2.8413Y-5.5453
X2.8413Y-5.6008
X2.8413Y-5.6563
X2.8413Y-5.7118
X2.8413Y-5.7673
X2.8413Y-5.8228
X2.8413Y-5.8783
X2.8413Y-6.3223
X2.8413Y-6.3778
X2.8413Y-6.4332
X2.8968Y-3.3255
X2.8968Y-3.381
X2.8968Y-3.4365
X2.8968Y-3.492
X2.8968Y-3.5475
X2.8968Y-3.6029
X2.8968Y-3.6584
X2.8968Y-3.7139
X2.8968Y-3.7694
X2.8968Y-3.8249
X2.8968Y-3.8804
X2.8968Y-3.9359
X2.8968Y-3.9914
X2.8968Y-4.0469
X2.8968Y-4.1024
X2.8968Y-4.1579
X2.8968Y-4.2134
X2.8968Y-4.2689
X2.8968Y-4.3244
X2.8968Y-4.3799
X2.8968Y-4.4354
X2.8968Y-4.4909
X2.8968Y-4.5464
X2.8968Y-4.6019
X2.8968Y-4.6574
X2.8968Y-4.7129
X2.8968Y-4.7684
X2.8968Y-4.8239
X2.8968Y-4.8794
X2.8968Y-4.9349
X2.8968Y-4.9904
X2.8968Y-5.0458
X2.8968Y-5.1013
X2.8968Y-5.1568
X2.8968Y-5.2123
X2.8968Y-5.2678
X2.8968Y-5.3233
X2.8968Y-5.3788
X2.8968Y-5.4343
X2.8968Y-5.4898
X2.8968Y-5.5453
X2.8968Y-5.6008
X2.8968Y-5.6563
X2.8968Y-5.7118
X2.8968Y-5.7673
X2.8968Y-5.8228
X2.8968Y-5.8783
X2.8968Y-6.3223
X2.8968Y-6.3778
X2.8968Y-6.4332
X2.8968Y-6.4887
X2.8968Y-6.5442
X2.8968Y-6.5997
X2.9523Y-3.3255
X2.9523Y-3.381
X2.9523Y-3.4365
X2.9523Y-3.492
X2.9523Y-3.5475
X2.9523Y-3.6029
X2.9523Y-3.6584
X2.9523Y-3.7139
X2.9523Y-3.7694
X2.9523Y-3.8249
X2.9523Y-3.8804
X2.9523Y-3.9359
X2.9523Y-3.9914
X2.9523Y-4.0469
X2.9523Y-4.1024
X2.9523Y-4.1579
X2.9523Y-4.2134
X2.9523Y-4.2689
X2.9523Y-4.3244
X2.9523Y-4.3799
X2.9523Y-4.4354
X2.9523Y-4.4909
X2.9523Y-4.5464
X2.9523Y-4.6019
X2.9523Y-4.6574
X2.9523Y-4.7129
X2.9523Y-4.7684
X2.9523Y-4.8239
X2.9523Y-4.8794
X2.9523Y-4.9349
X2.9523Y-4.9904
X2.9523Y-5.0458
X2.9523Y-5.1013
X2.9523Y-5.1568
X2.9523Y-5.2123
X2.9523Y-5.2678
X2.9523Y-5.3233
X2.9523Y-5.3788
X2.9523Y-5.4343
X2.9523Y-5.4898
X2.9523Y-5.5453
X2.9523Y-5.6008
X2.9523Y-5.6563
X2.9523Y-5.7118
X2.9523Y-5.7673
X2.9523Y-5.8228
X2.9523Y-5.8783
X2.9523Y-5.9338
X2.9523Y-6.3223
X2.9523Y-6.3778
X2.9523Y-6.4332
X2.9523Y-6.4887
X2.9523Y-6.5442
X2.9523Y-6.5997
X3.0078Y-3.3255
X3.0078Y-3.381
X3.0078Y-3.4365
X3.0078Y-3.492
X3.0078Y-3.5475
X3.0078Y-3.6029
X3.0078Y-3.6584
X3.0078Y-3.7139
X3.0078Y-3.7694
X3.0078Y-3.8249
X3.0078Y-3.8804
X3.0078Y-3.9359
X3.0078Y-3.9914
X3.0078Y-4.0469
X3.0078Y-4.1024
X3.0078Y-4.1579
X3.0078Y-4.2134
X3.0078Y-4.2689
X3.0078Y-4.3244
X3.0078Y-4.3799
X3.0078Y-4.4354
X3.0078Y-4.4909
X3.0078Y-4.5464
X3.0078Y-4.6019
X3.0078Y-4.6574
X3.0078Y-4.7129
X3.0078Y-4.7684
X3.0078Y-4.8239
X3.0078Y-4.8794
X3.0078Y-4.9349
X3.0078Y-4.9904
X3.0078Y-5.0458
X3.0078Y-5.1013
X3.0078Y-5.1568
X3.0078Y-5.2123
X3.0078Y-5.2678
X3.0078Y-5.3233
X3.0078Y-5.3788
X3.0078Y-5.4343
X3.0078Y-5.4898
X3.0078Y-5.5453
X3.0078Y-5.6008
X3.0078Y-5.6563
X3.0078Y-5.7118
X3.0078Y-5.7673
X3.0078Y-5.8228
X3.0078Y-5.8783
X3.0078Y-5.9338
X3.0078Y-5.9893
X3.0078Y-6.0448
X3.0078Y-6.1003
X3.0078Y-6.1558
X3.0078Y-6.2113
X3.0078Y-6.2668
X3.0078Y-6.3223
X3.0078Y-6.3778
X3.0078Y-6.4332
X3.0078Y-6.4887
X3.0078Y-6.5442
X3.0078Y-6.5997
X3.0633Y-3.3255
X3.0633Y-3.381
X3.0633Y-3.4365
X3.0633Y-3.492
X3.0633Y-3.5475
X3.0633Y-3.6029
X3.0633Y-3.6584
X3.0633Y-3.7139
X3.0633Y-3.7694
X3.0633Y-3.8249
X3.0633Y-3.8804
X3.0633Y-3.9359
X3.0633Y-3.9914
X3.0633Y-4.0469
X3.0633Y-4.1024
X3.0633Y-4.1579
X3.0633Y-4.2134
X3.0633Y-4.2689
X3.0633Y-4.3244
X3.0633Y-4.3799
X3.0633Y-4.4354
X3.0633Y-4.4909
X3.0633Y-4.5464
X3.0633Y-4.6019
X3.0633Y-4.6574
X3.0633Y-4.7129
X3.0633Y-4.7684
X3.0633Y-4.8239
X3.0633Y-4.8794
X3.0633Y-4.9349
X3.0633Y-4.9904
X3.0633Y-5.0458
X3.0633Y-5.1013
X3.0633Y-5.1568
X3.0633Y-5.2123
X3.0633Y-5.2678
X3.0633Y-5.3233
X3.0633Y-5.3788
X3.0633Y-5.4343
X3.0633Y-5.4898
X3.0633Y-5.5453
X3.0633Y-5.6008
X3.0633Y-5.6563
X3.0633Y-5.7118
X3.0633Y-5.7673
X3.0633Y-5.8228
X3.0633Y-5.8783
X3.0633Y-5.9338
X3.0633Y-5.9893
X3.0633Y-6.0448
X3.0633Y-6.1003
X3.0633Y-6.1558
X3.0633Y-6.2113
X3.0633Y-6.2668
X3.0633Y-6.3223
X3.0633Y-6.3778
X3.0633Y-6.4332
X3.0633Y-6.4887
X3.0633Y-6.5442
X3.0633Y-6.5997
X3.1188Y-3.3255
X3.1188Y-3.381
X3.1188Y-3.4365
X3.1188Y-3.492
X3.1188Y-3.5475
X3.1188Y-3.6029
X3.1188Y-3.6584
X3.1188Y-3.7139
X3.1188Y-3.7694
X3.1188Y-3.8249
X3.1188Y-3.8804
X3.1188Y-3.9359
X3.1188Y-3.9914
X3.1188Y-4.0469
X3.1188Y-4.1024
X3.1188Y-4.1579
X3.1188Y-4.2134
X3.1188Y-4.2689
X3.1188Y-4.3244
X3.1188Y-4.3799
X3.1188Y-4.4354
X3.1188Y-4.4909
X3.1188Y-4.5464
X3.1188Y-4.6019
X3.1188Y-4.6574
X3.1188Y-4.7129
X3.1188Y-4.7684
X3.1188Y-4.8239
X3.1188Y-4.8794
X3.1188Y-4.9349
X3.1188Y-4.9904
X3.1188Y-5.0458
X3.1188Y-5.1013
X3.1188Y-5.1568
X3.1188Y-5.2123
X3.1188Y-5.2678
X3.1188Y-5.3233
X3.1188Y-5.3788
X3.1188Y-5.4343
X3.1188Y-5.4898
X3.1188Y-5.5453
X3.1188Y-5.6008
X3.1188Y-5.6563
X3.1188Y-5.7118
X3.1188Y-5.7673
X3.1188Y-5.8228
X3.1188Y-5.8783
X3.1188Y-5.9338
X3.1188Y-5.9893
X3.1188Y-6.0448
X3.1188Y-6.1003
X3.1188Y-6.1558
X3.1188Y-6.2113
X3.1188Y-6.2668
X3.1188Y-6.3223
X3.1188Y-6.3778
X3.1188Y-6.4332
X3.1188Y-6.4887
X3.1188Y-6.5442
X3.1188Y-6.5997
X3.1743Y-3.3255
X3.1743Y-3.381
X3.1743Y-3.4365
X3.1743Y-3.492
X3.1743Y-3.5475
X3.1743Y-3.6029
X3.1743Y-3.6584
X3.1743Y-3.7139
X3.1743Y-3.7694
X3.1743Y-3.8249
X3.1743Y-3.8804
X3.1743Y-3.9359
X3.1743Y-3.9914
X3.1743Y-4.0469
X3.1743Y-4.1024
X3.1743Y-4.1579
X3.1743Y-4.2134
X3.1743Y-4.2689
X3.1743Y-4.3244
X3.1743Y-4.3799
X3.1743Y-4.4354
X3.1743Y-4.4909
X3.1743Y-4.5464
X3.1743Y-4.6019
X3.1743Y-4.6574
X3.1743Y-4.7129
X3.1743Y-4.7684
X3.1743Y-4.8239
X3.1743Y-4.8794
X3.1743Y-4.9349
X3.1743Y-4.9904
X3.1743Y-5.0458
X3.1743Y-5.1013
X3.1743Y-5.1568
X3.1743Y-5.2123
X3.1743Y-5.2678
X3.1743Y-5.3233
X3.1743Y-5.3788
X3.1743Y-5.4343
X3.1743Y-5.4898
X3.1743Y-5.5453
X3.1743Y-5.6008
X3.1743Y-5.6563
X3.1743Y-5.7118
X3.1743Y-5.7673
X3.1743Y-5.8228
X3.1743Y-5.8783
X3.1743Y-5.9338
X3.1743Y-5.9893
X3.1743Y-6.0448
X3.1743Y-6.1003
X3.1743Y-6.1558
X3.1743Y-6.2113
X3.1743Y-6.2668
X3.1743Y-6.3223
X3.1743Y-6.3778
X3.1743Y-6.4332
X3.1743Y-6.4887
X3.1743Y-6.5442
X3.1743Y-6.5997
X3.2298Y-3.3255
X3.2298Y-3.381
X3.2298Y-3.4365
X3.2298Y-3.492
X3.2298Y-3.5475
X3.2298Y-3.6029
X3.2298Y-3.6584
X3.2298Y-3.7139
X3.2298Y-3.7694
X3.2298Y-3.8249
X3.2298Y-3.8804
X3.2298Y-3.9359
X3.2298Y-3.9914
X3.2298Y-4.0469
X3.2298Y-4.1024
X3.2298Y-4.1579
X3.2298Y-4.2134
X3.2298Y-4.2689
X3.2298Y-4.3244
X3.2298Y-4.3799
X3.2298Y-4.4354
X3.2298Y-4.4909
X3.2298Y-4.5464
X3.2298Y-4.6019
X3.2298Y-4.6574
X3.2298Y-4.7129
X3.2298Y-4.7684
X3.2298Y-4.8239
X3.2298Y-4.8794
X3.2298Y-4.9349
X3.2298Y-4.9904
X3.2298Y-5.0458
X3.2298Y-5.1013
X3.2298Y-5.1568
X3.2298Y-5.2123
X3.2298Y-5.2678
X3.2298Y-5.3233
X3.2298Y-5.3788
X3.2298Y-5.4343
X3.2298Y-5.4898
X3.2298Y-5.5453
X3.2298Y-5.6008
X3.2298Y-5.6563
X3.2298Y-5.7118
X3.2298Y-5.7673
X3.2298Y-5.8228
X3.2298Y-5.8783
X3.2298Y-5.9338
X3.2298Y-5.9893
X3.2298Y-6.0448
X3.2298Y-6.1003
X3.2298Y-6.1558
X3.2298Y-6.2113
X3.2298Y-6.2668
X3.2298Y-6.3223
X3.2298Y-6.3778
X3.2298Y-6.4332
X3.2298Y-6.4887
X3.2298Y-6.5442
X3.2298Y-6.5997
X3.2853Y-3.3255
X3.2853Y-3.381
X3.2853Y-3.4365
X3.2853Y-3.492
X3.2853Y-3.5475
X3.2853Y-3.6029
X3.2853Y-3.6584
X3.2853Y-3.7139
X3.2853Y-3.7694
X3.2853Y-3.8249
X3.2853Y-3.8804
X3.2853Y-3.9359
X3.2853Y-3.9914
X3.2853Y-4.0469
X3.2853Y-4.1024
X3.2853Y-4.1579
X3.2853Y-4.2134
X3.2853Y-4.2689
X3.2853Y-4.3244
X3.2853Y-4.3799
X3.2853Y-4.4354
X3.2853Y-4.4909
X3.2853Y-4.5464
X3.2853Y-4.6019
X3.2853Y-4.6574
X3.2853Y-4.7129
X3.2853Y-4.7684
X3.2853Y-4.8239
X3.2853Y-4.8794
X3.2853Y-4.9349
X3.2853Y-4.9904
X3.2853Y-5.0458
X3.2853Y-5.1013
X3.2853Y-5.1568
X3.2853Y-5.2123
X3.2853Y-5.2678
X3.2853Y-5.3233
X3.2853Y-5.3788
X3.2853Y-5.4343
X3.2853Y-5.4898
X3.2853Y-5.5453
X3.2853Y-5.6008
X3.2853Y-5.6563
X3.2853Y-5.7118
X3.2853Y-5.7673
X3.2853Y-5.8228
X3.2853Y-5.8783
X3.2853Y-5.9338
X3.2853Y-5.9893
X3.2853Y-6.0448
X3.2853Y-6.1003
X3.2853Y-6.1558
X3.2853Y-6.2113
X3.2853Y-6.2668
X3.2853Y-6.3223
X3.2853Y-6.3778
X3.2853Y-6.4332
X3.2853Y-6.4887
X3.2853Y-6.5442
X3.2853Y-6.5997
X3.3408Y-3.3255
X3.3408Y-3.381
X3.3408Y-3.4365
X3.3408Y-3.492
X3.3408Y-3.5475
X3.3408Y-3.6029
X3.3408Y-3.6584
X3.3408Y-3.7139
X3.3408Y-3.7694
X3.3408Y-3.8249
X3.3408Y-3.8804
X3.3408Y-3.9359
X3.3408Y-3.9914
X3.3408Y-4.0469
X3.3408Y-4.1024
X3.3408Y-4.1579
X3.3408Y-4.2134
X3.3408Y-4.2689
X3.3408Y-4.3244
X3.3408Y-4.3799
X3.3408Y-4.4354
X3.3408Y-4.4909
X3.3408Y-4.5464
X3.3408Y-4.6019
X3.3408Y-4.6574
X3.3408Y-4.7129
X3.3408Y-4.7684
X3.3408Y-4.8239
X3.3408Y-4.8794
X3.3408Y-4.9349
X3.3408Y-4.9904
X3.3408Y-5.0458
X3.3408Y-5.1013
X3.3408Y-5.1568
X3.3408Y-5.2123
X3.3408Y-5.2678
X3.3408Y-5.3233
X3.3408Y-5.3788
X3.3408Y-5.4343
X3.3408Y-5.4898
X3.3408Y-5.5453
X3.3408Y-5.6008
X3.3408Y-5.6563
X3.3408Y-5.7118
X3.3408Y-5.7673
X3.3408Y-5.8228
X3.3408Y-5.8783
X3.3408Y-5.9338
X3.3408Y-5.9893
X3.3408Y-6.0448
X3.3408Y-6.1003
X3.3408Y-6.1558
X3.3408Y-6.2113
X3.3408Y-6.2668
X3.3408Y-6.3223
X3.3408Y-6.3778
X3.3408Y-6.4332
X3.3408Y-6.4887
X3.3408Y-6.5442
X3.3408Y-6.5997
X3.3963Y-3.3255
X3.3963Y-3.381
X3.3963Y-3.4365
X3.3963Y-3.492
X3.3963Y-3.5475
X3.3963Y-3.6029
X3.3963Y-3.6584
X3.3963Y-3.7139
X3.3963Y-3.7694
X3.3963Y-3.8249
X3.3963Y-3.8804
X3.3963Y-3.9359
X3.3963Y-3.9914
X3.3963Y-4.0469
X3.3963Y-4.1024
X3.3963Y-4.1579
X3.3963Y-4.2134
X3.3963Y-4.2689
X3.3963Y-4.3244
X3.3963Y-4.3799
X3.3963Y-4.4354
X3.3963Y-4.4909
X3.3963Y-4.5464
X3.3963Y-4.6019
X3.3963Y-4.6574
X3.3963Y-4.7129
X3.3963Y-4.7684
X3.3963Y-4.8239
X3.3963Y-4.8794
X3.3963Y-4.9349
X3.3963Y-4.9904
X3.3963Y-5.0458
X3.3963Y-5.1013
X3.3963Y-5.1568
X3.3963Y-5.2123
X3.3963Y-5.2678
X3.3963Y-5.3233
X3.3963Y-5.3788
X3.3963Y-5.4343
X3.3963Y-5.4898
X3.3963Y-5.5453
X3.3963Y-5.6008
X3.3963Y-5.6563
X3.3963Y-5.7118
X3.3963Y-5.7673
X3.3963Y-5.8228
X3.3963Y-5.8783
X3.3963Y-5.9338
X3.3963Y-5.9893
X3.3963Y-6.0448
X3.3963Y-6.1003
X3.3963Y-6.1558
X3.3963Y-6.2113
X3.3963Y-6.2668
X3.3963Y-6.3223
X3.3963Y-6.3778
X3.3963Y-6.4332
X3.3963Y-6.4887
X3.3963Y-6.5442
X3.3963Y-6.5997
X3.4518Y-3.3255
X3.4518Y-3.381
X3.4518Y-3.4365
X3.4518Y-3.492
X3.4518Y-3.5475
X3.4518Y-3.6029
X3.4518Y-3.6584
X3.4518Y-3.7139
X3.4518Y-3.7694
X3.4518Y-3.8249
X3.4518Y-3.8804
X3.4518Y-3.9359
X3.4518Y-3.9914
X3.4518Y-4.0469
X3.4518Y-4.1024
X3.4518Y-4.1579
X3.4518Y-4.2134
X3.4518Y-4.2689
X3.4518Y-4.3244
X3.4518Y-4.3799
X3.4518Y-4.4354
X3.4518Y-4.4909
X3.4518Y-4.5464
X3.4518Y-4.6019
X3.4518Y-4.6574
X3.4518Y-4.7129
X3.4518Y-4.7684
X3.4518Y-4.8239
X3.4518Y-4.8794
X3.4518Y-4.9349
X3.4518Y-4.9904
X3.4518Y-5.0458
X3.4518Y-5.1013
X3.4518Y-5.1568
X3.4518Y-5.2123
X3.4518Y-5.2678
X3.4518Y-5.3233
X3.4518Y-5.3788
X3.4518Y-5.4343
X3.4518Y-5.4898
X3.4518Y-5.5453
X3.4518Y-5.6008
X3.4518Y-5.6563
X3.4518Y-5.7118
X3.4518Y-5.7673
X3.4518Y-5.8228
X3.4518Y-5.8783
X3.4518Y-5.9338
X3.4518Y-5.9893
X3.4518Y-6.0448
X3.4518Y-6.1003
X3.4518Y-6.1558
X3.4518Y-6.2113
X3.4518Y-6.2668
X3.4518Y-6.3223
X3.4518Y-6.3778
X3.4518Y-6.4332
X3.4518Y-6.4887
X3.4518Y-6.5442
X3.4518Y-6.5997
X3.5073Y-3.3255
X3.5073Y-3.381
X3.5073Y-3.4365
X3.5073Y-3.492
X3.5073Y-3.5475
X3.5073Y-3.6029
X3.5073Y-3.6584
X3.5073Y-3.7139
X3.5073Y-3.7694
X3.5073Y-3.8249
X3.5073Y-3.8804
X3.5073Y-3.9359
X3.5073Y-3.9914
X3.5073Y-4.0469
X3.5073Y-4.1024
X3.5073Y-4.1579
X3.5073Y-4.2134
X3.5073Y-4.2689
X3.5073Y-4.3244
X3.5073Y-4.3799
X3.5073Y-4.4354
X3.5073Y-4.4909
X3.5073Y-4.5464
X3.5073Y-4.6019
X3.5073Y-4.6574
X3.5073Y-4.7129
X3.5073Y-4.7684
X3.5073Y-4.8239
X3.5073Y-4.8794
X3.5073Y-4.9349
X3.5073Y-4.9904
X3.5073Y-5.0458
X3.5073Y-5.1013
X3.5073Y-5.1568
X3.5073Y-5.2123
X3.5073Y-5.2678
X3.5073Y-5.3233
X3.5073Y-5.3788
X3.5073Y-5.4343
X3.5073Y-5.4898
X3.5073Y-5.5453
X3.5073Y-5.6008
X3.5073Y-5.6563
X3.5073Y-5.7118
X3.5073Y-5.7673
X3.5073Y-5.8228
X3.5073Y-5.8783
X3.5073Y-5.9338
X3.5073Y-5.9893
X3.5073Y-6.0448
X3.5073Y-6.1003
X3.5073Y-6.1558
X3.5073Y-6.2113
X3.5073Y-6.2668
X3.5073Y-6.3223
X3.5073Y-6.3778
X3.5073Y-6.4332
X3.5073Y-6.4887
X3.5073Y-6.5442
X3.5073Y-6.5997
X3.5628Y-3.3255
X3.5628Y-3.381
X3.5628Y-3.4365
X3.5628Y-3.492
X3.5628Y-3.5475
X3.5628Y-3.6029
X3.5628Y-3.6584
X3.5628Y-3.7139
X3.5628Y-3.7694
X3.5628Y-3.8249
X3.5628Y-3.8804
X3.5628Y-3.9359
X3.5628Y-3.9914
X3.5628Y-4.0469
X3.5628Y-4.1024
X3.5628Y-4.1579
X3.5628Y-4.2134
X3.5628Y-4.2689
X3.5628Y-4.3244
X3.5628Y-4.3799
X3.5628Y-4.4354
X3.5628Y-4.4909
X3.5628Y-4.5464
X3.5628Y-4.6019
X3.5628Y-4.6574
X3.5628Y-4.7129
X3.5628Y-4.7684
X3.5628Y-4.8239
X3.5628Y-4.8794
X3.5628Y-4.9349
X3.5628Y-4.9904
X3.5628Y-5.0458
X3.5628Y-5.1013
X3.5628Y-5.1568
X3.5628Y-5.2123
X3.5628Y-5.2678
X3.5628Y-5.3233
X3.5628Y-5.3788
X3.5628Y-5.4343
X3.5628Y-5.4898
X3.5628Y-5.5453
X3.5628Y-5.6008
X3.5628Y-5.6563
X3.5628Y-5.7118
X3.5628Y-5.7673
X3.5628Y-5.8228
X3.5628Y-5.8783
X3.5628Y-5.9338
X3.5628Y-5.9893
X3.5628Y-6.0448
X3.5628Y-6.1003
X3.5628Y-6.1558
X3.5628Y-6.2113
X3.5628Y-6.2668
X3.5628Y-6.3223
X3.5628Y-6.3778
X3.5628Y-6.4332
X3.5628Y-6.4887
X3.5628Y-6.5442
X3.5628Y-6.5997
X3.6183Y-3.3255
X3.6183Y-3.381
X3.6183Y-3.4365
X3.6183Y-3.492
X3.6183Y-3.5475
X3.6183Y-3.6029
X3.6183Y-3.6584
X3.6183Y-3.7139
X3.6183Y-3.7694
X3.6183Y-3.8249
X3.6183Y-3.8804
X3.6183Y-3.9359
X3.6183Y-3.9914
X3.6183Y-4.0469
X3.6183Y-4.1024
X3.6183Y-4.1579
X3.6183Y-4.2134
X3.6183Y-4.2689
X3.6183Y-4.3244
X3.6183Y-4.3799
X3.6183Y-4.4354
X3.6183Y-4.4909
X3.6183Y-4.5464
X3.6183Y-4.6019
X3.6183Y-4.6574
X3.6183Y-4.7129
X3.6183Y-4.7684
X3.6183Y-4.8239
X3.6183Y-4.8794
X3.6183Y-4.9349
X3.6183Y-4.9904
X3.6183Y-5.0458
X3.6183Y-5.1013
X3.6183Y-5.1568
X3.6183Y-5.2123
X3.6183Y-5.2678
X3.6183Y-5.3233
X3.6183Y-5.3788
X3.6183Y-5.4343
X3.6183Y-5.4898
X3.6183Y-5.5453
X3.6183Y-5.6008
X3.6183Y-5.6563
X3.6183Y-5.7118
X3.6183Y-5.7673
X3.6183Y-5.8228
X3.6183Y-5.8783
X3.6183Y-5.9338
X3.6183Y-5.9893
X3.6183Y-6.0448
X3.6183Y-6.1003
X3.6183Y-6.1558
X3.6183Y-6.2113
X3.6183Y-6.2668
X3.6183Y-6.3223
X3.6183Y-6.3778
X3.6183Y-6.4332
X3.6183Y-6.4887
X3.6183Y-6.5442
X3.6183Y-6.5997
X3.6738Y-3.3255
X3.6738Y-3.381
X3.6738Y-3.4365
X3.6738Y-3.492
X3.6738Y-3.5475
X3.6738Y-3.6029
X3.6738Y-3.6584
X3.6738Y-3.7139
X3.6738Y-3.7694
X3.6738Y-3.8249
X3.6738Y-3.8804
X3.6738Y-3.9359
X3.6738Y-3.9914
X3.6738Y-4.0469
X3.6738Y-4.1024
X3.6738Y-4.1579
X3.6738Y-4.2134
X3.6738Y-4.2689
X3.6738Y-4.3244
X3.6738Y-4.3799
X3.6738Y-4.4354
X3.6738Y-4.4909
X3.6738Y-4.5464
X3.6738Y-4.6019
X3.6738Y-4.6574
X3.6738Y-4.7129
X3.6738Y-4.7684
X3.6738Y-4.8239
X3.6738Y-4.8794
X3.6738Y-4.9349
X3.6738Y-4.9904
X3.6738Y-5.0458
X3.6738Y-5.1013
X3.6738Y-5.1568
X3.6738Y-5.2123
X3.6738Y-5.2678
X3.6738Y-5.3233
X3.6738Y-5.3788
X3.6738Y-5.4343
X3.6738Y-5.4898
X3.6738Y-5.5453
X3.6738Y-5.6008
X3.6738Y-5.6563
X3.6738Y-5.7118
X3.6738Y-5.7673
X3.6738Y-5.8228
X3.6738Y-5.8783
X3.6738Y-5.9338
X3.6738Y-5.9893
X3.6738Y-6.0448
X3.6738Y-6.1003
X3.6738Y-6.1558
X3.6738Y-6.2113
X3.6738Y-6.2668
X3.6738Y-6.3223
X3.6738Y-6.3778
X3.6738Y-6.4332
X3.6738Y-6.4887
X3.6738Y-6.5442
X3.6738Y-6.5997
X3.7293Y-3.3255
X3.7293Y-3.381
X3.7293Y-3.4365
X3.7293Y-3.492
X3.7293Y-3.5475
X3.7293Y-3.6029
X3.7293Y-3.6584
X3.7293Y-3.7139
X3.7293Y-3.7694
X3.7293Y-3.8249
X3.7293Y-3.8804
X3.7293Y-3.9359
X3.7293Y-3.9914
X3.7293Y-4.0469
X3.7293Y-4.1024
X3.7293Y-4.1579
X3.7293Y-4.2134
X3.7293Y-4.2689
X3.7293Y-4.3244
X3.7293Y-4.3799
X3.7293Y-4.4354
X3.7293Y-4.4909
X3.7293Y-4.5464
X3.7293Y-4.6019
X3.7293Y-4.6574
X3.7293Y-4.7129
X3.7293Y-4.7684
X3.7293Y-4.8239
X3.7293Y-4.8794
X3.7293Y-4.9349
X3.7293Y-4.9904
X3.7293Y-5.0458
X3.7293Y-5.1013
X3.7293Y-5.1568
X3.7293Y-5.2123
X3.7293Y-5.2678
X3.7293Y-5.3233
X3.7293Y-5.3788
X3.7293Y-5.4343
X3.7293Y-5.4898
X3.7293Y-5.5453
X3.7293Y-5.6008
X3.7293Y-5.6563
X3.7293Y-5.7118
X3.7293Y-5.7673
X3.7293Y-5.8228
X3.7293Y-5.8783
X3.7293Y-5.9338
X3.7293Y-5.9893
X3.7293Y-6.0448
X3.7293Y-6.1003
X3.7293Y-6.1558
X3.7293Y-6.2113
X3.7293Y-6.2668
X3.7293Y-6.3223
X3.7293Y-6.3778
X3.7293Y-6.4332
X3.7293Y-6.4887
X3.7293Y-6.5442
X3.7293Y-6.5997
X3.7848Y-3.3255
X3.7848Y-3.381
X3.7848Y-3.4365
X3.7848Y-3.492
X3.7848Y-3.5475
X3.7848Y-3.6029
X3.7848Y-3.6584
X3.7848Y-3.7139
X3.7848Y-3.7694
X3.7848Y-3.8249
X3.7848Y-3.8804
X3.7848Y-3.9359
X3.7848Y-3.9914
X3.7848Y-4.0469
X3.7848Y-4.1024
X3.7848Y-4.1579
X3.7848Y-4.2134
X3.7848Y-4.2689
X3.7848Y-4.3244
X3.7848Y-4.3799
X3.7848Y-4.4354
X3.7848Y-4.4909
X3.7848Y-4.5464
X3.7848Y-4.6019
X3.7848Y-4.6574
X3.7848Y-4.7129
X3.7848Y-4.7684
X3.7848Y-4.8239
X3.7848Y-4.8794
X3.7848Y-4.9349
X3.7848Y-4.9904
X3.7848Y-5.0458
X3.7848Y-5.1013
X3.7848Y-5.1568
X3.7848Y-5.2123
X3.7848Y-5.2678
X3.7848Y-5.3233
X3.7848Y-5.3788
X3.7848Y-5.4343
X3.7848Y-5.4898
X3.7848Y-5.5453
X3.7848Y-5.6008
X3.7848Y-5.6563
X3.7848Y-5.7118
X3.7848Y-5.7673
X3.7848Y-5.8228
X3.7848Y-5.8783
X3.7848Y-5.9338
X3.7848Y-5.9893
X3.7848Y-6.0448
X3.7848Y-6.1003
X3.7848Y-6.1558
X3.7848Y-6.2113
X3.7848Y-6.2668
X3.7848Y-6.3223
X3.7848Y-6.3778
X3.7848Y-6.4332
X3.7848Y-6.4887
X3.7848Y-6.5442
X3.7848Y-6.5997
X3.8403Y-3.3255
X3.8403Y-3.381
X3.8403Y-3.4365
X3.8403Y-3.492
X3.8403Y-3.5475
X3.8403Y-3.6029
X3.8403Y-3.6584
X3.8403Y-3.7139
X3.8403Y-3.7694
X3.8403Y-3.8249
X3.8403Y-3.8804
X3.8403Y-3.9359
X3.8403Y-3.9914
X3.8403Y-4.0469
X3.8403Y-4.1024
X3.8403Y-4.1579
X3.8403Y-4.2134
X3.8403Y-4.2689
X3.8403Y-4.3244
X3.8403Y-4.3799
X3.8403Y-4.4354
X3.8403Y-4.4909
X3.8403Y-4.5464
X3.8403Y-4.6019
X3.8403Y-4.6574
X3.8403Y-4.7129
X3.8403Y-4.7684
X3.8403Y-4.8239
X3.8403Y-4.8794
X3.8403Y-4.9349
X3.8403Y-4.9904
X3.8403Y-5.0458
X3.8403Y-5.1013
X3.8403Y-5.1568
X3.8403Y-5.2123
X3.8403Y-5.2678
X3.8403Y-5.3233
X3.8403Y-5.3788
X3.8403Y-5.4343
X3.8403Y-5.4898
X3.8403Y-5.5453
X3.8403Y-5.6008
X3.8403Y-5.6563
X3.8403Y-5.7118
X3.8403Y-5.7673
X3.8403Y-5.8228
X3.8403Y-5.8783
X3.8403Y-5.9338
X3.8403Y-5.9893
X3.8403Y-6.0448
X3.8403Y-6.1003
X3.8403Y-6.1558
X3.8403Y-6.2113
X3.8403Y-6.2668
X3.8403Y-6.3223
X3.8403Y-6.3778
X3.8403Y-6.4332
X3.8403Y-6.4887
X3.8403Y-6.5442
X3.8403Y-6.5997
X3.8958Y-3.3255
X3.8958Y-3.381
X3.8958Y-3.4365
X3.8958Y-3.492
X3.8958Y-3.5475
X3.8958Y-3.6029
X3.8958Y-3.6584
X3.8958Y-3.7139
X3.8958Y-3.7694
X3.8958Y-3.8249
X3.8958Y-3.8804
X3.8958Y-3.9359
X3.8958Y-3.9914
X3.8958Y-4.0469
X3.8958Y-4.1024
X3.8958Y-4.1579
X3.8958Y-4.2134
X3.8958Y-4.2689
X3.8958Y-4.3244
X3.8958Y-4.3799
X3.8958Y-4.4354
X3.8958Y-4.4909
X3.8958Y-4.5464
X3.8958Y-4.6019
X3.8958Y-4.6574
X3.8958Y-4.7129
X3.8958Y-4.7684
X3.8958Y-4.8239
X3.8958Y-4.8794
X3.8958Y-4.9349
X3.8958Y-4.9904
X3.8958Y-5.0458
X3.8958Y-5.1013
X3.8958Y-5.1568
X3.8958Y-5.2123
X3.8958Y-5.2678
X3.8958Y-5.3233
X3.8958Y-5.3788
X3.8958Y-5.4343
X3.8958Y-5.4898
X3.8958Y-5.5453
X3.8958Y-5.6008
X3.8958Y-5.6563
X3.8958Y-5.7118
X3.8958Y-5.7673
X3.8958Y-5.8228
X3.8958Y-5.8783
X3.8958Y-5.9338
X3.8958Y-5.9893
X3.8958Y-6.0448
X3.8958Y-6.1003
X3.8958Y-6.1558
X3.8958Y-6.2113
X3.8958Y-6.2668
X3.8958Y-6.3223
X3.8958Y-6.3778
X3.8958Y-6.4332
X3.8958Y-6.4887
X3.8958Y-6.5442
X3.8958Y-6.5997
X3.9513Y-3.3255
X3.9513Y-3.381
X3.9513Y-3.4365
X3.9513Y-3.492
X3.9513Y-3.5475
X3.9513Y-3.6029
X3.9513Y-3.6584
X3.9513Y-3.7139
X3.9513Y-3.7694
X3.9513Y-3.8249
X3.9513Y-3.8804
X3.9513Y-3.9359
X3.9513Y-3.9914
X3.9513Y-4.0469
X3.9513Y-4.1024
X3.9513Y-4.1579
X3.9513Y-4.2134
X3.9513Y-4.2689
X3.9513Y-4.3244
X3.9513Y-4.3799
X3.9513Y-4.4354
X3.9513Y-4.4909
X3.9513Y-4.5464
X3.9513Y-4.6019
X3.9513Y-4.6574
X3.9513Y-4.7129
X3.9513Y-4.7684
X3.9513Y-4.8239
X3.9513Y-4.8794
X3.9513Y-4.9349
X3.9513Y-4.9904
X3.9513Y-5.0458
X3.9513Y-5.1013
X3.9513Y-5.1568
X3.9513Y-5.2123
X3.9513Y-5.2678
X3.9513Y-5.3233
X3.9513Y-5.3788
X3.9513Y-5.4343
X3.9513Y-5.4898
X3.9513Y-5.5453
X3.9513Y-5.6008
X3.9513Y-5.6563
X3.9513Y-5.7118
X3.9513Y-5.7673
X3.9513Y-5.8228
X3.9513Y-5.8783
X3.9513Y-5.9338
X3.9513Y-5.9893
X3.9513Y-6.0448
X3.9513Y-6.1003
X3.9513Y-6.1558
X3.9513Y-6.2113
X3.9513Y-6.2668
X3.9513Y-6.3223
X3.9513Y-6.3778
X3.9513Y-6.4332
X3.9513Y-6.4887
X3.9513Y-6.5442
X3.9513Y-6.5997
X4.0068Y-3.3255
X4.0068Y-3.381
X4.0068Y-3.4365
X4.0068Y-3.492
X4.0068Y-3.5475
X4.0068Y-3.6029
X4.0068Y-3.6584
X4.0068Y-3.7139
X4.0068Y-3.7694
X4.0068Y-3.8249
X4.0068Y-3.8804
X4.0068Y-3.9359
X4.0068Y-3.9914
X4.0068Y-4.0469
X4.0068Y-4.1024
X4.0068Y-4.1579
X4.0068Y-4.2134
X4.0068Y-4.2689
X4.0068Y-4.3244
X4.0068Y-4.3799
X4.0068Y-4.4354
X4.0068Y-4.4909
X4.0068Y-4.5464
X4.0068Y-4.6019
X4.0068Y-4.6574
X4.0068Y-4.7129
X4.0068Y-4.7684
X4.0068Y-4.8239
X4.0068Y-4.8794
X4.0068Y-4.9349
X4.0068Y-4.9904
X4.0068Y-5.0458
X4.0068Y-5.1013
X4.0068Y-5.1568
X4.0068Y-5.2123
X4.0068Y-5.2678
X4.0068Y-5.3233
X4.0068Y-5.3788
X4.0068Y-5.4343
X4.0068Y-5.4898
X4.0068Y-5.5453
X4.0068Y-5.6008
X4.0068Y-5.6563
X4.0068Y-5.7118
X4.0068Y-5.7673
X4.0068Y-5.8228
X4.0068Y-5.8783
X4.0068Y-5.9338
X4.0068Y-5.9893
X4.0068Y-6.0448
X4.0068Y-6.1003
X4.0068Y-6.1558
X4.0068Y-6.2113
X4.0068Y-6.2668
X4.0068Y-6.3223
X4.0068Y-6.3778
X4.0068Y-6.4332
X4.0068Y-6.4887
X4.0068Y-6.5442
X4.0068Y-6.5997
X4.0623Y-3.3255
X4.0623Y-3.381
X4.0623Y-3.4365
X4.0623Y-3.492
X4.0623Y-3.5475
X4.0623Y-3.6029
X4.0623Y-3.6584
X4.0623Y-3.7139
X4.0623Y-3.7694
X4.0623Y-3.8249
X4.0623Y-3.8804
X4.0623Y-3.9359
X4.0623Y-3.9914
X4.0623Y-4.0469
X4.0623Y-4.1024
X4.0623Y-4.1579
X4.0623Y-4.2134
X4.0623Y-4.2689
X4.0623Y-4.3244
X4.0623Y-4.3799
X4.0623Y-4.4354
X4.0623Y-4.4909
X4.0623Y-4.5464
X4.0623Y-4.6019
X4.0623Y-4.6574
X4.0623Y-4.7129
X4.0623Y-4.7684
X4.0623Y-4.8239
X4.0623Y-4.8794
X4.0623Y-4.9349
X4.0623Y-4.9904
X4.0623Y-5.0458
X4.0623Y-5.1013
X4.0623Y-5.1568
X4.0623Y-5.2123
X4.0623Y-5.2678
X4.0623Y-5.3233
X4.0623Y-5.3788
X4.0623Y-5.4343
X4.0623Y-5.4898
X4.0623Y-5.5453
X4.0623Y-5.6008
X4.0623Y-5.6563
X4.0623Y-5.7118
X4.0623Y-5.7673
X4.0623Y-5.8228
X4.0623Y-5.8783
X4.0623Y-5.9338
X4.0623Y-5.9893
X4.0623Y-6.0448
X4.0623Y-6.1003
X4.0623Y-6.1558
X4.0623Y-6.2113
X4.0623Y-6.2668
X4.0623Y-6.3223
X4.0623Y-6.3778
X4.0623Y-6.4332
X4.0623Y-6.4887
X4.0623Y-6.5442
X4.0623Y-6.5997
X4.1178Y-3.3255
X4.1178Y-3.381
X4.1178Y-3.4365
X4.1178Y-3.492
X4.1178Y-3.5475
X4.1178Y-3.6029
X4.1178Y-3.6584
X4.1178Y-3.7139
X4.1178Y-3.7694
X4.1178Y-3.8249
X4.1178Y-3.8804
X4.1178Y-3.9359
X4.1178Y-3.9914
X4.1178Y-4.0469
X4.1178Y-4.1024
X4.1178Y-4.1579
X4.1178Y-4.2134
X4.1178Y-4.2689
X4.1178Y-4.3244
X4.1178Y-4.3799
X4.1178Y-4.4354
X4.1178Y-4.4909
X4.1178Y-4.5464
X4.1178Y-4.6019
X4.1178Y-4.6574
X4.1178Y-4.7129
X4.1178Y-4.7684
X4.1178Y-4.8239
X4.1178Y-4.8794
X4.1178Y-4.9349
X4.1178Y-4.9904
X4.1178Y-5.0458
X4.1178Y-5.1013
X4.1178Y-5.1568
X4.1178Y-5.2123
X4.1178Y-5.2678
X4.1178Y-5.3233
X4.1178Y-5.3788
X4.1178Y-5.4343
X4.1178Y-5.4898
X4.1178Y-5.5453
X4.1178Y-5.6008
X4.1178Y-5.6563
X4.1178Y-5.7118
X4.1178Y-5.7673
X4.1178Y-5.8228
X4.1178Y-5.8783
X4.1178Y-5.9338
X4.1178Y-5.9893
X4.1178Y-6.0448
X4.1178Y-6.1003
X4.1178Y-6.1558
X4.1178Y-6.2113
X4.1178Y-6.2668
X4.1178Y-6.3223
X4.1178Y-6.3778
X4.1178Y-6.4332
X4.1178Y-6.4887
X4.1178Y-6.5442
X4.1178Y-6.5997
X4.1732Y-3.3255
X4.1732Y-3.381
X4.1732Y-3.4365
X4.1732Y-3.492
X4.1732Y-3.5475
X4.1732Y-3.6029
X4.1732Y-3.6584
X4.1732Y-3.7139
X4.1732Y-3.7694
X4.1732Y-3.8249
X4.1732Y-3.8804
X4.1732Y-3.9359
X4.1732Y-3.9914
X4.1732Y-4.0469
X4.1732Y-4.1024
X4.1732Y-4.1579
X4.1732Y-4.2134
X4.1732Y-4.2689
X4.1732Y-4.3244
X4.1732Y-4.3799
X4.1732Y-4.4354
X4.1732Y-4.4909
X4.1732Y-4.5464
X4.1732Y-4.6019
X4.1732Y-4.6574
X4.1732Y-4.7129
X4.1732Y-4.7684
X4.1732Y-4.8239
X4.1732Y-4.8794
X4.1732Y-4.9349
X4.1732Y-4.9904
X4.1732Y-5.0458
X4.1732Y-5.1013
X4.1732Y-5.1568
X4.1732Y-5.2123
X4.1732Y-5.2678
X4.1732Y-5.3233
X4.1732Y-5.3788
X4.1732Y-5.4343
X4.1732Y-5.4898
X4.1732Y-5.5453
X4.1732Y-5.6008
X4.1732Y-5.6563
X4.1732Y-5.7118
X4.1732Y-5.7673
X4.1732Y-5.8228
X4.1732Y-5.8783
X4.1732Y-5.9338
X4.1732Y-5.9893
X4.1732Y-6.0448
X4.1732Y-6.1003
X4.1732Y-6.1558
X4.1732Y-6.2113
X4.1732Y-6.2668
X4.1732Y-6.3223
X4.1732Y-6.3778
X4.1732Y-6.4332
X4.1732Y-6.4887
X4.1732Y-6.5442
X4.1732Y-6.5997
X4.2287Y-3.3255
X4.2287Y-3.381
X4.2287Y-3.4365
X4.2287Y-3.492
X4.2287Y-3.5475
X4.2287Y-3.6029
X4.2287Y-3.6584
X4.2287Y-3.7139
X4.2287Y-3.7694
X4.2287Y-3.8249
X4.2287Y-3.8804
X4.2287Y-3.9359
X4.2287Y-3.9914
X4.2287Y-4.0469
X4.2287Y-4.1024
X4.2287Y-4.1579
X4.2287Y-4.2134
X4.2287Y-4.2689
X4.2287Y-4.3244
X4.2287Y-4.3799
X4.2287Y-4.4354
X4.2287Y-4.4909
X4.2287Y-4.5464
X4.2287Y-4.6019
X4.2287Y-4.6574
X4.2287Y-4.7129
X4.2287Y-4.7684
X4.2287Y-4.8239
X4.2287Y-4.8794
X4.2287Y-4.9349
X4.2287Y-4.9904
X4.2287Y-5.0458
X4.2287Y-5.1013
X4.2287Y-5.1568
X4.2287Y-5.2123
X4.2287Y-5.2678
X4.2287Y-5.3233
X4.2287Y-5.3788
X4.2287Y-5.4343
X4.2287Y-5.4898
X4.2287Y-5.5453
X4.2287Y-5.6008
X4.2287Y-5.6563
X4.2287Y-5.7118
X4.2287Y-5.7673
X4.2287Y-5.8228
X4.2287Y-5.8783
X4.2287Y-5.9338
X4.2287Y-5.9893
X4.2287Y-6.0448
X4.2287Y-6.1003
X4.2287Y-6.1558
X4.2287Y-6.2113
X4.2287Y-6.2668
X4.2287Y-6.3223
X4.2287Y-6.3778
X4.2287Y-6.4332
X4.2287Y-6.4887
X4.2287Y-6.5442
X4.2287Y-6.5997
X4.2842Y-3.3255
X4.2842Y-3.381
X4.2842Y-3.4365
X4.2842Y-3.492
X4.2842Y-3.5475
X4.2842Y-3.6029
X4.2842Y-3.6584
X4.2842Y-3.7139
X4.2842Y-3.7694
X4.2842Y-3.8249
X4.2842Y-3.8804
X4.2842Y-3.9359
X4.2842Y-3.9914
X4.2842Y-4.0469
X4.2842Y-4.1024
X4.2842Y-4.1579
X4.2842Y-4.2134
X4.2842Y-4.2689
X4.2842Y-4.3244
X4.2842Y-4.3799
X4.2842Y-4.4354
X4.2842Y-4.4909
X4.2842Y-4.5464
X4.2842Y-4.6019
X4.2842Y-4.6574
X4.2842Y-4.7129
X4.2842Y-4.7684
X4.2842Y-4.8239
X4.2842Y-4.8794
X4.2842Y-4.9349
X4.2842Y-4.9904
X4.2842Y-5.0458
X4.2842Y-5.1013
X4.2842Y-5.1568
X4.2842Y-5.2123
X4.2842Y-5.2678
X4.2842Y-5.3233
X4.2842Y-5.3788
X4.2842Y-5.4343
X4.2842Y-5.4898
X4.2842Y-5.5453
X4.2842Y-5.6008
X4.2842Y-5.6563
X4.2842Y-5.7118
X4.2842Y-5.7673
X4.2842Y-5.8228
X4.2842Y-5.8783
X4.2842Y-5.9338
X4.2842Y-5.9893
X4.2842Y-6.0448
X4.2842Y-6.1003
X4.2842Y-6.1558
X4.2842Y-6.2113
X4.2842Y-6.2668
X4.2842Y-6.3223
X4.2842Y-6.3778
X4.2842Y-6.4332
X4.2842Y-6.4887
X4.2842Y-6.5442
X4.2842Y-6.5997
X4.3397Y-3.3255
X4.3397Y-3.381
X4.3397Y-3.4365
X4.3397Y-3.492
X4.3397Y-3.5475
X4.3397Y-3.6029
X4.3397Y-3.6584
X4.3397Y-3.7139
X4.3397Y-3.7694
X4.3397Y-3.8249
X4.3397Y-3.8804
X4.3397Y-3.9359
X4.3397Y-3.9914
X4.3397Y-4.0469
X4.3397Y-4.1024
X4.3397Y-4.1579
X4.3397Y-4.2134
X4.3397Y-4.2689
X4.3397Y-4.3244
X4.3397Y-4.3799
X4.3397Y-4.4354
X4.3397Y-4.4909
X4.3397Y-4.5464
X4.3397Y-4.6019
X4.3397Y-4.6574
X4.3397Y-4.7129
X4.3397Y-4.7684
X4.3397Y-4.8239
X4.3397Y-4.8794
X4.3397Y-4.9349
X4.3397Y-4.9904
X4.3397Y-5.0458
X4.3397Y-5.1013
X4.3397Y-5.1568
X4.3397Y-5.2123
X4.3397Y-5.2678
X4.3397Y-5.3233
X4.3397Y-5.3788
X4.3397Y-5.4343
X4.3397Y-5.4898
X4.3397Y-5.5453
X4.3397Y-5.6008
X4.3397Y-5.6563
X4.3397Y-5.7118
X4.3397Y-5.7673
X4.3397Y-5.8228
X4.3397Y-5.8783
X4.3397Y-5.9338
X4.3397Y-5.9893
X4.3397Y-6.0448
X4.3397Y-6.1003
X4.3397Y-6.1558
X4.3397Y-6.2113
X4.3397Y-6.2668
X4.3397Y-6.3223
X4.3397Y-6.3778
X4.3397Y-6.4332
X4.3397Y-6.4887
X4.3397Y-6.5442
X4.3397Y-6.5997
X4.3952Y-3.3255
X4.3952Y-3.381
X4.3952Y-3.4365
X4.3952Y-3.492
X4.3952Y-3.5475
X4.3952Y-3.6029
X4.3952Y-3.6584
X4.3952Y-3.7139
X4.3952Y-3.7694
X4.3952Y-3.8249
X4.3952Y-3.8804
X4.3952Y-3.9359
X4.3952Y-3.9914
X4.3952Y-4.0469
X4.3952Y-4.1024
X4.3952Y-4.1579
X4.3952Y-4.2134
X4.3952Y-4.2689
X4.3952Y-4.3244
X4.3952Y-4.3799
X4.3952Y-4.4354
X4.3952Y-4.4909
X4.3952Y-4.5464
X4.3952Y-4.6019
X4.3952Y-4.6574
X4.3952Y-4.7129
X4.3952Y-4.7684
X4.3952Y-4.8239
X4.3952Y-4.8794
X4.3952Y-4.9349
X4.3952Y-4.9904
X4.3952Y-5.0458
X4.3952Y-5.1013
X4.3952Y-5.1568
X4.3952Y-5.2123
X4.3952Y-5.2678
X4.3952Y-5.3233
X4.3952Y-5.3788
X4.3952Y-5.4343
X4.3952Y-5.4898
X4.3952Y-5.5453
X4.3952Y-5.6008
X4.3952Y-5.6563
X4.3952Y-5.7118
X4.3952Y-5.7673
X4.3952Y-5.8228
X4.3952Y-5.8783
X4.3952Y-5.9338
X4.3952Y-5.9893
X4.3952Y-6.0448
X4.3952Y-6.1003
X4.3952Y-6.1558
X4.3952Y-6.2113
X4.3952Y-6.2668
X4.3952Y-6.3223
X4.3952Y-6.3778
X4.3952Y-6.4332
X4.3952Y-6.4887
X4.3952Y-6.5442
X4.3952Y-6.5997
X4.4507Y-3.3255
X4.4507Y-3.381
X4.4507Y-3.4365
X4.4507Y-3.492
X4.4507Y-3.5475
X4.4507Y-3.6029
X4.4507Y-3.6584
X4.4507Y-3.7139
X4.4507Y-3.7694
X4.4507Y-3.8249
X4.4507Y-3.8804
X4.4507Y-3.9359
X4.4507Y-3.9914
X4.4507Y-4.0469
X4.4507Y-4.1024
X4.4507Y-4.1579
X4.4507Y-4.2134
X4.4507Y-4.6019
X4.4507Y-4.6574
X4.4507Y-4.7129
X4.4507Y-4.7684
X4.4507Y-4.8239
X4.4507Y-4.8794
X4.4507Y-4.9349
X4.4507Y-4.9904
X4.4507Y-5.0458
X4.4507Y-5.1013
X4.4507Y-5.1568
X4.4507Y-5.2123
X4.4507Y-5.2678
X4.4507Y-5.3233
X4.4507Y-5.3788
X4.4507Y-5.4343
X4.4507Y-5.4898
X4.4507Y-5.5453
X4.4507Y-5.6008
X4.4507Y-5.6563
X4.4507Y-5.7118
X4.4507Y-5.7673
X4.4507Y-5.8228
X4.4507Y-5.8783
X4.4507Y-5.9338
X4.4507Y-5.9893
X4.4507Y-6.0448
X4.4507Y-6.1003
X4.4507Y-6.1558
X4.4507Y-6.2113
X4.4507Y-6.2668
X4.4507Y-6.3223
X4.4507Y-6.3778
X4.4507Y-6.4332
X4.4507Y-6.4887
X4.4507Y-6.5442
X4.4507Y-6.5997
X4.5062Y-3.3255
X4.5062Y-3.381
X4.5062Y-3.4365
X4.5062Y-3.492
X4.5062Y-3.5475
X4.5062Y-3.6029
X4.5062Y-3.6584
X4.5062Y-3.7139
X4.5062Y-3.7694
X4.5062Y-3.8249
X4.5062Y-3.8804
X4.5062Y-3.9359
X4.5062Y-3.9914
X4.5062Y-4.0469
X4.5062Y-4.1024
X4.5062Y-4.1579
X4.5062Y-4.2134
X4.5062Y-4.6019
X4.5062Y-4.6574
X4.5062Y-4.7129
X4.5062Y-4.7684
X4.5062Y-4.8239
X4.5062Y-4.8794
X4.5062Y-4.9349
X4.5062Y-4.9904
X4.5062Y-5.0458
X4.5062Y-5.1013
X4.5062Y-5.1568
X4.5062Y-5.2123
X4.5062Y-5.2678
X4.5062Y-5.3233
X4.5062Y-5.3788
X4.5062Y-5.4343
X4.5062Y-5.4898
X4.5062Y-5.5453
X4.5062Y-5.6008
X4.5062Y-5.6563
X4.5062Y-5.7118
X4.5062Y-5.7673
X4.5062Y-5.8228
X4.5062Y-5.8783
X4.5062Y-5.9338
X4.5062Y-5.9893
X4.5062Y-6.0448
X4.5062Y-6.1003
X4.5062Y-6.1558
X4.5062Y-6.2113
X4.5062Y-6.2668
X4.5062Y-6.3223
X4.5062Y-6.3778
X4.5062Y-6.4332
X4.5062Y-6.4887
X4.5062Y-6.5442
X4.5062Y-6.5997
X4.5617Y-3.3255
X4.5617Y-3.381
X4.5617Y-3.4365
X4.5617Y-3.492
X4.5617Y-3.5475
X4.5617Y-3.6029
X4.5617Y-3.6584
X4.5617Y-3.7139
X4.5617Y-3.7694
X4.5617Y-3.8249
X4.5617Y-3.8804
X4.5617Y-3.9359
X4.5617Y-3.9914
X4.5617Y-4.0469
X4.5617Y-4.1024
X4.5617Y-4.1579
X4.5617Y-4.6019
X4.5617Y-4.6574
X4.5617Y-4.7129
X4.5617Y-4.7684
X4.5617Y-4.8239
X4.5617Y-4.8794
X4.5617Y-4.9349
X4.5617Y-4.9904
X4.5617Y-5.0458
X4.5617Y-5.1013
X4.5617Y-5.1568
X4.5617Y-5.2123
X4.5617Y-5.2678
X4.5617Y-5.3233
X4.5617Y-5.3788
X4.5617Y-5.4343
X4.5617Y-5.4898
X4.5617Y-5.5453
X4.5617Y-5.6008
X4.5617Y-5.6563
X4.5617Y-5.7118
X4.5617Y-5.7673
X4.5617Y-5.8228
X4.5617Y-5.8783
X4.5617Y-5.9338
X4.5617Y-5.9893
X4.5617Y-6.0448
X4.5617Y-6.1003
X4.5617Y-6.1558
X4.5617Y-6.2113
X4.5617Y-6.2668
X4.5617Y-6.3223
X4.5617Y-6.3778
X4.5617Y-6.4332
X4.5617Y-6.4887
X4.5617Y-6.5442
X4.5617Y-6.5997
X4.6172Y-3.3255
X4.6172Y-3.381
X4.6172Y-3.4365
X4.6172Y-3.492
X4.6172Y-3.5475
X4.6172Y-3.6029
X4.6172Y-3.6584
X4.6172Y-3.7139
X4.6172Y-3.7694
X4.6172Y-3.8249
X4.6172Y-3.8804
X4.6172Y-3.9359
X4.6172Y-3.9914
X4.6172Y-4.0469
X4.6172Y-4.1024
X4.6172Y-4.3799
X4.6172Y-4.4354
X4.6172Y-4.4909
X4.6172Y-4.5464
X4.6172Y-4.6019
X4.6172Y-4.6574
X4.6172Y-4.7129
X4.6172Y-4.7684
X4.6172Y-4.8239
X4.6172Y-4.8794
X4.6172Y-4.9349
X4.6172Y-4.9904
X4.6172Y-5.0458
X4.6172Y-5.1013
X4.6172Y-5.1568
X4.6172Y-5.2123
X4.6172Y-5.2678
X4.6172Y-5.3233
X4.6172Y-5.3788
X4.6172Y-5.4343
X4.6172Y-5.4898
X4.6172Y-5.5453
X4.6172Y-5.6008
X4.6172Y-5.6563
X4.6172Y-5.7118
X4.6172Y-5.7673
X4.6172Y-5.8228
X4.6172Y-5.8783
X4.6172Y-5.9338
X4.6172Y-5.9893
X4.6172Y-6.0448
X4.6172Y-6.1003
X4.6172Y-6.1558
X4.6172Y-6.2113
X4.6172Y-6.2668
X4.6172Y-6.3223
X4.6172Y-6.3778
X4.6172Y-6.4332
X4.6727Y-3.3255
X4.6727Y-3.381
X4.6727Y-3.4365
X4.6727Y-3.492
X4.6727Y-3.5475
X4.6727Y-3.6029
X4.6727Y-3.6584
X4.6727Y-3.7139
X4.6727Y-3.7694
X4.6727Y-3.8249
X4.6727Y-3.8804
X4.6727Y-3.9359
X4.6727Y-3.9914
X4.6727Y-4.0469
X4.6727Y-4.2689
X4.6727Y-4.3799
X4.6727Y-4.4354
X4.6727Y-4.4909
X4.6727Y-4.5464
X4.6727Y-4.6019
X4.6727Y-4.6574
X4.6727Y-4.7129
X4.6727Y-5.1013
X4.6727Y-5.1568
X4.6727Y-5.2123
X4.6727Y-5.2678
X4.6727Y-5.3233
X4.6727Y-5.3788
X4.6727Y-5.4343
X4.6727Y-5.4898
X4.6727Y-5.5453
X4.6727Y-5.6008
X4.6727Y-5.6563
X4.6727Y-5.7118
X4.6727Y-5.7673
X4.6727Y-5.8228
X4.6727Y-5.8783
X4.6727Y-5.9338
X4.6727Y-5.9893
X4.6727Y-6.0448
X4.6727Y-6.1003
X4.6727Y-6.1558
X4.6727Y-6.2113
X4.6727Y-6.2668
X4.6727Y-6.3223
X4.6727Y-6.3778
X4.6727Y-6.4332
X4.7282Y-3.3255
X4.7282Y-3.381
X4.7282Y-3.4365
X4.7282Y-3.492
X4.7282Y-3.5475
X4.7282Y-3.6029
X4.7282Y-3.6584
X4.7282Y-3.7139
X4.7282Y-3.7694
X4.7282Y-3.8249
X4.7282Y-3.8804
X4.7282Y-3.9359
X4.7282Y-3.9914
X4.7282Y-4.2134
X4.7282Y-4.4354
X4.7282Y-4.4909
X4.7282Y-4.5464
X4.7282Y-4.6019
X4.7282Y-4.6574
X4.7282Y-4.7129
X4.7282Y-5.2123
X4.7282Y-5.2678
X4.7282Y-5.3233
X4.7282Y-5.3788
X4.7282Y-5.4343
X4.7282Y-5.4898
X4.7282Y-5.5453
X4.7282Y-5.6008
X4.7282Y-5.6563
X4.7282Y-5.7118
X4.7282Y-5.7673
X4.7282Y-5.8228
X4.7282Y-5.8783
X4.7282Y-5.9338
X4.7282Y-5.9893
X4.7282Y-6.0448
X4.7282Y-6.1003
X4.7282Y-6.1558
X4.7282Y-6.2113
X4.7282Y-6.2668
X4.7282Y-6.3223
X4.7282Y-6.3778
X4.7282Y-6.4332
X4.7837Y-3.3255
X4.7837Y-3.381
X4.7837Y-3.4365
X4.7837Y-3.492
X4.7837Y-3.5475
X4.7837Y-3.6029
X4.7837Y-3.6584
X4.7837Y-3.7139
X4.7837Y-3.7694
X4.7837Y-3.8249
X4.7837Y-3.8804
X4.7837Y-3.9359
X4.7837Y-3.9914
X4.7837Y-4.1579
X4.7837Y-4.2134
X4.7837Y-4.4909
X4.7837Y-4.5464
X4.7837Y-4.6019
X4.7837Y-4.6574
X4.7837Y-4.7129
X4.7837Y-5.2123
X4.7837Y-5.2678
X4.7837Y-5.3233
X4.7837Y-5.3788
X4.7837Y-5.4343
X4.7837Y-5.4898
X4.79Y-6.03
X4.804Y-6.0654
X4.804Y-6.0952
X4.804Y-5.7463
X4.804Y-5.7773
X4.804Y-5.8082
X4.804Y-5.8392
X4.804Y-5.8701
X4.804Y-5.9011
X4.804Y-5.9321
X4.804Y-5.963
X4.804Y-5.994
X4.804Y-6.126
X4.804Y-6.1559
X4.804Y-6.1857
X4.804Y-6.2155
X4.804Y-6.2453
X4.804Y-6.2751
X4.804Y-6.3049
X4.804Y-6.3347
X4.804Y-6.3645
X4.804Y-6.3943
X4.804Y-6.4241
X4.804Y-6.454
X4.804Y-6.4838
X4.804Y-6.5136
X4.804Y-6.5434
X4.804Y-6.5732
X4.804Y-6.603
X4.806Y-5.7123
X4.8115Y-5.6811
X4.8203Y-5.6507
X4.8324Y-5.6215
X4.833Y-6.0653
X4.8334Y-6.0953
X4.8335Y-5.7773
X4.8335Y-5.8082
X4.8335Y-5.8392
X4.8335Y-5.8701
X4.8335Y-5.9011
X4.8335Y-5.9321
X4.8335Y-5.963
X4.8335Y-5.994
X4.8335Y-6.126
X4.8335Y-6.1559
X4.8335Y-6.1857
X4.8335Y-6.2155
X4.8335Y-6.2453
X4.8335Y-6.2751
X4.8335Y-6.3049
X4.8335Y-6.3347
X4.8335Y-6.3645
X4.8335Y-6.3943
X4.8335Y-6.4241
X4.8335Y-6.454
X4.8335Y-6.4838
X4.8335Y-6.5136
X4.8335Y-6.5434
X4.8335Y-6.5732
X4.8335Y-6.603
X4.8335Y-5.7446
X4.8359Y-5.7114
X4.8392Y-3.3255
X4.8392Y-3.381
X4.8392Y-3.4365
X4.8392Y-3.492
X4.8392Y-3.5475
X4.8392Y-3.6029
X4.8392Y-3.6584
X4.8392Y-3.7139
X4.8392Y-3.7694
X4.8392Y-3.8249
X4.8392Y-3.8804
X4.8392Y-3.9359
X4.8392Y-3.9914
X4.8392Y-4.4909
X4.8392Y-4.5464
X4.8392Y-4.6019
X4.8392Y-4.6574
X4.8392Y-4.7129
X4.8392Y-5.2123
X4.8392Y-5.2678
X4.8392Y-5.3233
X4.8392Y-5.3788
X4.8392Y-5.4343
X4.8425Y-5.6788
X4.8477Y-5.5937
X4.8532Y-5.6472
X4.863Y-5.7773
X4.863Y-5.8082
X4.863Y-5.8392
X4.863Y-5.8701
X4.863Y-5.9011
X4.863Y-5.9321
X4.863Y-5.963
X4.863Y-5.994
X4.863Y-6.126
X4.863Y-6.1559
X4.863Y-6.1857
X4.863Y-6.2155
X4.863Y-6.2453
X4.863Y-6.2751
X4.863Y-6.3049
X4.863Y-6.3347
X4.863Y-6.3645
X4.863Y-6.3943
X4.863Y-6.4241
X4.863Y-6.454
X4.863Y-6.4838
X4.863Y-6.5136
X4.863Y-6.5434
X4.863Y-6.5732
X4.863Y-6.603
X4.863Y-5.7454
X4.8634Y-6.0653
X4.8634Y-6.0952
X4.8659Y-5.5678
X4.8676Y-5.7007
X4.868Y-5.6174
X4.8766Y-5.6686
X4.8864Y-5.5896
X4.8885Y-5.5423
X4.89Y-4.32
X4.8901Y-5.6382
X4.8947Y-3.3255
X4.8947Y-3.381
X4.8947Y-3.4365
X4.8947Y-3.492
X4.8947Y-3.5475
X4.8947Y-3.6029
X4.8947Y-3.6584
X4.8947Y-3.7139
X4.8947Y-3.7694
X4.8947Y-3.8249
X4.8947Y-3.8804
X4.8947Y-3.9359
X4.8947Y-3.9914
X4.8947Y-4.5464
X4.8947Y-4.6019
X4.8947Y-4.6574
X4.8947Y-4.7129
X4.8947Y-5.2123
X4.8947Y-5.2678
X4.8947Y-5.3233
X4.8947Y-5.3788
X4.9079Y-5.6101
X4.9082Y-5.5644
X4.9096Y-5.5212
X4.9296Y-5.5848
X4.9304Y-5.5421
X4.9306Y-5.5002
X4.9418Y-5.7473
X4.9418Y-5.7773
X4.9418Y-5.8082
X4.9418Y-5.8392
X4.9418Y-5.8701
X4.9418Y-5.9011
X4.9418Y-5.9321
X4.9418Y-5.963
X4.9418Y-5.994
X4.9418Y-6.126
X4.9418Y-6.1559
X4.9418Y-6.1857
X4.9418Y-6.2155
X4.9418Y-6.2453
X4.9418Y-6.2751
X4.9418Y-6.3049
X4.9418Y-6.3347
X4.9418Y-6.3645
X4.9418Y-6.3943
X4.9418Y-6.4241
X4.9418Y-6.454
X4.9418Y-6.4838
X4.9418Y-6.5136
X4.9418Y-6.5434
X4.9418Y-6.5732
X4.9418Y-6.603
X4.9422Y-6.0653
X4.9422Y-6.0952
X4.9446Y-5.7174
X4.9502Y-3.5475
X4.9502Y-3.6029
X4.9502Y-3.6584
X4.9502Y-3.7139
X4.9502Y-3.7694
X4.9502Y-3.8249
X4.9502Y-3.8804
X4.9502Y-3.9359
X4.9502Y-3.9914
X4.9502Y-4.6019
X4.9502Y-4.6574
X4.9502Y-4.7129
X4.9502Y-5.2123
X4.9502Y-5.2678
X4.9502Y-5.3233
X4.9513Y-5.563
X4.9515Y-5.521
X4.9517Y-5.4791
X4.9533Y-5.6887
X4.9675Y-5.6622
X4.9713Y-5.7463
X4.9713Y-5.7773
X4.9713Y-5.8082
X4.9713Y-5.8392
X4.9713Y-5.8701
X4.9713Y-5.9011
X4.9713Y-5.9321
X4.9713Y-5.963
X4.9713Y-5.994
X4.9713Y-6.126
X4.9713Y-6.1559
X4.9713Y-6.1857
X4.9713Y-6.2155
X4.9713Y-6.2453
X4.9713Y-6.2751
X4.9713Y-6.3049
X4.9713Y-6.3347
X4.9713Y-6.3645
X4.9713Y-6.3943
X4.9713Y-6.4241
X4.9713Y-6.454
X4.9713Y-6.4838
X4.9713Y-6.5136
X4.9713Y-6.5434
X4.9713Y-6.5732
X4.9713Y-6.603
X4.9718Y-6.0654
X4.9718Y-6.0952
X4.9724Y-5.5419
X4.9726Y-5.5
X4.9728Y-5.458
X4.9753Y-5.7155
X4.9866Y-5.6391
X4.9879Y-5.6853
X4.99Y-4.41
X4.9935Y-5.5208
X4.9937Y-5.4789
X4.9939Y-5.4369
X5.0008Y-6.0653
X5.0008Y-6.0951
X5.0008Y-5.7463
X5.0008Y-5.7773
X5.0008Y-5.8082
X5.0008Y-5.8392
X5.0008Y-5.8701
X5.0008Y-5.9011
X5.0008Y-5.9321
X5.0008Y-5.963
X5.0008Y-5.994
X5.0008Y-6.126
X5.0008Y-6.1559
X5.0008Y-6.1857
X5.0008Y-6.2155
X5.0008Y-6.2453
X5.0008Y-6.2751
X5.0008Y-6.3049
X5.0008Y-6.3347
X5.0008Y-6.3645
X5.0008Y-6.3943
X5.0008Y-6.4241
X5.0008Y-6.454
X5.0008Y-6.4838
X5.0008Y-6.5136
X5.0008Y-6.5434
X5.0008Y-6.5732
X5.0008Y-6.603
X5.0057Y-3.5475
X5.0057Y-3.6029
X5.0057Y-3.6584
X5.0057Y-3.7139
X5.0057Y-3.7694
X5.0057Y-3.8249
X5.0057Y-3.8804
X5.0057Y-3.9359
X5.0057Y-3.9914
X5.0057Y-4.6574
X5.0057Y-4.7129
X5.0057Y-5.2123
X5.0057Y-5.2678
X5.007Y-5.6187
X5.0078Y-5.7113
X5.008Y-5.6594
X5.0146Y-5.4997
X5.0148Y-5.4578
X5.015Y-5.4158
X5.0277Y-5.6815
X5.0279Y-5.6396
X5.0281Y-5.5976
X5.0357Y-5.4787
X5.0359Y-5.4367
X5.0361Y-5.3947
X5.0488Y-5.6604
X5.049Y-5.6185
X5.0492Y-5.5765
X5.0567Y-5.4576
X5.0569Y-5.4156
X5.0571Y-5.3737
X5.0612Y-3.5475
X5.0612Y-3.6029
X5.0612Y-3.6584
X5.0612Y-3.7139
X5.0612Y-3.7694
X5.0612Y-3.8249
X5.0612Y-3.8804
X5.0612Y-3.9359
X5.0612Y-3.9914
X5.0612Y-4.7129
X5.0612Y-5.2123
X5.0698Y-5.6394
X5.07Y-5.5974
X5.0703Y-5.5554
X5.0778Y-5.4365
X5.078Y-5.3945
X5.0782Y-5.3526
X5.0909Y-5.6183
X5.0911Y-5.5763
X5.0913Y-5.5343
X5.0989Y-5.4154
X5.0991Y-5.3735
X5.0993Y-5.3315
X5.112Y-5.5972
X5.1122Y-5.5552
X5.1124Y-5.5133
X5.1167Y-3.5475
X5.1167Y-3.6029
X5.1167Y-3.6584
X5.1167Y-3.7139
X5.1167Y-3.7694
X5.1167Y-3.8249
X5.1167Y-3.8804
X5.1167Y-3.9359
X5.1167Y-3.9914
X5.1167Y-5.7118
X5.1167Y-5.7673
X5.1167Y-6.1003
X5.1167Y-6.1558
X5.1167Y-6.2113
X5.1167Y-6.2668
X5.1167Y-6.3223
X5.1167Y-6.3778
X5.1167Y-6.4332
X5.12Y-5.3943
X5.1202Y-5.3524
X5.1204Y-5.3104
X5.1331Y-5.5761
X5.1333Y-5.5341
X5.1335Y-5.4922
X5.1411Y-5.3733
X5.1413Y-5.3313
X5.1415Y-5.2893
X5.1542Y-5.555
X5.1544Y-5.5131
X5.1546Y-5.4711
X5.155Y-4.485
X5.156Y-3.3485
X5.156Y-3.3797
X5.156Y-3.4108
X5.156Y-3.442
X5.16Y-6.05
X5.1622Y-5.3522
X5.1624Y-5.3102
X5.1626Y-5.2682
X5.1722Y-3.8249
X5.1722Y-3.8804
X5.1722Y-3.9359
X5.1722Y-3.9914
X5.1722Y-5.7118
X5.1722Y-6.1003
X5.1722Y-6.1558
X5.1722Y-6.2113
X5.1722Y-6.2668
X5.1722Y-6.3223
X5.1722Y-6.3778
X5.1722Y-6.4332
X5.1753Y-5.5339
X5.1755Y-5.492
X5.1757Y-5.45
X5.182Y-3.3645
X5.182Y-3.3957
X5.182Y-3.4268
X5.182Y-3.458
X5.1832Y-5.3311
X5.1834Y-5.2891
X5.1836Y-5.2472
X5.1963Y-5.5129
X5.1965Y-5.4709
X5.1967Y-5.4289
X5.2043Y-5.31
X5.2045Y-5.268
X5.2047Y-5.2261
X5.208Y-3.38
X5.208Y-3.4112
X5.208Y-3.4423
X5.208Y-3.4735
X5.208Y-3.5046
X5.208Y-3.5358
X5.208Y-3.5669
X5.208Y-3.5981
X5.208Y-3.6302
X5.2096Y-3.6617
X5.2143Y-3.693
X5.2174Y-5.4918
X5.2176Y-5.4498
X5.2178Y-5.4078
X5.222Y-3.7236
X5.2254Y-5.2889
X5.2256Y-5.247
X5.2277Y-3.9359
X5.2277Y-3.9914
X5.2277Y-5.6563
X5.2277Y-5.7118
X5.2277Y-6.1003
X5.2277Y-6.1558
X5.2277Y-6.2113
X5.2277Y-6.2668
X5.2277Y-6.3223
X5.2277Y-6.3778
X5.2277Y-6.4332
X5.2277Y-6.4887
X5.2277Y-6.5442
X5.2277Y-6.5997
X5.2302Y-5.2035
X5.2327Y-3.7534
X5.2385Y-5.4707
X5.2387Y-5.4287
X5.2389Y-5.3868
X5.2462Y-3.782
X5.2472Y-5.2672
X5.252Y-5.224
X5.2561Y-5.1853
X5.2587Y-6.0489
X5.2596Y-5.4496
X5.2598Y-5.4076
X5.26Y-5.3657
X5.2624Y-3.8091
X5.2727Y-5.2453
X5.2798Y-5.2056
X5.2807Y-5.4285
X5.2809Y-5.3866
X5.2811Y-5.3446
X5.2812Y-3.8345
X5.2832Y-3.9914
X5.2832Y-4.2689
X5.2832Y-4.3244
X5.2832Y-4.3799
X5.2832Y-4.4354
X5.2832Y-5.6008
X5.2832Y-5.6563
X5.2832Y-5.7118
X5.2832Y-6.1003
X5.2832Y-6.1558
X5.2832Y-6.2113
X5.2832Y-6.2668
X5.2832Y-6.3223
X5.2832Y-6.3778
X5.2832Y-6.4332
X5.2832Y-6.4887
X5.2832Y-6.5442
X5.2832Y-6.5997
X5.2839Y-5.17
X5.2867Y-3.6282
X5.2867Y-3.38
X5.2867Y-3.4112
X5.2867Y-3.4423
X5.2867Y-3.4735
X5.2867Y-3.5046
X5.2867Y-3.5358
X5.2867Y-3.5669
X5.2867Y-3.5981
X5.2888Y-3.6606
X5.2951Y-3.6925
X5.3012Y-5.2274
X5.3015Y-5.3242
X5.3018Y-5.4074
X5.302Y-5.3655
X5.3023Y-3.858
X5.3054Y-3.7233
X5.3096Y-5.1908
X5.31Y-4.57
X5.3131Y-5.1579
X5.314Y-3.3625
X5.314Y-3.3937
X5.314Y-3.4248
X5.314Y-3.456
X5.3198Y-3.7523
X5.32Y-4.5
X5.3228Y-5.3864
X5.323Y-5.3444
X5.3246Y-5.3051
X5.3251Y-3.8808
X5.332Y-5.2139
X5.335Y-4.325
X5.3379Y-3.7793
X5.3387Y-4.2689
X5.3387Y-5.5453
X5.3387Y-5.6008
X5.3387Y-5.6563
X5.3387Y-5.7118
X5.3387Y-6.1003
X5.3387Y-6.1558
X5.3387Y-6.2113
X5.3387Y-6.2668
X5.3387Y-6.3223
X5.3387Y-6.3778
X5.3387Y-6.4332
X5.3387Y-6.4887
X5.3387Y-6.5442
X5.3387Y-6.5997
X5.34Y-3.3465
X5.34Y-3.3777
X5.34Y-3.4088
X5.34Y-3.44
X5.3412Y-5.1801
X5.3435Y-5.1491
X5.3439Y-5.3653
X5.3473Y-3.903
X5.3477Y-5.3255
X5.3511Y-5.2909
X5.3577Y-6.0485
X5.3594Y-3.8037
X5.3644Y-5.205
X5.365Y-4.555
X5.3694Y-3.9251
X5.37Y-4.91
X5.3737Y-5.3454
X5.3738Y-5.1735
X5.3747Y-5.1436
X5.3779Y-5.3129
X5.3798Y-5.2822
X5.3808Y-3.8251
X5.39Y-4.5141
X5.3915Y-3.9472
X5.3942Y-3.5475
X5.3942Y-3.6029
X5.3942Y-3.6584
X5.3942Y-4.1579
X5.3942Y-4.2134
X5.3942Y-4.2689
X5.3942Y-5.4343
X5.3942Y-5.4898
X5.3942Y-5.5453
X5.3942Y-5.6008
X5.3942Y-5.6563
X5.3942Y-5.7118
X5.3942Y-6.1003
X5.3942Y-6.1558
X5.3942Y-6.2113
X5.3942Y-6.2668
X5.3942Y-6.3223
X5.3942Y-6.3778
X5.3942Y-6.4332
X5.3942Y-6.4887
X5.3942Y-6.5442
X5.3942Y-6.5997
X5.395Y-4.325
X5.3978Y-5.2009
X5.403Y-3.8473
X5.4063Y-5.1416
X5.407Y-5.1711
X5.4097Y-5.2794
X5.4104Y-5.3089
X5.4112Y-5.3384
X5.4137Y-3.9694
X5.4251Y-3.8694
X5.4358Y-3.9915
X5.4394Y-5.1416
X5.4394Y-5.1711
X5.4394Y-5.2006
X5.4394Y-5.2794
X5.4394Y-5.3089
X5.4394Y-5.3384
X5.4472Y-3.8915
X5.4497Y-3.5475
X5.4497Y-3.6029
X5.4497Y-3.6584
X5.4497Y-3.7139
X5.4497Y-3.7694
X5.4497Y-4.1579
X5.4497Y-4.2134
X5.4497Y-5.4343
X5.4497Y-5.4898
X5.4497Y-5.5453
X5.4497Y-5.6008
X5.4497Y-5.6563
X5.4497Y-5.7118
X5.4497Y-6.1003
X5.4497Y-6.1558
X5.4497Y-6.2113
X5.4497Y-6.2668
X5.4497Y-6.3223
X5.4497Y-6.3778
X5.4497Y-6.4332
X5.4569Y-6.0471
X5.458Y-4.0136
X5.4677Y-5.1416
X5.4685Y-5.1711
X5.4692Y-5.2006
X5.4694Y-3.9137
X5.4711Y-5.2794
X5.4718Y-5.3089
X5.4726Y-5.3384
X5.4801Y-4.0358
X5.4915Y-3.9358
X5.4991Y-5.1978
X5.5Y-4.052
X5.501Y-5.1671
X5.5042Y-5.3364
X5.5052Y-3.5475
X5.5052Y-3.6029
X5.5052Y-3.6584
X5.5052Y-3.7139
X5.5052Y-3.7694
X5.5052Y-5.4343
X5.5052Y-6.1003
X5.5052Y-6.1558
X5.5052Y-6.2113
X5.5052Y-6.2668
X5.5052Y-6.3223
X5.5052Y-6.3778
X5.5052Y-6.4332
X5.5052Y-5.1346
X5.5088Y-5.306
X5.5136Y-3.958
X5.5144Y-5.2751
X5.5148Y-4.9052
X5.5278Y-5.1891
X5.5312Y-5.1545
X5.5353Y-5.3309
X5.5358Y-3.9801
X5.5373Y-4.8827
X5.545Y-5.2978
X5.5469Y-5.2662
X5.5543Y-5.1749
X5.5571Y-5.1344
X5.5579Y-4.0022
X5.5598Y-4.8601
X5.5606Y-3.5475
X5.5606Y-3.6029
X5.5606Y-3.6584
X5.5606Y-3.7139
X5.5606Y-3.7694
X5.5606Y-3.8249
X5.5606Y-3.8804
X5.5606Y-6.1003
X5.5606Y-6.1558
X5.5606Y-6.2113
X5.5606Y-6.2668
X5.5606Y-6.3223
X5.5606Y-6.3778
X5.5606Y-6.4332
X5.565Y-5.55
X5.565Y-5.675
X5.565Y-5.71
X5.5658Y-5.3221
X5.568Y-4.1236
X5.57Y-5.515
X5.57Y-5.585
X5.57Y-5.74
X5.5745Y-5.2869
X5.575Y-5.645
X5.5774Y-5.1558
X5.5777Y-5.2526
X5.58Y-4.9919
X5.58Y-5.03
X5.58Y-5.615
X5.58Y-5.77
X5.58Y-4.0244
X5.585Y-5.48
X5.5894Y-4.148
X5.59Y-4.85
X5.595Y-5.56
X5.595Y-5.695
X5.595Y-5.8
X5.595Y-5.31
X5.5992Y-5.134
X5.6Y-5.525
X5.6Y-5.595
X5.6Y-5.665
X5.6Y-5.735
X5.6022Y-4.0465
X5.6024Y-5.2726
X5.6061Y-5.2347
X5.6075Y-4.175
X5.61Y-5.455
X5.615Y-5.49
X5.615Y-5.635
X5.615Y-5.77
X5.6161Y-3.3255
X5.6161Y-3.381
X5.6161Y-3.4365
X5.6161Y-3.492
X5.6161Y-3.5475
X5.6161Y-3.6029
X5.6161Y-3.6584
X5.6161Y-3.7139
X5.6161Y-3.7694
X5.6161Y-3.8249
X5.6161Y-3.8804
X5.62Y-5.825
X5.6219Y-4.2041
X5.622Y-5.568
X5.622Y-5.714
X5.6227Y-5.2947
X5.624Y-5.686
X5.625Y-5.54
X5.6284Y-5.2549
X5.63Y-5.602
X5.6314Y-6.0631
X5.6314Y-6.0969
X5.6314Y-6.129
X5.6314Y-6.1586
X5.6314Y-6.1883
X5.6314Y-6.2179
X5.6314Y-6.2475
X5.6314Y-6.2771
X5.6314Y-6.3068
X5.6314Y-6.3364
X5.6314Y-6.366
X5.6314Y-6.3956
X5.6314Y-6.4253
X5.6314Y-6.4549
X5.6314Y-6.4845
X5.6314Y-6.5141
X5.6314Y-6.5438
X5.6314Y-6.5734
X5.6314Y-6.603
X5.6317Y-5.2128
X5.6317Y-5.3257
X5.6317Y-5.3564
X5.6317Y-5.3872
X5.6317Y-5.4179
X5.6317Y-5.8539
X5.6317Y-5.8896
X5.6317Y-5.9253
X5.6317Y-5.9611
X5.6317Y-5.9968
X5.632Y-5.748
X5.6323Y-4.2348
X5.635Y-5.44
X5.635Y-5.795
X5.6385Y-4.2667
X5.64Y-5.07
X5.64Y-5.51
X5.64Y-5.658
X5.6406Y-4.3377
X5.6406Y-4.5623
X5.6406Y-4.5939
X5.6406Y-4.6254
X5.6406Y-4.6569
X5.6406Y-4.6885
X5.6406Y-4.2991
X5.645Y-5.47
X5.648Y-4.72
X5.6486Y-5.2765
X5.6521Y-5.2342
X5.654Y-5.772
X5.6546Y-5.1899
X5.655Y-5.82
X5.656Y-5.628
X5.66Y-4.1182
X5.66Y-5.325
X5.66Y-5.355
X5.66Y-5.385
X5.66Y-5.42
X5.6609Y-6.0631
X5.6609Y-6.0969
X5.6609Y-6.129
X5.6609Y-6.1586
X5.6609Y-6.1883
X5.6609Y-6.2179
X5.6609Y-6.2475
X5.6609Y-6.2771
X5.6609Y-6.3068
X5.6609Y-6.3364
X5.6609Y-6.366
X5.6609Y-6.3956
X5.6609Y-6.4253
X5.6609Y-6.4549
X5.6609Y-6.4845
X5.6609Y-6.5141
X5.6609Y-6.5438
X5.6609Y-6.5734
X5.6609Y-6.603
X5.6613Y-5.8539
X5.6613Y-5.8896
X5.6613Y-5.9253
X5.6613Y-5.9611
X5.6613Y-5.9968
X5.67Y-5.495
X5.6716Y-3.3255
X5.6716Y-3.381
X5.6716Y-3.4365
X5.6716Y-3.492
X5.6716Y-3.5475
X5.6716Y-3.6029
X5.6716Y-3.6584
X5.6716Y-3.7139
X5.6716Y-3.7694
X5.6716Y-3.8249
X5.6716Y-3.8804
X5.6716Y-3.9359
X5.6716Y-3.9914
X5.675Y-5.455
X5.6768Y-5.1677
X5.68Y-4.79
X5.6812Y-4.1453
X5.684Y-5.785
X5.688Y-5.71
X5.69Y-5.636
X5.6905Y-6.129
X5.6905Y-6.1586
X5.6905Y-6.1883
X5.6905Y-6.2179
X5.6905Y-6.2475
X5.6905Y-6.2771
X5.6905Y-6.3068
X5.6905Y-6.3364
X5.6905Y-6.366
X5.6905Y-6.3956
X5.6905Y-6.4253
X5.6905Y-6.4549
X5.6905Y-6.4845
X5.6905Y-6.5141
X5.6905Y-6.5438
X5.6905Y-6.5734
X5.6905Y-6.603
X5.6908Y-5.2028
X5.6908Y-5.2335
X5.6908Y-5.2642
X5.6908Y-5.295
X5.6908Y-5.3257
X5.6908Y-5.3564
X5.6908Y-5.3872
X5.6908Y-5.4179
X5.6908Y-5.8539
X5.6908Y-5.8896
X5.6908Y-5.9253
X5.6908Y-5.9611
X5.6908Y-5.9968
X5.691Y-6.0655
X5.691Y-6.0951
X5.692Y-5.816
X5.6947Y-4.1739
X5.699Y-5.1455
X5.702Y-5.49
X5.705Y-5.45
X5.7053Y-4.2037
X5.706Y-5.56
X5.713Y-4.2343
X5.7177Y-4.2656
X5.7187Y-4.4972
X5.7187Y-4.5287
X5.7194Y-4.2971
X5.7194Y-4.3377
X5.7194Y-4.5623
X5.7194Y-4.5939
X5.7194Y-4.6254
X5.7194Y-4.6569
X5.7194Y-4.6885
X5.7194Y-4.72
X5.722Y-5.636
X5.722Y-5.71
X5.7271Y-3.3255
X5.7271Y-3.381
X5.7271Y-3.4365
X5.7271Y-3.492
X5.7271Y-3.5475
X5.7271Y-3.6029
X5.7271Y-3.6584
X5.7271Y-3.7139
X5.7271Y-3.7694
X5.7271Y-3.8249
X5.7271Y-3.8804
X5.7271Y-3.9359
X5.7271Y-3.9914
X5.73Y-5.474
X5.736Y-5.56
X5.744Y-5.736
X5.754Y-5.636
X5.754Y-5.704
X5.758Y-5.762
X5.7598Y-4.4969
X5.7598Y-4.5284
X5.7605Y-4.3377
X5.7606Y-4.3071
X5.7606Y-4.5623
X5.7606Y-4.5939
X5.7606Y-4.6254
X5.7606Y-4.6569
X5.7606Y-4.6885
X5.7606Y-4.72
X5.762Y-5.172
X5.762Y-5.792
X5.7622Y-4.2756
X5.766Y-5.56
X5.7669Y-4.2443
X5.768Y-5.484
X5.7692Y-6.129
X5.7692Y-6.1586
X5.7692Y-6.1883
X5.7692Y-6.2179
X5.7692Y-6.2475
X5.7692Y-6.2771
X5.7692Y-6.3068
X5.7692Y-6.3364
X5.7692Y-6.366
X5.7692Y-6.3956
X5.7692Y-6.4253
X5.7692Y-6.4549
X5.7692Y-6.4845
X5.7692Y-6.5141
X5.7692Y-6.5438
X5.7692Y-6.5734
X5.7692Y-6.603
X5.7695Y-5.2028
X5.7695Y-5.2335
X5.7695Y-5.2642
X5.7695Y-5.295
X5.7695Y-5.3257
X5.7695Y-5.3564
X5.7695Y-5.3872
X5.7695Y-5.4179
X5.7695Y-5.8539
X5.7695Y-5.8896
X5.7695Y-5.9253
X5.7695Y-5.9611
X5.7695Y-5.9968
X5.7697Y-6.0655
X5.7697Y-6.0951
X5.77Y-5.822
X5.775Y-5.73
X5.7826Y-3.3255
X5.7826Y-3.381
X5.7826Y-3.4365
X5.7826Y-3.492
X5.7826Y-3.5475
X5.7826Y-3.6029
X5.7826Y-3.6584
X5.7826Y-3.7139
X5.7826Y-3.7694
X5.7826Y-3.8249
X5.7826Y-3.8804
X5.7826Y-3.9359
X5.7826Y-3.9914
X5.784Y-5.702
X5.79Y-5.755
X5.795Y-5.785
X5.796Y-5.55
X5.7987Y-6.0631
X5.7987Y-6.0969
X5.7987Y-6.129
X5.7987Y-6.1586
X5.7987Y-6.1883
X5.7987Y-6.2179
X5.7987Y-6.2475
X5.7987Y-6.2771
X5.7987Y-6.3068
X5.7987Y-6.3364
X5.7987Y-6.366
X5.7987Y-6.3956
X5.7987Y-6.4253
X5.7987Y-6.4549
X5.7987Y-6.4845
X5.7987Y-6.5141
X5.7987Y-6.5438
X5.7987Y-6.5734
X5.7987Y-6.603
X5.7987Y-4.1553
X5.7991Y-5.8539
X5.7991Y-5.8896
X5.7991Y-5.9253
X5.7991Y-5.9611
X5.7991Y-5.9968
X5.8Y-5.422
X5.8Y-5.82
X5.8006Y-5.2163
X5.802Y-5.2594
X5.8024Y-5.3875
X5.8034Y-5.3026
X5.804Y-5.3491
X5.81Y-5.725
X5.8118Y-5.1161
X5.812Y-5.578
X5.812Y-5.692
X5.815Y-4.1282
X5.8229Y-5.2386
X5.824Y-5.532
X5.8243Y-5.2817
X5.825Y-5.785
X5.8257Y-5.3249
X5.826Y-5.44
X5.8283Y-6.0631
X5.8283Y-6.0969
X5.8283Y-6.129
X5.8283Y-6.1586
X5.8283Y-6.1883
X5.8283Y-6.2179
X5.8283Y-6.2475
X5.8283Y-6.2771
X5.8283Y-6.3068
X5.8283Y-6.3364
X5.8283Y-6.366
X5.8283Y-6.3956
X5.8283Y-6.4253
X5.8283Y-6.4549
X5.8283Y-6.4845
X5.8283Y-6.5141
X5.8283Y-6.5438
X5.8283Y-6.5734
X5.8283Y-6.603
X5.8286Y-5.8539
X5.8286Y-5.8896
X5.8286Y-5.9253
X5.8286Y-5.9611
X5.8286Y-5.9968
X5.83Y-5.75
X5.83Y-5.82
X5.8311Y-4.7919
X5.832Y-5.604
X5.832Y-5.668
X5.8337Y-4.1028
X5.834Y-5.1383
X5.838Y-5.47
X5.838Y-5.502
X5.838Y-5.636
X5.8381Y-3.3255
X5.8381Y-3.381
X5.8381Y-3.4365
X5.8381Y-3.492
X5.8381Y-3.5475
X5.8381Y-3.6029
X5.8381Y-3.6584
X5.8381Y-3.7139
X5.8381Y-3.7694
X5.8381Y-3.8249
X5.8381Y-3.8804
X5.8381Y-3.9359
X5.8393Y-4.3091
X5.8393Y-4.3377
X5.8394Y-4.5623
X5.8394Y-4.5939
X5.8394Y-4.6254
X5.8394Y-4.6569
X5.84Y-5.705
X5.8451Y-5.2608
X5.8465Y-5.304
X5.8479Y-5.3471
X5.85Y-5.415
X5.85Y-5.57
X5.8549Y-4.0793
X5.8563Y-5.1606
X5.858Y-4.2141
X5.86Y-5.535
X5.86Y-5.73
X5.865Y-5.455
X5.865Y-5.61
X5.865Y-5.675
X5.8674Y-5.2831
X5.8688Y-5.3262
X5.87Y-5.495
X5.87Y-5.645
X5.8702Y-5.3694
X5.8724Y-4.185
X5.8774Y-4.0569
X5.8786Y-5.1829
X5.885Y-5.705
X5.8897Y-5.3054
X5.89Y-4.9081
X5.89Y-4.94
X5.89Y-5.43
X5.89Y-5.56
X5.89Y-5.595
X5.8905Y-4.158
X5.8911Y-5.3485
X5.8923Y-5.5244
X5.8925Y-5.3917
X5.8936Y-3.3255
X5.8936Y-3.381
X5.8936Y-3.4365
X5.8936Y-3.492
X5.8936Y-3.5475
X5.8936Y-3.6029
X5.8936Y-3.6584
X5.8936Y-3.7139
X5.8936Y-3.7694
X5.8936Y-3.8249
X5.8936Y-3.8804
X5.895Y-5.475
X5.8991Y-4.0351
X5.9Y-4.435
X5.9Y-4.485
X5.9Y-4.535
X5.9Y-4.59
X5.9Y-5.0
X5.9Y-5.625
X5.9Y-5.665
X5.9008Y-5.2051
X5.9119Y-4.1336
X5.9119Y-5.3276
X5.9133Y-5.3708
X5.9147Y-5.4139
X5.9209Y-4.0133
X5.9231Y-5.2274
X5.933Y-4.1126
X5.9342Y-5.3499
X5.9351Y-5.16
X5.9356Y-5.393
X5.94Y-4.64
X5.94Y-4.95
X5.94Y-5.07
X5.9402Y-5.4365
X5.9427Y-3.9916
X5.944Y-5.2065
X5.9454Y-5.2497
X5.9491Y-3.5475
X5.9491Y-3.6029
X5.9491Y-3.6584
X5.9491Y-3.7139
X5.9491Y-3.7694
X5.9491Y-3.8249
X5.9491Y-4.2689
X5.9491Y-5.8228
X5.9491Y-5.8783
X5.9491Y-5.9338
X5.9491Y-5.9893
X5.9491Y-6.0448
X5.9491Y-6.1003
X5.9491Y-6.1558
X5.9491Y-6.2113
X5.9491Y-6.2668
X5.9491Y-6.3223
X5.9491Y-6.3778
X5.9491Y-6.4332
X5.95Y-4.86
X5.9548Y-4.0908
X5.9572Y-5.3728
X5.96Y-4.38
X5.962Y-5.416
X5.9644Y-3.9698
X5.9661Y-5.4547
X5.9662Y-5.2288
X5.9676Y-5.2719
X5.9766Y-4.069
X5.9796Y-5.3923
X5.9862Y-3.948
X5.9871Y-5.2079
X5.9885Y-5.2511
X5.9898Y-5.4344
X5.9899Y-5.2942
X5.9939Y-5.47
X5.9983Y-4.0473
X6.0043Y-5.4087
X6.0046Y-3.5475
X6.0046Y-3.6029
X6.0046Y-3.6584
X6.0046Y-3.7139
X6.0046Y-3.7694
X6.0046Y-4.2134
X6.0046Y-4.2689
X6.0046Y-5.6008
X6.0046Y-5.6563
X6.0046Y-5.7118
X6.0046Y-5.7673
X6.0046Y-5.8228
X6.0046Y-5.8783
X6.0046Y-5.9338
X6.0046Y-5.9893
X6.0046Y-6.0448
X6.0046Y-6.1003
X6.0046Y-6.1558
X6.0046Y-6.2113
X6.0046Y-6.2668
X6.0046Y-6.3223
X6.0046Y-6.3778
X6.0046Y-6.4332
X6.008Y-3.9263
X6.0094Y-5.2302
X6.01Y-4.635
X6.0108Y-5.2733
X6.0122Y-5.3165
X6.0196Y-5.4492
X6.0201Y-4.0255
X6.0231Y-5.4821
X6.0297Y-3.9045
X6.0309Y-5.4219
X6.0317Y-5.2525
X6.033Y-5.2956
X6.0346Y-5.3349
X6.035Y-4.66
X6.04Y-4.61
X6.0419Y-4.0037
X6.0512Y-5.4599
X6.0515Y-3.8827
X6.0535Y-5.4909
X6.0539Y-5.2747
X6.0577Y-5.3145
X6.0591Y-5.4314
X6.06Y-4.64
X6.06Y-4.79
X6.0601Y-3.5475
X6.0601Y-3.6029
X6.0601Y-3.6584
X6.0601Y-3.7139
X6.0601Y-4.1579
X6.0601Y-4.2134
X6.0601Y-4.2689
X6.0601Y-4.3244
X6.0601Y-4.3799
X6.0601Y-4.4354
X6.0601Y-5.6008
X6.0601Y-5.6563
X6.0601Y-5.7118
X6.0601Y-5.7673
X6.0601Y-5.8228
X6.0601Y-5.8783
X6.0601Y-5.9338
X6.0601Y-5.9893
X6.0601Y-6.0448
X6.0601Y-6.1003
X6.0601Y-6.1558
X6.0601Y-6.2113
X6.0601Y-6.2668
X6.0601Y-6.3223
X6.0601Y-6.3778
X6.0601Y-6.4332
X6.0601Y-6.4887
X6.0601Y-6.5442
X6.0601Y-6.5997
X6.0611Y-5.3491
X6.0636Y-3.982
X6.0733Y-3.861
X6.0837Y-5.2946
X6.0838Y-5.4665
X6.0847Y-5.4964
X6.0854Y-3.9602
X6.0879Y-5.3271
X6.0882Y-5.4373
X6.0898Y-5.3578
X6.095Y-4.63
X6.095Y-4.755
X6.095Y-3.8392
X6.1072Y-3.9384
X6.1156Y-3.5475
X6.1156Y-4.1024
X6.1156Y-4.1579
X6.1156Y-4.2134
X6.1156Y-4.2689
X6.1156Y-4.3244
X6.1156Y-4.3799
X6.1156Y-4.4354
X6.1156Y-4.4909
X6.1156Y-5.6008
X6.1156Y-5.6563
X6.1156Y-5.7118
X6.1156Y-5.7673
X6.1156Y-5.8228
X6.1156Y-5.8783
X6.1156Y-5.9338
X6.1156Y-5.9893
X6.1156Y-6.0448
X6.1156Y-6.1003
X6.1156Y-6.1558
X6.1156Y-6.2113
X6.1156Y-6.2668
X6.1156Y-6.3223
X6.1156Y-6.3778
X6.1156Y-6.4332
X6.1156Y-6.4887
X6.1156Y-6.5442
X6.1156Y-6.5997
X6.1168Y-3.8174
X6.1178Y-5.4394
X6.1187Y-5.3016
X6.1187Y-5.3311
X6.1187Y-5.3606
X6.1187Y-5.4689
X6.1187Y-5.4984
X6.1289Y-3.9167
X6.135Y-4.73
X6.1379Y-3.7964
X6.15Y-4.865
X6.15Y-5.12
X6.1503Y-5.3016
X6.1503Y-5.3311
X6.1503Y-5.3606
X6.1503Y-5.4394
X6.1503Y-5.4689
X6.1503Y-5.4984
X6.1507Y-3.8949
X6.154Y-3.3485
X6.154Y-3.3797
X6.154Y-3.4108
X6.154Y-3.442
X6.1593Y-3.772
X6.1711Y-4.0469
X6.1711Y-4.1024
X6.1711Y-4.1579
X6.1711Y-4.2134
X6.1711Y-4.2689
X6.1711Y-4.3244
X6.1711Y-4.3799
X6.1711Y-4.4354
X6.1711Y-4.4909
X6.1711Y-5.6008
X6.1711Y-5.6563
X6.1711Y-5.7118
X6.1711Y-5.7673
X6.1711Y-5.8228
X6.1711Y-5.8783
X6.1711Y-5.9338
X6.1711Y-5.9893
X6.1711Y-6.0448
X6.1711Y-6.1003
X6.1711Y-6.1558
X6.1711Y-6.2113
X6.1711Y-6.2668
X6.1711Y-6.3223
X6.1711Y-6.3778
X6.1711Y-6.4332
X6.1711Y-6.4887
X6.1711Y-6.5442
X6.1711Y-6.5997
X6.1725Y-3.8731
X6.1774Y-3.745
X6.18Y-4.895
X6.1818Y-5.3016
X6.1818Y-5.3311
X6.1818Y-5.3606
X6.1818Y-5.4394
X6.1818Y-5.4689
X6.1818Y-5.4984
X6.182Y-3.3645
X6.182Y-3.3957
X6.182Y-3.4268
X6.182Y-3.458
X6.185Y-4.83
X6.19Y-4.72
X6.19Y-5.12
X6.1918Y-3.7159
X6.1949Y-3.8507
X6.2022Y-3.6852
X6.2084Y-3.6533
X6.2105Y-3.3811
X6.2105Y-3.4112
X6.2105Y-3.4413
X6.2105Y-3.4714
X6.2105Y-3.5015
X6.2105Y-3.5316
X6.2105Y-3.5617
X6.2105Y-3.5918
X6.2105Y-3.6219
X6.2133Y-5.3016
X6.2133Y-5.3311
X6.2133Y-5.3606
X6.2133Y-5.4394
X6.2133Y-5.4689
X6.2133Y-5.4984
X6.215Y-4.81
X6.215Y-4.86
X6.2161Y-3.8272
X6.225Y-4.97
X6.2266Y-3.9914
X6.2266Y-4.0469
X6.2266Y-4.1024
X6.2266Y-4.1579
X6.2266Y-4.2134
X6.2266Y-4.2689
X6.2266Y-4.3244
X6.2266Y-4.3799
X6.2266Y-4.4354
X6.2266Y-4.4909
X6.2266Y-5.6008
X6.2266Y-5.6563
X6.2266Y-5.7118
X6.2266Y-5.7673
X6.2266Y-5.8228
X6.2266Y-5.8783
X6.2266Y-5.9338
X6.2266Y-5.9893
X6.2266Y-6.0448
X6.2266Y-6.1003
X6.2266Y-6.1558
X6.2266Y-6.2113
X6.2266Y-6.2668
X6.2266Y-6.3223
X6.2266Y-6.3778
X6.2266Y-6.4332
X6.2266Y-6.4887
X6.2266Y-6.5442
X6.2266Y-6.5997
X6.23Y-5.12
X6.2349Y-3.8018
X6.24Y-4.72
X6.2449Y-5.3016
X6.2449Y-5.3311
X6.2449Y-5.3606
X6.2449Y-5.4394
X6.2449Y-5.4689
X6.2449Y-5.4984
X6.25Y-4.615
X6.25Y-4.835
X6.2511Y-3.7747
X6.2646Y-3.7461
X6.265Y-4.93
X6.27Y-4.97
X6.27Y-5.12
X6.2752Y-3.7163
X6.2764Y-5.3016
X6.2764Y-5.3311
X6.2764Y-5.3606
X6.2764Y-5.4394
X6.2764Y-5.4689
X6.2764Y-5.4984
X6.2821Y-3.9359
X6.2821Y-3.9914
X6.2821Y-4.0469
X6.2821Y-4.1024
X6.2821Y-4.1579
X6.2821Y-4.2134
X6.2821Y-4.2689
X6.2821Y-4.3244
X6.2821Y-4.3799
X6.2821Y-4.4354
X6.2821Y-4.4909
X6.2821Y-5.6008
X6.2821Y-5.6563
X6.2821Y-5.7118
X6.2821Y-5.7673
X6.2821Y-5.8228
X6.2821Y-5.8783
X6.2821Y-5.9338
X6.2821Y-5.9893
X6.2821Y-6.0448
X6.2821Y-6.1003
X6.2821Y-6.1558
X6.2821Y-6.2113
X6.2821Y-6.2668
X6.2821Y-6.3223
X6.2821Y-6.3778
X6.2821Y-6.4332
X6.2821Y-6.4887
X6.2821Y-6.5442
X6.2821Y-6.5997
X6.2829Y-3.6857
X6.285Y-4.72
X6.2876Y-3.6544
X6.2893Y-3.6229
X6.2893Y-3.3811
X6.2893Y-3.4112
X6.2893Y-3.4413
X6.2893Y-3.4714
X6.2893Y-3.5015
X6.2893Y-3.5316
X6.2893Y-3.5617
X6.2893Y-3.5918
X6.29Y-4.82
X6.3Y-4.615
X6.3Y-4.945
X6.305Y-4.91
X6.3079Y-5.3016
X6.3079Y-5.3311
X6.3079Y-5.3606
X6.3079Y-5.4394
X6.3079Y-5.4689
X6.3079Y-5.4984
X6.31Y-5.12
X6.318Y-3.3625
X6.318Y-3.3937
X6.318Y-3.4248
X6.318Y-3.456
X6.33Y-4.72
X6.335Y-4.82
X6.3376Y-3.8249
X6.3376Y-3.8804
X6.3376Y-3.9359
X6.3376Y-3.9914
X6.3376Y-4.0469
X6.3376Y-4.1024
X6.3376Y-4.1579
X6.3376Y-4.2134
X6.3376Y-4.2689
X6.3376Y-4.3244
X6.3376Y-4.3799
X6.3376Y-4.4354
X6.3376Y-4.4909
X6.3376Y-5.6008
X6.3376Y-5.6563
X6.3376Y-5.7118
X6.3376Y-5.7673
X6.3376Y-5.8228
X6.3376Y-5.8783
X6.3376Y-5.9338
X6.3376Y-5.9893
X6.3376Y-6.0448
X6.3376Y-6.1003
X6.3376Y-6.1558
X6.3376Y-6.2113
X6.3376Y-6.2668
X6.3376Y-6.3223
X6.3376Y-6.3778
X6.3376Y-6.4332
X6.3376Y-6.4887
X6.3376Y-6.5442
X6.3376Y-6.5997
X6.3395Y-5.3016
X6.3395Y-5.3311
X6.3395Y-5.3606
X6.3395Y-5.4394
X6.3395Y-5.4689
X6.3395Y-5.4984
X6.345Y-4.92
X6.345Y-5.02
X6.346Y-3.3485
X6.346Y-3.3797
X6.346Y-3.4108
X6.346Y-3.442
X6.35Y-4.615
X6.35Y-5.12
X6.371Y-5.3016
X6.371Y-5.3311
X6.371Y-5.3606
X6.371Y-5.4394
X6.371Y-5.4689
X6.371Y-5.4984
X6.375Y-4.82
X6.38Y-4.92
X6.38Y-5.02
X6.3931Y-3.5475
X6.3931Y-3.6029
X6.3931Y-3.6584
X6.3931Y-3.7139
X6.3931Y-3.7694
X6.3931Y-3.8249
X6.3931Y-3.8804
X6.3931Y-3.9359
X6.3931Y-3.9914
X6.3931Y-4.0469
X6.3931Y-4.1024
X6.3931Y-4.1579
X6.3931Y-4.2134
X6.3931Y-4.2689
X6.3931Y-4.3244
X6.3931Y-4.3799
X6.3931Y-4.4354
X6.3931Y-4.4909
X6.3931Y-5.6008
X6.3931Y-5.6563
X6.3931Y-5.7118
X6.3931Y-5.7673
X6.3931Y-5.8228
X6.3931Y-5.8783
X6.3931Y-5.9338
X6.3931Y-5.9893
X6.3931Y-6.0448
X6.3931Y-6.1003
X6.3931Y-6.1558
X6.3931Y-6.2113
X6.3931Y-6.2668
X6.3931Y-6.3223
X6.3931Y-6.3778
X6.3931Y-6.4332
X6.3931Y-6.4887
X6.3931Y-6.5442
X6.3931Y-6.5997
X6.4031Y-5.3016
X6.4031Y-5.3311
X6.4031Y-5.3606
X6.4042Y-5.5126
X6.4327Y-5.3016
X6.4327Y-5.3311
X6.4327Y-5.3606
X6.4327Y-5.4394
X6.4327Y-5.4689
X6.4327Y-5.4984
X6.4486Y-3.5475
X6.4486Y-3.6029
X6.4486Y-3.6584
X6.4486Y-3.7139
X6.4486Y-3.7694
X6.4486Y-3.8249
X6.4486Y-3.8804
X6.4486Y-3.9359
X6.4486Y-3.9914
X6.4486Y-4.0469
X6.4486Y-4.1024
X6.4486Y-4.1579
X6.4486Y-4.2134
X6.4486Y-4.2689
X6.4486Y-4.3244
X6.4486Y-4.3799
X6.4486Y-4.4354
X6.4486Y-4.4909
X6.4486Y-5.6008
X6.4486Y-5.6563
X6.4486Y-5.7118
X6.4486Y-5.7673
X6.4486Y-5.8228
X6.4486Y-5.8783
X6.4486Y-5.9338
X6.4486Y-5.9893
X6.4486Y-6.0448
X6.4486Y-6.1003
X6.4486Y-6.1558
X6.4486Y-6.2113
X6.4486Y-6.2668
X6.4486Y-6.3223
X6.4486Y-6.3778
X6.4486Y-6.4332
X6.4486Y-6.4887
X6.4486Y-6.5442
X6.4486Y-6.5997
X6.4623Y-5.3016
X6.4623Y-5.3311
X6.4623Y-5.3606
X6.4623Y-5.4394
X6.4623Y-5.4689
X6.4623Y-5.4984
X6.492Y-5.3016
X6.492Y-5.3311
X6.492Y-5.3606
X6.492Y-5.4394
X6.492Y-5.4689
X6.492Y-5.4984
X6.5041Y-3.5475
X6.5041Y-3.6029
X6.5041Y-3.6584
X6.5041Y-3.7139
X6.5041Y-3.7694
X6.5041Y-3.8249
X6.5041Y-3.8804
X6.5041Y-3.9359
X6.5041Y-3.9914
X6.5041Y-4.0469
X6.5041Y-4.1024
X6.5041Y-4.1579
X6.5041Y-4.2134
X6.5041Y-4.2689
X6.5041Y-4.3244
X6.5041Y-4.3799
X6.5041Y-4.4354
X6.5041Y-4.4909
X6.5041Y-5.6008
X6.5041Y-5.6563
X6.5041Y-5.7118
X6.5041Y-5.7673
X6.5041Y-5.8228
X6.5041Y-5.8783
X6.5041Y-5.9338
X6.5041Y-5.9893
X6.5041Y-6.0448
X6.5041Y-6.1003
X6.5041Y-6.1558
X6.5041Y-6.2113
X6.5041Y-6.2668
X6.5041Y-6.3223
X6.5041Y-6.3778
X6.5041Y-6.4332
X6.5041Y-6.4887
X6.5041Y-6.5442
X6.5041Y-6.5997
X6.5216Y-5.3016
X6.5216Y-5.3311
X6.5216Y-5.3606
X6.5216Y-5.4394
X6.5216Y-5.4689
X6.5216Y-5.4984
X6.5512Y-5.3016
X6.5512Y-5.3311
X6.5512Y-5.3606
X6.5512Y-5.4394
X6.5512Y-5.4689
X6.5512Y-5.4984
X6.5596Y-3.5475
X6.5596Y-3.6029
X6.5596Y-3.6584
X6.5596Y-3.7139
X6.5596Y-3.7694
X6.5596Y-3.8249
X6.5596Y-3.8804
X6.5596Y-3.9359
X6.5596Y-3.9914
X6.5596Y-4.0469
X6.5596Y-4.1024
X6.5596Y-4.1579
X6.5596Y-4.2134
X6.5596Y-4.2689
X6.5596Y-4.3244
X6.5596Y-4.3799
X6.5596Y-4.4354
X6.5596Y-4.4909
X6.5596Y-4.5464
X6.5596Y-4.6019
X6.5596Y-4.6574
X6.5596Y-4.7129
X6.5596Y-4.7684
X6.5596Y-4.8239
X6.5596Y-4.8794
X6.5596Y-4.9349
X6.5596Y-4.9904
X6.5596Y-5.0458
X6.5596Y-5.1013
X6.5596Y-5.1568
X6.5596Y-5.2123
X6.5596Y-5.6008
X6.5596Y-5.6563
X6.5596Y-5.7118
X6.5596Y-5.7673
X6.5596Y-5.8228
X6.5596Y-5.8783
X6.5596Y-5.9338
X6.5596Y-5.9893
X6.5596Y-6.0448
X6.5596Y-6.1003
X6.5596Y-6.1558
X6.5596Y-6.2113
X6.5596Y-6.2668
X6.5596Y-6.3223
X6.5596Y-6.3778
X6.5596Y-6.4332
X6.5596Y-6.4887
X6.5596Y-6.5442
X6.5596Y-6.5997
X6.58Y-5.47
X6.5808Y-5.3016
X6.5808Y-5.3311
X6.5808Y-5.3606
X6.5808Y-5.4394
X6.5808Y-5.4984
X6.6105Y-5.3016
X6.6105Y-5.3311
X6.6105Y-5.3606
X6.6105Y-5.4394
X6.6105Y-5.4689
X6.6105Y-5.4984
X6.6151Y-3.3255
X6.6151Y-3.381
X6.6151Y-3.4365
X6.6151Y-3.492
X6.6151Y-3.5475
X6.6151Y-3.6029
X6.6151Y-3.6584
X6.6151Y-3.7139
X6.6151Y-3.7694
X6.6151Y-3.8249
X6.6151Y-3.8804
X6.6151Y-3.9359
X6.6151Y-3.9914
X6.6151Y-4.0469
X6.6151Y-4.1024
X6.6151Y-4.1579
X6.6151Y-4.2134
X6.6151Y-4.2689
X6.6151Y-4.3244
X6.6151Y-4.3799
X6.6151Y-4.4354
X6.6151Y-4.4909
X6.6151Y-4.5464
X6.6151Y-4.6019
X6.6151Y-4.6574
X6.6151Y-4.7129
X6.6151Y-4.7684
X6.6151Y-4.8239
X6.6151Y-4.8794
X6.6151Y-4.9349
X6.6151Y-4.9904
X6.6151Y-5.0458
X6.6151Y-5.1013
X6.6151Y-5.1568
X6.6151Y-5.2123
X6.6151Y-5.6008
X6.6151Y-5.6563
X6.6151Y-5.7118
X6.6151Y-5.7673
X6.6151Y-5.8228
X6.6151Y-5.8783
X6.6151Y-5.9338
X6.6151Y-5.9893
X6.6151Y-6.0448
X6.6151Y-6.1003
X6.6151Y-6.1558
X6.6151Y-6.2113
X6.6151Y-6.2668
X6.6151Y-6.3223
X6.6151Y-6.3778
X6.6151Y-6.4332
X6.6151Y-6.4887
X6.6151Y-6.5442
X6.6151Y-6.5997
X6.6401Y-5.3016
X6.6401Y-5.3311
X6.6401Y-5.3606
X6.6401Y-5.4394
X6.6401Y-5.4689
X6.6401Y-5.4984
X6.6697Y-5.3016
X6.6697Y-5.3311
X6.6697Y-5.3606
X6.6697Y-5.4394
X6.6697Y-5.4689
X6.6697Y-5.4984
X6.6706Y-3.3255
X6.6706Y-3.381
X6.6706Y-3.4365
X6.6706Y-3.492
X6.6706Y-3.5475
X6.6706Y-3.6029
X6.6706Y-3.6584
X6.6706Y-3.7139
X6.6706Y-3.7694
X6.6706Y-3.8249
X6.6706Y-3.8804
X6.6706Y-3.9359
X6.6706Y-3.9914
X6.6706Y-4.0469
X6.6706Y-4.1024
X6.6706Y-4.1579
X6.6706Y-4.2134
X6.6706Y-4.2689
X6.6706Y-4.3244
X6.6706Y-4.3799
X6.6706Y-4.4354
X6.6706Y-4.4909
X6.6706Y-4.5464
X6.6706Y-4.6019
X6.6706Y-4.6574
X6.6706Y-4.7129
X6.6706Y-4.7684
X6.6706Y-4.8239
X6.6706Y-4.8794
X6.6706Y-4.9349
X6.6706Y-4.9904
X6.6706Y-5.0458
X6.6706Y-5.1013
X6.6706Y-5.1568
X6.6706Y-5.2123
X6.6706Y-5.6008
X6.6706Y-5.6563
X6.6706Y-5.7118
X6.6706Y-5.7673
X6.6706Y-5.8228
X6.6706Y-5.8783
X6.6706Y-5.9338
X6.6706Y-5.9893
X6.6706Y-6.0448
X6.6706Y-6.1003
X6.6706Y-6.1558
X6.6706Y-6.2113
X6.6706Y-6.2668
X6.6706Y-6.3223
X6.6706Y-6.3778
X6.6706Y-6.4332
X6.6706Y-6.4887
X6.6706Y-6.5442
X6.6706Y-6.5997
X6.6993Y-5.3016
X6.6993Y-5.3311
X6.6993Y-5.3606
X6.6993Y-5.4394
X6.6993Y-5.4689
X6.6993Y-5.4984
X6.7261Y-3.3255
X6.7261Y-3.381
X6.7261Y-3.4365
X6.7261Y-3.492
X6.7261Y-3.5475
X6.7261Y-3.6029
X6.7261Y-3.6584
X6.7261Y-3.7139
X6.7261Y-3.7694
X6.7261Y-3.8249
X6.7261Y-3.8804
X6.7261Y-3.9359
X6.7261Y-3.9914
X6.7261Y-4.0469
X6.7261Y-4.1024
X6.7261Y-4.1579
X6.7261Y-4.2134
X6.7261Y-4.2689
X6.7261Y-4.3244
X6.7261Y-4.3799
X6.7261Y-4.4354
X6.7261Y-4.4909
X6.7261Y-4.5464
X6.7261Y-4.6019
X6.7261Y-4.6574
X6.7261Y-4.7129
X6.7261Y-4.7684
X6.7261Y-4.8239
X6.7261Y-4.8794
X6.7261Y-4.9349
X6.7261Y-4.9904
X6.7261Y-5.0458
X6.7261Y-5.1013
X6.7261Y-5.1568
X6.7261Y-5.2123
X6.7261Y-5.6008
X6.7261Y-5.6563
X6.7261Y-5.7118
X6.7261Y-5.7673
X6.7261Y-5.8228
X6.7261Y-5.8783
X6.7261Y-5.9338
X6.7261Y-5.9893
X6.7261Y-6.0448
X6.7261Y-6.1003
X6.7261Y-6.1558
X6.7261Y-6.2113
X6.7261Y-6.2668
X6.7261Y-6.3223
X6.7261Y-6.3778
X6.7261Y-6.4332
X6.7261Y-6.4887
X6.7261Y-6.5442
X6.7261Y-6.5997
X6.729Y-5.3016
X6.729Y-5.3311
X6.729Y-5.3606
X6.729Y-5.4394
X6.729Y-5.4689
X6.729Y-5.4984
X6.7586Y-5.3016
X6.7586Y-5.3311
X6.7586Y-5.3606
X6.7586Y-5.4394
X6.7586Y-5.4689
X6.7586Y-5.4984
X6.7816Y-3.3255
X6.7816Y-3.381
X6.7816Y-3.4365
X6.7816Y-3.492
X6.7816Y-3.5475
X6.7816Y-3.6029
X6.7816Y-3.6584
X6.7816Y-3.7139
X6.7816Y-3.7694
X6.7816Y-3.8249
X6.7816Y-3.8804
X6.7816Y-3.9359
X6.7816Y-3.9914
X6.7816Y-4.0469
X6.7816Y-4.1024
X6.7816Y-4.1579
X6.7816Y-4.2134
X6.7816Y-4.2689
X6.7816Y-4.3244
X6.7816Y-4.3799
X6.7816Y-4.4354
X6.7816Y-4.4909
X6.7816Y-4.5464
X6.7816Y-4.6019
X6.7816Y-4.6574
X6.7816Y-4.7129
X6.7816Y-4.7684
X6.7816Y-4.8239
X6.7816Y-4.8794
X6.7816Y-4.9349
X6.7816Y-4.9904
X6.7816Y-5.0458
X6.7816Y-5.1013
X6.7816Y-5.1568
X6.7816Y-5.2123
X6.7816Y-5.6008
X6.7816Y-5.6563
X6.7816Y-5.7118
X6.7816Y-5.7673
X6.7816Y-5.8228
X6.7816Y-5.8783
X6.7816Y-5.9338
X6.7816Y-5.9893
X6.7816Y-6.0448
X6.7816Y-6.1003
X6.7816Y-6.1558
X6.7816Y-6.2113
X6.7816Y-6.2668
X6.7816Y-6.3223
X6.7816Y-6.3778
X6.7816Y-6.4332
X6.7816Y-6.4887
X6.7816Y-6.5442
X6.7816Y-6.5997
X6.7882Y-5.3016
X6.7882Y-5.3311
X6.7882Y-5.3606
X6.7882Y-5.4394
X6.7882Y-5.4689
X6.7882Y-5.4984
X6.8178Y-5.3016
X6.8178Y-5.3311
X6.8178Y-5.3606
X6.8178Y-5.4394
X6.8178Y-5.4689
X6.8178Y-5.4984
X6.8371Y-3.3255
X6.8371Y-3.381
X6.8371Y-3.4365
X6.8371Y-3.492
X6.8371Y-3.5475
X6.8371Y-3.6029
X6.8371Y-3.6584
X6.8371Y-3.7139
X6.8371Y-3.7694
X6.8371Y-3.8249
X6.8371Y-3.8804
X6.8371Y-3.9359
X6.8371Y-3.9914
X6.8371Y-4.0469
X6.8371Y-4.1024
X6.8371Y-4.1579
X6.8371Y-4.2134
X6.8371Y-4.2689
X6.8371Y-4.3244
X6.8371Y-4.3799
X6.8371Y-4.4354
X6.8371Y-4.4909
X6.8371Y-4.5464
X6.8371Y-4.6019
X6.8371Y-4.6574
X6.8371Y-4.7129
X6.8371Y-4.7684
X6.8371Y-4.8239
X6.8371Y-4.8794
X6.8371Y-4.9349
X6.8371Y-4.9904
X6.8371Y-5.0458
X6.8371Y-5.1013
X6.8371Y-5.1568
X6.8371Y-5.2123
X6.8371Y-5.6008
X6.8371Y-5.6563
X6.8371Y-5.7118
X6.8371Y-5.7673
X6.8371Y-5.8228
X6.8371Y-5.8783
X6.8371Y-5.9338
X6.8371Y-5.9893
X6.8371Y-6.0448
X6.8371Y-6.1003
X6.8371Y-6.1558
X6.8371Y-6.2113
X6.8371Y-6.2668
X6.8371Y-6.3223
X6.8371Y-6.3778
X6.8371Y-6.4332
X6.8371Y-6.4887
X6.8371Y-6.5442
X6.8371Y-6.5997
X6.8475Y-5.3016
X6.8475Y-5.3311
X6.8475Y-5.3606
X6.8475Y-5.4394
X6.8475Y-5.4689
X6.8475Y-5.4984
X6.8771Y-5.3016
X6.8771Y-5.3311
X6.8771Y-5.3606
X6.8771Y-5.4394
X6.8771Y-5.4689
X6.8771Y-5.4984
X6.8926Y-3.3255
X6.8926Y-3.381
X6.8926Y-3.4365
X6.8926Y-3.492
X6.8926Y-3.5475
X6.8926Y-3.6029
X6.8926Y-3.6584
X6.8926Y-3.7139
X6.8926Y-3.7694
X6.8926Y-3.8249
X6.8926Y-3.8804
X6.8926Y-3.9359
X6.8926Y-3.9914
X6.8926Y-4.0469
X6.8926Y-4.1024
X6.8926Y-4.1579
X6.8926Y-4.2134
X6.8926Y-4.2689
X6.8926Y-4.3244
X6.8926Y-4.3799
X6.8926Y-4.4354
X6.8926Y-4.4909
X6.8926Y-4.5464
X6.8926Y-4.6019
X6.8926Y-4.6574
X6.8926Y-4.7129
X6.8926Y-4.7684
X6.8926Y-4.8239
X6.8926Y-4.8794
X6.8926Y-4.9349
X6.8926Y-4.9904
X6.8926Y-5.0458
X6.8926Y-5.1013
X6.8926Y-5.1568
X6.8926Y-5.2123
X6.8926Y-5.6008
X6.8926Y-5.6563
X6.8926Y-5.7118
X6.8926Y-5.7673
X6.8926Y-5.8228
X6.8926Y-5.8783
X6.8926Y-5.9338
X6.8926Y-5.9893
X6.8926Y-6.0448
X6.8926Y-6.1003
X6.8926Y-6.1558
X6.8926Y-6.2113
X6.8926Y-6.2668
X6.8926Y-6.3223
X6.8926Y-6.3778
X6.8926Y-6.4332
X6.8926Y-6.4887
X6.8926Y-6.5442
X6.8926Y-6.5997
X6.9067Y-5.3016
X6.9067Y-5.3311
X6.9067Y-5.3606
X6.9067Y-5.4394
X6.9067Y-5.4689
X6.9067Y-5.4984
X6.9364Y-5.3016
X6.9364Y-5.3311
X6.9364Y-5.3606
X6.9364Y-5.4394
X6.9364Y-5.4689
X6.9364Y-5.4984
X6.9481Y-3.3255
X6.9481Y-3.381
X6.9481Y-3.4365
X6.9481Y-3.492
X6.9481Y-3.5475
X6.9481Y-3.6029
X6.9481Y-3.6584
X6.9481Y-3.7139
X6.9481Y-3.7694
X6.9481Y-3.8249
X6.9481Y-3.8804
X6.9481Y-3.9359
X6.9481Y-3.9914
X6.9481Y-4.0469
X6.9481Y-4.1024
X6.9481Y-4.1579
X6.9481Y-4.2134
X6.9481Y-4.2689
X6.9481Y-4.3244
X6.9481Y-4.3799
X6.9481Y-4.4354
X6.9481Y-4.4909
X6.9481Y-4.5464
X6.9481Y-4.6019
X6.9481Y-4.6574
X6.9481Y-4.7129
X6.9481Y-4.7684
X6.9481Y-4.8239
X6.9481Y-4.8794
X6.9481Y-4.9349
X6.9481Y-4.9904
X6.9481Y-5.0458
X6.9481Y-5.1013
X6.9481Y-5.1568
X6.9481Y-5.2123
X6.9481Y-5.6008
X6.9481Y-5.6563
X6.9481Y-5.7118
X6.9481Y-5.7673
X6.9481Y-5.8228
X6.9481Y-5.8783
X6.9481Y-5.9338
X6.9481Y-5.9893
X6.9481Y-6.0448
X6.9481Y-6.1003
X6.9481Y-6.1558
X6.9481Y-6.2113
X6.9481Y-6.2668
X6.9481Y-6.3223
X6.9481Y-6.3778
X6.9481Y-6.4332
X6.9481Y-6.4887
X6.9481Y-6.5442
X6.9481Y-6.5997
X6.966Y-5.3016
X6.966Y-5.3311
X6.966Y-5.3606
X6.966Y-5.4394
X6.966Y-5.4689
X6.966Y-5.4984
X6.9956Y-5.3016
X6.9956Y-5.3311
X6.9956Y-5.3606
X6.9956Y-5.4394
X6.9956Y-5.4689
X6.9956Y-5.4984
X7.0035Y-3.3255
X7.0035Y-3.381
X7.0035Y-3.4365
X7.0035Y-3.492
X7.0035Y-3.5475
X7.0035Y-3.6029
X7.0035Y-3.6584
X7.0035Y-3.7139
X7.0035Y-3.7694
X7.0035Y-3.8249
X7.0035Y-3.8804
X7.0035Y-3.9359
X7.0035Y-3.9914
X7.0035Y-4.0469
X7.0035Y-4.1024
X7.0035Y-4.1579
X7.0035Y-4.2134
X7.0035Y-4.2689
X7.0035Y-4.3244
X7.0035Y-4.3799
X7.0035Y-4.4354
X7.0035Y-4.4909
X7.0035Y-4.5464
X7.0035Y-4.6019
X7.0035Y-4.6574
X7.0035Y-4.7129
X7.0035Y-4.7684
X7.0035Y-4.8239
X7.0035Y-4.8794
X7.0035Y-4.9349
X7.0035Y-4.9904
X7.0035Y-5.0458
X7.0035Y-5.1013
X7.0035Y-5.1568
X7.0035Y-5.2123
X7.0035Y-5.6008
X7.0035Y-5.6563
X7.0035Y-5.7118
X7.0035Y-5.7673
X7.0035Y-5.8228
X7.0035Y-5.8783
X7.0035Y-5.9338
X7.0035Y-5.9893
X7.0035Y-6.0448
X7.0035Y-6.1003
X7.0035Y-6.1558
X7.0035Y-6.2113
X7.0035Y-6.2668
X7.0035Y-6.3223
X7.0035Y-6.3778
X7.0035Y-6.4332
X7.0035Y-6.4887
X7.0035Y-6.5442
X7.0035Y-6.5997
X7.0252Y-5.3016
X7.0252Y-5.3311
X7.0252Y-5.3606
X7.0252Y-5.4394
X7.0252Y-5.4689
X7.0252Y-5.4984
X7.0549Y-5.3016
X7.0549Y-5.3311
X7.0549Y-5.3606
X7.0549Y-5.4394
X7.0549Y-5.4689
X7.0549Y-5.4984
X7.059Y-3.3255
X7.059Y-3.381
X7.059Y-3.4365
X7.059Y-3.492
X7.059Y-3.5475
X7.059Y-3.6029
X7.059Y-3.6584
X7.059Y-3.7139
X7.059Y-3.7694
X7.059Y-3.8249
X7.059Y-3.8804
X7.059Y-3.9359
X7.059Y-3.9914
X7.059Y-4.0469
X7.059Y-4.1024
X7.059Y-4.1579
X7.059Y-4.2134
X7.059Y-4.2689
X7.059Y-4.3244
X7.059Y-4.3799
X7.059Y-4.4354
X7.059Y-4.4909
X7.059Y-4.5464
X7.059Y-4.6019
X7.059Y-4.6574
X7.059Y-4.7129
X7.059Y-4.7684
X7.059Y-4.8239
X7.059Y-4.8794
X7.059Y-4.9349
X7.059Y-4.9904
X7.059Y-5.0458
X7.059Y-5.1013
X7.059Y-5.1568
X7.059Y-5.2123
X7.059Y-5.6008
X7.059Y-5.6563
X7.059Y-5.7118
X7.059Y-5.7673
X7.059Y-5.8228
X7.059Y-5.8783
X7.059Y-5.9338
X7.059Y-5.9893
X7.059Y-6.0448
X7.059Y-6.1003
X7.059Y-6.1558
X7.059Y-6.2113
X7.059Y-6.2668
X7.059Y-6.3223
X7.059Y-6.3778
X7.059Y-6.4332
X7.059Y-6.4887
X7.059Y-6.5442
X7.059Y-6.5997
X7.0845Y-5.3016
X7.0845Y-5.3311
X7.0845Y-5.3606
X7.0845Y-5.4394
X7.0845Y-5.4689
X7.0845Y-5.4984
X7.1141Y-5.3016
X7.1141Y-5.3311
X7.1141Y-5.3606
X7.1141Y-5.4394
X7.1141Y-5.4689
X7.1141Y-5.4984
X7.1145Y-3.3255
X7.1145Y-3.381
X7.1145Y-3.4365
X7.1145Y-3.492
X7.1145Y-3.5475
X7.1145Y-3.6029
X7.1145Y-3.6584
X7.1145Y-3.7139
X7.1145Y-3.7694
X7.1145Y-3.8249
X7.1145Y-3.8804
X7.1145Y-3.9359
X7.1145Y-3.9914
X7.1145Y-4.0469
X7.1145Y-4.1024
X7.1145Y-4.1579
X7.1145Y-4.2134
X7.1145Y-4.2689
X7.1145Y-4.3244
X7.1145Y-4.3799
X7.1145Y-4.4354
X7.1145Y-4.4909
X7.1145Y-4.5464
X7.1145Y-4.6019
X7.1145Y-4.6574
X7.1145Y-4.7129
X7.1145Y-4.7684
X7.1145Y-4.8239
X7.1145Y-4.8794
X7.1145Y-4.9349
X7.1145Y-4.9904
X7.1145Y-5.0458
X7.1145Y-5.7673
X7.1145Y-5.8228
X7.1145Y-5.8783
X7.1145Y-5.9338
X7.1145Y-5.9893
X7.1145Y-6.0448
X7.1145Y-6.1003
X7.1145Y-6.1558
X7.1145Y-6.2113
X7.1145Y-6.2668
X7.1145Y-6.3223
X7.1145Y-6.3778
X7.1145Y-6.4332
X7.1145Y-6.4887
X7.1145Y-6.5442
X7.1145Y-6.5997
X7.1437Y-5.3016
X7.1437Y-5.3311
X7.1437Y-5.3606
X7.1437Y-5.4394
X7.1437Y-5.4689
X7.1437Y-5.4984
X7.17Y-3.3255
X7.17Y-3.381
X7.17Y-3.4365
X7.17Y-3.492
X7.17Y-3.5475
X7.17Y-3.6029
X7.17Y-3.6584
X7.17Y-3.7139
X7.17Y-3.7694
X7.17Y-3.8249
X7.17Y-3.8804
X7.17Y-3.9359
X7.17Y-3.9914
X7.17Y-4.0469
X7.17Y-4.1024
X7.17Y-4.1579
X7.17Y-4.2134
X7.17Y-4.2689
X7.17Y-4.3244
X7.17Y-4.3799
X7.17Y-4.4354
X7.17Y-4.4909
X7.17Y-4.5464
X7.17Y-4.6019
X7.17Y-4.6574
X7.17Y-4.7129
X7.17Y-4.7684
X7.17Y-4.8239
X7.17Y-4.8794
X7.17Y-4.9349
X7.17Y-4.9904
X7.17Y-5.0458
X7.17Y-5.7673
X7.17Y-5.8228
X7.17Y-5.8783
X7.17Y-5.9338
X7.17Y-5.9893
X7.17Y-6.0448
X7.17Y-6.1003
X7.17Y-6.1558
X7.17Y-6.2113
X7.17Y-6.2668
X7.17Y-6.3223
X7.17Y-6.3778
X7.17Y-6.4332
X7.17Y-6.4887
X7.17Y-6.5442
X7.17Y-6.5997
X7.1734Y-5.3016
X7.1734Y-5.3311
X7.1734Y-5.3606
X7.1734Y-5.4394
X7.1734Y-5.4689
X7.1734Y-5.4984
X7.203Y-5.3016
X7.203Y-5.3311
X7.203Y-5.3606
X7.203Y-5.4394
X7.203Y-5.4689
X7.203Y-5.4984
X7.2255Y-3.3255
X7.2255Y-3.381
X7.2255Y-3.4365
X7.2255Y-3.492
X7.2255Y-3.5475
X7.2255Y-3.6029
X7.2255Y-3.6584
X7.2255Y-3.7139
X7.2255Y-3.7694
X7.2255Y-3.8249
X7.2255Y-3.8804
X7.2255Y-3.9359
X7.2255Y-3.9914
X7.2255Y-4.0469
X7.2255Y-4.1024
X7.2255Y-4.1579
X7.2255Y-4.2134
X7.2255Y-4.2689
X7.2255Y-4.3244
X7.2255Y-4.3799
X7.2255Y-4.4354
X7.2255Y-4.4909
X7.2255Y-4.5464
X7.2255Y-4.6019
X7.2255Y-4.6574
X7.2255Y-4.7129
X7.2255Y-4.7684
X7.2255Y-4.8239
X7.2255Y-4.8794
X7.2255Y-4.9349
X7.2255Y-4.9904
X7.2255Y-5.0458
X7.2255Y-5.7673
X7.2255Y-5.8228
X7.2255Y-5.8783
X7.2255Y-5.9338
X7.2255Y-5.9893
X7.2255Y-6.0448
X7.2255Y-6.1003
X7.2255Y-6.1558
X7.2255Y-6.2113
X7.2255Y-6.2668
X7.2255Y-6.3223
X7.2255Y-6.3778
X7.2255Y-6.4332
X7.2255Y-6.4887
X7.2255Y-6.5442
X7.2255Y-6.5997
T2
X1.558Y-5.078
X1.558Y-5.11
X1.558Y-5.142
X1.59Y-5.078
X1.59Y-5.11
X1.59Y-5.142
X1.622Y-5.078
X1.622Y-5.11
X1.622Y-5.142
X2.01Y-5.032
X2.01Y-5.062
X2.01Y-5.094
X2.01Y-5.126
X2.01Y-5.158
X2.01Y-5.19
X2.042Y-5.032
X2.042Y-5.062
X2.042Y-5.094
X2.042Y-5.126
X2.042Y-5.158
X2.042Y-5.19
X2.074Y-5.032
X2.074Y-5.062
X2.074Y-5.094
X2.074Y-5.126
X2.074Y-5.158
X2.074Y-5.19
X2.106Y-5.032
X2.106Y-5.062
X2.106Y-5.094
X2.106Y-5.126
X2.106Y-5.158
X2.106Y-5.19
X2.45Y-5.566
X2.45Y-5.598
X2.45Y-5.63
X2.45Y-5.662
X2.48Y-5.566
X2.48Y-5.598
X2.48Y-5.63
X2.48Y-5.662
X2.512Y-5.566
X2.512Y-5.598
X2.512Y-5.63
X2.512Y-5.662
X2.516Y-6.148
X2.516Y-6.18
X2.516Y-6.212
X2.5298Y-5.1295
X2.544Y-5.566
X2.544Y-5.598
X2.544Y-5.63
X2.544Y-5.662
X2.548Y-6.148
X2.548Y-6.18
X2.548Y-6.212
X2.576Y-5.566
X2.576Y-5.598
X2.576Y-5.63
X2.576Y-5.662
X2.578Y-5.112
X2.578Y-5.144
X2.58Y-6.148
X2.58Y-6.18
X2.58Y-6.212
X2.608Y-5.566
X2.608Y-5.598
X2.608Y-5.63
X2.608Y-5.662
X4.828Y-4.966
X4.828Y-4.998
X4.828Y-5.03
X4.828Y-5.062
X4.834Y-4.868
X4.866Y-4.868
X4.884Y-4.966
X4.884Y-4.998
X4.884Y-5.03
X4.884Y-5.062
X4.898Y-4.868
X4.93Y-4.868
X4.946Y-4.966
X4.946Y-4.998
X4.946Y-5.03
X4.946Y-5.062
X5.006Y-4.966
X5.006Y-4.998
X5.006Y-5.03
X5.006Y-5.062
X5.046Y-5.046
X5.078Y-5.046
X5.11Y-5.046
X5.126Y-4.86
X5.126Y-4.892
X5.126Y-4.924
X5.126Y-4.956
X5.142Y-5.046
X5.172Y-4.86
X5.172Y-4.892
X5.172Y-4.924
X5.172Y-4.956
X5.174Y-5.046
X5.206Y-5.046
X5.238Y-5.046
X5.27Y-5.046
X5.6384Y-4.5334
X5.64Y-4.505
X5.65Y-4.475
X5.675Y-4.42
X5.675Y-4.45
X5.685Y-4.925
X5.685Y-4.96
X5.7Y-4.99
X5.72Y-4.955
X5.73Y-4.99
X5.738Y-4.884
X5.76Y-4.99
X5.766Y-4.886
X5.79Y-4.99
X5.792Y-4.916
X5.796Y-4.884
X5.81Y-4.42
X5.81Y-4.45
X5.83Y-4.475
X5.8386Y-4.5339
X5.84Y-4.505
T3
X1.66Y-4.72
X1.76Y-4.72
X1.86Y-4.72
X2.88Y-6.0094
X2.88Y-6.1094
X2.88Y-6.2094
X4.52Y-4.32
X4.52Y-4.42
X4.52Y-4.52
X4.74Y-4.8206
X4.74Y-4.9206
X4.74Y-5.0206
X4.89Y-4.18
X4.99Y-4.18
X5.09Y-4.18
X5.19Y-4.18
X5.2294Y-5.82
X5.29Y-4.18
X5.3294Y-5.82
X5.4294Y-5.82
X6.47Y-4.57
X6.47Y-4.67
X6.47Y-4.77
X6.47Y-4.87
X6.47Y-4.97
X6.47Y-5.07
X6.47Y-5.17
M30
