%TF.GenerationSoftware,KiCad,Pcbnew,8.0.4*%
%TF.CreationDate,2025-12-20T23:20:30-08:00*%
%TF.ProjectId,Thesis,54686573-6973-42e6-9b69-6361645f7063,rev?*%
%TF.SameCoordinates,Original*%
%TF.FileFunction,Soldermask,Bot*%
%TF.FilePolarity,Negative*%
%FSLAX46Y46*%
G04 Gerber Fmt 4.6, Leading zero omitted, Abs format (unit mm)*
G04 Created by KiCad (PCBNEW 8.0.4) date 2025-12-20 23:20:30*
%MOMM*%
%LPD*%
G01*
G04 APERTURE LIST*
G04 Aperture macros list*
%AMRoundRect*
0 Rectangle with rounded corners*
0 $1 Rounding radius*
0 $2 $3 $4 $5 $6 $7 $8 $9 X,Y pos of 4 corners*
0 Add a 4 corners polygon primitive as box body*
4,1,4,$2,$3,$4,$5,$6,$7,$8,$9,$2,$3,0*
0 Add four circle primitives for the rounded corners*
1,1,$1+$1,$2,$3*
1,1,$1+$1,$4,$5*
1,1,$1+$1,$6,$7*
1,1,$1+$1,$8,$9*
0 Add four rect primitives between the rounded corners*
20,1,$1+$1,$2,$3,$4,$5,0*
20,1,$1+$1,$4,$5,$6,$7,0*
20,1,$1+$1,$6,$7,$8,$9,0*
20,1,$1+$1,$8,$9,$2,$3,0*%
G04 Aperture macros list end*
%ADD10R,5.994400X5.003800*%
%ADD11R,1.700000X1.700000*%
%ADD12O,1.700000X1.700000*%
%ADD13R,5.003800X5.994400*%
%ADD14RoundRect,0.155000X-0.212500X-0.155000X0.212500X-0.155000X0.212500X0.155000X-0.212500X0.155000X0*%
%ADD15RoundRect,0.237500X-0.300000X-0.237500X0.300000X-0.237500X0.300000X0.237500X-0.300000X0.237500X0*%
%ADD16RoundRect,0.237500X-0.250000X-0.237500X0.250000X-0.237500X0.250000X0.237500X-0.250000X0.237500X0*%
%ADD17RoundRect,0.155000X-0.155000X0.212500X-0.155000X-0.212500X0.155000X-0.212500X0.155000X0.212500X0*%
%ADD18RoundRect,0.237500X0.237500X-0.250000X0.237500X0.250000X-0.237500X0.250000X-0.237500X-0.250000X0*%
%ADD19RoundRect,0.155000X0.155000X-0.212500X0.155000X0.212500X-0.155000X0.212500X-0.155000X-0.212500X0*%
%ADD20RoundRect,0.237500X-0.237500X0.300000X-0.237500X-0.300000X0.237500X-0.300000X0.237500X0.300000X0*%
%ADD21RoundRect,0.237500X-0.237500X0.250000X-0.237500X-0.250000X0.237500X-0.250000X0.237500X0.250000X0*%
%ADD22RoundRect,0.237500X0.237500X-0.300000X0.237500X0.300000X-0.237500X0.300000X-0.237500X-0.300000X0*%
%ADD23C,1.500000*%
G04 APERTURE END LIST*
D10*
%TO.C,J6*%
X141540556Y-167716200D03*
X149542729Y-167710426D03*
%TD*%
D11*
%TO.C,J21*%
X73152000Y-157719000D03*
D12*
X73152000Y-155179000D03*
X73152000Y-152639000D03*
%TD*%
D10*
%TO.C,J5*%
X162747444Y-85521800D03*
X154745271Y-85527574D03*
%TD*%
%TO.C,J4*%
X137279444Y-85521800D03*
X129277271Y-85527574D03*
%TD*%
D11*
%TO.C,J18*%
X164338000Y-131318000D03*
D12*
X164338000Y-128778000D03*
X164338000Y-126238000D03*
X164338000Y-123698000D03*
X164338000Y-121158000D03*
X164338000Y-118618000D03*
X164338000Y-116078000D03*
%TD*%
D11*
%TO.C,J13*%
X42164000Y-119888000D03*
D12*
X44704000Y-119888000D03*
X47244000Y-119888000D03*
%TD*%
D11*
%TO.C,J20*%
X137907000Y-147828000D03*
D12*
X135367000Y-147828000D03*
X132827000Y-147828000D03*
%TD*%
D11*
%TO.C,J7*%
X134366000Y-106172000D03*
D12*
X131826000Y-106172000D03*
X129286000Y-106172000D03*
X126746000Y-106172000D03*
X124206000Y-106172000D03*
%TD*%
D13*
%TO.C,J1*%
X28117800Y-126550556D03*
X28123574Y-134552729D03*
%TD*%
%TO.C,J9*%
X182956200Y-141157444D03*
X182950426Y-133155271D03*
%TD*%
D10*
%TO.C,J8*%
X120523610Y-167716200D03*
X128525783Y-167710426D03*
%TD*%
D11*
%TO.C,J14*%
X120396000Y-122443000D03*
D12*
X120396000Y-124983000D03*
X120396000Y-127523000D03*
%TD*%
D10*
%TO.C,J2*%
X60510556Y-167716200D03*
X68512729Y-167710426D03*
%TD*%
%TO.C,J10*%
X68005444Y-85598000D03*
X60003271Y-85603774D03*
%TD*%
D11*
%TO.C,J15*%
X114808000Y-114808000D03*
D12*
X114808000Y-112268000D03*
X114808000Y-109728000D03*
%TD*%
D14*
%TO.C,C39*%
X151519000Y-126746000D03*
X152654000Y-126746000D03*
%TD*%
D15*
%TO.C,C12*%
X136551500Y-121713000D03*
X138276500Y-121713000D03*
%TD*%
D16*
%TO.C,R12*%
X138279500Y-114554000D03*
X140104500Y-114554000D03*
%TD*%
D17*
%TO.C,C45*%
X152908000Y-129286000D03*
X152908000Y-130421000D03*
%TD*%
D14*
%TO.C,C44*%
X144466500Y-129794000D03*
X145601500Y-129794000D03*
%TD*%
D18*
%TO.C,R9*%
X134620000Y-125372500D03*
X134620000Y-123547500D03*
%TD*%
%TO.C,R13*%
X140104500Y-112926500D03*
X140104500Y-111101500D03*
%TD*%
D19*
%TO.C,C32*%
X152654000Y-122487500D03*
X152654000Y-121352500D03*
%TD*%
D14*
%TO.C,C40*%
X151519000Y-127762000D03*
X152654000Y-127762000D03*
%TD*%
%TO.C,C38*%
X151578500Y-124460000D03*
X152713500Y-124460000D03*
%TD*%
D17*
%TO.C,C46*%
X151892000Y-129286000D03*
X151892000Y-130421000D03*
%TD*%
D20*
%TO.C,C15*%
X140104500Y-116231500D03*
X140104500Y-117956500D03*
%TD*%
D14*
%TO.C,C36*%
X151578500Y-125476000D03*
X152713500Y-125476000D03*
%TD*%
D20*
%TO.C,C14*%
X138176000Y-116231500D03*
X138176000Y-117956500D03*
%TD*%
D18*
%TO.C,R11*%
X136398000Y-120038500D03*
X136398000Y-118213500D03*
%TD*%
D14*
%TO.C,C42*%
X144466500Y-128524000D03*
X145601500Y-128524000D03*
%TD*%
D21*
%TO.C,R18*%
X149860000Y-120753500D03*
X149860000Y-122578500D03*
%TD*%
%TO.C,R10*%
X140104500Y-119888000D03*
X140104500Y-121713000D03*
%TD*%
D22*
%TO.C,C13*%
X134620000Y-121713000D03*
X134620000Y-119988000D03*
%TD*%
D23*
%TO.C,TP1*%
X140208000Y-108458000D03*
%TD*%
D19*
%TO.C,C31*%
X151638000Y-122487500D03*
X151638000Y-121352500D03*
%TD*%
M02*
