%TF.GenerationSoftware,KiCad,Pcbnew,8.0.4*%
%TF.CreationDate,2025-12-20T23:20:30-08:00*%
%TF.ProjectId,Thesis,54686573-6973-42e6-9b69-6361645f7063,rev?*%
%TF.SameCoordinates,Original*%
%TF.FileFunction,Soldermask,Top*%
%TF.FilePolarity,Negative*%
%FSLAX46Y46*%
G04 Gerber Fmt 4.6, Leading zero omitted, Abs format (unit mm)*
G04 Created by KiCad (PCBNEW 8.0.4) date 2025-12-20 23:20:30*
%MOMM*%
%LPD*%
G01*
G04 APERTURE LIST*
G04 Aperture macros list*
%AMRoundRect*
0 Rectangle with rounded corners*
0 $1 Rounding radius*
0 $2 $3 $4 $5 $6 $7 $8 $9 X,Y pos of 4 corners*
0 Add a 4 corners polygon primitive as box body*
4,1,4,$2,$3,$4,$5,$6,$7,$8,$9,$2,$3,0*
0 Add four circle primitives for the rounded corners*
1,1,$1+$1,$2,$3*
1,1,$1+$1,$4,$5*
1,1,$1+$1,$6,$7*
1,1,$1+$1,$8,$9*
0 Add four rect primitives between the rounded corners*
20,1,$1+$1,$2,$3,$4,$5,0*
20,1,$1+$1,$4,$5,$6,$7,0*
20,1,$1+$1,$6,$7,$8,$9,0*
20,1,$1+$1,$8,$9,$2,$3,0*%
G04 Aperture macros list end*
%ADD10C,0.000000*%
%ADD11R,0.250000X0.500000*%
%ADD12R,0.500000X0.250000*%
%ADD13R,1.100000X1.100000*%
%ADD14RoundRect,0.155000X-0.155000X0.212500X-0.155000X-0.212500X0.155000X-0.212500X0.155000X0.212500X0*%
%ADD15RoundRect,0.100000X-0.217500X-0.100000X0.217500X-0.100000X0.217500X0.100000X-0.217500X0.100000X0*%
%ADD16RoundRect,0.155000X-0.212500X-0.155000X0.212500X-0.155000X0.212500X0.155000X-0.212500X0.155000X0*%
%ADD17C,1.000000*%
%ADD18RoundRect,0.100000X-0.100000X0.217500X-0.100000X-0.217500X0.100000X-0.217500X0.100000X0.217500X0*%
%ADD19R,0.482600X5.003800*%
%ADD20R,5.994400X5.003800*%
%ADD21R,0.127000X0.127000*%
%ADD22R,1.700000X1.700000*%
%ADD23O,1.700000X1.700000*%
%ADD24RoundRect,0.237500X0.250000X0.237500X-0.250000X0.237500X-0.250000X-0.237500X0.250000X-0.237500X0*%
%ADD25RoundRect,0.237500X-0.237500X0.250000X-0.237500X-0.250000X0.237500X-0.250000X0.237500X0.250000X0*%
%ADD26RoundRect,0.100000X0.217500X0.100000X-0.217500X0.100000X-0.217500X-0.100000X0.217500X-0.100000X0*%
%ADD27RoundRect,0.160000X-0.160000X0.197500X-0.160000X-0.197500X0.160000X-0.197500X0.160000X0.197500X0*%
%ADD28RoundRect,0.160000X-0.197500X-0.160000X0.197500X-0.160000X0.197500X0.160000X-0.197500X0.160000X0*%
%ADD29R,0.600000X0.250000*%
%ADD30R,0.250000X0.600000*%
%ADD31R,2.300000X2.300000*%
%ADD32RoundRect,0.155000X0.155000X-0.212500X0.155000X0.212500X-0.155000X0.212500X-0.155000X-0.212500X0*%
%ADD33RoundRect,0.155000X0.212500X0.155000X-0.212500X0.155000X-0.212500X-0.155000X0.212500X-0.155000X0*%
%ADD34R,0.406400X0.508000*%
%ADD35R,1.498600X0.711200*%
%ADD36RoundRect,0.237500X0.237500X-0.250000X0.237500X0.250000X-0.237500X0.250000X-0.237500X-0.250000X0*%
%ADD37R,3.000000X3.000000*%
%ADD38R,5.003800X0.482600*%
%ADD39R,5.003800X5.994400*%
%ADD40R,0.508000X0.406400*%
%ADD41R,0.711200X1.498600*%
%ADD42RoundRect,0.237500X-0.250000X-0.237500X0.250000X-0.237500X0.250000X0.237500X-0.250000X0.237500X0*%
%ADD43R,0.812800X0.254000*%
%ADD44R,0.254000X0.812800*%
%ADD45R,3.759200X3.759200*%
%ADD46RoundRect,0.237500X-0.237500X0.300000X-0.237500X-0.300000X0.237500X-0.300000X0.237500X0.300000X0*%
%ADD47RoundRect,0.237500X-0.237500X0.287500X-0.237500X-0.287500X0.237500X-0.287500X0.237500X0.287500X0*%
G04 APERTURE END LIST*
D10*
%TO.C,J6*%
G36*
X144534700Y-170218100D02*
G01*
X138540300Y-170218100D01*
X138540300Y-165214300D01*
X144534700Y-165214300D01*
X144534700Y-170218100D01*
G37*
G36*
X152535700Y-170218100D02*
G01*
X146541300Y-170218100D01*
X146541300Y-165214300D01*
X152535700Y-165214300D01*
X152535700Y-170218100D01*
G37*
%TO.C,J5*%
G36*
X157746700Y-88023700D02*
G01*
X151752300Y-88023700D01*
X151752300Y-83019900D01*
X157746700Y-83019900D01*
X157746700Y-88023700D01*
G37*
G36*
X165747700Y-88023700D02*
G01*
X159753300Y-88023700D01*
X159753300Y-83019900D01*
X165747700Y-83019900D01*
X165747700Y-88023700D01*
G37*
%TO.C,J4*%
G36*
X132278700Y-88023700D02*
G01*
X126284300Y-88023700D01*
X126284300Y-83019900D01*
X132278700Y-83019900D01*
X132278700Y-88023700D01*
G37*
G36*
X140279700Y-88023700D02*
G01*
X134285300Y-88023700D01*
X134285300Y-83019900D01*
X140279700Y-83019900D01*
X140279700Y-88023700D01*
G37*
%TO.C,J1*%
G36*
X30619700Y-129544700D02*
G01*
X25615900Y-129544700D01*
X25615900Y-123550300D01*
X30619700Y-123550300D01*
X30619700Y-129544700D01*
G37*
G36*
X30619700Y-137545700D02*
G01*
X25615900Y-137545700D01*
X25615900Y-131551300D01*
X30619700Y-131551300D01*
X30619700Y-137545700D01*
G37*
%TO.C,J9*%
G36*
X185458100Y-136156700D02*
G01*
X180454300Y-136156700D01*
X180454300Y-130162300D01*
X185458100Y-130162300D01*
X185458100Y-136156700D01*
G37*
G36*
X185458100Y-144157700D02*
G01*
X180454300Y-144157700D01*
X180454300Y-138163300D01*
X185458100Y-138163300D01*
X185458100Y-144157700D01*
G37*
%TO.C,J8*%
G36*
X123517754Y-170218100D02*
G01*
X117523354Y-170218100D01*
X117523354Y-165214300D01*
X123517754Y-165214300D01*
X123517754Y-170218100D01*
G37*
G36*
X131518754Y-170218100D02*
G01*
X125524354Y-170218100D01*
X125524354Y-165214300D01*
X131518754Y-165214300D01*
X131518754Y-170218100D01*
G37*
%TO.C,J2*%
G36*
X63504700Y-170218100D02*
G01*
X57510300Y-170218100D01*
X57510300Y-165214300D01*
X63504700Y-165214300D01*
X63504700Y-170218100D01*
G37*
G36*
X71505700Y-170218100D02*
G01*
X65511300Y-170218100D01*
X65511300Y-165214300D01*
X71505700Y-165214300D01*
X71505700Y-170218100D01*
G37*
%TO.C,J10*%
G36*
X63004700Y-88099900D02*
G01*
X57010300Y-88099900D01*
X57010300Y-83096100D01*
X63004700Y-83096100D01*
X63004700Y-88099900D01*
G37*
G36*
X71005700Y-88099900D02*
G01*
X65011300Y-88099900D01*
X65011300Y-83096100D01*
X71005700Y-83096100D01*
X71005700Y-88099900D01*
G37*
%TD*%
D11*
%TO.C,U6*%
X65008000Y-129040000D03*
X64508000Y-129040000D03*
X64008000Y-129040000D03*
X63508000Y-129040000D03*
D12*
X63008000Y-129540000D03*
X63008000Y-130040000D03*
X63008000Y-130540000D03*
X63008000Y-131040000D03*
D11*
X63508000Y-131540000D03*
X64008000Y-131540000D03*
X64508000Y-131540000D03*
X65008000Y-131540000D03*
D12*
X65508000Y-131040000D03*
X65508000Y-130540000D03*
X65508000Y-130040000D03*
X65508000Y-129540000D03*
D13*
X64258000Y-130290000D03*
%TD*%
D14*
%TO.C,C7*%
X147320000Y-110176500D03*
X147320000Y-111311500D03*
%TD*%
D15*
%TO.C,L1*%
X146912500Y-153162000D03*
X147727500Y-153162000D03*
%TD*%
D16*
%TO.C,C47*%
X150562500Y-128016000D03*
X151697500Y-128016000D03*
%TD*%
D17*
%TO.C,TP6*%
X141732000Y-118618000D03*
%TD*%
D14*
%TO.C,C1*%
X68834000Y-155134500D03*
X68834000Y-156269500D03*
%TD*%
D18*
%TO.C,R16*%
X145542000Y-152322000D03*
X145542000Y-153137000D03*
%TD*%
D19*
%TO.C,J6*%
X145538000Y-167716200D03*
D20*
X141537500Y-167716200D03*
D21*
X142998000Y-167716200D03*
X148078000Y-167716200D03*
D20*
X149537686Y-167711378D03*
D21*
X142998000Y-167716200D03*
X148078000Y-167716200D03*
%TD*%
D22*
%TO.C,J21*%
X73152000Y-157719000D03*
D23*
X73152000Y-155179000D03*
X73152000Y-152639000D03*
%TD*%
D14*
%TO.C,C5*%
X147320000Y-114748500D03*
X147320000Y-115883500D03*
%TD*%
D19*
%TO.C,J5*%
X158750000Y-85521800D03*
D20*
X162750500Y-85521800D03*
D21*
X161290000Y-85521800D03*
X156210000Y-85521800D03*
D20*
X154750314Y-85526622D03*
D21*
X161290000Y-85521800D03*
X156210000Y-85521800D03*
%TD*%
D24*
%TO.C,R5*%
X124610500Y-112014000D03*
X122785500Y-112014000D03*
%TD*%
D16*
%TO.C,C23*%
X149546500Y-130048000D03*
X150681500Y-130048000D03*
%TD*%
D25*
%TO.C,R15*%
X138684000Y-111355500D03*
X138684000Y-113180500D03*
%TD*%
D26*
%TO.C,L2*%
X126799000Y-153162000D03*
X125984000Y-153162000D03*
%TD*%
D19*
%TO.C,J4*%
X133282000Y-85521800D03*
D20*
X137282500Y-85521800D03*
D21*
X135822000Y-85521800D03*
X130742000Y-85521800D03*
D20*
X129282314Y-85526622D03*
D21*
X135822000Y-85521800D03*
X130742000Y-85521800D03*
%TD*%
D22*
%TO.C,J18*%
X164338000Y-131318000D03*
D23*
X164338000Y-128778000D03*
X164338000Y-126238000D03*
X164338000Y-123698000D03*
X164338000Y-121158000D03*
X164338000Y-118618000D03*
X164338000Y-116078000D03*
%TD*%
D27*
%TO.C,R1*%
X68834000Y-152564500D03*
X68834000Y-153759500D03*
%TD*%
D28*
%TO.C,R3*%
X145198500Y-113030000D03*
X146393500Y-113030000D03*
%TD*%
D29*
%TO.C,U10*%
X38698000Y-128548000D03*
X38698000Y-129048000D03*
X38698000Y-129548000D03*
X38698000Y-130048000D03*
X38698000Y-130548000D03*
X38698000Y-131048000D03*
D30*
X39148000Y-131498000D03*
X39648000Y-131498000D03*
X40148000Y-131498000D03*
X40648000Y-131498000D03*
X41148000Y-131498000D03*
X41648000Y-131498000D03*
D29*
X42098000Y-131048000D03*
X42098000Y-130548000D03*
X42098000Y-130048000D03*
X42098000Y-129548000D03*
X42098000Y-129048000D03*
X42098000Y-128548000D03*
D30*
X41648000Y-128098000D03*
X41148000Y-128098000D03*
X40648000Y-128098000D03*
X40148000Y-128098000D03*
X39648000Y-128098000D03*
X39148000Y-128098000D03*
D31*
X40398000Y-129798000D03*
%TD*%
D14*
%TO.C,C2*%
X68834000Y-157674500D03*
X68834000Y-158809500D03*
%TD*%
D24*
%TO.C,R4*%
X128270000Y-114046000D03*
X126445000Y-114046000D03*
%TD*%
D32*
%TO.C,C26*%
X149098000Y-121979500D03*
X149098000Y-120844500D03*
%TD*%
D22*
%TO.C,J13*%
X42164000Y-119888000D03*
D23*
X44704000Y-119888000D03*
X47244000Y-119888000D03*
%TD*%
D32*
%TO.C,C30*%
X149860000Y-118169500D03*
X149860000Y-117034500D03*
%TD*%
D14*
%TO.C,C8*%
X144272000Y-114748500D03*
X144272000Y-115883500D03*
%TD*%
D22*
%TO.C,J20*%
X137907000Y-147828000D03*
D23*
X135367000Y-147828000D03*
X132827000Y-147828000D03*
%TD*%
D28*
%TO.C,R20*%
X36203000Y-126238000D03*
X37398000Y-126238000D03*
%TD*%
D33*
%TO.C,C27*%
X142494000Y-121666000D03*
X141359000Y-121666000D03*
%TD*%
D18*
%TO.C,C3*%
X145538000Y-154862000D03*
X145538000Y-155677000D03*
%TD*%
D34*
%TO.C,J3*%
X57150000Y-130048000D03*
X59690000Y-130048000D03*
D35*
X58420000Y-130848001D03*
X58420000Y-129247999D03*
%TD*%
D16*
%TO.C,C24*%
X148530500Y-129032000D03*
X149665500Y-129032000D03*
%TD*%
D25*
%TO.C,R8*%
X151384000Y-112625500D03*
X151384000Y-114450500D03*
%TD*%
D22*
%TO.C,J7*%
X134366000Y-106172000D03*
D23*
X131826000Y-106172000D03*
X129286000Y-106172000D03*
X126746000Y-106172000D03*
X124206000Y-106172000D03*
%TD*%
D36*
%TO.C,R14*%
X136906000Y-113180500D03*
X136906000Y-111355500D03*
%TD*%
D17*
%TO.C,TP7*%
X151892000Y-119126000D03*
%TD*%
D29*
%TO.C,U1*%
X50083000Y-128048000D03*
X50083000Y-128548000D03*
X50083000Y-129048000D03*
X50083000Y-129548000D03*
X50083000Y-130048000D03*
X50083000Y-130548000D03*
X50083000Y-131048000D03*
X50083000Y-131548000D03*
D30*
X50533000Y-131998000D03*
X51033000Y-131998000D03*
X51533000Y-131998000D03*
X52033000Y-131998000D03*
X52533000Y-131998000D03*
X53033000Y-131998000D03*
X53533000Y-131998000D03*
X54033000Y-131998000D03*
D29*
X54483000Y-131548000D03*
X54483000Y-131048000D03*
X54483000Y-130548000D03*
X54483000Y-130048000D03*
X54483000Y-129548000D03*
X54483000Y-129048000D03*
X54483000Y-128548000D03*
X54483000Y-128048000D03*
D30*
X54033000Y-127598000D03*
X53533000Y-127598000D03*
X53033000Y-127598000D03*
X52533000Y-127598000D03*
X52033000Y-127598000D03*
X51533000Y-127598000D03*
X51033000Y-127598000D03*
X50533000Y-127598000D03*
D37*
X52283000Y-129798000D03*
%TD*%
D14*
%TO.C,C16*%
X144272000Y-110176500D03*
X144272000Y-111311500D03*
%TD*%
D38*
%TO.C,J1*%
X28117800Y-130548000D03*
D39*
X28117800Y-126547500D03*
D21*
X28117800Y-128008000D03*
X28117800Y-133088000D03*
D39*
X28122622Y-134547686D03*
D21*
X28117800Y-128008000D03*
X28117800Y-133088000D03*
%TD*%
D33*
%TO.C,C17*%
X140521500Y-125984000D03*
X139386500Y-125984000D03*
%TD*%
%TO.C,C43*%
X142299500Y-129286000D03*
X141164500Y-129286000D03*
%TD*%
D16*
%TO.C,C48*%
X38743000Y-126238000D03*
X39878000Y-126238000D03*
%TD*%
D26*
%TO.C,L3*%
X122989000Y-153162000D03*
X122174000Y-153162000D03*
%TD*%
D15*
%TO.C,L6*%
X143356500Y-153162000D03*
X144171500Y-153162000D03*
%TD*%
D34*
%TO.C,J19*%
X44958000Y-130048000D03*
X47498000Y-130048000D03*
D35*
X46228000Y-130848001D03*
X46228000Y-129247999D03*
%TD*%
D32*
%TO.C,C11*%
X64008000Y-122360500D03*
X64008000Y-121225500D03*
%TD*%
%TO.C,C33*%
X151130000Y-123249500D03*
X151130000Y-122114500D03*
%TD*%
D40*
%TO.C,J17*%
X64008000Y-148844000D03*
X64008000Y-151384000D03*
D41*
X63207999Y-150114000D03*
X64808001Y-150114000D03*
%TD*%
D42*
%TO.C,R19*%
X136247500Y-123444000D03*
X138072500Y-123444000D03*
%TD*%
D43*
%TO.C,U3*%
X143344900Y-123726001D03*
X143344900Y-124226000D03*
X143344900Y-124725999D03*
X143344900Y-125226000D03*
X143344900Y-125726000D03*
X143344900Y-126226001D03*
X143344900Y-126726000D03*
X143344900Y-127225999D03*
D44*
X144046001Y-127927100D03*
X144546000Y-127927100D03*
X145045999Y-127927100D03*
X145546000Y-127927100D03*
X146046000Y-127927100D03*
X146546001Y-127927100D03*
X147046000Y-127927100D03*
X147545999Y-127927100D03*
D43*
X148247100Y-127225999D03*
X148247100Y-126726000D03*
X148247100Y-126226001D03*
X148247100Y-125726000D03*
X148247100Y-125226000D03*
X148247100Y-124725999D03*
X148247100Y-124226000D03*
X148247100Y-123726001D03*
D44*
X147545999Y-123024900D03*
X147046000Y-123024900D03*
X146546001Y-123024900D03*
X146046000Y-123024900D03*
X145546000Y-123024900D03*
X145045999Y-123024900D03*
X144546000Y-123024900D03*
X144046001Y-123024900D03*
D45*
X145796000Y-125476000D03*
%TD*%
D38*
%TO.C,J9*%
X182956200Y-137160000D03*
D39*
X182956200Y-141160500D03*
D21*
X182956200Y-139700000D03*
X182956200Y-134620000D03*
D39*
X182951378Y-133160314D03*
D21*
X182956200Y-139700000D03*
X182956200Y-134620000D03*
%TD*%
D33*
%TO.C,C35*%
X140521500Y-127254000D03*
X139386500Y-127254000D03*
%TD*%
D18*
%TO.C,C6*%
X124521054Y-154786500D03*
X124521054Y-155601500D03*
%TD*%
D26*
%TO.C,C9*%
X162638000Y-137160000D03*
X161823000Y-137160000D03*
%TD*%
D46*
%TO.C,C21*%
X131064000Y-151283500D03*
X131064000Y-153008500D03*
%TD*%
D30*
%TO.C,U2*%
X66008000Y-140380000D03*
X65508000Y-140380000D03*
X65008000Y-140380000D03*
X64508000Y-140380000D03*
X64008000Y-140380000D03*
X63508000Y-140380000D03*
X63008000Y-140380000D03*
X62508000Y-140380000D03*
D29*
X62058000Y-140830000D03*
X62058000Y-141330000D03*
X62058000Y-141830000D03*
X62058000Y-142330000D03*
X62058000Y-142830000D03*
X62058000Y-143330000D03*
X62058000Y-143830000D03*
X62058000Y-144330000D03*
D30*
X62508000Y-144780000D03*
X63008000Y-144780000D03*
X63508000Y-144780000D03*
X64008000Y-144780000D03*
X64508000Y-144780000D03*
X65008000Y-144780000D03*
X65508000Y-144780000D03*
X66008000Y-144780000D03*
D29*
X66458000Y-144330000D03*
X66458000Y-143830000D03*
X66458000Y-143330000D03*
X66458000Y-142830000D03*
X66458000Y-142330000D03*
X66458000Y-141830000D03*
X66458000Y-141330000D03*
X66458000Y-140830000D03*
D37*
X64258000Y-142580000D03*
%TD*%
D24*
%TO.C,R6*%
X131722500Y-116078000D03*
X129897500Y-116078000D03*
%TD*%
D16*
%TO.C,C4*%
X41148000Y-126238000D03*
X42283000Y-126238000D03*
%TD*%
D33*
%TO.C,C34*%
X139446000Y-128270000D03*
X138311000Y-128270000D03*
%TD*%
D19*
%TO.C,J8*%
X124521054Y-167716200D03*
D20*
X120520554Y-167716200D03*
D21*
X121981054Y-167716200D03*
X127061054Y-167716200D03*
D20*
X128520740Y-167711378D03*
D21*
X121981054Y-167716200D03*
X127061054Y-167716200D03*
%TD*%
D22*
%TO.C,J14*%
X120396000Y-122443000D03*
D23*
X120396000Y-124983000D03*
X120396000Y-127523000D03*
%TD*%
D18*
%TO.C,L4*%
X162663000Y-138684000D03*
X162663000Y-139499000D03*
%TD*%
D46*
%TO.C,C20*%
X133574000Y-151283500D03*
X133574000Y-153008500D03*
%TD*%
%TO.C,C18*%
X138594000Y-151283500D03*
X138594000Y-153008500D03*
%TD*%
D18*
%TO.C,R17*%
X124521054Y-152246500D03*
X124521054Y-153061500D03*
%TD*%
D47*
%TO.C,D1*%
X140462000Y-111393000D03*
X140462000Y-113143000D03*
%TD*%
D33*
%TO.C,C28*%
X142494000Y-120396000D03*
X141359000Y-120396000D03*
%TD*%
D16*
%TO.C,C41*%
X150562500Y-127000000D03*
X151697500Y-127000000D03*
%TD*%
D19*
%TO.C,J2*%
X64508000Y-167716200D03*
D20*
X60507500Y-167716200D03*
D21*
X61968000Y-167716200D03*
X67048000Y-167716200D03*
D20*
X68507686Y-167711378D03*
D21*
X61968000Y-167716200D03*
X67048000Y-167716200D03*
%TD*%
D32*
%TO.C,C29*%
X148590000Y-119693500D03*
X148590000Y-118558500D03*
%TD*%
D19*
%TO.C,J10*%
X64008000Y-85598000D03*
D20*
X68008500Y-85598000D03*
D21*
X66548000Y-85598000D03*
X61468000Y-85598000D03*
D20*
X60008314Y-85602822D03*
D21*
X66548000Y-85598000D03*
X61468000Y-85598000D03*
%TD*%
D30*
%TO.C,U8*%
X66008000Y-155292000D03*
X65508000Y-155292000D03*
X65008000Y-155292000D03*
X64508000Y-155292000D03*
X64008000Y-155292000D03*
X63508000Y-155292000D03*
D29*
X63058000Y-155742000D03*
X63058000Y-156242000D03*
X63058000Y-156742000D03*
X63058000Y-157242000D03*
X63058000Y-157742000D03*
X63058000Y-158242000D03*
D30*
X63508000Y-158692000D03*
X64008000Y-158692000D03*
X64508000Y-158692000D03*
X65008000Y-158692000D03*
X65508000Y-158692000D03*
X66008000Y-158692000D03*
D29*
X66458000Y-158242000D03*
X66458000Y-157742000D03*
X66458000Y-157242000D03*
X66458000Y-156742000D03*
X66458000Y-156242000D03*
X66458000Y-155742000D03*
D31*
X64758000Y-156992000D03*
%TD*%
D42*
%TO.C,R7*%
X120753500Y-109728000D03*
X122578500Y-109728000D03*
%TD*%
D16*
%TO.C,C37*%
X150816500Y-124714000D03*
X151951500Y-124714000D03*
%TD*%
D22*
%TO.C,J15*%
X114808000Y-114808000D03*
D23*
X114808000Y-112268000D03*
X114808000Y-109728000D03*
%TD*%
D40*
%TO.C,J16*%
X64008000Y-135636000D03*
X64008000Y-138176000D03*
D41*
X63207999Y-136906000D03*
X64808001Y-136906000D03*
%TD*%
D14*
%TO.C,C10*%
X64008000Y-133163500D03*
X64008000Y-134298500D03*
%TD*%
D32*
%TO.C,C25*%
X150114000Y-120963500D03*
X150114000Y-119828500D03*
%TD*%
D46*
%TO.C,C19*%
X136084000Y-151283500D03*
X136084000Y-153008500D03*
%TD*%
D33*
%TO.C,C22*%
X138997500Y-124968000D03*
X137862500Y-124968000D03*
%TD*%
M02*
