%TF.GenerationSoftware,KiCad,Pcbnew,8.0.4*%
%TF.CreationDate,2025-12-21T14:13:32-08:00*%
%TF.ProjectId,Thesis,54686573-6973-42e6-9b69-6361645f7063,rev?*%
%TF.SameCoordinates,Original*%
%TF.FileFunction,Legend,Top*%
%TF.FilePolarity,Positive*%
%FSLAX46Y46*%
G04 Gerber Fmt 4.6, Leading zero omitted, Abs format (unit mm)*
G04 Created by KiCad (PCBNEW 8.0.4) date 2025-12-21 14:13:32*
%MOMM*%
%LPD*%
G01*
G04 APERTURE LIST*
%ADD10C,0.200000*%
%ADD11C,0.127000*%
%ADD12C,0.150000*%
%ADD13C,0.177800*%
%ADD14C,0.508000*%
%ADD15C,0.120000*%
%ADD16C,0.152400*%
%ADD17C,0.000000*%
G04 APERTURE END LIST*
D10*
X32207200Y-156286200D02*
X42087800Y-156286200D01*
X42087800Y-159131000D01*
X32207200Y-159131000D01*
X32207200Y-156286200D01*
G36*
X32207200Y-156286200D02*
G01*
X42087800Y-156286200D01*
X42087800Y-159131000D01*
X32207200Y-159131000D01*
X32207200Y-156286200D01*
G37*
D11*
X81427028Y-124426300D02*
X81903218Y-124426300D01*
X81331790Y-124712015D02*
X81665123Y-123712015D01*
X81665123Y-123712015D02*
X81998456Y-124712015D01*
X82188933Y-123712015D02*
X82522266Y-124712015D01*
X82522266Y-124712015D02*
X82855599Y-123712015D01*
X83188933Y-124712015D02*
X83188933Y-123712015D01*
X83188933Y-123712015D02*
X83427028Y-123712015D01*
X83427028Y-123712015D02*
X83569885Y-123759634D01*
X83569885Y-123759634D02*
X83665123Y-123854872D01*
X83665123Y-123854872D02*
X83712742Y-123950110D01*
X83712742Y-123950110D02*
X83760361Y-124140586D01*
X83760361Y-124140586D02*
X83760361Y-124283443D01*
X83760361Y-124283443D02*
X83712742Y-124473919D01*
X83712742Y-124473919D02*
X83665123Y-124569157D01*
X83665123Y-124569157D02*
X83569885Y-124664396D01*
X83569885Y-124664396D02*
X83427028Y-124712015D01*
X83427028Y-124712015D02*
X83188933Y-124712015D01*
X84188933Y-124712015D02*
X84188933Y-123712015D01*
X84188933Y-123712015D02*
X84427028Y-123712015D01*
X84427028Y-123712015D02*
X84569885Y-123759634D01*
X84569885Y-123759634D02*
X84665123Y-123854872D01*
X84665123Y-123854872D02*
X84712742Y-123950110D01*
X84712742Y-123950110D02*
X84760361Y-124140586D01*
X84760361Y-124140586D02*
X84760361Y-124283443D01*
X84760361Y-124283443D02*
X84712742Y-124473919D01*
X84712742Y-124473919D02*
X84665123Y-124569157D01*
X84665123Y-124569157D02*
X84569885Y-124664396D01*
X84569885Y-124664396D02*
X84427028Y-124712015D01*
X84427028Y-124712015D02*
X84188933Y-124712015D01*
X85712742Y-124712015D02*
X85141314Y-124712015D01*
X85427028Y-124712015D02*
X85427028Y-123712015D01*
X85427028Y-123712015D02*
X85331790Y-123854872D01*
X85331790Y-123854872D02*
X85236552Y-123950110D01*
X85236552Y-123950110D02*
X85141314Y-123997729D01*
X82601790Y-125236015D02*
X82935123Y-126236015D01*
X82935123Y-126236015D02*
X83268456Y-125236015D01*
X83601790Y-126236015D02*
X83601790Y-125236015D01*
X83601790Y-125236015D02*
X83982742Y-125236015D01*
X83982742Y-125236015D02*
X84077980Y-125283634D01*
X84077980Y-125283634D02*
X84125599Y-125331253D01*
X84125599Y-125331253D02*
X84173218Y-125426491D01*
X84173218Y-125426491D02*
X84173218Y-125569348D01*
X84173218Y-125569348D02*
X84125599Y-125664586D01*
X84125599Y-125664586D02*
X84077980Y-125712205D01*
X84077980Y-125712205D02*
X83982742Y-125759824D01*
X83982742Y-125759824D02*
X83601790Y-125759824D01*
X93380837Y-104011015D02*
X92904647Y-104011015D01*
X92904647Y-104011015D02*
X92904647Y-103011015D01*
X93714171Y-103487205D02*
X94047504Y-103487205D01*
X94190361Y-104011015D02*
X93714171Y-104011015D01*
X93714171Y-104011015D02*
X93714171Y-103011015D01*
X93714171Y-103011015D02*
X94190361Y-103011015D01*
D12*
X110134400Y-124829219D02*
X110134400Y-125067314D01*
X109896305Y-124972076D02*
X110134400Y-125067314D01*
X110134400Y-125067314D02*
X110372495Y-124972076D01*
X109991543Y-125257790D02*
X110134400Y-125067314D01*
X110134400Y-125067314D02*
X110277257Y-125257790D01*
D11*
X76489837Y-157494015D02*
X76013647Y-157494015D01*
X76013647Y-157494015D02*
X75966028Y-157970205D01*
X75966028Y-157970205D02*
X76013647Y-157922586D01*
X76013647Y-157922586D02*
X76108885Y-157874967D01*
X76108885Y-157874967D02*
X76346980Y-157874967D01*
X76346980Y-157874967D02*
X76442218Y-157922586D01*
X76442218Y-157922586D02*
X76489837Y-157970205D01*
X76489837Y-157970205D02*
X76537456Y-158065443D01*
X76537456Y-158065443D02*
X76537456Y-158303538D01*
X76537456Y-158303538D02*
X76489837Y-158398776D01*
X76489837Y-158398776D02*
X76442218Y-158446396D01*
X76442218Y-158446396D02*
X76346980Y-158494015D01*
X76346980Y-158494015D02*
X76108885Y-158494015D01*
X76108885Y-158494015D02*
X76013647Y-158446396D01*
X76013647Y-158446396D02*
X75966028Y-158398776D01*
X76823171Y-157494015D02*
X77156504Y-158494015D01*
X77156504Y-158494015D02*
X77489837Y-157494015D01*
X90682075Y-103915776D02*
X90634456Y-103963396D01*
X90634456Y-103963396D02*
X90491599Y-104011015D01*
X90491599Y-104011015D02*
X90396361Y-104011015D01*
X90396361Y-104011015D02*
X90253504Y-103963396D01*
X90253504Y-103963396D02*
X90158266Y-103868157D01*
X90158266Y-103868157D02*
X90110647Y-103772919D01*
X90110647Y-103772919D02*
X90063028Y-103582443D01*
X90063028Y-103582443D02*
X90063028Y-103439586D01*
X90063028Y-103439586D02*
X90110647Y-103249110D01*
X90110647Y-103249110D02*
X90158266Y-103153872D01*
X90158266Y-103153872D02*
X90253504Y-103058634D01*
X90253504Y-103058634D02*
X90396361Y-103011015D01*
X90396361Y-103011015D02*
X90491599Y-103011015D01*
X90491599Y-103011015D02*
X90634456Y-103058634D01*
X90634456Y-103058634D02*
X90682075Y-103106253D01*
X91110647Y-103487205D02*
X91443980Y-103487205D01*
X91586837Y-104011015D02*
X91110647Y-104011015D01*
X91110647Y-104011015D02*
X91110647Y-103011015D01*
X91110647Y-103011015D02*
X91586837Y-103011015D01*
D13*
X27024039Y-155549718D02*
X27024039Y-154660718D01*
X27024039Y-154660718D02*
X27320373Y-155295718D01*
X27320373Y-155295718D02*
X27616706Y-154660718D01*
X27616706Y-154660718D02*
X27616706Y-155549718D01*
X28167039Y-155549718D02*
X28082373Y-155507385D01*
X28082373Y-155507385D02*
X28040039Y-155465051D01*
X28040039Y-155465051D02*
X27997706Y-155380385D01*
X27997706Y-155380385D02*
X27997706Y-155126385D01*
X27997706Y-155126385D02*
X28040039Y-155041718D01*
X28040039Y-155041718D02*
X28082373Y-154999385D01*
X28082373Y-154999385D02*
X28167039Y-154957051D01*
X28167039Y-154957051D02*
X28294039Y-154957051D01*
X28294039Y-154957051D02*
X28378706Y-154999385D01*
X28378706Y-154999385D02*
X28421039Y-155041718D01*
X28421039Y-155041718D02*
X28463373Y-155126385D01*
X28463373Y-155126385D02*
X28463373Y-155380385D01*
X28463373Y-155380385D02*
X28421039Y-155465051D01*
X28421039Y-155465051D02*
X28378706Y-155507385D01*
X28378706Y-155507385D02*
X28294039Y-155549718D01*
X28294039Y-155549718D02*
X28167039Y-155549718D01*
X28844372Y-154957051D02*
X28844372Y-155549718D01*
X28844372Y-155041718D02*
X28886706Y-154999385D01*
X28886706Y-154999385D02*
X28971372Y-154957051D01*
X28971372Y-154957051D02*
X29098372Y-154957051D01*
X29098372Y-154957051D02*
X29183039Y-154999385D01*
X29183039Y-154999385D02*
X29225372Y-155084051D01*
X29225372Y-155084051D02*
X29225372Y-155549718D01*
X29521705Y-154957051D02*
X29860372Y-154957051D01*
X29648705Y-154660718D02*
X29648705Y-155422718D01*
X29648705Y-155422718D02*
X29691039Y-155507385D01*
X29691039Y-155507385D02*
X29775705Y-155549718D01*
X29775705Y-155549718D02*
X29860372Y-155549718D01*
X30834038Y-155549718D02*
X30834038Y-154660718D01*
X30834038Y-154660718D02*
X31130372Y-155295718D01*
X31130372Y-155295718D02*
X31426705Y-154660718D01*
X31426705Y-154660718D02*
X31426705Y-155549718D01*
X32231038Y-154957051D02*
X32231038Y-155549718D01*
X31850038Y-154957051D02*
X31850038Y-155422718D01*
X31850038Y-155422718D02*
X31892372Y-155507385D01*
X31892372Y-155507385D02*
X31977038Y-155549718D01*
X31977038Y-155549718D02*
X32104038Y-155549718D01*
X32104038Y-155549718D02*
X32188705Y-155507385D01*
X32188705Y-155507385D02*
X32231038Y-155465051D01*
X32654371Y-155549718D02*
X32654371Y-154957051D01*
X32654371Y-155126385D02*
X32696705Y-155041718D01*
X32696705Y-155041718D02*
X32739038Y-154999385D01*
X32739038Y-154999385D02*
X32823705Y-154957051D01*
X32823705Y-154957051D02*
X32908371Y-154957051D01*
X33585704Y-155549718D02*
X33585704Y-155084051D01*
X33585704Y-155084051D02*
X33543371Y-154999385D01*
X33543371Y-154999385D02*
X33458704Y-154957051D01*
X33458704Y-154957051D02*
X33289371Y-154957051D01*
X33289371Y-154957051D02*
X33204704Y-154999385D01*
X33585704Y-155507385D02*
X33501038Y-155549718D01*
X33501038Y-155549718D02*
X33289371Y-155549718D01*
X33289371Y-155549718D02*
X33204704Y-155507385D01*
X33204704Y-155507385D02*
X33162371Y-155422718D01*
X33162371Y-155422718D02*
X33162371Y-155338051D01*
X33162371Y-155338051D02*
X33204704Y-155253385D01*
X33204704Y-155253385D02*
X33289371Y-155211051D01*
X33289371Y-155211051D02*
X33501038Y-155211051D01*
X33501038Y-155211051D02*
X33585704Y-155168718D01*
X34390037Y-155549718D02*
X34390037Y-154660718D01*
X34390037Y-155507385D02*
X34305371Y-155549718D01*
X34305371Y-155549718D02*
X34136037Y-155549718D01*
X34136037Y-155549718D02*
X34051371Y-155507385D01*
X34051371Y-155507385D02*
X34009037Y-155465051D01*
X34009037Y-155465051D02*
X33966704Y-155380385D01*
X33966704Y-155380385D02*
X33966704Y-155126385D01*
X33966704Y-155126385D02*
X34009037Y-155041718D01*
X34009037Y-155041718D02*
X34051371Y-154999385D01*
X34051371Y-154999385D02*
X34136037Y-154957051D01*
X34136037Y-154957051D02*
X34305371Y-154957051D01*
X34305371Y-154957051D02*
X34390037Y-154999385D01*
X35702370Y-155846051D02*
X35702370Y-154576051D01*
X37522703Y-155465051D02*
X37480370Y-155507385D01*
X37480370Y-155507385D02*
X37353370Y-155549718D01*
X37353370Y-155549718D02*
X37268703Y-155549718D01*
X37268703Y-155549718D02*
X37141703Y-155507385D01*
X37141703Y-155507385D02*
X37057037Y-155422718D01*
X37057037Y-155422718D02*
X37014703Y-155338051D01*
X37014703Y-155338051D02*
X36972370Y-155168718D01*
X36972370Y-155168718D02*
X36972370Y-155041718D01*
X36972370Y-155041718D02*
X37014703Y-154872385D01*
X37014703Y-154872385D02*
X37057037Y-154787718D01*
X37057037Y-154787718D02*
X37141703Y-154703051D01*
X37141703Y-154703051D02*
X37268703Y-154660718D01*
X37268703Y-154660718D02*
X37353370Y-154660718D01*
X37353370Y-154660718D02*
X37480370Y-154703051D01*
X37480370Y-154703051D02*
X37522703Y-154745385D01*
X37903703Y-155549718D02*
X37903703Y-154660718D01*
X38284703Y-155549718D02*
X38284703Y-155084051D01*
X38284703Y-155084051D02*
X38242370Y-154999385D01*
X38242370Y-154999385D02*
X38157703Y-154957051D01*
X38157703Y-154957051D02*
X38030703Y-154957051D01*
X38030703Y-154957051D02*
X37946037Y-154999385D01*
X37946037Y-154999385D02*
X37903703Y-155041718D01*
X39089036Y-155549718D02*
X39089036Y-155084051D01*
X39089036Y-155084051D02*
X39046703Y-154999385D01*
X39046703Y-154999385D02*
X38962036Y-154957051D01*
X38962036Y-154957051D02*
X38792703Y-154957051D01*
X38792703Y-154957051D02*
X38708036Y-154999385D01*
X39089036Y-155507385D02*
X39004370Y-155549718D01*
X39004370Y-155549718D02*
X38792703Y-155549718D01*
X38792703Y-155549718D02*
X38708036Y-155507385D01*
X38708036Y-155507385D02*
X38665703Y-155422718D01*
X38665703Y-155422718D02*
X38665703Y-155338051D01*
X38665703Y-155338051D02*
X38708036Y-155253385D01*
X38708036Y-155253385D02*
X38792703Y-155211051D01*
X38792703Y-155211051D02*
X39004370Y-155211051D01*
X39004370Y-155211051D02*
X39089036Y-155168718D01*
X39512369Y-155549718D02*
X39512369Y-154957051D01*
X39512369Y-154660718D02*
X39470036Y-154703051D01*
X39470036Y-154703051D02*
X39512369Y-154745385D01*
X39512369Y-154745385D02*
X39554703Y-154703051D01*
X39554703Y-154703051D02*
X39512369Y-154660718D01*
X39512369Y-154660718D02*
X39512369Y-154745385D01*
X39935702Y-154957051D02*
X39935702Y-155549718D01*
X39935702Y-155041718D02*
X39978036Y-154999385D01*
X39978036Y-154999385D02*
X40062702Y-154957051D01*
X40062702Y-154957051D02*
X40189702Y-154957051D01*
X40189702Y-154957051D02*
X40274369Y-154999385D01*
X40274369Y-154999385D02*
X40316702Y-155084051D01*
X40316702Y-155084051D02*
X40316702Y-155549718D01*
X40740035Y-155211051D02*
X41417369Y-155211051D01*
X41078702Y-155549718D02*
X41078702Y-154872385D01*
X41840702Y-155549718D02*
X41840702Y-154660718D01*
X41840702Y-154660718D02*
X42179369Y-154660718D01*
X42179369Y-154660718D02*
X42264036Y-154703051D01*
X42264036Y-154703051D02*
X42306369Y-154745385D01*
X42306369Y-154745385D02*
X42348702Y-154830051D01*
X42348702Y-154830051D02*
X42348702Y-154957051D01*
X42348702Y-154957051D02*
X42306369Y-155041718D01*
X42306369Y-155041718D02*
X42264036Y-155084051D01*
X42264036Y-155084051D02*
X42179369Y-155126385D01*
X42179369Y-155126385D02*
X41840702Y-155126385D01*
X43153036Y-155549718D02*
X42729702Y-155549718D01*
X42729702Y-155549718D02*
X42729702Y-154660718D01*
X43872703Y-155549718D02*
X43449369Y-155549718D01*
X43449369Y-155549718D02*
X43449369Y-154660718D01*
X45058036Y-155846051D02*
X45058036Y-154576051D01*
X46878369Y-155549718D02*
X46582036Y-155126385D01*
X46370369Y-155549718D02*
X46370369Y-154660718D01*
X46370369Y-154660718D02*
X46709036Y-154660718D01*
X46709036Y-154660718D02*
X46793703Y-154703051D01*
X46793703Y-154703051D02*
X46836036Y-154745385D01*
X46836036Y-154745385D02*
X46878369Y-154830051D01*
X46878369Y-154830051D02*
X46878369Y-154957051D01*
X46878369Y-154957051D02*
X46836036Y-155041718D01*
X46836036Y-155041718D02*
X46793703Y-155084051D01*
X46793703Y-155084051D02*
X46709036Y-155126385D01*
X46709036Y-155126385D02*
X46370369Y-155126385D01*
X47259369Y-155084051D02*
X47555703Y-155084051D01*
X47682703Y-155549718D02*
X47259369Y-155549718D01*
X47259369Y-155549718D02*
X47259369Y-154660718D01*
X47259369Y-154660718D02*
X47682703Y-154660718D01*
X47936702Y-154660718D02*
X48233036Y-155549718D01*
X48233036Y-155549718D02*
X48529369Y-154660718D01*
X49672369Y-154660718D02*
X49757035Y-154660718D01*
X49757035Y-154660718D02*
X49841702Y-154703051D01*
X49841702Y-154703051D02*
X49884035Y-154745385D01*
X49884035Y-154745385D02*
X49926369Y-154830051D01*
X49926369Y-154830051D02*
X49968702Y-154999385D01*
X49968702Y-154999385D02*
X49968702Y-155211051D01*
X49968702Y-155211051D02*
X49926369Y-155380385D01*
X49926369Y-155380385D02*
X49884035Y-155465051D01*
X49884035Y-155465051D02*
X49841702Y-155507385D01*
X49841702Y-155507385D02*
X49757035Y-155549718D01*
X49757035Y-155549718D02*
X49672369Y-155549718D01*
X49672369Y-155549718D02*
X49587702Y-155507385D01*
X49587702Y-155507385D02*
X49545369Y-155465051D01*
X49545369Y-155465051D02*
X49503035Y-155380385D01*
X49503035Y-155380385D02*
X49460702Y-155211051D01*
X49460702Y-155211051D02*
X49460702Y-154999385D01*
X49460702Y-154999385D02*
X49503035Y-154830051D01*
X49503035Y-154830051D02*
X49545369Y-154745385D01*
X49545369Y-154745385D02*
X49587702Y-154703051D01*
X49587702Y-154703051D02*
X49672369Y-154660718D01*
X26981706Y-156726958D02*
X27405039Y-156726958D01*
X26897039Y-156980958D02*
X27193373Y-156091958D01*
X27193373Y-156091958D02*
X27489706Y-156980958D01*
X27743706Y-156938625D02*
X27870706Y-156980958D01*
X27870706Y-156980958D02*
X28082373Y-156980958D01*
X28082373Y-156980958D02*
X28167039Y-156938625D01*
X28167039Y-156938625D02*
X28209373Y-156896291D01*
X28209373Y-156896291D02*
X28251706Y-156811625D01*
X28251706Y-156811625D02*
X28251706Y-156726958D01*
X28251706Y-156726958D02*
X28209373Y-156642291D01*
X28209373Y-156642291D02*
X28167039Y-156599958D01*
X28167039Y-156599958D02*
X28082373Y-156557625D01*
X28082373Y-156557625D02*
X27913039Y-156515291D01*
X27913039Y-156515291D02*
X27828373Y-156472958D01*
X27828373Y-156472958D02*
X27786039Y-156430625D01*
X27786039Y-156430625D02*
X27743706Y-156345958D01*
X27743706Y-156345958D02*
X27743706Y-156261291D01*
X27743706Y-156261291D02*
X27786039Y-156176625D01*
X27786039Y-156176625D02*
X27828373Y-156134291D01*
X27828373Y-156134291D02*
X27913039Y-156091958D01*
X27913039Y-156091958D02*
X28124706Y-156091958D01*
X28124706Y-156091958D02*
X28251706Y-156134291D01*
X28590373Y-156938625D02*
X28717373Y-156980958D01*
X28717373Y-156980958D02*
X28929040Y-156980958D01*
X28929040Y-156980958D02*
X29013706Y-156938625D01*
X29013706Y-156938625D02*
X29056040Y-156896291D01*
X29056040Y-156896291D02*
X29098373Y-156811625D01*
X29098373Y-156811625D02*
X29098373Y-156726958D01*
X29098373Y-156726958D02*
X29056040Y-156642291D01*
X29056040Y-156642291D02*
X29013706Y-156599958D01*
X29013706Y-156599958D02*
X28929040Y-156557625D01*
X28929040Y-156557625D02*
X28759706Y-156515291D01*
X28759706Y-156515291D02*
X28675040Y-156472958D01*
X28675040Y-156472958D02*
X28632706Y-156430625D01*
X28632706Y-156430625D02*
X28590373Y-156345958D01*
X28590373Y-156345958D02*
X28590373Y-156261291D01*
X28590373Y-156261291D02*
X28632706Y-156176625D01*
X28632706Y-156176625D02*
X28675040Y-156134291D01*
X28675040Y-156134291D02*
X28759706Y-156091958D01*
X28759706Y-156091958D02*
X28971373Y-156091958D01*
X28971373Y-156091958D02*
X29098373Y-156134291D01*
X29479373Y-156091958D02*
X29479373Y-156811625D01*
X29479373Y-156811625D02*
X29521707Y-156896291D01*
X29521707Y-156896291D02*
X29564040Y-156938625D01*
X29564040Y-156938625D02*
X29648707Y-156980958D01*
X29648707Y-156980958D02*
X29818040Y-156980958D01*
X29818040Y-156980958D02*
X29902707Y-156938625D01*
X29902707Y-156938625D02*
X29945040Y-156896291D01*
X29945040Y-156896291D02*
X29987373Y-156811625D01*
X29987373Y-156811625D02*
X29987373Y-156091958D01*
X30410706Y-156980958D02*
X30410706Y-156091958D01*
X30410706Y-156091958D02*
X30707040Y-156726958D01*
X30707040Y-156726958D02*
X31003373Y-156091958D01*
X31003373Y-156091958D02*
X31003373Y-156980958D01*
X31426706Y-156896291D02*
X31469040Y-156938625D01*
X31469040Y-156938625D02*
X31426706Y-156980958D01*
X31426706Y-156980958D02*
X31384373Y-156938625D01*
X31384373Y-156938625D02*
X31426706Y-156896291D01*
X31426706Y-156896291D02*
X31426706Y-156980958D01*
X31426706Y-156430625D02*
X31469040Y-156472958D01*
X31469040Y-156472958D02*
X31426706Y-156515291D01*
X31426706Y-156515291D02*
X31384373Y-156472958D01*
X31384373Y-156472958D02*
X31426706Y-156430625D01*
X31426706Y-156430625D02*
X31426706Y-156515291D01*
D11*
X82220790Y-126760015D02*
X82554123Y-127760015D01*
X82554123Y-127760015D02*
X82887456Y-126760015D01*
X83792218Y-127760015D02*
X83458885Y-127283824D01*
X83220790Y-127760015D02*
X83220790Y-126760015D01*
X83220790Y-126760015D02*
X83601742Y-126760015D01*
X83601742Y-126760015D02*
X83696980Y-126807634D01*
X83696980Y-126807634D02*
X83744599Y-126855253D01*
X83744599Y-126855253D02*
X83792218Y-126950491D01*
X83792218Y-126950491D02*
X83792218Y-127093348D01*
X83792218Y-127093348D02*
X83744599Y-127188586D01*
X83744599Y-127188586D02*
X83696980Y-127236205D01*
X83696980Y-127236205D02*
X83601742Y-127283824D01*
X83601742Y-127283824D02*
X83220790Y-127283824D01*
X84554123Y-127236205D02*
X84220790Y-127236205D01*
X84220790Y-127760015D02*
X84220790Y-126760015D01*
X84220790Y-126760015D02*
X84696980Y-126760015D01*
X95317647Y-103925071D02*
X95317647Y-102925071D01*
X95317647Y-102925071D02*
X95555742Y-102925071D01*
X95555742Y-102925071D02*
X95698599Y-102972690D01*
X95698599Y-102972690D02*
X95793837Y-103067928D01*
X95793837Y-103067928D02*
X95841456Y-103163166D01*
X95841456Y-103163166D02*
X95889075Y-103353642D01*
X95889075Y-103353642D02*
X95889075Y-103496499D01*
X95889075Y-103496499D02*
X95841456Y-103686975D01*
X95841456Y-103686975D02*
X95793837Y-103782213D01*
X95793837Y-103782213D02*
X95698599Y-103877452D01*
X95698599Y-103877452D02*
X95555742Y-103925071D01*
X95555742Y-103925071D02*
X95317647Y-103925071D01*
X96270028Y-103639356D02*
X96746218Y-103639356D01*
X96174790Y-103925071D02*
X96508123Y-102925071D01*
X96508123Y-102925071D02*
X96841456Y-103925071D01*
X97031933Y-102925071D02*
X97603361Y-102925071D01*
X97317647Y-103925071D02*
X97317647Y-102925071D01*
X97889076Y-103639356D02*
X98365266Y-103639356D01*
X97793838Y-103925071D02*
X98127171Y-102925071D01*
X98127171Y-102925071D02*
X98460504Y-103925071D01*
X135195647Y-114790687D02*
X135195647Y-113790687D01*
X135195647Y-113790687D02*
X135433742Y-113790687D01*
X135433742Y-113790687D02*
X135576599Y-113838306D01*
X135576599Y-113838306D02*
X135671837Y-113933544D01*
X135671837Y-113933544D02*
X135719456Y-114028782D01*
X135719456Y-114028782D02*
X135767075Y-114219258D01*
X135767075Y-114219258D02*
X135767075Y-114362115D01*
X135767075Y-114362115D02*
X135719456Y-114552591D01*
X135719456Y-114552591D02*
X135671837Y-114647829D01*
X135671837Y-114647829D02*
X135576599Y-114743068D01*
X135576599Y-114743068D02*
X135433742Y-114790687D01*
X135433742Y-114790687D02*
X135195647Y-114790687D01*
X136052790Y-113790687D02*
X136386123Y-114790687D01*
X136386123Y-114790687D02*
X136719456Y-113790687D01*
X137052790Y-114790687D02*
X137052790Y-113790687D01*
X137052790Y-113790687D02*
X137290885Y-113790687D01*
X137290885Y-113790687D02*
X137433742Y-113838306D01*
X137433742Y-113838306D02*
X137528980Y-113933544D01*
X137528980Y-113933544D02*
X137576599Y-114028782D01*
X137576599Y-114028782D02*
X137624218Y-114219258D01*
X137624218Y-114219258D02*
X137624218Y-114362115D01*
X137624218Y-114362115D02*
X137576599Y-114552591D01*
X137576599Y-114552591D02*
X137528980Y-114647829D01*
X137528980Y-114647829D02*
X137433742Y-114743068D01*
X137433742Y-114743068D02*
X137290885Y-114790687D01*
X137290885Y-114790687D02*
X137052790Y-114790687D01*
X138052790Y-114790687D02*
X138052790Y-113790687D01*
X138052790Y-113790687D02*
X138290885Y-113790687D01*
X138290885Y-113790687D02*
X138433742Y-113838306D01*
X138433742Y-113838306D02*
X138528980Y-113933544D01*
X138528980Y-113933544D02*
X138576599Y-114028782D01*
X138576599Y-114028782D02*
X138624218Y-114219258D01*
X138624218Y-114219258D02*
X138624218Y-114362115D01*
X138624218Y-114362115D02*
X138576599Y-114552591D01*
X138576599Y-114552591D02*
X138528980Y-114647829D01*
X138528980Y-114647829D02*
X138433742Y-114743068D01*
X138433742Y-114743068D02*
X138290885Y-114790687D01*
X138290885Y-114790687D02*
X138052790Y-114790687D01*
X135195647Y-118010575D02*
X135195647Y-117010575D01*
X135195647Y-117010575D02*
X135576599Y-117010575D01*
X135576599Y-117010575D02*
X135671837Y-117058194D01*
X135671837Y-117058194D02*
X135719456Y-117105813D01*
X135719456Y-117105813D02*
X135767075Y-117201051D01*
X135767075Y-117201051D02*
X135767075Y-117343908D01*
X135767075Y-117343908D02*
X135719456Y-117439146D01*
X135719456Y-117439146D02*
X135671837Y-117486765D01*
X135671837Y-117486765D02*
X135576599Y-117534384D01*
X135576599Y-117534384D02*
X135195647Y-117534384D01*
X136195647Y-118010575D02*
X136195647Y-117010575D01*
X136195647Y-117010575D02*
X136433742Y-117010575D01*
X136433742Y-117010575D02*
X136576599Y-117058194D01*
X136576599Y-117058194D02*
X136671837Y-117153432D01*
X136671837Y-117153432D02*
X136719456Y-117248670D01*
X136719456Y-117248670D02*
X136767075Y-117439146D01*
X136767075Y-117439146D02*
X136767075Y-117582003D01*
X136767075Y-117582003D02*
X136719456Y-117772479D01*
X136719456Y-117772479D02*
X136671837Y-117867717D01*
X136671837Y-117867717D02*
X136576599Y-117962956D01*
X136576599Y-117962956D02*
X136433742Y-118010575D01*
X136433742Y-118010575D02*
X136195647Y-118010575D01*
X137528980Y-117486765D02*
X137671837Y-117534384D01*
X137671837Y-117534384D02*
X137719456Y-117582003D01*
X137719456Y-117582003D02*
X137767075Y-117677241D01*
X137767075Y-117677241D02*
X137767075Y-117820098D01*
X137767075Y-117820098D02*
X137719456Y-117915336D01*
X137719456Y-117915336D02*
X137671837Y-117962956D01*
X137671837Y-117962956D02*
X137576599Y-118010575D01*
X137576599Y-118010575D02*
X137195647Y-118010575D01*
X137195647Y-118010575D02*
X137195647Y-117010575D01*
X137195647Y-117010575D02*
X137528980Y-117010575D01*
X137528980Y-117010575D02*
X137624218Y-117058194D01*
X137624218Y-117058194D02*
X137671837Y-117105813D01*
X137671837Y-117105813D02*
X137719456Y-117201051D01*
X137719456Y-117201051D02*
X137719456Y-117296289D01*
X137719456Y-117296289D02*
X137671837Y-117391527D01*
X137671837Y-117391527D02*
X137624218Y-117439146D01*
X137624218Y-117439146D02*
X137528980Y-117486765D01*
X137528980Y-117486765D02*
X137195647Y-117486765D01*
X138767075Y-118010575D02*
X138433742Y-117534384D01*
X138195647Y-118010575D02*
X138195647Y-117010575D01*
X138195647Y-117010575D02*
X138576599Y-117010575D01*
X138576599Y-117010575D02*
X138671837Y-117058194D01*
X138671837Y-117058194D02*
X138719456Y-117105813D01*
X138719456Y-117105813D02*
X138767075Y-117201051D01*
X138767075Y-117201051D02*
X138767075Y-117343908D01*
X138767075Y-117343908D02*
X138719456Y-117439146D01*
X138719456Y-117439146D02*
X138671837Y-117486765D01*
X138671837Y-117486765D02*
X138576599Y-117534384D01*
X138576599Y-117534384D02*
X138195647Y-117534384D01*
X139528980Y-117486765D02*
X139195647Y-117486765D01*
X139195647Y-118010575D02*
X139195647Y-117010575D01*
X139195647Y-117010575D02*
X139671837Y-117010575D01*
X135052790Y-120230463D02*
X135386123Y-121230463D01*
X135386123Y-121230463D02*
X135719456Y-120230463D01*
X136386123Y-120706653D02*
X136528980Y-120754272D01*
X136528980Y-120754272D02*
X136576599Y-120801891D01*
X136576599Y-120801891D02*
X136624218Y-120897129D01*
X136624218Y-120897129D02*
X136624218Y-121039986D01*
X136624218Y-121039986D02*
X136576599Y-121135224D01*
X136576599Y-121135224D02*
X136528980Y-121182844D01*
X136528980Y-121182844D02*
X136433742Y-121230463D01*
X136433742Y-121230463D02*
X136052790Y-121230463D01*
X136052790Y-121230463D02*
X136052790Y-120230463D01*
X136052790Y-120230463D02*
X136386123Y-120230463D01*
X136386123Y-120230463D02*
X136481361Y-120278082D01*
X136481361Y-120278082D02*
X136528980Y-120325701D01*
X136528980Y-120325701D02*
X136576599Y-120420939D01*
X136576599Y-120420939D02*
X136576599Y-120516177D01*
X136576599Y-120516177D02*
X136528980Y-120611415D01*
X136528980Y-120611415D02*
X136481361Y-120659034D01*
X136481361Y-120659034D02*
X136386123Y-120706653D01*
X136386123Y-120706653D02*
X136052790Y-120706653D01*
X137052790Y-121230463D02*
X137052790Y-120230463D01*
X137481361Y-120944748D02*
X137957551Y-120944748D01*
X137386123Y-121230463D02*
X137719456Y-120230463D01*
X137719456Y-120230463D02*
X138052789Y-121230463D01*
X138338504Y-121182844D02*
X138481361Y-121230463D01*
X138481361Y-121230463D02*
X138719456Y-121230463D01*
X138719456Y-121230463D02*
X138814694Y-121182844D01*
X138814694Y-121182844D02*
X138862313Y-121135224D01*
X138862313Y-121135224D02*
X138909932Y-121039986D01*
X138909932Y-121039986D02*
X138909932Y-120944748D01*
X138909932Y-120944748D02*
X138862313Y-120849510D01*
X138862313Y-120849510D02*
X138814694Y-120801891D01*
X138814694Y-120801891D02*
X138719456Y-120754272D01*
X138719456Y-120754272D02*
X138528980Y-120706653D01*
X138528980Y-120706653D02*
X138433742Y-120659034D01*
X138433742Y-120659034D02*
X138386123Y-120611415D01*
X138386123Y-120611415D02*
X138338504Y-120516177D01*
X138338504Y-120516177D02*
X138338504Y-120420939D01*
X138338504Y-120420939D02*
X138386123Y-120325701D01*
X138386123Y-120325701D02*
X138433742Y-120278082D01*
X138433742Y-120278082D02*
X138528980Y-120230463D01*
X138528980Y-120230463D02*
X138767075Y-120230463D01*
X138767075Y-120230463D02*
X138909932Y-120278082D01*
X135052790Y-123450351D02*
X135386123Y-124450351D01*
X135386123Y-124450351D02*
X135719456Y-123450351D01*
X136624218Y-124450351D02*
X136290885Y-123974160D01*
X136052790Y-124450351D02*
X136052790Y-123450351D01*
X136052790Y-123450351D02*
X136433742Y-123450351D01*
X136433742Y-123450351D02*
X136528980Y-123497970D01*
X136528980Y-123497970D02*
X136576599Y-123545589D01*
X136576599Y-123545589D02*
X136624218Y-123640827D01*
X136624218Y-123640827D02*
X136624218Y-123783684D01*
X136624218Y-123783684D02*
X136576599Y-123878922D01*
X136576599Y-123878922D02*
X136528980Y-123926541D01*
X136528980Y-123926541D02*
X136433742Y-123974160D01*
X136433742Y-123974160D02*
X136052790Y-123974160D01*
X137052790Y-123926541D02*
X137386123Y-123926541D01*
X137528980Y-124450351D02*
X137052790Y-124450351D01*
X137052790Y-124450351D02*
X137052790Y-123450351D01*
X137052790Y-123450351D02*
X137528980Y-123450351D01*
X138290885Y-123926541D02*
X137957552Y-123926541D01*
X137957552Y-124450351D02*
X137957552Y-123450351D01*
X137957552Y-123450351D02*
X138433742Y-123450351D01*
X135052790Y-126670239D02*
X135386123Y-127670239D01*
X135386123Y-127670239D02*
X135719456Y-126670239D01*
X136624218Y-127670239D02*
X136290885Y-127194048D01*
X136052790Y-127670239D02*
X136052790Y-126670239D01*
X136052790Y-126670239D02*
X136433742Y-126670239D01*
X136433742Y-126670239D02*
X136528980Y-126717858D01*
X136528980Y-126717858D02*
X136576599Y-126765477D01*
X136576599Y-126765477D02*
X136624218Y-126860715D01*
X136624218Y-126860715D02*
X136624218Y-127003572D01*
X136624218Y-127003572D02*
X136576599Y-127098810D01*
X136576599Y-127098810D02*
X136528980Y-127146429D01*
X136528980Y-127146429D02*
X136433742Y-127194048D01*
X136433742Y-127194048D02*
X136052790Y-127194048D01*
X137052790Y-127146429D02*
X137386123Y-127146429D01*
X137528980Y-127670239D02*
X137052790Y-127670239D01*
X137052790Y-127670239D02*
X137052790Y-126670239D01*
X137052790Y-126670239D02*
X137528980Y-126670239D01*
X138481361Y-126717858D02*
X138386123Y-126670239D01*
X138386123Y-126670239D02*
X138243266Y-126670239D01*
X138243266Y-126670239D02*
X138100409Y-126717858D01*
X138100409Y-126717858D02*
X138005171Y-126813096D01*
X138005171Y-126813096D02*
X137957552Y-126908334D01*
X137957552Y-126908334D02*
X137909933Y-127098810D01*
X137909933Y-127098810D02*
X137909933Y-127241667D01*
X137909933Y-127241667D02*
X137957552Y-127432143D01*
X137957552Y-127432143D02*
X138005171Y-127527381D01*
X138005171Y-127527381D02*
X138100409Y-127622620D01*
X138100409Y-127622620D02*
X138243266Y-127670239D01*
X138243266Y-127670239D02*
X138338504Y-127670239D01*
X138338504Y-127670239D02*
X138481361Y-127622620D01*
X138481361Y-127622620D02*
X138528980Y-127575000D01*
X138528980Y-127575000D02*
X138528980Y-127241667D01*
X138528980Y-127241667D02*
X138338504Y-127241667D01*
X138814695Y-126670239D02*
X139148028Y-127670239D01*
X139148028Y-127670239D02*
X139481361Y-126670239D01*
X140386123Y-127575000D02*
X140338504Y-127622620D01*
X140338504Y-127622620D02*
X140195647Y-127670239D01*
X140195647Y-127670239D02*
X140100409Y-127670239D01*
X140100409Y-127670239D02*
X139957552Y-127622620D01*
X139957552Y-127622620D02*
X139862314Y-127527381D01*
X139862314Y-127527381D02*
X139814695Y-127432143D01*
X139814695Y-127432143D02*
X139767076Y-127241667D01*
X139767076Y-127241667D02*
X139767076Y-127098810D01*
X139767076Y-127098810D02*
X139814695Y-126908334D01*
X139814695Y-126908334D02*
X139862314Y-126813096D01*
X139862314Y-126813096D02*
X139957552Y-126717858D01*
X139957552Y-126717858D02*
X140100409Y-126670239D01*
X140100409Y-126670239D02*
X140195647Y-126670239D01*
X140195647Y-126670239D02*
X140338504Y-126717858D01*
X140338504Y-126717858D02*
X140386123Y-126765477D01*
X141005171Y-126670239D02*
X141195647Y-126670239D01*
X141195647Y-126670239D02*
X141290885Y-126717858D01*
X141290885Y-126717858D02*
X141386123Y-126813096D01*
X141386123Y-126813096D02*
X141433742Y-127003572D01*
X141433742Y-127003572D02*
X141433742Y-127336905D01*
X141433742Y-127336905D02*
X141386123Y-127527381D01*
X141386123Y-127527381D02*
X141290885Y-127622620D01*
X141290885Y-127622620D02*
X141195647Y-127670239D01*
X141195647Y-127670239D02*
X141005171Y-127670239D01*
X141005171Y-127670239D02*
X140909933Y-127622620D01*
X140909933Y-127622620D02*
X140814695Y-127527381D01*
X140814695Y-127527381D02*
X140767076Y-127336905D01*
X140767076Y-127336905D02*
X140767076Y-127003572D01*
X140767076Y-127003572D02*
X140814695Y-126813096D01*
X140814695Y-126813096D02*
X140909933Y-126717858D01*
X140909933Y-126717858D02*
X141005171Y-126670239D01*
X135052790Y-129890127D02*
X135386123Y-130890127D01*
X135386123Y-130890127D02*
X135719456Y-129890127D01*
X135909933Y-129890127D02*
X136243266Y-130890127D01*
X136243266Y-130890127D02*
X136576599Y-129890127D01*
X137481361Y-130794888D02*
X137433742Y-130842508D01*
X137433742Y-130842508D02*
X137290885Y-130890127D01*
X137290885Y-130890127D02*
X137195647Y-130890127D01*
X137195647Y-130890127D02*
X137052790Y-130842508D01*
X137052790Y-130842508D02*
X136957552Y-130747269D01*
X136957552Y-130747269D02*
X136909933Y-130652031D01*
X136909933Y-130652031D02*
X136862314Y-130461555D01*
X136862314Y-130461555D02*
X136862314Y-130318698D01*
X136862314Y-130318698D02*
X136909933Y-130128222D01*
X136909933Y-130128222D02*
X136957552Y-130032984D01*
X136957552Y-130032984D02*
X137052790Y-129937746D01*
X137052790Y-129937746D02*
X137195647Y-129890127D01*
X137195647Y-129890127D02*
X137290885Y-129890127D01*
X137290885Y-129890127D02*
X137433742Y-129937746D01*
X137433742Y-129937746D02*
X137481361Y-129985365D01*
X138100409Y-129890127D02*
X138290885Y-129890127D01*
X138290885Y-129890127D02*
X138386123Y-129937746D01*
X138386123Y-129937746D02*
X138481361Y-130032984D01*
X138481361Y-130032984D02*
X138528980Y-130223460D01*
X138528980Y-130223460D02*
X138528980Y-130556793D01*
X138528980Y-130556793D02*
X138481361Y-130747269D01*
X138481361Y-130747269D02*
X138386123Y-130842508D01*
X138386123Y-130842508D02*
X138290885Y-130890127D01*
X138290885Y-130890127D02*
X138100409Y-130890127D01*
X138100409Y-130890127D02*
X138005171Y-130842508D01*
X138005171Y-130842508D02*
X137909933Y-130747269D01*
X137909933Y-130747269D02*
X137862314Y-130556793D01*
X137862314Y-130556793D02*
X137862314Y-130223460D01*
X137862314Y-130223460D02*
X137909933Y-130032984D01*
X137909933Y-130032984D02*
X138005171Y-129937746D01*
X138005171Y-129937746D02*
X138100409Y-129890127D01*
X135148028Y-133824300D02*
X135624218Y-133824300D01*
X135052790Y-134110015D02*
X135386123Y-133110015D01*
X135386123Y-133110015D02*
X135719456Y-134110015D01*
X135909933Y-133110015D02*
X136243266Y-134110015D01*
X136243266Y-134110015D02*
X136576599Y-133110015D01*
X136909933Y-134110015D02*
X136909933Y-133110015D01*
X136909933Y-133110015D02*
X137148028Y-133110015D01*
X137148028Y-133110015D02*
X137290885Y-133157634D01*
X137290885Y-133157634D02*
X137386123Y-133252872D01*
X137386123Y-133252872D02*
X137433742Y-133348110D01*
X137433742Y-133348110D02*
X137481361Y-133538586D01*
X137481361Y-133538586D02*
X137481361Y-133681443D01*
X137481361Y-133681443D02*
X137433742Y-133871919D01*
X137433742Y-133871919D02*
X137386123Y-133967157D01*
X137386123Y-133967157D02*
X137290885Y-134062396D01*
X137290885Y-134062396D02*
X137148028Y-134110015D01*
X137148028Y-134110015D02*
X136909933Y-134110015D01*
X137909933Y-134110015D02*
X137909933Y-133110015D01*
X137909933Y-133110015D02*
X138148028Y-133110015D01*
X138148028Y-133110015D02*
X138290885Y-133157634D01*
X138290885Y-133157634D02*
X138386123Y-133252872D01*
X138386123Y-133252872D02*
X138433742Y-133348110D01*
X138433742Y-133348110D02*
X138481361Y-133538586D01*
X138481361Y-133538586D02*
X138481361Y-133681443D01*
X138481361Y-133681443D02*
X138433742Y-133871919D01*
X138433742Y-133871919D02*
X138386123Y-133967157D01*
X138386123Y-133967157D02*
X138290885Y-134062396D01*
X138290885Y-134062396D02*
X138148028Y-134110015D01*
X138148028Y-134110015D02*
X137909933Y-134110015D01*
X138862314Y-133205253D02*
X138909933Y-133157634D01*
X138909933Y-133157634D02*
X139005171Y-133110015D01*
X139005171Y-133110015D02*
X139243266Y-133110015D01*
X139243266Y-133110015D02*
X139338504Y-133157634D01*
X139338504Y-133157634D02*
X139386123Y-133205253D01*
X139386123Y-133205253D02*
X139433742Y-133300491D01*
X139433742Y-133300491D02*
X139433742Y-133395729D01*
X139433742Y-133395729D02*
X139386123Y-133538586D01*
X139386123Y-133538586D02*
X138814695Y-134110015D01*
X138814695Y-134110015D02*
X139433742Y-134110015D01*
X78458409Y-109107015D02*
X79077456Y-109107015D01*
X79077456Y-109107015D02*
X78744123Y-109487967D01*
X78744123Y-109487967D02*
X78886980Y-109487967D01*
X78886980Y-109487967D02*
X78982218Y-109535586D01*
X78982218Y-109535586D02*
X79029837Y-109583205D01*
X79029837Y-109583205D02*
X79077456Y-109678443D01*
X79077456Y-109678443D02*
X79077456Y-109916538D01*
X79077456Y-109916538D02*
X79029837Y-110011776D01*
X79029837Y-110011776D02*
X78982218Y-110059396D01*
X78982218Y-110059396D02*
X78886980Y-110107015D01*
X78886980Y-110107015D02*
X78601266Y-110107015D01*
X78601266Y-110107015D02*
X78506028Y-110059396D01*
X78506028Y-110059396D02*
X78458409Y-110011776D01*
X79363171Y-109107015D02*
X79696504Y-110107015D01*
X79696504Y-110107015D02*
X80029837Y-109107015D01*
X80267933Y-109107015D02*
X80886980Y-109107015D01*
X80886980Y-109107015D02*
X80553647Y-109487967D01*
X80553647Y-109487967D02*
X80696504Y-109487967D01*
X80696504Y-109487967D02*
X80791742Y-109535586D01*
X80791742Y-109535586D02*
X80839361Y-109583205D01*
X80839361Y-109583205D02*
X80886980Y-109678443D01*
X80886980Y-109678443D02*
X80886980Y-109916538D01*
X80886980Y-109916538D02*
X80839361Y-110011776D01*
X80839361Y-110011776D02*
X80791742Y-110059396D01*
X80791742Y-110059396D02*
X80696504Y-110107015D01*
X80696504Y-110107015D02*
X80410790Y-110107015D01*
X80410790Y-110107015D02*
X80315552Y-110059396D01*
X80315552Y-110059396D02*
X80267933Y-110011776D01*
X100080075Y-103788776D02*
X100032456Y-103836396D01*
X100032456Y-103836396D02*
X99889599Y-103884015D01*
X99889599Y-103884015D02*
X99794361Y-103884015D01*
X99794361Y-103884015D02*
X99651504Y-103836396D01*
X99651504Y-103836396D02*
X99556266Y-103741157D01*
X99556266Y-103741157D02*
X99508647Y-103645919D01*
X99508647Y-103645919D02*
X99461028Y-103455443D01*
X99461028Y-103455443D02*
X99461028Y-103312586D01*
X99461028Y-103312586D02*
X99508647Y-103122110D01*
X99508647Y-103122110D02*
X99556266Y-103026872D01*
X99556266Y-103026872D02*
X99651504Y-102931634D01*
X99651504Y-102931634D02*
X99794361Y-102884015D01*
X99794361Y-102884015D02*
X99889599Y-102884015D01*
X99889599Y-102884015D02*
X100032456Y-102931634D01*
X100032456Y-102931634D02*
X100080075Y-102979253D01*
X100984837Y-103884015D02*
X100508647Y-103884015D01*
X100508647Y-103884015D02*
X100508647Y-102884015D01*
X101318171Y-103884015D02*
X101318171Y-102884015D01*
X101889599Y-103884015D02*
X101461028Y-103312586D01*
X101889599Y-102884015D02*
X101318171Y-103455443D01*
X41945837Y-116092015D02*
X41469647Y-116092015D01*
X41469647Y-116092015D02*
X41422028Y-116568205D01*
X41422028Y-116568205D02*
X41469647Y-116520586D01*
X41469647Y-116520586D02*
X41564885Y-116472967D01*
X41564885Y-116472967D02*
X41802980Y-116472967D01*
X41802980Y-116472967D02*
X41898218Y-116520586D01*
X41898218Y-116520586D02*
X41945837Y-116568205D01*
X41945837Y-116568205D02*
X41993456Y-116663443D01*
X41993456Y-116663443D02*
X41993456Y-116901538D01*
X41993456Y-116901538D02*
X41945837Y-116996776D01*
X41945837Y-116996776D02*
X41898218Y-117044396D01*
X41898218Y-117044396D02*
X41802980Y-117092015D01*
X41802980Y-117092015D02*
X41564885Y-117092015D01*
X41564885Y-117092015D02*
X41469647Y-117044396D01*
X41469647Y-117044396D02*
X41422028Y-116996776D01*
X42279171Y-116092015D02*
X42612504Y-117092015D01*
X42612504Y-117092015D02*
X42945837Y-116092015D01*
D12*
X56848476Y-88735819D02*
X56848476Y-89450104D01*
X56848476Y-89450104D02*
X56800857Y-89592961D01*
X56800857Y-89592961D02*
X56705619Y-89688200D01*
X56705619Y-89688200D02*
X56562762Y-89735819D01*
X56562762Y-89735819D02*
X56467524Y-89735819D01*
X57848476Y-89735819D02*
X57277048Y-89735819D01*
X57562762Y-89735819D02*
X57562762Y-88735819D01*
X57562762Y-88735819D02*
X57467524Y-88878676D01*
X57467524Y-88878676D02*
X57372286Y-88973914D01*
X57372286Y-88973914D02*
X57277048Y-89021533D01*
X58467524Y-88735819D02*
X58562762Y-88735819D01*
X58562762Y-88735819D02*
X58658000Y-88783438D01*
X58658000Y-88783438D02*
X58705619Y-88831057D01*
X58705619Y-88831057D02*
X58753238Y-88926295D01*
X58753238Y-88926295D02*
X58800857Y-89116771D01*
X58800857Y-89116771D02*
X58800857Y-89354866D01*
X58800857Y-89354866D02*
X58753238Y-89545342D01*
X58753238Y-89545342D02*
X58705619Y-89640580D01*
X58705619Y-89640580D02*
X58658000Y-89688200D01*
X58658000Y-89688200D02*
X58562762Y-89735819D01*
X58562762Y-89735819D02*
X58467524Y-89735819D01*
X58467524Y-89735819D02*
X58372286Y-89688200D01*
X58372286Y-89688200D02*
X58324667Y-89640580D01*
X58324667Y-89640580D02*
X58277048Y-89545342D01*
X58277048Y-89545342D02*
X58229429Y-89354866D01*
X58229429Y-89354866D02*
X58229429Y-89116771D01*
X58229429Y-89116771D02*
X58277048Y-88926295D01*
X58277048Y-88926295D02*
X58324667Y-88831057D01*
X58324667Y-88831057D02*
X58372286Y-88783438D01*
X58372286Y-88783438D02*
X58467524Y-88735819D01*
X146732666Y-143345819D02*
X146732666Y-144060104D01*
X146732666Y-144060104D02*
X146685047Y-144202961D01*
X146685047Y-144202961D02*
X146589809Y-144298200D01*
X146589809Y-144298200D02*
X146446952Y-144345819D01*
X146446952Y-144345819D02*
X146351714Y-144345819D01*
X147256476Y-144345819D02*
X147446952Y-144345819D01*
X147446952Y-144345819D02*
X147542190Y-144298200D01*
X147542190Y-144298200D02*
X147589809Y-144250580D01*
X147589809Y-144250580D02*
X147685047Y-144107723D01*
X147685047Y-144107723D02*
X147732666Y-143917247D01*
X147732666Y-143917247D02*
X147732666Y-143536295D01*
X147732666Y-143536295D02*
X147685047Y-143441057D01*
X147685047Y-143441057D02*
X147637428Y-143393438D01*
X147637428Y-143393438D02*
X147542190Y-143345819D01*
X147542190Y-143345819D02*
X147351714Y-143345819D01*
X147351714Y-143345819D02*
X147256476Y-143393438D01*
X147256476Y-143393438D02*
X147208857Y-143441057D01*
X147208857Y-143441057D02*
X147161238Y-143536295D01*
X147161238Y-143536295D02*
X147161238Y-143774390D01*
X147161238Y-143774390D02*
X147208857Y-143869628D01*
X147208857Y-143869628D02*
X147256476Y-143917247D01*
X147256476Y-143917247D02*
X147351714Y-143964866D01*
X147351714Y-143964866D02*
X147542190Y-143964866D01*
X147542190Y-143964866D02*
X147637428Y-143917247D01*
X147637428Y-143917247D02*
X147685047Y-143869628D01*
X147685047Y-143869628D02*
X147732666Y-143774390D01*
X85518666Y-163411819D02*
X85518666Y-164126104D01*
X85518666Y-164126104D02*
X85471047Y-164268961D01*
X85471047Y-164268961D02*
X85375809Y-164364200D01*
X85375809Y-164364200D02*
X85232952Y-164411819D01*
X85232952Y-164411819D02*
X85137714Y-164411819D01*
X86137714Y-163840390D02*
X86042476Y-163792771D01*
X86042476Y-163792771D02*
X85994857Y-163745152D01*
X85994857Y-163745152D02*
X85947238Y-163649914D01*
X85947238Y-163649914D02*
X85947238Y-163602295D01*
X85947238Y-163602295D02*
X85994857Y-163507057D01*
X85994857Y-163507057D02*
X86042476Y-163459438D01*
X86042476Y-163459438D02*
X86137714Y-163411819D01*
X86137714Y-163411819D02*
X86328190Y-163411819D01*
X86328190Y-163411819D02*
X86423428Y-163459438D01*
X86423428Y-163459438D02*
X86471047Y-163507057D01*
X86471047Y-163507057D02*
X86518666Y-163602295D01*
X86518666Y-163602295D02*
X86518666Y-163649914D01*
X86518666Y-163649914D02*
X86471047Y-163745152D01*
X86471047Y-163745152D02*
X86423428Y-163792771D01*
X86423428Y-163792771D02*
X86328190Y-163840390D01*
X86328190Y-163840390D02*
X86137714Y-163840390D01*
X86137714Y-163840390D02*
X86042476Y-163888009D01*
X86042476Y-163888009D02*
X85994857Y-163935628D01*
X85994857Y-163935628D02*
X85947238Y-164030866D01*
X85947238Y-164030866D02*
X85947238Y-164221342D01*
X85947238Y-164221342D02*
X85994857Y-164316580D01*
X85994857Y-164316580D02*
X86042476Y-164364200D01*
X86042476Y-164364200D02*
X86137714Y-164411819D01*
X86137714Y-164411819D02*
X86328190Y-164411819D01*
X86328190Y-164411819D02*
X86423428Y-164364200D01*
X86423428Y-164364200D02*
X86471047Y-164316580D01*
X86471047Y-164316580D02*
X86518666Y-164221342D01*
X86518666Y-164221342D02*
X86518666Y-164030866D01*
X86518666Y-164030866D02*
X86471047Y-163935628D01*
X86471047Y-163935628D02*
X86423428Y-163888009D01*
X86423428Y-163888009D02*
X86328190Y-163840390D01*
X106600666Y-163411819D02*
X106600666Y-164126104D01*
X106600666Y-164126104D02*
X106553047Y-164268961D01*
X106553047Y-164268961D02*
X106457809Y-164364200D01*
X106457809Y-164364200D02*
X106314952Y-164411819D01*
X106314952Y-164411819D02*
X106219714Y-164411819D01*
X107505428Y-163411819D02*
X107314952Y-163411819D01*
X107314952Y-163411819D02*
X107219714Y-163459438D01*
X107219714Y-163459438D02*
X107172095Y-163507057D01*
X107172095Y-163507057D02*
X107076857Y-163649914D01*
X107076857Y-163649914D02*
X107029238Y-163840390D01*
X107029238Y-163840390D02*
X107029238Y-164221342D01*
X107029238Y-164221342D02*
X107076857Y-164316580D01*
X107076857Y-164316580D02*
X107124476Y-164364200D01*
X107124476Y-164364200D02*
X107219714Y-164411819D01*
X107219714Y-164411819D02*
X107410190Y-164411819D01*
X107410190Y-164411819D02*
X107505428Y-164364200D01*
X107505428Y-164364200D02*
X107553047Y-164316580D01*
X107553047Y-164316580D02*
X107600666Y-164221342D01*
X107600666Y-164221342D02*
X107600666Y-163983247D01*
X107600666Y-163983247D02*
X107553047Y-163888009D01*
X107553047Y-163888009D02*
X107505428Y-163840390D01*
X107505428Y-163840390D02*
X107410190Y-163792771D01*
X107410190Y-163792771D02*
X107219714Y-163792771D01*
X107219714Y-163792771D02*
X107124476Y-163840390D01*
X107124476Y-163840390D02*
X107076857Y-163888009D01*
X107076857Y-163888009D02*
X107029238Y-163983247D01*
X120062666Y-88608819D02*
X120062666Y-89323104D01*
X120062666Y-89323104D02*
X120015047Y-89465961D01*
X120015047Y-89465961D02*
X119919809Y-89561200D01*
X119919809Y-89561200D02*
X119776952Y-89608819D01*
X119776952Y-89608819D02*
X119681714Y-89608819D01*
X121015047Y-88608819D02*
X120538857Y-88608819D01*
X120538857Y-88608819D02*
X120491238Y-89085009D01*
X120491238Y-89085009D02*
X120538857Y-89037390D01*
X120538857Y-89037390D02*
X120634095Y-88989771D01*
X120634095Y-88989771D02*
X120872190Y-88989771D01*
X120872190Y-88989771D02*
X120967428Y-89037390D01*
X120967428Y-89037390D02*
X121015047Y-89085009D01*
X121015047Y-89085009D02*
X121062666Y-89180247D01*
X121062666Y-89180247D02*
X121062666Y-89418342D01*
X121062666Y-89418342D02*
X121015047Y-89513580D01*
X121015047Y-89513580D02*
X120967428Y-89561200D01*
X120967428Y-89561200D02*
X120872190Y-89608819D01*
X120872190Y-89608819D02*
X120634095Y-89608819D01*
X120634095Y-89608819D02*
X120538857Y-89561200D01*
X120538857Y-89561200D02*
X120491238Y-89513580D01*
X94281666Y-88608819D02*
X94281666Y-89323104D01*
X94281666Y-89323104D02*
X94234047Y-89465961D01*
X94234047Y-89465961D02*
X94138809Y-89561200D01*
X94138809Y-89561200D02*
X93995952Y-89608819D01*
X93995952Y-89608819D02*
X93900714Y-89608819D01*
X95186428Y-88942152D02*
X95186428Y-89608819D01*
X94948333Y-88561200D02*
X94710238Y-89275485D01*
X94710238Y-89275485D02*
X95329285Y-89275485D01*
X57832666Y-163538819D02*
X57832666Y-164253104D01*
X57832666Y-164253104D02*
X57785047Y-164395961D01*
X57785047Y-164395961D02*
X57689809Y-164491200D01*
X57689809Y-164491200D02*
X57546952Y-164538819D01*
X57546952Y-164538819D02*
X57451714Y-164538819D01*
X58261238Y-163634057D02*
X58308857Y-163586438D01*
X58308857Y-163586438D02*
X58404095Y-163538819D01*
X58404095Y-163538819D02*
X58642190Y-163538819D01*
X58642190Y-163538819D02*
X58737428Y-163586438D01*
X58737428Y-163586438D02*
X58785047Y-163634057D01*
X58785047Y-163634057D02*
X58832666Y-163729295D01*
X58832666Y-163729295D02*
X58832666Y-163824533D01*
X58832666Y-163824533D02*
X58785047Y-163967390D01*
X58785047Y-163967390D02*
X58213619Y-164538819D01*
X58213619Y-164538819D02*
X58832666Y-164538819D01*
X31543666Y-136487819D02*
X31543666Y-137202104D01*
X31543666Y-137202104D02*
X31496047Y-137344961D01*
X31496047Y-137344961D02*
X31400809Y-137440200D01*
X31400809Y-137440200D02*
X31257952Y-137487819D01*
X31257952Y-137487819D02*
X31162714Y-137487819D01*
X32543666Y-137487819D02*
X31972238Y-137487819D01*
X32257952Y-137487819D02*
X32257952Y-136487819D01*
X32257952Y-136487819D02*
X32162714Y-136630676D01*
X32162714Y-136630676D02*
X32067476Y-136725914D01*
X32067476Y-136725914D02*
X31972238Y-136773533D01*
X67564095Y-129756819D02*
X67564095Y-130566342D01*
X67564095Y-130566342D02*
X67611714Y-130661580D01*
X67611714Y-130661580D02*
X67659333Y-130709200D01*
X67659333Y-130709200D02*
X67754571Y-130756819D01*
X67754571Y-130756819D02*
X67945047Y-130756819D01*
X67945047Y-130756819D02*
X68040285Y-130709200D01*
X68040285Y-130709200D02*
X68087904Y-130661580D01*
X68087904Y-130661580D02*
X68135523Y-130566342D01*
X68135523Y-130566342D02*
X68135523Y-129756819D01*
X69040285Y-129756819D02*
X68849809Y-129756819D01*
X68849809Y-129756819D02*
X68754571Y-129804438D01*
X68754571Y-129804438D02*
X68706952Y-129852057D01*
X68706952Y-129852057D02*
X68611714Y-129994914D01*
X68611714Y-129994914D02*
X68564095Y-130185390D01*
X68564095Y-130185390D02*
X68564095Y-130566342D01*
X68564095Y-130566342D02*
X68611714Y-130661580D01*
X68611714Y-130661580D02*
X68659333Y-130709200D01*
X68659333Y-130709200D02*
X68754571Y-130756819D01*
X68754571Y-130756819D02*
X68945047Y-130756819D01*
X68945047Y-130756819D02*
X69040285Y-130709200D01*
X69040285Y-130709200D02*
X69087904Y-130661580D01*
X69087904Y-130661580D02*
X69135523Y-130566342D01*
X69135523Y-130566342D02*
X69135523Y-130328247D01*
X69135523Y-130328247D02*
X69087904Y-130233009D01*
X69087904Y-130233009D02*
X69040285Y-130185390D01*
X69040285Y-130185390D02*
X68945047Y-130137771D01*
X68945047Y-130137771D02*
X68754571Y-130137771D01*
X68754571Y-130137771D02*
X68659333Y-130185390D01*
X68659333Y-130185390D02*
X68611714Y-130233009D01*
X68611714Y-130233009D02*
X68564095Y-130328247D01*
X117072580Y-110910666D02*
X117120200Y-110958285D01*
X117120200Y-110958285D02*
X117167819Y-111101142D01*
X117167819Y-111101142D02*
X117167819Y-111196380D01*
X117167819Y-111196380D02*
X117120200Y-111339237D01*
X117120200Y-111339237D02*
X117024961Y-111434475D01*
X117024961Y-111434475D02*
X116929723Y-111482094D01*
X116929723Y-111482094D02*
X116739247Y-111529713D01*
X116739247Y-111529713D02*
X116596390Y-111529713D01*
X116596390Y-111529713D02*
X116405914Y-111482094D01*
X116405914Y-111482094D02*
X116310676Y-111434475D01*
X116310676Y-111434475D02*
X116215438Y-111339237D01*
X116215438Y-111339237D02*
X116167819Y-111196380D01*
X116167819Y-111196380D02*
X116167819Y-111101142D01*
X116167819Y-111101142D02*
X116215438Y-110958285D01*
X116215438Y-110958285D02*
X116263057Y-110910666D01*
X116167819Y-110577332D02*
X116167819Y-109910666D01*
X116167819Y-109910666D02*
X117167819Y-110339237D01*
X115911333Y-152566819D02*
X115435143Y-152566819D01*
X115435143Y-152566819D02*
X115435143Y-151566819D01*
X116768476Y-152566819D02*
X116197048Y-152566819D01*
X116482762Y-152566819D02*
X116482762Y-151566819D01*
X116482762Y-151566819D02*
X116387524Y-151709676D01*
X116387524Y-151709676D02*
X116292286Y-151804914D01*
X116292286Y-151804914D02*
X116197048Y-151852533D01*
X121785142Y-128756580D02*
X121737523Y-128804200D01*
X121737523Y-128804200D02*
X121594666Y-128851819D01*
X121594666Y-128851819D02*
X121499428Y-128851819D01*
X121499428Y-128851819D02*
X121356571Y-128804200D01*
X121356571Y-128804200D02*
X121261333Y-128708961D01*
X121261333Y-128708961D02*
X121213714Y-128613723D01*
X121213714Y-128613723D02*
X121166095Y-128423247D01*
X121166095Y-128423247D02*
X121166095Y-128280390D01*
X121166095Y-128280390D02*
X121213714Y-128089914D01*
X121213714Y-128089914D02*
X121261333Y-127994676D01*
X121261333Y-127994676D02*
X121356571Y-127899438D01*
X121356571Y-127899438D02*
X121499428Y-127851819D01*
X121499428Y-127851819D02*
X121594666Y-127851819D01*
X121594666Y-127851819D02*
X121737523Y-127899438D01*
X121737523Y-127899438D02*
X121785142Y-127947057D01*
X122642285Y-128185152D02*
X122642285Y-128851819D01*
X122404190Y-127804200D02*
X122166095Y-128518485D01*
X122166095Y-128518485D02*
X122785142Y-128518485D01*
X123070857Y-127851819D02*
X123737523Y-127851819D01*
X123737523Y-127851819D02*
X123308952Y-128851819D01*
X108466095Y-116624819D02*
X109037523Y-116624819D01*
X108751809Y-117624819D02*
X108751809Y-116624819D01*
X109370857Y-117624819D02*
X109370857Y-116624819D01*
X109370857Y-116624819D02*
X109751809Y-116624819D01*
X109751809Y-116624819D02*
X109847047Y-116672438D01*
X109847047Y-116672438D02*
X109894666Y-116720057D01*
X109894666Y-116720057D02*
X109942285Y-116815295D01*
X109942285Y-116815295D02*
X109942285Y-116958152D01*
X109942285Y-116958152D02*
X109894666Y-117053390D01*
X109894666Y-117053390D02*
X109847047Y-117101009D01*
X109847047Y-117101009D02*
X109751809Y-117148628D01*
X109751809Y-117148628D02*
X109370857Y-117148628D01*
X110799428Y-116624819D02*
X110608952Y-116624819D01*
X110608952Y-116624819D02*
X110513714Y-116672438D01*
X110513714Y-116672438D02*
X110466095Y-116720057D01*
X110466095Y-116720057D02*
X110370857Y-116862914D01*
X110370857Y-116862914D02*
X110323238Y-117053390D01*
X110323238Y-117053390D02*
X110323238Y-117434342D01*
X110323238Y-117434342D02*
X110370857Y-117529580D01*
X110370857Y-117529580D02*
X110418476Y-117577200D01*
X110418476Y-117577200D02*
X110513714Y-117624819D01*
X110513714Y-117624819D02*
X110704190Y-117624819D01*
X110704190Y-117624819D02*
X110799428Y-117577200D01*
X110799428Y-117577200D02*
X110847047Y-117529580D01*
X110847047Y-117529580D02*
X110894666Y-117434342D01*
X110894666Y-117434342D02*
X110894666Y-117196247D01*
X110894666Y-117196247D02*
X110847047Y-117101009D01*
X110847047Y-117101009D02*
X110799428Y-117053390D01*
X110799428Y-117053390D02*
X110704190Y-117005771D01*
X110704190Y-117005771D02*
X110513714Y-117005771D01*
X110513714Y-117005771D02*
X110418476Y-117053390D01*
X110418476Y-117053390D02*
X110370857Y-117101009D01*
X110370857Y-117101009D02*
X110323238Y-117196247D01*
X70353580Y-155868666D02*
X70401200Y-155916285D01*
X70401200Y-155916285D02*
X70448819Y-156059142D01*
X70448819Y-156059142D02*
X70448819Y-156154380D01*
X70448819Y-156154380D02*
X70401200Y-156297237D01*
X70401200Y-156297237D02*
X70305961Y-156392475D01*
X70305961Y-156392475D02*
X70210723Y-156440094D01*
X70210723Y-156440094D02*
X70020247Y-156487713D01*
X70020247Y-156487713D02*
X69877390Y-156487713D01*
X69877390Y-156487713D02*
X69686914Y-156440094D01*
X69686914Y-156440094D02*
X69591676Y-156392475D01*
X69591676Y-156392475D02*
X69496438Y-156297237D01*
X69496438Y-156297237D02*
X69448819Y-156154380D01*
X69448819Y-156154380D02*
X69448819Y-156059142D01*
X69448819Y-156059142D02*
X69496438Y-155916285D01*
X69496438Y-155916285D02*
X69544057Y-155868666D01*
X70448819Y-154916285D02*
X70448819Y-155487713D01*
X70448819Y-155201999D02*
X69448819Y-155201999D01*
X69448819Y-155201999D02*
X69591676Y-155297237D01*
X69591676Y-155297237D02*
X69686914Y-155392475D01*
X69686914Y-155392475D02*
X69734533Y-155487713D01*
X116197142Y-149806819D02*
X115863809Y-149330628D01*
X115625714Y-149806819D02*
X115625714Y-148806819D01*
X115625714Y-148806819D02*
X116006666Y-148806819D01*
X116006666Y-148806819D02*
X116101904Y-148854438D01*
X116101904Y-148854438D02*
X116149523Y-148902057D01*
X116149523Y-148902057D02*
X116197142Y-148997295D01*
X116197142Y-148997295D02*
X116197142Y-149140152D01*
X116197142Y-149140152D02*
X116149523Y-149235390D01*
X116149523Y-149235390D02*
X116101904Y-149283009D01*
X116101904Y-149283009D02*
X116006666Y-149330628D01*
X116006666Y-149330628D02*
X115625714Y-149330628D01*
X117149523Y-149806819D02*
X116578095Y-149806819D01*
X116863809Y-149806819D02*
X116863809Y-148806819D01*
X116863809Y-148806819D02*
X116768571Y-148949676D01*
X116768571Y-148949676D02*
X116673333Y-149044914D01*
X116673333Y-149044914D02*
X116578095Y-149092533D01*
X118006666Y-148806819D02*
X117816190Y-148806819D01*
X117816190Y-148806819D02*
X117720952Y-148854438D01*
X117720952Y-148854438D02*
X117673333Y-148902057D01*
X117673333Y-148902057D02*
X117578095Y-149044914D01*
X117578095Y-149044914D02*
X117530476Y-149235390D01*
X117530476Y-149235390D02*
X117530476Y-149616342D01*
X117530476Y-149616342D02*
X117578095Y-149711580D01*
X117578095Y-149711580D02*
X117625714Y-149759200D01*
X117625714Y-149759200D02*
X117720952Y-149806819D01*
X117720952Y-149806819D02*
X117911428Y-149806819D01*
X117911428Y-149806819D02*
X118006666Y-149759200D01*
X118006666Y-149759200D02*
X118054285Y-149711580D01*
X118054285Y-149711580D02*
X118101904Y-149616342D01*
X118101904Y-149616342D02*
X118101904Y-149378247D01*
X118101904Y-149378247D02*
X118054285Y-149283009D01*
X118054285Y-149283009D02*
X118006666Y-149235390D01*
X118006666Y-149235390D02*
X117911428Y-149187771D01*
X117911428Y-149187771D02*
X117720952Y-149187771D01*
X117720952Y-149187771D02*
X117625714Y-149235390D01*
X117625714Y-149235390D02*
X117578095Y-149283009D01*
X117578095Y-149283009D02*
X117530476Y-149378247D01*
X72342476Y-159503819D02*
X72342476Y-160218104D01*
X72342476Y-160218104D02*
X72294857Y-160360961D01*
X72294857Y-160360961D02*
X72199619Y-160456200D01*
X72199619Y-160456200D02*
X72056762Y-160503819D01*
X72056762Y-160503819D02*
X71961524Y-160503819D01*
X72771048Y-159599057D02*
X72818667Y-159551438D01*
X72818667Y-159551438D02*
X72913905Y-159503819D01*
X72913905Y-159503819D02*
X73152000Y-159503819D01*
X73152000Y-159503819D02*
X73247238Y-159551438D01*
X73247238Y-159551438D02*
X73294857Y-159599057D01*
X73294857Y-159599057D02*
X73342476Y-159694295D01*
X73342476Y-159694295D02*
X73342476Y-159789533D01*
X73342476Y-159789533D02*
X73294857Y-159932390D01*
X73294857Y-159932390D02*
X72723429Y-160503819D01*
X72723429Y-160503819D02*
X73342476Y-160503819D01*
X74294857Y-160503819D02*
X73723429Y-160503819D01*
X74009143Y-160503819D02*
X74009143Y-159503819D01*
X74009143Y-159503819D02*
X73913905Y-159646676D01*
X73913905Y-159646676D02*
X73818667Y-159741914D01*
X73818667Y-159741914D02*
X73723429Y-159789533D01*
X117072580Y-115228666D02*
X117120200Y-115276285D01*
X117120200Y-115276285D02*
X117167819Y-115419142D01*
X117167819Y-115419142D02*
X117167819Y-115514380D01*
X117167819Y-115514380D02*
X117120200Y-115657237D01*
X117120200Y-115657237D02*
X117024961Y-115752475D01*
X117024961Y-115752475D02*
X116929723Y-115800094D01*
X116929723Y-115800094D02*
X116739247Y-115847713D01*
X116739247Y-115847713D02*
X116596390Y-115847713D01*
X116596390Y-115847713D02*
X116405914Y-115800094D01*
X116405914Y-115800094D02*
X116310676Y-115752475D01*
X116310676Y-115752475D02*
X116215438Y-115657237D01*
X116215438Y-115657237D02*
X116167819Y-115514380D01*
X116167819Y-115514380D02*
X116167819Y-115419142D01*
X116167819Y-115419142D02*
X116215438Y-115276285D01*
X116215438Y-115276285D02*
X116263057Y-115228666D01*
X116167819Y-114323904D02*
X116167819Y-114800094D01*
X116167819Y-114800094D02*
X116644009Y-114847713D01*
X116644009Y-114847713D02*
X116596390Y-114800094D01*
X116596390Y-114800094D02*
X116548771Y-114704856D01*
X116548771Y-114704856D02*
X116548771Y-114466761D01*
X116548771Y-114466761D02*
X116596390Y-114371523D01*
X116596390Y-114371523D02*
X116644009Y-114323904D01*
X116644009Y-114323904D02*
X116739247Y-114276285D01*
X116739247Y-114276285D02*
X116977342Y-114276285D01*
X116977342Y-114276285D02*
X117072580Y-114323904D01*
X117072580Y-114323904D02*
X117120200Y-114371523D01*
X117120200Y-114371523D02*
X117167819Y-114466761D01*
X117167819Y-114466761D02*
X117167819Y-114704856D01*
X117167819Y-114704856D02*
X117120200Y-114800094D01*
X117120200Y-114800094D02*
X117072580Y-114847713D01*
X91527333Y-113898819D02*
X91194000Y-113422628D01*
X90955905Y-113898819D02*
X90955905Y-112898819D01*
X90955905Y-112898819D02*
X91336857Y-112898819D01*
X91336857Y-112898819D02*
X91432095Y-112946438D01*
X91432095Y-112946438D02*
X91479714Y-112994057D01*
X91479714Y-112994057D02*
X91527333Y-113089295D01*
X91527333Y-113089295D02*
X91527333Y-113232152D01*
X91527333Y-113232152D02*
X91479714Y-113327390D01*
X91479714Y-113327390D02*
X91432095Y-113375009D01*
X91432095Y-113375009D02*
X91336857Y-113422628D01*
X91336857Y-113422628D02*
X90955905Y-113422628D01*
X92432095Y-112898819D02*
X91955905Y-112898819D01*
X91955905Y-112898819D02*
X91908286Y-113375009D01*
X91908286Y-113375009D02*
X91955905Y-113327390D01*
X91955905Y-113327390D02*
X92051143Y-113279771D01*
X92051143Y-113279771D02*
X92289238Y-113279771D01*
X92289238Y-113279771D02*
X92384476Y-113327390D01*
X92384476Y-113327390D02*
X92432095Y-113375009D01*
X92432095Y-113375009D02*
X92479714Y-113470247D01*
X92479714Y-113470247D02*
X92479714Y-113708342D01*
X92479714Y-113708342D02*
X92432095Y-113803580D01*
X92432095Y-113803580D02*
X92384476Y-113851200D01*
X92384476Y-113851200D02*
X92289238Y-113898819D01*
X92289238Y-113898819D02*
X92051143Y-113898819D01*
X92051143Y-113898819D02*
X91955905Y-113851200D01*
X91955905Y-113851200D02*
X91908286Y-113803580D01*
X120007142Y-131804580D02*
X119959523Y-131852200D01*
X119959523Y-131852200D02*
X119816666Y-131899819D01*
X119816666Y-131899819D02*
X119721428Y-131899819D01*
X119721428Y-131899819D02*
X119578571Y-131852200D01*
X119578571Y-131852200D02*
X119483333Y-131756961D01*
X119483333Y-131756961D02*
X119435714Y-131661723D01*
X119435714Y-131661723D02*
X119388095Y-131471247D01*
X119388095Y-131471247D02*
X119388095Y-131328390D01*
X119388095Y-131328390D02*
X119435714Y-131137914D01*
X119435714Y-131137914D02*
X119483333Y-131042676D01*
X119483333Y-131042676D02*
X119578571Y-130947438D01*
X119578571Y-130947438D02*
X119721428Y-130899819D01*
X119721428Y-130899819D02*
X119816666Y-130899819D01*
X119816666Y-130899819D02*
X119959523Y-130947438D01*
X119959523Y-130947438D02*
X120007142Y-130995057D01*
X120388095Y-130995057D02*
X120435714Y-130947438D01*
X120435714Y-130947438D02*
X120530952Y-130899819D01*
X120530952Y-130899819D02*
X120769047Y-130899819D01*
X120769047Y-130899819D02*
X120864285Y-130947438D01*
X120864285Y-130947438D02*
X120911904Y-130995057D01*
X120911904Y-130995057D02*
X120959523Y-131090295D01*
X120959523Y-131090295D02*
X120959523Y-131185533D01*
X120959523Y-131185533D02*
X120911904Y-131328390D01*
X120911904Y-131328390D02*
X120340476Y-131899819D01*
X120340476Y-131899819D02*
X120959523Y-131899819D01*
X121292857Y-130899819D02*
X121911904Y-130899819D01*
X121911904Y-130899819D02*
X121578571Y-131280771D01*
X121578571Y-131280771D02*
X121721428Y-131280771D01*
X121721428Y-131280771D02*
X121816666Y-131328390D01*
X121816666Y-131328390D02*
X121864285Y-131376009D01*
X121864285Y-131376009D02*
X121911904Y-131471247D01*
X121911904Y-131471247D02*
X121911904Y-131709342D01*
X121911904Y-131709342D02*
X121864285Y-131804580D01*
X121864285Y-131804580D02*
X121816666Y-131852200D01*
X121816666Y-131852200D02*
X121721428Y-131899819D01*
X121721428Y-131899819D02*
X121435714Y-131899819D01*
X121435714Y-131899819D02*
X121340476Y-131852200D01*
X121340476Y-131852200D02*
X121292857Y-131804580D01*
X107134819Y-109608857D02*
X106658628Y-109942190D01*
X107134819Y-110180285D02*
X106134819Y-110180285D01*
X106134819Y-110180285D02*
X106134819Y-109799333D01*
X106134819Y-109799333D02*
X106182438Y-109704095D01*
X106182438Y-109704095D02*
X106230057Y-109656476D01*
X106230057Y-109656476D02*
X106325295Y-109608857D01*
X106325295Y-109608857D02*
X106468152Y-109608857D01*
X106468152Y-109608857D02*
X106563390Y-109656476D01*
X106563390Y-109656476D02*
X106611009Y-109704095D01*
X106611009Y-109704095D02*
X106658628Y-109799333D01*
X106658628Y-109799333D02*
X106658628Y-110180285D01*
X107134819Y-108656476D02*
X107134819Y-109227904D01*
X107134819Y-108942190D02*
X106134819Y-108942190D01*
X106134819Y-108942190D02*
X106277676Y-109037428D01*
X106277676Y-109037428D02*
X106372914Y-109132666D01*
X106372914Y-109132666D02*
X106420533Y-109227904D01*
X106134819Y-107751714D02*
X106134819Y-108227904D01*
X106134819Y-108227904D02*
X106611009Y-108275523D01*
X106611009Y-108275523D02*
X106563390Y-108227904D01*
X106563390Y-108227904D02*
X106515771Y-108132666D01*
X106515771Y-108132666D02*
X106515771Y-107894571D01*
X106515771Y-107894571D02*
X106563390Y-107799333D01*
X106563390Y-107799333D02*
X106611009Y-107751714D01*
X106611009Y-107751714D02*
X106706247Y-107704095D01*
X106706247Y-107704095D02*
X106944342Y-107704095D01*
X106944342Y-107704095D02*
X107039580Y-107751714D01*
X107039580Y-107751714D02*
X107087200Y-107799333D01*
X107087200Y-107799333D02*
X107134819Y-107894571D01*
X107134819Y-107894571D02*
X107134819Y-108132666D01*
X107134819Y-108132666D02*
X107087200Y-108227904D01*
X107087200Y-108227904D02*
X107039580Y-108275523D01*
X94956333Y-151457819D02*
X94480143Y-151457819D01*
X94480143Y-151457819D02*
X94480143Y-150457819D01*
X95242048Y-150553057D02*
X95289667Y-150505438D01*
X95289667Y-150505438D02*
X95384905Y-150457819D01*
X95384905Y-150457819D02*
X95623000Y-150457819D01*
X95623000Y-150457819D02*
X95718238Y-150505438D01*
X95718238Y-150505438D02*
X95765857Y-150553057D01*
X95765857Y-150553057D02*
X95813476Y-150648295D01*
X95813476Y-150648295D02*
X95813476Y-150743533D01*
X95813476Y-150743533D02*
X95765857Y-150886390D01*
X95765857Y-150886390D02*
X95194429Y-151457819D01*
X95194429Y-151457819D02*
X95813476Y-151457819D01*
X131524476Y-133102819D02*
X131524476Y-133817104D01*
X131524476Y-133817104D02*
X131476857Y-133959961D01*
X131476857Y-133959961D02*
X131381619Y-134055200D01*
X131381619Y-134055200D02*
X131238762Y-134102819D01*
X131238762Y-134102819D02*
X131143524Y-134102819D01*
X132524476Y-134102819D02*
X131953048Y-134102819D01*
X132238762Y-134102819D02*
X132238762Y-133102819D01*
X132238762Y-133102819D02*
X132143524Y-133245676D01*
X132143524Y-133245676D02*
X132048286Y-133340914D01*
X132048286Y-133340914D02*
X131953048Y-133388533D01*
X133095905Y-133531390D02*
X133000667Y-133483771D01*
X133000667Y-133483771D02*
X132953048Y-133436152D01*
X132953048Y-133436152D02*
X132905429Y-133340914D01*
X132905429Y-133340914D02*
X132905429Y-133293295D01*
X132905429Y-133293295D02*
X132953048Y-133198057D01*
X132953048Y-133198057D02*
X133000667Y-133150438D01*
X133000667Y-133150438D02*
X133095905Y-133102819D01*
X133095905Y-133102819D02*
X133286381Y-133102819D01*
X133286381Y-133102819D02*
X133381619Y-133150438D01*
X133381619Y-133150438D02*
X133429238Y-133198057D01*
X133429238Y-133198057D02*
X133476857Y-133293295D01*
X133476857Y-133293295D02*
X133476857Y-133340914D01*
X133476857Y-133340914D02*
X133429238Y-133436152D01*
X133429238Y-133436152D02*
X133381619Y-133483771D01*
X133381619Y-133483771D02*
X133286381Y-133531390D01*
X133286381Y-133531390D02*
X133095905Y-133531390D01*
X133095905Y-133531390D02*
X133000667Y-133579009D01*
X133000667Y-133579009D02*
X132953048Y-133626628D01*
X132953048Y-133626628D02*
X132905429Y-133721866D01*
X132905429Y-133721866D02*
X132905429Y-133912342D01*
X132905429Y-133912342D02*
X132953048Y-134007580D01*
X132953048Y-134007580D02*
X133000667Y-134055200D01*
X133000667Y-134055200D02*
X133095905Y-134102819D01*
X133095905Y-134102819D02*
X133286381Y-134102819D01*
X133286381Y-134102819D02*
X133381619Y-134055200D01*
X133381619Y-134055200D02*
X133429238Y-134007580D01*
X133429238Y-134007580D02*
X133476857Y-133912342D01*
X133476857Y-133912342D02*
X133476857Y-133721866D01*
X133476857Y-133721866D02*
X133429238Y-133626628D01*
X133429238Y-133626628D02*
X133381619Y-133579009D01*
X133381619Y-133579009D02*
X133286381Y-133531390D01*
X70458819Y-153328666D02*
X69982628Y-153661999D01*
X70458819Y-153900094D02*
X69458819Y-153900094D01*
X69458819Y-153900094D02*
X69458819Y-153519142D01*
X69458819Y-153519142D02*
X69506438Y-153423904D01*
X69506438Y-153423904D02*
X69554057Y-153376285D01*
X69554057Y-153376285D02*
X69649295Y-153328666D01*
X69649295Y-153328666D02*
X69792152Y-153328666D01*
X69792152Y-153328666D02*
X69887390Y-153376285D01*
X69887390Y-153376285D02*
X69935009Y-153423904D01*
X69935009Y-153423904D02*
X69982628Y-153519142D01*
X69982628Y-153519142D02*
X69982628Y-153900094D01*
X70458819Y-152376285D02*
X70458819Y-152947713D01*
X70458819Y-152661999D02*
X69458819Y-152661999D01*
X69458819Y-152661999D02*
X69601676Y-152757237D01*
X69601676Y-152757237D02*
X69696914Y-152852475D01*
X69696914Y-152852475D02*
X69744533Y-152947713D01*
X116292333Y-113357819D02*
X115959000Y-112881628D01*
X115720905Y-113357819D02*
X115720905Y-112357819D01*
X115720905Y-112357819D02*
X116101857Y-112357819D01*
X116101857Y-112357819D02*
X116197095Y-112405438D01*
X116197095Y-112405438D02*
X116244714Y-112453057D01*
X116244714Y-112453057D02*
X116292333Y-112548295D01*
X116292333Y-112548295D02*
X116292333Y-112691152D01*
X116292333Y-112691152D02*
X116244714Y-112786390D01*
X116244714Y-112786390D02*
X116197095Y-112834009D01*
X116197095Y-112834009D02*
X116101857Y-112881628D01*
X116101857Y-112881628D02*
X115720905Y-112881628D01*
X116625667Y-112357819D02*
X117244714Y-112357819D01*
X117244714Y-112357819D02*
X116911381Y-112738771D01*
X116911381Y-112738771D02*
X117054238Y-112738771D01*
X117054238Y-112738771D02*
X117149476Y-112786390D01*
X117149476Y-112786390D02*
X117197095Y-112834009D01*
X117197095Y-112834009D02*
X117244714Y-112929247D01*
X117244714Y-112929247D02*
X117244714Y-113167342D01*
X117244714Y-113167342D02*
X117197095Y-113262580D01*
X117197095Y-113262580D02*
X117149476Y-113310200D01*
X117149476Y-113310200D02*
X117054238Y-113357819D01*
X117054238Y-113357819D02*
X116768524Y-113357819D01*
X116768524Y-113357819D02*
X116673286Y-113310200D01*
X116673286Y-113310200D02*
X116625667Y-113262580D01*
X38512905Y-132804819D02*
X38512905Y-133614342D01*
X38512905Y-133614342D02*
X38560524Y-133709580D01*
X38560524Y-133709580D02*
X38608143Y-133757200D01*
X38608143Y-133757200D02*
X38703381Y-133804819D01*
X38703381Y-133804819D02*
X38893857Y-133804819D01*
X38893857Y-133804819D02*
X38989095Y-133757200D01*
X38989095Y-133757200D02*
X39036714Y-133709580D01*
X39036714Y-133709580D02*
X39084333Y-133614342D01*
X39084333Y-133614342D02*
X39084333Y-132804819D01*
X40084333Y-133804819D02*
X39512905Y-133804819D01*
X39798619Y-133804819D02*
X39798619Y-132804819D01*
X39798619Y-132804819D02*
X39703381Y-132947676D01*
X39703381Y-132947676D02*
X39608143Y-133042914D01*
X39608143Y-133042914D02*
X39512905Y-133090533D01*
X40703381Y-132804819D02*
X40798619Y-132804819D01*
X40798619Y-132804819D02*
X40893857Y-132852438D01*
X40893857Y-132852438D02*
X40941476Y-132900057D01*
X40941476Y-132900057D02*
X40989095Y-132995295D01*
X40989095Y-132995295D02*
X41036714Y-133185771D01*
X41036714Y-133185771D02*
X41036714Y-133423866D01*
X41036714Y-133423866D02*
X40989095Y-133614342D01*
X40989095Y-133614342D02*
X40941476Y-133709580D01*
X40941476Y-133709580D02*
X40893857Y-133757200D01*
X40893857Y-133757200D02*
X40798619Y-133804819D01*
X40798619Y-133804819D02*
X40703381Y-133804819D01*
X40703381Y-133804819D02*
X40608143Y-133757200D01*
X40608143Y-133757200D02*
X40560524Y-133709580D01*
X40560524Y-133709580D02*
X40512905Y-133614342D01*
X40512905Y-133614342D02*
X40465286Y-133423866D01*
X40465286Y-133423866D02*
X40465286Y-133185771D01*
X40465286Y-133185771D02*
X40512905Y-132995295D01*
X40512905Y-132995295D02*
X40560524Y-132900057D01*
X40560524Y-132900057D02*
X40608143Y-132852438D01*
X40608143Y-132852438D02*
X40703381Y-132804819D01*
X70353580Y-158408666D02*
X70401200Y-158456285D01*
X70401200Y-158456285D02*
X70448819Y-158599142D01*
X70448819Y-158599142D02*
X70448819Y-158694380D01*
X70448819Y-158694380D02*
X70401200Y-158837237D01*
X70401200Y-158837237D02*
X70305961Y-158932475D01*
X70305961Y-158932475D02*
X70210723Y-158980094D01*
X70210723Y-158980094D02*
X70020247Y-159027713D01*
X70020247Y-159027713D02*
X69877390Y-159027713D01*
X69877390Y-159027713D02*
X69686914Y-158980094D01*
X69686914Y-158980094D02*
X69591676Y-158932475D01*
X69591676Y-158932475D02*
X69496438Y-158837237D01*
X69496438Y-158837237D02*
X69448819Y-158694380D01*
X69448819Y-158694380D02*
X69448819Y-158599142D01*
X69448819Y-158599142D02*
X69496438Y-158456285D01*
X69496438Y-158456285D02*
X69544057Y-158408666D01*
X69544057Y-158027713D02*
X69496438Y-157980094D01*
X69496438Y-157980094D02*
X69448819Y-157884856D01*
X69448819Y-157884856D02*
X69448819Y-157646761D01*
X69448819Y-157646761D02*
X69496438Y-157551523D01*
X69496438Y-157551523D02*
X69544057Y-157503904D01*
X69544057Y-157503904D02*
X69639295Y-157456285D01*
X69639295Y-157456285D02*
X69734533Y-157456285D01*
X69734533Y-157456285D02*
X69877390Y-157503904D01*
X69877390Y-157503904D02*
X70448819Y-158075332D01*
X70448819Y-158075332D02*
X70448819Y-157456285D01*
X95186833Y-115930819D02*
X94853500Y-115454628D01*
X94615405Y-115930819D02*
X94615405Y-114930819D01*
X94615405Y-114930819D02*
X94996357Y-114930819D01*
X94996357Y-114930819D02*
X95091595Y-114978438D01*
X95091595Y-114978438D02*
X95139214Y-115026057D01*
X95139214Y-115026057D02*
X95186833Y-115121295D01*
X95186833Y-115121295D02*
X95186833Y-115264152D01*
X95186833Y-115264152D02*
X95139214Y-115359390D01*
X95139214Y-115359390D02*
X95091595Y-115407009D01*
X95091595Y-115407009D02*
X94996357Y-115454628D01*
X94996357Y-115454628D02*
X94615405Y-115454628D01*
X96043976Y-115264152D02*
X96043976Y-115930819D01*
X95805881Y-114883200D02*
X95567786Y-115597485D01*
X95567786Y-115597485D02*
X96186833Y-115597485D01*
X124692580Y-120403857D02*
X124740200Y-120451476D01*
X124740200Y-120451476D02*
X124787819Y-120594333D01*
X124787819Y-120594333D02*
X124787819Y-120689571D01*
X124787819Y-120689571D02*
X124740200Y-120832428D01*
X124740200Y-120832428D02*
X124644961Y-120927666D01*
X124644961Y-120927666D02*
X124549723Y-120975285D01*
X124549723Y-120975285D02*
X124359247Y-121022904D01*
X124359247Y-121022904D02*
X124216390Y-121022904D01*
X124216390Y-121022904D02*
X124025914Y-120975285D01*
X124025914Y-120975285D02*
X123930676Y-120927666D01*
X123930676Y-120927666D02*
X123835438Y-120832428D01*
X123835438Y-120832428D02*
X123787819Y-120689571D01*
X123787819Y-120689571D02*
X123787819Y-120594333D01*
X123787819Y-120594333D02*
X123835438Y-120451476D01*
X123835438Y-120451476D02*
X123883057Y-120403857D01*
X123883057Y-120022904D02*
X123835438Y-119975285D01*
X123835438Y-119975285D02*
X123787819Y-119880047D01*
X123787819Y-119880047D02*
X123787819Y-119641952D01*
X123787819Y-119641952D02*
X123835438Y-119546714D01*
X123835438Y-119546714D02*
X123883057Y-119499095D01*
X123883057Y-119499095D02*
X123978295Y-119451476D01*
X123978295Y-119451476D02*
X124073533Y-119451476D01*
X124073533Y-119451476D02*
X124216390Y-119499095D01*
X124216390Y-119499095D02*
X124787819Y-120070523D01*
X124787819Y-120070523D02*
X124787819Y-119451476D01*
X123787819Y-118594333D02*
X123787819Y-118784809D01*
X123787819Y-118784809D02*
X123835438Y-118880047D01*
X123835438Y-118880047D02*
X123883057Y-118927666D01*
X123883057Y-118927666D02*
X124025914Y-119022904D01*
X124025914Y-119022904D02*
X124216390Y-119070523D01*
X124216390Y-119070523D02*
X124597342Y-119070523D01*
X124597342Y-119070523D02*
X124692580Y-119022904D01*
X124692580Y-119022904D02*
X124740200Y-118975285D01*
X124740200Y-118975285D02*
X124787819Y-118880047D01*
X124787819Y-118880047D02*
X124787819Y-118689571D01*
X124787819Y-118689571D02*
X124740200Y-118594333D01*
X124740200Y-118594333D02*
X124692580Y-118546714D01*
X124692580Y-118546714D02*
X124597342Y-118499095D01*
X124597342Y-118499095D02*
X124359247Y-118499095D01*
X124359247Y-118499095D02*
X124264009Y-118546714D01*
X124264009Y-118546714D02*
X124216390Y-118594333D01*
X124216390Y-118594333D02*
X124168771Y-118689571D01*
X124168771Y-118689571D02*
X124168771Y-118880047D01*
X124168771Y-118880047D02*
X124216390Y-118975285D01*
X124216390Y-118975285D02*
X124264009Y-119022904D01*
X124264009Y-119022904D02*
X124359247Y-119070523D01*
X38179476Y-119342819D02*
X38179476Y-120057104D01*
X38179476Y-120057104D02*
X38131857Y-120199961D01*
X38131857Y-120199961D02*
X38036619Y-120295200D01*
X38036619Y-120295200D02*
X37893762Y-120342819D01*
X37893762Y-120342819D02*
X37798524Y-120342819D01*
X39179476Y-120342819D02*
X38608048Y-120342819D01*
X38893762Y-120342819D02*
X38893762Y-119342819D01*
X38893762Y-119342819D02*
X38798524Y-119485676D01*
X38798524Y-119485676D02*
X38703286Y-119580914D01*
X38703286Y-119580914D02*
X38608048Y-119628533D01*
X39512810Y-119342819D02*
X40131857Y-119342819D01*
X40131857Y-119342819D02*
X39798524Y-119723771D01*
X39798524Y-119723771D02*
X39941381Y-119723771D01*
X39941381Y-119723771D02*
X40036619Y-119771390D01*
X40036619Y-119771390D02*
X40084238Y-119819009D01*
X40084238Y-119819009D02*
X40131857Y-119914247D01*
X40131857Y-119914247D02*
X40131857Y-120152342D01*
X40131857Y-120152342D02*
X40084238Y-120247580D01*
X40084238Y-120247580D02*
X40036619Y-120295200D01*
X40036619Y-120295200D02*
X39941381Y-120342819D01*
X39941381Y-120342819D02*
X39655667Y-120342819D01*
X39655667Y-120342819D02*
X39560429Y-120295200D01*
X39560429Y-120295200D02*
X39512810Y-120247580D01*
X126089580Y-116593857D02*
X126137200Y-116641476D01*
X126137200Y-116641476D02*
X126184819Y-116784333D01*
X126184819Y-116784333D02*
X126184819Y-116879571D01*
X126184819Y-116879571D02*
X126137200Y-117022428D01*
X126137200Y-117022428D02*
X126041961Y-117117666D01*
X126041961Y-117117666D02*
X125946723Y-117165285D01*
X125946723Y-117165285D02*
X125756247Y-117212904D01*
X125756247Y-117212904D02*
X125613390Y-117212904D01*
X125613390Y-117212904D02*
X125422914Y-117165285D01*
X125422914Y-117165285D02*
X125327676Y-117117666D01*
X125327676Y-117117666D02*
X125232438Y-117022428D01*
X125232438Y-117022428D02*
X125184819Y-116879571D01*
X125184819Y-116879571D02*
X125184819Y-116784333D01*
X125184819Y-116784333D02*
X125232438Y-116641476D01*
X125232438Y-116641476D02*
X125280057Y-116593857D01*
X125184819Y-116260523D02*
X125184819Y-115641476D01*
X125184819Y-115641476D02*
X125565771Y-115974809D01*
X125565771Y-115974809D02*
X125565771Y-115831952D01*
X125565771Y-115831952D02*
X125613390Y-115736714D01*
X125613390Y-115736714D02*
X125661009Y-115689095D01*
X125661009Y-115689095D02*
X125756247Y-115641476D01*
X125756247Y-115641476D02*
X125994342Y-115641476D01*
X125994342Y-115641476D02*
X126089580Y-115689095D01*
X126089580Y-115689095D02*
X126137200Y-115736714D01*
X126137200Y-115736714D02*
X126184819Y-115831952D01*
X126184819Y-115831952D02*
X126184819Y-116117666D01*
X126184819Y-116117666D02*
X126137200Y-116212904D01*
X126137200Y-116212904D02*
X126089580Y-116260523D01*
X125184819Y-115022428D02*
X125184819Y-114927190D01*
X125184819Y-114927190D02*
X125232438Y-114831952D01*
X125232438Y-114831952D02*
X125280057Y-114784333D01*
X125280057Y-114784333D02*
X125375295Y-114736714D01*
X125375295Y-114736714D02*
X125565771Y-114689095D01*
X125565771Y-114689095D02*
X125803866Y-114689095D01*
X125803866Y-114689095D02*
X125994342Y-114736714D01*
X125994342Y-114736714D02*
X126089580Y-114784333D01*
X126089580Y-114784333D02*
X126137200Y-114831952D01*
X126137200Y-114831952D02*
X126184819Y-114927190D01*
X126184819Y-114927190D02*
X126184819Y-115022428D01*
X126184819Y-115022428D02*
X126137200Y-115117666D01*
X126137200Y-115117666D02*
X126089580Y-115165285D01*
X126089580Y-115165285D02*
X125994342Y-115212904D01*
X125994342Y-115212904D02*
X125803866Y-115260523D01*
X125803866Y-115260523D02*
X125565771Y-115260523D01*
X125565771Y-115260523D02*
X125375295Y-115212904D01*
X125375295Y-115212904D02*
X125280057Y-115165285D01*
X125280057Y-115165285D02*
X125232438Y-115117666D01*
X125232438Y-115117666D02*
X125184819Y-115022428D01*
X111357580Y-115355666D02*
X111405200Y-115403285D01*
X111405200Y-115403285D02*
X111452819Y-115546142D01*
X111452819Y-115546142D02*
X111452819Y-115641380D01*
X111452819Y-115641380D02*
X111405200Y-115784237D01*
X111405200Y-115784237D02*
X111309961Y-115879475D01*
X111309961Y-115879475D02*
X111214723Y-115927094D01*
X111214723Y-115927094D02*
X111024247Y-115974713D01*
X111024247Y-115974713D02*
X110881390Y-115974713D01*
X110881390Y-115974713D02*
X110690914Y-115927094D01*
X110690914Y-115927094D02*
X110595676Y-115879475D01*
X110595676Y-115879475D02*
X110500438Y-115784237D01*
X110500438Y-115784237D02*
X110452819Y-115641380D01*
X110452819Y-115641380D02*
X110452819Y-115546142D01*
X110452819Y-115546142D02*
X110500438Y-115403285D01*
X110500438Y-115403285D02*
X110548057Y-115355666D01*
X110881390Y-114784237D02*
X110833771Y-114879475D01*
X110833771Y-114879475D02*
X110786152Y-114927094D01*
X110786152Y-114927094D02*
X110690914Y-114974713D01*
X110690914Y-114974713D02*
X110643295Y-114974713D01*
X110643295Y-114974713D02*
X110548057Y-114927094D01*
X110548057Y-114927094D02*
X110500438Y-114879475D01*
X110500438Y-114879475D02*
X110452819Y-114784237D01*
X110452819Y-114784237D02*
X110452819Y-114593761D01*
X110452819Y-114593761D02*
X110500438Y-114498523D01*
X110500438Y-114498523D02*
X110548057Y-114450904D01*
X110548057Y-114450904D02*
X110643295Y-114403285D01*
X110643295Y-114403285D02*
X110690914Y-114403285D01*
X110690914Y-114403285D02*
X110786152Y-114450904D01*
X110786152Y-114450904D02*
X110833771Y-114498523D01*
X110833771Y-114498523D02*
X110881390Y-114593761D01*
X110881390Y-114593761D02*
X110881390Y-114784237D01*
X110881390Y-114784237D02*
X110929009Y-114879475D01*
X110929009Y-114879475D02*
X110976628Y-114927094D01*
X110976628Y-114927094D02*
X111071866Y-114974713D01*
X111071866Y-114974713D02*
X111262342Y-114974713D01*
X111262342Y-114974713D02*
X111357580Y-114927094D01*
X111357580Y-114927094D02*
X111405200Y-114879475D01*
X111405200Y-114879475D02*
X111452819Y-114784237D01*
X111452819Y-114784237D02*
X111452819Y-114593761D01*
X111452819Y-114593761D02*
X111405200Y-114498523D01*
X111405200Y-114498523D02*
X111357580Y-114450904D01*
X111357580Y-114450904D02*
X111262342Y-114403285D01*
X111262342Y-114403285D02*
X111071866Y-114403285D01*
X111071866Y-114403285D02*
X110976628Y-114450904D01*
X110976628Y-114450904D02*
X110929009Y-114498523D01*
X110929009Y-114498523D02*
X110881390Y-114593761D01*
X105489476Y-144615819D02*
X105489476Y-145330104D01*
X105489476Y-145330104D02*
X105441857Y-145472961D01*
X105441857Y-145472961D02*
X105346619Y-145568200D01*
X105346619Y-145568200D02*
X105203762Y-145615819D01*
X105203762Y-145615819D02*
X105108524Y-145615819D01*
X105918048Y-144711057D02*
X105965667Y-144663438D01*
X105965667Y-144663438D02*
X106060905Y-144615819D01*
X106060905Y-144615819D02*
X106299000Y-144615819D01*
X106299000Y-144615819D02*
X106394238Y-144663438D01*
X106394238Y-144663438D02*
X106441857Y-144711057D01*
X106441857Y-144711057D02*
X106489476Y-144806295D01*
X106489476Y-144806295D02*
X106489476Y-144901533D01*
X106489476Y-144901533D02*
X106441857Y-145044390D01*
X106441857Y-145044390D02*
X105870429Y-145615819D01*
X105870429Y-145615819D02*
X106489476Y-145615819D01*
X107108524Y-144615819D02*
X107203762Y-144615819D01*
X107203762Y-144615819D02*
X107299000Y-144663438D01*
X107299000Y-144663438D02*
X107346619Y-144711057D01*
X107346619Y-144711057D02*
X107394238Y-144806295D01*
X107394238Y-144806295D02*
X107441857Y-144996771D01*
X107441857Y-144996771D02*
X107441857Y-145234866D01*
X107441857Y-145234866D02*
X107394238Y-145425342D01*
X107394238Y-145425342D02*
X107346619Y-145520580D01*
X107346619Y-145520580D02*
X107299000Y-145568200D01*
X107299000Y-145568200D02*
X107203762Y-145615819D01*
X107203762Y-145615819D02*
X107108524Y-145615819D01*
X107108524Y-145615819D02*
X107013286Y-145568200D01*
X107013286Y-145568200D02*
X106965667Y-145520580D01*
X106965667Y-145520580D02*
X106918048Y-145425342D01*
X106918048Y-145425342D02*
X106870429Y-145234866D01*
X106870429Y-145234866D02*
X106870429Y-144996771D01*
X106870429Y-144996771D02*
X106918048Y-144806295D01*
X106918048Y-144806295D02*
X106965667Y-144711057D01*
X106965667Y-144711057D02*
X107013286Y-144663438D01*
X107013286Y-144663438D02*
X107108524Y-144615819D01*
X35425142Y-125422819D02*
X35091809Y-124946628D01*
X34853714Y-125422819D02*
X34853714Y-124422819D01*
X34853714Y-124422819D02*
X35234666Y-124422819D01*
X35234666Y-124422819D02*
X35329904Y-124470438D01*
X35329904Y-124470438D02*
X35377523Y-124518057D01*
X35377523Y-124518057D02*
X35425142Y-124613295D01*
X35425142Y-124613295D02*
X35425142Y-124756152D01*
X35425142Y-124756152D02*
X35377523Y-124851390D01*
X35377523Y-124851390D02*
X35329904Y-124899009D01*
X35329904Y-124899009D02*
X35234666Y-124946628D01*
X35234666Y-124946628D02*
X34853714Y-124946628D01*
X35806095Y-124518057D02*
X35853714Y-124470438D01*
X35853714Y-124470438D02*
X35948952Y-124422819D01*
X35948952Y-124422819D02*
X36187047Y-124422819D01*
X36187047Y-124422819D02*
X36282285Y-124470438D01*
X36282285Y-124470438D02*
X36329904Y-124518057D01*
X36329904Y-124518057D02*
X36377523Y-124613295D01*
X36377523Y-124613295D02*
X36377523Y-124708533D01*
X36377523Y-124708533D02*
X36329904Y-124851390D01*
X36329904Y-124851390D02*
X35758476Y-125422819D01*
X35758476Y-125422819D02*
X36377523Y-125422819D01*
X36996571Y-124422819D02*
X37091809Y-124422819D01*
X37091809Y-124422819D02*
X37187047Y-124470438D01*
X37187047Y-124470438D02*
X37234666Y-124518057D01*
X37234666Y-124518057D02*
X37282285Y-124613295D01*
X37282285Y-124613295D02*
X37329904Y-124803771D01*
X37329904Y-124803771D02*
X37329904Y-125041866D01*
X37329904Y-125041866D02*
X37282285Y-125232342D01*
X37282285Y-125232342D02*
X37234666Y-125327580D01*
X37234666Y-125327580D02*
X37187047Y-125375200D01*
X37187047Y-125375200D02*
X37091809Y-125422819D01*
X37091809Y-125422819D02*
X36996571Y-125422819D01*
X36996571Y-125422819D02*
X36901333Y-125375200D01*
X36901333Y-125375200D02*
X36853714Y-125327580D01*
X36853714Y-125327580D02*
X36806095Y-125232342D01*
X36806095Y-125232342D02*
X36758476Y-125041866D01*
X36758476Y-125041866D02*
X36758476Y-124803771D01*
X36758476Y-124803771D02*
X36806095Y-124613295D01*
X36806095Y-124613295D02*
X36853714Y-124518057D01*
X36853714Y-124518057D02*
X36901333Y-124470438D01*
X36901333Y-124470438D02*
X36996571Y-124422819D01*
X106164142Y-121390580D02*
X106116523Y-121438200D01*
X106116523Y-121438200D02*
X105973666Y-121485819D01*
X105973666Y-121485819D02*
X105878428Y-121485819D01*
X105878428Y-121485819D02*
X105735571Y-121438200D01*
X105735571Y-121438200D02*
X105640333Y-121342961D01*
X105640333Y-121342961D02*
X105592714Y-121247723D01*
X105592714Y-121247723D02*
X105545095Y-121057247D01*
X105545095Y-121057247D02*
X105545095Y-120914390D01*
X105545095Y-120914390D02*
X105592714Y-120723914D01*
X105592714Y-120723914D02*
X105640333Y-120628676D01*
X105640333Y-120628676D02*
X105735571Y-120533438D01*
X105735571Y-120533438D02*
X105878428Y-120485819D01*
X105878428Y-120485819D02*
X105973666Y-120485819D01*
X105973666Y-120485819D02*
X106116523Y-120533438D01*
X106116523Y-120533438D02*
X106164142Y-120581057D01*
X106545095Y-120581057D02*
X106592714Y-120533438D01*
X106592714Y-120533438D02*
X106687952Y-120485819D01*
X106687952Y-120485819D02*
X106926047Y-120485819D01*
X106926047Y-120485819D02*
X107021285Y-120533438D01*
X107021285Y-120533438D02*
X107068904Y-120581057D01*
X107068904Y-120581057D02*
X107116523Y-120676295D01*
X107116523Y-120676295D02*
X107116523Y-120771533D01*
X107116523Y-120771533D02*
X107068904Y-120914390D01*
X107068904Y-120914390D02*
X106497476Y-121485819D01*
X106497476Y-121485819D02*
X107116523Y-121485819D01*
X107449857Y-120485819D02*
X108116523Y-120485819D01*
X108116523Y-120485819D02*
X107687952Y-121485819D01*
X116437580Y-155233666D02*
X116485200Y-155281285D01*
X116485200Y-155281285D02*
X116532819Y-155424142D01*
X116532819Y-155424142D02*
X116532819Y-155519380D01*
X116532819Y-155519380D02*
X116485200Y-155662237D01*
X116485200Y-155662237D02*
X116389961Y-155757475D01*
X116389961Y-155757475D02*
X116294723Y-155805094D01*
X116294723Y-155805094D02*
X116104247Y-155852713D01*
X116104247Y-155852713D02*
X115961390Y-155852713D01*
X115961390Y-155852713D02*
X115770914Y-155805094D01*
X115770914Y-155805094D02*
X115675676Y-155757475D01*
X115675676Y-155757475D02*
X115580438Y-155662237D01*
X115580438Y-155662237D02*
X115532819Y-155519380D01*
X115532819Y-155519380D02*
X115532819Y-155424142D01*
X115532819Y-155424142D02*
X115580438Y-155281285D01*
X115580438Y-155281285D02*
X115628057Y-155233666D01*
X115532819Y-154900332D02*
X115532819Y-154281285D01*
X115532819Y-154281285D02*
X115913771Y-154614618D01*
X115913771Y-154614618D02*
X115913771Y-154471761D01*
X115913771Y-154471761D02*
X115961390Y-154376523D01*
X115961390Y-154376523D02*
X116009009Y-154328904D01*
X116009009Y-154328904D02*
X116104247Y-154281285D01*
X116104247Y-154281285D02*
X116342342Y-154281285D01*
X116342342Y-154281285D02*
X116437580Y-154328904D01*
X116437580Y-154328904D02*
X116485200Y-154376523D01*
X116485200Y-154376523D02*
X116532819Y-154471761D01*
X116532819Y-154471761D02*
X116532819Y-154757475D01*
X116532819Y-154757475D02*
X116485200Y-154852713D01*
X116485200Y-154852713D02*
X116437580Y-154900332D01*
X57934266Y-125997619D02*
X57934266Y-126711904D01*
X57934266Y-126711904D02*
X57886647Y-126854761D01*
X57886647Y-126854761D02*
X57791409Y-126950000D01*
X57791409Y-126950000D02*
X57648552Y-126997619D01*
X57648552Y-126997619D02*
X57553314Y-126997619D01*
X58315219Y-125997619D02*
X58934266Y-125997619D01*
X58934266Y-125997619D02*
X58600933Y-126378571D01*
X58600933Y-126378571D02*
X58743790Y-126378571D01*
X58743790Y-126378571D02*
X58839028Y-126426190D01*
X58839028Y-126426190D02*
X58886647Y-126473809D01*
X58886647Y-126473809D02*
X58934266Y-126569047D01*
X58934266Y-126569047D02*
X58934266Y-126807142D01*
X58934266Y-126807142D02*
X58886647Y-126902380D01*
X58886647Y-126902380D02*
X58839028Y-126950000D01*
X58839028Y-126950000D02*
X58743790Y-126997619D01*
X58743790Y-126997619D02*
X58458076Y-126997619D01*
X58458076Y-126997619D02*
X58362838Y-126950000D01*
X58362838Y-126950000D02*
X58315219Y-126902380D01*
X121150142Y-130407580D02*
X121102523Y-130455200D01*
X121102523Y-130455200D02*
X120959666Y-130502819D01*
X120959666Y-130502819D02*
X120864428Y-130502819D01*
X120864428Y-130502819D02*
X120721571Y-130455200D01*
X120721571Y-130455200D02*
X120626333Y-130359961D01*
X120626333Y-130359961D02*
X120578714Y-130264723D01*
X120578714Y-130264723D02*
X120531095Y-130074247D01*
X120531095Y-130074247D02*
X120531095Y-129931390D01*
X120531095Y-129931390D02*
X120578714Y-129740914D01*
X120578714Y-129740914D02*
X120626333Y-129645676D01*
X120626333Y-129645676D02*
X120721571Y-129550438D01*
X120721571Y-129550438D02*
X120864428Y-129502819D01*
X120864428Y-129502819D02*
X120959666Y-129502819D01*
X120959666Y-129502819D02*
X121102523Y-129550438D01*
X121102523Y-129550438D02*
X121150142Y-129598057D01*
X121531095Y-129598057D02*
X121578714Y-129550438D01*
X121578714Y-129550438D02*
X121673952Y-129502819D01*
X121673952Y-129502819D02*
X121912047Y-129502819D01*
X121912047Y-129502819D02*
X122007285Y-129550438D01*
X122007285Y-129550438D02*
X122054904Y-129598057D01*
X122054904Y-129598057D02*
X122102523Y-129693295D01*
X122102523Y-129693295D02*
X122102523Y-129788533D01*
X122102523Y-129788533D02*
X122054904Y-129931390D01*
X122054904Y-129931390D02*
X121483476Y-130502819D01*
X121483476Y-130502819D02*
X122102523Y-130502819D01*
X122959666Y-129836152D02*
X122959666Y-130502819D01*
X122721571Y-129455200D02*
X122483476Y-130169485D01*
X122483476Y-130169485D02*
X123102523Y-130169485D01*
X120864333Y-113992819D02*
X120531000Y-113516628D01*
X120292905Y-113992819D02*
X120292905Y-112992819D01*
X120292905Y-112992819D02*
X120673857Y-112992819D01*
X120673857Y-112992819D02*
X120769095Y-113040438D01*
X120769095Y-113040438D02*
X120816714Y-113088057D01*
X120816714Y-113088057D02*
X120864333Y-113183295D01*
X120864333Y-113183295D02*
X120864333Y-113326152D01*
X120864333Y-113326152D02*
X120816714Y-113421390D01*
X120816714Y-113421390D02*
X120769095Y-113469009D01*
X120769095Y-113469009D02*
X120673857Y-113516628D01*
X120673857Y-113516628D02*
X120292905Y-113516628D01*
X121435762Y-113421390D02*
X121340524Y-113373771D01*
X121340524Y-113373771D02*
X121292905Y-113326152D01*
X121292905Y-113326152D02*
X121245286Y-113230914D01*
X121245286Y-113230914D02*
X121245286Y-113183295D01*
X121245286Y-113183295D02*
X121292905Y-113088057D01*
X121292905Y-113088057D02*
X121340524Y-113040438D01*
X121340524Y-113040438D02*
X121435762Y-112992819D01*
X121435762Y-112992819D02*
X121626238Y-112992819D01*
X121626238Y-112992819D02*
X121721476Y-113040438D01*
X121721476Y-113040438D02*
X121769095Y-113088057D01*
X121769095Y-113088057D02*
X121816714Y-113183295D01*
X121816714Y-113183295D02*
X121816714Y-113230914D01*
X121816714Y-113230914D02*
X121769095Y-113326152D01*
X121769095Y-113326152D02*
X121721476Y-113373771D01*
X121721476Y-113373771D02*
X121626238Y-113421390D01*
X121626238Y-113421390D02*
X121435762Y-113421390D01*
X121435762Y-113421390D02*
X121340524Y-113469009D01*
X121340524Y-113469009D02*
X121292905Y-113516628D01*
X121292905Y-113516628D02*
X121245286Y-113611866D01*
X121245286Y-113611866D02*
X121245286Y-113802342D01*
X121245286Y-113802342D02*
X121292905Y-113897580D01*
X121292905Y-113897580D02*
X121340524Y-113945200D01*
X121340524Y-113945200D02*
X121435762Y-113992819D01*
X121435762Y-113992819D02*
X121626238Y-113992819D01*
X121626238Y-113992819D02*
X121721476Y-113945200D01*
X121721476Y-113945200D02*
X121769095Y-113897580D01*
X121769095Y-113897580D02*
X121816714Y-113802342D01*
X121816714Y-113802342D02*
X121816714Y-113611866D01*
X121816714Y-113611866D02*
X121769095Y-113516628D01*
X121769095Y-113516628D02*
X121721476Y-113469009D01*
X121721476Y-113469009D02*
X121626238Y-113421390D01*
X104695666Y-105626819D02*
X104695666Y-106341104D01*
X104695666Y-106341104D02*
X104648047Y-106483961D01*
X104648047Y-106483961D02*
X104552809Y-106579200D01*
X104552809Y-106579200D02*
X104409952Y-106626819D01*
X104409952Y-106626819D02*
X104314714Y-106626819D01*
X105076619Y-105626819D02*
X105743285Y-105626819D01*
X105743285Y-105626819D02*
X105314714Y-106626819D01*
X103926819Y-112910857D02*
X103450628Y-113244190D01*
X103926819Y-113482285D02*
X102926819Y-113482285D01*
X102926819Y-113482285D02*
X102926819Y-113101333D01*
X102926819Y-113101333D02*
X102974438Y-113006095D01*
X102974438Y-113006095D02*
X103022057Y-112958476D01*
X103022057Y-112958476D02*
X103117295Y-112910857D01*
X103117295Y-112910857D02*
X103260152Y-112910857D01*
X103260152Y-112910857D02*
X103355390Y-112958476D01*
X103355390Y-112958476D02*
X103403009Y-113006095D01*
X103403009Y-113006095D02*
X103450628Y-113101333D01*
X103450628Y-113101333D02*
X103450628Y-113482285D01*
X103926819Y-111958476D02*
X103926819Y-112529904D01*
X103926819Y-112244190D02*
X102926819Y-112244190D01*
X102926819Y-112244190D02*
X103069676Y-112339428D01*
X103069676Y-112339428D02*
X103164914Y-112434666D01*
X103164914Y-112434666D02*
X103212533Y-112529904D01*
X103260152Y-111101333D02*
X103926819Y-111101333D01*
X102879200Y-111339428D02*
X103593485Y-111577523D01*
X103593485Y-111577523D02*
X103593485Y-110958476D01*
X119769095Y-116929819D02*
X120340523Y-116929819D01*
X120054809Y-117929819D02*
X120054809Y-116929819D01*
X120673857Y-117929819D02*
X120673857Y-116929819D01*
X120673857Y-116929819D02*
X121054809Y-116929819D01*
X121054809Y-116929819D02*
X121150047Y-116977438D01*
X121150047Y-116977438D02*
X121197666Y-117025057D01*
X121197666Y-117025057D02*
X121245285Y-117120295D01*
X121245285Y-117120295D02*
X121245285Y-117263152D01*
X121245285Y-117263152D02*
X121197666Y-117358390D01*
X121197666Y-117358390D02*
X121150047Y-117406009D01*
X121150047Y-117406009D02*
X121054809Y-117453628D01*
X121054809Y-117453628D02*
X120673857Y-117453628D01*
X121578619Y-116929819D02*
X122245285Y-116929819D01*
X122245285Y-116929819D02*
X121816714Y-117929819D01*
X51231895Y-125718219D02*
X51231895Y-126527742D01*
X51231895Y-126527742D02*
X51279514Y-126622980D01*
X51279514Y-126622980D02*
X51327133Y-126670600D01*
X51327133Y-126670600D02*
X51422371Y-126718219D01*
X51422371Y-126718219D02*
X51612847Y-126718219D01*
X51612847Y-126718219D02*
X51708085Y-126670600D01*
X51708085Y-126670600D02*
X51755704Y-126622980D01*
X51755704Y-126622980D02*
X51803323Y-126527742D01*
X51803323Y-126527742D02*
X51803323Y-125718219D01*
X52803323Y-126718219D02*
X52231895Y-126718219D01*
X52517609Y-126718219D02*
X52517609Y-125718219D01*
X52517609Y-125718219D02*
X52422371Y-125861076D01*
X52422371Y-125861076D02*
X52327133Y-125956314D01*
X52327133Y-125956314D02*
X52231895Y-126003933D01*
X111357580Y-111386857D02*
X111405200Y-111434476D01*
X111405200Y-111434476D02*
X111452819Y-111577333D01*
X111452819Y-111577333D02*
X111452819Y-111672571D01*
X111452819Y-111672571D02*
X111405200Y-111815428D01*
X111405200Y-111815428D02*
X111309961Y-111910666D01*
X111309961Y-111910666D02*
X111214723Y-111958285D01*
X111214723Y-111958285D02*
X111024247Y-112005904D01*
X111024247Y-112005904D02*
X110881390Y-112005904D01*
X110881390Y-112005904D02*
X110690914Y-111958285D01*
X110690914Y-111958285D02*
X110595676Y-111910666D01*
X110595676Y-111910666D02*
X110500438Y-111815428D01*
X110500438Y-111815428D02*
X110452819Y-111672571D01*
X110452819Y-111672571D02*
X110452819Y-111577333D01*
X110452819Y-111577333D02*
X110500438Y-111434476D01*
X110500438Y-111434476D02*
X110548057Y-111386857D01*
X111452819Y-110434476D02*
X111452819Y-111005904D01*
X111452819Y-110720190D02*
X110452819Y-110720190D01*
X110452819Y-110720190D02*
X110595676Y-110815428D01*
X110595676Y-110815428D02*
X110690914Y-110910666D01*
X110690914Y-110910666D02*
X110738533Y-111005904D01*
X110452819Y-109577333D02*
X110452819Y-109767809D01*
X110452819Y-109767809D02*
X110500438Y-109863047D01*
X110500438Y-109863047D02*
X110548057Y-109910666D01*
X110548057Y-109910666D02*
X110690914Y-110005904D01*
X110690914Y-110005904D02*
X110881390Y-110053523D01*
X110881390Y-110053523D02*
X111262342Y-110053523D01*
X111262342Y-110053523D02*
X111357580Y-110005904D01*
X111357580Y-110005904D02*
X111405200Y-109958285D01*
X111405200Y-109958285D02*
X111452819Y-109863047D01*
X111452819Y-109863047D02*
X111452819Y-109672571D01*
X111452819Y-109672571D02*
X111405200Y-109577333D01*
X111405200Y-109577333D02*
X111357580Y-109529714D01*
X111357580Y-109529714D02*
X111262342Y-109482095D01*
X111262342Y-109482095D02*
X111024247Y-109482095D01*
X111024247Y-109482095D02*
X110929009Y-109529714D01*
X110929009Y-109529714D02*
X110881390Y-109577333D01*
X110881390Y-109577333D02*
X110833771Y-109672571D01*
X110833771Y-109672571D02*
X110833771Y-109863047D01*
X110833771Y-109863047D02*
X110881390Y-109958285D01*
X110881390Y-109958285D02*
X110929009Y-110005904D01*
X110929009Y-110005904D02*
X111024247Y-110053523D01*
X103243142Y-127486580D02*
X103195523Y-127534200D01*
X103195523Y-127534200D02*
X103052666Y-127581819D01*
X103052666Y-127581819D02*
X102957428Y-127581819D01*
X102957428Y-127581819D02*
X102814571Y-127534200D01*
X102814571Y-127534200D02*
X102719333Y-127438961D01*
X102719333Y-127438961D02*
X102671714Y-127343723D01*
X102671714Y-127343723D02*
X102624095Y-127153247D01*
X102624095Y-127153247D02*
X102624095Y-127010390D01*
X102624095Y-127010390D02*
X102671714Y-126819914D01*
X102671714Y-126819914D02*
X102719333Y-126724676D01*
X102719333Y-126724676D02*
X102814571Y-126629438D01*
X102814571Y-126629438D02*
X102957428Y-126581819D01*
X102957428Y-126581819D02*
X103052666Y-126581819D01*
X103052666Y-126581819D02*
X103195523Y-126629438D01*
X103195523Y-126629438D02*
X103243142Y-126677057D01*
X104195523Y-127581819D02*
X103624095Y-127581819D01*
X103909809Y-127581819D02*
X103909809Y-126581819D01*
X103909809Y-126581819D02*
X103814571Y-126724676D01*
X103814571Y-126724676D02*
X103719333Y-126819914D01*
X103719333Y-126819914D02*
X103624095Y-126867533D01*
X104528857Y-126581819D02*
X105195523Y-126581819D01*
X105195523Y-126581819D02*
X104766952Y-127581819D01*
X106291142Y-132058580D02*
X106243523Y-132106200D01*
X106243523Y-132106200D02*
X106100666Y-132153819D01*
X106100666Y-132153819D02*
X106005428Y-132153819D01*
X106005428Y-132153819D02*
X105862571Y-132106200D01*
X105862571Y-132106200D02*
X105767333Y-132010961D01*
X105767333Y-132010961D02*
X105719714Y-131915723D01*
X105719714Y-131915723D02*
X105672095Y-131725247D01*
X105672095Y-131725247D02*
X105672095Y-131582390D01*
X105672095Y-131582390D02*
X105719714Y-131391914D01*
X105719714Y-131391914D02*
X105767333Y-131296676D01*
X105767333Y-131296676D02*
X105862571Y-131201438D01*
X105862571Y-131201438D02*
X106005428Y-131153819D01*
X106005428Y-131153819D02*
X106100666Y-131153819D01*
X106100666Y-131153819D02*
X106243523Y-131201438D01*
X106243523Y-131201438D02*
X106291142Y-131249057D01*
X107148285Y-131487152D02*
X107148285Y-132153819D01*
X106910190Y-131106200D02*
X106672095Y-131820485D01*
X106672095Y-131820485D02*
X107291142Y-131820485D01*
X107576857Y-131153819D02*
X108195904Y-131153819D01*
X108195904Y-131153819D02*
X107862571Y-131534771D01*
X107862571Y-131534771D02*
X108005428Y-131534771D01*
X108005428Y-131534771D02*
X108100666Y-131582390D01*
X108100666Y-131582390D02*
X108148285Y-131630009D01*
X108148285Y-131630009D02*
X108195904Y-131725247D01*
X108195904Y-131725247D02*
X108195904Y-131963342D01*
X108195904Y-131963342D02*
X108148285Y-132058580D01*
X108148285Y-132058580D02*
X108100666Y-132106200D01*
X108100666Y-132106200D02*
X108005428Y-132153819D01*
X108005428Y-132153819D02*
X107719714Y-132153819D01*
X107719714Y-132153819D02*
X107624476Y-132106200D01*
X107624476Y-132106200D02*
X107576857Y-132058580D01*
X41521142Y-125327580D02*
X41473523Y-125375200D01*
X41473523Y-125375200D02*
X41330666Y-125422819D01*
X41330666Y-125422819D02*
X41235428Y-125422819D01*
X41235428Y-125422819D02*
X41092571Y-125375200D01*
X41092571Y-125375200D02*
X40997333Y-125279961D01*
X40997333Y-125279961D02*
X40949714Y-125184723D01*
X40949714Y-125184723D02*
X40902095Y-124994247D01*
X40902095Y-124994247D02*
X40902095Y-124851390D01*
X40902095Y-124851390D02*
X40949714Y-124660914D01*
X40949714Y-124660914D02*
X40997333Y-124565676D01*
X40997333Y-124565676D02*
X41092571Y-124470438D01*
X41092571Y-124470438D02*
X41235428Y-124422819D01*
X41235428Y-124422819D02*
X41330666Y-124422819D01*
X41330666Y-124422819D02*
X41473523Y-124470438D01*
X41473523Y-124470438D02*
X41521142Y-124518057D01*
X42378285Y-124756152D02*
X42378285Y-125422819D01*
X42140190Y-124375200D02*
X41902095Y-125089485D01*
X41902095Y-125089485D02*
X42521142Y-125089485D01*
X43044952Y-124851390D02*
X42949714Y-124803771D01*
X42949714Y-124803771D02*
X42902095Y-124756152D01*
X42902095Y-124756152D02*
X42854476Y-124660914D01*
X42854476Y-124660914D02*
X42854476Y-124613295D01*
X42854476Y-124613295D02*
X42902095Y-124518057D01*
X42902095Y-124518057D02*
X42949714Y-124470438D01*
X42949714Y-124470438D02*
X43044952Y-124422819D01*
X43044952Y-124422819D02*
X43235428Y-124422819D01*
X43235428Y-124422819D02*
X43330666Y-124470438D01*
X43330666Y-124470438D02*
X43378285Y-124518057D01*
X43378285Y-124518057D02*
X43425904Y-124613295D01*
X43425904Y-124613295D02*
X43425904Y-124660914D01*
X43425904Y-124660914D02*
X43378285Y-124756152D01*
X43378285Y-124756152D02*
X43330666Y-124803771D01*
X43330666Y-124803771D02*
X43235428Y-124851390D01*
X43235428Y-124851390D02*
X43044952Y-124851390D01*
X43044952Y-124851390D02*
X42949714Y-124899009D01*
X42949714Y-124899009D02*
X42902095Y-124946628D01*
X42902095Y-124946628D02*
X42854476Y-125041866D01*
X42854476Y-125041866D02*
X42854476Y-125232342D01*
X42854476Y-125232342D02*
X42902095Y-125327580D01*
X42902095Y-125327580D02*
X42949714Y-125375200D01*
X42949714Y-125375200D02*
X43044952Y-125422819D01*
X43044952Y-125422819D02*
X43235428Y-125422819D01*
X43235428Y-125422819D02*
X43330666Y-125375200D01*
X43330666Y-125375200D02*
X43378285Y-125327580D01*
X43378285Y-125327580D02*
X43425904Y-125232342D01*
X43425904Y-125232342D02*
X43425904Y-125041866D01*
X43425904Y-125041866D02*
X43378285Y-124946628D01*
X43378285Y-124946628D02*
X43330666Y-124899009D01*
X43330666Y-124899009D02*
X43235428Y-124851390D01*
X89622333Y-155140819D02*
X89146143Y-155140819D01*
X89146143Y-155140819D02*
X89146143Y-154140819D01*
X89860429Y-154140819D02*
X90479476Y-154140819D01*
X90479476Y-154140819D02*
X90146143Y-154521771D01*
X90146143Y-154521771D02*
X90289000Y-154521771D01*
X90289000Y-154521771D02*
X90384238Y-154569390D01*
X90384238Y-154569390D02*
X90431857Y-154617009D01*
X90431857Y-154617009D02*
X90479476Y-154712247D01*
X90479476Y-154712247D02*
X90479476Y-154950342D01*
X90479476Y-154950342D02*
X90431857Y-155045580D01*
X90431857Y-155045580D02*
X90384238Y-155093200D01*
X90384238Y-155093200D02*
X90289000Y-155140819D01*
X90289000Y-155140819D02*
X90003286Y-155140819D01*
X90003286Y-155140819D02*
X89908048Y-155093200D01*
X89908048Y-155093200D02*
X89860429Y-155045580D01*
X111085333Y-152346819D02*
X110609143Y-152346819D01*
X110609143Y-152346819D02*
X110609143Y-151346819D01*
X111847238Y-151346819D02*
X111656762Y-151346819D01*
X111656762Y-151346819D02*
X111561524Y-151394438D01*
X111561524Y-151394438D02*
X111513905Y-151442057D01*
X111513905Y-151442057D02*
X111418667Y-151584914D01*
X111418667Y-151584914D02*
X111371048Y-151775390D01*
X111371048Y-151775390D02*
X111371048Y-152156342D01*
X111371048Y-152156342D02*
X111418667Y-152251580D01*
X111418667Y-152251580D02*
X111466286Y-152299200D01*
X111466286Y-152299200D02*
X111561524Y-152346819D01*
X111561524Y-152346819D02*
X111752000Y-152346819D01*
X111752000Y-152346819D02*
X111847238Y-152299200D01*
X111847238Y-152299200D02*
X111894857Y-152251580D01*
X111894857Y-152251580D02*
X111942476Y-152156342D01*
X111942476Y-152156342D02*
X111942476Y-151918247D01*
X111942476Y-151918247D02*
X111894857Y-151823009D01*
X111894857Y-151823009D02*
X111847238Y-151775390D01*
X111847238Y-151775390D02*
X111752000Y-151727771D01*
X111752000Y-151727771D02*
X111561524Y-151727771D01*
X111561524Y-151727771D02*
X111466286Y-151775390D01*
X111466286Y-151775390D02*
X111418667Y-151823009D01*
X111418667Y-151823009D02*
X111371048Y-151918247D01*
X45367676Y-127369219D02*
X45367676Y-128083504D01*
X45367676Y-128083504D02*
X45320057Y-128226361D01*
X45320057Y-128226361D02*
X45224819Y-128321600D01*
X45224819Y-128321600D02*
X45081962Y-128369219D01*
X45081962Y-128369219D02*
X44986724Y-128369219D01*
X46367676Y-128369219D02*
X45796248Y-128369219D01*
X46081962Y-128369219D02*
X46081962Y-127369219D01*
X46081962Y-127369219D02*
X45986724Y-127512076D01*
X45986724Y-127512076D02*
X45891486Y-127607314D01*
X45891486Y-127607314D02*
X45796248Y-127654933D01*
X46843867Y-128369219D02*
X47034343Y-128369219D01*
X47034343Y-128369219D02*
X47129581Y-128321600D01*
X47129581Y-128321600D02*
X47177200Y-128273980D01*
X47177200Y-128273980D02*
X47272438Y-128131123D01*
X47272438Y-128131123D02*
X47320057Y-127940647D01*
X47320057Y-127940647D02*
X47320057Y-127559695D01*
X47320057Y-127559695D02*
X47272438Y-127464457D01*
X47272438Y-127464457D02*
X47224819Y-127416838D01*
X47224819Y-127416838D02*
X47129581Y-127369219D01*
X47129581Y-127369219D02*
X46939105Y-127369219D01*
X46939105Y-127369219D02*
X46843867Y-127416838D01*
X46843867Y-127416838D02*
X46796248Y-127464457D01*
X46796248Y-127464457D02*
X46748629Y-127559695D01*
X46748629Y-127559695D02*
X46748629Y-127797790D01*
X46748629Y-127797790D02*
X46796248Y-127893028D01*
X46796248Y-127893028D02*
X46843867Y-127940647D01*
X46843867Y-127940647D02*
X46939105Y-127988266D01*
X46939105Y-127988266D02*
X47129581Y-127988266D01*
X47129581Y-127988266D02*
X47224819Y-127940647D01*
X47224819Y-127940647D02*
X47272438Y-127893028D01*
X47272438Y-127893028D02*
X47320057Y-127797790D01*
X67302142Y-122279580D02*
X67254523Y-122327200D01*
X67254523Y-122327200D02*
X67111666Y-122374819D01*
X67111666Y-122374819D02*
X67016428Y-122374819D01*
X67016428Y-122374819D02*
X66873571Y-122327200D01*
X66873571Y-122327200D02*
X66778333Y-122231961D01*
X66778333Y-122231961D02*
X66730714Y-122136723D01*
X66730714Y-122136723D02*
X66683095Y-121946247D01*
X66683095Y-121946247D02*
X66683095Y-121803390D01*
X66683095Y-121803390D02*
X66730714Y-121612914D01*
X66730714Y-121612914D02*
X66778333Y-121517676D01*
X66778333Y-121517676D02*
X66873571Y-121422438D01*
X66873571Y-121422438D02*
X67016428Y-121374819D01*
X67016428Y-121374819D02*
X67111666Y-121374819D01*
X67111666Y-121374819D02*
X67254523Y-121422438D01*
X67254523Y-121422438D02*
X67302142Y-121470057D01*
X68254523Y-122374819D02*
X67683095Y-122374819D01*
X67968809Y-122374819D02*
X67968809Y-121374819D01*
X67968809Y-121374819D02*
X67873571Y-121517676D01*
X67873571Y-121517676D02*
X67778333Y-121612914D01*
X67778333Y-121612914D02*
X67683095Y-121660533D01*
X69206904Y-122374819D02*
X68635476Y-122374819D01*
X68921190Y-122374819D02*
X68921190Y-121374819D01*
X68921190Y-121374819D02*
X68825952Y-121517676D01*
X68825952Y-121517676D02*
X68730714Y-121612914D01*
X68730714Y-121612914D02*
X68635476Y-121660533D01*
X121136580Y-123197857D02*
X121184200Y-123245476D01*
X121184200Y-123245476D02*
X121231819Y-123388333D01*
X121231819Y-123388333D02*
X121231819Y-123483571D01*
X121231819Y-123483571D02*
X121184200Y-123626428D01*
X121184200Y-123626428D02*
X121088961Y-123721666D01*
X121088961Y-123721666D02*
X120993723Y-123769285D01*
X120993723Y-123769285D02*
X120803247Y-123816904D01*
X120803247Y-123816904D02*
X120660390Y-123816904D01*
X120660390Y-123816904D02*
X120469914Y-123769285D01*
X120469914Y-123769285D02*
X120374676Y-123721666D01*
X120374676Y-123721666D02*
X120279438Y-123626428D01*
X120279438Y-123626428D02*
X120231819Y-123483571D01*
X120231819Y-123483571D02*
X120231819Y-123388333D01*
X120231819Y-123388333D02*
X120279438Y-123245476D01*
X120279438Y-123245476D02*
X120327057Y-123197857D01*
X120231819Y-122864523D02*
X120231819Y-122245476D01*
X120231819Y-122245476D02*
X120612771Y-122578809D01*
X120612771Y-122578809D02*
X120612771Y-122435952D01*
X120612771Y-122435952D02*
X120660390Y-122340714D01*
X120660390Y-122340714D02*
X120708009Y-122293095D01*
X120708009Y-122293095D02*
X120803247Y-122245476D01*
X120803247Y-122245476D02*
X121041342Y-122245476D01*
X121041342Y-122245476D02*
X121136580Y-122293095D01*
X121136580Y-122293095D02*
X121184200Y-122340714D01*
X121184200Y-122340714D02*
X121231819Y-122435952D01*
X121231819Y-122435952D02*
X121231819Y-122721666D01*
X121231819Y-122721666D02*
X121184200Y-122816904D01*
X121184200Y-122816904D02*
X121136580Y-122864523D01*
X120231819Y-121912142D02*
X120231819Y-121293095D01*
X120231819Y-121293095D02*
X120612771Y-121626428D01*
X120612771Y-121626428D02*
X120612771Y-121483571D01*
X120612771Y-121483571D02*
X120660390Y-121388333D01*
X120660390Y-121388333D02*
X120708009Y-121340714D01*
X120708009Y-121340714D02*
X120803247Y-121293095D01*
X120803247Y-121293095D02*
X121041342Y-121293095D01*
X121041342Y-121293095D02*
X121136580Y-121340714D01*
X121136580Y-121340714D02*
X121184200Y-121388333D01*
X121184200Y-121388333D02*
X121231819Y-121483571D01*
X121231819Y-121483571D02*
X121231819Y-121769285D01*
X121231819Y-121769285D02*
X121184200Y-121864523D01*
X121184200Y-121864523D02*
X121136580Y-121912142D01*
X67059276Y-149416419D02*
X67059276Y-150130704D01*
X67059276Y-150130704D02*
X67011657Y-150273561D01*
X67011657Y-150273561D02*
X66916419Y-150368800D01*
X66916419Y-150368800D02*
X66773562Y-150416419D01*
X66773562Y-150416419D02*
X66678324Y-150416419D01*
X68059276Y-150416419D02*
X67487848Y-150416419D01*
X67773562Y-150416419D02*
X67773562Y-149416419D01*
X67773562Y-149416419D02*
X67678324Y-149559276D01*
X67678324Y-149559276D02*
X67583086Y-149654514D01*
X67583086Y-149654514D02*
X67487848Y-149702133D01*
X68392610Y-149416419D02*
X69059276Y-149416419D01*
X69059276Y-149416419D02*
X68630705Y-150416419D01*
X101211142Y-123771819D02*
X100877809Y-123295628D01*
X100639714Y-123771819D02*
X100639714Y-122771819D01*
X100639714Y-122771819D02*
X101020666Y-122771819D01*
X101020666Y-122771819D02*
X101115904Y-122819438D01*
X101115904Y-122819438D02*
X101163523Y-122867057D01*
X101163523Y-122867057D02*
X101211142Y-122962295D01*
X101211142Y-122962295D02*
X101211142Y-123105152D01*
X101211142Y-123105152D02*
X101163523Y-123200390D01*
X101163523Y-123200390D02*
X101115904Y-123248009D01*
X101115904Y-123248009D02*
X101020666Y-123295628D01*
X101020666Y-123295628D02*
X100639714Y-123295628D01*
X102163523Y-123771819D02*
X101592095Y-123771819D01*
X101877809Y-123771819D02*
X101877809Y-122771819D01*
X101877809Y-122771819D02*
X101782571Y-122914676D01*
X101782571Y-122914676D02*
X101687333Y-123009914D01*
X101687333Y-123009914D02*
X101592095Y-123057533D01*
X102639714Y-123771819D02*
X102830190Y-123771819D01*
X102830190Y-123771819D02*
X102925428Y-123724200D01*
X102925428Y-123724200D02*
X102973047Y-123676580D01*
X102973047Y-123676580D02*
X103068285Y-123533723D01*
X103068285Y-123533723D02*
X103115904Y-123343247D01*
X103115904Y-123343247D02*
X103115904Y-122962295D01*
X103115904Y-122962295D02*
X103068285Y-122867057D01*
X103068285Y-122867057D02*
X103020666Y-122819438D01*
X103020666Y-122819438D02*
X102925428Y-122771819D01*
X102925428Y-122771819D02*
X102734952Y-122771819D01*
X102734952Y-122771819D02*
X102639714Y-122819438D01*
X102639714Y-122819438D02*
X102592095Y-122867057D01*
X102592095Y-122867057D02*
X102544476Y-122962295D01*
X102544476Y-122962295D02*
X102544476Y-123200390D01*
X102544476Y-123200390D02*
X102592095Y-123295628D01*
X102592095Y-123295628D02*
X102639714Y-123343247D01*
X102639714Y-123343247D02*
X102734952Y-123390866D01*
X102734952Y-123390866D02*
X102925428Y-123390866D01*
X102925428Y-123390866D02*
X103020666Y-123343247D01*
X103020666Y-123343247D02*
X103068285Y-123295628D01*
X103068285Y-123295628D02*
X103115904Y-123200390D01*
X113284095Y-129350419D02*
X113284095Y-130159942D01*
X113284095Y-130159942D02*
X113331714Y-130255180D01*
X113331714Y-130255180D02*
X113379333Y-130302800D01*
X113379333Y-130302800D02*
X113474571Y-130350419D01*
X113474571Y-130350419D02*
X113665047Y-130350419D01*
X113665047Y-130350419D02*
X113760285Y-130302800D01*
X113760285Y-130302800D02*
X113807904Y-130255180D01*
X113807904Y-130255180D02*
X113855523Y-130159942D01*
X113855523Y-130159942D02*
X113855523Y-129350419D01*
X114236476Y-129350419D02*
X114855523Y-129350419D01*
X114855523Y-129350419D02*
X114522190Y-129731371D01*
X114522190Y-129731371D02*
X114665047Y-129731371D01*
X114665047Y-129731371D02*
X114760285Y-129778990D01*
X114760285Y-129778990D02*
X114807904Y-129826609D01*
X114807904Y-129826609D02*
X114855523Y-129921847D01*
X114855523Y-129921847D02*
X114855523Y-130159942D01*
X114855523Y-130159942D02*
X114807904Y-130255180D01*
X114807904Y-130255180D02*
X114760285Y-130302800D01*
X114760285Y-130302800D02*
X114665047Y-130350419D01*
X114665047Y-130350419D02*
X114379333Y-130350419D01*
X114379333Y-130350419D02*
X114284095Y-130302800D01*
X114284095Y-130302800D02*
X114236476Y-130255180D01*
X110134400Y-123914819D02*
X110134400Y-124152914D01*
X109896305Y-124057676D02*
X110134400Y-124152914D01*
X110134400Y-124152914D02*
X110372495Y-124057676D01*
X109991543Y-124343390D02*
X110134400Y-124152914D01*
X110134400Y-124152914D02*
X110277257Y-124343390D01*
X103497142Y-128883580D02*
X103449523Y-128931200D01*
X103449523Y-128931200D02*
X103306666Y-128978819D01*
X103306666Y-128978819D02*
X103211428Y-128978819D01*
X103211428Y-128978819D02*
X103068571Y-128931200D01*
X103068571Y-128931200D02*
X102973333Y-128835961D01*
X102973333Y-128835961D02*
X102925714Y-128740723D01*
X102925714Y-128740723D02*
X102878095Y-128550247D01*
X102878095Y-128550247D02*
X102878095Y-128407390D01*
X102878095Y-128407390D02*
X102925714Y-128216914D01*
X102925714Y-128216914D02*
X102973333Y-128121676D01*
X102973333Y-128121676D02*
X103068571Y-128026438D01*
X103068571Y-128026438D02*
X103211428Y-127978819D01*
X103211428Y-127978819D02*
X103306666Y-127978819D01*
X103306666Y-127978819D02*
X103449523Y-128026438D01*
X103449523Y-128026438D02*
X103497142Y-128074057D01*
X103830476Y-127978819D02*
X104449523Y-127978819D01*
X104449523Y-127978819D02*
X104116190Y-128359771D01*
X104116190Y-128359771D02*
X104259047Y-128359771D01*
X104259047Y-128359771D02*
X104354285Y-128407390D01*
X104354285Y-128407390D02*
X104401904Y-128455009D01*
X104401904Y-128455009D02*
X104449523Y-128550247D01*
X104449523Y-128550247D02*
X104449523Y-128788342D01*
X104449523Y-128788342D02*
X104401904Y-128883580D01*
X104401904Y-128883580D02*
X104354285Y-128931200D01*
X104354285Y-128931200D02*
X104259047Y-128978819D01*
X104259047Y-128978819D02*
X103973333Y-128978819D01*
X103973333Y-128978819D02*
X103878095Y-128931200D01*
X103878095Y-128931200D02*
X103830476Y-128883580D01*
X105354285Y-127978819D02*
X104878095Y-127978819D01*
X104878095Y-127978819D02*
X104830476Y-128455009D01*
X104830476Y-128455009D02*
X104878095Y-128407390D01*
X104878095Y-128407390D02*
X104973333Y-128359771D01*
X104973333Y-128359771D02*
X105211428Y-128359771D01*
X105211428Y-128359771D02*
X105306666Y-128407390D01*
X105306666Y-128407390D02*
X105354285Y-128455009D01*
X105354285Y-128455009D02*
X105401904Y-128550247D01*
X105401904Y-128550247D02*
X105401904Y-128788342D01*
X105401904Y-128788342D02*
X105354285Y-128883580D01*
X105354285Y-128883580D02*
X105306666Y-128931200D01*
X105306666Y-128931200D02*
X105211428Y-128978819D01*
X105211428Y-128978819D02*
X104973333Y-128978819D01*
X104973333Y-128978819D02*
X104878095Y-128931200D01*
X104878095Y-128931200D02*
X104830476Y-128883580D01*
X95101580Y-155106666D02*
X95149200Y-155154285D01*
X95149200Y-155154285D02*
X95196819Y-155297142D01*
X95196819Y-155297142D02*
X95196819Y-155392380D01*
X95196819Y-155392380D02*
X95149200Y-155535237D01*
X95149200Y-155535237D02*
X95053961Y-155630475D01*
X95053961Y-155630475D02*
X94958723Y-155678094D01*
X94958723Y-155678094D02*
X94768247Y-155725713D01*
X94768247Y-155725713D02*
X94625390Y-155725713D01*
X94625390Y-155725713D02*
X94434914Y-155678094D01*
X94434914Y-155678094D02*
X94339676Y-155630475D01*
X94339676Y-155630475D02*
X94244438Y-155535237D01*
X94244438Y-155535237D02*
X94196819Y-155392380D01*
X94196819Y-155392380D02*
X94196819Y-155297142D01*
X94196819Y-155297142D02*
X94244438Y-155154285D01*
X94244438Y-155154285D02*
X94292057Y-155106666D01*
X94196819Y-154249523D02*
X94196819Y-154439999D01*
X94196819Y-154439999D02*
X94244438Y-154535237D01*
X94244438Y-154535237D02*
X94292057Y-154582856D01*
X94292057Y-154582856D02*
X94434914Y-154678094D01*
X94434914Y-154678094D02*
X94625390Y-154725713D01*
X94625390Y-154725713D02*
X95006342Y-154725713D01*
X95006342Y-154725713D02*
X95101580Y-154678094D01*
X95101580Y-154678094D02*
X95149200Y-154630475D01*
X95149200Y-154630475D02*
X95196819Y-154535237D01*
X95196819Y-154535237D02*
X95196819Y-154344761D01*
X95196819Y-154344761D02*
X95149200Y-154249523D01*
X95149200Y-154249523D02*
X95101580Y-154201904D01*
X95101580Y-154201904D02*
X95006342Y-154154285D01*
X95006342Y-154154285D02*
X94768247Y-154154285D01*
X94768247Y-154154285D02*
X94673009Y-154201904D01*
X94673009Y-154201904D02*
X94625390Y-154249523D01*
X94625390Y-154249523D02*
X94577771Y-154344761D01*
X94577771Y-154344761D02*
X94577771Y-154535237D01*
X94577771Y-154535237D02*
X94625390Y-154630475D01*
X94625390Y-154630475D02*
X94673009Y-154678094D01*
X94673009Y-154678094D02*
X94768247Y-154725713D01*
X129959333Y-136503580D02*
X129911714Y-136551200D01*
X129911714Y-136551200D02*
X129768857Y-136598819D01*
X129768857Y-136598819D02*
X129673619Y-136598819D01*
X129673619Y-136598819D02*
X129530762Y-136551200D01*
X129530762Y-136551200D02*
X129435524Y-136455961D01*
X129435524Y-136455961D02*
X129387905Y-136360723D01*
X129387905Y-136360723D02*
X129340286Y-136170247D01*
X129340286Y-136170247D02*
X129340286Y-136027390D01*
X129340286Y-136027390D02*
X129387905Y-135836914D01*
X129387905Y-135836914D02*
X129435524Y-135741676D01*
X129435524Y-135741676D02*
X129530762Y-135646438D01*
X129530762Y-135646438D02*
X129673619Y-135598819D01*
X129673619Y-135598819D02*
X129768857Y-135598819D01*
X129768857Y-135598819D02*
X129911714Y-135646438D01*
X129911714Y-135646438D02*
X129959333Y-135694057D01*
X130435524Y-136598819D02*
X130626000Y-136598819D01*
X130626000Y-136598819D02*
X130721238Y-136551200D01*
X130721238Y-136551200D02*
X130768857Y-136503580D01*
X130768857Y-136503580D02*
X130864095Y-136360723D01*
X130864095Y-136360723D02*
X130911714Y-136170247D01*
X130911714Y-136170247D02*
X130911714Y-135789295D01*
X130911714Y-135789295D02*
X130864095Y-135694057D01*
X130864095Y-135694057D02*
X130816476Y-135646438D01*
X130816476Y-135646438D02*
X130721238Y-135598819D01*
X130721238Y-135598819D02*
X130530762Y-135598819D01*
X130530762Y-135598819D02*
X130435524Y-135646438D01*
X130435524Y-135646438D02*
X130387905Y-135694057D01*
X130387905Y-135694057D02*
X130340286Y-135789295D01*
X130340286Y-135789295D02*
X130340286Y-136027390D01*
X130340286Y-136027390D02*
X130387905Y-136122628D01*
X130387905Y-136122628D02*
X130435524Y-136170247D01*
X130435524Y-136170247D02*
X130530762Y-136217866D01*
X130530762Y-136217866D02*
X130721238Y-136217866D01*
X130721238Y-136217866D02*
X130816476Y-136170247D01*
X130816476Y-136170247D02*
X130864095Y-136122628D01*
X130864095Y-136122628D02*
X130911714Y-136027390D01*
X99292580Y-155963857D02*
X99340200Y-156011476D01*
X99340200Y-156011476D02*
X99387819Y-156154333D01*
X99387819Y-156154333D02*
X99387819Y-156249571D01*
X99387819Y-156249571D02*
X99340200Y-156392428D01*
X99340200Y-156392428D02*
X99244961Y-156487666D01*
X99244961Y-156487666D02*
X99149723Y-156535285D01*
X99149723Y-156535285D02*
X98959247Y-156582904D01*
X98959247Y-156582904D02*
X98816390Y-156582904D01*
X98816390Y-156582904D02*
X98625914Y-156535285D01*
X98625914Y-156535285D02*
X98530676Y-156487666D01*
X98530676Y-156487666D02*
X98435438Y-156392428D01*
X98435438Y-156392428D02*
X98387819Y-156249571D01*
X98387819Y-156249571D02*
X98387819Y-156154333D01*
X98387819Y-156154333D02*
X98435438Y-156011476D01*
X98435438Y-156011476D02*
X98483057Y-155963857D01*
X98483057Y-155582904D02*
X98435438Y-155535285D01*
X98435438Y-155535285D02*
X98387819Y-155440047D01*
X98387819Y-155440047D02*
X98387819Y-155201952D01*
X98387819Y-155201952D02*
X98435438Y-155106714D01*
X98435438Y-155106714D02*
X98483057Y-155059095D01*
X98483057Y-155059095D02*
X98578295Y-155011476D01*
X98578295Y-155011476D02*
X98673533Y-155011476D01*
X98673533Y-155011476D02*
X98816390Y-155059095D01*
X98816390Y-155059095D02*
X99387819Y-155630523D01*
X99387819Y-155630523D02*
X99387819Y-155011476D01*
X99387819Y-154059095D02*
X99387819Y-154630523D01*
X99387819Y-154344809D02*
X98387819Y-154344809D01*
X98387819Y-154344809D02*
X98530676Y-154440047D01*
X98530676Y-154440047D02*
X98625914Y-154535285D01*
X98625914Y-154535285D02*
X98673533Y-154630523D01*
X67208495Y-142279019D02*
X67208495Y-143088542D01*
X67208495Y-143088542D02*
X67256114Y-143183780D01*
X67256114Y-143183780D02*
X67303733Y-143231400D01*
X67303733Y-143231400D02*
X67398971Y-143279019D01*
X67398971Y-143279019D02*
X67589447Y-143279019D01*
X67589447Y-143279019D02*
X67684685Y-143231400D01*
X67684685Y-143231400D02*
X67732304Y-143183780D01*
X67732304Y-143183780D02*
X67779923Y-143088542D01*
X67779923Y-143088542D02*
X67779923Y-142279019D01*
X68208495Y-142374257D02*
X68256114Y-142326638D01*
X68256114Y-142326638D02*
X68351352Y-142279019D01*
X68351352Y-142279019D02*
X68589447Y-142279019D01*
X68589447Y-142279019D02*
X68684685Y-142326638D01*
X68684685Y-142326638D02*
X68732304Y-142374257D01*
X68732304Y-142374257D02*
X68779923Y-142469495D01*
X68779923Y-142469495D02*
X68779923Y-142564733D01*
X68779923Y-142564733D02*
X68732304Y-142707590D01*
X68732304Y-142707590D02*
X68160876Y-143279019D01*
X68160876Y-143279019D02*
X68779923Y-143279019D01*
X98639333Y-117962819D02*
X98306000Y-117486628D01*
X98067905Y-117962819D02*
X98067905Y-116962819D01*
X98067905Y-116962819D02*
X98448857Y-116962819D01*
X98448857Y-116962819D02*
X98544095Y-117010438D01*
X98544095Y-117010438D02*
X98591714Y-117058057D01*
X98591714Y-117058057D02*
X98639333Y-117153295D01*
X98639333Y-117153295D02*
X98639333Y-117296152D01*
X98639333Y-117296152D02*
X98591714Y-117391390D01*
X98591714Y-117391390D02*
X98544095Y-117439009D01*
X98544095Y-117439009D02*
X98448857Y-117486628D01*
X98448857Y-117486628D02*
X98067905Y-117486628D01*
X99496476Y-116962819D02*
X99306000Y-116962819D01*
X99306000Y-116962819D02*
X99210762Y-117010438D01*
X99210762Y-117010438D02*
X99163143Y-117058057D01*
X99163143Y-117058057D02*
X99067905Y-117200914D01*
X99067905Y-117200914D02*
X99020286Y-117391390D01*
X99020286Y-117391390D02*
X99020286Y-117772342D01*
X99020286Y-117772342D02*
X99067905Y-117867580D01*
X99067905Y-117867580D02*
X99115524Y-117915200D01*
X99115524Y-117915200D02*
X99210762Y-117962819D01*
X99210762Y-117962819D02*
X99401238Y-117962819D01*
X99401238Y-117962819D02*
X99496476Y-117915200D01*
X99496476Y-117915200D02*
X99544095Y-117867580D01*
X99544095Y-117867580D02*
X99591714Y-117772342D01*
X99591714Y-117772342D02*
X99591714Y-117534247D01*
X99591714Y-117534247D02*
X99544095Y-117439009D01*
X99544095Y-117439009D02*
X99496476Y-117391390D01*
X99496476Y-117391390D02*
X99401238Y-117343771D01*
X99401238Y-117343771D02*
X99210762Y-117343771D01*
X99210762Y-117343771D02*
X99115524Y-117391390D01*
X99115524Y-117391390D02*
X99067905Y-117439009D01*
X99067905Y-117439009D02*
X99020286Y-117534247D01*
X39203333Y-125327580D02*
X39155714Y-125375200D01*
X39155714Y-125375200D02*
X39012857Y-125422819D01*
X39012857Y-125422819D02*
X38917619Y-125422819D01*
X38917619Y-125422819D02*
X38774762Y-125375200D01*
X38774762Y-125375200D02*
X38679524Y-125279961D01*
X38679524Y-125279961D02*
X38631905Y-125184723D01*
X38631905Y-125184723D02*
X38584286Y-124994247D01*
X38584286Y-124994247D02*
X38584286Y-124851390D01*
X38584286Y-124851390D02*
X38631905Y-124660914D01*
X38631905Y-124660914D02*
X38679524Y-124565676D01*
X38679524Y-124565676D02*
X38774762Y-124470438D01*
X38774762Y-124470438D02*
X38917619Y-124422819D01*
X38917619Y-124422819D02*
X39012857Y-124422819D01*
X39012857Y-124422819D02*
X39155714Y-124470438D01*
X39155714Y-124470438D02*
X39203333Y-124518057D01*
X40060476Y-124756152D02*
X40060476Y-125422819D01*
X39822381Y-124375200D02*
X39584286Y-125089485D01*
X39584286Y-125089485D02*
X40203333Y-125089485D01*
X106164142Y-130153580D02*
X106116523Y-130201200D01*
X106116523Y-130201200D02*
X105973666Y-130248819D01*
X105973666Y-130248819D02*
X105878428Y-130248819D01*
X105878428Y-130248819D02*
X105735571Y-130201200D01*
X105735571Y-130201200D02*
X105640333Y-130105961D01*
X105640333Y-130105961D02*
X105592714Y-130010723D01*
X105592714Y-130010723D02*
X105545095Y-129820247D01*
X105545095Y-129820247D02*
X105545095Y-129677390D01*
X105545095Y-129677390D02*
X105592714Y-129486914D01*
X105592714Y-129486914D02*
X105640333Y-129391676D01*
X105640333Y-129391676D02*
X105735571Y-129296438D01*
X105735571Y-129296438D02*
X105878428Y-129248819D01*
X105878428Y-129248819D02*
X105973666Y-129248819D01*
X105973666Y-129248819D02*
X106116523Y-129296438D01*
X106116523Y-129296438D02*
X106164142Y-129344057D01*
X106497476Y-129248819D02*
X107116523Y-129248819D01*
X107116523Y-129248819D02*
X106783190Y-129629771D01*
X106783190Y-129629771D02*
X106926047Y-129629771D01*
X106926047Y-129629771D02*
X107021285Y-129677390D01*
X107021285Y-129677390D02*
X107068904Y-129725009D01*
X107068904Y-129725009D02*
X107116523Y-129820247D01*
X107116523Y-129820247D02*
X107116523Y-130058342D01*
X107116523Y-130058342D02*
X107068904Y-130153580D01*
X107068904Y-130153580D02*
X107021285Y-130201200D01*
X107021285Y-130201200D02*
X106926047Y-130248819D01*
X106926047Y-130248819D02*
X106640333Y-130248819D01*
X106640333Y-130248819D02*
X106545095Y-130201200D01*
X106545095Y-130201200D02*
X106497476Y-130153580D01*
X107973666Y-129582152D02*
X107973666Y-130248819D01*
X107735571Y-129201200D02*
X107497476Y-129915485D01*
X107497476Y-129915485D02*
X108116523Y-129915485D01*
X87582476Y-119567819D02*
X87582476Y-120282104D01*
X87582476Y-120282104D02*
X87534857Y-120424961D01*
X87534857Y-120424961D02*
X87439619Y-120520200D01*
X87439619Y-120520200D02*
X87296762Y-120567819D01*
X87296762Y-120567819D02*
X87201524Y-120567819D01*
X88582476Y-120567819D02*
X88011048Y-120567819D01*
X88296762Y-120567819D02*
X88296762Y-119567819D01*
X88296762Y-119567819D02*
X88201524Y-119710676D01*
X88201524Y-119710676D02*
X88106286Y-119805914D01*
X88106286Y-119805914D02*
X88011048Y-119853533D01*
X89439619Y-119901152D02*
X89439619Y-120567819D01*
X89201524Y-119520200D02*
X88963429Y-120234485D01*
X88963429Y-120234485D02*
X89582476Y-120234485D01*
X132040333Y-139392819D02*
X131564143Y-139392819D01*
X131564143Y-139392819D02*
X131564143Y-138392819D01*
X132802238Y-138726152D02*
X132802238Y-139392819D01*
X132564143Y-138345200D02*
X132326048Y-139059485D01*
X132326048Y-139059485D02*
X132945095Y-139059485D01*
X101959580Y-155963857D02*
X102007200Y-156011476D01*
X102007200Y-156011476D02*
X102054819Y-156154333D01*
X102054819Y-156154333D02*
X102054819Y-156249571D01*
X102054819Y-156249571D02*
X102007200Y-156392428D01*
X102007200Y-156392428D02*
X101911961Y-156487666D01*
X101911961Y-156487666D02*
X101816723Y-156535285D01*
X101816723Y-156535285D02*
X101626247Y-156582904D01*
X101626247Y-156582904D02*
X101483390Y-156582904D01*
X101483390Y-156582904D02*
X101292914Y-156535285D01*
X101292914Y-156535285D02*
X101197676Y-156487666D01*
X101197676Y-156487666D02*
X101102438Y-156392428D01*
X101102438Y-156392428D02*
X101054819Y-156249571D01*
X101054819Y-156249571D02*
X101054819Y-156154333D01*
X101054819Y-156154333D02*
X101102438Y-156011476D01*
X101102438Y-156011476D02*
X101150057Y-155963857D01*
X101150057Y-155582904D02*
X101102438Y-155535285D01*
X101102438Y-155535285D02*
X101054819Y-155440047D01*
X101054819Y-155440047D02*
X101054819Y-155201952D01*
X101054819Y-155201952D02*
X101102438Y-155106714D01*
X101102438Y-155106714D02*
X101150057Y-155059095D01*
X101150057Y-155059095D02*
X101245295Y-155011476D01*
X101245295Y-155011476D02*
X101340533Y-155011476D01*
X101340533Y-155011476D02*
X101483390Y-155059095D01*
X101483390Y-155059095D02*
X102054819Y-155630523D01*
X102054819Y-155630523D02*
X102054819Y-155011476D01*
X101054819Y-154392428D02*
X101054819Y-154297190D01*
X101054819Y-154297190D02*
X101102438Y-154201952D01*
X101102438Y-154201952D02*
X101150057Y-154154333D01*
X101150057Y-154154333D02*
X101245295Y-154106714D01*
X101245295Y-154106714D02*
X101435771Y-154059095D01*
X101435771Y-154059095D02*
X101673866Y-154059095D01*
X101673866Y-154059095D02*
X101864342Y-154106714D01*
X101864342Y-154106714D02*
X101959580Y-154154333D01*
X101959580Y-154154333D02*
X102007200Y-154201952D01*
X102007200Y-154201952D02*
X102054819Y-154297190D01*
X102054819Y-154297190D02*
X102054819Y-154392428D01*
X102054819Y-154392428D02*
X102007200Y-154487666D01*
X102007200Y-154487666D02*
X101959580Y-154535285D01*
X101959580Y-154535285D02*
X101864342Y-154582904D01*
X101864342Y-154582904D02*
X101673866Y-154630523D01*
X101673866Y-154630523D02*
X101435771Y-154630523D01*
X101435771Y-154630523D02*
X101245295Y-154582904D01*
X101245295Y-154582904D02*
X101150057Y-154535285D01*
X101150057Y-154535285D02*
X101102438Y-154487666D01*
X101102438Y-154487666D02*
X101054819Y-154392428D01*
X107039580Y-155963857D02*
X107087200Y-156011476D01*
X107087200Y-156011476D02*
X107134819Y-156154333D01*
X107134819Y-156154333D02*
X107134819Y-156249571D01*
X107134819Y-156249571D02*
X107087200Y-156392428D01*
X107087200Y-156392428D02*
X106991961Y-156487666D01*
X106991961Y-156487666D02*
X106896723Y-156535285D01*
X106896723Y-156535285D02*
X106706247Y-156582904D01*
X106706247Y-156582904D02*
X106563390Y-156582904D01*
X106563390Y-156582904D02*
X106372914Y-156535285D01*
X106372914Y-156535285D02*
X106277676Y-156487666D01*
X106277676Y-156487666D02*
X106182438Y-156392428D01*
X106182438Y-156392428D02*
X106134819Y-156249571D01*
X106134819Y-156249571D02*
X106134819Y-156154333D01*
X106134819Y-156154333D02*
X106182438Y-156011476D01*
X106182438Y-156011476D02*
X106230057Y-155963857D01*
X107134819Y-155011476D02*
X107134819Y-155582904D01*
X107134819Y-155297190D02*
X106134819Y-155297190D01*
X106134819Y-155297190D02*
X106277676Y-155392428D01*
X106277676Y-155392428D02*
X106372914Y-155487666D01*
X106372914Y-155487666D02*
X106420533Y-155582904D01*
X106563390Y-154440047D02*
X106515771Y-154535285D01*
X106515771Y-154535285D02*
X106468152Y-154582904D01*
X106468152Y-154582904D02*
X106372914Y-154630523D01*
X106372914Y-154630523D02*
X106325295Y-154630523D01*
X106325295Y-154630523D02*
X106230057Y-154582904D01*
X106230057Y-154582904D02*
X106182438Y-154535285D01*
X106182438Y-154535285D02*
X106134819Y-154440047D01*
X106134819Y-154440047D02*
X106134819Y-154249571D01*
X106134819Y-154249571D02*
X106182438Y-154154333D01*
X106182438Y-154154333D02*
X106230057Y-154106714D01*
X106230057Y-154106714D02*
X106325295Y-154059095D01*
X106325295Y-154059095D02*
X106372914Y-154059095D01*
X106372914Y-154059095D02*
X106468152Y-154106714D01*
X106468152Y-154106714D02*
X106515771Y-154154333D01*
X106515771Y-154154333D02*
X106563390Y-154249571D01*
X106563390Y-154249571D02*
X106563390Y-154440047D01*
X106563390Y-154440047D02*
X106611009Y-154535285D01*
X106611009Y-154535285D02*
X106658628Y-154582904D01*
X106658628Y-154582904D02*
X106753866Y-154630523D01*
X106753866Y-154630523D02*
X106944342Y-154630523D01*
X106944342Y-154630523D02*
X107039580Y-154582904D01*
X107039580Y-154582904D02*
X107087200Y-154535285D01*
X107087200Y-154535285D02*
X107134819Y-154440047D01*
X107134819Y-154440047D02*
X107134819Y-154249571D01*
X107134819Y-154249571D02*
X107087200Y-154154333D01*
X107087200Y-154154333D02*
X107039580Y-154106714D01*
X107039580Y-154106714D02*
X106944342Y-154059095D01*
X106944342Y-154059095D02*
X106753866Y-154059095D01*
X106753866Y-154059095D02*
X106658628Y-154106714D01*
X106658628Y-154106714D02*
X106611009Y-154154333D01*
X106611009Y-154154333D02*
X106563390Y-154249571D01*
X90624819Y-150756857D02*
X90148628Y-151090190D01*
X90624819Y-151328285D02*
X89624819Y-151328285D01*
X89624819Y-151328285D02*
X89624819Y-150947333D01*
X89624819Y-150947333D02*
X89672438Y-150852095D01*
X89672438Y-150852095D02*
X89720057Y-150804476D01*
X89720057Y-150804476D02*
X89815295Y-150756857D01*
X89815295Y-150756857D02*
X89958152Y-150756857D01*
X89958152Y-150756857D02*
X90053390Y-150804476D01*
X90053390Y-150804476D02*
X90101009Y-150852095D01*
X90101009Y-150852095D02*
X90148628Y-150947333D01*
X90148628Y-150947333D02*
X90148628Y-151328285D01*
X90624819Y-149804476D02*
X90624819Y-150375904D01*
X90624819Y-150090190D02*
X89624819Y-150090190D01*
X89624819Y-150090190D02*
X89767676Y-150185428D01*
X89767676Y-150185428D02*
X89862914Y-150280666D01*
X89862914Y-150280666D02*
X89910533Y-150375904D01*
X89624819Y-149471142D02*
X89624819Y-148804476D01*
X89624819Y-148804476D02*
X90624819Y-149233047D01*
X108912819Y-110212094D02*
X107912819Y-110212094D01*
X107912819Y-110212094D02*
X107912819Y-109973999D01*
X107912819Y-109973999D02*
X107960438Y-109831142D01*
X107960438Y-109831142D02*
X108055676Y-109735904D01*
X108055676Y-109735904D02*
X108150914Y-109688285D01*
X108150914Y-109688285D02*
X108341390Y-109640666D01*
X108341390Y-109640666D02*
X108484247Y-109640666D01*
X108484247Y-109640666D02*
X108674723Y-109688285D01*
X108674723Y-109688285D02*
X108769961Y-109735904D01*
X108769961Y-109735904D02*
X108865200Y-109831142D01*
X108865200Y-109831142D02*
X108912819Y-109973999D01*
X108912819Y-109973999D02*
X108912819Y-110212094D01*
X108912819Y-108688285D02*
X108912819Y-109259713D01*
X108912819Y-108973999D02*
X107912819Y-108973999D01*
X107912819Y-108973999D02*
X108055676Y-109069237D01*
X108055676Y-109069237D02*
X108150914Y-109164475D01*
X108150914Y-109164475D02*
X108198533Y-109259713D01*
X106164142Y-119866580D02*
X106116523Y-119914200D01*
X106116523Y-119914200D02*
X105973666Y-119961819D01*
X105973666Y-119961819D02*
X105878428Y-119961819D01*
X105878428Y-119961819D02*
X105735571Y-119914200D01*
X105735571Y-119914200D02*
X105640333Y-119818961D01*
X105640333Y-119818961D02*
X105592714Y-119723723D01*
X105592714Y-119723723D02*
X105545095Y-119533247D01*
X105545095Y-119533247D02*
X105545095Y-119390390D01*
X105545095Y-119390390D02*
X105592714Y-119199914D01*
X105592714Y-119199914D02*
X105640333Y-119104676D01*
X105640333Y-119104676D02*
X105735571Y-119009438D01*
X105735571Y-119009438D02*
X105878428Y-118961819D01*
X105878428Y-118961819D02*
X105973666Y-118961819D01*
X105973666Y-118961819D02*
X106116523Y-119009438D01*
X106116523Y-119009438D02*
X106164142Y-119057057D01*
X106545095Y-119057057D02*
X106592714Y-119009438D01*
X106592714Y-119009438D02*
X106687952Y-118961819D01*
X106687952Y-118961819D02*
X106926047Y-118961819D01*
X106926047Y-118961819D02*
X107021285Y-119009438D01*
X107021285Y-119009438D02*
X107068904Y-119057057D01*
X107068904Y-119057057D02*
X107116523Y-119152295D01*
X107116523Y-119152295D02*
X107116523Y-119247533D01*
X107116523Y-119247533D02*
X107068904Y-119390390D01*
X107068904Y-119390390D02*
X106497476Y-119961819D01*
X106497476Y-119961819D02*
X107116523Y-119961819D01*
X107687952Y-119390390D02*
X107592714Y-119342771D01*
X107592714Y-119342771D02*
X107545095Y-119295152D01*
X107545095Y-119295152D02*
X107497476Y-119199914D01*
X107497476Y-119199914D02*
X107497476Y-119152295D01*
X107497476Y-119152295D02*
X107545095Y-119057057D01*
X107545095Y-119057057D02*
X107592714Y-119009438D01*
X107592714Y-119009438D02*
X107687952Y-118961819D01*
X107687952Y-118961819D02*
X107878428Y-118961819D01*
X107878428Y-118961819D02*
X107973666Y-119009438D01*
X107973666Y-119009438D02*
X108021285Y-119057057D01*
X108021285Y-119057057D02*
X108068904Y-119152295D01*
X108068904Y-119152295D02*
X108068904Y-119199914D01*
X108068904Y-119199914D02*
X108021285Y-119295152D01*
X108021285Y-119295152D02*
X107973666Y-119342771D01*
X107973666Y-119342771D02*
X107878428Y-119390390D01*
X107878428Y-119390390D02*
X107687952Y-119390390D01*
X107687952Y-119390390D02*
X107592714Y-119438009D01*
X107592714Y-119438009D02*
X107545095Y-119485628D01*
X107545095Y-119485628D02*
X107497476Y-119580866D01*
X107497476Y-119580866D02*
X107497476Y-119771342D01*
X107497476Y-119771342D02*
X107545095Y-119866580D01*
X107545095Y-119866580D02*
X107592714Y-119914200D01*
X107592714Y-119914200D02*
X107687952Y-119961819D01*
X107687952Y-119961819D02*
X107878428Y-119961819D01*
X107878428Y-119961819D02*
X107973666Y-119914200D01*
X107973666Y-119914200D02*
X108021285Y-119866580D01*
X108021285Y-119866580D02*
X108068904Y-119771342D01*
X108068904Y-119771342D02*
X108068904Y-119580866D01*
X108068904Y-119580866D02*
X108021285Y-119485628D01*
X108021285Y-119485628D02*
X107973666Y-119438009D01*
X107973666Y-119438009D02*
X107878428Y-119390390D01*
X121912142Y-127359580D02*
X121864523Y-127407200D01*
X121864523Y-127407200D02*
X121721666Y-127454819D01*
X121721666Y-127454819D02*
X121626428Y-127454819D01*
X121626428Y-127454819D02*
X121483571Y-127407200D01*
X121483571Y-127407200D02*
X121388333Y-127311961D01*
X121388333Y-127311961D02*
X121340714Y-127216723D01*
X121340714Y-127216723D02*
X121293095Y-127026247D01*
X121293095Y-127026247D02*
X121293095Y-126883390D01*
X121293095Y-126883390D02*
X121340714Y-126692914D01*
X121340714Y-126692914D02*
X121388333Y-126597676D01*
X121388333Y-126597676D02*
X121483571Y-126502438D01*
X121483571Y-126502438D02*
X121626428Y-126454819D01*
X121626428Y-126454819D02*
X121721666Y-126454819D01*
X121721666Y-126454819D02*
X121864523Y-126502438D01*
X121864523Y-126502438D02*
X121912142Y-126550057D01*
X122769285Y-126788152D02*
X122769285Y-127454819D01*
X122531190Y-126407200D02*
X122293095Y-127121485D01*
X122293095Y-127121485D02*
X122912142Y-127121485D01*
X123816904Y-127454819D02*
X123245476Y-127454819D01*
X123531190Y-127454819D02*
X123531190Y-126454819D01*
X123531190Y-126454819D02*
X123435952Y-126597676D01*
X123435952Y-126597676D02*
X123340714Y-126692914D01*
X123340714Y-126692914D02*
X123245476Y-126740533D01*
X124692580Y-117355857D02*
X124740200Y-117403476D01*
X124740200Y-117403476D02*
X124787819Y-117546333D01*
X124787819Y-117546333D02*
X124787819Y-117641571D01*
X124787819Y-117641571D02*
X124740200Y-117784428D01*
X124740200Y-117784428D02*
X124644961Y-117879666D01*
X124644961Y-117879666D02*
X124549723Y-117927285D01*
X124549723Y-117927285D02*
X124359247Y-117974904D01*
X124359247Y-117974904D02*
X124216390Y-117974904D01*
X124216390Y-117974904D02*
X124025914Y-117927285D01*
X124025914Y-117927285D02*
X123930676Y-117879666D01*
X123930676Y-117879666D02*
X123835438Y-117784428D01*
X123835438Y-117784428D02*
X123787819Y-117641571D01*
X123787819Y-117641571D02*
X123787819Y-117546333D01*
X123787819Y-117546333D02*
X123835438Y-117403476D01*
X123835438Y-117403476D02*
X123883057Y-117355857D01*
X123883057Y-116974904D02*
X123835438Y-116927285D01*
X123835438Y-116927285D02*
X123787819Y-116832047D01*
X123787819Y-116832047D02*
X123787819Y-116593952D01*
X123787819Y-116593952D02*
X123835438Y-116498714D01*
X123835438Y-116498714D02*
X123883057Y-116451095D01*
X123883057Y-116451095D02*
X123978295Y-116403476D01*
X123978295Y-116403476D02*
X124073533Y-116403476D01*
X124073533Y-116403476D02*
X124216390Y-116451095D01*
X124216390Y-116451095D02*
X124787819Y-117022523D01*
X124787819Y-117022523D02*
X124787819Y-116403476D01*
X124787819Y-115927285D02*
X124787819Y-115736809D01*
X124787819Y-115736809D02*
X124740200Y-115641571D01*
X124740200Y-115641571D02*
X124692580Y-115593952D01*
X124692580Y-115593952D02*
X124549723Y-115498714D01*
X124549723Y-115498714D02*
X124359247Y-115451095D01*
X124359247Y-115451095D02*
X123978295Y-115451095D01*
X123978295Y-115451095D02*
X123883057Y-115498714D01*
X123883057Y-115498714D02*
X123835438Y-115546333D01*
X123835438Y-115546333D02*
X123787819Y-115641571D01*
X123787819Y-115641571D02*
X123787819Y-115832047D01*
X123787819Y-115832047D02*
X123835438Y-115927285D01*
X123835438Y-115927285D02*
X123883057Y-115974904D01*
X123883057Y-115974904D02*
X123978295Y-116022523D01*
X123978295Y-116022523D02*
X124216390Y-116022523D01*
X124216390Y-116022523D02*
X124311628Y-115974904D01*
X124311628Y-115974904D02*
X124359247Y-115927285D01*
X124359247Y-115927285D02*
X124406866Y-115832047D01*
X124406866Y-115832047D02*
X124406866Y-115641571D01*
X124406866Y-115641571D02*
X124359247Y-115546333D01*
X124359247Y-115546333D02*
X124311628Y-115498714D01*
X124311628Y-115498714D02*
X124216390Y-115451095D01*
X59359895Y-156630019D02*
X59359895Y-157439542D01*
X59359895Y-157439542D02*
X59407514Y-157534780D01*
X59407514Y-157534780D02*
X59455133Y-157582400D01*
X59455133Y-157582400D02*
X59550371Y-157630019D01*
X59550371Y-157630019D02*
X59740847Y-157630019D01*
X59740847Y-157630019D02*
X59836085Y-157582400D01*
X59836085Y-157582400D02*
X59883704Y-157534780D01*
X59883704Y-157534780D02*
X59931323Y-157439542D01*
X59931323Y-157439542D02*
X59931323Y-156630019D01*
X60550371Y-157058590D02*
X60455133Y-157010971D01*
X60455133Y-157010971D02*
X60407514Y-156963352D01*
X60407514Y-156963352D02*
X60359895Y-156868114D01*
X60359895Y-156868114D02*
X60359895Y-156820495D01*
X60359895Y-156820495D02*
X60407514Y-156725257D01*
X60407514Y-156725257D02*
X60455133Y-156677638D01*
X60455133Y-156677638D02*
X60550371Y-156630019D01*
X60550371Y-156630019D02*
X60740847Y-156630019D01*
X60740847Y-156630019D02*
X60836085Y-156677638D01*
X60836085Y-156677638D02*
X60883704Y-156725257D01*
X60883704Y-156725257D02*
X60931323Y-156820495D01*
X60931323Y-156820495D02*
X60931323Y-156868114D01*
X60931323Y-156868114D02*
X60883704Y-156963352D01*
X60883704Y-156963352D02*
X60836085Y-157010971D01*
X60836085Y-157010971D02*
X60740847Y-157058590D01*
X60740847Y-157058590D02*
X60550371Y-157058590D01*
X60550371Y-157058590D02*
X60455133Y-157106209D01*
X60455133Y-157106209D02*
X60407514Y-157153828D01*
X60407514Y-157153828D02*
X60359895Y-157249066D01*
X60359895Y-157249066D02*
X60359895Y-157439542D01*
X60359895Y-157439542D02*
X60407514Y-157534780D01*
X60407514Y-157534780D02*
X60455133Y-157582400D01*
X60455133Y-157582400D02*
X60550371Y-157630019D01*
X60550371Y-157630019D02*
X60740847Y-157630019D01*
X60740847Y-157630019D02*
X60836085Y-157582400D01*
X60836085Y-157582400D02*
X60883704Y-157534780D01*
X60883704Y-157534780D02*
X60931323Y-157439542D01*
X60931323Y-157439542D02*
X60931323Y-157249066D01*
X60931323Y-157249066D02*
X60883704Y-157153828D01*
X60883704Y-157153828D02*
X60836085Y-157106209D01*
X60836085Y-157106209D02*
X60740847Y-157058590D01*
X89495333Y-108752819D02*
X89162000Y-108276628D01*
X88923905Y-108752819D02*
X88923905Y-107752819D01*
X88923905Y-107752819D02*
X89304857Y-107752819D01*
X89304857Y-107752819D02*
X89400095Y-107800438D01*
X89400095Y-107800438D02*
X89447714Y-107848057D01*
X89447714Y-107848057D02*
X89495333Y-107943295D01*
X89495333Y-107943295D02*
X89495333Y-108086152D01*
X89495333Y-108086152D02*
X89447714Y-108181390D01*
X89447714Y-108181390D02*
X89400095Y-108229009D01*
X89400095Y-108229009D02*
X89304857Y-108276628D01*
X89304857Y-108276628D02*
X88923905Y-108276628D01*
X89828667Y-107752819D02*
X90495333Y-107752819D01*
X90495333Y-107752819D02*
X90066762Y-108752819D01*
X122039142Y-125200580D02*
X121991523Y-125248200D01*
X121991523Y-125248200D02*
X121848666Y-125295819D01*
X121848666Y-125295819D02*
X121753428Y-125295819D01*
X121753428Y-125295819D02*
X121610571Y-125248200D01*
X121610571Y-125248200D02*
X121515333Y-125152961D01*
X121515333Y-125152961D02*
X121467714Y-125057723D01*
X121467714Y-125057723D02*
X121420095Y-124867247D01*
X121420095Y-124867247D02*
X121420095Y-124724390D01*
X121420095Y-124724390D02*
X121467714Y-124533914D01*
X121467714Y-124533914D02*
X121515333Y-124438676D01*
X121515333Y-124438676D02*
X121610571Y-124343438D01*
X121610571Y-124343438D02*
X121753428Y-124295819D01*
X121753428Y-124295819D02*
X121848666Y-124295819D01*
X121848666Y-124295819D02*
X121991523Y-124343438D01*
X121991523Y-124343438D02*
X122039142Y-124391057D01*
X122372476Y-124295819D02*
X122991523Y-124295819D01*
X122991523Y-124295819D02*
X122658190Y-124676771D01*
X122658190Y-124676771D02*
X122801047Y-124676771D01*
X122801047Y-124676771D02*
X122896285Y-124724390D01*
X122896285Y-124724390D02*
X122943904Y-124772009D01*
X122943904Y-124772009D02*
X122991523Y-124867247D01*
X122991523Y-124867247D02*
X122991523Y-125105342D01*
X122991523Y-125105342D02*
X122943904Y-125200580D01*
X122943904Y-125200580D02*
X122896285Y-125248200D01*
X122896285Y-125248200D02*
X122801047Y-125295819D01*
X122801047Y-125295819D02*
X122515333Y-125295819D01*
X122515333Y-125295819D02*
X122420095Y-125248200D01*
X122420095Y-125248200D02*
X122372476Y-125200580D01*
X123324857Y-124295819D02*
X123991523Y-124295819D01*
X123991523Y-124295819D02*
X123562952Y-125295819D01*
X81994476Y-116592819D02*
X81994476Y-117307104D01*
X81994476Y-117307104D02*
X81946857Y-117449961D01*
X81946857Y-117449961D02*
X81851619Y-117545200D01*
X81851619Y-117545200D02*
X81708762Y-117592819D01*
X81708762Y-117592819D02*
X81613524Y-117592819D01*
X82994476Y-117592819D02*
X82423048Y-117592819D01*
X82708762Y-117592819D02*
X82708762Y-116592819D01*
X82708762Y-116592819D02*
X82613524Y-116735676D01*
X82613524Y-116735676D02*
X82518286Y-116830914D01*
X82518286Y-116830914D02*
X82423048Y-116878533D01*
X83899238Y-116592819D02*
X83423048Y-116592819D01*
X83423048Y-116592819D02*
X83375429Y-117069009D01*
X83375429Y-117069009D02*
X83423048Y-117021390D01*
X83423048Y-117021390D02*
X83518286Y-116973771D01*
X83518286Y-116973771D02*
X83756381Y-116973771D01*
X83756381Y-116973771D02*
X83851619Y-117021390D01*
X83851619Y-117021390D02*
X83899238Y-117069009D01*
X83899238Y-117069009D02*
X83946857Y-117164247D01*
X83946857Y-117164247D02*
X83946857Y-117402342D01*
X83946857Y-117402342D02*
X83899238Y-117497580D01*
X83899238Y-117497580D02*
X83851619Y-117545200D01*
X83851619Y-117545200D02*
X83756381Y-117592819D01*
X83756381Y-117592819D02*
X83518286Y-117592819D01*
X83518286Y-117592819D02*
X83423048Y-117545200D01*
X83423048Y-117545200D02*
X83375429Y-117497580D01*
X67135476Y-136487819D02*
X67135476Y-137202104D01*
X67135476Y-137202104D02*
X67087857Y-137344961D01*
X67087857Y-137344961D02*
X66992619Y-137440200D01*
X66992619Y-137440200D02*
X66849762Y-137487819D01*
X66849762Y-137487819D02*
X66754524Y-137487819D01*
X68135476Y-137487819D02*
X67564048Y-137487819D01*
X67849762Y-137487819D02*
X67849762Y-136487819D01*
X67849762Y-136487819D02*
X67754524Y-136630676D01*
X67754524Y-136630676D02*
X67659286Y-136725914D01*
X67659286Y-136725914D02*
X67564048Y-136773533D01*
X68992619Y-136487819D02*
X68802143Y-136487819D01*
X68802143Y-136487819D02*
X68706905Y-136535438D01*
X68706905Y-136535438D02*
X68659286Y-136583057D01*
X68659286Y-136583057D02*
X68564048Y-136725914D01*
X68564048Y-136725914D02*
X68516429Y-136916390D01*
X68516429Y-136916390D02*
X68516429Y-137297342D01*
X68516429Y-137297342D02*
X68564048Y-137392580D01*
X68564048Y-137392580D02*
X68611667Y-137440200D01*
X68611667Y-137440200D02*
X68706905Y-137487819D01*
X68706905Y-137487819D02*
X68897381Y-137487819D01*
X68897381Y-137487819D02*
X68992619Y-137440200D01*
X68992619Y-137440200D02*
X69040238Y-137392580D01*
X69040238Y-137392580D02*
X69087857Y-137297342D01*
X69087857Y-137297342D02*
X69087857Y-137059247D01*
X69087857Y-137059247D02*
X69040238Y-136964009D01*
X69040238Y-136964009D02*
X68992619Y-136916390D01*
X68992619Y-136916390D02*
X68897381Y-136868771D01*
X68897381Y-136868771D02*
X68706905Y-136868771D01*
X68706905Y-136868771D02*
X68611667Y-136916390D01*
X68611667Y-136916390D02*
X68564048Y-136964009D01*
X68564048Y-136964009D02*
X68516429Y-137059247D01*
X67810142Y-133963580D02*
X67762523Y-134011200D01*
X67762523Y-134011200D02*
X67619666Y-134058819D01*
X67619666Y-134058819D02*
X67524428Y-134058819D01*
X67524428Y-134058819D02*
X67381571Y-134011200D01*
X67381571Y-134011200D02*
X67286333Y-133915961D01*
X67286333Y-133915961D02*
X67238714Y-133820723D01*
X67238714Y-133820723D02*
X67191095Y-133630247D01*
X67191095Y-133630247D02*
X67191095Y-133487390D01*
X67191095Y-133487390D02*
X67238714Y-133296914D01*
X67238714Y-133296914D02*
X67286333Y-133201676D01*
X67286333Y-133201676D02*
X67381571Y-133106438D01*
X67381571Y-133106438D02*
X67524428Y-133058819D01*
X67524428Y-133058819D02*
X67619666Y-133058819D01*
X67619666Y-133058819D02*
X67762523Y-133106438D01*
X67762523Y-133106438D02*
X67810142Y-133154057D01*
X68762523Y-134058819D02*
X68191095Y-134058819D01*
X68476809Y-134058819D02*
X68476809Y-133058819D01*
X68476809Y-133058819D02*
X68381571Y-133201676D01*
X68381571Y-133201676D02*
X68286333Y-133296914D01*
X68286333Y-133296914D02*
X68191095Y-133344533D01*
X69381571Y-133058819D02*
X69476809Y-133058819D01*
X69476809Y-133058819D02*
X69572047Y-133106438D01*
X69572047Y-133106438D02*
X69619666Y-133154057D01*
X69619666Y-133154057D02*
X69667285Y-133249295D01*
X69667285Y-133249295D02*
X69714904Y-133439771D01*
X69714904Y-133439771D02*
X69714904Y-133677866D01*
X69714904Y-133677866D02*
X69667285Y-133868342D01*
X69667285Y-133868342D02*
X69619666Y-133963580D01*
X69619666Y-133963580D02*
X69572047Y-134011200D01*
X69572047Y-134011200D02*
X69476809Y-134058819D01*
X69476809Y-134058819D02*
X69381571Y-134058819D01*
X69381571Y-134058819D02*
X69286333Y-134011200D01*
X69286333Y-134011200D02*
X69238714Y-133963580D01*
X69238714Y-133963580D02*
X69191095Y-133868342D01*
X69191095Y-133868342D02*
X69143476Y-133677866D01*
X69143476Y-133677866D02*
X69143476Y-133439771D01*
X69143476Y-133439771D02*
X69191095Y-133249295D01*
X69191095Y-133249295D02*
X69238714Y-133154057D01*
X69238714Y-133154057D02*
X69286333Y-133106438D01*
X69286333Y-133106438D02*
X69381571Y-133058819D01*
X126216580Y-119641857D02*
X126264200Y-119689476D01*
X126264200Y-119689476D02*
X126311819Y-119832333D01*
X126311819Y-119832333D02*
X126311819Y-119927571D01*
X126311819Y-119927571D02*
X126264200Y-120070428D01*
X126264200Y-120070428D02*
X126168961Y-120165666D01*
X126168961Y-120165666D02*
X126073723Y-120213285D01*
X126073723Y-120213285D02*
X125883247Y-120260904D01*
X125883247Y-120260904D02*
X125740390Y-120260904D01*
X125740390Y-120260904D02*
X125549914Y-120213285D01*
X125549914Y-120213285D02*
X125454676Y-120165666D01*
X125454676Y-120165666D02*
X125359438Y-120070428D01*
X125359438Y-120070428D02*
X125311819Y-119927571D01*
X125311819Y-119927571D02*
X125311819Y-119832333D01*
X125311819Y-119832333D02*
X125359438Y-119689476D01*
X125359438Y-119689476D02*
X125407057Y-119641857D01*
X125407057Y-119260904D02*
X125359438Y-119213285D01*
X125359438Y-119213285D02*
X125311819Y-119118047D01*
X125311819Y-119118047D02*
X125311819Y-118879952D01*
X125311819Y-118879952D02*
X125359438Y-118784714D01*
X125359438Y-118784714D02*
X125407057Y-118737095D01*
X125407057Y-118737095D02*
X125502295Y-118689476D01*
X125502295Y-118689476D02*
X125597533Y-118689476D01*
X125597533Y-118689476D02*
X125740390Y-118737095D01*
X125740390Y-118737095D02*
X126311819Y-119308523D01*
X126311819Y-119308523D02*
X126311819Y-118689476D01*
X125311819Y-117784714D02*
X125311819Y-118260904D01*
X125311819Y-118260904D02*
X125788009Y-118308523D01*
X125788009Y-118308523D02*
X125740390Y-118260904D01*
X125740390Y-118260904D02*
X125692771Y-118165666D01*
X125692771Y-118165666D02*
X125692771Y-117927571D01*
X125692771Y-117927571D02*
X125740390Y-117832333D01*
X125740390Y-117832333D02*
X125788009Y-117784714D01*
X125788009Y-117784714D02*
X125883247Y-117737095D01*
X125883247Y-117737095D02*
X126121342Y-117737095D01*
X126121342Y-117737095D02*
X126216580Y-117784714D01*
X126216580Y-117784714D02*
X126264200Y-117832333D01*
X126264200Y-117832333D02*
X126311819Y-117927571D01*
X126311819Y-117927571D02*
X126311819Y-118165666D01*
X126311819Y-118165666D02*
X126264200Y-118260904D01*
X126264200Y-118260904D02*
X126216580Y-118308523D01*
X104499580Y-155963857D02*
X104547200Y-156011476D01*
X104547200Y-156011476D02*
X104594819Y-156154333D01*
X104594819Y-156154333D02*
X104594819Y-156249571D01*
X104594819Y-156249571D02*
X104547200Y-156392428D01*
X104547200Y-156392428D02*
X104451961Y-156487666D01*
X104451961Y-156487666D02*
X104356723Y-156535285D01*
X104356723Y-156535285D02*
X104166247Y-156582904D01*
X104166247Y-156582904D02*
X104023390Y-156582904D01*
X104023390Y-156582904D02*
X103832914Y-156535285D01*
X103832914Y-156535285D02*
X103737676Y-156487666D01*
X103737676Y-156487666D02*
X103642438Y-156392428D01*
X103642438Y-156392428D02*
X103594819Y-156249571D01*
X103594819Y-156249571D02*
X103594819Y-156154333D01*
X103594819Y-156154333D02*
X103642438Y-156011476D01*
X103642438Y-156011476D02*
X103690057Y-155963857D01*
X104594819Y-155011476D02*
X104594819Y-155582904D01*
X104594819Y-155297190D02*
X103594819Y-155297190D01*
X103594819Y-155297190D02*
X103737676Y-155392428D01*
X103737676Y-155392428D02*
X103832914Y-155487666D01*
X103832914Y-155487666D02*
X103880533Y-155582904D01*
X104594819Y-154535285D02*
X104594819Y-154344809D01*
X104594819Y-154344809D02*
X104547200Y-154249571D01*
X104547200Y-154249571D02*
X104499580Y-154201952D01*
X104499580Y-154201952D02*
X104356723Y-154106714D01*
X104356723Y-154106714D02*
X104166247Y-154059095D01*
X104166247Y-154059095D02*
X103785295Y-154059095D01*
X103785295Y-154059095D02*
X103690057Y-154106714D01*
X103690057Y-154106714D02*
X103642438Y-154154333D01*
X103642438Y-154154333D02*
X103594819Y-154249571D01*
X103594819Y-154249571D02*
X103594819Y-154440047D01*
X103594819Y-154440047D02*
X103642438Y-154535285D01*
X103642438Y-154535285D02*
X103690057Y-154582904D01*
X103690057Y-154582904D02*
X103785295Y-154630523D01*
X103785295Y-154630523D02*
X104023390Y-154630523D01*
X104023390Y-154630523D02*
X104118628Y-154582904D01*
X104118628Y-154582904D02*
X104166247Y-154535285D01*
X104166247Y-154535285D02*
X104213866Y-154440047D01*
X104213866Y-154440047D02*
X104213866Y-154249571D01*
X104213866Y-154249571D02*
X104166247Y-154154333D01*
X104166247Y-154154333D02*
X104118628Y-154106714D01*
X104118628Y-154106714D02*
X104023390Y-154059095D01*
X101846142Y-126089580D02*
X101798523Y-126137200D01*
X101798523Y-126137200D02*
X101655666Y-126184819D01*
X101655666Y-126184819D02*
X101560428Y-126184819D01*
X101560428Y-126184819D02*
X101417571Y-126137200D01*
X101417571Y-126137200D02*
X101322333Y-126041961D01*
X101322333Y-126041961D02*
X101274714Y-125946723D01*
X101274714Y-125946723D02*
X101227095Y-125756247D01*
X101227095Y-125756247D02*
X101227095Y-125613390D01*
X101227095Y-125613390D02*
X101274714Y-125422914D01*
X101274714Y-125422914D02*
X101322333Y-125327676D01*
X101322333Y-125327676D02*
X101417571Y-125232438D01*
X101417571Y-125232438D02*
X101560428Y-125184819D01*
X101560428Y-125184819D02*
X101655666Y-125184819D01*
X101655666Y-125184819D02*
X101798523Y-125232438D01*
X101798523Y-125232438D02*
X101846142Y-125280057D01*
X102227095Y-125280057D02*
X102274714Y-125232438D01*
X102274714Y-125232438D02*
X102369952Y-125184819D01*
X102369952Y-125184819D02*
X102608047Y-125184819D01*
X102608047Y-125184819D02*
X102703285Y-125232438D01*
X102703285Y-125232438D02*
X102750904Y-125280057D01*
X102750904Y-125280057D02*
X102798523Y-125375295D01*
X102798523Y-125375295D02*
X102798523Y-125470533D01*
X102798523Y-125470533D02*
X102750904Y-125613390D01*
X102750904Y-125613390D02*
X102179476Y-126184819D01*
X102179476Y-126184819D02*
X102798523Y-126184819D01*
X103179476Y-125280057D02*
X103227095Y-125232438D01*
X103227095Y-125232438D02*
X103322333Y-125184819D01*
X103322333Y-125184819D02*
X103560428Y-125184819D01*
X103560428Y-125184819D02*
X103655666Y-125232438D01*
X103655666Y-125232438D02*
X103703285Y-125280057D01*
X103703285Y-125280057D02*
X103750904Y-125375295D01*
X103750904Y-125375295D02*
X103750904Y-125470533D01*
X103750904Y-125470533D02*
X103703285Y-125613390D01*
X103703285Y-125613390D02*
X103131857Y-126184819D01*
X103131857Y-126184819D02*
X103750904Y-126184819D01*
D14*
%TO.C,J10*%
X73291700Y-85521800D02*
G75*
G02*
X72529700Y-85521800I-381000J0D01*
G01*
X72529700Y-85521800D02*
G75*
G02*
X73291700Y-85521800I381000J0D01*
G01*
%TO.C,J9*%
X151206200Y-146062700D02*
G75*
G02*
X150444200Y-146062700I-381000J0D01*
G01*
X150444200Y-146062700D02*
G75*
G02*
X151206200Y-146062700I381000J0D01*
G01*
%TO.C,J8*%
X83995354Y-167716200D02*
G75*
G02*
X83233354Y-167716200I-381000J0D01*
G01*
X83233354Y-167716200D02*
G75*
G02*
X83995354Y-167716200I381000J0D01*
G01*
%TO.C,J6*%
X105012300Y-167716200D02*
G75*
G02*
X104250300Y-167716200I-381000J0D01*
G01*
X104250300Y-167716200D02*
G75*
G02*
X105012300Y-167716200I381000J0D01*
G01*
%TO.C,J5*%
X136029700Y-85521800D02*
G75*
G02*
X135267700Y-85521800I-381000J0D01*
G01*
X135267700Y-85521800D02*
G75*
G02*
X136029700Y-85521800I381000J0D01*
G01*
%TO.C,J4*%
X110561700Y-85521800D02*
G75*
G02*
X109799700Y-85521800I-381000J0D01*
G01*
X109799700Y-85521800D02*
G75*
G02*
X110561700Y-85521800I381000J0D01*
G01*
%TO.C,J2*%
X55986300Y-167716200D02*
G75*
G02*
X55224300Y-167716200I-381000J0D01*
G01*
X55224300Y-167716200D02*
G75*
G02*
X55986300Y-167716200I381000J0D01*
G01*
%TO.C,J1*%
X28498800Y-121645300D02*
G75*
G02*
X27736800Y-121645300I-381000J0D01*
G01*
X27736800Y-121645300D02*
G75*
G02*
X28498800Y-121645300I381000J0D01*
G01*
D15*
%TO.C,U6*%
X62608000Y-128640000D02*
X63008000Y-128640000D01*
X62608000Y-129040000D02*
X62608000Y-128640000D01*
X62608000Y-131540000D02*
X62608000Y-131940000D01*
X62608000Y-131940000D02*
X63008000Y-131940000D01*
X65908000Y-129040000D02*
X65908000Y-128540000D01*
X65908000Y-131540000D02*
X65908000Y-131940000D01*
X65908000Y-131940000D02*
X65508000Y-131940000D01*
%TO.C,C7*%
X114956000Y-110628165D02*
X114956000Y-110859835D01*
X115676000Y-110628165D02*
X115676000Y-110859835D01*
%TO.C,C47*%
X119010165Y-127656000D02*
X119241835Y-127656000D01*
X119010165Y-128376000D02*
X119241835Y-128376000D01*
%TO.C,TP6*%
X110428000Y-118618000D02*
G75*
G02*
X109028000Y-118618000I-700000J0D01*
G01*
X109028000Y-118618000D02*
G75*
G02*
X110428000Y-118618000I700000J0D01*
G01*
%TO.C,C1*%
X68474000Y-155586165D02*
X68474000Y-155817835D01*
X69194000Y-155586165D02*
X69194000Y-155817835D01*
%TO.C,J21*%
X71822000Y-156449000D02*
X71822000Y-151309000D01*
X74482000Y-151309000D02*
X71822000Y-151309000D01*
X74482000Y-156449000D02*
X71822000Y-156449000D01*
X74482000Y-156449000D02*
X74482000Y-151309000D01*
X74482000Y-157719000D02*
X74482000Y-159049000D01*
X74482000Y-159049000D02*
X73152000Y-159049000D01*
%TO.C,C5*%
X114956000Y-115200165D02*
X114956000Y-115431835D01*
X115676000Y-115200165D02*
X115676000Y-115431835D01*
%TO.C,R5*%
X91948724Y-111491500D02*
X91439276Y-111491500D01*
X91948724Y-112536500D02*
X91439276Y-112536500D01*
%TO.C,C23*%
X117994165Y-129688000D02*
X118225835Y-129688000D01*
X117994165Y-130408000D02*
X118225835Y-130408000D01*
%TO.C,R15*%
X106157500Y-112013276D02*
X106157500Y-112522724D01*
X107202500Y-112013276D02*
X107202500Y-112522724D01*
%TO.C,J18*%
X131004000Y-130048000D02*
X131004000Y-114748000D01*
X133664000Y-114748000D02*
X131004000Y-114748000D01*
X133664000Y-130048000D02*
X131004000Y-130048000D01*
X133664000Y-130048000D02*
X133664000Y-114748000D01*
X133664000Y-131318000D02*
X133664000Y-132648000D01*
X133664000Y-132648000D02*
X132334000Y-132648000D01*
%TO.C,R1*%
X68454000Y-152994379D02*
X68454000Y-153329621D01*
X69214000Y-152994379D02*
X69214000Y-153329621D01*
%TO.C,R3*%
X113624379Y-112650000D02*
X113959621Y-112650000D01*
X113624379Y-113410000D02*
X113959621Y-113410000D01*
%TO.C,U10*%
X38248000Y-131948000D02*
X38248000Y-131548000D01*
X38648000Y-127648000D02*
X38098000Y-127648000D01*
X38648000Y-131948000D02*
X38248000Y-131948000D01*
X42148000Y-127648000D02*
X42548000Y-127648000D01*
X42148000Y-131948000D02*
X42548000Y-131948000D01*
X42548000Y-127648000D02*
X42548000Y-128048000D01*
X42548000Y-131948000D02*
X42548000Y-131548000D01*
%TO.C,C2*%
X68474000Y-158126165D02*
X68474000Y-158357835D01*
X69194000Y-158126165D02*
X69194000Y-158357835D01*
%TO.C,R4*%
X95608224Y-113523500D02*
X95098776Y-113523500D01*
X95608224Y-114568500D02*
X95098776Y-114568500D01*
%TO.C,C26*%
X116734000Y-121527835D02*
X116734000Y-121296165D01*
X117454000Y-121527835D02*
X117454000Y-121296165D01*
%TO.C,J13*%
X40834000Y-121218000D02*
X40834000Y-119888000D01*
X42164000Y-121218000D02*
X40834000Y-121218000D01*
X43434000Y-118558000D02*
X48574000Y-118558000D01*
X43434000Y-121218000D02*
X43434000Y-118558000D01*
X43434000Y-121218000D02*
X48574000Y-121218000D01*
X48574000Y-121218000D02*
X48574000Y-118558000D01*
%TO.C,C30*%
X117496000Y-117717835D02*
X117496000Y-117486165D01*
X118216000Y-117717835D02*
X118216000Y-117486165D01*
%TO.C,C8*%
X111908000Y-115200165D02*
X111908000Y-115431835D01*
X112628000Y-115200165D02*
X112628000Y-115431835D01*
%TO.C,J20*%
X99493000Y-146498000D02*
X99493000Y-149158000D01*
X104633000Y-146498000D02*
X99493000Y-146498000D01*
X104633000Y-146498000D02*
X104633000Y-149158000D01*
X104633000Y-149158000D02*
X99493000Y-149158000D01*
X105903000Y-146498000D02*
X107233000Y-146498000D01*
X107233000Y-146498000D02*
X107233000Y-147828000D01*
%TO.C,R20*%
X36632879Y-125858000D02*
X36968121Y-125858000D01*
X36632879Y-126618000D02*
X36968121Y-126618000D01*
%TO.C,C27*%
X110038335Y-121306000D02*
X109806665Y-121306000D01*
X110038335Y-122026000D02*
X109806665Y-122026000D01*
D16*
%TO.C,J3*%
X57238900Y-128917700D02*
X57238900Y-129461260D01*
X57238900Y-130634740D02*
X57238900Y-131178300D01*
X59601100Y-129461260D02*
X59601100Y-128917700D01*
X59601100Y-131178300D02*
X59601100Y-130634740D01*
D14*
X57531000Y-132956300D02*
G75*
G02*
X56769000Y-132956300I-381000J0D01*
G01*
X56769000Y-132956300D02*
G75*
G02*
X57531000Y-132956300I381000J0D01*
G01*
D15*
%TO.C,C24*%
X116978165Y-128672000D02*
X117209835Y-128672000D01*
X116978165Y-129392000D02*
X117209835Y-129392000D01*
%TO.C,R8*%
X118857500Y-113283276D02*
X118857500Y-113792724D01*
X119902500Y-113283276D02*
X119902500Y-113792724D01*
%TO.C,J7*%
X90872000Y-104842000D02*
X90872000Y-107502000D01*
X101092000Y-104842000D02*
X90872000Y-104842000D01*
X101092000Y-104842000D02*
X101092000Y-107502000D01*
X101092000Y-107502000D02*
X90872000Y-107502000D01*
X102362000Y-104842000D02*
X103692000Y-104842000D01*
X103692000Y-104842000D02*
X103692000Y-106172000D01*
%TO.C,R14*%
X104379500Y-112522724D02*
X104379500Y-112013276D01*
X105424500Y-112522724D02*
X105424500Y-112013276D01*
%TO.C,TP7*%
X120588000Y-119126000D02*
G75*
G02*
X119188000Y-119126000I-700000J0D01*
G01*
X119188000Y-119126000D02*
G75*
G02*
X120588000Y-119126000I700000J0D01*
G01*
%TO.C,U1*%
X49633000Y-132448000D02*
X49633000Y-132048000D01*
X50033000Y-127148000D02*
X49483000Y-127148000D01*
X50033000Y-132448000D02*
X49633000Y-132448000D01*
X54533000Y-127148000D02*
X54933000Y-127148000D01*
X54533000Y-132448000D02*
X54933000Y-132448000D01*
X54933000Y-127148000D02*
X54933000Y-127548000D01*
X54933000Y-132448000D02*
X54933000Y-132048000D01*
%TO.C,C16*%
X111908000Y-110628165D02*
X111908000Y-110859835D01*
X112628000Y-110628165D02*
X112628000Y-110859835D01*
%TO.C,C17*%
X108065835Y-125624000D02*
X107834165Y-125624000D01*
X108065835Y-126344000D02*
X107834165Y-126344000D01*
%TO.C,C43*%
X109843835Y-128926000D02*
X109612165Y-128926000D01*
X109843835Y-129646000D02*
X109612165Y-129646000D01*
%TO.C,C48*%
X39194665Y-125878000D02*
X39426335Y-125878000D01*
X39194665Y-126598000D02*
X39426335Y-126598000D01*
D16*
%TO.C,J19*%
X45046900Y-128917700D02*
X45046900Y-129461260D01*
X45046900Y-130634740D02*
X45046900Y-131178300D01*
X47409100Y-129461260D02*
X47409100Y-128917700D01*
X47409100Y-131178300D02*
X47409100Y-130634740D01*
D14*
X45339000Y-132956300D02*
G75*
G02*
X44577000Y-132956300I-381000J0D01*
G01*
X44577000Y-132956300D02*
G75*
G02*
X45339000Y-132956300I381000J0D01*
G01*
D15*
%TO.C,C11*%
X63648000Y-121908835D02*
X63648000Y-121677165D01*
X64368000Y-121908835D02*
X64368000Y-121677165D01*
%TO.C,C33*%
X118766000Y-122797835D02*
X118766000Y-122566165D01*
X119486000Y-122797835D02*
X119486000Y-122566165D01*
D16*
%TO.C,J17*%
X62877700Y-151295100D02*
X63421260Y-151295100D01*
X63421260Y-148932900D02*
X62877700Y-148932900D01*
X64594740Y-151295100D02*
X65138300Y-151295100D01*
X65138300Y-148932900D02*
X64594740Y-148932900D01*
D14*
X61480700Y-148844000D02*
G75*
G02*
X60718700Y-148844000I-381000J0D01*
G01*
X60718700Y-148844000D02*
G75*
G02*
X61480700Y-148844000I381000J0D01*
G01*
D15*
%TO.C,R19*%
X104901276Y-122921500D02*
X105410724Y-122921500D01*
X104901276Y-123966500D02*
X105410724Y-123966500D01*
D16*
%TO.C,U3*%
X111112300Y-122796300D02*
X111112300Y-123266261D01*
X111112300Y-127685739D02*
X111112300Y-128155700D01*
X111112300Y-128155700D02*
X111582261Y-128155700D01*
X111582261Y-122796300D02*
X111112300Y-122796300D01*
X116001739Y-128155700D02*
X116471700Y-128155700D01*
X116471700Y-122796300D02*
X116001739Y-122796300D01*
X116471700Y-123266261D02*
X116471700Y-122796300D01*
X116471700Y-128155700D02*
X116471700Y-127685739D01*
D17*
G36*
X112732500Y-128841500D02*
G01*
X112351500Y-128841500D01*
X112351500Y-128587500D01*
X112732500Y-128587500D01*
X112732500Y-128841500D01*
G37*
G36*
X113232499Y-122364500D02*
G01*
X112851499Y-122364500D01*
X112851499Y-122110500D01*
X113232499Y-122110500D01*
X113232499Y-122364500D01*
G37*
G36*
X117157500Y-125916500D02*
G01*
X116903500Y-125916500D01*
X116903500Y-125535499D01*
X117157500Y-125535499D01*
X117157500Y-125916500D01*
G37*
D15*
%TO.C,C35*%
X108065835Y-126894000D02*
X107834165Y-126894000D01*
X108065835Y-127614000D02*
X107834165Y-127614000D01*
%TO.C,C21*%
X98550000Y-151999733D02*
X98550000Y-152292267D01*
X99570000Y-151999733D02*
X99570000Y-152292267D01*
%TO.C,U2*%
X61608000Y-139930000D02*
X62008000Y-139930000D01*
X61608000Y-140330000D02*
X61608000Y-139930000D01*
X61608000Y-144830000D02*
X61608000Y-145230000D01*
X61608000Y-145230000D02*
X62008000Y-145230000D01*
X66908000Y-140330000D02*
X66908000Y-139780000D01*
X66908000Y-144830000D02*
X66908000Y-145230000D01*
X66908000Y-145230000D02*
X66508000Y-145230000D01*
%TO.C,R6*%
X99060724Y-115555500D02*
X98551276Y-115555500D01*
X99060724Y-116600500D02*
X98551276Y-116600500D01*
%TO.C,C4*%
X41599665Y-125878000D02*
X41831335Y-125878000D01*
X41599665Y-126598000D02*
X41831335Y-126598000D01*
%TO.C,C34*%
X106990335Y-127910000D02*
X106758665Y-127910000D01*
X106990335Y-128630000D02*
X106758665Y-128630000D01*
%TO.C,J14*%
X87062000Y-121113000D02*
X88392000Y-121113000D01*
X87062000Y-122443000D02*
X87062000Y-121113000D01*
X87062000Y-123713000D02*
X87062000Y-128853000D01*
X87062000Y-123713000D02*
X89722000Y-123713000D01*
X87062000Y-128853000D02*
X89722000Y-128853000D01*
X89722000Y-123713000D02*
X89722000Y-128853000D01*
%TO.C,C20*%
X101060000Y-151999733D02*
X101060000Y-152292267D01*
X102080000Y-151999733D02*
X102080000Y-152292267D01*
%TO.C,C18*%
X106080000Y-151999733D02*
X106080000Y-152292267D01*
X107100000Y-151999733D02*
X107100000Y-152292267D01*
%TO.C,D1*%
X107723000Y-110608000D02*
X107723000Y-113068000D01*
X109193000Y-110608000D02*
X107723000Y-110608000D01*
X109193000Y-113068000D02*
X109193000Y-110608000D01*
%TO.C,C28*%
X110038335Y-120036000D02*
X109806665Y-120036000D01*
X110038335Y-120756000D02*
X109806665Y-120756000D01*
%TO.C,C41*%
X119010165Y-126640000D02*
X119241835Y-126640000D01*
X119010165Y-127360000D02*
X119241835Y-127360000D01*
%TO.C,C29*%
X116226000Y-119241835D02*
X116226000Y-119010165D01*
X116946000Y-119241835D02*
X116946000Y-119010165D01*
%TO.C,U8*%
X62608000Y-154842000D02*
X63008000Y-154842000D01*
X62608000Y-155242000D02*
X62608000Y-154842000D01*
X62608000Y-158742000D02*
X62608000Y-159142000D01*
X62608000Y-159142000D02*
X63008000Y-159142000D01*
X66908000Y-155242000D02*
X66908000Y-154692000D01*
X66908000Y-158742000D02*
X66908000Y-159142000D01*
X66908000Y-159142000D02*
X66508000Y-159142000D01*
%TO.C,R7*%
X89407276Y-109205500D02*
X89916724Y-109205500D01*
X89407276Y-110250500D02*
X89916724Y-110250500D01*
%TO.C,C37*%
X119264165Y-124354000D02*
X119495835Y-124354000D01*
X119264165Y-125074000D02*
X119495835Y-125074000D01*
%TO.C,J15*%
X81474000Y-113538000D02*
X81474000Y-108398000D01*
X84134000Y-108398000D02*
X81474000Y-108398000D01*
X84134000Y-113538000D02*
X81474000Y-113538000D01*
X84134000Y-113538000D02*
X84134000Y-108398000D01*
X84134000Y-114808000D02*
X84134000Y-116138000D01*
X84134000Y-116138000D02*
X82804000Y-116138000D01*
D16*
%TO.C,J16*%
X62877700Y-138087100D02*
X63421260Y-138087100D01*
X63421260Y-135724900D02*
X62877700Y-135724900D01*
X64594740Y-138087100D02*
X65138300Y-138087100D01*
X65138300Y-135724900D02*
X64594740Y-135724900D01*
D14*
X61480700Y-135636000D02*
G75*
G02*
X60718700Y-135636000I-381000J0D01*
G01*
X60718700Y-135636000D02*
G75*
G02*
X61480700Y-135636000I381000J0D01*
G01*
D15*
%TO.C,C10*%
X63648000Y-133615165D02*
X63648000Y-133846835D01*
X64368000Y-133615165D02*
X64368000Y-133846835D01*
%TO.C,C25*%
X117750000Y-120511835D02*
X117750000Y-120280165D01*
X118470000Y-120511835D02*
X118470000Y-120280165D01*
%TO.C,C19*%
X103570000Y-151999733D02*
X103570000Y-152292267D01*
X104590000Y-151999733D02*
X104590000Y-152292267D01*
%TO.C,C22*%
X106541835Y-124608000D02*
X106310165Y-124608000D01*
X106541835Y-125328000D02*
X106310165Y-125328000D01*
%TD*%
M02*
