%TF.GenerationSoftware,KiCad,Pcbnew,8.0.4*%
%TF.CreationDate,2025-12-21T14:13:34-08:00*%
%TF.ProjectId,Thesis,54686573-6973-42e6-9b69-6361645f7063,rev?*%
%TF.SameCoordinates,Original*%
%TF.FileFunction,Drillmap*%
%TF.FilePolarity,Positive*%
%FSLAX45Y45*%
G04 Gerber Fmt 4.5, Leading zero omitted, Abs format (unit mm)*
G04 Created by KiCad (PCBNEW 8.0.4) date 2025-12-21 14:13:34*
%MOMM*%
%LPD*%
G01*
G04 APERTURE LIST*
%ADD10C,0.050000*%
%ADD11C,0.200000*%
%ADD12C,0.210820*%
G04 APERTURE END LIST*
D10*
X2540000Y-8280400D02*
X15354300Y-8280400D01*
X15354300Y-17043400D01*
X2540000Y-17043400D01*
X2540000Y-8280400D01*
D11*
D12*
X2736342Y-12474410D02*
X2947162Y-12685230D01*
X2947162Y-12474410D02*
X2736342Y-12685230D01*
X2736342Y-13424370D02*
X2947162Y-13635190D01*
X2947162Y-13424370D02*
X2736342Y-13635190D01*
X5820410Y-8476742D02*
X6031230Y-8687562D01*
X6031230Y-8476742D02*
X5820410Y-8687562D01*
X5870410Y-16636238D02*
X6081230Y-16847058D01*
X6081230Y-16636238D02*
X5870410Y-16847058D01*
X6770370Y-8476742D02*
X6981190Y-8687562D01*
X6981190Y-8476742D02*
X6770370Y-8687562D01*
X6820370Y-16636238D02*
X7031190Y-16847058D01*
X7031190Y-16636238D02*
X6820370Y-16847058D01*
X8671315Y-16636238D02*
X8882135Y-16847058D01*
X8882135Y-16636238D02*
X8671315Y-16847058D01*
X9547410Y-8476742D02*
X9758230Y-8687562D01*
X9758230Y-8476742D02*
X9547410Y-8687562D01*
X9621275Y-16636238D02*
X9832095Y-16847058D01*
X9832095Y-16636238D02*
X9621275Y-16847058D01*
X10497370Y-8476742D02*
X10708190Y-8687562D01*
X10708190Y-8476742D02*
X10497370Y-8687562D01*
X10773010Y-16636238D02*
X10983830Y-16847058D01*
X10983830Y-16636238D02*
X10773010Y-16847058D01*
X11722970Y-16636238D02*
X11933790Y-16847058D01*
X11933790Y-16636238D02*
X11722970Y-16847058D01*
X12094210Y-8476742D02*
X12305030Y-8687562D01*
X12305030Y-8476742D02*
X12094210Y-8687562D01*
X13044170Y-8476742D02*
X13254990Y-8687562D01*
X13254990Y-8476742D02*
X13044170Y-8687562D01*
X14947138Y-13135610D02*
X15157958Y-13346430D01*
X15157958Y-13135610D02*
X14947138Y-13346430D01*
X14947138Y-14085570D02*
X15157958Y-14296390D01*
X15157958Y-14085570D02*
X14947138Y-14296390D01*
D11*
X2798277Y-17357384D02*
X2798277Y-17157384D01*
X2798277Y-17157384D02*
X2845896Y-17157384D01*
X2845896Y-17157384D02*
X2874467Y-17166908D01*
X2874467Y-17166908D02*
X2893515Y-17185955D01*
X2893515Y-17185955D02*
X2903039Y-17205003D01*
X2903039Y-17205003D02*
X2912562Y-17243098D01*
X2912562Y-17243098D02*
X2912562Y-17271670D01*
X2912562Y-17271670D02*
X2903039Y-17309765D01*
X2903039Y-17309765D02*
X2893515Y-17328812D01*
X2893515Y-17328812D02*
X2874467Y-17347860D01*
X2874467Y-17347860D02*
X2845896Y-17357384D01*
X2845896Y-17357384D02*
X2798277Y-17357384D01*
X2998277Y-17357384D02*
X2998277Y-17224050D01*
X2998277Y-17262146D02*
X3007801Y-17243098D01*
X3007801Y-17243098D02*
X3017324Y-17233574D01*
X3017324Y-17233574D02*
X3036372Y-17224050D01*
X3036372Y-17224050D02*
X3055420Y-17224050D01*
X3122086Y-17357384D02*
X3122086Y-17224050D01*
X3122086Y-17157384D02*
X3112562Y-17166908D01*
X3112562Y-17166908D02*
X3122086Y-17176431D01*
X3122086Y-17176431D02*
X3131610Y-17166908D01*
X3131610Y-17166908D02*
X3122086Y-17157384D01*
X3122086Y-17157384D02*
X3122086Y-17176431D01*
X3245896Y-17357384D02*
X3226848Y-17347860D01*
X3226848Y-17347860D02*
X3217324Y-17328812D01*
X3217324Y-17328812D02*
X3217324Y-17157384D01*
X3350658Y-17357384D02*
X3331610Y-17347860D01*
X3331610Y-17347860D02*
X3322086Y-17328812D01*
X3322086Y-17328812D02*
X3322086Y-17157384D01*
X3579229Y-17357384D02*
X3579229Y-17157384D01*
X3579229Y-17157384D02*
X3645896Y-17300241D01*
X3645896Y-17300241D02*
X3712562Y-17157384D01*
X3712562Y-17157384D02*
X3712562Y-17357384D01*
X3893515Y-17357384D02*
X3893515Y-17252622D01*
X3893515Y-17252622D02*
X3883991Y-17233574D01*
X3883991Y-17233574D02*
X3864943Y-17224050D01*
X3864943Y-17224050D02*
X3826848Y-17224050D01*
X3826848Y-17224050D02*
X3807801Y-17233574D01*
X3893515Y-17347860D02*
X3874467Y-17357384D01*
X3874467Y-17357384D02*
X3826848Y-17357384D01*
X3826848Y-17357384D02*
X3807801Y-17347860D01*
X3807801Y-17347860D02*
X3798277Y-17328812D01*
X3798277Y-17328812D02*
X3798277Y-17309765D01*
X3798277Y-17309765D02*
X3807801Y-17290717D01*
X3807801Y-17290717D02*
X3826848Y-17281193D01*
X3826848Y-17281193D02*
X3874467Y-17281193D01*
X3874467Y-17281193D02*
X3893515Y-17271670D01*
X3988753Y-17224050D02*
X3988753Y-17424050D01*
X3988753Y-17233574D02*
X4007801Y-17224050D01*
X4007801Y-17224050D02*
X4045896Y-17224050D01*
X4045896Y-17224050D02*
X4064943Y-17233574D01*
X4064943Y-17233574D02*
X4074467Y-17243098D01*
X4074467Y-17243098D02*
X4083991Y-17262146D01*
X4083991Y-17262146D02*
X4083991Y-17319289D01*
X4083991Y-17319289D02*
X4074467Y-17338336D01*
X4074467Y-17338336D02*
X4064943Y-17347860D01*
X4064943Y-17347860D02*
X4045896Y-17357384D01*
X4045896Y-17357384D02*
X4007801Y-17357384D01*
X4007801Y-17357384D02*
X3988753Y-17347860D01*
X4169705Y-17338336D02*
X4179229Y-17347860D01*
X4179229Y-17347860D02*
X4169705Y-17357384D01*
X4169705Y-17357384D02*
X4160182Y-17347860D01*
X4160182Y-17347860D02*
X4169705Y-17338336D01*
X4169705Y-17338336D02*
X4169705Y-17357384D01*
X4169705Y-17233574D02*
X4179229Y-17243098D01*
X4179229Y-17243098D02*
X4169705Y-17252622D01*
X4169705Y-17252622D02*
X4160182Y-17243098D01*
X4160182Y-17243098D02*
X4169705Y-17233574D01*
X4169705Y-17233574D02*
X4169705Y-17252622D01*
X2337500Y-17585900D02*
X2537500Y-17785900D01*
X2537500Y-17585900D02*
X2337500Y-17785900D01*
X2788753Y-17596431D02*
X2798277Y-17586908D01*
X2798277Y-17586908D02*
X2817324Y-17577384D01*
X2817324Y-17577384D02*
X2864943Y-17577384D01*
X2864943Y-17577384D02*
X2883991Y-17586908D01*
X2883991Y-17586908D02*
X2893515Y-17596431D01*
X2893515Y-17596431D02*
X2903039Y-17615479D01*
X2903039Y-17615479D02*
X2903039Y-17634527D01*
X2903039Y-17634527D02*
X2893515Y-17663098D01*
X2893515Y-17663098D02*
X2779229Y-17777384D01*
X2779229Y-17777384D02*
X2903039Y-17777384D01*
X2988753Y-17758336D02*
X2998277Y-17767860D01*
X2998277Y-17767860D02*
X2988753Y-17777384D01*
X2988753Y-17777384D02*
X2979229Y-17767860D01*
X2979229Y-17767860D02*
X2988753Y-17758336D01*
X2988753Y-17758336D02*
X2988753Y-17777384D01*
X3188753Y-17777384D02*
X3074467Y-17777384D01*
X3131610Y-17777384D02*
X3131610Y-17577384D01*
X3131610Y-17577384D02*
X3112562Y-17605955D01*
X3112562Y-17605955D02*
X3093515Y-17625003D01*
X3093515Y-17625003D02*
X3074467Y-17634527D01*
X3312562Y-17577384D02*
X3331610Y-17577384D01*
X3331610Y-17577384D02*
X3350658Y-17586908D01*
X3350658Y-17586908D02*
X3360182Y-17596431D01*
X3360182Y-17596431D02*
X3369705Y-17615479D01*
X3369705Y-17615479D02*
X3379229Y-17653574D01*
X3379229Y-17653574D02*
X3379229Y-17701193D01*
X3379229Y-17701193D02*
X3369705Y-17739289D01*
X3369705Y-17739289D02*
X3360182Y-17758336D01*
X3360182Y-17758336D02*
X3350658Y-17767860D01*
X3350658Y-17767860D02*
X3331610Y-17777384D01*
X3331610Y-17777384D02*
X3312562Y-17777384D01*
X3312562Y-17777384D02*
X3293515Y-17767860D01*
X3293515Y-17767860D02*
X3283991Y-17758336D01*
X3283991Y-17758336D02*
X3274467Y-17739289D01*
X3274467Y-17739289D02*
X3264943Y-17701193D01*
X3264943Y-17701193D02*
X3264943Y-17653574D01*
X3264943Y-17653574D02*
X3274467Y-17615479D01*
X3274467Y-17615479D02*
X3283991Y-17596431D01*
X3283991Y-17596431D02*
X3293515Y-17586908D01*
X3293515Y-17586908D02*
X3312562Y-17577384D01*
X3493515Y-17663098D02*
X3474467Y-17653574D01*
X3474467Y-17653574D02*
X3464943Y-17644050D01*
X3464943Y-17644050D02*
X3455420Y-17625003D01*
X3455420Y-17625003D02*
X3455420Y-17615479D01*
X3455420Y-17615479D02*
X3464943Y-17596431D01*
X3464943Y-17596431D02*
X3474467Y-17586908D01*
X3474467Y-17586908D02*
X3493515Y-17577384D01*
X3493515Y-17577384D02*
X3531610Y-17577384D01*
X3531610Y-17577384D02*
X3550658Y-17586908D01*
X3550658Y-17586908D02*
X3560182Y-17596431D01*
X3560182Y-17596431D02*
X3569705Y-17615479D01*
X3569705Y-17615479D02*
X3569705Y-17625003D01*
X3569705Y-17625003D02*
X3560182Y-17644050D01*
X3560182Y-17644050D02*
X3550658Y-17653574D01*
X3550658Y-17653574D02*
X3531610Y-17663098D01*
X3531610Y-17663098D02*
X3493515Y-17663098D01*
X3493515Y-17663098D02*
X3474467Y-17672622D01*
X3474467Y-17672622D02*
X3464943Y-17682146D01*
X3464943Y-17682146D02*
X3455420Y-17701193D01*
X3455420Y-17701193D02*
X3455420Y-17739289D01*
X3455420Y-17739289D02*
X3464943Y-17758336D01*
X3464943Y-17758336D02*
X3474467Y-17767860D01*
X3474467Y-17767860D02*
X3493515Y-17777384D01*
X3493515Y-17777384D02*
X3531610Y-17777384D01*
X3531610Y-17777384D02*
X3550658Y-17767860D01*
X3550658Y-17767860D02*
X3560182Y-17758336D01*
X3560182Y-17758336D02*
X3569705Y-17739289D01*
X3569705Y-17739289D02*
X3569705Y-17701193D01*
X3569705Y-17701193D02*
X3560182Y-17682146D01*
X3560182Y-17682146D02*
X3550658Y-17672622D01*
X3550658Y-17672622D02*
X3531610Y-17663098D01*
X3655420Y-17777384D02*
X3655420Y-17644050D01*
X3655420Y-17663098D02*
X3664943Y-17653574D01*
X3664943Y-17653574D02*
X3683991Y-17644050D01*
X3683991Y-17644050D02*
X3712563Y-17644050D01*
X3712563Y-17644050D02*
X3731610Y-17653574D01*
X3731610Y-17653574D02*
X3741134Y-17672622D01*
X3741134Y-17672622D02*
X3741134Y-17777384D01*
X3741134Y-17672622D02*
X3750658Y-17653574D01*
X3750658Y-17653574D02*
X3769705Y-17644050D01*
X3769705Y-17644050D02*
X3798277Y-17644050D01*
X3798277Y-17644050D02*
X3817324Y-17653574D01*
X3817324Y-17653574D02*
X3826848Y-17672622D01*
X3826848Y-17672622D02*
X3826848Y-17777384D01*
X3922086Y-17777384D02*
X3922086Y-17644050D01*
X3922086Y-17663098D02*
X3931610Y-17653574D01*
X3931610Y-17653574D02*
X3950658Y-17644050D01*
X3950658Y-17644050D02*
X3979229Y-17644050D01*
X3979229Y-17644050D02*
X3998277Y-17653574D01*
X3998277Y-17653574D02*
X4007801Y-17672622D01*
X4007801Y-17672622D02*
X4007801Y-17777384D01*
X4007801Y-17672622D02*
X4017324Y-17653574D01*
X4017324Y-17653574D02*
X4036372Y-17644050D01*
X4036372Y-17644050D02*
X4064943Y-17644050D01*
X4064943Y-17644050D02*
X4083991Y-17653574D01*
X4083991Y-17653574D02*
X4093515Y-17672622D01*
X4093515Y-17672622D02*
X4093515Y-17777384D01*
X4483991Y-17567860D02*
X4312563Y-17825003D01*
X4741134Y-17577384D02*
X4760182Y-17577384D01*
X4760182Y-17577384D02*
X4779229Y-17586908D01*
X4779229Y-17586908D02*
X4788753Y-17596431D01*
X4788753Y-17596431D02*
X4798277Y-17615479D01*
X4798277Y-17615479D02*
X4807801Y-17653574D01*
X4807801Y-17653574D02*
X4807801Y-17701193D01*
X4807801Y-17701193D02*
X4798277Y-17739289D01*
X4798277Y-17739289D02*
X4788753Y-17758336D01*
X4788753Y-17758336D02*
X4779229Y-17767860D01*
X4779229Y-17767860D02*
X4760182Y-17777384D01*
X4760182Y-17777384D02*
X4741134Y-17777384D01*
X4741134Y-17777384D02*
X4722087Y-17767860D01*
X4722087Y-17767860D02*
X4712563Y-17758336D01*
X4712563Y-17758336D02*
X4703039Y-17739289D01*
X4703039Y-17739289D02*
X4693515Y-17701193D01*
X4693515Y-17701193D02*
X4693515Y-17653574D01*
X4693515Y-17653574D02*
X4703039Y-17615479D01*
X4703039Y-17615479D02*
X4712563Y-17596431D01*
X4712563Y-17596431D02*
X4722087Y-17586908D01*
X4722087Y-17586908D02*
X4741134Y-17577384D01*
X4893515Y-17758336D02*
X4903039Y-17767860D01*
X4903039Y-17767860D02*
X4893515Y-17777384D01*
X4893515Y-17777384D02*
X4883991Y-17767860D01*
X4883991Y-17767860D02*
X4893515Y-17758336D01*
X4893515Y-17758336D02*
X4893515Y-17777384D01*
X5026848Y-17577384D02*
X5045896Y-17577384D01*
X5045896Y-17577384D02*
X5064944Y-17586908D01*
X5064944Y-17586908D02*
X5074468Y-17596431D01*
X5074468Y-17596431D02*
X5083991Y-17615479D01*
X5083991Y-17615479D02*
X5093515Y-17653574D01*
X5093515Y-17653574D02*
X5093515Y-17701193D01*
X5093515Y-17701193D02*
X5083991Y-17739289D01*
X5083991Y-17739289D02*
X5074468Y-17758336D01*
X5074468Y-17758336D02*
X5064944Y-17767860D01*
X5064944Y-17767860D02*
X5045896Y-17777384D01*
X5045896Y-17777384D02*
X5026848Y-17777384D01*
X5026848Y-17777384D02*
X5007801Y-17767860D01*
X5007801Y-17767860D02*
X4998277Y-17758336D01*
X4998277Y-17758336D02*
X4988753Y-17739289D01*
X4988753Y-17739289D02*
X4979229Y-17701193D01*
X4979229Y-17701193D02*
X4979229Y-17653574D01*
X4979229Y-17653574D02*
X4988753Y-17615479D01*
X4988753Y-17615479D02*
X4998277Y-17596431D01*
X4998277Y-17596431D02*
X5007801Y-17586908D01*
X5007801Y-17586908D02*
X5026848Y-17577384D01*
X5207801Y-17663098D02*
X5188753Y-17653574D01*
X5188753Y-17653574D02*
X5179229Y-17644050D01*
X5179229Y-17644050D02*
X5169706Y-17625003D01*
X5169706Y-17625003D02*
X5169706Y-17615479D01*
X5169706Y-17615479D02*
X5179229Y-17596431D01*
X5179229Y-17596431D02*
X5188753Y-17586908D01*
X5188753Y-17586908D02*
X5207801Y-17577384D01*
X5207801Y-17577384D02*
X5245896Y-17577384D01*
X5245896Y-17577384D02*
X5264944Y-17586908D01*
X5264944Y-17586908D02*
X5274468Y-17596431D01*
X5274468Y-17596431D02*
X5283991Y-17615479D01*
X5283991Y-17615479D02*
X5283991Y-17625003D01*
X5283991Y-17625003D02*
X5274468Y-17644050D01*
X5274468Y-17644050D02*
X5264944Y-17653574D01*
X5264944Y-17653574D02*
X5245896Y-17663098D01*
X5245896Y-17663098D02*
X5207801Y-17663098D01*
X5207801Y-17663098D02*
X5188753Y-17672622D01*
X5188753Y-17672622D02*
X5179229Y-17682146D01*
X5179229Y-17682146D02*
X5169706Y-17701193D01*
X5169706Y-17701193D02*
X5169706Y-17739289D01*
X5169706Y-17739289D02*
X5179229Y-17758336D01*
X5179229Y-17758336D02*
X5188753Y-17767860D01*
X5188753Y-17767860D02*
X5207801Y-17777384D01*
X5207801Y-17777384D02*
X5245896Y-17777384D01*
X5245896Y-17777384D02*
X5264944Y-17767860D01*
X5264944Y-17767860D02*
X5274468Y-17758336D01*
X5274468Y-17758336D02*
X5283991Y-17739289D01*
X5283991Y-17739289D02*
X5283991Y-17701193D01*
X5283991Y-17701193D02*
X5274468Y-17682146D01*
X5274468Y-17682146D02*
X5264944Y-17672622D01*
X5264944Y-17672622D02*
X5245896Y-17663098D01*
X5350658Y-17577384D02*
X5474468Y-17577384D01*
X5474468Y-17577384D02*
X5407801Y-17653574D01*
X5407801Y-17653574D02*
X5436372Y-17653574D01*
X5436372Y-17653574D02*
X5455420Y-17663098D01*
X5455420Y-17663098D02*
X5464944Y-17672622D01*
X5464944Y-17672622D02*
X5474468Y-17691670D01*
X5474468Y-17691670D02*
X5474468Y-17739289D01*
X5474468Y-17739289D02*
X5464944Y-17758336D01*
X5464944Y-17758336D02*
X5455420Y-17767860D01*
X5455420Y-17767860D02*
X5436372Y-17777384D01*
X5436372Y-17777384D02*
X5379229Y-17777384D01*
X5379229Y-17777384D02*
X5360182Y-17767860D01*
X5360182Y-17767860D02*
X5350658Y-17758336D01*
X5598277Y-17577384D02*
X5617325Y-17577384D01*
X5617325Y-17577384D02*
X5636372Y-17586908D01*
X5636372Y-17586908D02*
X5645896Y-17596431D01*
X5645896Y-17596431D02*
X5655420Y-17615479D01*
X5655420Y-17615479D02*
X5664944Y-17653574D01*
X5664944Y-17653574D02*
X5664944Y-17701193D01*
X5664944Y-17701193D02*
X5655420Y-17739289D01*
X5655420Y-17739289D02*
X5645896Y-17758336D01*
X5645896Y-17758336D02*
X5636372Y-17767860D01*
X5636372Y-17767860D02*
X5617325Y-17777384D01*
X5617325Y-17777384D02*
X5598277Y-17777384D01*
X5598277Y-17777384D02*
X5579229Y-17767860D01*
X5579229Y-17767860D02*
X5569706Y-17758336D01*
X5569706Y-17758336D02*
X5560182Y-17739289D01*
X5560182Y-17739289D02*
X5550658Y-17701193D01*
X5550658Y-17701193D02*
X5550658Y-17653574D01*
X5550658Y-17653574D02*
X5560182Y-17615479D01*
X5560182Y-17615479D02*
X5569706Y-17596431D01*
X5569706Y-17596431D02*
X5579229Y-17586908D01*
X5579229Y-17586908D02*
X5598277Y-17577384D01*
X5741134Y-17577384D02*
X5741134Y-17615479D01*
X5817325Y-17577384D02*
X5817325Y-17615479D01*
X6112563Y-17853574D02*
X6103039Y-17844050D01*
X6103039Y-17844050D02*
X6083991Y-17815479D01*
X6083991Y-17815479D02*
X6074468Y-17796431D01*
X6074468Y-17796431D02*
X6064944Y-17767860D01*
X6064944Y-17767860D02*
X6055420Y-17720241D01*
X6055420Y-17720241D02*
X6055420Y-17682146D01*
X6055420Y-17682146D02*
X6064944Y-17634527D01*
X6064944Y-17634527D02*
X6074468Y-17605955D01*
X6074468Y-17605955D02*
X6083991Y-17586908D01*
X6083991Y-17586908D02*
X6103039Y-17558336D01*
X6103039Y-17558336D02*
X6112563Y-17548812D01*
X6293515Y-17777384D02*
X6179229Y-17777384D01*
X6236372Y-17777384D02*
X6236372Y-17577384D01*
X6236372Y-17577384D02*
X6217325Y-17605955D01*
X6217325Y-17605955D02*
X6198277Y-17625003D01*
X6198277Y-17625003D02*
X6179229Y-17634527D01*
X6464944Y-17577384D02*
X6426848Y-17577384D01*
X6426848Y-17577384D02*
X6407801Y-17586908D01*
X6407801Y-17586908D02*
X6398277Y-17596431D01*
X6398277Y-17596431D02*
X6379229Y-17625003D01*
X6379229Y-17625003D02*
X6369706Y-17663098D01*
X6369706Y-17663098D02*
X6369706Y-17739289D01*
X6369706Y-17739289D02*
X6379229Y-17758336D01*
X6379229Y-17758336D02*
X6388753Y-17767860D01*
X6388753Y-17767860D02*
X6407801Y-17777384D01*
X6407801Y-17777384D02*
X6445896Y-17777384D01*
X6445896Y-17777384D02*
X6464944Y-17767860D01*
X6464944Y-17767860D02*
X6474468Y-17758336D01*
X6474468Y-17758336D02*
X6483991Y-17739289D01*
X6483991Y-17739289D02*
X6483991Y-17691670D01*
X6483991Y-17691670D02*
X6474468Y-17672622D01*
X6474468Y-17672622D02*
X6464944Y-17663098D01*
X6464944Y-17663098D02*
X6445896Y-17653574D01*
X6445896Y-17653574D02*
X6407801Y-17653574D01*
X6407801Y-17653574D02*
X6388753Y-17663098D01*
X6388753Y-17663098D02*
X6379229Y-17672622D01*
X6379229Y-17672622D02*
X6369706Y-17691670D01*
X6722087Y-17777384D02*
X6722087Y-17577384D01*
X6807801Y-17777384D02*
X6807801Y-17672622D01*
X6807801Y-17672622D02*
X6798277Y-17653574D01*
X6798277Y-17653574D02*
X6779230Y-17644050D01*
X6779230Y-17644050D02*
X6750658Y-17644050D01*
X6750658Y-17644050D02*
X6731610Y-17653574D01*
X6731610Y-17653574D02*
X6722087Y-17663098D01*
X6931610Y-17777384D02*
X6912563Y-17767860D01*
X6912563Y-17767860D02*
X6903039Y-17758336D01*
X6903039Y-17758336D02*
X6893515Y-17739289D01*
X6893515Y-17739289D02*
X6893515Y-17682146D01*
X6893515Y-17682146D02*
X6903039Y-17663098D01*
X6903039Y-17663098D02*
X6912563Y-17653574D01*
X6912563Y-17653574D02*
X6931610Y-17644050D01*
X6931610Y-17644050D02*
X6960182Y-17644050D01*
X6960182Y-17644050D02*
X6979230Y-17653574D01*
X6979230Y-17653574D02*
X6988753Y-17663098D01*
X6988753Y-17663098D02*
X6998277Y-17682146D01*
X6998277Y-17682146D02*
X6998277Y-17739289D01*
X6998277Y-17739289D02*
X6988753Y-17758336D01*
X6988753Y-17758336D02*
X6979230Y-17767860D01*
X6979230Y-17767860D02*
X6960182Y-17777384D01*
X6960182Y-17777384D02*
X6931610Y-17777384D01*
X7112563Y-17777384D02*
X7093515Y-17767860D01*
X7093515Y-17767860D02*
X7083991Y-17748812D01*
X7083991Y-17748812D02*
X7083991Y-17577384D01*
X7264944Y-17767860D02*
X7245896Y-17777384D01*
X7245896Y-17777384D02*
X7207801Y-17777384D01*
X7207801Y-17777384D02*
X7188753Y-17767860D01*
X7188753Y-17767860D02*
X7179230Y-17748812D01*
X7179230Y-17748812D02*
X7179230Y-17672622D01*
X7179230Y-17672622D02*
X7188753Y-17653574D01*
X7188753Y-17653574D02*
X7207801Y-17644050D01*
X7207801Y-17644050D02*
X7245896Y-17644050D01*
X7245896Y-17644050D02*
X7264944Y-17653574D01*
X7264944Y-17653574D02*
X7274468Y-17672622D01*
X7274468Y-17672622D02*
X7274468Y-17691670D01*
X7274468Y-17691670D02*
X7179230Y-17710717D01*
X7350658Y-17767860D02*
X7369706Y-17777384D01*
X7369706Y-17777384D02*
X7407801Y-17777384D01*
X7407801Y-17777384D02*
X7426849Y-17767860D01*
X7426849Y-17767860D02*
X7436372Y-17748812D01*
X7436372Y-17748812D02*
X7436372Y-17739289D01*
X7436372Y-17739289D02*
X7426849Y-17720241D01*
X7426849Y-17720241D02*
X7407801Y-17710717D01*
X7407801Y-17710717D02*
X7379230Y-17710717D01*
X7379230Y-17710717D02*
X7360182Y-17701193D01*
X7360182Y-17701193D02*
X7350658Y-17682146D01*
X7350658Y-17682146D02*
X7350658Y-17672622D01*
X7350658Y-17672622D02*
X7360182Y-17653574D01*
X7360182Y-17653574D02*
X7379230Y-17644050D01*
X7379230Y-17644050D02*
X7407801Y-17644050D01*
X7407801Y-17644050D02*
X7426849Y-17653574D01*
X7503039Y-17853574D02*
X7512563Y-17844050D01*
X7512563Y-17844050D02*
X7531611Y-17815479D01*
X7531611Y-17815479D02*
X7541134Y-17796431D01*
X7541134Y-17796431D02*
X7550658Y-17767860D01*
X7550658Y-17767860D02*
X7560182Y-17720241D01*
X7560182Y-17720241D02*
X7560182Y-17682146D01*
X7560182Y-17682146D02*
X7550658Y-17634527D01*
X7550658Y-17634527D02*
X7541134Y-17605955D01*
X7541134Y-17605955D02*
X7531611Y-17586908D01*
X7531611Y-17586908D02*
X7512563Y-17558336D01*
X7512563Y-17558336D02*
X7503039Y-17548812D01*
X7864944Y-17853574D02*
X7855420Y-17844050D01*
X7855420Y-17844050D02*
X7836372Y-17815479D01*
X7836372Y-17815479D02*
X7826849Y-17796431D01*
X7826849Y-17796431D02*
X7817325Y-17767860D01*
X7817325Y-17767860D02*
X7807801Y-17720241D01*
X7807801Y-17720241D02*
X7807801Y-17682146D01*
X7807801Y-17682146D02*
X7817325Y-17634527D01*
X7817325Y-17634527D02*
X7826849Y-17605955D01*
X7826849Y-17605955D02*
X7836372Y-17586908D01*
X7836372Y-17586908D02*
X7855420Y-17558336D01*
X7855420Y-17558336D02*
X7864944Y-17548812D01*
X7941134Y-17644050D02*
X7941134Y-17777384D01*
X7941134Y-17663098D02*
X7950658Y-17653574D01*
X7950658Y-17653574D02*
X7969706Y-17644050D01*
X7969706Y-17644050D02*
X7998277Y-17644050D01*
X7998277Y-17644050D02*
X8017325Y-17653574D01*
X8017325Y-17653574D02*
X8026849Y-17672622D01*
X8026849Y-17672622D02*
X8026849Y-17777384D01*
X8150658Y-17777384D02*
X8131611Y-17767860D01*
X8131611Y-17767860D02*
X8122087Y-17758336D01*
X8122087Y-17758336D02*
X8112563Y-17739289D01*
X8112563Y-17739289D02*
X8112563Y-17682146D01*
X8112563Y-17682146D02*
X8122087Y-17663098D01*
X8122087Y-17663098D02*
X8131611Y-17653574D01*
X8131611Y-17653574D02*
X8150658Y-17644050D01*
X8150658Y-17644050D02*
X8179230Y-17644050D01*
X8179230Y-17644050D02*
X8198277Y-17653574D01*
X8198277Y-17653574D02*
X8207801Y-17663098D01*
X8207801Y-17663098D02*
X8217325Y-17682146D01*
X8217325Y-17682146D02*
X8217325Y-17739289D01*
X8217325Y-17739289D02*
X8207801Y-17758336D01*
X8207801Y-17758336D02*
X8198277Y-17767860D01*
X8198277Y-17767860D02*
X8179230Y-17777384D01*
X8179230Y-17777384D02*
X8150658Y-17777384D01*
X8274468Y-17644050D02*
X8350658Y-17644050D01*
X8303039Y-17577384D02*
X8303039Y-17748812D01*
X8303039Y-17748812D02*
X8312563Y-17767860D01*
X8312563Y-17767860D02*
X8331611Y-17777384D01*
X8331611Y-17777384D02*
X8350658Y-17777384D01*
X8569706Y-17644050D02*
X8569706Y-17844050D01*
X8569706Y-17653574D02*
X8588754Y-17644050D01*
X8588754Y-17644050D02*
X8626849Y-17644050D01*
X8626849Y-17644050D02*
X8645896Y-17653574D01*
X8645896Y-17653574D02*
X8655420Y-17663098D01*
X8655420Y-17663098D02*
X8664944Y-17682146D01*
X8664944Y-17682146D02*
X8664944Y-17739289D01*
X8664944Y-17739289D02*
X8655420Y-17758336D01*
X8655420Y-17758336D02*
X8645896Y-17767860D01*
X8645896Y-17767860D02*
X8626849Y-17777384D01*
X8626849Y-17777384D02*
X8588754Y-17777384D01*
X8588754Y-17777384D02*
X8569706Y-17767860D01*
X8779230Y-17777384D02*
X8760182Y-17767860D01*
X8760182Y-17767860D02*
X8750658Y-17748812D01*
X8750658Y-17748812D02*
X8750658Y-17577384D01*
X8941135Y-17777384D02*
X8941135Y-17672622D01*
X8941135Y-17672622D02*
X8931611Y-17653574D01*
X8931611Y-17653574D02*
X8912563Y-17644050D01*
X8912563Y-17644050D02*
X8874468Y-17644050D01*
X8874468Y-17644050D02*
X8855420Y-17653574D01*
X8941135Y-17767860D02*
X8922087Y-17777384D01*
X8922087Y-17777384D02*
X8874468Y-17777384D01*
X8874468Y-17777384D02*
X8855420Y-17767860D01*
X8855420Y-17767860D02*
X8845896Y-17748812D01*
X8845896Y-17748812D02*
X8845896Y-17729765D01*
X8845896Y-17729765D02*
X8855420Y-17710717D01*
X8855420Y-17710717D02*
X8874468Y-17701193D01*
X8874468Y-17701193D02*
X8922087Y-17701193D01*
X8922087Y-17701193D02*
X8941135Y-17691670D01*
X9007801Y-17644050D02*
X9083992Y-17644050D01*
X9036373Y-17577384D02*
X9036373Y-17748812D01*
X9036373Y-17748812D02*
X9045896Y-17767860D01*
X9045896Y-17767860D02*
X9064944Y-17777384D01*
X9064944Y-17777384D02*
X9083992Y-17777384D01*
X9226849Y-17767860D02*
X9207801Y-17777384D01*
X9207801Y-17777384D02*
X9169706Y-17777384D01*
X9169706Y-17777384D02*
X9150658Y-17767860D01*
X9150658Y-17767860D02*
X9141135Y-17748812D01*
X9141135Y-17748812D02*
X9141135Y-17672622D01*
X9141135Y-17672622D02*
X9150658Y-17653574D01*
X9150658Y-17653574D02*
X9169706Y-17644050D01*
X9169706Y-17644050D02*
X9207801Y-17644050D01*
X9207801Y-17644050D02*
X9226849Y-17653574D01*
X9226849Y-17653574D02*
X9236373Y-17672622D01*
X9236373Y-17672622D02*
X9236373Y-17691670D01*
X9236373Y-17691670D02*
X9141135Y-17710717D01*
X9407801Y-17777384D02*
X9407801Y-17577384D01*
X9407801Y-17767860D02*
X9388754Y-17777384D01*
X9388754Y-17777384D02*
X9350658Y-17777384D01*
X9350658Y-17777384D02*
X9331611Y-17767860D01*
X9331611Y-17767860D02*
X9322087Y-17758336D01*
X9322087Y-17758336D02*
X9312563Y-17739289D01*
X9312563Y-17739289D02*
X9312563Y-17682146D01*
X9312563Y-17682146D02*
X9322087Y-17663098D01*
X9322087Y-17663098D02*
X9331611Y-17653574D01*
X9331611Y-17653574D02*
X9350658Y-17644050D01*
X9350658Y-17644050D02*
X9388754Y-17644050D01*
X9388754Y-17644050D02*
X9407801Y-17653574D01*
X9483992Y-17853574D02*
X9493516Y-17844050D01*
X9493516Y-17844050D02*
X9512563Y-17815479D01*
X9512563Y-17815479D02*
X9522087Y-17796431D01*
X9522087Y-17796431D02*
X9531611Y-17767860D01*
X9531611Y-17767860D02*
X9541135Y-17720241D01*
X9541135Y-17720241D02*
X9541135Y-17682146D01*
X9541135Y-17682146D02*
X9531611Y-17634527D01*
X9531611Y-17634527D02*
X9522087Y-17605955D01*
X9522087Y-17605955D02*
X9512563Y-17586908D01*
X9512563Y-17586908D02*
X9493516Y-17558336D01*
X9493516Y-17558336D02*
X9483992Y-17548812D01*
M02*
