M48
; DRILL file {KiCad 8.0.4} date 2025-12-21T14:13:33-0800
; FORMAT={-:-/ absolute / inch / decimal}
; #@! TF.CreationDate,2025-12-21T14:13:33-08:00
; #@! TF.GenerationSoftware,Kicad,Pcbnew,8.0.4
; #@! TF.FileFunction,Plated,1,4,PTH
FMAT,2
INCH
; #@! TA.AperFunction,Plated,PTH,ViaDrill
T1C0.0100
; #@! TA.AperFunction,Plated,PTH,ViaDrill
T2C0.0118
; #@! TA.AperFunction,Plated,PTH,ComponentDrill
T3C0.0394
%
G90
G05
T1
X1.0655Y-3.3255
X1.0655Y-3.381
X1.0655Y-3.4365
X1.0655Y-3.492
X1.0655Y-3.5475
X1.0655Y-3.6029
X1.0655Y-3.6584
X1.0655Y-3.7139
X1.0655Y-3.7694
X1.0655Y-3.8249
X1.0655Y-3.8804
X1.0655Y-3.9359
X1.0655Y-3.9914
X1.0655Y-4.0469
X1.0655Y-4.1024
X1.0655Y-4.1579
X1.0655Y-4.2134
X1.0655Y-4.2689
X1.0655Y-4.3244
X1.0655Y-4.3799
X1.0655Y-4.4354
X1.0655Y-4.4909
X1.0655Y-4.5464
X1.0655Y-4.6019
X1.0655Y-4.6574
X1.0655Y-4.7129
X1.0655Y-4.7684
X1.0655Y-5.4898
X1.0655Y-5.5453
X1.0655Y-5.6008
X1.0655Y-5.6563
X1.0655Y-5.7118
X1.0655Y-5.7673
X1.0655Y-5.8228
X1.0655Y-5.8783
X1.0655Y-5.9338
X1.0655Y-5.9893
X1.0655Y-6.0448
X1.0655Y-6.1003
X1.0655Y-6.1558
X1.0655Y-6.2113
X1.0655Y-6.2668
X1.0655Y-6.3223
X1.0655Y-6.3778
X1.0655Y-6.4332
X1.0655Y-6.4887
X1.0655Y-6.5442
X1.0655Y-6.5997
X1.107Y-5.0413
X1.107Y-5.0708
X1.107Y-5.1003
X1.107Y-5.1791
X1.107Y-5.2086
X1.107Y-5.2381
X1.121Y-3.3255
X1.121Y-3.381
X1.121Y-3.4365
X1.121Y-3.492
X1.121Y-3.5475
X1.121Y-3.6029
X1.121Y-3.6584
X1.121Y-3.7139
X1.121Y-3.7694
X1.121Y-3.8249
X1.121Y-3.8804
X1.121Y-3.9359
X1.121Y-3.9914
X1.121Y-4.0469
X1.121Y-4.1024
X1.121Y-4.1579
X1.121Y-4.2134
X1.121Y-4.2689
X1.121Y-4.3244
X1.121Y-4.3799
X1.121Y-4.4354
X1.121Y-4.4909
X1.121Y-4.5464
X1.121Y-4.6019
X1.121Y-4.6574
X1.121Y-4.7129
X1.121Y-4.7684
X1.121Y-5.4898
X1.121Y-5.5453
X1.121Y-5.6008
X1.121Y-5.6563
X1.121Y-5.7118
X1.121Y-5.7673
X1.121Y-5.8228
X1.121Y-5.8783
X1.121Y-5.9338
X1.121Y-5.9893
X1.121Y-6.0448
X1.121Y-6.1003
X1.121Y-6.1558
X1.121Y-6.2113
X1.121Y-6.2668
X1.121Y-6.3223
X1.121Y-6.3778
X1.121Y-6.4332
X1.121Y-6.4887
X1.121Y-6.5442
X1.121Y-6.5997
X1.1368Y-5.0413
X1.1368Y-5.0708
X1.1368Y-5.1003
X1.1368Y-5.1791
X1.1368Y-5.2086
X1.1368Y-5.2381
X1.1665Y-5.0413
X1.1665Y-5.0708
X1.1665Y-5.1003
X1.1665Y-5.1791
X1.1665Y-5.2086
X1.1665Y-5.2381
X1.1765Y-3.3255
X1.1765Y-3.381
X1.1765Y-3.4365
X1.1765Y-3.492
X1.1765Y-3.5475
X1.1765Y-3.6029
X1.1765Y-3.6584
X1.1765Y-3.7139
X1.1765Y-3.7694
X1.1765Y-3.8249
X1.1765Y-3.8804
X1.1765Y-3.9359
X1.1765Y-3.9914
X1.1765Y-4.0469
X1.1765Y-4.1024
X1.1765Y-4.1579
X1.1765Y-4.2134
X1.1765Y-4.2689
X1.1765Y-4.3244
X1.1765Y-4.3799
X1.1765Y-4.4354
X1.1765Y-4.4909
X1.1765Y-4.5464
X1.1765Y-4.6019
X1.1765Y-4.6574
X1.1765Y-4.7129
X1.1765Y-4.7684
X1.1765Y-5.4898
X1.1765Y-5.5453
X1.1765Y-5.6008
X1.1765Y-5.6563
X1.1765Y-5.7118
X1.1765Y-5.7673
X1.1765Y-5.8228
X1.1765Y-5.8783
X1.1765Y-5.9338
X1.1765Y-5.9893
X1.1765Y-6.0448
X1.1765Y-6.1003
X1.1765Y-6.1558
X1.1765Y-6.2113
X1.1765Y-6.2668
X1.1765Y-6.3223
X1.1765Y-6.3778
X1.1765Y-6.4332
X1.1765Y-6.4887
X1.1765Y-6.5442
X1.1765Y-6.5997
X1.1963Y-5.0413
X1.1963Y-5.0708
X1.1963Y-5.1003
X1.1963Y-5.1791
X1.1963Y-5.2086
X1.1963Y-5.2381
X1.226Y-5.0413
X1.226Y-5.0708
X1.226Y-5.1003
X1.226Y-5.1791
X1.226Y-5.2086
X1.226Y-5.2381
X1.232Y-3.3255
X1.232Y-3.381
X1.232Y-3.4365
X1.232Y-3.492
X1.232Y-3.5475
X1.232Y-3.6029
X1.232Y-3.6584
X1.232Y-3.7139
X1.232Y-3.7694
X1.232Y-3.8249
X1.232Y-3.8804
X1.232Y-3.9359
X1.232Y-3.9914
X1.232Y-4.0469
X1.232Y-4.1024
X1.232Y-4.1579
X1.232Y-4.2134
X1.232Y-4.2689
X1.232Y-4.3244
X1.232Y-4.3799
X1.232Y-4.4354
X1.232Y-4.4909
X1.232Y-4.5464
X1.232Y-4.6019
X1.232Y-4.6574
X1.232Y-4.7129
X1.232Y-4.7684
X1.232Y-5.4898
X1.232Y-5.5453
X1.232Y-5.6008
X1.232Y-5.6563
X1.232Y-5.7118
X1.232Y-5.7673
X1.232Y-5.8228
X1.232Y-5.8783
X1.232Y-5.9338
X1.232Y-5.9893
X1.232Y-6.0448
X1.232Y-6.1003
X1.232Y-6.1558
X1.232Y-6.2113
X1.232Y-6.2668
X1.232Y-6.3223
X1.232Y-6.3778
X1.232Y-6.4332
X1.232Y-6.4887
X1.232Y-6.5442
X1.232Y-6.5997
X1.2558Y-5.0413
X1.2558Y-5.0708
X1.2558Y-5.1003
X1.2558Y-5.1791
X1.2558Y-5.2086
X1.2558Y-5.2381
X1.2855Y-5.0413
X1.2855Y-5.0708
X1.2855Y-5.1003
X1.2855Y-5.1791
X1.2855Y-5.2086
X1.2855Y-5.2381
X1.2875Y-3.3255
X1.2875Y-3.381
X1.2875Y-3.4365
X1.2875Y-3.492
X1.2875Y-3.5475
X1.2875Y-3.6029
X1.2875Y-3.6584
X1.2875Y-3.7139
X1.2875Y-3.7694
X1.2875Y-3.8249
X1.2875Y-3.8804
X1.2875Y-3.9359
X1.2875Y-3.9914
X1.2875Y-4.0469
X1.2875Y-4.1024
X1.2875Y-4.1579
X1.2875Y-4.2134
X1.2875Y-4.2689
X1.2875Y-4.3244
X1.2875Y-4.3799
X1.2875Y-4.4354
X1.2875Y-4.4909
X1.2875Y-4.5464
X1.2875Y-4.6019
X1.2875Y-4.6574
X1.2875Y-4.7129
X1.2875Y-4.7684
X1.2875Y-4.8239
X1.2875Y-4.8794
X1.2875Y-4.9349
X1.2875Y-5.3233
X1.2875Y-5.3788
X1.2875Y-5.4343
X1.2875Y-5.4898
X1.2875Y-5.5453
X1.2875Y-5.6008
X1.2875Y-5.6563
X1.2875Y-5.7118
X1.2875Y-5.7673
X1.2875Y-5.8228
X1.2875Y-5.8783
X1.2875Y-5.9338
X1.2875Y-5.9893
X1.2875Y-6.0448
X1.2875Y-6.1003
X1.2875Y-6.1558
X1.2875Y-6.2113
X1.2875Y-6.2668
X1.2875Y-6.3223
X1.2875Y-6.3778
X1.2875Y-6.4332
X1.2875Y-6.4887
X1.2875Y-6.5442
X1.2875Y-6.5997
X1.3153Y-5.0413
X1.3153Y-5.0708
X1.3153Y-5.1003
X1.3153Y-5.1791
X1.3153Y-5.2086
X1.3153Y-5.2381
X1.3429Y-3.3255
X1.3429Y-3.381
X1.3429Y-3.4365
X1.3429Y-3.492
X1.3429Y-3.5475
X1.3429Y-3.6029
X1.3429Y-3.6584
X1.3429Y-3.7139
X1.3429Y-3.7694
X1.3429Y-3.8249
X1.3429Y-3.8804
X1.3429Y-3.9359
X1.3429Y-3.9914
X1.3429Y-4.0469
X1.3429Y-4.1024
X1.3429Y-4.1579
X1.3429Y-4.2134
X1.3429Y-4.2689
X1.3429Y-4.3244
X1.3429Y-4.3799
X1.3429Y-4.4354
X1.3429Y-4.4909
X1.3429Y-4.5464
X1.3429Y-4.6019
X1.3429Y-4.6574
X1.3429Y-4.7129
X1.3429Y-4.7684
X1.3429Y-4.8239
X1.3429Y-4.8794
X1.3429Y-4.9349
X1.3429Y-5.3233
X1.3429Y-5.3788
X1.3429Y-5.4343
X1.3429Y-5.4898
X1.3429Y-5.5453
X1.3429Y-5.6008
X1.3429Y-5.6563
X1.3429Y-5.7118
X1.3429Y-5.7673
X1.3429Y-5.8228
X1.3429Y-5.8783
X1.3429Y-5.9338
X1.3429Y-5.9893
X1.3429Y-6.0448
X1.3429Y-6.1003
X1.3429Y-6.1558
X1.3429Y-6.2113
X1.3429Y-6.2668
X1.3429Y-6.3223
X1.3429Y-6.3778
X1.3429Y-6.4332
X1.3429Y-6.4887
X1.3429Y-6.5442
X1.3429Y-6.5997
X1.345Y-5.0413
X1.345Y-5.0708
X1.345Y-5.1003
X1.345Y-5.1791
X1.345Y-5.2086
X1.345Y-5.2381
X1.3748Y-5.0413
X1.3748Y-5.0708
X1.3748Y-5.1003
X1.3748Y-5.1791
X1.3748Y-5.2086
X1.3748Y-5.2381
X1.3984Y-3.3255
X1.3984Y-3.381
X1.3984Y-3.4365
X1.3984Y-3.492
X1.3984Y-3.5475
X1.3984Y-3.6029
X1.3984Y-3.6584
X1.3984Y-3.7139
X1.3984Y-3.7694
X1.3984Y-3.8249
X1.3984Y-3.8804
X1.3984Y-3.9359
X1.3984Y-3.9914
X1.3984Y-4.0469
X1.3984Y-4.1024
X1.3984Y-4.1579
X1.3984Y-4.2134
X1.3984Y-4.2689
X1.3984Y-4.3244
X1.3984Y-4.3799
X1.3984Y-4.4354
X1.3984Y-4.4909
X1.3984Y-4.5464
X1.3984Y-4.6019
X1.3984Y-4.6574
X1.3984Y-4.7129
X1.3984Y-4.7684
X1.3984Y-4.8239
X1.3984Y-4.8794
X1.3984Y-5.3233
X1.3984Y-5.3788
X1.3984Y-5.4343
X1.3984Y-5.4898
X1.3984Y-5.5453
X1.3984Y-5.6008
X1.3984Y-5.6563
X1.3984Y-5.7118
X1.3984Y-5.7673
X1.3984Y-5.8228
X1.3984Y-5.8783
X1.3984Y-5.9338
X1.3984Y-5.9893
X1.3984Y-6.0448
X1.3984Y-6.1003
X1.3984Y-6.1558
X1.3984Y-6.2113
X1.3984Y-6.2668
X1.3984Y-6.3223
X1.3984Y-6.3778
X1.3984Y-6.4332
X1.3984Y-6.4887
X1.3984Y-6.5442
X1.3984Y-6.5997
X1.4045Y-5.0413
X1.4045Y-5.0708
X1.4045Y-5.1003
X1.4045Y-5.1791
X1.4045Y-5.2086
X1.4045Y-5.2381
X1.4343Y-5.0413
X1.4343Y-5.0708
X1.4343Y-5.1003
X1.4343Y-5.1791
X1.4343Y-5.2086
X1.4343Y-5.2381
X1.4539Y-3.3255
X1.4539Y-3.381
X1.4539Y-3.4365
X1.4539Y-3.492
X1.4539Y-3.5475
X1.4539Y-3.6029
X1.4539Y-3.6584
X1.4539Y-3.7139
X1.4539Y-3.7694
X1.4539Y-3.8249
X1.4539Y-3.8804
X1.4539Y-3.9359
X1.4539Y-3.9914
X1.4539Y-4.0469
X1.4539Y-4.1024
X1.4539Y-4.1579
X1.4539Y-4.2134
X1.4539Y-4.2689
X1.4539Y-4.3244
X1.4539Y-4.3799
X1.4539Y-4.4354
X1.4539Y-4.4909
X1.4539Y-4.5464
X1.4539Y-4.6019
X1.4539Y-4.6574
X1.4539Y-4.7129
X1.4539Y-4.7684
X1.4539Y-4.8239
X1.4539Y-4.8794
X1.4539Y-5.3233
X1.4539Y-5.3788
X1.4539Y-5.4343
X1.4539Y-5.4898
X1.4539Y-5.5453
X1.4539Y-5.6008
X1.4539Y-5.6563
X1.4539Y-5.7118
X1.4539Y-5.7673
X1.4539Y-5.8228
X1.4539Y-5.8783
X1.4539Y-5.9338
X1.4539Y-5.9893
X1.4539Y-6.0448
X1.4539Y-6.1003
X1.4539Y-6.1558
X1.4539Y-6.2113
X1.4539Y-6.2668
X1.4539Y-6.3223
X1.4539Y-6.3778
X1.4539Y-6.4332
X1.4539Y-6.4887
X1.4539Y-6.5442
X1.4539Y-6.5997
X1.464Y-5.0413
X1.464Y-5.0708
X1.464Y-5.1003
X1.464Y-5.1791
X1.464Y-5.2086
X1.464Y-5.2381
X1.4938Y-5.0413
X1.4938Y-5.0708
X1.4938Y-5.1003
X1.4938Y-5.1791
X1.4938Y-5.2086
X1.4938Y-5.2381
X1.5094Y-3.3255
X1.5094Y-3.381
X1.5094Y-3.4365
X1.5094Y-3.492
X1.5094Y-3.5475
X1.5094Y-3.6029
X1.5094Y-3.6584
X1.5094Y-3.7139
X1.5094Y-3.7694
X1.5094Y-3.8249
X1.5094Y-3.8804
X1.5094Y-3.9359
X1.5094Y-3.9914
X1.5094Y-4.0469
X1.5094Y-4.1024
X1.5094Y-4.1579
X1.5094Y-4.2134
X1.5094Y-4.2689
X1.5094Y-4.3244
X1.5094Y-4.3799
X1.5094Y-4.4354
X1.5094Y-4.4909
X1.5094Y-4.5464
X1.5094Y-4.6019
X1.5094Y-4.6574
X1.5094Y-4.7129
X1.5094Y-4.7684
X1.5094Y-4.8239
X1.5094Y-4.8794
X1.5094Y-5.3233
X1.5094Y-5.3788
X1.5094Y-5.4343
X1.5094Y-5.4898
X1.5094Y-5.5453
X1.5094Y-5.6008
X1.5094Y-5.6563
X1.5094Y-5.7118
X1.5094Y-5.7673
X1.5094Y-5.8228
X1.5094Y-5.8783
X1.5094Y-5.9338
X1.5094Y-5.9893
X1.5094Y-6.0448
X1.5094Y-6.1003
X1.5094Y-6.1558
X1.5094Y-6.2113
X1.5094Y-6.2668
X1.5094Y-6.3223
X1.5094Y-6.3778
X1.5094Y-6.4332
X1.5094Y-6.4887
X1.5094Y-6.5442
X1.5094Y-6.5997
X1.5235Y-5.0413
X1.5235Y-5.0708
X1.5235Y-5.1003
X1.5235Y-5.1791
X1.5235Y-5.2086
X1.5235Y-5.2381
X1.5552Y-5.238
X1.5554Y-5.208
X1.556Y-5.1791
X1.5649Y-3.3255
X1.5649Y-3.381
X1.5649Y-3.4365
X1.5649Y-3.492
X1.5649Y-3.5475
X1.5649Y-3.6029
X1.5649Y-3.6584
X1.5649Y-3.7139
X1.5649Y-3.7694
X1.5649Y-3.8249
X1.5649Y-3.8804
X1.5649Y-3.9359
X1.5649Y-3.9914
X1.5649Y-4.0469
X1.5649Y-4.1024
X1.5649Y-4.1579
X1.5649Y-4.2134
X1.5649Y-4.2689
X1.5649Y-4.3244
X1.5649Y-4.3799
X1.5649Y-4.4354
X1.5649Y-4.4909
X1.5649Y-4.5464
X1.5649Y-4.6019
X1.5649Y-4.6574
X1.5649Y-4.7129
X1.5649Y-5.3233
X1.5649Y-5.3788
X1.5649Y-5.4343
X1.5649Y-5.4898
X1.5649Y-5.5453
X1.5649Y-5.6008
X1.5649Y-5.6563
X1.5649Y-5.7118
X1.5649Y-5.7673
X1.5649Y-5.8228
X1.5649Y-5.8783
X1.5649Y-5.9338
X1.5649Y-5.9893
X1.5649Y-6.0448
X1.5649Y-6.1003
X1.5649Y-6.1558
X1.5649Y-6.2113
X1.5649Y-6.2668
X1.5649Y-6.3223
X1.5649Y-6.3778
X1.5649Y-6.4332
X1.5649Y-6.4887
X1.5649Y-6.5442
X1.5649Y-6.5997
X1.587Y-5.238
X1.5872Y-5.208
X1.588Y-5.1791
X1.6188Y-5.238
X1.619Y-5.208
X1.62Y-5.1791
X1.6204Y-3.3255
X1.6204Y-3.381
X1.6204Y-3.4365
X1.6204Y-3.492
X1.6204Y-3.5475
X1.6204Y-3.6029
X1.6204Y-3.6584
X1.6204Y-3.7139
X1.6204Y-3.7694
X1.6204Y-3.8249
X1.6204Y-3.8804
X1.6204Y-3.9359
X1.6204Y-3.9914
X1.6204Y-4.0469
X1.6204Y-4.1024
X1.6204Y-4.1579
X1.6204Y-4.2134
X1.6204Y-4.2689
X1.6204Y-4.3244
X1.6204Y-4.3799
X1.6204Y-4.4354
X1.6204Y-4.4909
X1.6204Y-4.5464
X1.6204Y-4.6019
X1.6204Y-5.3233
X1.6204Y-5.3788
X1.6204Y-5.4343
X1.6204Y-5.4898
X1.6204Y-5.5453
X1.6204Y-5.6008
X1.6204Y-5.6563
X1.6204Y-5.7118
X1.6204Y-5.7673
X1.6204Y-5.8228
X1.6204Y-5.8783
X1.6204Y-5.9338
X1.6204Y-5.9893
X1.6204Y-6.0448
X1.6204Y-6.1003
X1.6204Y-6.1558
X1.6204Y-6.2113
X1.6204Y-6.2668
X1.6204Y-6.3223
X1.6204Y-6.3778
X1.6204Y-6.4332
X1.6204Y-6.4887
X1.6204Y-6.5442
X1.6204Y-6.5997
X1.6574Y-5.0216
X1.6574Y-5.0511
X1.6574Y-5.0806
X1.6574Y-5.1594
X1.6574Y-5.1889
X1.6574Y-5.2184
X1.6759Y-3.3255
X1.6759Y-3.381
X1.6759Y-3.4365
X1.6759Y-3.492
X1.6759Y-3.5475
X1.6759Y-3.6029
X1.6759Y-3.6584
X1.6759Y-3.7139
X1.6759Y-3.7694
X1.6759Y-3.8249
X1.6759Y-3.8804
X1.6759Y-3.9359
X1.6759Y-3.9914
X1.6759Y-4.0469
X1.6759Y-4.1024
X1.6759Y-4.1579
X1.6759Y-4.2134
X1.6759Y-4.2689
X1.6759Y-4.3244
X1.6759Y-4.3799
X1.6759Y-4.4354
X1.6759Y-4.4909
X1.6759Y-4.5464
X1.6759Y-4.6019
X1.6759Y-5.3233
X1.6759Y-5.3788
X1.6759Y-5.4343
X1.6759Y-5.4898
X1.6759Y-5.5453
X1.6759Y-5.6008
X1.6759Y-5.6563
X1.6759Y-5.7118
X1.6759Y-5.7673
X1.6759Y-5.8228
X1.6759Y-5.8783
X1.6759Y-5.9338
X1.6759Y-5.9893
X1.6759Y-6.0448
X1.6759Y-6.1003
X1.6759Y-6.1558
X1.6759Y-6.2113
X1.6759Y-6.2668
X1.6759Y-6.3223
X1.6759Y-6.3778
X1.6759Y-6.4332
X1.6759Y-6.4887
X1.6759Y-6.5442
X1.6759Y-6.5997
X1.6949Y-5.0216
X1.6949Y-5.0511
X1.6949Y-5.0806
X1.6949Y-5.1594
X1.6949Y-5.1889
X1.6949Y-5.2184
X1.7314Y-3.3255
X1.7314Y-3.381
X1.7314Y-3.4365
X1.7314Y-3.492
X1.7314Y-3.5475
X1.7314Y-3.6029
X1.7314Y-3.6584
X1.7314Y-3.7139
X1.7314Y-3.7694
X1.7314Y-3.8249
X1.7314Y-3.8804
X1.7314Y-3.9359
X1.7314Y-3.9914
X1.7314Y-4.0469
X1.7314Y-4.1024
X1.7314Y-4.1579
X1.7314Y-4.2134
X1.7314Y-4.2689
X1.7314Y-4.3244
X1.7314Y-4.3799
X1.7314Y-4.4354
X1.7314Y-4.4909
X1.7314Y-4.5464
X1.7314Y-4.6019
X1.7314Y-4.8239
X1.7314Y-4.8794
X1.7314Y-4.9349
X1.7314Y-5.3233
X1.7314Y-5.3788
X1.7314Y-5.4343
X1.7314Y-5.4898
X1.7314Y-5.5453
X1.7314Y-5.6008
X1.7314Y-5.6563
X1.7314Y-5.7118
X1.7314Y-5.7673
X1.7314Y-5.8228
X1.7314Y-5.8783
X1.7314Y-5.9338
X1.7314Y-5.9893
X1.7314Y-6.0448
X1.7314Y-6.1003
X1.7314Y-6.1558
X1.7314Y-6.2113
X1.7314Y-6.2668
X1.7314Y-6.3223
X1.7314Y-6.3778
X1.7314Y-6.4332
X1.7314Y-6.4887
X1.7314Y-6.5442
X1.7314Y-6.5997
X1.7325Y-5.0216
X1.7325Y-5.0511
X1.7325Y-5.0806
X1.7325Y-5.1594
X1.7325Y-5.1889
X1.7325Y-5.2184
X1.77Y-5.0216
X1.77Y-5.0511
X1.77Y-5.0806
X1.77Y-5.1594
X1.77Y-5.1889
X1.77Y-5.2184
X1.7869Y-3.3255
X1.7869Y-3.381
X1.7869Y-3.4365
X1.7869Y-3.492
X1.7869Y-3.5475
X1.7869Y-3.6029
X1.7869Y-3.6584
X1.7869Y-3.7139
X1.7869Y-3.7694
X1.7869Y-3.8249
X1.7869Y-3.8804
X1.7869Y-3.9359
X1.7869Y-3.9914
X1.7869Y-4.0469
X1.7869Y-4.1024
X1.7869Y-4.1579
X1.7869Y-4.2134
X1.7869Y-4.2689
X1.7869Y-4.3244
X1.7869Y-4.3799
X1.7869Y-4.4354
X1.7869Y-4.4909
X1.7869Y-4.5464
X1.7869Y-4.6019
X1.7869Y-4.8239
X1.7869Y-4.8794
X1.7869Y-4.9349
X1.7869Y-5.3233
X1.7869Y-5.3788
X1.7869Y-5.4343
X1.7869Y-5.4898
X1.7869Y-5.5453
X1.7869Y-5.6008
X1.7869Y-5.6563
X1.7869Y-5.7118
X1.7869Y-5.7673
X1.7869Y-5.8228
X1.7869Y-5.8783
X1.7869Y-5.9338
X1.7869Y-5.9893
X1.7869Y-6.0448
X1.7869Y-6.1003
X1.7869Y-6.1558
X1.7869Y-6.2113
X1.7869Y-6.2668
X1.7869Y-6.3223
X1.7869Y-6.3778
X1.7869Y-6.4332
X1.7869Y-6.4887
X1.7869Y-6.5442
X1.7869Y-6.5997
X1.804Y-5.021
X1.804Y-5.051
X1.804Y-5.19
X1.804Y-5.2184
X1.838Y-5.021
X1.838Y-5.051
X1.838Y-5.19
X1.838Y-5.2184
X1.8424Y-3.3255
X1.8424Y-3.381
X1.8424Y-3.4365
X1.8424Y-3.492
X1.8424Y-3.5475
X1.8424Y-3.6029
X1.8424Y-3.6584
X1.8424Y-3.7139
X1.8424Y-3.7694
X1.8424Y-3.8249
X1.8424Y-3.8804
X1.8424Y-3.9359
X1.8424Y-3.9914
X1.8424Y-4.0469
X1.8424Y-4.1024
X1.8424Y-4.1579
X1.8424Y-4.2134
X1.8424Y-4.2689
X1.8424Y-4.3244
X1.8424Y-4.3799
X1.8424Y-4.4354
X1.8424Y-4.4909
X1.8424Y-4.5464
X1.8424Y-4.6019
X1.8424Y-4.8239
X1.8424Y-4.8794
X1.8424Y-4.9349
X1.8424Y-5.3233
X1.8424Y-5.3788
X1.8424Y-5.4343
X1.8424Y-5.4898
X1.8424Y-5.5453
X1.8424Y-5.6008
X1.8424Y-5.6563
X1.8424Y-5.7118
X1.8424Y-5.7673
X1.8424Y-5.8228
X1.8424Y-5.8783
X1.8424Y-5.9338
X1.8424Y-5.9893
X1.8424Y-6.0448
X1.8424Y-6.1003
X1.8424Y-6.1558
X1.8424Y-6.2113
X1.8424Y-6.2668
X1.8424Y-6.3223
X1.8424Y-6.3778
X1.8424Y-6.4332
X1.8424Y-6.4887
X1.8424Y-6.5442
X1.8424Y-6.5997
X1.87Y-5.0216
X1.87Y-5.0511
X1.87Y-5.0806
X1.87Y-5.1594
X1.87Y-5.1889
X1.87Y-5.2184
X1.8979Y-3.3255
X1.8979Y-3.381
X1.8979Y-3.4365
X1.8979Y-3.492
X1.8979Y-3.5475
X1.8979Y-3.6029
X1.8979Y-3.6584
X1.8979Y-3.7139
X1.8979Y-3.7694
X1.8979Y-3.8249
X1.8979Y-3.8804
X1.8979Y-3.9359
X1.8979Y-3.9914
X1.8979Y-4.0469
X1.8979Y-4.1024
X1.8979Y-4.1579
X1.8979Y-4.2134
X1.8979Y-4.2689
X1.8979Y-4.3244
X1.8979Y-4.3799
X1.8979Y-4.4354
X1.8979Y-4.4909
X1.8979Y-4.5464
X1.8979Y-4.6019
X1.8979Y-4.8239
X1.8979Y-4.8794
X1.8979Y-4.9349
X1.8979Y-5.3233
X1.8979Y-5.3788
X1.8979Y-5.4343
X1.8979Y-5.4898
X1.8979Y-5.5453
X1.8979Y-5.6008
X1.8979Y-5.6563
X1.8979Y-5.7118
X1.8979Y-5.7673
X1.8979Y-5.8228
X1.8979Y-5.8783
X1.8979Y-5.9338
X1.8979Y-5.9893
X1.8979Y-6.0448
X1.8979Y-6.1003
X1.8979Y-6.1558
X1.8979Y-6.2113
X1.8979Y-6.2668
X1.8979Y-6.3223
X1.8979Y-6.3778
X1.8979Y-6.4332
X1.8979Y-6.4887
X1.8979Y-6.5442
X1.8979Y-6.5997
X1.9039Y-5.0216
X1.9039Y-5.0511
X1.9039Y-5.0806
X1.9039Y-5.1594
X1.9039Y-5.1889
X1.9039Y-5.2184
X1.9378Y-5.0216
X1.9378Y-5.0511
X1.9378Y-5.0806
X1.9378Y-5.1594
X1.9378Y-5.1889
X1.9378Y-5.2184
X1.9534Y-3.3255
X1.9534Y-3.381
X1.9534Y-3.4365
X1.9534Y-3.492
X1.9534Y-3.5475
X1.9534Y-3.6029
X1.9534Y-3.6584
X1.9534Y-3.7139
X1.9534Y-3.7694
X1.9534Y-3.8249
X1.9534Y-3.8804
X1.9534Y-3.9359
X1.9534Y-3.9914
X1.9534Y-4.0469
X1.9534Y-4.1024
X1.9534Y-4.1579
X1.9534Y-4.2134
X1.9534Y-4.2689
X1.9534Y-4.3244
X1.9534Y-4.3799
X1.9534Y-4.4354
X1.9534Y-4.4909
X1.9534Y-4.5464
X1.9534Y-4.6019
X1.9534Y-4.6574
X1.9534Y-4.7129
X1.9534Y-4.7684
X1.9534Y-4.8239
X1.9534Y-4.8794
X1.9534Y-4.9349
X1.9534Y-5.3233
X1.9534Y-5.3788
X1.9534Y-5.4343
X1.9534Y-5.4898
X1.9534Y-5.5453
X1.9534Y-5.6008
X1.9534Y-5.6563
X1.9534Y-5.7118
X1.9534Y-5.7673
X1.9534Y-5.8228
X1.9534Y-5.8783
X1.9534Y-5.9338
X1.9534Y-5.9893
X1.9534Y-6.0448
X1.9534Y-6.1003
X1.9534Y-6.1558
X1.9534Y-6.2113
X1.9534Y-6.2668
X1.9534Y-6.3223
X1.9534Y-6.3778
X1.9534Y-6.4332
X1.9534Y-6.4887
X1.9534Y-6.5442
X1.9534Y-6.5997
X1.9718Y-5.0216
X1.9718Y-5.0511
X1.9718Y-5.0806
X1.9718Y-5.1594
X1.9718Y-5.1889
X1.9718Y-5.2184
X2.0089Y-3.3255
X2.0089Y-3.381
X2.0089Y-3.4365
X2.0089Y-3.492
X2.0089Y-3.5475
X2.0089Y-3.6029
X2.0089Y-3.6584
X2.0089Y-3.7139
X2.0089Y-3.7694
X2.0089Y-3.8249
X2.0089Y-3.8804
X2.0089Y-3.9359
X2.0089Y-3.9914
X2.0089Y-4.0469
X2.0089Y-4.1024
X2.0089Y-4.1579
X2.0089Y-4.2134
X2.0089Y-4.2689
X2.0089Y-4.3244
X2.0089Y-4.3799
X2.0089Y-4.4354
X2.0089Y-4.4909
X2.0089Y-4.5464
X2.0089Y-4.6019
X2.0089Y-4.6574
X2.0089Y-4.7129
X2.0089Y-4.7684
X2.0089Y-4.8239
X2.0089Y-4.8794
X2.0089Y-4.9349
X2.0089Y-5.3233
X2.0089Y-5.3788
X2.0089Y-5.4343
X2.0089Y-5.4898
X2.0089Y-5.5453
X2.0089Y-5.6008
X2.0089Y-5.6563
X2.0089Y-5.7118
X2.0089Y-5.7673
X2.0089Y-5.8228
X2.0089Y-5.8783
X2.0089Y-5.9338
X2.0089Y-5.9893
X2.0089Y-6.0448
X2.0089Y-6.1003
X2.0089Y-6.1558
X2.0089Y-6.2113
X2.0089Y-6.2668
X2.0089Y-6.3223
X2.0089Y-6.3778
X2.0089Y-6.4332
X2.0089Y-6.4887
X2.0089Y-6.5442
X2.0089Y-6.5997
X2.0644Y-3.3255
X2.0644Y-3.381
X2.0644Y-3.4365
X2.0644Y-3.492
X2.0644Y-3.5475
X2.0644Y-3.6029
X2.0644Y-3.6584
X2.0644Y-3.7139
X2.0644Y-3.7694
X2.0644Y-3.8249
X2.0644Y-3.8804
X2.0644Y-3.9359
X2.0644Y-3.9914
X2.0644Y-4.0469
X2.0644Y-4.1024
X2.0644Y-4.1579
X2.0644Y-4.2134
X2.0644Y-4.2689
X2.0644Y-4.3244
X2.0644Y-4.3799
X2.0644Y-4.4354
X2.0644Y-4.4909
X2.0644Y-4.5464
X2.0644Y-4.6019
X2.0644Y-4.6574
X2.0644Y-4.7129
X2.0644Y-4.7684
X2.0644Y-4.8239
X2.0644Y-4.8794
X2.0644Y-4.9349
X2.0644Y-5.2678
X2.0644Y-5.3233
X2.0644Y-5.3788
X2.0644Y-5.4343
X2.0644Y-5.4898
X2.0644Y-5.5453
X2.0644Y-5.6008
X2.0644Y-5.6563
X2.0644Y-5.7118
X2.0644Y-5.7673
X2.0644Y-5.8228
X2.0644Y-5.8783
X2.0644Y-5.9338
X2.0644Y-5.9893
X2.0644Y-6.0448
X2.0644Y-6.1003
X2.0644Y-6.1558
X2.0644Y-6.2113
X2.0644Y-6.2668
X2.0644Y-6.3223
X2.0644Y-6.3778
X2.0644Y-6.4332
X2.0644Y-6.4887
X2.0644Y-6.5442
X2.0644Y-6.5997
X2.1199Y-3.3255
X2.1199Y-3.381
X2.1199Y-3.4365
X2.1199Y-3.492
X2.1199Y-3.5475
X2.1199Y-3.6029
X2.1199Y-3.6584
X2.1199Y-3.7139
X2.1199Y-3.7694
X2.1199Y-3.8249
X2.1199Y-3.8804
X2.1199Y-3.9359
X2.1199Y-3.9914
X2.1199Y-4.0469
X2.1199Y-4.1024
X2.1199Y-4.1579
X2.1199Y-4.2134
X2.1199Y-4.2689
X2.1199Y-4.3244
X2.1199Y-4.3799
X2.1199Y-4.4354
X2.1199Y-4.4909
X2.1199Y-4.5464
X2.1199Y-4.6019
X2.1199Y-4.6574
X2.1199Y-4.7129
X2.1199Y-4.7684
X2.1199Y-4.8239
X2.1199Y-4.8794
X2.1199Y-4.9349
X2.1199Y-5.3233
X2.1199Y-5.3788
X2.1199Y-5.4343
X2.1199Y-5.4898
X2.1199Y-5.5453
X2.1199Y-5.6008
X2.1199Y-5.6563
X2.1199Y-5.7118
X2.1199Y-5.7673
X2.1199Y-5.8228
X2.1199Y-5.8783
X2.1199Y-5.9338
X2.1199Y-5.9893
X2.1199Y-6.0448
X2.1199Y-6.1003
X2.1199Y-6.1558
X2.1199Y-6.2113
X2.1199Y-6.2668
X2.1199Y-6.3223
X2.1199Y-6.3778
X2.1199Y-6.4332
X2.1199Y-6.4887
X2.1199Y-6.5442
X2.1199Y-6.5997
X2.145Y-5.0216
X2.145Y-5.0511
X2.145Y-5.0806
X2.145Y-5.1594
X2.145Y-5.1889
X2.145Y-5.2184
X2.1754Y-3.3255
X2.1754Y-3.381
X2.1754Y-3.4365
X2.1754Y-3.492
X2.1754Y-3.5475
X2.1754Y-3.6029
X2.1754Y-3.6584
X2.1754Y-3.7139
X2.1754Y-3.7694
X2.1754Y-3.8249
X2.1754Y-3.8804
X2.1754Y-3.9359
X2.1754Y-3.9914
X2.1754Y-4.0469
X2.1754Y-4.1024
X2.1754Y-4.1579
X2.1754Y-4.2134
X2.1754Y-4.2689
X2.1754Y-4.3244
X2.1754Y-4.3799
X2.1754Y-4.4354
X2.1754Y-4.4909
X2.1754Y-4.5464
X2.1754Y-4.6019
X2.1754Y-4.6574
X2.1754Y-4.7129
X2.1754Y-4.7684
X2.1754Y-4.8239
X2.1754Y-4.8794
X2.1754Y-4.9349
X2.1754Y-5.3233
X2.1754Y-5.3788
X2.1754Y-5.4343
X2.1754Y-5.4898
X2.1754Y-5.5453
X2.1754Y-5.6008
X2.1754Y-5.6563
X2.1754Y-5.7118
X2.1754Y-5.7673
X2.1754Y-5.8228
X2.1754Y-5.8783
X2.1754Y-5.9338
X2.1754Y-5.9893
X2.1754Y-6.0448
X2.1754Y-6.1003
X2.1754Y-6.1558
X2.1754Y-6.2113
X2.1754Y-6.2668
X2.1754Y-6.3223
X2.1754Y-6.3778
X2.1754Y-6.4332
X2.1754Y-6.4887
X2.1754Y-6.5442
X2.1754Y-6.5997
X2.18Y-5.0216
X2.18Y-5.0511
X2.18Y-5.0806
X2.18Y-5.1594
X2.18Y-5.1889
X2.18Y-5.2184
X2.215Y-5.0216
X2.215Y-5.0511
X2.215Y-5.0806
X2.215Y-5.1594
X2.215Y-5.1889
X2.215Y-5.2184
X2.2309Y-3.5475
X2.2309Y-3.6029
X2.2309Y-3.6584
X2.2309Y-3.7139
X2.2309Y-3.7694
X2.2309Y-3.8249
X2.2309Y-3.8804
X2.2309Y-3.9359
X2.2309Y-3.9914
X2.2309Y-4.0469
X2.2309Y-4.1024
X2.2309Y-4.1579
X2.2309Y-4.2134
X2.2309Y-4.2689
X2.2309Y-4.3244
X2.2309Y-4.3799
X2.2309Y-4.4354
X2.2309Y-4.4909
X2.2309Y-4.5464
X2.2309Y-4.6019
X2.2309Y-4.6574
X2.2309Y-4.7129
X2.2309Y-4.7684
X2.2309Y-4.8239
X2.2309Y-4.8794
X2.2309Y-4.9349
X2.2309Y-5.3233
X2.2309Y-5.3788
X2.2309Y-5.4343
X2.2309Y-5.4898
X2.2309Y-5.5453
X2.2309Y-5.6008
X2.2309Y-5.6563
X2.2309Y-5.7118
X2.2309Y-5.7673
X2.2309Y-5.8228
X2.2309Y-5.8783
X2.2309Y-5.9338
X2.2309Y-5.9893
X2.2309Y-6.0448
X2.2309Y-6.1003
X2.2309Y-6.1558
X2.2309Y-6.2113
X2.2309Y-6.2668
X2.2309Y-6.3223
X2.2309Y-6.3778
X2.2309Y-6.4332
X2.25Y-5.0216
X2.25Y-5.0511
X2.25Y-5.0806
X2.25Y-5.1594
X2.25Y-5.1889
X2.25Y-5.2184
X2.2845Y-5.021
X2.2845Y-5.05
X2.2845Y-5.189
X2.2845Y-5.2184
X2.2864Y-3.5475
X2.2864Y-3.6029
X2.2864Y-3.6584
X2.2864Y-3.7139
X2.2864Y-3.7694
X2.2864Y-3.8249
X2.2864Y-3.8804
X2.2864Y-3.9359
X2.2864Y-3.9914
X2.2864Y-4.0469
X2.2864Y-4.1024
X2.2864Y-4.1579
X2.2864Y-4.2134
X2.2864Y-4.2689
X2.2864Y-4.3244
X2.2864Y-4.3799
X2.2864Y-4.4354
X2.2864Y-4.4909
X2.2864Y-4.5464
X2.2864Y-4.6019
X2.2864Y-4.6574
X2.2864Y-4.7129
X2.2864Y-4.7684
X2.2864Y-4.8239
X2.2864Y-4.8794
X2.2864Y-4.9349
X2.2864Y-5.3233
X2.2864Y-5.3788
X2.2864Y-5.4343
X2.2864Y-5.4898
X2.2864Y-5.5453
X2.2864Y-5.6008
X2.2864Y-5.6563
X2.2864Y-5.7118
X2.2864Y-5.7673
X2.2864Y-5.8228
X2.2864Y-5.8783
X2.2864Y-5.9338
X2.2864Y-5.9893
X2.2864Y-6.0448
X2.2864Y-6.1003
X2.2864Y-6.1558
X2.2864Y-6.2113
X2.2864Y-6.2668
X2.2864Y-6.3223
X2.2864Y-6.3778
X2.2864Y-6.4332
X2.319Y-5.021
X2.319Y-5.05
X2.319Y-5.189
X2.319Y-5.2184
X2.3419Y-3.5475
X2.3419Y-3.6029
X2.3419Y-3.6584
X2.3419Y-3.7139
X2.3419Y-3.7694
X2.3419Y-3.8249
X2.3419Y-3.8804
X2.3419Y-3.9359
X2.3419Y-3.9914
X2.3419Y-4.0469
X2.3419Y-4.1024
X2.3419Y-4.1579
X2.3419Y-4.2134
X2.3419Y-4.2689
X2.3419Y-4.3244
X2.3419Y-4.3799
X2.3419Y-4.4354
X2.3419Y-4.4909
X2.3419Y-4.5464
X2.3419Y-4.6019
X2.3419Y-4.6574
X2.3419Y-4.7129
X2.3419Y-4.7684
X2.3419Y-4.8239
X2.3419Y-4.8794
X2.3419Y-4.9349
X2.3419Y-5.3233
X2.3419Y-5.3788
X2.3419Y-5.4343
X2.3419Y-5.4898
X2.3419Y-5.5453
X2.3419Y-5.6008
X2.3419Y-5.6563
X2.3419Y-5.7118
X2.3419Y-5.7673
X2.3419Y-5.8228
X2.3419Y-5.8783
X2.3419Y-5.9338
X2.3419Y-5.9893
X2.3419Y-6.0448
X2.3419Y-6.1003
X2.3419Y-6.1558
X2.3419Y-6.2113
X2.3419Y-6.2668
X2.3419Y-6.3223
X2.3419Y-6.3778
X2.3419Y-6.4332
X2.3503Y-5.0213
X2.3503Y-5.0508
X2.3503Y-5.0803
X2.3503Y-5.1591
X2.3503Y-5.1886
X2.3503Y-5.2181
X2.3829Y-5.0213
X2.3829Y-5.0508
X2.3829Y-5.0803
X2.3829Y-5.1591
X2.3829Y-5.1886
X2.3829Y-5.2181
X2.4155Y-5.0213
X2.4155Y-5.0508
X2.4155Y-5.0803
X2.4155Y-5.1591
X2.4155Y-5.1886
X2.4155Y-5.2181
X2.419Y-6.217
X2.42Y-6.1826
X2.421Y-6.1482
X2.4216Y-3.37
X2.4216Y-3.3999
X2.4216Y-3.4297
X2.4216Y-3.4596
X2.4216Y-3.4894
X2.4216Y-3.5193
X2.4216Y-3.5491
X2.4216Y-3.579
X2.4216Y-3.6088
X2.4216Y-3.6387
X2.4216Y-3.6685
X2.4216Y-3.6984
X2.4216Y-3.7282
X2.4216Y-3.7581
X2.4216Y-3.7879
X2.4216Y-3.8178
X2.4216Y-3.8476
X2.4216Y-3.8775
X2.4216Y-3.9073
X2.4216Y-3.9372
X2.4216Y-3.967
X2.4216Y-3.9969
X2.4216Y-4.0267
X2.4216Y-4.0566
X2.4216Y-4.0864
X2.4216Y-4.1163
X2.4216Y-4.1461
X2.4216Y-4.176
X2.4216Y-4.2058
X2.4216Y-4.2357
X2.4216Y-4.2655
X2.4216Y-4.2954
X2.4216Y-4.3252
X2.4216Y-4.3551
X2.4216Y-4.3849
X2.4216Y-4.4148
X2.4216Y-4.4446
X2.4216Y-4.4745
X2.4216Y-4.5043
X2.4216Y-4.5342
X2.4216Y-4.564
X2.4216Y-4.5939
X2.4216Y-4.6237
X2.4216Y-4.6536
X2.4216Y-4.6834
X2.4216Y-4.7133
X2.4216Y-4.7431
X2.4216Y-4.773
X2.4216Y-4.82
X2.4216Y-4.8525
X2.4216Y-4.8851
X2.4216Y-4.9176
X2.4216Y-4.9502
X2.4216Y-4.9827
X2.4216Y-5.2529
X2.4216Y-5.29
X2.4216Y-5.39
X2.4216Y-5.4242
X2.4216Y-5.4584
X2.4216Y-5.4926
X2.4216Y-5.5268
X2.4216Y-5.7
X2.4216Y-5.732
X2.4216Y-5.764
X2.4216Y-5.796
X2.4216Y-5.828
X2.4216Y-5.86
X2.4216Y-5.895
X2.4216Y-5.9275
X2.4216Y-5.96
X2.4216Y-5.9908
X2.4216Y-6.0215
X2.4216Y-6.0523
X2.4216Y-6.0831
X2.4216Y-6.1139
X2.422Y-5.3245
X2.422Y-5.359
X2.4413Y-6.2477
X2.4413Y-6.2773
X2.4413Y-6.3069
X2.4413Y-6.3365
X2.4413Y-6.3661
X2.4413Y-6.3958
X2.4413Y-6.4254
X2.4413Y-6.455
X2.4413Y-6.4846
X2.4413Y-6.5142
X2.4413Y-6.5438
X2.4413Y-6.5734
X2.4413Y-6.603
X2.4481Y-5.0213
X2.4481Y-5.0508
X2.4481Y-5.0803
X2.4481Y-5.1591
X2.4481Y-5.1886
X2.4481Y-5.2181
X2.449Y-6.2168
X2.45Y-6.1824
X2.451Y-5.3245
X2.451Y-5.359
X2.451Y-5.895
X2.451Y-5.9275
X2.451Y-6.148
X2.4511Y-3.37
X2.4511Y-3.3999
X2.4511Y-3.4297
X2.4511Y-3.4596
X2.4511Y-3.4894
X2.4511Y-3.5193
X2.4511Y-3.5491
X2.4511Y-3.579
X2.4511Y-3.6088
X2.4511Y-3.6387
X2.4511Y-3.6685
X2.4511Y-3.6984
X2.4511Y-3.7282
X2.4511Y-3.7581
X2.4511Y-3.7879
X2.4511Y-3.8178
X2.4511Y-3.8476
X2.4511Y-3.8775
X2.4511Y-3.9073
X2.4511Y-3.9372
X2.4511Y-3.967
X2.4511Y-3.9969
X2.4511Y-4.0267
X2.4511Y-4.0566
X2.4511Y-4.0864
X2.4511Y-4.1163
X2.4511Y-4.1461
X2.4511Y-4.176
X2.4511Y-4.2058
X2.4511Y-4.2357
X2.4511Y-4.2655
X2.4511Y-4.2954
X2.4511Y-4.3252
X2.4511Y-4.3551
X2.4511Y-4.3849
X2.4511Y-4.4148
X2.4511Y-4.4446
X2.4511Y-4.4745
X2.4511Y-4.5043
X2.4511Y-4.5342
X2.4511Y-4.564
X2.4511Y-4.5939
X2.4511Y-4.6237
X2.4511Y-4.6536
X2.4511Y-4.6834
X2.4511Y-4.7133
X2.4511Y-4.7431
X2.4511Y-4.773
X2.4511Y-4.82
X2.4511Y-4.8525
X2.4511Y-4.8851
X2.4511Y-4.9176
X2.4511Y-4.9502
X2.4511Y-4.9827
X2.4511Y-5.2529
X2.4511Y-5.29
X2.4511Y-5.39
X2.4511Y-5.4242
X2.4511Y-5.4584
X2.4511Y-5.4926
X2.4511Y-5.5268
X2.4511Y-5.7
X2.4511Y-5.732
X2.4511Y-5.764
X2.4511Y-5.796
X2.4511Y-5.828
X2.4511Y-5.86
X2.4511Y-5.96
X2.4511Y-5.9908
X2.4511Y-6.0215
X2.4511Y-6.0523
X2.4511Y-6.0831
X2.4511Y-6.1139
X2.4708Y-6.2477
X2.4708Y-6.2773
X2.4708Y-6.3069
X2.4708Y-6.3365
X2.4708Y-6.3661
X2.4708Y-6.3958
X2.4708Y-6.4254
X2.4708Y-6.455
X2.4708Y-6.4846
X2.4708Y-6.5142
X2.4708Y-6.5438
X2.4708Y-6.5734
X2.4708Y-6.603
X2.479Y-6.2168
X2.48Y-5.188
X2.48Y-5.325
X2.48Y-6.1824
X2.4806Y-3.37
X2.4806Y-3.3999
X2.4806Y-3.4297
X2.4806Y-3.4596
X2.4806Y-3.4894
X2.4806Y-3.5193
X2.4806Y-3.5491
X2.4806Y-3.579
X2.4806Y-3.6088
X2.4806Y-3.6387
X2.4806Y-3.6685
X2.4806Y-3.6984
X2.4806Y-3.7282
X2.4806Y-3.7581
X2.4806Y-3.7879
X2.4806Y-3.8178
X2.4806Y-3.8476
X2.4806Y-3.8775
X2.4806Y-3.9073
X2.4806Y-3.9372
X2.4806Y-3.967
X2.4806Y-3.9969
X2.4806Y-4.0267
X2.4806Y-4.0566
X2.4806Y-4.0864
X2.4806Y-4.1163
X2.4806Y-4.1461
X2.4806Y-4.176
X2.4806Y-4.2058
X2.4806Y-4.2357
X2.4806Y-4.2655
X2.4806Y-4.2954
X2.4806Y-4.3252
X2.4806Y-4.3551
X2.4806Y-4.3849
X2.4806Y-4.4148
X2.4806Y-4.4446
X2.4806Y-4.4745
X2.4806Y-4.5043
X2.4806Y-4.5342
X2.4806Y-4.564
X2.4806Y-4.5939
X2.4806Y-4.6237
X2.4806Y-4.6536
X2.4806Y-4.6834
X2.4806Y-4.7133
X2.4806Y-4.7431
X2.4806Y-4.773
X2.4806Y-4.82
X2.4806Y-4.8525
X2.4806Y-4.8851
X2.4806Y-4.9176
X2.4806Y-4.9502
X2.4806Y-4.9827
X2.4806Y-5.0152
X2.4806Y-5.0478
X2.4806Y-5.0803
X2.4806Y-5.1591
X2.4806Y-5.2158
X2.4806Y-5.2529
X2.4806Y-5.29
X2.4806Y-5.4584
X2.4806Y-5.4926
X2.4806Y-5.5268
X2.4806Y-5.7
X2.4806Y-5.732
X2.4806Y-5.764
X2.4806Y-5.796
X2.4806Y-5.828
X2.4806Y-5.86
X2.4806Y-5.96
X2.4806Y-5.9908
X2.4806Y-6.0215
X2.4806Y-6.0523
X2.4806Y-6.0831
X2.4806Y-6.1139
X2.481Y-6.148
X2.5003Y-6.2477
X2.5003Y-6.2773
X2.5003Y-6.3069
X2.5003Y-6.3365
X2.5003Y-6.3661
X2.5003Y-6.3958
X2.5003Y-6.4254
X2.5003Y-6.455
X2.5003Y-6.4846
X2.5003Y-6.5142
X2.5003Y-6.5438
X2.5003Y-6.5734
X2.5003Y-6.603
X2.5594Y-3.37
X2.5594Y-3.3999
X2.5594Y-3.4297
X2.5594Y-3.4596
X2.5594Y-3.4894
X2.5594Y-3.5193
X2.5594Y-3.5491
X2.5594Y-3.579
X2.5594Y-3.6088
X2.5594Y-3.6387
X2.5594Y-3.6685
X2.5594Y-3.6984
X2.5594Y-3.7282
X2.5594Y-3.7581
X2.5594Y-3.7879
X2.5594Y-3.8178
X2.5594Y-3.8476
X2.5594Y-3.8775
X2.5594Y-3.9073
X2.5594Y-3.9372
X2.5594Y-3.967
X2.5594Y-3.9969
X2.5594Y-4.0267
X2.5594Y-4.0566
X2.5594Y-4.0864
X2.5594Y-4.1163
X2.5594Y-4.1461
X2.5594Y-4.176
X2.5594Y-4.2058
X2.5594Y-4.2357
X2.5594Y-4.2655
X2.5594Y-4.2954
X2.5594Y-4.3252
X2.5594Y-4.3551
X2.5594Y-4.3849
X2.5594Y-4.4148
X2.5594Y-4.4446
X2.5594Y-4.4745
X2.5594Y-4.5043
X2.5594Y-4.5342
X2.5594Y-4.564
X2.5594Y-4.5939
X2.5594Y-4.6237
X2.5594Y-4.6536
X2.5594Y-4.6834
X2.5594Y-4.7133
X2.5594Y-4.7431
X2.5594Y-4.773
X2.5594Y-4.82
X2.5594Y-4.8525
X2.5594Y-4.8851
X2.5594Y-4.9176
X2.5594Y-4.9502
X2.5594Y-4.9827
X2.5594Y-5.0152
X2.5594Y-5.0478
X2.5594Y-5.0803
X2.5594Y-5.1787
X2.5594Y-5.2158
X2.5594Y-5.2529
X2.5594Y-5.29
X2.5594Y-5.4584
X2.5594Y-5.4926
X2.5594Y-5.5268
X2.5594Y-5.7
X2.5594Y-5.732
X2.5594Y-5.764
X2.5594Y-5.796
X2.5594Y-5.828
X2.5594Y-5.86
X2.5594Y-5.96
X2.5594Y-5.9908
X2.5594Y-6.0215
X2.5594Y-6.0523
X2.5594Y-6.0831
X2.5594Y-6.1139
X2.56Y-5.325
X2.5791Y-6.2477
X2.5791Y-6.2773
X2.5791Y-6.3069
X2.5791Y-6.3365
X2.5791Y-6.3661
X2.5791Y-6.3958
X2.5791Y-6.4254
X2.5791Y-6.455
X2.5791Y-6.4846
X2.5791Y-6.5142
X2.5791Y-6.5438
X2.5791Y-6.5734
X2.5791Y-6.603
X2.588Y-5.895
X2.588Y-5.9275
X2.5889Y-3.37
X2.5889Y-3.3999
X2.5889Y-3.4297
X2.5889Y-3.4596
X2.5889Y-3.4894
X2.5889Y-3.5193
X2.5889Y-3.5491
X2.5889Y-3.579
X2.5889Y-3.6088
X2.5889Y-3.6387
X2.5889Y-3.6685
X2.5889Y-3.6984
X2.5889Y-3.7282
X2.5889Y-3.7581
X2.5889Y-3.7879
X2.5889Y-3.8178
X2.5889Y-3.8476
X2.5889Y-3.8775
X2.5889Y-3.9073
X2.5889Y-3.9372
X2.5889Y-3.967
X2.5889Y-3.9969
X2.5889Y-4.0267
X2.5889Y-4.0566
X2.5889Y-4.0864
X2.5889Y-4.1163
X2.5889Y-4.1461
X2.5889Y-4.176
X2.5889Y-4.2058
X2.5889Y-4.2357
X2.5889Y-4.2655
X2.5889Y-4.2954
X2.5889Y-4.3252
X2.5889Y-4.3551
X2.5889Y-4.3849
X2.5889Y-4.4148
X2.5889Y-4.4446
X2.5889Y-4.4745
X2.5889Y-4.5043
X2.5889Y-4.5342
X2.5889Y-4.564
X2.5889Y-4.5939
X2.5889Y-4.6237
X2.5889Y-4.6536
X2.5889Y-4.6834
X2.5889Y-4.7133
X2.5889Y-4.7431
X2.5889Y-4.773
X2.5889Y-4.82
X2.5889Y-4.8525
X2.5889Y-4.8851
X2.5889Y-4.9176
X2.5889Y-4.9502
X2.5889Y-4.9827
X2.5889Y-5.0152
X2.5889Y-5.0478
X2.5889Y-5.0803
X2.5889Y-5.1787
X2.5889Y-5.2158
X2.5889Y-5.2529
X2.5889Y-5.29
X2.5889Y-5.39
X2.5889Y-5.4242
X2.5889Y-5.4584
X2.5889Y-5.4926
X2.5889Y-5.5268
X2.5889Y-5.7
X2.5889Y-5.732
X2.5889Y-5.764
X2.5889Y-5.796
X2.5889Y-5.828
X2.5889Y-5.86
X2.5889Y-5.96
X2.5889Y-5.9908
X2.5889Y-6.0215
X2.5889Y-6.0523
X2.5889Y-6.0831
X2.5889Y-6.1139
X2.589Y-5.3245
X2.589Y-5.359
X2.6086Y-6.2477
X2.6086Y-6.2773
X2.6086Y-6.3069
X2.6086Y-6.3365
X2.6086Y-6.3661
X2.6086Y-6.3958
X2.6086Y-6.4254
X2.6086Y-6.455
X2.6086Y-6.4846
X2.6086Y-6.5142
X2.6086Y-6.5438
X2.6086Y-6.5734
X2.6086Y-6.603
X2.6184Y-3.37
X2.6184Y-3.3999
X2.6184Y-3.4297
X2.6184Y-3.4596
X2.6184Y-3.4894
X2.6184Y-3.5193
X2.6184Y-3.5491
X2.6184Y-3.579
X2.6184Y-3.6088
X2.6184Y-3.6387
X2.6184Y-3.6685
X2.6184Y-3.6984
X2.6184Y-3.7282
X2.6184Y-3.7581
X2.6184Y-3.7879
X2.6184Y-3.8178
X2.6184Y-3.8476
X2.6184Y-3.8775
X2.6184Y-3.9073
X2.6184Y-3.9372
X2.6184Y-3.967
X2.6184Y-3.9969
X2.6184Y-4.0267
X2.6184Y-4.0566
X2.6184Y-4.0864
X2.6184Y-4.1163
X2.6184Y-4.1461
X2.6184Y-4.176
X2.6184Y-4.2058
X2.6184Y-4.2357
X2.6184Y-4.2655
X2.6184Y-4.2954
X2.6184Y-4.3252
X2.6184Y-4.3551
X2.6184Y-4.3849
X2.6184Y-4.4148
X2.6184Y-4.4446
X2.6184Y-4.4745
X2.6184Y-4.5043
X2.6184Y-4.5342
X2.6184Y-4.564
X2.6184Y-4.5939
X2.6184Y-4.6237
X2.6184Y-4.6536
X2.6184Y-4.6834
X2.6184Y-4.7133
X2.6184Y-4.7431
X2.6184Y-4.773
X2.6184Y-4.82
X2.6184Y-4.8525
X2.6184Y-4.8851
X2.6184Y-4.9176
X2.6184Y-4.9502
X2.6184Y-4.9827
X2.6184Y-5.0152
X2.6184Y-5.0478
X2.6184Y-5.0803
X2.6184Y-5.1787
X2.6184Y-5.2158
X2.6184Y-5.2529
X2.6184Y-5.29
X2.6184Y-5.39
X2.6184Y-5.4242
X2.6184Y-5.4584
X2.6184Y-5.4926
X2.6184Y-5.5268
X2.6184Y-5.7
X2.6184Y-5.732
X2.6184Y-5.764
X2.6184Y-5.796
X2.6184Y-5.828
X2.6184Y-5.86
X2.6184Y-5.895
X2.6184Y-5.9275
X2.6184Y-5.96
X2.6184Y-5.9908
X2.6184Y-6.0215
X2.6184Y-6.0523
X2.6184Y-6.0831
X2.6184Y-6.1139
X2.6189Y-5.3245
X2.6189Y-5.359
X2.619Y-5.113
X2.619Y-5.145
X2.6381Y-6.2477
X2.6381Y-6.2773
X2.6381Y-6.3069
X2.6381Y-6.3365
X2.6381Y-6.3661
X2.6381Y-6.3958
X2.6381Y-6.4254
X2.6381Y-6.455
X2.6381Y-6.4846
X2.6381Y-6.5142
X2.6381Y-6.5438
X2.6381Y-6.5734
X2.6381Y-6.603
X2.7304Y-3.5475
X2.7304Y-3.6029
X2.7304Y-3.6584
X2.7304Y-3.7139
X2.7304Y-3.7694
X2.7304Y-3.8249
X2.7304Y-3.8804
X2.7304Y-3.9359
X2.7304Y-3.9914
X2.7304Y-4.0469
X2.7304Y-4.1024
X2.7304Y-4.1579
X2.7304Y-4.2134
X2.7304Y-4.2689
X2.7304Y-4.3244
X2.7304Y-4.3799
X2.7304Y-4.4354
X2.7304Y-4.4909
X2.7304Y-4.5464
X2.7304Y-4.6019
X2.7304Y-4.6574
X2.7304Y-4.7129
X2.7304Y-4.7684
X2.7304Y-4.8239
X2.7304Y-4.8794
X2.7304Y-4.9349
X2.7304Y-4.9904
X2.7304Y-5.0458
X2.7304Y-5.1013
X2.7304Y-5.1568
X2.7304Y-5.2123
X2.7304Y-5.2678
X2.7304Y-5.3233
X2.7304Y-5.3788
X2.7304Y-5.4343
X2.7304Y-5.4898
X2.7304Y-5.5453
X2.7304Y-5.6008
X2.7304Y-5.6563
X2.7304Y-5.7118
X2.7304Y-5.7673
X2.7304Y-5.8228
X2.7304Y-5.8783
X2.7304Y-5.9338
X2.7304Y-6.3223
X2.7304Y-6.3778
X2.7304Y-6.4332
X2.7858Y-3.5475
X2.7858Y-3.6029
X2.7858Y-3.6584
X2.7858Y-3.7139
X2.7858Y-3.7694
X2.7858Y-3.8249
X2.7858Y-3.8804
X2.7858Y-3.9359
X2.7858Y-3.9914
X2.7858Y-4.0469
X2.7858Y-4.1024
X2.7858Y-4.1579
X2.7858Y-4.2134
X2.7858Y-4.2689
X2.7858Y-4.3244
X2.7858Y-4.3799
X2.7858Y-4.4354
X2.7858Y-4.4909
X2.7858Y-4.5464
X2.7858Y-4.6019
X2.7858Y-4.6574
X2.7858Y-4.7129
X2.7858Y-4.7684
X2.7858Y-4.8239
X2.7858Y-4.8794
X2.7858Y-4.9349
X2.7858Y-4.9904
X2.7858Y-5.0458
X2.7858Y-5.1013
X2.7858Y-5.1568
X2.7858Y-5.2123
X2.7858Y-5.2678
X2.7858Y-5.3233
X2.7858Y-5.3788
X2.7858Y-5.4343
X2.7858Y-5.4898
X2.7858Y-5.5453
X2.7858Y-5.6008
X2.7858Y-5.6563
X2.7858Y-5.7118
X2.7858Y-5.7673
X2.7858Y-5.8228
X2.7858Y-5.8783
X2.7858Y-5.9338
X2.7858Y-5.9893
X2.7858Y-6.0448
X2.7858Y-6.1003
X2.7858Y-6.3223
X2.7858Y-6.3778
X2.7858Y-6.4332
X2.8413Y-3.3255
X2.8413Y-3.381
X2.8413Y-3.4365
X2.8413Y-3.492
X2.8413Y-3.5475
X2.8413Y-3.6029
X2.8413Y-3.6584
X2.8413Y-3.7139
X2.8413Y-3.7694
X2.8413Y-3.8249
X2.8413Y-3.8804
X2.8413Y-3.9359
X2.8413Y-3.9914
X2.8413Y-4.0469
X2.8413Y-4.1024
X2.8413Y-4.1579
X2.8413Y-4.2134
X2.8413Y-4.2689
X2.8413Y-4.3244
X2.8413Y-4.3799
X2.8413Y-4.4354
X2.8413Y-4.4909
X2.8413Y-4.5464
X2.8413Y-4.6019
X2.8413Y-4.6574
X2.8413Y-4.7129
X2.8413Y-4.7684
X2.8413Y-4.8239
X2.8413Y-4.8794
X2.8413Y-4.9349
X2.8413Y-4.9904
X2.8413Y-5.0458
X2.8413Y-5.1013
X2.8413Y-5.1568
X2.8413Y-5.2123
X2.8413Y-5.2678
X2.8413Y-5.3233
X2.8413Y-5.3788
X2.8413Y-5.4343
X2.8413Y-5.4898
X2.8413Y-5.5453
X2.8413Y-5.6008
X2.8413Y-5.6563
X2.8413Y-5.7118
X2.8413Y-5.7673
X2.8413Y-5.8228
X2.8413Y-5.8783
X2.8413Y-6.3223
X2.8413Y-6.3778
X2.8413Y-6.4332
X2.8968Y-3.3255
X2.8968Y-3.381
X2.8968Y-3.4365
X2.8968Y-3.492
X2.8968Y-3.5475
X2.8968Y-3.6029
X2.8968Y-3.6584
X2.8968Y-3.7139
X2.8968Y-3.7694
X2.8968Y-3.8249
X2.8968Y-3.8804
X2.8968Y-3.9359
X2.8968Y-3.9914
X2.8968Y-4.0469
X2.8968Y-4.1024
X2.8968Y-4.1579
X2.8968Y-4.2134
X2.8968Y-4.2689
X2.8968Y-4.3244
X2.8968Y-4.3799
X2.8968Y-4.4354
X2.8968Y-4.4909
X2.8968Y-4.5464
X2.8968Y-4.6019
X2.8968Y-4.6574
X2.8968Y-4.7129
X2.8968Y-4.7684
X2.8968Y-4.8239
X2.8968Y-4.8794
X2.8968Y-4.9349
X2.8968Y-4.9904
X2.8968Y-5.0458
X2.8968Y-5.1013
X2.8968Y-5.1568
X2.8968Y-5.2123
X2.8968Y-5.2678
X2.8968Y-5.3233
X2.8968Y-5.3788
X2.8968Y-5.4343
X2.8968Y-5.4898
X2.8968Y-5.5453
X2.8968Y-5.6008
X2.8968Y-5.6563
X2.8968Y-5.7118
X2.8968Y-5.7673
X2.8968Y-5.8228
X2.8968Y-5.8783
X2.8968Y-6.3223
X2.8968Y-6.3778
X2.8968Y-6.4332
X2.8968Y-6.4887
X2.8968Y-6.5442
X2.8968Y-6.5997
X2.9523Y-3.3255
X2.9523Y-3.381
X2.9523Y-3.4365
X2.9523Y-3.492
X2.9523Y-3.5475
X2.9523Y-3.6029
X2.9523Y-3.6584
X2.9523Y-3.7139
X2.9523Y-3.7694
X2.9523Y-3.8249
X2.9523Y-3.8804
X2.9523Y-3.9359
X2.9523Y-3.9914
X2.9523Y-4.0469
X2.9523Y-4.1024
X2.9523Y-4.1579
X2.9523Y-4.2134
X2.9523Y-4.2689
X2.9523Y-4.3244
X2.9523Y-4.3799
X2.9523Y-4.4354
X2.9523Y-4.4909
X2.9523Y-4.5464
X2.9523Y-4.6019
X2.9523Y-4.6574
X2.9523Y-4.7129
X2.9523Y-4.7684
X2.9523Y-4.8239
X2.9523Y-4.8794
X2.9523Y-4.9349
X2.9523Y-4.9904
X2.9523Y-5.0458
X2.9523Y-5.1013
X2.9523Y-5.1568
X2.9523Y-5.2123
X2.9523Y-5.2678
X2.9523Y-5.3233
X2.9523Y-5.3788
X2.9523Y-5.4343
X2.9523Y-5.4898
X2.9523Y-5.5453
X2.9523Y-5.6008
X2.9523Y-5.6563
X2.9523Y-5.7118
X2.9523Y-5.7673
X2.9523Y-5.8228
X2.9523Y-5.8783
X2.9523Y-5.9338
X2.9523Y-6.3223
X2.9523Y-6.3778
X2.9523Y-6.4332
X2.9523Y-6.4887
X2.9523Y-6.5442
X2.9523Y-6.5997
X3.0078Y-3.3255
X3.0078Y-3.381
X3.0078Y-3.4365
X3.0078Y-3.492
X3.0078Y-3.5475
X3.0078Y-3.6029
X3.0078Y-3.6584
X3.0078Y-3.7139
X3.0078Y-3.7694
X3.0078Y-3.8249
X3.0078Y-3.8804
X3.0078Y-3.9359
X3.0078Y-3.9914
X3.0078Y-4.0469
X3.0078Y-4.1024
X3.0078Y-4.1579
X3.0078Y-4.2134
X3.0078Y-4.2689
X3.0078Y-4.3244
X3.0078Y-4.3799
X3.0078Y-4.4354
X3.0078Y-4.4909
X3.0078Y-4.5464
X3.0078Y-4.6019
X3.0078Y-4.6574
X3.0078Y-4.7129
X3.0078Y-4.7684
X3.0078Y-4.8239
X3.0078Y-4.8794
X3.0078Y-4.9349
X3.0078Y-4.9904
X3.0078Y-5.0458
X3.0078Y-5.1013
X3.0078Y-5.1568
X3.0078Y-5.2123
X3.0078Y-5.2678
X3.0078Y-5.3233
X3.0078Y-5.3788
X3.0078Y-5.4343
X3.0078Y-5.4898
X3.0078Y-5.5453
X3.0078Y-5.6008
X3.0078Y-5.6563
X3.0078Y-5.7118
X3.0078Y-5.7673
X3.0078Y-5.8228
X3.0078Y-5.8783
X3.0078Y-5.9338
X3.0078Y-5.9893
X3.0078Y-6.0448
X3.0078Y-6.1003
X3.0078Y-6.1558
X3.0078Y-6.2113
X3.0078Y-6.2668
X3.0078Y-6.3223
X3.0078Y-6.3778
X3.0078Y-6.4332
X3.0078Y-6.4887
X3.0078Y-6.5442
X3.0078Y-6.5997
X3.0633Y-3.3255
X3.0633Y-3.381
X3.0633Y-3.4365
X3.0633Y-3.492
X3.0633Y-3.5475
X3.0633Y-3.6029
X3.0633Y-3.6584
X3.0633Y-3.7139
X3.0633Y-3.7694
X3.0633Y-3.8249
X3.0633Y-3.8804
X3.0633Y-3.9359
X3.0633Y-3.9914
X3.0633Y-4.0469
X3.0633Y-4.1024
X3.0633Y-4.1579
X3.0633Y-4.2134
X3.0633Y-4.2689
X3.0633Y-4.3244
X3.0633Y-4.3799
X3.0633Y-4.4354
X3.0633Y-4.4909
X3.0633Y-4.5464
X3.0633Y-4.6019
X3.0633Y-4.6574
X3.0633Y-4.7129
X3.0633Y-4.7684
X3.0633Y-4.8239
X3.0633Y-4.8794
X3.0633Y-4.9349
X3.0633Y-4.9904
X3.0633Y-5.0458
X3.0633Y-5.1013
X3.0633Y-5.1568
X3.0633Y-5.2123
X3.0633Y-5.2678
X3.0633Y-5.3233
X3.0633Y-5.3788
X3.0633Y-5.4343
X3.0633Y-5.4898
X3.0633Y-5.5453
X3.0633Y-5.6008
X3.0633Y-5.6563
X3.0633Y-5.7118
X3.0633Y-5.7673
X3.0633Y-5.8228
X3.0633Y-5.8783
X3.0633Y-5.9338
X3.0633Y-5.9893
X3.0633Y-6.0448
X3.0633Y-6.1003
X3.0633Y-6.1558
X3.0633Y-6.2113
X3.0633Y-6.2668
X3.0633Y-6.3223
X3.0633Y-6.3778
X3.0633Y-6.4332
X3.0633Y-6.4887
X3.0633Y-6.5442
X3.0633Y-6.5997
X3.1188Y-3.3255
X3.1188Y-3.381
X3.1188Y-3.4365
X3.1188Y-3.492
X3.1188Y-3.5475
X3.1188Y-3.6029
X3.1188Y-3.6584
X3.1188Y-3.7139
X3.1188Y-3.7694
X3.1188Y-3.8249
X3.1188Y-3.8804
X3.1188Y-3.9359
X3.1188Y-3.9914
X3.1188Y-4.0469
X3.1188Y-4.1024
X3.1188Y-4.1579
X3.1188Y-4.2134
X3.1188Y-4.2689
X3.1188Y-4.3244
X3.1188Y-4.3799
X3.1188Y-4.4354
X3.1188Y-4.4909
X3.1188Y-4.5464
X3.1188Y-4.6019
X3.1188Y-4.6574
X3.1188Y-4.7129
X3.1188Y-4.7684
X3.1188Y-4.8239
X3.1188Y-4.8794
X3.1188Y-4.9349
X3.1188Y-4.9904
X3.1188Y-5.0458
X3.1188Y-5.1013
X3.1188Y-5.1568
X3.1188Y-5.2123
X3.1188Y-5.2678
X3.1188Y-5.3233
X3.1188Y-5.3788
X3.1188Y-5.4343
X3.1188Y-5.4898
X3.1188Y-5.5453
X3.1188Y-5.6008
X3.1188Y-5.6563
X3.1188Y-5.7118
X3.1188Y-5.7673
X3.1188Y-5.8228
X3.1188Y-5.8783
X3.1188Y-5.9338
X3.1188Y-5.9893
X3.1188Y-6.0448
X3.1188Y-6.1003
X3.1188Y-6.1558
X3.1188Y-6.2113
X3.1188Y-6.2668
X3.1188Y-6.3223
X3.1188Y-6.3778
X3.1188Y-6.4332
X3.1188Y-6.4887
X3.1188Y-6.5442
X3.1188Y-6.5997
X3.1743Y-3.3255
X3.1743Y-3.381
X3.1743Y-3.4365
X3.1743Y-3.492
X3.1743Y-3.5475
X3.1743Y-3.6029
X3.1743Y-3.6584
X3.1743Y-3.7139
X3.1743Y-3.7694
X3.1743Y-3.8249
X3.1743Y-3.8804
X3.1743Y-3.9359
X3.1743Y-3.9914
X3.1743Y-4.0469
X3.1743Y-4.1024
X3.1743Y-4.1579
X3.1743Y-4.2134
X3.1743Y-4.2689
X3.1743Y-4.3244
X3.1743Y-4.3799
X3.1743Y-4.4354
X3.1743Y-4.4909
X3.1743Y-4.5464
X3.1743Y-4.6019
X3.1743Y-4.6574
X3.1743Y-4.7129
X3.1743Y-4.7684
X3.1743Y-4.8239
X3.1743Y-4.8794
X3.1743Y-4.9349
X3.1743Y-4.9904
X3.1743Y-5.0458
X3.1743Y-5.1013
X3.1743Y-5.1568
X3.1743Y-5.2123
X3.1743Y-5.2678
X3.1743Y-5.3233
X3.1743Y-5.3788
X3.1743Y-5.4343
X3.1743Y-5.4898
X3.1743Y-5.5453
X3.1743Y-5.6008
X3.1743Y-5.6563
X3.1743Y-5.7118
X3.1743Y-5.7673
X3.1743Y-5.8228
X3.1743Y-5.8783
X3.1743Y-5.9338
X3.1743Y-5.9893
X3.1743Y-6.0448
X3.1743Y-6.1003
X3.1743Y-6.1558
X3.1743Y-6.2113
X3.1743Y-6.2668
X3.1743Y-6.3223
X3.1743Y-6.3778
X3.1743Y-6.4332
X3.1743Y-6.4887
X3.1743Y-6.5442
X3.1743Y-6.5997
X3.2298Y-3.3255
X3.2298Y-3.381
X3.2298Y-3.4365
X3.2298Y-3.492
X3.2298Y-3.5475
X3.2298Y-3.6029
X3.2298Y-3.6584
X3.2298Y-3.7139
X3.2298Y-3.7694
X3.2298Y-3.8249
X3.2298Y-3.8804
X3.2298Y-3.9359
X3.2298Y-3.9914
X3.2298Y-4.0469
X3.2298Y-4.1024
X3.2298Y-4.1579
X3.2298Y-4.2134
X3.2298Y-4.6019
X3.2298Y-4.6574
X3.2298Y-4.7129
X3.2298Y-4.7684
X3.2298Y-4.8239
X3.2298Y-4.8794
X3.2298Y-4.9349
X3.2298Y-4.9904
X3.2298Y-5.0458
X3.2298Y-5.1013
X3.2298Y-5.1568
X3.2298Y-5.2123
X3.2298Y-5.2678
X3.2298Y-5.3233
X3.2298Y-5.3788
X3.2298Y-5.4343
X3.2298Y-5.4898
X3.2298Y-5.5453
X3.2298Y-5.6008
X3.2298Y-5.6563
X3.2298Y-5.7118
X3.2298Y-5.7673
X3.2298Y-5.8228
X3.2298Y-5.8783
X3.2298Y-5.9338
X3.2298Y-5.9893
X3.2298Y-6.0448
X3.2298Y-6.1003
X3.2298Y-6.1558
X3.2298Y-6.2113
X3.2298Y-6.2668
X3.2298Y-6.3223
X3.2298Y-6.3778
X3.2298Y-6.4332
X3.2298Y-6.4887
X3.2298Y-6.5442
X3.2298Y-6.5997
X3.2853Y-3.3255
X3.2853Y-3.381
X3.2853Y-3.4365
X3.2853Y-3.492
X3.2853Y-3.5475
X3.2853Y-3.6029
X3.2853Y-3.6584
X3.2853Y-3.7139
X3.2853Y-3.7694
X3.2853Y-3.8249
X3.2853Y-3.8804
X3.2853Y-3.9359
X3.2853Y-3.9914
X3.2853Y-4.0469
X3.2853Y-4.1024
X3.2853Y-4.1579
X3.2853Y-4.6019
X3.2853Y-4.6574
X3.2853Y-4.7129
X3.2853Y-4.7684
X3.2853Y-4.8239
X3.2853Y-4.8794
X3.2853Y-4.9349
X3.2853Y-4.9904
X3.2853Y-5.0458
X3.2853Y-5.1013
X3.2853Y-5.1568
X3.2853Y-5.2123
X3.2853Y-5.2678
X3.2853Y-5.3233
X3.2853Y-5.3788
X3.2853Y-5.4343
X3.2853Y-5.4898
X3.2853Y-5.5453
X3.2853Y-5.6008
X3.2853Y-5.6563
X3.2853Y-5.7118
X3.2853Y-5.7673
X3.2853Y-5.8228
X3.2853Y-5.8783
X3.2853Y-5.9338
X3.2853Y-5.9893
X3.2853Y-6.0448
X3.2853Y-6.1003
X3.2853Y-6.1558
X3.2853Y-6.2113
X3.2853Y-6.2668
X3.2853Y-6.3223
X3.2853Y-6.3778
X3.2853Y-6.4332
X3.2853Y-6.4887
X3.2853Y-6.5442
X3.2853Y-6.5997
X3.3408Y-3.3255
X3.3408Y-3.381
X3.3408Y-3.4365
X3.3408Y-3.492
X3.3408Y-3.5475
X3.3408Y-3.6029
X3.3408Y-3.6584
X3.3408Y-3.7139
X3.3408Y-3.7694
X3.3408Y-3.8249
X3.3408Y-3.8804
X3.3408Y-3.9359
X3.3408Y-3.9914
X3.3408Y-4.0469
X3.3408Y-4.1024
X3.3408Y-4.3799
X3.3408Y-4.4354
X3.3408Y-4.4909
X3.3408Y-4.5464
X3.3408Y-4.6019
X3.3408Y-4.6574
X3.3408Y-4.7129
X3.3408Y-4.7684
X3.3408Y-4.8239
X3.3408Y-4.8794
X3.3408Y-4.9349
X3.3408Y-4.9904
X3.3408Y-5.0458
X3.3408Y-5.1013
X3.3408Y-5.1568
X3.3408Y-5.2123
X3.3408Y-5.2678
X3.3408Y-5.3233
X3.3408Y-5.3788
X3.3408Y-5.4343
X3.3408Y-5.4898
X3.3408Y-5.5453
X3.3408Y-5.6008
X3.3408Y-5.6563
X3.3408Y-5.7118
X3.3408Y-5.7673
X3.3408Y-5.8228
X3.3408Y-5.8783
X3.3408Y-5.9338
X3.3408Y-5.9893
X3.3408Y-6.0448
X3.3408Y-6.1003
X3.3408Y-6.1558
X3.3408Y-6.2113
X3.3408Y-6.2668
X3.3408Y-6.3223
X3.3408Y-6.3778
X3.3408Y-6.4332
X3.3963Y-3.3255
X3.3963Y-3.381
X3.3963Y-3.4365
X3.3963Y-3.492
X3.3963Y-3.5475
X3.3963Y-3.6029
X3.3963Y-3.6584
X3.3963Y-3.7139
X3.3963Y-3.7694
X3.3963Y-3.8249
X3.3963Y-3.8804
X3.3963Y-3.9359
X3.3963Y-3.9914
X3.3963Y-4.0469
X3.3963Y-4.3799
X3.3963Y-4.4354
X3.3963Y-4.4909
X3.3963Y-4.5464
X3.3963Y-4.6019
X3.3963Y-4.6574
X3.3963Y-4.7129
X3.3963Y-4.7684
X3.3963Y-4.8239
X3.3963Y-4.8794
X3.3963Y-4.9349
X3.3963Y-4.9904
X3.3963Y-5.0458
X3.3963Y-5.1013
X3.3963Y-5.1568
X3.3963Y-5.2123
X3.3963Y-5.2678
X3.3963Y-5.3233
X3.3963Y-5.3788
X3.3963Y-5.4343
X3.3963Y-5.4898
X3.3963Y-5.5453
X3.3963Y-5.6008
X3.3963Y-5.6563
X3.3963Y-5.7118
X3.3963Y-5.7673
X3.3963Y-5.8228
X3.3963Y-5.8783
X3.3963Y-5.9338
X3.3963Y-5.9893
X3.3963Y-6.0448
X3.3963Y-6.1003
X3.3963Y-6.1558
X3.3963Y-6.2113
X3.3963Y-6.2668
X3.3963Y-6.3223
X3.3963Y-6.3778
X3.3963Y-6.4332
X3.4518Y-3.3255
X3.4518Y-3.381
X3.4518Y-3.4365
X3.4518Y-3.492
X3.4518Y-3.5475
X3.4518Y-3.6029
X3.4518Y-3.6584
X3.4518Y-3.7139
X3.4518Y-3.7694
X3.4518Y-3.8249
X3.4518Y-3.8804
X3.4518Y-3.9359
X3.4518Y-3.9914
X3.4518Y-4.4354
X3.4518Y-4.4909
X3.4518Y-4.5464
X3.4518Y-4.6019
X3.4518Y-4.6574
X3.4518Y-4.7129
X3.4518Y-5.2123
X3.4518Y-5.2678
X3.4518Y-5.3233
X3.4518Y-5.3788
X3.4518Y-5.4343
X3.4518Y-5.4898
X3.4518Y-5.5453
X3.4518Y-5.6008
X3.4518Y-5.6563
X3.4518Y-5.7118
X3.4518Y-5.7673
X3.4518Y-5.8228
X3.4518Y-5.8783
X3.4518Y-5.9338
X3.4518Y-5.9893
X3.4518Y-6.0448
X3.4518Y-6.1003
X3.4518Y-6.1558
X3.4518Y-6.2113
X3.4518Y-6.2668
X3.4518Y-6.3223
X3.4518Y-6.3778
X3.4518Y-6.4332
X3.5073Y-3.3255
X3.5073Y-3.381
X3.5073Y-3.4365
X3.5073Y-3.492
X3.5073Y-3.5475
X3.5073Y-3.6029
X3.5073Y-3.6584
X3.5073Y-3.7139
X3.5073Y-3.7694
X3.5073Y-3.8249
X3.5073Y-3.8804
X3.5073Y-3.9359
X3.5073Y-3.9914
X3.5073Y-4.2134
X3.5073Y-4.4354
X3.5073Y-4.4909
X3.5073Y-4.5464
X3.5073Y-4.6019
X3.5073Y-4.6574
X3.5073Y-4.7129
X3.5073Y-5.2123
X3.5073Y-5.2678
X3.5073Y-5.3233
X3.5073Y-5.3788
X3.5073Y-5.4343
X3.5073Y-5.4898
X3.5073Y-5.5453
X3.544Y-6.0654
X3.544Y-6.0952
X3.544Y-5.7463
X3.544Y-5.7773
X3.544Y-5.8082
X3.544Y-5.8392
X3.544Y-5.8701
X3.544Y-5.9011
X3.544Y-5.9321
X3.544Y-5.963
X3.544Y-5.994
X3.544Y-6.126
X3.544Y-6.1559
X3.544Y-6.1857
X3.544Y-6.2155
X3.544Y-6.2453
X3.544Y-6.2751
X3.544Y-6.3049
X3.544Y-6.3347
X3.544Y-6.3645
X3.544Y-6.3943
X3.544Y-6.4241
X3.544Y-6.454
X3.544Y-6.4838
X3.544Y-6.5136
X3.544Y-6.5434
X3.544Y-6.5732
X3.544Y-6.603
X3.546Y-5.7123
X3.5515Y-5.6811
X3.5603Y-5.6507
X3.5628Y-3.3255
X3.5628Y-3.381
X3.5628Y-3.4365
X3.5628Y-3.492
X3.5628Y-3.5475
X3.5628Y-3.6029
X3.5628Y-3.6584
X3.5628Y-3.7139
X3.5628Y-3.7694
X3.5628Y-3.8249
X3.5628Y-3.8804
X3.5628Y-3.9359
X3.5628Y-3.9914
X3.5628Y-4.4909
X3.5628Y-4.5464
X3.5628Y-4.6019
X3.5628Y-4.6574
X3.5628Y-4.7129
X3.5628Y-5.2123
X3.5628Y-5.2678
X3.5628Y-5.3233
X3.5628Y-5.3788
X3.5628Y-5.4343
X3.5724Y-5.6215
X3.573Y-6.0653
X3.5734Y-6.0953
X3.5735Y-5.7773
X3.5735Y-5.8082
X3.5735Y-5.8392
X3.5735Y-5.8701
X3.5735Y-5.9011
X3.5735Y-5.9321
X3.5735Y-5.963
X3.5735Y-5.994
X3.5735Y-6.126
X3.5735Y-6.1559
X3.5735Y-6.1857
X3.5735Y-6.2155
X3.5735Y-6.2453
X3.5735Y-6.2751
X3.5735Y-6.3049
X3.5735Y-6.3347
X3.5735Y-6.3645
X3.5735Y-6.3943
X3.5735Y-6.4241
X3.5735Y-6.454
X3.5735Y-6.4838
X3.5735Y-6.5136
X3.5735Y-6.5434
X3.5735Y-6.5732
X3.5735Y-6.603
X3.5735Y-5.7446
X3.5759Y-5.7114
X3.5825Y-5.6788
X3.5877Y-5.5937
X3.5932Y-5.6472
X3.603Y-5.7773
X3.603Y-5.8082
X3.603Y-5.8392
X3.603Y-5.8701
X3.603Y-5.9011
X3.603Y-5.9321
X3.603Y-5.963
X3.603Y-5.994
X3.603Y-6.126
X3.603Y-6.1559
X3.603Y-6.1857
X3.603Y-6.2155
X3.603Y-6.2453
X3.603Y-6.2751
X3.603Y-6.3049
X3.603Y-6.3347
X3.603Y-6.3645
X3.603Y-6.3943
X3.603Y-6.4241
X3.603Y-6.454
X3.603Y-6.4838
X3.603Y-6.5136
X3.603Y-6.5434
X3.603Y-6.5732
X3.603Y-6.603
X3.603Y-5.7454
X3.6034Y-6.0653
X3.6034Y-6.0952
X3.6059Y-5.5678
X3.6076Y-5.7007
X3.608Y-5.6174
X3.6166Y-5.6686
X3.6183Y-3.3255
X3.6183Y-3.381
X3.6183Y-3.4365
X3.6183Y-3.492
X3.6183Y-3.5475
X3.6183Y-3.6029
X3.6183Y-3.6584
X3.6183Y-3.7139
X3.6183Y-3.7694
X3.6183Y-3.8249
X3.6183Y-3.8804
X3.6183Y-3.9359
X3.6183Y-3.9914
X3.6183Y-4.5464
X3.6183Y-4.6019
X3.6183Y-4.6574
X3.6183Y-4.7129
X3.6183Y-5.2123
X3.6183Y-5.2678
X3.6183Y-5.3233
X3.6183Y-5.3788
X3.6264Y-5.5896
X3.6285Y-5.5423
X3.63Y-4.32
X3.6301Y-5.6382
X3.6479Y-5.6101
X3.6482Y-5.5644
X3.6496Y-5.5212
X3.6696Y-5.5848
X3.6704Y-5.5421
X3.6706Y-5.5002
X3.6738Y-3.5475
X3.6738Y-3.6029
X3.6738Y-3.6584
X3.6738Y-3.7139
X3.6738Y-3.7694
X3.6738Y-3.8249
X3.6738Y-3.8804
X3.6738Y-3.9359
X3.6738Y-3.9914
X3.6738Y-4.6019
X3.6738Y-4.6574
X3.6738Y-4.7129
X3.6738Y-5.2123
X3.6738Y-5.2678
X3.6738Y-5.3233
X3.6818Y-5.7473
X3.6818Y-5.7773
X3.6818Y-5.8082
X3.6818Y-5.8392
X3.6818Y-5.8701
X3.6818Y-5.9011
X3.6818Y-5.9321
X3.6818Y-5.963
X3.6818Y-5.994
X3.6818Y-6.126
X3.6818Y-6.1559
X3.6818Y-6.1857
X3.6818Y-6.2155
X3.6818Y-6.2453
X3.6818Y-6.2751
X3.6818Y-6.3049
X3.6818Y-6.3347
X3.6818Y-6.3645
X3.6818Y-6.3943
X3.6818Y-6.4241
X3.6818Y-6.454
X3.6818Y-6.4838
X3.6818Y-6.5136
X3.6818Y-6.5434
X3.6818Y-6.5732
X3.6818Y-6.603
X3.6822Y-6.0653
X3.6822Y-6.0952
X3.6846Y-5.7174
X3.6913Y-5.563
X3.6915Y-5.521
X3.6917Y-5.4791
X3.6933Y-5.6887
X3.7075Y-5.6622
X3.7113Y-5.7463
X3.7113Y-5.7773
X3.7113Y-5.8082
X3.7113Y-5.8392
X3.7113Y-5.8701
X3.7113Y-5.9011
X3.7113Y-5.9321
X3.7113Y-5.963
X3.7113Y-5.994
X3.7113Y-6.126
X3.7113Y-6.1559
X3.7113Y-6.1857
X3.7113Y-6.2155
X3.7113Y-6.2453
X3.7113Y-6.2751
X3.7113Y-6.3049
X3.7113Y-6.3347
X3.7113Y-6.3645
X3.7113Y-6.3943
X3.7113Y-6.4241
X3.7113Y-6.454
X3.7113Y-6.4838
X3.7113Y-6.5136
X3.7113Y-6.5434
X3.7113Y-6.5732
X3.7113Y-6.603
X3.7118Y-6.0654
X3.7118Y-6.0952
X3.7124Y-5.5419
X3.7126Y-5.5
X3.7128Y-5.458
X3.7153Y-5.7155
X3.7266Y-5.6391
X3.7279Y-5.6853
X3.7293Y-3.5475
X3.7293Y-3.6029
X3.7293Y-3.6584
X3.7293Y-3.7139
X3.7293Y-3.7694
X3.7293Y-3.8249
X3.7293Y-3.8804
X3.7293Y-3.9359
X3.7293Y-3.9914
X3.7293Y-4.6574
X3.7293Y-4.7129
X3.7293Y-5.2123
X3.7293Y-5.2678
X3.7293Y-5.3233
X3.73Y-4.41
X3.7335Y-5.5208
X3.7337Y-5.4789
X3.7339Y-5.4369
X3.7408Y-6.0653
X3.7408Y-6.0951
X3.7408Y-5.7463
X3.7408Y-5.7773
X3.7408Y-5.8082
X3.7408Y-5.8392
X3.7408Y-5.8701
X3.7408Y-5.9011
X3.7408Y-5.9321
X3.7408Y-5.963
X3.7408Y-5.994
X3.7408Y-6.126
X3.7408Y-6.1559
X3.7408Y-6.1857
X3.7408Y-6.2155
X3.7408Y-6.2453
X3.7408Y-6.2751
X3.7408Y-6.3049
X3.7408Y-6.3347
X3.7408Y-6.3645
X3.7408Y-6.3943
X3.7408Y-6.4241
X3.7408Y-6.454
X3.7408Y-6.4838
X3.7408Y-6.5136
X3.7408Y-6.5434
X3.7408Y-6.5732
X3.7408Y-6.603
X3.747Y-5.6187
X3.7478Y-5.7113
X3.748Y-5.6594
X3.7546Y-5.4997
X3.7548Y-5.4578
X3.755Y-5.4158
X3.7677Y-5.6815
X3.7679Y-5.6396
X3.7681Y-5.5976
X3.7757Y-5.4787
X3.7759Y-5.4367
X3.7761Y-5.3947
X3.7848Y-3.5475
X3.7848Y-3.6029
X3.7848Y-3.6584
X3.7848Y-3.7139
X3.7848Y-3.7694
X3.7848Y-3.8249
X3.7848Y-3.8804
X3.7848Y-3.9359
X3.7848Y-3.9914
X3.7848Y-4.7129
X3.7848Y-5.2123
X3.7888Y-5.6604
X3.789Y-5.6185
X3.7892Y-5.5765
X3.7967Y-5.4576
X3.7969Y-5.4156
X3.7971Y-5.3737
X3.8098Y-5.6394
X3.81Y-5.5974
X3.8103Y-5.5554
X3.8178Y-5.4365
X3.818Y-5.3945
X3.8182Y-5.3526
X3.8309Y-5.6183
X3.8311Y-5.5763
X3.8313Y-5.5343
X3.8389Y-5.4154
X3.8391Y-5.3735
X3.8393Y-5.3315
X3.8403Y-3.5475
X3.8403Y-3.6029
X3.8403Y-3.6584
X3.8403Y-3.7139
X3.8403Y-3.7694
X3.8403Y-3.8249
X3.8403Y-3.8804
X3.8403Y-3.9359
X3.8403Y-3.9914
X3.8403Y-5.7673
X3.8403Y-5.8228
X3.8403Y-5.8783
X3.8403Y-6.1003
X3.8403Y-6.1558
X3.8403Y-6.2113
X3.8403Y-6.2668
X3.8403Y-6.3223
X3.8403Y-6.3778
X3.8403Y-6.4332
X3.852Y-5.5972
X3.8522Y-5.5552
X3.8524Y-5.5133
X3.86Y-5.3943
X3.8602Y-5.3524
X3.8604Y-5.3104
X3.8731Y-5.5761
X3.8733Y-5.5341
X3.8735Y-5.4922
X3.8811Y-5.3733
X3.8813Y-5.3313
X3.8815Y-5.2893
X3.8942Y-5.555
X3.8944Y-5.5131
X3.8946Y-5.4711
X3.895Y-4.485
X3.8958Y-3.8249
X3.8958Y-3.8804
X3.8958Y-3.9359
X3.8958Y-3.9914
X3.8958Y-5.7118
X3.8958Y-6.1003
X3.8958Y-6.1558
X3.8958Y-6.2113
X3.8958Y-6.2668
X3.8958Y-6.3223
X3.8958Y-6.3778
X3.8958Y-6.4332
X3.896Y-3.3485
X3.896Y-3.3797
X3.896Y-3.4108
X3.896Y-3.442
X3.9022Y-5.3522
X3.9024Y-5.3102
X3.9026Y-5.2682
X3.9153Y-5.5339
X3.9155Y-5.492
X3.9157Y-5.45
X3.922Y-3.3645
X3.922Y-3.3957
X3.922Y-3.4268
X3.922Y-3.458
X3.9232Y-5.3311
X3.9234Y-5.2891
X3.9236Y-5.2472
X3.9363Y-5.5129
X3.9365Y-5.4709
X3.9367Y-5.4289
X3.9443Y-5.31
X3.9445Y-5.268
X3.9447Y-5.2261
X3.948Y-3.38
X3.948Y-3.4112
X3.948Y-3.4423
X3.948Y-3.4735
X3.948Y-3.5046
X3.948Y-3.5358
X3.948Y-3.5669
X3.948Y-3.5981
X3.948Y-3.6302
X3.9496Y-3.6617
X3.9513Y-3.9359
X3.9513Y-3.9914
X3.9513Y-5.6563
X3.9513Y-5.7118
X3.9513Y-6.1003
X3.9513Y-6.1558
X3.9513Y-6.2113
X3.9513Y-6.2668
X3.9513Y-6.3223
X3.9513Y-6.3778
X3.9513Y-6.4332
X3.9543Y-3.693
X3.9574Y-5.4918
X3.9576Y-5.4498
X3.9578Y-5.4078
X3.962Y-3.7236
X3.9654Y-5.2889
X3.9656Y-5.247
X3.9702Y-5.2035
X3.9727Y-3.7534
X3.9785Y-5.4707
X3.9787Y-5.4287
X3.9789Y-5.3868
X3.9862Y-3.782
X3.9872Y-5.2672
X3.992Y-5.224
X3.9961Y-5.1853
X3.9996Y-5.4496
X3.9998Y-5.4076
X4.0Y-5.3657
X4.0024Y-3.8091
X4.0068Y-3.9914
X4.0068Y-4.2689
X4.0068Y-4.3244
X4.0068Y-4.3799
X4.0068Y-5.6008
X4.0068Y-5.6563
X4.0068Y-5.7118
X4.0068Y-6.1003
X4.0068Y-6.1558
X4.0068Y-6.2113
X4.0068Y-6.2668
X4.0068Y-6.3223
X4.0068Y-6.3778
X4.0068Y-6.4332
X4.0068Y-6.4887
X4.0068Y-6.5442
X4.0068Y-6.5997
X4.0127Y-5.2453
X4.0198Y-5.2056
X4.0207Y-5.4285
X4.0209Y-5.3866
X4.0211Y-5.3446
X4.0212Y-3.8345
X4.0239Y-5.17
X4.0267Y-3.6282
X4.0267Y-3.38
X4.0267Y-3.4112
X4.0267Y-3.4423
X4.0267Y-3.4735
X4.0267Y-3.5046
X4.0267Y-3.5358
X4.0267Y-3.5669
X4.0267Y-3.5981
X4.0288Y-3.6606
X4.0351Y-3.6925
X4.0412Y-5.2274
X4.0415Y-5.3242
X4.0418Y-5.4074
X4.042Y-5.3655
X4.0423Y-3.858
X4.0454Y-3.7233
X4.0496Y-5.1908
X4.05Y-4.57
X4.0531Y-5.1579
X4.054Y-3.3625
X4.054Y-3.3937
X4.054Y-3.4248
X4.054Y-3.456
X4.0598Y-3.7523
X4.0623Y-4.2689
X4.0623Y-4.3244
X4.0623Y-4.3799
X4.0623Y-4.4354
X4.0623Y-5.5453
X4.0623Y-5.6008
X4.0623Y-5.6563
X4.0623Y-5.7118
X4.0623Y-6.1003
X4.0623Y-6.1558
X4.0623Y-6.2113
X4.0623Y-6.2668
X4.0623Y-6.3223
X4.0623Y-6.3778
X4.0623Y-6.4332
X4.0623Y-6.4887
X4.0623Y-6.5442
X4.0623Y-6.5997
X4.0628Y-5.3864
X4.063Y-5.3444
X4.0646Y-5.3051
X4.0651Y-3.8808
X4.072Y-5.2139
X4.0779Y-3.7793
X4.08Y-3.3465
X4.08Y-3.3777
X4.08Y-3.4088
X4.08Y-3.44
X4.0812Y-5.1801
X4.0835Y-5.1491
X4.0839Y-5.3653
X4.0873Y-3.903
X4.0877Y-5.3255
X4.0911Y-5.2909
X4.0994Y-3.8037
X4.1044Y-5.205
X4.1094Y-3.9251
X4.11Y-4.91
X4.1137Y-5.3454
X4.1138Y-5.1735
X4.1147Y-5.1436
X4.1178Y-3.5475
X4.1178Y-4.1579
X4.1178Y-4.2134
X4.1178Y-4.2689
X4.1178Y-5.4898
X4.1178Y-5.5453
X4.1178Y-5.6008
X4.1178Y-5.6563
X4.1178Y-5.7118
X4.1178Y-6.1003
X4.1178Y-6.1558
X4.1178Y-6.2113
X4.1178Y-6.2668
X4.1178Y-6.3223
X4.1178Y-6.3778
X4.1178Y-6.4332
X4.1178Y-6.4887
X4.1178Y-6.5442
X4.1178Y-6.5997
X4.1179Y-5.3129
X4.1198Y-5.2822
X4.1208Y-3.8251
X4.13Y-4.5141
X4.1315Y-3.9472
X4.1378Y-5.2009
X4.143Y-3.8473
X4.1463Y-5.1416
X4.147Y-5.1711
X4.1497Y-5.2794
X4.1504Y-5.3089
X4.1512Y-5.3384
X4.1537Y-3.9694
X4.1651Y-3.8694
X4.1732Y-3.5475
X4.1732Y-3.6029
X4.1732Y-3.6584
X4.1732Y-3.7139
X4.1732Y-4.1579
X4.1732Y-4.2134
X4.1732Y-4.2689
X4.1732Y-5.4343
X4.1732Y-5.4898
X4.1732Y-5.5453
X4.1732Y-5.6008
X4.1732Y-5.6563
X4.1732Y-5.7118
X4.1732Y-6.1003
X4.1732Y-6.1558
X4.1732Y-6.2113
X4.1732Y-6.2668
X4.1732Y-6.3223
X4.1732Y-6.3778
X4.1732Y-6.4332
X4.1758Y-3.9915
X4.1794Y-5.1416
X4.1794Y-5.1711
X4.1794Y-5.2006
X4.1794Y-5.2794
X4.1794Y-5.3089
X4.1794Y-5.3384
X4.1872Y-3.8915
X4.198Y-4.0136
X4.2077Y-5.1416
X4.2085Y-5.1711
X4.2092Y-5.2006
X4.2094Y-3.9137
X4.2111Y-5.2794
X4.2118Y-5.3089
X4.2126Y-5.3384
X4.2201Y-4.0358
X4.2287Y-3.5475
X4.2287Y-3.6029
X4.2287Y-3.6584
X4.2287Y-3.7139
X4.2287Y-3.7694
X4.2287Y-4.1579
X4.2287Y-5.4343
X4.2287Y-5.4898
X4.2287Y-5.5453
X4.2287Y-5.6008
X4.2287Y-5.6563
X4.2287Y-5.7118
X4.2287Y-6.1003
X4.2287Y-6.1558
X4.2287Y-6.2113
X4.2287Y-6.2668
X4.2287Y-6.3223
X4.2287Y-6.3778
X4.2287Y-6.4332
X4.2315Y-3.9358
X4.2391Y-5.1978
X4.24Y-4.052
X4.241Y-5.1671
X4.2442Y-5.3364
X4.2452Y-5.1346
X4.2488Y-5.306
X4.2536Y-3.958
X4.2544Y-5.2751
X4.2548Y-4.9052
X4.2678Y-5.1891
X4.2712Y-5.1545
X4.2753Y-5.3309
X4.2758Y-3.9801
X4.2773Y-4.8827
X4.2842Y-3.5475
X4.2842Y-3.6029
X4.2842Y-3.6584
X4.2842Y-3.7139
X4.2842Y-3.7694
X4.2842Y-3.8249
X4.2842Y-5.8783
X4.2842Y-6.1003
X4.2842Y-6.1558
X4.2842Y-6.2113
X4.2842Y-6.2668
X4.2842Y-6.3223
X4.2842Y-6.3778
X4.2842Y-6.4332
X4.285Y-5.2978
X4.2869Y-5.2662
X4.2943Y-5.1749
X4.2971Y-5.1344
X4.2979Y-4.0022
X4.2998Y-4.8601
X4.305Y-5.55
X4.305Y-5.675
X4.305Y-5.71
X4.3058Y-5.3221
X4.308Y-4.1236
X4.31Y-5.515
X4.31Y-5.585
X4.31Y-5.74
X4.3145Y-5.2869
X4.315Y-5.645
X4.3174Y-5.1558
X4.3177Y-5.2526
X4.32Y-4.9919
X4.32Y-5.03
X4.32Y-5.615
X4.32Y-5.77
X4.32Y-4.0244
X4.325Y-5.48
X4.3294Y-4.148
X4.33Y-4.85
X4.335Y-5.56
X4.335Y-5.695
X4.335Y-5.8
X4.335Y-5.31
X4.3392Y-5.134
X4.3397Y-3.3255
X4.3397Y-3.381
X4.3397Y-3.4365
X4.3397Y-3.492
X4.3397Y-3.5475
X4.3397Y-3.6029
X4.3397Y-3.6584
X4.3397Y-3.7139
X4.3397Y-3.7694
X4.3397Y-3.8249
X4.3397Y-3.8804
X4.34Y-5.525
X4.34Y-5.595
X4.34Y-5.665
X4.34Y-5.735
X4.3422Y-4.0465
X4.3424Y-5.2726
X4.3461Y-5.2347
X4.3475Y-4.175
X4.35Y-5.455
X4.355Y-5.49
X4.355Y-5.635
X4.355Y-5.77
X4.36Y-5.825
X4.3619Y-4.2041
X4.362Y-5.568
X4.362Y-5.714
X4.3627Y-5.2947
X4.364Y-5.686
X4.365Y-5.54
X4.3684Y-5.2549
X4.37Y-5.602
X4.3714Y-6.0631
X4.3714Y-6.0969
X4.3714Y-6.129
X4.3714Y-6.1586
X4.3714Y-6.1883
X4.3714Y-6.2179
X4.3714Y-6.2475
X4.3714Y-6.2771
X4.3714Y-6.3068
X4.3714Y-6.3364
X4.3714Y-6.366
X4.3714Y-6.3956
X4.3714Y-6.4253
X4.3714Y-6.4549
X4.3714Y-6.4845
X4.3714Y-6.5141
X4.3714Y-6.5438
X4.3714Y-6.5734
X4.3714Y-6.603
X4.3717Y-5.2128
X4.3717Y-5.3257
X4.3717Y-5.3564
X4.3717Y-5.3872
X4.3717Y-5.4179
X4.3717Y-5.8539
X4.3717Y-5.8896
X4.3717Y-5.9253
X4.3717Y-5.9611
X4.3717Y-5.9968
X4.372Y-5.748
X4.3723Y-4.2348
X4.375Y-5.44
X4.375Y-5.795
X4.3785Y-4.2667
X4.38Y-5.07
X4.38Y-5.51
X4.38Y-5.658
X4.3806Y-4.3377
X4.3806Y-4.5623
X4.3806Y-4.5939
X4.3806Y-4.6254
X4.3806Y-4.6569
X4.3806Y-4.6885
X4.3806Y-4.2991
X4.385Y-5.47
X4.388Y-4.72
X4.3886Y-5.2765
X4.3921Y-5.2342
X4.394Y-5.772
X4.3946Y-5.1899
X4.395Y-5.82
X4.3952Y-3.3255
X4.3952Y-3.381
X4.3952Y-3.4365
X4.3952Y-3.492
X4.3952Y-3.5475
X4.3952Y-3.6029
X4.3952Y-3.6584
X4.3952Y-3.7139
X4.3952Y-3.7694
X4.3952Y-3.8249
X4.3952Y-3.8804
X4.3952Y-3.9359
X4.396Y-5.628
X4.4Y-4.1182
X4.4Y-5.325
X4.4Y-5.355
X4.4Y-5.385
X4.4Y-5.42
X4.4009Y-6.0631
X4.4009Y-6.0969
X4.4009Y-6.129
X4.4009Y-6.1586
X4.4009Y-6.1883
X4.4009Y-6.2179
X4.4009Y-6.2475
X4.4009Y-6.2771
X4.4009Y-6.3068
X4.4009Y-6.3364
X4.4009Y-6.366
X4.4009Y-6.3956
X4.4009Y-6.4253
X4.4009Y-6.4549
X4.4009Y-6.4845
X4.4009Y-6.5141
X4.4009Y-6.5438
X4.4009Y-6.5734
X4.4009Y-6.603
X4.4013Y-5.8539
X4.4013Y-5.8896
X4.4013Y-5.9253
X4.4013Y-5.9611
X4.4013Y-5.9968
X4.41Y-5.495
X4.415Y-5.455
X4.4168Y-5.1677
X4.42Y-4.79
X4.4212Y-4.1453
X4.424Y-5.785
X4.428Y-5.71
X4.43Y-5.636
X4.4305Y-6.129
X4.4305Y-6.1586
X4.4305Y-6.1883
X4.4305Y-6.2179
X4.4305Y-6.2475
X4.4305Y-6.2771
X4.4305Y-6.3068
X4.4305Y-6.3364
X4.4305Y-6.366
X4.4305Y-6.3956
X4.4305Y-6.4253
X4.4305Y-6.4549
X4.4305Y-6.4845
X4.4305Y-6.5141
X4.4305Y-6.5438
X4.4305Y-6.5734
X4.4305Y-6.603
X4.4308Y-5.2028
X4.4308Y-5.2335
X4.4308Y-5.2642
X4.4308Y-5.295
X4.4308Y-5.3257
X4.4308Y-5.3564
X4.4308Y-5.3872
X4.4308Y-5.4179
X4.4308Y-5.8539
X4.4308Y-5.8896
X4.4308Y-5.9253
X4.4308Y-5.9611
X4.4308Y-5.9968
X4.431Y-6.0655
X4.431Y-6.0951
X4.432Y-5.816
X4.4347Y-4.1739
X4.439Y-5.1455
X4.442Y-5.49
X4.445Y-5.45
X4.4453Y-4.2037
X4.446Y-5.56
X4.4507Y-3.3255
X4.4507Y-3.381
X4.4507Y-3.4365
X4.4507Y-3.492
X4.4507Y-3.5475
X4.4507Y-3.6029
X4.4507Y-3.6584
X4.4507Y-3.7139
X4.4507Y-3.7694
X4.4507Y-3.8249
X4.4507Y-3.8804
X4.4507Y-3.9359
X4.4507Y-3.9914
X4.453Y-4.2343
X4.4577Y-4.2656
X4.4587Y-4.4972
X4.4587Y-4.5287
X4.4594Y-4.2971
X4.4594Y-4.3377
X4.4594Y-4.5623
X4.4594Y-4.5939
X4.4594Y-4.6254
X4.4594Y-4.6569
X4.4594Y-4.6885
X4.4594Y-4.72
X4.462Y-5.636
X4.462Y-5.71
X4.47Y-5.474
X4.476Y-5.56
X4.484Y-5.736
X4.494Y-5.636
X4.494Y-5.704
X4.498Y-5.762
X4.4998Y-4.4969
X4.4998Y-4.5284
X4.5005Y-4.3377
X4.5006Y-4.3071
X4.5006Y-4.5623
X4.5006Y-4.5939
X4.5006Y-4.6254
X4.5006Y-4.6569
X4.5006Y-4.6885
X4.5006Y-4.72
X4.502Y-5.172
X4.502Y-5.792
X4.5022Y-4.2756
X4.506Y-5.56
X4.5062Y-3.3255
X4.5062Y-3.381
X4.5062Y-3.4365
X4.5062Y-3.492
X4.5062Y-3.5475
X4.5062Y-3.6029
X4.5062Y-3.6584
X4.5062Y-3.7139
X4.5062Y-3.7694
X4.5062Y-3.8249
X4.5062Y-3.8804
X4.5062Y-3.9359
X4.5062Y-3.9914
X4.5062Y-4.0469
X4.5069Y-4.2443
X4.508Y-5.484
X4.5092Y-6.129
X4.5092Y-6.1586
X4.5092Y-6.1883
X4.5092Y-6.2179
X4.5092Y-6.2475
X4.5092Y-6.2771
X4.5092Y-6.3068
X4.5092Y-6.3364
X4.5092Y-6.366
X4.5092Y-6.3956
X4.5092Y-6.4253
X4.5092Y-6.4549
X4.5092Y-6.4845
X4.5092Y-6.5141
X4.5092Y-6.5438
X4.5092Y-6.5734
X4.5092Y-6.603
X4.5095Y-5.2028
X4.5095Y-5.2335
X4.5095Y-5.2642
X4.5095Y-5.295
X4.5095Y-5.3257
X4.5095Y-5.3564
X4.5095Y-5.3872
X4.5095Y-5.4179
X4.5095Y-5.8539
X4.5095Y-5.8896
X4.5095Y-5.9253
X4.5095Y-5.9611
X4.5095Y-5.9968
X4.5097Y-6.0655
X4.5097Y-6.0951
X4.51Y-5.822
X4.515Y-5.73
X4.524Y-5.702
X4.53Y-5.755
X4.535Y-5.785
X4.536Y-5.55
X4.5387Y-6.0631
X4.5387Y-6.0969
X4.5387Y-6.129
X4.5387Y-6.1586
X4.5387Y-6.1883
X4.5387Y-6.2179
X4.5387Y-6.2475
X4.5387Y-6.2771
X4.5387Y-6.3068
X4.5387Y-6.3364
X4.5387Y-6.366
X4.5387Y-6.3956
X4.5387Y-6.4253
X4.5387Y-6.4549
X4.5387Y-6.4845
X4.5387Y-6.5141
X4.5387Y-6.5438
X4.5387Y-6.5734
X4.5387Y-6.603
X4.5387Y-4.1553
X4.5391Y-5.8539
X4.5391Y-5.8896
X4.5391Y-5.9253
X4.5391Y-5.9611
X4.5391Y-5.9968
X4.54Y-5.422
X4.54Y-5.82
X4.5406Y-5.2163
X4.542Y-5.2594
X4.5424Y-5.3875
X4.5434Y-5.3026
X4.544Y-5.3491
X4.55Y-5.725
X4.5518Y-5.1161
X4.552Y-5.578
X4.552Y-5.692
X4.555Y-4.1282
X4.5617Y-3.3255
X4.5617Y-3.381
X4.5617Y-3.4365
X4.5617Y-3.492
X4.5617Y-3.5475
X4.5617Y-3.6029
X4.5617Y-3.6584
X4.5617Y-3.7139
X4.5617Y-3.7694
X4.5617Y-3.8249
X4.5617Y-3.8804
X4.5617Y-3.9359
X4.5629Y-5.2386
X4.564Y-5.532
X4.5643Y-5.2817
X4.565Y-5.785
X4.5657Y-5.3249
X4.566Y-5.44
X4.5683Y-6.0631
X4.5683Y-6.0969
X4.5683Y-6.129
X4.5683Y-6.1586
X4.5683Y-6.1883
X4.5683Y-6.2179
X4.5683Y-6.2475
X4.5683Y-6.2771
X4.5683Y-6.3068
X4.5683Y-6.3364
X4.5683Y-6.366
X4.5683Y-6.3956
X4.5683Y-6.4253
X4.5683Y-6.4549
X4.5683Y-6.4845
X4.5683Y-6.5141
X4.5683Y-6.5438
X4.5683Y-6.5734
X4.5683Y-6.603
X4.5686Y-5.8539
X4.5686Y-5.8896
X4.5686Y-5.9253
X4.5686Y-5.9611
X4.5686Y-5.9968
X4.57Y-5.75
X4.57Y-5.82
X4.5711Y-4.7919
X4.572Y-5.604
X4.572Y-5.668
X4.5737Y-4.1028
X4.574Y-5.1383
X4.578Y-5.47
X4.578Y-5.502
X4.578Y-5.636
X4.5793Y-4.3091
X4.5793Y-4.3377
X4.5794Y-4.5623
X4.5794Y-4.5939
X4.5794Y-4.6254
X4.5794Y-4.6569
X4.58Y-5.705
X4.5851Y-5.2608
X4.5865Y-5.304
X4.5879Y-5.3471
X4.59Y-5.415
X4.59Y-5.57
X4.5949Y-4.0793
X4.5963Y-5.1606
X4.598Y-4.2141
X4.6Y-5.535
X4.6Y-5.73
X4.605Y-5.455
X4.605Y-5.61
X4.605Y-5.675
X4.6074Y-5.2831
X4.6088Y-5.3262
X4.61Y-5.495
X4.61Y-5.645
X4.6102Y-5.3694
X4.6124Y-4.185
X4.6172Y-3.3255
X4.6172Y-3.381
X4.6172Y-3.4365
X4.6172Y-3.492
X4.6172Y-3.5475
X4.6172Y-3.6029
X4.6172Y-3.6584
X4.6172Y-3.7139
X4.6172Y-3.7694
X4.6172Y-3.8249
X4.6172Y-3.8804
X4.6174Y-4.0569
X4.6186Y-5.1829
X4.625Y-5.705
X4.6297Y-5.3054
X4.63Y-4.9081
X4.63Y-4.94
X4.63Y-5.43
X4.63Y-5.56
X4.63Y-5.595
X4.6305Y-4.158
X4.6311Y-5.3485
X4.6323Y-5.5244
X4.6325Y-5.3917
X4.635Y-5.475
X4.6391Y-4.0351
X4.64Y-5.0
X4.64Y-5.625
X4.64Y-5.665
X4.6408Y-5.2051
X4.6519Y-4.1336
X4.6519Y-5.3276
X4.6533Y-5.3708
X4.6547Y-5.4139
X4.6609Y-4.0133
X4.6631Y-5.2274
X4.6727Y-3.5475
X4.6727Y-3.6029
X4.6727Y-3.6584
X4.6727Y-3.7139
X4.6727Y-3.7694
X4.6727Y-3.8249
X4.6727Y-3.8804
X4.6727Y-5.8228
X4.6727Y-5.8783
X4.6727Y-5.9338
X4.6727Y-5.9893
X4.6727Y-6.0448
X4.6727Y-6.1003
X4.6727Y-6.1558
X4.6727Y-6.2113
X4.6727Y-6.2668
X4.6727Y-6.3223
X4.6727Y-6.3778
X4.6727Y-6.4332
X4.673Y-4.1126
X4.6742Y-5.3499
X4.6751Y-5.16
X4.6756Y-5.393
X4.68Y-4.64
X4.68Y-4.95
X4.68Y-5.07
X4.6802Y-5.4365
X4.6827Y-3.9916
X4.684Y-5.2065
X4.6854Y-5.2497
X4.69Y-4.86
X4.6948Y-4.0908
X4.6972Y-5.3728
X4.7Y-4.38
X4.702Y-5.416
X4.7044Y-3.9698
X4.7061Y-5.4547
X4.7062Y-5.2288
X4.7076Y-5.2719
X4.7166Y-4.069
X4.7196Y-5.3923
X4.7262Y-3.948
X4.7271Y-5.2079
X4.7282Y-3.5475
X4.7282Y-3.6029
X4.7282Y-3.6584
X4.7282Y-3.7139
X4.7282Y-3.7694
X4.7282Y-4.2134
X4.7282Y-4.2689
X4.7282Y-5.6008
X4.7282Y-5.6563
X4.7282Y-5.7118
X4.7282Y-5.7673
X4.7282Y-5.8228
X4.7282Y-5.8783
X4.7282Y-5.9338
X4.7282Y-5.9893
X4.7282Y-6.0448
X4.7282Y-6.1003
X4.7282Y-6.1558
X4.7282Y-6.2113
X4.7282Y-6.2668
X4.7282Y-6.3223
X4.7282Y-6.3778
X4.7282Y-6.4332
X4.7285Y-5.2511
X4.7298Y-5.4344
X4.7299Y-5.2942
X4.7339Y-5.47
X4.7383Y-4.0473
X4.7443Y-5.4087
X4.748Y-3.9263
X4.7494Y-5.2302
X4.7508Y-5.2733
X4.7522Y-5.3165
X4.7596Y-5.4492
X4.7601Y-4.0255
X4.7631Y-5.4821
X4.7697Y-3.9045
X4.7709Y-5.4219
X4.7717Y-5.2525
X4.773Y-5.2956
X4.7746Y-5.3349
X4.7819Y-4.0037
X4.7837Y-3.5475
X4.7837Y-3.6029
X4.7837Y-3.6584
X4.7837Y-3.7139
X4.7837Y-3.7694
X4.7837Y-4.1579
X4.7837Y-4.2134
X4.7837Y-4.2689
X4.7837Y-4.3244
X4.7837Y-4.3799
X4.7837Y-4.4354
X4.7837Y-5.6008
X4.7837Y-5.6563
X4.7837Y-5.7118
X4.7837Y-5.7673
X4.7837Y-5.8228
X4.7837Y-5.8783
X4.7837Y-5.9338
X4.7837Y-5.9893
X4.7837Y-6.0448
X4.7837Y-6.1003
X4.7837Y-6.1558
X4.7837Y-6.2113
X4.7837Y-6.2668
X4.7837Y-6.3223
X4.7837Y-6.3778
X4.7837Y-6.4332
X4.7912Y-5.4599
X4.7915Y-3.8827
X4.7935Y-5.4909
X4.7939Y-5.2747
X4.7977Y-5.3145
X4.7991Y-5.4314
X4.8011Y-5.3491
X4.8036Y-3.982
X4.8133Y-3.861
X4.8237Y-5.2946
X4.8238Y-5.4665
X4.8247Y-5.4964
X4.8254Y-3.9602
X4.8279Y-5.3271
X4.8282Y-5.4373
X4.8298Y-5.3578
X4.835Y-3.8392
X4.8392Y-3.5475
X4.8392Y-3.6029
X4.8392Y-3.6584
X4.8392Y-4.1024
X4.8392Y-4.1579
X4.8392Y-4.2134
X4.8392Y-4.2689
X4.8392Y-4.3244
X4.8392Y-4.3799
X4.8392Y-4.4354
X4.8392Y-5.6008
X4.8392Y-5.6563
X4.8392Y-5.7118
X4.8392Y-5.7673
X4.8392Y-5.8228
X4.8392Y-5.8783
X4.8392Y-5.9338
X4.8392Y-5.9893
X4.8392Y-6.0448
X4.8392Y-6.1003
X4.8392Y-6.1558
X4.8392Y-6.2113
X4.8392Y-6.2668
X4.8392Y-6.3223
X4.8392Y-6.3778
X4.8392Y-6.4332
X4.8392Y-6.4887
X4.8392Y-6.5442
X4.8392Y-6.5997
X4.8472Y-3.9384
X4.8568Y-3.8174
X4.8578Y-5.4394
X4.8587Y-5.3016
X4.8587Y-5.3311
X4.8587Y-5.3606
X4.8587Y-5.4689
X4.8587Y-5.4984
X4.8689Y-3.9167
X4.8779Y-3.7964
X4.8903Y-5.3016
X4.8903Y-5.3311
X4.8903Y-5.3606
X4.8903Y-5.4394
X4.8903Y-5.4689
X4.8903Y-5.4984
X4.8907Y-3.8949
X4.894Y-3.3485
X4.894Y-3.3797
X4.894Y-3.4108
X4.894Y-3.442
X4.8947Y-4.0469
X4.8947Y-4.1024
X4.8947Y-4.1579
X4.8947Y-4.2134
X4.8947Y-4.2689
X4.8947Y-4.3244
X4.8947Y-4.3799
X4.8947Y-4.4354
X4.8947Y-4.4909
X4.8947Y-5.6008
X4.8947Y-5.6563
X4.8947Y-5.7118
X4.8947Y-5.7673
X4.8947Y-5.8228
X4.8947Y-5.8783
X4.8947Y-5.9338
X4.8947Y-5.9893
X4.8947Y-6.0448
X4.8947Y-6.1003
X4.8947Y-6.1558
X4.8947Y-6.2113
X4.8947Y-6.2668
X4.8947Y-6.3223
X4.8947Y-6.3778
X4.8947Y-6.4332
X4.8947Y-6.4887
X4.8947Y-6.5442
X4.8947Y-6.5997
X4.8993Y-3.772
X4.9125Y-3.8731
X4.9174Y-3.745
X4.9218Y-5.3016
X4.9218Y-5.3311
X4.9218Y-5.3606
X4.9218Y-5.4394
X4.9218Y-5.4689
X4.9218Y-5.4984
X4.922Y-3.3645
X4.922Y-3.3957
X4.922Y-3.4268
X4.922Y-3.458
X4.9318Y-3.7159
X4.9349Y-3.8507
X4.9422Y-3.6852
X4.9484Y-3.6533
X4.9502Y-3.9914
X4.9502Y-4.0469
X4.9502Y-4.1024
X4.9502Y-4.1579
X4.9502Y-4.2134
X4.9502Y-4.2689
X4.9502Y-4.3244
X4.9502Y-4.3799
X4.9502Y-4.4354
X4.9502Y-4.4909
X4.9502Y-5.6008
X4.9502Y-5.6563
X4.9502Y-5.7118
X4.9502Y-5.7673
X4.9502Y-5.8228
X4.9502Y-5.8783
X4.9502Y-5.9338
X4.9502Y-5.9893
X4.9502Y-6.0448
X4.9502Y-6.1003
X4.9502Y-6.1558
X4.9502Y-6.2113
X4.9502Y-6.2668
X4.9502Y-6.3223
X4.9502Y-6.3778
X4.9502Y-6.4332
X4.9502Y-6.4887
X4.9502Y-6.5442
X4.9502Y-6.5997
X4.9505Y-3.3811
X4.9505Y-3.4112
X4.9505Y-3.4413
X4.9505Y-3.4714
X4.9505Y-3.5015
X4.9505Y-3.5316
X4.9505Y-3.5617
X4.9505Y-3.5918
X4.9505Y-3.6219
X4.9533Y-5.3016
X4.9533Y-5.3311
X4.9533Y-5.3606
X4.9533Y-5.4394
X4.9533Y-5.4689
X4.9533Y-5.4984
X4.9561Y-3.8272
X4.9749Y-3.8018
X4.9849Y-5.3016
X4.9849Y-5.3311
X4.9849Y-5.3606
X4.9849Y-5.4394
X4.9849Y-5.4689
X4.9849Y-5.4984
X4.9911Y-3.7747
X5.0046Y-3.7461
X5.0057Y-3.9359
X5.0057Y-3.9914
X5.0057Y-4.0469
X5.0057Y-4.1024
X5.0057Y-4.1579
X5.0057Y-4.2134
X5.0057Y-4.2689
X5.0057Y-4.3244
X5.0057Y-4.3799
X5.0057Y-4.4354
X5.0057Y-4.4909
X5.0057Y-5.6008
X5.0057Y-5.6563
X5.0057Y-5.7118
X5.0057Y-5.7673
X5.0057Y-5.8228
X5.0057Y-5.8783
X5.0057Y-5.9338
X5.0057Y-5.9893
X5.0057Y-6.0448
X5.0057Y-6.1003
X5.0057Y-6.1558
X5.0057Y-6.2113
X5.0057Y-6.2668
X5.0057Y-6.3223
X5.0057Y-6.3778
X5.0057Y-6.4332
X5.0057Y-6.4887
X5.0057Y-6.5442
X5.0057Y-6.5997
X5.0152Y-3.7163
X5.0164Y-5.3016
X5.0164Y-5.3311
X5.0164Y-5.3606
X5.0164Y-5.4394
X5.0164Y-5.4689
X5.0164Y-5.4984
X5.0229Y-3.6857
X5.0276Y-3.6544
X5.0293Y-3.6229
X5.0293Y-3.3811
X5.0293Y-3.4112
X5.0293Y-3.4413
X5.0293Y-3.4714
X5.0293Y-3.5015
X5.0293Y-3.5316
X5.0293Y-3.5617
X5.0293Y-3.5918
X5.0479Y-5.3016
X5.0479Y-5.3311
X5.0479Y-5.3606
X5.0479Y-5.4394
X5.0479Y-5.4689
X5.0479Y-5.4984
X5.058Y-3.3625
X5.058Y-3.3937
X5.058Y-3.4248
X5.058Y-3.456
X5.0612Y-3.8249
X5.0612Y-3.8804
X5.0612Y-3.9359
X5.0612Y-3.9914
X5.0612Y-4.0469
X5.0612Y-4.1024
X5.0612Y-4.1579
X5.0612Y-4.2134
X5.0612Y-4.2689
X5.0612Y-4.3244
X5.0612Y-4.3799
X5.0612Y-4.4354
X5.0612Y-4.4909
X5.0612Y-5.6008
X5.0612Y-5.6563
X5.0612Y-5.7118
X5.0612Y-5.7673
X5.0612Y-5.8228
X5.0612Y-5.8783
X5.0612Y-5.9338
X5.0612Y-5.9893
X5.0612Y-6.0448
X5.0612Y-6.1003
X5.0612Y-6.1558
X5.0612Y-6.2113
X5.0612Y-6.2668
X5.0612Y-6.3223
X5.0612Y-6.3778
X5.0612Y-6.4332
X5.0612Y-6.4887
X5.0612Y-6.5442
X5.0612Y-6.5997
X5.0795Y-5.3016
X5.0795Y-5.3311
X5.0795Y-5.3606
X5.0795Y-5.4394
X5.0795Y-5.4689
X5.0795Y-5.4984
X5.086Y-3.3485
X5.086Y-3.3797
X5.086Y-3.4108
X5.086Y-3.442
X5.111Y-5.3016
X5.111Y-5.3311
X5.111Y-5.3606
X5.111Y-5.4394
X5.111Y-5.4689
X5.111Y-5.4984
X5.1167Y-3.5475
X5.1167Y-3.6029
X5.1167Y-3.6584
X5.1167Y-3.7139
X5.1167Y-3.7694
X5.1167Y-3.8249
X5.1167Y-3.8804
X5.1167Y-3.9359
X5.1167Y-3.9914
X5.1167Y-4.0469
X5.1167Y-4.1024
X5.1167Y-4.1579
X5.1167Y-4.2134
X5.1167Y-4.2689
X5.1167Y-4.3244
X5.1167Y-4.3799
X5.1167Y-4.4354
X5.1167Y-4.4909
X5.1167Y-5.6008
X5.1167Y-5.6563
X5.1167Y-5.7118
X5.1167Y-5.7673
X5.1167Y-5.8228
X5.1167Y-5.8783
X5.1167Y-5.9338
X5.1167Y-5.9893
X5.1167Y-6.0448
X5.1167Y-6.1003
X5.1167Y-6.1558
X5.1167Y-6.2113
X5.1167Y-6.2668
X5.1167Y-6.3223
X5.1167Y-6.3778
X5.1167Y-6.4332
X5.1167Y-6.4887
X5.1167Y-6.5442
X5.1167Y-6.5997
X5.1431Y-5.3016
X5.1431Y-5.3311
X5.1431Y-5.3606
X5.1442Y-5.5126
X5.1722Y-3.5475
X5.1722Y-3.6029
X5.1722Y-3.6584
X5.1722Y-3.7139
X5.1722Y-3.7694
X5.1722Y-3.8249
X5.1722Y-3.8804
X5.1722Y-3.9359
X5.1722Y-3.9914
X5.1722Y-4.0469
X5.1722Y-4.1024
X5.1722Y-4.1579
X5.1722Y-4.2134
X5.1722Y-4.2689
X5.1722Y-4.3244
X5.1722Y-4.3799
X5.1722Y-4.4354
X5.1722Y-4.4909
X5.1722Y-5.6008
X5.1722Y-5.6563
X5.1722Y-5.7118
X5.1722Y-5.7673
X5.1722Y-5.8228
X5.1722Y-5.8783
X5.1722Y-5.9338
X5.1722Y-5.9893
X5.1722Y-6.0448
X5.1722Y-6.1003
X5.1722Y-6.1558
X5.1722Y-6.2113
X5.1722Y-6.2668
X5.1722Y-6.3223
X5.1722Y-6.3778
X5.1722Y-6.4332
X5.1722Y-6.4887
X5.1722Y-6.5442
X5.1722Y-6.5997
X5.1727Y-5.3016
X5.1727Y-5.3311
X5.1727Y-5.3606
X5.1727Y-5.4394
X5.1727Y-5.4689
X5.1727Y-5.4984
X5.2023Y-5.3016
X5.2023Y-5.3311
X5.2023Y-5.3606
X5.2023Y-5.4394
X5.2023Y-5.4689
X5.2023Y-5.4984
X5.2277Y-3.5475
X5.2277Y-3.6029
X5.2277Y-3.6584
X5.2277Y-3.7139
X5.2277Y-3.7694
X5.2277Y-3.8249
X5.2277Y-3.8804
X5.2277Y-3.9359
X5.2277Y-3.9914
X5.2277Y-4.0469
X5.2277Y-4.1024
X5.2277Y-4.1579
X5.2277Y-4.2134
X5.2277Y-4.2689
X5.2277Y-4.3244
X5.2277Y-4.3799
X5.2277Y-4.4354
X5.2277Y-4.4909
X5.2277Y-5.6008
X5.2277Y-5.6563
X5.2277Y-5.7118
X5.2277Y-5.7673
X5.2277Y-5.8228
X5.2277Y-5.8783
X5.2277Y-5.9338
X5.2277Y-5.9893
X5.2277Y-6.0448
X5.2277Y-6.1003
X5.2277Y-6.1558
X5.2277Y-6.2113
X5.2277Y-6.2668
X5.2277Y-6.3223
X5.2277Y-6.3778
X5.2277Y-6.4332
X5.2277Y-6.4887
X5.2277Y-6.5442
X5.2277Y-6.5997
X5.232Y-5.3016
X5.232Y-5.3311
X5.232Y-5.3606
X5.232Y-5.4394
X5.232Y-5.4689
X5.232Y-5.4984
X5.2616Y-5.3016
X5.2616Y-5.3311
X5.2616Y-5.3606
X5.2616Y-5.4394
X5.2616Y-5.4689
X5.2616Y-5.4984
X5.2832Y-3.5475
X5.2832Y-3.6029
X5.2832Y-3.6584
X5.2832Y-3.7139
X5.2832Y-3.7694
X5.2832Y-3.8249
X5.2832Y-3.8804
X5.2832Y-3.9359
X5.2832Y-3.9914
X5.2832Y-4.0469
X5.2832Y-4.1024
X5.2832Y-4.1579
X5.2832Y-4.2134
X5.2832Y-4.2689
X5.2832Y-4.3244
X5.2832Y-4.3799
X5.2832Y-4.4354
X5.2832Y-4.4909
X5.2832Y-5.6008
X5.2832Y-5.6563
X5.2832Y-5.7118
X5.2832Y-5.7673
X5.2832Y-5.8228
X5.2832Y-5.8783
X5.2832Y-5.9338
X5.2832Y-5.9893
X5.2832Y-6.0448
X5.2832Y-6.1003
X5.2832Y-6.1558
X5.2832Y-6.2113
X5.2832Y-6.2668
X5.2832Y-6.3223
X5.2832Y-6.3778
X5.2832Y-6.4332
X5.2832Y-6.4887
X5.2832Y-6.5442
X5.2832Y-6.5997
X5.2912Y-5.3016
X5.2912Y-5.3311
X5.2912Y-5.3606
X5.2912Y-5.4394
X5.2912Y-5.4689
X5.2912Y-5.4984
X5.32Y-5.47
X5.3208Y-5.3016
X5.3208Y-5.3311
X5.3208Y-5.3606
X5.3208Y-5.4394
X5.3208Y-5.4984
X5.3387Y-3.3255
X5.3387Y-3.381
X5.3387Y-3.4365
X5.3387Y-3.492
X5.3387Y-3.5475
X5.3387Y-3.6029
X5.3387Y-3.6584
X5.3387Y-3.7139
X5.3387Y-3.7694
X5.3387Y-3.8249
X5.3387Y-3.8804
X5.3387Y-3.9359
X5.3387Y-3.9914
X5.3387Y-4.0469
X5.3387Y-4.1024
X5.3387Y-4.1579
X5.3387Y-4.2134
X5.3387Y-4.2689
X5.3387Y-4.3244
X5.3387Y-4.3799
X5.3387Y-4.4354
X5.3387Y-4.4909
X5.3387Y-4.5464
X5.3387Y-4.6019
X5.3387Y-4.6574
X5.3387Y-4.7129
X5.3387Y-4.7684
X5.3387Y-4.8239
X5.3387Y-4.8794
X5.3387Y-4.9349
X5.3387Y-4.9904
X5.3387Y-5.0458
X5.3387Y-5.1013
X5.3387Y-5.1568
X5.3387Y-5.2123
X5.3387Y-5.6008
X5.3387Y-5.6563
X5.3387Y-5.7118
X5.3387Y-5.7673
X5.3387Y-5.8228
X5.3387Y-5.8783
X5.3387Y-5.9338
X5.3387Y-5.9893
X5.3387Y-6.0448
X5.3387Y-6.1003
X5.3387Y-6.1558
X5.3387Y-6.2113
X5.3387Y-6.2668
X5.3387Y-6.3223
X5.3387Y-6.3778
X5.3387Y-6.4332
X5.3387Y-6.4887
X5.3387Y-6.5442
X5.3387Y-6.5997
X5.3505Y-5.3016
X5.3505Y-5.3311
X5.3505Y-5.3606
X5.3505Y-5.4394
X5.3505Y-5.4689
X5.3505Y-5.4984
X5.3801Y-5.3016
X5.3801Y-5.3311
X5.3801Y-5.3606
X5.3801Y-5.4394
X5.3801Y-5.4689
X5.3801Y-5.4984
X5.3942Y-3.3255
X5.3942Y-3.381
X5.3942Y-3.4365
X5.3942Y-3.492
X5.3942Y-3.5475
X5.3942Y-3.6029
X5.3942Y-3.6584
X5.3942Y-3.7139
X5.3942Y-3.7694
X5.3942Y-3.8249
X5.3942Y-3.8804
X5.3942Y-3.9359
X5.3942Y-3.9914
X5.3942Y-4.0469
X5.3942Y-4.1024
X5.3942Y-4.1579
X5.3942Y-4.2134
X5.3942Y-4.2689
X5.3942Y-4.3244
X5.3942Y-4.3799
X5.3942Y-4.4354
X5.3942Y-4.4909
X5.3942Y-4.5464
X5.3942Y-4.6019
X5.3942Y-4.6574
X5.3942Y-4.7129
X5.3942Y-4.7684
X5.3942Y-4.8239
X5.3942Y-4.8794
X5.3942Y-4.9349
X5.3942Y-4.9904
X5.3942Y-5.0458
X5.3942Y-5.1013
X5.3942Y-5.1568
X5.3942Y-5.2123
X5.3942Y-5.6008
X5.3942Y-5.6563
X5.3942Y-5.7118
X5.3942Y-5.7673
X5.3942Y-5.8228
X5.3942Y-5.8783
X5.3942Y-5.9338
X5.3942Y-5.9893
X5.3942Y-6.0448
X5.3942Y-6.1003
X5.3942Y-6.1558
X5.3942Y-6.2113
X5.3942Y-6.2668
X5.3942Y-6.3223
X5.3942Y-6.3778
X5.3942Y-6.4332
X5.3942Y-6.4887
X5.3942Y-6.5442
X5.3942Y-6.5997
X5.4097Y-5.3016
X5.4097Y-5.3311
X5.4097Y-5.3606
X5.4097Y-5.4394
X5.4097Y-5.4689
X5.4097Y-5.4984
X5.4393Y-5.3016
X5.4393Y-5.3311
X5.4393Y-5.3606
X5.4393Y-5.4394
X5.4393Y-5.4689
X5.4393Y-5.4984
X5.4497Y-3.3255
X5.4497Y-3.381
X5.4497Y-3.4365
X5.4497Y-3.492
X5.4497Y-3.5475
X5.4497Y-3.6029
X5.4497Y-3.6584
X5.4497Y-3.7139
X5.4497Y-3.7694
X5.4497Y-3.8249
X5.4497Y-3.8804
X5.4497Y-3.9359
X5.4497Y-3.9914
X5.4497Y-4.0469
X5.4497Y-4.1024
X5.4497Y-4.1579
X5.4497Y-4.2134
X5.4497Y-4.2689
X5.4497Y-4.3244
X5.4497Y-4.3799
X5.4497Y-4.4354
X5.4497Y-4.4909
X5.4497Y-4.5464
X5.4497Y-4.6019
X5.4497Y-4.6574
X5.4497Y-4.7129
X5.4497Y-4.7684
X5.4497Y-4.8239
X5.4497Y-4.8794
X5.4497Y-4.9349
X5.4497Y-4.9904
X5.4497Y-5.0458
X5.4497Y-5.1013
X5.4497Y-5.1568
X5.4497Y-5.2123
X5.4497Y-5.6008
X5.4497Y-5.6563
X5.4497Y-5.7118
X5.4497Y-5.7673
X5.4497Y-5.8228
X5.4497Y-5.8783
X5.4497Y-5.9338
X5.4497Y-5.9893
X5.4497Y-6.0448
X5.4497Y-6.1003
X5.4497Y-6.1558
X5.4497Y-6.2113
X5.4497Y-6.2668
X5.4497Y-6.3223
X5.4497Y-6.3778
X5.4497Y-6.4332
X5.4497Y-6.4887
X5.4497Y-6.5442
X5.4497Y-6.5997
X5.469Y-5.3016
X5.469Y-5.3311
X5.469Y-5.3606
X5.469Y-5.4394
X5.469Y-5.4689
X5.469Y-5.4984
X5.4986Y-5.3016
X5.4986Y-5.3311
X5.4986Y-5.3606
X5.4986Y-5.4394
X5.4986Y-5.4689
X5.4986Y-5.4984
X5.5052Y-3.3255
X5.5052Y-3.381
X5.5052Y-3.4365
X5.5052Y-3.492
X5.5052Y-3.5475
X5.5052Y-3.6029
X5.5052Y-3.6584
X5.5052Y-3.7139
X5.5052Y-3.7694
X5.5052Y-3.8249
X5.5052Y-3.8804
X5.5052Y-3.9359
X5.5052Y-3.9914
X5.5052Y-4.0469
X5.5052Y-4.1024
X5.5052Y-4.1579
X5.5052Y-4.2134
X5.5052Y-4.2689
X5.5052Y-4.3244
X5.5052Y-4.3799
X5.5052Y-4.4354
X5.5052Y-4.4909
X5.5052Y-4.5464
X5.5052Y-4.6019
X5.5052Y-4.6574
X5.5052Y-4.7129
X5.5052Y-4.7684
X5.5052Y-4.8239
X5.5052Y-4.8794
X5.5052Y-4.9349
X5.5052Y-4.9904
X5.5052Y-5.0458
X5.5052Y-5.1013
X5.5052Y-5.1568
X5.5052Y-5.2123
X5.5052Y-5.6008
X5.5052Y-5.6563
X5.5052Y-5.7118
X5.5052Y-5.7673
X5.5052Y-5.8228
X5.5052Y-5.8783
X5.5052Y-5.9338
X5.5052Y-5.9893
X5.5052Y-6.0448
X5.5052Y-6.1003
X5.5052Y-6.1558
X5.5052Y-6.2113
X5.5052Y-6.2668
X5.5052Y-6.3223
X5.5052Y-6.3778
X5.5052Y-6.4332
X5.5052Y-6.4887
X5.5052Y-6.5442
X5.5052Y-6.5997
X5.5282Y-5.3016
X5.5282Y-5.3311
X5.5282Y-5.3606
X5.5282Y-5.4394
X5.5282Y-5.4689
X5.5282Y-5.4984
X5.5578Y-5.3016
X5.5578Y-5.3311
X5.5578Y-5.3606
X5.5578Y-5.4394
X5.5578Y-5.4689
X5.5578Y-5.4984
X5.5606Y-3.3255
X5.5606Y-3.381
X5.5606Y-3.4365
X5.5606Y-3.492
X5.5606Y-3.5475
X5.5606Y-3.6029
X5.5606Y-3.6584
X5.5606Y-3.7139
X5.5606Y-3.7694
X5.5606Y-3.8249
X5.5606Y-3.8804
X5.5606Y-3.9359
X5.5606Y-3.9914
X5.5606Y-4.0469
X5.5606Y-4.1024
X5.5606Y-4.1579
X5.5606Y-4.2134
X5.5606Y-4.2689
X5.5606Y-4.3244
X5.5606Y-4.3799
X5.5606Y-4.4354
X5.5606Y-4.4909
X5.5606Y-4.5464
X5.5606Y-4.6019
X5.5606Y-4.6574
X5.5606Y-4.7129
X5.5606Y-4.7684
X5.5606Y-4.8239
X5.5606Y-4.8794
X5.5606Y-4.9349
X5.5606Y-4.9904
X5.5606Y-5.0458
X5.5606Y-5.1013
X5.5606Y-5.1568
X5.5606Y-5.2123
X5.5606Y-5.6008
X5.5606Y-5.6563
X5.5606Y-5.7118
X5.5606Y-5.7673
X5.5606Y-5.8228
X5.5606Y-5.8783
X5.5606Y-5.9338
X5.5606Y-5.9893
X5.5606Y-6.0448
X5.5606Y-6.1003
X5.5606Y-6.1558
X5.5606Y-6.2113
X5.5606Y-6.2668
X5.5606Y-6.3223
X5.5606Y-6.3778
X5.5606Y-6.4332
X5.5606Y-6.4887
X5.5606Y-6.5442
X5.5606Y-6.5997
X5.5875Y-5.3016
X5.5875Y-5.3311
X5.5875Y-5.3606
X5.5875Y-5.4394
X5.5875Y-5.4689
X5.5875Y-5.4984
X5.6161Y-3.3255
X5.6161Y-3.381
X5.6161Y-3.4365
X5.6161Y-3.492
X5.6161Y-3.5475
X5.6161Y-3.6029
X5.6161Y-3.6584
X5.6161Y-3.7139
X5.6161Y-3.7694
X5.6161Y-3.8249
X5.6161Y-3.8804
X5.6161Y-3.9359
X5.6161Y-3.9914
X5.6161Y-4.0469
X5.6161Y-4.1024
X5.6161Y-4.1579
X5.6161Y-4.2134
X5.6161Y-4.2689
X5.6161Y-4.3244
X5.6161Y-4.3799
X5.6161Y-4.4354
X5.6161Y-4.4909
X5.6161Y-4.5464
X5.6161Y-4.6019
X5.6161Y-4.6574
X5.6161Y-4.7129
X5.6161Y-4.7684
X5.6161Y-4.8239
X5.6161Y-4.8794
X5.6161Y-4.9349
X5.6161Y-4.9904
X5.6161Y-5.0458
X5.6161Y-5.1013
X5.6161Y-5.1568
X5.6161Y-5.2123
X5.6161Y-5.6008
X5.6161Y-5.6563
X5.6161Y-5.7118
X5.6161Y-5.7673
X5.6161Y-5.8228
X5.6161Y-5.8783
X5.6161Y-5.9338
X5.6161Y-5.9893
X5.6161Y-6.0448
X5.6161Y-6.1003
X5.6161Y-6.1558
X5.6161Y-6.2113
X5.6161Y-6.2668
X5.6161Y-6.3223
X5.6161Y-6.3778
X5.6161Y-6.4332
X5.6161Y-6.4887
X5.6161Y-6.5442
X5.6161Y-6.5997
X5.6171Y-5.3016
X5.6171Y-5.3311
X5.6171Y-5.3606
X5.6171Y-5.4394
X5.6171Y-5.4689
X5.6171Y-5.4984
X5.6467Y-5.3016
X5.6467Y-5.3311
X5.6467Y-5.3606
X5.6467Y-5.4394
X5.6467Y-5.4689
X5.6467Y-5.4984
X5.6716Y-3.3255
X5.6716Y-3.381
X5.6716Y-3.4365
X5.6716Y-3.492
X5.6716Y-3.5475
X5.6716Y-3.6029
X5.6716Y-3.6584
X5.6716Y-3.7139
X5.6716Y-3.7694
X5.6716Y-3.8249
X5.6716Y-3.8804
X5.6716Y-3.9359
X5.6716Y-3.9914
X5.6716Y-4.0469
X5.6716Y-4.1024
X5.6716Y-4.1579
X5.6716Y-4.2134
X5.6716Y-4.2689
X5.6716Y-4.3244
X5.6716Y-4.3799
X5.6716Y-4.4354
X5.6716Y-4.4909
X5.6716Y-4.5464
X5.6716Y-4.6019
X5.6716Y-4.6574
X5.6716Y-4.7129
X5.6716Y-4.7684
X5.6716Y-4.8239
X5.6716Y-4.8794
X5.6716Y-4.9349
X5.6716Y-4.9904
X5.6716Y-5.0458
X5.6716Y-5.1013
X5.6716Y-5.1568
X5.6716Y-5.2123
X5.6716Y-5.6008
X5.6716Y-5.6563
X5.6716Y-5.7118
X5.6716Y-5.7673
X5.6716Y-5.8228
X5.6716Y-5.8783
X5.6716Y-5.9338
X5.6716Y-5.9893
X5.6716Y-6.0448
X5.6716Y-6.1003
X5.6716Y-6.1558
X5.6716Y-6.2113
X5.6716Y-6.2668
X5.6716Y-6.3223
X5.6716Y-6.3778
X5.6716Y-6.4332
X5.6716Y-6.4887
X5.6716Y-6.5442
X5.6716Y-6.5997
X5.6764Y-5.3016
X5.6764Y-5.3311
X5.6764Y-5.3606
X5.6764Y-5.4394
X5.6764Y-5.4689
X5.6764Y-5.4984
X5.706Y-5.3016
X5.706Y-5.3311
X5.706Y-5.3606
X5.706Y-5.4394
X5.706Y-5.4689
X5.706Y-5.4984
X5.7271Y-3.3255
X5.7271Y-3.381
X5.7271Y-3.4365
X5.7271Y-3.492
X5.7271Y-3.5475
X5.7271Y-3.6029
X5.7271Y-3.6584
X5.7271Y-3.7139
X5.7271Y-3.7694
X5.7271Y-3.8249
X5.7271Y-3.8804
X5.7271Y-3.9359
X5.7271Y-3.9914
X5.7271Y-4.0469
X5.7271Y-4.1024
X5.7271Y-4.1579
X5.7271Y-4.2134
X5.7271Y-4.2689
X5.7271Y-4.3244
X5.7271Y-4.3799
X5.7271Y-4.4354
X5.7271Y-4.4909
X5.7271Y-4.5464
X5.7271Y-4.6019
X5.7271Y-4.6574
X5.7271Y-4.7129
X5.7271Y-4.7684
X5.7271Y-4.8239
X5.7271Y-4.8794
X5.7271Y-4.9349
X5.7271Y-4.9904
X5.7271Y-5.0458
X5.7271Y-5.1013
X5.7271Y-5.1568
X5.7271Y-5.2123
X5.7271Y-5.6008
X5.7271Y-5.6563
X5.7271Y-5.7118
X5.7271Y-5.7673
X5.7271Y-5.8228
X5.7271Y-5.8783
X5.7271Y-5.9338
X5.7271Y-5.9893
X5.7271Y-6.0448
X5.7271Y-6.1003
X5.7271Y-6.1558
X5.7271Y-6.2113
X5.7271Y-6.2668
X5.7271Y-6.3223
X5.7271Y-6.3778
X5.7271Y-6.4332
X5.7271Y-6.4887
X5.7271Y-6.5442
X5.7271Y-6.5997
X5.7356Y-5.3016
X5.7356Y-5.3311
X5.7356Y-5.3606
X5.7356Y-5.4394
X5.7356Y-5.4689
X5.7356Y-5.4984
X5.7652Y-5.3016
X5.7652Y-5.3311
X5.7652Y-5.3606
X5.7652Y-5.4394
X5.7652Y-5.4689
X5.7652Y-5.4984
X5.7826Y-3.3255
X5.7826Y-3.381
X5.7826Y-3.4365
X5.7826Y-3.492
X5.7826Y-3.5475
X5.7826Y-3.6029
X5.7826Y-3.6584
X5.7826Y-3.7139
X5.7826Y-3.7694
X5.7826Y-3.8249
X5.7826Y-3.8804
X5.7826Y-3.9359
X5.7826Y-3.9914
X5.7826Y-4.0469
X5.7826Y-4.1024
X5.7826Y-4.1579
X5.7826Y-4.2134
X5.7826Y-4.2689
X5.7826Y-4.3244
X5.7826Y-4.3799
X5.7826Y-4.4354
X5.7826Y-4.4909
X5.7826Y-4.5464
X5.7826Y-4.6019
X5.7826Y-4.6574
X5.7826Y-4.7129
X5.7826Y-4.7684
X5.7826Y-4.8239
X5.7826Y-4.8794
X5.7826Y-4.9349
X5.7826Y-4.9904
X5.7826Y-5.0458
X5.7826Y-5.1013
X5.7826Y-5.1568
X5.7826Y-5.2123
X5.7826Y-5.6008
X5.7826Y-5.6563
X5.7826Y-5.7118
X5.7826Y-5.7673
X5.7826Y-5.8228
X5.7826Y-5.8783
X5.7826Y-5.9338
X5.7826Y-5.9893
X5.7826Y-6.0448
X5.7826Y-6.1003
X5.7826Y-6.1558
X5.7826Y-6.2113
X5.7826Y-6.2668
X5.7826Y-6.3223
X5.7826Y-6.3778
X5.7826Y-6.4332
X5.7826Y-6.4887
X5.7826Y-6.5442
X5.7826Y-6.5997
X5.7949Y-5.3016
X5.7949Y-5.3311
X5.7949Y-5.3606
X5.7949Y-5.4394
X5.7949Y-5.4689
X5.7949Y-5.4984
X5.8245Y-5.3016
X5.8245Y-5.3311
X5.8245Y-5.3606
X5.8245Y-5.4394
X5.8245Y-5.4689
X5.8245Y-5.4984
X5.8381Y-3.3255
X5.8381Y-3.381
X5.8381Y-3.4365
X5.8381Y-3.492
X5.8381Y-3.5475
X5.8381Y-3.6029
X5.8381Y-3.6584
X5.8381Y-3.7139
X5.8381Y-3.7694
X5.8381Y-3.8249
X5.8381Y-3.8804
X5.8381Y-3.9359
X5.8381Y-3.9914
X5.8381Y-4.0469
X5.8381Y-4.1024
X5.8381Y-4.1579
X5.8381Y-4.2134
X5.8381Y-4.2689
X5.8381Y-4.3244
X5.8381Y-4.3799
X5.8381Y-4.4354
X5.8381Y-4.4909
X5.8381Y-4.5464
X5.8381Y-4.6019
X5.8381Y-4.6574
X5.8381Y-4.7129
X5.8381Y-4.7684
X5.8381Y-4.8239
X5.8381Y-4.8794
X5.8381Y-4.9349
X5.8381Y-4.9904
X5.8381Y-5.0458
X5.8381Y-5.7673
X5.8381Y-5.8228
X5.8381Y-5.8783
X5.8381Y-5.9338
X5.8381Y-5.9893
X5.8381Y-6.0448
X5.8381Y-6.1003
X5.8381Y-6.1558
X5.8381Y-6.2113
X5.8381Y-6.2668
X5.8381Y-6.3223
X5.8381Y-6.3778
X5.8381Y-6.4332
X5.8381Y-6.4887
X5.8381Y-6.5442
X5.8381Y-6.5997
X5.8541Y-5.3016
X5.8541Y-5.3311
X5.8541Y-5.3606
X5.8541Y-5.4394
X5.8541Y-5.4689
X5.8541Y-5.4984
X5.8837Y-5.3016
X5.8837Y-5.3311
X5.8837Y-5.3606
X5.8837Y-5.4394
X5.8837Y-5.4689
X5.8837Y-5.4984
X5.8936Y-3.3255
X5.8936Y-3.381
X5.8936Y-3.4365
X5.8936Y-3.492
X5.8936Y-3.5475
X5.8936Y-3.6029
X5.8936Y-3.6584
X5.8936Y-3.7139
X5.8936Y-3.7694
X5.8936Y-3.8249
X5.8936Y-3.8804
X5.8936Y-3.9359
X5.8936Y-3.9914
X5.8936Y-4.0469
X5.8936Y-4.1024
X5.8936Y-4.1579
X5.8936Y-4.2134
X5.8936Y-4.2689
X5.8936Y-4.3244
X5.8936Y-4.3799
X5.8936Y-4.4354
X5.8936Y-4.4909
X5.8936Y-4.5464
X5.8936Y-4.6019
X5.8936Y-4.6574
X5.8936Y-4.7129
X5.8936Y-4.7684
X5.8936Y-4.8239
X5.8936Y-4.8794
X5.8936Y-4.9349
X5.8936Y-4.9904
X5.8936Y-5.0458
X5.8936Y-5.7673
X5.8936Y-5.8228
X5.8936Y-5.8783
X5.8936Y-5.9338
X5.8936Y-5.9893
X5.8936Y-6.0448
X5.8936Y-6.1003
X5.8936Y-6.1558
X5.8936Y-6.2113
X5.8936Y-6.2668
X5.8936Y-6.3223
X5.8936Y-6.3778
X5.8936Y-6.4332
X5.8936Y-6.4887
X5.8936Y-6.5442
X5.8936Y-6.5997
X5.9134Y-5.3016
X5.9134Y-5.3311
X5.9134Y-5.3606
X5.9134Y-5.4394
X5.9134Y-5.4689
X5.9134Y-5.4984
X5.943Y-5.3016
X5.943Y-5.3311
X5.943Y-5.3606
X5.943Y-5.4394
X5.943Y-5.4689
X5.943Y-5.4984
X5.9491Y-3.3255
X5.9491Y-3.381
X5.9491Y-3.4365
X5.9491Y-3.492
X5.9491Y-3.5475
X5.9491Y-3.6029
X5.9491Y-3.6584
X5.9491Y-3.7139
X5.9491Y-3.7694
X5.9491Y-3.8249
X5.9491Y-3.8804
X5.9491Y-3.9359
X5.9491Y-3.9914
X5.9491Y-4.0469
X5.9491Y-4.1024
X5.9491Y-4.1579
X5.9491Y-4.2134
X5.9491Y-4.2689
X5.9491Y-4.3244
X5.9491Y-4.3799
X5.9491Y-4.4354
X5.9491Y-4.4909
X5.9491Y-4.5464
X5.9491Y-4.6019
X5.9491Y-4.6574
X5.9491Y-4.7129
X5.9491Y-4.7684
X5.9491Y-4.8239
X5.9491Y-4.8794
X5.9491Y-4.9349
X5.9491Y-4.9904
X5.9491Y-5.0458
X5.9491Y-5.7673
X5.9491Y-5.8228
X5.9491Y-5.8783
X5.9491Y-5.9338
X5.9491Y-5.9893
X5.9491Y-6.0448
X5.9491Y-6.1003
X5.9491Y-6.1558
X5.9491Y-6.2113
X5.9491Y-6.2668
X5.9491Y-6.3223
X5.9491Y-6.3778
X5.9491Y-6.4332
X5.9491Y-6.4887
X5.9491Y-6.5442
X5.9491Y-6.5997
T2
X1.558Y-5.078
X1.558Y-5.11
X1.558Y-5.142
X1.59Y-5.078
X1.59Y-5.11
X1.59Y-5.142
X1.622Y-5.078
X1.622Y-5.11
X1.622Y-5.142
X2.01Y-5.032
X2.01Y-5.062
X2.01Y-5.094
X2.01Y-5.126
X2.01Y-5.158
X2.01Y-5.19
X2.042Y-5.032
X2.042Y-5.062
X2.042Y-5.094
X2.042Y-5.126
X2.042Y-5.158
X2.042Y-5.19
X2.074Y-5.032
X2.074Y-5.062
X2.074Y-5.094
X2.074Y-5.126
X2.074Y-5.158
X2.074Y-5.19
X2.106Y-5.032
X2.106Y-5.062
X2.106Y-5.094
X2.106Y-5.126
X2.106Y-5.158
X2.106Y-5.19
X2.45Y-5.566
X2.45Y-5.598
X2.45Y-5.63
X2.45Y-5.662
X2.48Y-5.566
X2.48Y-5.598
X2.48Y-5.63
X2.48Y-5.662
X2.512Y-5.566
X2.512Y-5.598
X2.512Y-5.63
X2.512Y-5.662
X2.516Y-6.148
X2.516Y-6.18
X2.516Y-6.212
X2.5298Y-5.1295
X2.544Y-5.566
X2.544Y-5.598
X2.544Y-5.63
X2.544Y-5.662
X2.548Y-6.148
X2.548Y-6.18
X2.548Y-6.212
X2.576Y-5.566
X2.576Y-5.598
X2.576Y-5.63
X2.576Y-5.662
X2.578Y-5.112
X2.578Y-5.144
X2.58Y-6.148
X2.58Y-6.18
X2.58Y-6.212
X2.608Y-5.566
X2.608Y-5.598
X2.608Y-5.63
X2.608Y-5.662
X3.568Y-4.966
X3.568Y-4.998
X3.568Y-5.03
X3.568Y-5.062
X3.574Y-4.868
X3.606Y-4.868
X3.624Y-4.966
X3.624Y-4.998
X3.624Y-5.03
X3.624Y-5.062
X3.638Y-4.868
X3.67Y-4.868
X3.686Y-4.966
X3.686Y-4.998
X3.686Y-5.03
X3.686Y-5.062
X3.746Y-4.966
X3.746Y-4.998
X3.746Y-5.03
X3.746Y-5.062
X3.786Y-5.046
X3.818Y-5.046
X3.85Y-5.046
X3.866Y-4.86
X3.866Y-4.892
X3.866Y-4.924
X3.866Y-4.956
X3.882Y-5.046
X3.912Y-4.86
X3.912Y-4.892
X3.912Y-4.924
X3.912Y-4.956
X3.914Y-5.046
X3.946Y-5.046
X3.978Y-5.046
X4.01Y-5.046
X4.3784Y-4.5334
X4.38Y-4.505
X4.39Y-4.475
X4.415Y-4.42
X4.415Y-4.45
X4.425Y-4.925
X4.425Y-4.96
X4.44Y-4.99
X4.46Y-4.955
X4.47Y-4.99
X4.478Y-4.884
X4.5Y-4.99
X4.506Y-4.886
X4.53Y-4.99
X4.532Y-4.916
X4.536Y-4.884
X4.55Y-4.42
X4.55Y-4.45
X4.57Y-4.475
X4.5786Y-4.5339
X4.58Y-4.505
T3
X1.66Y-4.72
X1.76Y-4.72
X1.86Y-4.72
X2.88Y-6.0094
X2.88Y-6.1094
X2.88Y-6.2094
X3.26Y-4.32
X3.26Y-4.42
X3.26Y-4.52
X3.48Y-4.8206
X3.48Y-4.9206
X3.48Y-5.0206
X3.63Y-4.18
X3.73Y-4.18
X3.83Y-4.18
X3.93Y-4.18
X3.9694Y-5.82
X4.03Y-4.18
X4.0694Y-5.82
X4.1694Y-5.82
X5.21Y-4.57
X5.21Y-4.67
X5.21Y-4.77
X5.21Y-4.87
X5.21Y-4.97
X5.21Y-5.07
X5.21Y-5.17
M30
