%TF.GenerationSoftware,KiCad,Pcbnew,8.0.4*%
%TF.CreationDate,2025-12-21T14:13:32-08:00*%
%TF.ProjectId,Thesis,54686573-6973-42e6-9b69-6361645f7063,rev?*%
%TF.SameCoordinates,Original*%
%TF.FileFunction,Paste,Top*%
%TF.FilePolarity,Positive*%
%FSLAX46Y46*%
G04 Gerber Fmt 4.6, Leading zero omitted, Abs format (unit mm)*
G04 Created by KiCad (PCBNEW 8.0.4) date 2025-12-21 14:13:32*
%MOMM*%
%LPD*%
G01*
G04 APERTURE LIST*
G04 Aperture macros list*
%AMRoundRect*
0 Rectangle with rounded corners*
0 $1 Rounding radius*
0 $2 $3 $4 $5 $6 $7 $8 $9 X,Y pos of 4 corners*
0 Add a 4 corners polygon primitive as box body*
4,1,4,$2,$3,$4,$5,$6,$7,$8,$9,$2,$3,0*
0 Add four circle primitives for the rounded corners*
1,1,$1+$1,$2,$3*
1,1,$1+$1,$4,$5*
1,1,$1+$1,$6,$7*
1,1,$1+$1,$8,$9*
0 Add four rect primitives between the rounded corners*
20,1,$1+$1,$2,$3,$4,$5,0*
20,1,$1+$1,$4,$5,$6,$7,0*
20,1,$1+$1,$6,$7,$8,$9,0*
20,1,$1+$1,$8,$9,$2,$3,0*%
G04 Aperture macros list end*
%ADD10C,0.000000*%
%ADD11R,0.482600X5.003800*%
%ADD12R,5.994400X5.003800*%
%ADD13R,0.127000X0.127000*%
%ADD14R,5.003800X0.482600*%
%ADD15R,5.003800X5.994400*%
%ADD16R,0.000001X0.000001*%
%ADD17R,0.250000X0.500000*%
%ADD18R,0.500000X0.250000*%
%ADD19RoundRect,0.155000X-0.155000X0.212500X-0.155000X-0.212500X0.155000X-0.212500X0.155000X0.212500X0*%
%ADD20RoundRect,0.090000X-0.139000X-0.090000X0.139000X-0.090000X0.139000X0.090000X-0.139000X0.090000X0*%
%ADD21RoundRect,0.155000X-0.212500X-0.155000X0.212500X-0.155000X0.212500X0.155000X-0.212500X0.155000X0*%
%ADD22RoundRect,0.090000X-0.090000X0.139000X-0.090000X-0.139000X0.090000X-0.139000X0.090000X0.139000X0*%
%ADD23RoundRect,0.237500X0.250000X0.237500X-0.250000X0.237500X-0.250000X-0.237500X0.250000X-0.237500X0*%
%ADD24RoundRect,0.237500X-0.237500X0.250000X-0.237500X-0.250000X0.237500X-0.250000X0.237500X0.250000X0*%
%ADD25RoundRect,0.090000X0.139000X0.090000X-0.139000X0.090000X-0.139000X-0.090000X0.139000X-0.090000X0*%
%ADD26RoundRect,0.160000X-0.160000X0.197500X-0.160000X-0.197500X0.160000X-0.197500X0.160000X0.197500X0*%
%ADD27RoundRect,0.160000X-0.197500X-0.160000X0.197500X-0.160000X0.197500X0.160000X-0.197500X0.160000X0*%
%ADD28R,0.600000X0.250000*%
%ADD29R,0.250000X0.600000*%
%ADD30RoundRect,0.155000X0.155000X-0.212500X0.155000X0.212500X-0.155000X0.212500X-0.155000X-0.212500X0*%
%ADD31RoundRect,0.155000X0.212500X0.155000X-0.212500X0.155000X-0.212500X-0.155000X0.212500X-0.155000X0*%
%ADD32R,0.406400X0.508000*%
%ADD33R,1.498600X0.711200*%
%ADD34RoundRect,0.237500X0.237500X-0.250000X0.237500X0.250000X-0.237500X0.250000X-0.237500X-0.250000X0*%
%ADD35R,0.508000X0.406400*%
%ADD36R,0.711200X1.498600*%
%ADD37RoundRect,0.237500X-0.250000X-0.237500X0.250000X-0.237500X0.250000X0.237500X-0.250000X0.237500X0*%
%ADD38R,0.812800X0.254000*%
%ADD39R,0.254000X0.812800*%
%ADD40R,3.759200X3.759200*%
%ADD41RoundRect,0.237500X-0.237500X0.300000X-0.237500X-0.300000X0.237500X-0.300000X0.237500X0.300000X0*%
%ADD42RoundRect,0.237500X-0.237500X0.287500X-0.237500X-0.287500X0.237500X-0.287500X0.237500X0.287500X0*%
G04 APERTURE END LIST*
D10*
%TO.C,U3*%
G36*
X113692000Y-125376000D02*
G01*
X112012400Y-125376000D01*
X112012400Y-123696400D01*
X113692000Y-123696400D01*
X113692000Y-125376000D01*
G37*
G36*
X113692000Y-127255600D02*
G01*
X112012400Y-127255600D01*
X112012400Y-125576000D01*
X113692000Y-125576000D01*
X113692000Y-127255600D01*
G37*
G36*
X115571600Y-125376000D02*
G01*
X113892000Y-125376000D01*
X113892000Y-123696400D01*
X115571600Y-123696400D01*
X115571600Y-125376000D01*
G37*
G36*
X115571600Y-127255600D02*
G01*
X113892000Y-127255600D01*
X113892000Y-125576000D01*
X115571600Y-125576000D01*
X115571600Y-127255600D01*
G37*
%TD*%
D11*
%TO.C,J10*%
X64008000Y-85521800D03*
D12*
X68008500Y-85521800D03*
D13*
X66548000Y-85521800D03*
X61468000Y-85521800D03*
D12*
X60008314Y-85526622D03*
D13*
X66548000Y-85521800D03*
X61468000Y-85521800D03*
%TD*%
D14*
%TO.C,J9*%
X150825200Y-137160000D03*
D15*
X150825200Y-141160500D03*
D13*
X150825200Y-139700000D03*
X150825200Y-134620000D03*
D15*
X150820378Y-133160314D03*
D13*
X150825200Y-139700000D03*
X150825200Y-134620000D03*
%TD*%
D11*
%TO.C,J8*%
X92517054Y-167716200D03*
D12*
X88516554Y-167716200D03*
D13*
X89977054Y-167716200D03*
X95057054Y-167716200D03*
D12*
X96516740Y-167711378D03*
D13*
X89977054Y-167716200D03*
X95057054Y-167716200D03*
%TD*%
D11*
%TO.C,J6*%
X113534000Y-167716200D03*
D12*
X109533500Y-167716200D03*
D13*
X110994000Y-167716200D03*
X116074000Y-167716200D03*
D12*
X117533686Y-167711378D03*
D13*
X110994000Y-167716200D03*
X116074000Y-167716200D03*
%TD*%
D11*
%TO.C,J5*%
X126746000Y-85521800D03*
D12*
X130746500Y-85521800D03*
D13*
X129286000Y-85521800D03*
X124206000Y-85521800D03*
D12*
X122746314Y-85526622D03*
D13*
X129286000Y-85521800D03*
X124206000Y-85521800D03*
%TD*%
D11*
%TO.C,J4*%
X101278000Y-85521800D03*
D12*
X105278500Y-85521800D03*
D13*
X103818000Y-85521800D03*
X98738000Y-85521800D03*
D12*
X97278314Y-85526622D03*
D13*
X103818000Y-85521800D03*
X98738000Y-85521800D03*
%TD*%
D11*
%TO.C,J2*%
X64508000Y-167716200D03*
D12*
X60507500Y-167716200D03*
D13*
X61968000Y-167716200D03*
X67048000Y-167716200D03*
D12*
X68507686Y-167711378D03*
D13*
X61968000Y-167716200D03*
X67048000Y-167716200D03*
%TD*%
D14*
%TO.C,J1*%
X28117800Y-130548000D03*
D15*
X28117800Y-126547500D03*
D13*
X28117800Y-128008000D03*
X28117800Y-133088000D03*
D15*
X28122622Y-134547686D03*
D13*
X28117800Y-128008000D03*
X28117800Y-133088000D03*
%TD*%
D16*
%TO.C,U6*%
X64670500Y-129877500D03*
X64395500Y-129877500D03*
X64120500Y-129877500D03*
X63845500Y-129877500D03*
X64670500Y-130152500D03*
X64395500Y-130152500D03*
X64120500Y-130152500D03*
X63845500Y-130152500D03*
X64670500Y-130427500D03*
X64395500Y-130427500D03*
X64120500Y-130427500D03*
X63845500Y-130427500D03*
X64670500Y-130702500D03*
X64395500Y-130702500D03*
X64120500Y-130702500D03*
X63845500Y-130702500D03*
D17*
X65008000Y-129040000D03*
X64508000Y-129040000D03*
X64008000Y-129040000D03*
X63508000Y-129040000D03*
D18*
X63008000Y-129540000D03*
X63008000Y-130040000D03*
X63008000Y-130540000D03*
X63008000Y-131040000D03*
D17*
X63508000Y-131540000D03*
X64008000Y-131540000D03*
X64508000Y-131540000D03*
X65008000Y-131540000D03*
D18*
X65508000Y-131040000D03*
X65508000Y-130540000D03*
X65508000Y-130040000D03*
X65508000Y-129540000D03*
%TD*%
D19*
%TO.C,C7*%
X115316000Y-110176500D03*
X115316000Y-111311500D03*
%TD*%
D20*
%TO.C,L1*%
X114883500Y-153162000D03*
X115748500Y-153162000D03*
%TD*%
D21*
%TO.C,C47*%
X118558500Y-128016000D03*
X119693500Y-128016000D03*
%TD*%
D19*
%TO.C,C1*%
X68834000Y-155134500D03*
X68834000Y-156269500D03*
%TD*%
D22*
%TO.C,R16*%
X113538000Y-152297000D03*
X113538000Y-153162000D03*
%TD*%
D19*
%TO.C,C5*%
X115316000Y-114748500D03*
X115316000Y-115883500D03*
%TD*%
D23*
%TO.C,R5*%
X92606500Y-112014000D03*
X90781500Y-112014000D03*
%TD*%
D21*
%TO.C,C23*%
X117542500Y-130048000D03*
X118677500Y-130048000D03*
%TD*%
D24*
%TO.C,R15*%
X106680000Y-111355500D03*
X106680000Y-113180500D03*
%TD*%
D25*
%TO.C,L2*%
X94820000Y-153162000D03*
X93955000Y-153162000D03*
%TD*%
D26*
%TO.C,R1*%
X68834000Y-152564500D03*
X68834000Y-153759500D03*
%TD*%
D27*
%TO.C,R3*%
X113194500Y-113030000D03*
X114389500Y-113030000D03*
%TD*%
D16*
%TO.C,U10*%
X39535500Y-128935500D03*
X39535500Y-129510500D03*
X39535500Y-130085500D03*
X39535500Y-130660500D03*
X40110500Y-128935500D03*
X40110500Y-129510500D03*
X40110500Y-130085500D03*
X40110500Y-130660500D03*
X40685500Y-128935500D03*
X40685500Y-129510500D03*
X40685500Y-130085500D03*
X40685500Y-130660500D03*
X41260500Y-128935500D03*
X41260500Y-129510500D03*
X41260500Y-130085500D03*
X41260500Y-130660500D03*
D28*
X38698000Y-128548000D03*
X38698000Y-129048000D03*
X38698000Y-129548000D03*
X38698000Y-130048000D03*
X38698000Y-130548000D03*
X38698000Y-131048000D03*
D29*
X39148000Y-131498000D03*
X39648000Y-131498000D03*
X40148000Y-131498000D03*
X40648000Y-131498000D03*
X41148000Y-131498000D03*
X41648000Y-131498000D03*
D28*
X42098000Y-131048000D03*
X42098000Y-130548000D03*
X42098000Y-130048000D03*
X42098000Y-129548000D03*
X42098000Y-129048000D03*
X42098000Y-128548000D03*
D29*
X41648000Y-128098000D03*
X41148000Y-128098000D03*
X40648000Y-128098000D03*
X40148000Y-128098000D03*
X39648000Y-128098000D03*
X39148000Y-128098000D03*
%TD*%
D16*
%TO.C,*%
X66195800Y-143705000D03*
%TD*%
D19*
%TO.C,C2*%
X68834000Y-157674500D03*
X68834000Y-158809500D03*
%TD*%
D23*
%TO.C,R4*%
X96266000Y-114046000D03*
X94441000Y-114046000D03*
%TD*%
D30*
%TO.C,C26*%
X117094000Y-121979500D03*
X117094000Y-120844500D03*
%TD*%
%TO.C,C30*%
X117856000Y-118169500D03*
X117856000Y-117034500D03*
%TD*%
D19*
%TO.C,C8*%
X112268000Y-114748500D03*
X112268000Y-115883500D03*
%TD*%
D27*
%TO.C,R20*%
X36203000Y-126238000D03*
X37398000Y-126238000D03*
%TD*%
D31*
%TO.C,C27*%
X110490000Y-121666000D03*
X109355000Y-121666000D03*
%TD*%
D22*
%TO.C,C3*%
X113534000Y-154837000D03*
X113534000Y-155702000D03*
%TD*%
D32*
%TO.C,J3*%
X57150000Y-130048000D03*
X59690000Y-130048000D03*
D33*
X58420000Y-130848001D03*
X58420000Y-129247999D03*
%TD*%
D21*
%TO.C,C24*%
X116526500Y-129032000D03*
X117661500Y-129032000D03*
%TD*%
D24*
%TO.C,R8*%
X119380000Y-112625500D03*
X119380000Y-114450500D03*
%TD*%
D34*
%TO.C,R14*%
X104902000Y-113180500D03*
X104902000Y-111355500D03*
%TD*%
D16*
%TO.C,U1*%
X51158000Y-128673000D03*
X51158000Y-129423000D03*
X51158000Y-130173000D03*
X51158000Y-130923000D03*
X51908000Y-128673000D03*
X51908000Y-129423000D03*
X51908000Y-130173000D03*
X51908000Y-130923000D03*
X52658000Y-128673000D03*
X52658000Y-129423000D03*
X52658000Y-130173000D03*
X52658000Y-130923000D03*
X53408000Y-128673000D03*
X53408000Y-129423000D03*
X53408000Y-130173000D03*
X53408000Y-130923000D03*
D28*
X50083000Y-128048000D03*
X50083000Y-128548000D03*
X50083000Y-129048000D03*
X50083000Y-129548000D03*
X50083000Y-130048000D03*
X50083000Y-130548000D03*
X50083000Y-131048000D03*
X50083000Y-131548000D03*
D29*
X50533000Y-131998000D03*
X51033000Y-131998000D03*
X51533000Y-131998000D03*
X52033000Y-131998000D03*
X52533000Y-131998000D03*
X53033000Y-131998000D03*
X53533000Y-131998000D03*
X54033000Y-131998000D03*
D28*
X54483000Y-131548000D03*
X54483000Y-131048000D03*
X54483000Y-130548000D03*
X54483000Y-130048000D03*
X54483000Y-129548000D03*
X54483000Y-129048000D03*
X54483000Y-128548000D03*
X54483000Y-128048000D03*
D29*
X54033000Y-127598000D03*
X53533000Y-127598000D03*
X53033000Y-127598000D03*
X52533000Y-127598000D03*
X52033000Y-127598000D03*
X51533000Y-127598000D03*
X51033000Y-127598000D03*
X50533000Y-127598000D03*
%TD*%
D19*
%TO.C,C16*%
X112268000Y-110176500D03*
X112268000Y-111311500D03*
%TD*%
D31*
%TO.C,C17*%
X108517500Y-125984000D03*
X107382500Y-125984000D03*
%TD*%
%TO.C,C43*%
X110295500Y-129286000D03*
X109160500Y-129286000D03*
%TD*%
D21*
%TO.C,C48*%
X38743000Y-126238000D03*
X39878000Y-126238000D03*
%TD*%
D25*
%TO.C,L3*%
X91010000Y-153162000D03*
X90145000Y-153162000D03*
%TD*%
D20*
%TO.C,L6*%
X111327500Y-153162000D03*
X112192500Y-153162000D03*
%TD*%
D32*
%TO.C,J19*%
X44958000Y-130048000D03*
X47498000Y-130048000D03*
D33*
X46228000Y-130848001D03*
X46228000Y-129247999D03*
%TD*%
D30*
%TO.C,C11*%
X64008000Y-122360500D03*
X64008000Y-121225500D03*
%TD*%
%TO.C,C33*%
X119126000Y-123249500D03*
X119126000Y-122114500D03*
%TD*%
D35*
%TO.C,J17*%
X64008000Y-148844000D03*
X64008000Y-151384000D03*
D36*
X63207999Y-150114000D03*
X64808001Y-150114000D03*
%TD*%
D37*
%TO.C,R19*%
X104243500Y-123444000D03*
X106068500Y-123444000D03*
%TD*%
D38*
%TO.C,U3*%
X111340900Y-123726001D03*
X111340900Y-124226000D03*
X111340900Y-124725999D03*
X111340900Y-125226000D03*
X111340900Y-125726000D03*
X111340900Y-126226001D03*
X111340900Y-126726000D03*
X111340900Y-127225999D03*
D39*
X112042001Y-127927100D03*
X112542000Y-127927100D03*
X113041999Y-127927100D03*
X113542000Y-127927100D03*
X114042000Y-127927100D03*
X114542001Y-127927100D03*
X115042000Y-127927100D03*
X115541999Y-127927100D03*
D38*
X116243100Y-127225999D03*
X116243100Y-126726000D03*
X116243100Y-126226001D03*
X116243100Y-125726000D03*
X116243100Y-125226000D03*
X116243100Y-124725999D03*
X116243100Y-124226000D03*
X116243100Y-123726001D03*
D39*
X115541999Y-123024900D03*
X115042000Y-123024900D03*
X114542001Y-123024900D03*
X114042000Y-123024900D03*
X113542000Y-123024900D03*
X113041999Y-123024900D03*
X112542000Y-123024900D03*
X112042001Y-123024900D03*
D40*
X113792000Y-125476000D03*
%TD*%
D31*
%TO.C,C35*%
X108517500Y-127254000D03*
X107382500Y-127254000D03*
%TD*%
D22*
%TO.C,C6*%
X92517054Y-154761500D03*
X92517054Y-155626500D03*
%TD*%
D25*
%TO.C,C9*%
X130659000Y-137160000D03*
X129794000Y-137160000D03*
%TD*%
D41*
%TO.C,C21*%
X99060000Y-151283500D03*
X99060000Y-153008500D03*
%TD*%
D16*
%TO.C,U2*%
X65383000Y-141455000D03*
X64633000Y-141455000D03*
X63883000Y-141455000D03*
X63133000Y-141455000D03*
X65383000Y-142205000D03*
X64633000Y-142205000D03*
X63883000Y-142205000D03*
X63133000Y-142205000D03*
X65383000Y-142955000D03*
X64633000Y-142955000D03*
X63883000Y-142955000D03*
X63133000Y-142955000D03*
X65383000Y-143705000D03*
X64633000Y-143705000D03*
X63883000Y-143705000D03*
X63133000Y-143705000D03*
D29*
X66008000Y-140380000D03*
X65508000Y-140380000D03*
X65008000Y-140380000D03*
X64508000Y-140380000D03*
X64008000Y-140380000D03*
X63508000Y-140380000D03*
X63008000Y-140380000D03*
X62508000Y-140380000D03*
D28*
X62058000Y-140830000D03*
X62058000Y-141330000D03*
X62058000Y-141830000D03*
X62058000Y-142330000D03*
X62058000Y-142830000D03*
X62058000Y-143330000D03*
X62058000Y-143830000D03*
X62058000Y-144330000D03*
D29*
X62508000Y-144780000D03*
X63008000Y-144780000D03*
X63508000Y-144780000D03*
X64008000Y-144780000D03*
X64508000Y-144780000D03*
X65008000Y-144780000D03*
X65508000Y-144780000D03*
X66008000Y-144780000D03*
D28*
X66458000Y-144330000D03*
X66458000Y-143830000D03*
X66458000Y-143330000D03*
X66458000Y-142830000D03*
X66458000Y-142330000D03*
X66458000Y-141830000D03*
X66458000Y-141330000D03*
X66458000Y-140830000D03*
%TD*%
D23*
%TO.C,R6*%
X99718500Y-116078000D03*
X97893500Y-116078000D03*
%TD*%
D21*
%TO.C,C4*%
X41148000Y-126238000D03*
X42283000Y-126238000D03*
%TD*%
D31*
%TO.C,C34*%
X107442000Y-128270000D03*
X106307000Y-128270000D03*
%TD*%
D22*
%TO.C,L4*%
X130659000Y-138659000D03*
X130659000Y-139524000D03*
%TD*%
D41*
%TO.C,C20*%
X101570000Y-151283500D03*
X101570000Y-153008500D03*
%TD*%
%TO.C,C18*%
X106590000Y-151283500D03*
X106590000Y-153008500D03*
%TD*%
D22*
%TO.C,R17*%
X92517054Y-152221500D03*
X92517054Y-153086500D03*
%TD*%
D42*
%TO.C,D1*%
X108458000Y-111393000D03*
X108458000Y-113143000D03*
%TD*%
D31*
%TO.C,C28*%
X110490000Y-120396000D03*
X109355000Y-120396000D03*
%TD*%
D21*
%TO.C,C41*%
X118558500Y-127000000D03*
X119693500Y-127000000D03*
%TD*%
D30*
%TO.C,C29*%
X116586000Y-119693500D03*
X116586000Y-118558500D03*
%TD*%
D16*
%TO.C,U8*%
X65620500Y-156129500D03*
X65045500Y-156129500D03*
X64470500Y-156129500D03*
X63895500Y-156129500D03*
X65620500Y-156704500D03*
X65045500Y-156704500D03*
X64470500Y-156704500D03*
X63895500Y-156704500D03*
X65620500Y-157279500D03*
X65045500Y-157279500D03*
X64470500Y-157279500D03*
X63895500Y-157279500D03*
X65620500Y-157854500D03*
X65045500Y-157854500D03*
X64470500Y-157854500D03*
X63895500Y-157854500D03*
D29*
X66008000Y-155292000D03*
X65508000Y-155292000D03*
X65008000Y-155292000D03*
X64508000Y-155292000D03*
X64008000Y-155292000D03*
X63508000Y-155292000D03*
D28*
X63058000Y-155742000D03*
X63058000Y-156242000D03*
X63058000Y-156742000D03*
X63058000Y-157242000D03*
X63058000Y-157742000D03*
X63058000Y-158242000D03*
D29*
X63508000Y-158692000D03*
X64008000Y-158692000D03*
X64508000Y-158692000D03*
X65008000Y-158692000D03*
X65508000Y-158692000D03*
X66008000Y-158692000D03*
D28*
X66458000Y-158242000D03*
X66458000Y-157742000D03*
X66458000Y-157242000D03*
X66458000Y-156742000D03*
X66458000Y-156242000D03*
X66458000Y-155742000D03*
%TD*%
D37*
%TO.C,R7*%
X88749500Y-109728000D03*
X90574500Y-109728000D03*
%TD*%
D16*
%TO.C,*%
X62182600Y-143705000D03*
%TD*%
D21*
%TO.C,C37*%
X118812500Y-124714000D03*
X119947500Y-124714000D03*
%TD*%
D35*
%TO.C,J16*%
X64008000Y-135636000D03*
X64008000Y-138176000D03*
D36*
X63207999Y-136906000D03*
X64808001Y-136906000D03*
%TD*%
D19*
%TO.C,C10*%
X64008000Y-133163500D03*
X64008000Y-134298500D03*
%TD*%
D30*
%TO.C,C25*%
X118110000Y-120963500D03*
X118110000Y-119828500D03*
%TD*%
D41*
%TO.C,C19*%
X104080000Y-151283500D03*
X104080000Y-153008500D03*
%TD*%
D31*
%TO.C,C22*%
X106993500Y-124968000D03*
X105858500Y-124968000D03*
%TD*%
M02*
