M48
; DRILL file {KiCad 8.0.4} date 2025-12-20T23:30:35-0800
; FORMAT={-:-/ absolute / inch / decimal}
; #@! TF.CreationDate,2025-12-20T23:30:35-08:00
; #@! TF.GenerationSoftware,Kicad,Pcbnew,8.0.4
; #@! TF.FileFunction,Plated,1,4,PTH
FMAT,2
INCH
; #@! TA.AperFunction,Plated,PTH,ViaDrill
T1C0.0100
; #@! TA.AperFunction,Plated,PTH,ComponentDrill
T2C0.0394
%
G90
G05
T1
X3.4051Y-1.8358
X3.4051Y-1.8991
X3.4051Y-1.9625
X3.4051Y-2.0259
X3.4051Y-2.0892
X3.4051Y-2.1526
X3.4051Y-2.216
X3.4051Y-2.2793
X3.4051Y-2.9764
X3.4051Y-3.0398
X3.4051Y-3.1032
X3.4051Y-3.1665
X3.4051Y-3.2299
X3.4051Y-3.2933
X3.4051Y-3.3566
X3.4051Y-3.42
X3.4051Y-3.4834
X3.4051Y-3.5467
X3.4051Y-3.6101
X3.4051Y-3.6735
X3.4051Y-3.7369
X3.4051Y-3.8002
X3.4169Y-2.725
X3.4237Y-2.53
X3.4287Y-2.695
X3.4337Y-2.56
X3.4465Y-2.725
X3.447Y-2.5871
X3.447Y-2.6659
X3.4533Y-2.53
X3.4583Y-2.695
X3.4633Y-2.56
X3.4685Y-1.8358
X3.4685Y-1.8991
X3.4685Y-1.9625
X3.4685Y-2.0259
X3.4685Y-2.0892
X3.4685Y-2.1526
X3.4685Y-2.216
X3.4685Y-2.2793
X3.4685Y-2.9764
X3.4685Y-3.0398
X3.4685Y-3.1032
X3.4685Y-3.1665
X3.4685Y-3.2299
X3.4685Y-3.2933
X3.4685Y-3.3566
X3.4685Y-3.42
X3.4685Y-3.4834
X3.4685Y-3.5467
X3.4685Y-3.6101
X3.4685Y-3.6735
X3.4685Y-3.7369
X3.4685Y-3.8002
X3.4761Y-2.725
X3.4766Y-2.5871
X3.4766Y-2.6659
X3.4828Y-2.53
X3.4878Y-2.695
X3.4928Y-2.56
X3.5056Y-2.725
X3.5061Y-2.5871
X3.5061Y-2.6659
X3.5124Y-2.53
X3.5174Y-2.695
X3.5224Y-2.56
X3.5318Y-1.8358
X3.5318Y-1.8991
X3.5318Y-1.9625
X3.5318Y-2.0259
X3.5318Y-2.0892
X3.5318Y-2.1526
X3.5318Y-2.216
X3.5318Y-2.2793
X3.5318Y-2.9764
X3.5318Y-3.0398
X3.5318Y-3.1032
X3.5318Y-3.1665
X3.5318Y-3.2299
X3.5318Y-3.2933
X3.5318Y-3.3566
X3.5318Y-3.42
X3.5318Y-3.4834
X3.5318Y-3.5467
X3.5318Y-3.6101
X3.5318Y-3.6735
X3.5318Y-3.7369
X3.5318Y-3.8002
X3.5352Y-2.725
X3.5357Y-2.5871
X3.5357Y-2.6659
X3.5419Y-2.53
X3.5469Y-2.695
X3.5519Y-2.56
X3.5647Y-2.725
X3.5652Y-2.5871
X3.5652Y-2.6659
X3.5715Y-2.53
X3.5765Y-2.695
X3.5815Y-2.56
X3.5943Y-2.725
X3.5948Y-2.5871
X3.5948Y-2.6659
X3.5952Y-1.8358
X3.5952Y-1.8991
X3.5952Y-1.9625
X3.5952Y-2.0259
X3.5952Y-2.0892
X3.5952Y-2.1526
X3.5952Y-2.216
X3.5952Y-2.2793
X3.5952Y-2.9764
X3.5952Y-3.0398
X3.5952Y-3.1032
X3.5952Y-3.1665
X3.5952Y-3.2299
X3.5952Y-3.2933
X3.5952Y-3.3566
X3.5952Y-3.42
X3.5952Y-3.4834
X3.5952Y-3.5467
X3.5952Y-3.6101
X3.5952Y-3.6735
X3.5952Y-3.7369
X3.5952Y-3.8002
X3.6011Y-2.53
X3.6061Y-2.695
X3.6111Y-2.56
X3.6239Y-2.725
X3.6243Y-2.5871
X3.6243Y-2.6659
X3.6306Y-2.53
X3.6356Y-2.695
X3.6406Y-2.56
X3.6534Y-2.725
X3.6539Y-2.5871
X3.6539Y-2.6659
X3.6586Y-1.8358
X3.6586Y-1.8991
X3.6586Y-1.9625
X3.6586Y-2.0259
X3.6586Y-2.0892
X3.6586Y-2.1526
X3.6586Y-2.216
X3.6586Y-2.2793
X3.6586Y-2.3427
X3.6586Y-2.4061
X3.6586Y-2.8497
X3.6586Y-2.913
X3.6586Y-2.9764
X3.6586Y-3.0398
X3.6586Y-3.1032
X3.6586Y-3.1665
X3.6586Y-3.2299
X3.6586Y-3.2933
X3.6586Y-3.3566
X3.6586Y-3.42
X3.6586Y-3.4834
X3.6586Y-3.5467
X3.6586Y-3.6101
X3.6586Y-3.6735
X3.6586Y-3.7369
X3.6586Y-3.8002
X3.6602Y-2.53
X3.6652Y-2.695
X3.6702Y-2.56
X3.683Y-2.725
X3.6835Y-2.5871
X3.6835Y-2.6659
X3.6897Y-2.53
X3.6947Y-2.695
X3.6997Y-2.56
X3.7125Y-2.725
X3.713Y-2.5871
X3.713Y-2.6659
X3.7193Y-2.53
X3.7219Y-1.8358
X3.7219Y-1.8991
X3.7219Y-1.9625
X3.7219Y-2.0259
X3.7219Y-2.0892
X3.7219Y-2.1526
X3.7219Y-2.216
X3.7219Y-2.2793
X3.7219Y-2.3427
X3.7219Y-2.4061
X3.7219Y-2.8497
X3.7219Y-2.913
X3.7219Y-2.9764
X3.7219Y-3.0398
X3.7219Y-3.1032
X3.7219Y-3.1665
X3.7219Y-3.2299
X3.7219Y-3.2933
X3.7219Y-3.3566
X3.7219Y-3.42
X3.7219Y-3.4834
X3.7219Y-3.5467
X3.7219Y-3.6101
X3.7219Y-3.6735
X3.7219Y-3.7369
X3.7219Y-3.8002
X3.7243Y-2.695
X3.7293Y-2.56
X3.7421Y-2.725
X3.7426Y-2.5871
X3.7426Y-2.6659
X3.7489Y-2.53
X3.7539Y-2.695
X3.7589Y-2.56
X3.7716Y-2.725
X3.7721Y-2.5871
X3.7721Y-2.6659
X3.7784Y-2.53
X3.7834Y-2.695
X3.7853Y-1.8358
X3.7853Y-1.8991
X3.7853Y-1.9625
X3.7853Y-2.0259
X3.7853Y-2.0892
X3.7853Y-2.1526
X3.7853Y-2.216
X3.7853Y-2.2793
X3.7853Y-2.3427
X3.7853Y-2.4061
X3.7853Y-2.8497
X3.7853Y-2.913
X3.7853Y-2.9764
X3.7853Y-3.0398
X3.7853Y-3.1032
X3.7853Y-3.1665
X3.7853Y-3.2299
X3.7853Y-3.2933
X3.7853Y-3.3566
X3.7853Y-3.42
X3.7853Y-3.4834
X3.7853Y-3.5467
X3.7853Y-3.6101
X3.7853Y-3.6735
X3.7853Y-3.7369
X3.7853Y-3.8002
X3.7884Y-2.56
X3.8012Y-2.725
X3.8017Y-2.5871
X3.8017Y-2.6659
X3.808Y-2.53
X3.813Y-2.695
X3.818Y-2.56
X3.8308Y-2.725
X3.8312Y-2.5871
X3.8312Y-2.6659
X3.8375Y-2.53
X3.8425Y-2.695
X3.8475Y-2.56
X3.8487Y-1.8358
X3.8487Y-1.8991
X3.8487Y-1.9625
X3.8487Y-2.0259
X3.8487Y-2.0892
X3.8487Y-2.1526
X3.8487Y-2.216
X3.8487Y-2.2793
X3.8487Y-2.3427
X3.8487Y-2.4061
X3.8487Y-2.8497
X3.8487Y-2.913
X3.8487Y-2.9764
X3.8487Y-3.0398
X3.8487Y-3.1032
X3.8487Y-3.1665
X3.8487Y-3.2299
X3.8487Y-3.2933
X3.8487Y-3.3566
X3.8487Y-3.42
X3.8487Y-3.4834
X3.8487Y-3.5467
X3.8487Y-3.6101
X3.8487Y-3.6735
X3.8487Y-3.7369
X3.8487Y-3.8002
X3.8603Y-2.725
X3.8608Y-2.5871
X3.8608Y-2.6659
X3.8671Y-2.53
X3.8721Y-2.695
X3.8771Y-2.56
X3.8899Y-2.725
X3.8904Y-2.5871
X3.8904Y-2.6659
X3.8966Y-2.53
X3.9016Y-2.695
X3.9066Y-2.56
X3.9121Y-1.8358
X3.9121Y-1.8991
X3.9121Y-1.9625
X3.9121Y-2.0259
X3.9121Y-2.0892
X3.9121Y-2.1526
X3.9121Y-2.216
X3.9121Y-2.2793
X3.9121Y-2.3427
X3.9121Y-2.4061
X3.9121Y-2.8497
X3.9121Y-2.913
X3.9121Y-2.9764
X3.9121Y-3.0398
X3.9121Y-3.1032
X3.9121Y-3.1665
X3.9121Y-3.2299
X3.9121Y-3.2933
X3.9121Y-3.3566
X3.9121Y-3.42
X3.9121Y-3.4834
X3.9121Y-3.5467
X3.9121Y-3.6101
X3.9121Y-3.6735
X3.9121Y-3.7369
X3.9121Y-3.8002
X3.9194Y-2.725
X3.9199Y-2.5871
X3.9199Y-2.6659
X3.9262Y-2.53
X3.9312Y-2.695
X3.9362Y-2.56
X3.949Y-2.725
X3.9495Y-2.5871
X3.9495Y-2.6659
X3.9558Y-2.53
X3.9608Y-2.695
X3.9658Y-2.56
X3.9754Y-1.8358
X3.9754Y-1.8991
X3.9754Y-1.9625
X3.9754Y-2.0259
X3.9754Y-2.0892
X3.9754Y-2.1526
X3.9754Y-2.216
X3.9754Y-2.2793
X3.9754Y-2.3427
X3.9754Y-2.4061
X3.9754Y-2.8497
X3.9754Y-2.913
X3.9754Y-2.9764
X3.9754Y-3.0398
X3.9754Y-3.1032
X3.9754Y-3.1665
X3.9754Y-3.2299
X3.9754Y-3.2933
X3.9754Y-3.3566
X3.9754Y-3.42
X3.9754Y-3.4834
X3.9754Y-3.5467
X3.9754Y-3.6101
X3.9754Y-3.6735
X3.9754Y-3.7369
X3.9754Y-3.8002
X3.9785Y-2.725
X3.979Y-2.5871
X3.979Y-2.6659
X3.9853Y-2.53
X3.9903Y-2.695
X3.9953Y-2.56
X4.0081Y-2.725
X4.0086Y-2.5871
X4.0086Y-2.6659
X4.0149Y-2.53
X4.0199Y-2.695
X4.0249Y-2.56
X4.0377Y-2.725
X4.0381Y-2.5871
X4.0381Y-2.6659
X4.0388Y-1.8358
X4.0388Y-1.8991
X4.0388Y-1.9625
X4.0388Y-2.0259
X4.0388Y-2.0892
X4.0388Y-2.1526
X4.0388Y-2.216
X4.0388Y-2.2793
X4.0388Y-2.3427
X4.0388Y-2.4061
X4.0388Y-2.8497
X4.0388Y-2.913
X4.0388Y-2.9764
X4.0388Y-3.0398
X4.0388Y-3.1032
X4.0388Y-3.1665
X4.0388Y-3.2299
X4.0388Y-3.2933
X4.0388Y-3.3566
X4.0388Y-3.42
X4.0388Y-3.4834
X4.0388Y-3.5467
X4.0388Y-3.6101
X4.0388Y-3.6735
X4.0388Y-3.7369
X4.0388Y-3.8002
X4.0444Y-2.53
X4.0494Y-2.695
X4.0544Y-2.56
X4.0672Y-2.725
X4.0677Y-2.5871
X4.0677Y-2.6659
X4.074Y-2.53
X4.079Y-2.695
X4.084Y-2.56
X4.0968Y-2.725
X4.0973Y-2.5871
X4.0973Y-2.6659
X4.1022Y-1.8358
X4.1022Y-1.8991
X4.1022Y-1.9625
X4.1022Y-2.0259
X4.1022Y-2.0892
X4.1022Y-2.1526
X4.1022Y-2.216
X4.1022Y-2.2793
X4.1022Y-2.3427
X4.1022Y-2.4061
X4.1022Y-2.9764
X4.1022Y-3.0398
X4.1022Y-3.1032
X4.1022Y-3.1665
X4.1022Y-3.2299
X4.1022Y-3.2933
X4.1022Y-3.3566
X4.1022Y-3.42
X4.1022Y-3.4834
X4.1022Y-3.5467
X4.1022Y-3.6101
X4.1022Y-3.6735
X4.1022Y-3.7369
X4.1022Y-3.8002
X4.1035Y-2.53
X4.1085Y-2.695
X4.1135Y-2.56
X4.12Y-2.845
X4.12Y-2.905
X4.1263Y-2.725
X4.1268Y-2.5871
X4.1268Y-2.6659
X4.1331Y-2.53
X4.1381Y-2.695
X4.1431Y-2.56
X4.1559Y-2.725
X4.1564Y-2.5871
X4.1564Y-2.6659
X4.1627Y-2.53
X4.1655Y-1.8358
X4.1655Y-1.8991
X4.1655Y-1.9625
X4.1655Y-2.0259
X4.1655Y-2.0892
X4.1655Y-2.1526
X4.1655Y-2.216
X4.1655Y-2.2793
X4.1655Y-2.3427
X4.1655Y-2.4061
X4.1655Y-3.1032
X4.1655Y-3.1665
X4.1655Y-3.2299
X4.1655Y-3.2933
X4.1655Y-3.3566
X4.1655Y-3.42
X4.1655Y-3.4834
X4.1655Y-3.5467
X4.1655Y-3.6101
X4.1655Y-3.6735
X4.1655Y-3.7369
X4.1655Y-3.8002
X4.1677Y-2.695
X4.1727Y-2.56
X4.1854Y-2.725
X4.1859Y-2.5871
X4.1859Y-2.6659
X4.1922Y-2.53
X4.1972Y-2.695
X4.2022Y-2.56
X4.215Y-2.725
X4.2155Y-2.5871
X4.2155Y-2.6659
X4.2218Y-2.53
X4.2268Y-2.695
X4.2289Y-1.8358
X4.2289Y-1.8991
X4.2289Y-1.9625
X4.2289Y-2.0259
X4.2289Y-2.0892
X4.2289Y-2.1526
X4.2289Y-2.216
X4.2289Y-2.2793
X4.2289Y-2.3427
X4.2289Y-2.4061
X4.2289Y-3.1665
X4.2289Y-3.2299
X4.2289Y-3.2933
X4.2289Y-3.3566
X4.2289Y-3.42
X4.2289Y-3.4834
X4.2289Y-3.5467
X4.2289Y-3.6101
X4.2289Y-3.6735
X4.2289Y-3.7369
X4.2289Y-3.8002
X4.2318Y-2.56
X4.2451Y-2.5871
X4.2451Y-2.6659
X4.2513Y-2.53
X4.2563Y-2.695
X4.2613Y-2.56
X4.2746Y-2.5871
X4.2746Y-2.6659
X4.2809Y-2.53
X4.2859Y-2.695
X4.2909Y-2.56
X4.2923Y-1.8358
X4.2923Y-1.8991
X4.2923Y-1.9625
X4.2923Y-2.0259
X4.2923Y-2.0892
X4.2923Y-2.1526
X4.2923Y-2.216
X4.2923Y-2.2793
X4.2923Y-2.913
X4.2923Y-3.1665
X4.2923Y-3.2299
X4.2923Y-3.2933
X4.2923Y-3.3566
X4.2923Y-3.42
X4.2923Y-3.4834
X4.2923Y-3.5467
X4.2923Y-3.6101
X4.2923Y-3.6735
X4.2923Y-3.7369
X4.2923Y-3.8002
X4.3042Y-2.5871
X4.3042Y-2.6659
X4.305Y-2.375
X4.305Y-2.425
X4.305Y-3.01
X4.3104Y-2.53
X4.315Y-2.825
X4.3154Y-2.695
X4.3204Y-2.56
X4.3337Y-2.5871
X4.3337Y-2.6659
X4.34Y-2.53
X4.345Y-2.695
X4.345Y-2.885
X4.345Y-2.935
X4.35Y-2.56
X4.3556Y-1.8358
X4.3556Y-1.8991
X4.3556Y-1.9625
X4.3556Y-2.0259
X4.3556Y-2.0892
X4.3556Y-2.1526
X4.3556Y-3.1665
X4.3556Y-3.2299
X4.3556Y-3.2933
X4.3556Y-3.4834
X4.3556Y-3.5467
X4.3556Y-3.6101
X4.3556Y-3.6735
X4.3556Y-3.7369
X4.3556Y-3.8002
X4.3633Y-2.5871
X4.3633Y-2.6659
X4.3696Y-2.53
X4.3746Y-2.695
X4.375Y-2.825
X4.3796Y-2.56
X4.3928Y-2.5871
X4.3928Y-2.6659
X4.3991Y-2.53
X4.4091Y-2.56
X4.419Y-1.8358
X4.419Y-1.8991
X4.419Y-1.9625
X4.419Y-2.0259
X4.419Y-2.0892
X4.419Y-2.1526
X4.419Y-3.1665
X4.419Y-3.2299
X4.419Y-3.2933
X4.419Y-3.4834
X4.419Y-3.5467
X4.419Y-3.6101
X4.419Y-3.6735
X4.419Y-3.7369
X4.419Y-3.8002
X4.4224Y-2.5871
X4.4224Y-2.6659
X4.44Y-2.375
X4.44Y-2.425
X4.44Y-2.775
X4.452Y-2.5871
X4.452Y-2.6659
X4.46Y-2.31
X4.465Y-2.54
X4.475Y-2.925
X4.475Y-2.975
X4.4824Y-1.8358
X4.4824Y-1.8991
X4.4824Y-1.9625
X4.4824Y-2.0259
X4.4824Y-2.0892
X4.4824Y-2.1526
X4.4824Y-3.4834
X4.4824Y-3.5467
X4.4824Y-3.6101
X4.4824Y-3.6735
X4.4824Y-3.7369
X4.4824Y-3.8002
X4.495Y-2.58
X4.495Y-2.61
X4.495Y-2.645
X4.495Y-2.68
X4.53Y-2.58
X4.53Y-2.61
X4.53Y-2.645
X4.53Y-2.68
X4.5458Y-1.9625
X4.5458Y-2.0259
X4.5458Y-2.0892
X4.5458Y-3.4834
X4.5458Y-3.5467
X4.5458Y-3.6101
X4.5458Y-3.6735
X4.5458Y-3.7369
X4.5458Y-3.8002
X4.565Y-2.58
X4.565Y-2.61
X4.565Y-2.645
X4.565Y-2.68
X4.57Y-2.32
X4.58Y-2.355
X4.58Y-2.39
X4.58Y-2.425
X4.5845Y-2.9528
X4.585Y-2.9
X4.6Y-2.58
X4.6Y-2.61
X4.6Y-2.645
X4.6Y-2.68
X4.6091Y-3.1032
X4.6091Y-3.1665
X4.6091Y-3.2299
X4.6091Y-3.2933
X4.6091Y-3.4834
X4.6091Y-3.5467
X4.6091Y-3.6101
X4.6091Y-3.6735
X4.6091Y-3.7369
X4.6091Y-3.8002
X4.6449Y-2.5871
X4.645Y-2.655
X4.6725Y-3.1032
X4.6725Y-3.1665
X4.6725Y-3.2299
X4.6725Y-3.2933
X4.6725Y-3.4834
X4.6725Y-3.5467
X4.6725Y-3.6101
X4.6725Y-3.6735
X4.6725Y-3.7369
X4.6725Y-3.8002
X4.6749Y-2.5871
X4.68Y-2.885
X4.6899Y-2.56
X4.69Y-3.005
X4.695Y-2.955
X4.7049Y-2.53
X4.705Y-2.5871
X4.7137Y-2.3731
X4.715Y-2.315
X4.7199Y-2.56
X4.7349Y-2.53
X4.7351Y-2.5871
X4.7359Y-3.0398
X4.7359Y-3.1032
X4.7359Y-3.1665
X4.7359Y-3.2299
X4.7359Y-3.2933
X4.7359Y-3.4834
X4.7359Y-3.5467
X4.7359Y-3.6101
X4.7359Y-3.6735
X4.7359Y-3.7369
X4.7359Y-3.8002
X4.75Y-2.56
X4.765Y-2.53
X4.7651Y-2.5871
X4.7801Y-2.56
X4.785Y-2.74
X4.7951Y-2.53
X4.7952Y-2.5871
X4.7992Y-1.8358
X4.7992Y-1.8991
X4.7992Y-1.9625
X4.7992Y-2.0259
X4.7992Y-2.2793
X4.7992Y-2.3427
X4.7992Y-2.4061
X4.7992Y-3.4834
X4.7992Y-3.5467
X4.7992Y-3.6101
X4.7992Y-3.6735
X4.7992Y-3.7369
X4.7992Y-3.8002
X4.8101Y-2.56
X4.82Y-2.135
X4.82Y-2.165
X4.825Y-2.77
X4.8251Y-2.53
X4.8253Y-2.5871
X4.8402Y-2.56
X4.8552Y-2.53
X4.8553Y-2.5871
X4.86Y-2.8
X4.8626Y-1.8358
X4.8626Y-1.8991
X4.8626Y-1.9625
X4.8626Y-2.0259
X4.8626Y-2.0892
X4.8626Y-2.1526
X4.8626Y-2.216
X4.8626Y-2.2793
X4.8626Y-2.3427
X4.8626Y-2.4061
X4.8626Y-3.4834
X4.8626Y-3.5467
X4.8626Y-3.6101
X4.8626Y-3.6735
X4.8626Y-3.7369
X4.8626Y-3.8002
X4.8703Y-2.56
X4.875Y-2.965
X4.875Y-3.015
X4.8853Y-2.53
X4.8854Y-2.5871
X4.895Y-2.83
X4.9003Y-2.56
X4.9153Y-2.53
X4.9155Y-2.5871
X4.9155Y-2.6659
X4.926Y-1.8358
X4.926Y-1.8991
X4.926Y-1.9625
X4.926Y-2.0259
X4.926Y-2.0892
X4.926Y-2.1526
X4.926Y-2.216
X4.926Y-2.2793
X4.926Y-2.3427
X4.926Y-2.4061
X4.926Y-2.9764
X4.926Y-3.0398
X4.926Y-3.1032
X4.926Y-3.1665
X4.926Y-3.2299
X4.926Y-3.2933
X4.926Y-3.4834
X4.926Y-3.7369
X4.926Y-3.8002
X4.9304Y-2.56
X4.945Y-3.405
X4.9453Y-3.3522
X4.9454Y-2.53
X4.9455Y-2.5871
X4.9455Y-2.6659
X4.9605Y-2.56
X4.9649Y-2.695
X4.9755Y-2.53
X4.9756Y-2.5871
X4.9756Y-2.6659
X4.9849Y-2.725
X4.9888Y-3.405
X4.9888Y-3.4684
X4.9888Y-3.5317
X4.9891Y-3.223
X4.9891Y-3.2864
X4.9891Y-3.3522
X4.9893Y-1.8358
X4.9893Y-1.8991
X4.9893Y-1.9625
X4.9893Y-2.0259
X4.9893Y-2.0892
X4.9893Y-2.1526
X4.9893Y-2.216
X4.9893Y-2.2793
X4.9893Y-2.3427
X4.9893Y-2.4061
X4.9893Y-2.9764
X4.9893Y-3.0398
X4.9893Y-3.1032
X4.9893Y-3.1665
X4.9893Y-3.7369
X4.9893Y-3.8002
X4.9905Y-2.56
X4.995Y-2.695
X5.0055Y-2.53
X5.0057Y-2.5871
X5.0057Y-2.6659
X5.015Y-2.725
X5.0206Y-2.56
X5.0251Y-2.695
X5.0356Y-2.53
X5.0357Y-2.5871
X5.0357Y-2.6659
X5.0451Y-2.725
X5.0507Y-2.56
X5.0527Y-1.8358
X5.0527Y-1.8991
X5.0527Y-1.9625
X5.0527Y-2.0259
X5.0527Y-2.0892
X5.0527Y-2.1526
X5.0527Y-2.216
X5.0527Y-2.2793
X5.0527Y-2.3427
X5.0527Y-2.4061
X5.0527Y-3.7369
X5.0527Y-3.8002
X5.0551Y-2.695
X5.0657Y-2.53
X5.0658Y-2.5871
X5.0658Y-2.6659
X5.0751Y-2.725
X5.0807Y-2.56
X5.0852Y-2.695
X5.0957Y-2.53
X5.0959Y-2.5871
X5.0959Y-2.6659
X5.1052Y-2.725
X5.1108Y-2.56
X5.1153Y-2.695
X5.1161Y-1.8358
X5.1161Y-1.8991
X5.1161Y-1.9625
X5.1161Y-2.0259
X5.1161Y-2.0892
X5.1161Y-2.1526
X5.1161Y-2.216
X5.1161Y-2.2793
X5.1161Y-2.3427
X5.1161Y-2.4061
X5.1161Y-3.7369
X5.1161Y-3.8002
X5.1258Y-2.53
X5.126Y-2.5871
X5.126Y-2.6659
X5.13Y-3.075
X5.135Y-3.355
X5.135Y-3.49
X5.1353Y-2.725
X5.1409Y-2.56
X5.1453Y-2.695
X5.15Y-3.155
X5.1559Y-2.53
X5.156Y-2.5871
X5.156Y-2.6659
X5.1653Y-2.725
X5.17Y-3.24
X5.171Y-2.56
X5.1754Y-2.695
X5.1795Y-1.8358
X5.1795Y-1.8991
X5.1795Y-1.9625
X5.1795Y-2.0259
X5.1795Y-2.0892
X5.1795Y-2.1526
X5.1795Y-2.216
X5.1795Y-2.2793
X5.1795Y-2.3427
X5.1795Y-2.4061
X5.1795Y-3.6735
X5.1795Y-3.7369
X5.1795Y-3.8002
X5.186Y-2.53
X5.1861Y-2.5871
X5.1861Y-2.6659
X5.1954Y-2.725
X5.201Y-2.56
X5.2055Y-2.695
X5.21Y-3.205
X5.21Y-3.33
X5.216Y-2.53
X5.2162Y-2.5871
X5.2162Y-2.6659
X5.2255Y-2.725
X5.2311Y-2.56
X5.2355Y-2.695
X5.2428Y-1.8358
X5.2428Y-1.8991
X5.2428Y-1.9625
X5.2428Y-2.0259
X5.2428Y-2.0892
X5.2428Y-2.1526
X5.2428Y-2.216
X5.2428Y-2.2793
X5.2428Y-2.3427
X5.2428Y-2.4061
X5.2428Y-3.7369
X5.2428Y-3.8002
X5.245Y-2.925
X5.245Y-2.9884
X5.245Y-3.255
X5.245Y-3.295
X5.2461Y-2.53
X5.2462Y-2.5871
X5.2462Y-2.6659
X5.2466Y-3.055
X5.2555Y-2.725
X5.2612Y-2.56
X5.2656Y-2.695
X5.2762Y-2.53
X5.2763Y-2.5871
X5.2763Y-2.6659
X5.2856Y-2.725
X5.2912Y-2.56
X5.2957Y-2.695
X5.3062Y-1.8358
X5.3062Y-1.8991
X5.3062Y-1.9625
X5.3062Y-2.0259
X5.3062Y-2.0892
X5.3062Y-2.1526
X5.3062Y-2.216
X5.3062Y-2.2793
X5.3062Y-2.3427
X5.3062Y-2.4061
X5.3062Y-3.7369
X5.3062Y-3.8002
X5.3062Y-2.53
X5.3064Y-2.5871
X5.3064Y-2.6659
X5.3084Y-2.925
X5.3084Y-2.9884
X5.31Y-3.055
X5.3157Y-2.725
X5.3213Y-2.56
X5.3257Y-2.695
X5.3363Y-2.53
X5.3364Y-2.5871
X5.3364Y-2.6659
X5.3457Y-2.725
X5.3514Y-2.56
X5.355Y-3.05
X5.3558Y-2.695
X5.3664Y-2.53
X5.3665Y-2.5871
X5.3665Y-2.6659
X5.3696Y-1.8358
X5.3696Y-1.8991
X5.3696Y-1.9625
X5.3696Y-2.0259
X5.3696Y-2.0892
X5.3696Y-2.1526
X5.3696Y-2.216
X5.3696Y-2.2793
X5.3696Y-2.3427
X5.3696Y-2.4061
X5.3696Y-3.7369
X5.3696Y-3.8002
X5.3721Y-3.18
X5.3758Y-2.725
X5.3814Y-2.56
X5.3859Y-2.695
X5.39Y-3.2299
X5.39Y-3.2933
X5.39Y-3.3566
X5.39Y-3.42
X5.39Y-3.4834
X5.3964Y-2.53
X5.3966Y-2.5871
X5.3966Y-2.6659
X5.4059Y-2.725
X5.4115Y-2.56
X5.415Y-3.18
X5.416Y-2.695
X5.4265Y-2.53
X5.4266Y-2.5871
X5.4266Y-2.6659
X5.4329Y-1.8358
X5.4329Y-1.8991
X5.4329Y-1.9625
X5.4329Y-2.0259
X5.4329Y-2.0892
X5.4329Y-2.1526
X5.4329Y-2.216
X5.4329Y-2.2793
X5.4329Y-2.3427
X5.4329Y-2.4061
X5.4329Y-3.2299
X5.4329Y-3.2933
X5.4329Y-3.3566
X5.4329Y-3.42
X5.4329Y-3.4834
X5.4329Y-3.7369
X5.4329Y-3.8002
X5.436Y-2.725
X5.4416Y-2.56
X5.446Y-2.695
X5.4566Y-2.53
X5.4567Y-2.5871
X5.4567Y-2.6659
X5.466Y-2.725
X5.4716Y-2.56
X5.4761Y-2.695
X5.4866Y-2.53
X5.4868Y-2.5871
X5.4868Y-2.6659
X5.4961Y-2.725
X5.4963Y-1.8358
X5.4963Y-1.8991
X5.4963Y-1.9625
X5.4963Y-2.0259
X5.4963Y-2.0892
X5.4963Y-2.1526
X5.4963Y-2.216
X5.4963Y-2.2793
X5.4963Y-2.3427
X5.4963Y-2.4061
X5.4963Y-2.8497
X5.4963Y-2.913
X5.4963Y-2.9764
X5.4963Y-3.42
X5.4963Y-3.4834
X5.4963Y-3.7369
X5.4963Y-3.8002
X5.5017Y-2.56
X5.5062Y-2.695
X5.5167Y-2.53
X5.5168Y-2.5871
X5.5168Y-2.6659
X5.5262Y-2.725
X5.5318Y-2.56
X5.5362Y-2.695
X5.5468Y-2.53
X5.5469Y-2.5871
X5.5469Y-2.6659
X5.5562Y-2.725
X5.5597Y-1.8358
X5.5597Y-1.8991
X5.5597Y-1.9625
X5.5597Y-2.0259
X5.5597Y-2.0892
X5.5597Y-2.1526
X5.5597Y-2.216
X5.5597Y-2.2793
X5.5597Y-2.3427
X5.5597Y-2.4061
X5.5597Y-2.8497
X5.5597Y-2.913
X5.5597Y-2.9764
X5.5597Y-3.0398
X5.5597Y-3.42
X5.5597Y-3.4834
X5.5597Y-3.5467
X5.5597Y-3.6101
X5.5597Y-3.6735
X5.5597Y-3.7369
X5.5597Y-3.8002
X5.5618Y-2.56
X5.5663Y-2.695
X5.5768Y-2.53
X5.577Y-2.5871
X5.577Y-2.6659
X5.5863Y-2.725
X5.5919Y-2.56
X5.5964Y-2.695
X5.6069Y-2.53
X5.607Y-2.5871
X5.607Y-2.6659
X5.6164Y-2.725
X5.622Y-2.56
X5.623Y-1.8358
X5.623Y-1.8991
X5.623Y-1.9625
X5.623Y-2.0259
X5.623Y-2.0892
X5.623Y-2.1526
X5.623Y-2.216
X5.623Y-2.2793
X5.623Y-2.3427
X5.623Y-2.4061
X5.623Y-2.8497
X5.623Y-2.913
X5.623Y-2.9764
X5.623Y-3.0398
X5.623Y-3.1032
X5.623Y-3.42
X5.623Y-3.4834
X5.623Y-3.5467
X5.623Y-3.6101
X5.623Y-3.6735
X5.623Y-3.7369
X5.623Y-3.8002
X5.6264Y-2.695
X5.637Y-2.53
X5.6371Y-2.5871
X5.6371Y-2.6659
X5.6464Y-2.725
X5.652Y-2.56
X5.6565Y-2.695
X5.667Y-2.53
X5.6672Y-2.5871
X5.6672Y-2.6659
X5.6765Y-2.725
X5.6821Y-2.56
X5.6864Y-1.8358
X5.6864Y-1.8991
X5.6864Y-1.9625
X5.6864Y-2.0259
X5.6864Y-2.0892
X5.6864Y-2.1526
X5.6864Y-2.216
X5.6864Y-2.2793
X5.6864Y-2.3427
X5.6864Y-2.4061
X5.6864Y-2.8497
X5.6864Y-2.913
X5.6864Y-2.9764
X5.6864Y-3.0398
X5.6864Y-3.1032
X5.6864Y-3.1665
X5.6864Y-3.2299
X5.6864Y-3.2933
X5.6864Y-3.3566
X5.6864Y-3.42
X5.6864Y-3.4834
X5.6864Y-3.5467
X5.6864Y-3.6101
X5.6864Y-3.6735
X5.6864Y-3.7369
X5.6864Y-3.8002
X5.6866Y-2.695
X5.6971Y-2.53
X5.6972Y-2.5871
X5.6972Y-2.6659
X5.7066Y-2.725
X5.7122Y-2.56
X5.7166Y-2.695
X5.7272Y-2.53
X5.7273Y-2.5871
X5.7273Y-2.6659
X5.7366Y-2.725
X5.7422Y-2.56
X5.7467Y-2.695
X5.7498Y-1.8358
X5.7498Y-1.8991
X5.7498Y-1.9625
X5.7498Y-2.0259
X5.7498Y-2.0892
X5.7498Y-2.1526
X5.7498Y-2.216
X5.7498Y-2.2793
X5.7498Y-2.3427
X5.7498Y-2.4061
X5.7498Y-2.8497
X5.7498Y-2.913
X5.7498Y-2.9764
X5.7498Y-3.0398
X5.7498Y-3.1032
X5.7498Y-3.1665
X5.7498Y-3.2299
X5.7498Y-3.2933
X5.7498Y-3.3566
X5.7498Y-3.42
X5.7498Y-3.4834
X5.7498Y-3.5467
X5.7498Y-3.6101
X5.7498Y-3.6735
X5.7498Y-3.7369
X5.7498Y-3.8002
X5.7572Y-2.53
X5.7574Y-2.5871
X5.7574Y-2.6659
X5.7667Y-2.725
X5.7723Y-2.56
X5.7768Y-2.695
X5.7873Y-2.53
X5.7874Y-2.5871
X5.7874Y-2.6659
X5.7968Y-2.725
X5.8024Y-2.56
X5.8068Y-2.695
X5.8132Y-1.8358
X5.8132Y-1.8991
X5.8132Y-1.9625
X5.8132Y-2.0259
X5.8132Y-2.0892
X5.8132Y-2.1526
X5.8132Y-2.216
X5.8132Y-2.2793
X5.8132Y-2.3427
X5.8132Y-2.4061
X5.8132Y-2.8497
X5.8132Y-2.913
X5.8132Y-2.9764
X5.8132Y-3.0398
X5.8132Y-3.1032
X5.8132Y-3.1665
X5.8132Y-3.2299
X5.8132Y-3.2933
X5.8132Y-3.3566
X5.8132Y-3.42
X5.8132Y-3.4834
X5.8132Y-3.5467
X5.8132Y-3.6101
X5.8132Y-3.6735
X5.8132Y-3.7369
X5.8132Y-3.8002
X5.8174Y-2.53
X5.8175Y-2.5871
X5.8175Y-2.6659
X5.8268Y-2.725
X5.8324Y-2.56
X5.8369Y-2.695
X5.8474Y-2.53
X5.8476Y-2.5871
X5.8476Y-2.6659
X5.8569Y-2.725
X5.8625Y-2.56
X5.867Y-2.695
X5.8765Y-1.8358
X5.8765Y-1.8991
X5.8765Y-1.9625
X5.8765Y-2.0259
X5.8765Y-2.0892
X5.8765Y-2.1526
X5.8765Y-2.216
X5.8765Y-2.2793
X5.8765Y-2.3427
X5.8765Y-2.4061
X5.8765Y-2.8497
X5.8765Y-2.913
X5.8765Y-2.9764
X5.8765Y-3.0398
X5.8765Y-3.1032
X5.8765Y-3.1665
X5.8765Y-3.2299
X5.8765Y-3.2933
X5.8765Y-3.3566
X5.8765Y-3.42
X5.8765Y-3.4834
X5.8765Y-3.5467
X5.8765Y-3.6101
X5.8765Y-3.6735
X5.8765Y-3.7369
X5.8765Y-3.8002
X5.8775Y-2.53
X5.8776Y-2.5871
X5.8776Y-2.6659
X5.887Y-2.725
X5.8926Y-2.56
X5.897Y-2.695
X5.9076Y-2.53
X5.9077Y-2.5871
X5.9077Y-2.6659
X5.917Y-2.725
X5.9226Y-2.56
X5.9271Y-2.695
X5.9376Y-2.53
X5.9378Y-2.5871
X5.9378Y-2.6659
X5.9399Y-1.8358
X5.9399Y-1.8991
X5.9399Y-1.9625
X5.9399Y-2.0259
X5.9399Y-2.0892
X5.9399Y-2.1526
X5.9399Y-2.216
X5.9399Y-2.2793
X5.9399Y-2.9764
X5.9399Y-3.0398
X5.9399Y-3.1032
X5.9399Y-3.1665
X5.9399Y-3.2299
X5.9399Y-3.2933
X5.9399Y-3.3566
X5.9399Y-3.42
X5.9399Y-3.4834
X5.9399Y-3.5467
X5.9399Y-3.6101
X5.9399Y-3.6735
X5.9399Y-3.7369
X5.9399Y-3.8002
X5.9471Y-2.725
X5.9527Y-2.56
X5.9572Y-2.695
X5.9677Y-2.53
X5.9679Y-2.5871
X5.9679Y-2.6659
X5.9772Y-2.725
X5.9828Y-2.56
X5.9872Y-2.695
X5.9978Y-2.53
X5.9979Y-2.5871
X5.9979Y-2.6659
X6.0033Y-1.8358
X6.0033Y-1.8991
X6.0033Y-1.9625
X6.0033Y-2.0259
X6.0033Y-2.0892
X6.0033Y-2.1526
X6.0033Y-2.216
X6.0033Y-2.2793
X6.0033Y-2.9764
X6.0033Y-3.0398
X6.0033Y-3.1032
X6.0033Y-3.1665
X6.0033Y-3.2299
X6.0033Y-3.2933
X6.0033Y-3.3566
X6.0033Y-3.42
X6.0033Y-3.4834
X6.0033Y-3.5467
X6.0033Y-3.6101
X6.0033Y-3.6735
X6.0033Y-3.7369
X6.0033Y-3.8002
X6.0072Y-2.725
X6.0129Y-2.56
X6.0173Y-2.695
X6.0279Y-2.53
X6.028Y-2.5871
X6.028Y-2.6659
X6.0373Y-2.725
X6.0474Y-2.695
X6.0666Y-1.8358
X6.0666Y-1.8991
X6.0666Y-1.9625
X6.0666Y-2.0259
X6.0666Y-2.0892
X6.0666Y-2.1526
X6.0666Y-2.216
X6.0666Y-2.2793
X6.0666Y-2.9764
X6.0666Y-3.0398
X6.0666Y-3.1032
X6.0666Y-3.1665
X6.0666Y-3.2299
X6.0666Y-3.2933
X6.0666Y-3.3566
X6.0666Y-3.42
X6.0666Y-3.4834
X6.0666Y-3.5467
X6.0666Y-3.6101
X6.0666Y-3.6735
X6.0666Y-3.7369
X6.0666Y-3.8002
X6.0674Y-2.725
T2
X4.43Y-3.39
X4.53Y-3.39
X4.5702Y-1.875
X4.6702Y-1.875
X4.7502Y-3.385
X4.8502Y-3.385
X4.9552Y-3.62
X5.0552Y-3.62
X5.3698Y-3.62
X5.4698Y-3.62
X5.575Y-3.2198
X5.575Y-3.3198
M30
