%TF.GenerationSoftware,KiCad,Pcbnew,8.0.4*%
%TF.CreationDate,2025-12-20T23:30:35-08:00*%
%TF.ProjectId,Power_Amplifier,506f7765-725f-4416-9d70-6c6966696572,rev?*%
%TF.SameCoordinates,Original*%
%TF.FileFunction,Drillmap*%
%TF.FilePolarity,Positive*%
%FSLAX45Y45*%
G04 Gerber Fmt 4.5, Leading zero omitted, Abs format (unit mm)*
G04 Created by KiCad (PCBNEW 8.0.4) date 2025-12-20 23:30:35*
%MOMM*%
%LPD*%
G01*
G04 APERTURE LIST*
%ADD10C,0.050000*%
%ADD11C,0.200000*%
%ADD12C,0.100000*%
G04 APERTURE END LIST*
D10*
X8483600Y-4343400D02*
X15582900Y-4343400D01*
X15582900Y-9817100D01*
X8483600Y-9817100D01*
X8483600Y-4343400D01*
D11*
D12*
X8636230Y-4650120D02*
X8661630Y-4675520D01*
X8661630Y-4650120D02*
X8636230Y-4675520D01*
X8636230Y-4811080D02*
X8661630Y-4836480D01*
X8661630Y-4811080D02*
X8636230Y-4836480D01*
X8636230Y-4972040D02*
X8661630Y-4997440D01*
X8661630Y-4972040D02*
X8636230Y-4997440D01*
X8636230Y-5133000D02*
X8661630Y-5158400D01*
X8661630Y-5133000D02*
X8636230Y-5158400D01*
X8636230Y-5293960D02*
X8661630Y-5319360D01*
X8661630Y-5293960D02*
X8636230Y-5319360D01*
X8636230Y-5454920D02*
X8661630Y-5480320D01*
X8661630Y-5454920D02*
X8636230Y-5480320D01*
X8636230Y-5615880D02*
X8661630Y-5641280D01*
X8661630Y-5615880D02*
X8636230Y-5641280D01*
X8636230Y-5776840D02*
X8661630Y-5802240D01*
X8661630Y-5776840D02*
X8636230Y-5802240D01*
X8636230Y-7547400D02*
X8661630Y-7572800D01*
X8661630Y-7547400D02*
X8636230Y-7572800D01*
X8636230Y-7708360D02*
X8661630Y-7733760D01*
X8661630Y-7708360D02*
X8636230Y-7733760D01*
X8636230Y-7869320D02*
X8661630Y-7894720D01*
X8661630Y-7869320D02*
X8636230Y-7894720D01*
X8636230Y-8030280D02*
X8661630Y-8055680D01*
X8661630Y-8030280D02*
X8636230Y-8055680D01*
X8636230Y-8191240D02*
X8661630Y-8216640D01*
X8661630Y-8191240D02*
X8636230Y-8216640D01*
X8636230Y-8352200D02*
X8661630Y-8377600D01*
X8661630Y-8352200D02*
X8636230Y-8377600D01*
X8636230Y-8513160D02*
X8661630Y-8538560D01*
X8661630Y-8513160D02*
X8636230Y-8538560D01*
X8636230Y-8674120D02*
X8661630Y-8699520D01*
X8661630Y-8674120D02*
X8636230Y-8699520D01*
X8636230Y-8835080D02*
X8661630Y-8860480D01*
X8661630Y-8835080D02*
X8636230Y-8860480D01*
X8636230Y-8996040D02*
X8661630Y-9021440D01*
X8661630Y-8996040D02*
X8636230Y-9021440D01*
X8636230Y-9157000D02*
X8661630Y-9182400D01*
X8661630Y-9157000D02*
X8636230Y-9182400D01*
X8636230Y-9317960D02*
X8661630Y-9343360D01*
X8661630Y-9317960D02*
X8636230Y-9343360D01*
X8636230Y-9478920D02*
X8661630Y-9504320D01*
X8661630Y-9478920D02*
X8636230Y-9504320D01*
X8636230Y-9639880D02*
X8661630Y-9665280D01*
X8661630Y-9639880D02*
X8636230Y-9665280D01*
X8666351Y-6908800D02*
X8691751Y-6934200D01*
X8691751Y-6908800D02*
X8666351Y-6934200D01*
X8683548Y-6413500D02*
X8708948Y-6438900D01*
X8708948Y-6413500D02*
X8683548Y-6438900D01*
X8696248Y-6832600D02*
X8721648Y-6858000D01*
X8721648Y-6832600D02*
X8696248Y-6858000D01*
X8708948Y-6489700D02*
X8734348Y-6515100D01*
X8734348Y-6489700D02*
X8708948Y-6515100D01*
X8741427Y-6908800D02*
X8766827Y-6934200D01*
X8766827Y-6908800D02*
X8741427Y-6934200D01*
X8742680Y-6558640D02*
X8768080Y-6584040D01*
X8768080Y-6558640D02*
X8742680Y-6584040D01*
X8742680Y-6758640D02*
X8768080Y-6784040D01*
X8768080Y-6758640D02*
X8742680Y-6784040D01*
X8758624Y-6413500D02*
X8784024Y-6438900D01*
X8784024Y-6413500D02*
X8758624Y-6438900D01*
X8771324Y-6832600D02*
X8796724Y-6858000D01*
X8796724Y-6832600D02*
X8771324Y-6858000D01*
X8784024Y-6489700D02*
X8809424Y-6515100D01*
X8809424Y-6489700D02*
X8784024Y-6515100D01*
X8797190Y-4650120D02*
X8822590Y-4675520D01*
X8822590Y-4650120D02*
X8797190Y-4675520D01*
X8797190Y-4811080D02*
X8822590Y-4836480D01*
X8822590Y-4811080D02*
X8797190Y-4836480D01*
X8797190Y-4972040D02*
X8822590Y-4997440D01*
X8822590Y-4972040D02*
X8797190Y-4997440D01*
X8797190Y-5133000D02*
X8822590Y-5158400D01*
X8822590Y-5133000D02*
X8797190Y-5158400D01*
X8797190Y-5293960D02*
X8822590Y-5319360D01*
X8822590Y-5293960D02*
X8797190Y-5319360D01*
X8797190Y-5454920D02*
X8822590Y-5480320D01*
X8822590Y-5454920D02*
X8797190Y-5480320D01*
X8797190Y-5615880D02*
X8822590Y-5641280D01*
X8822590Y-5615880D02*
X8797190Y-5641280D01*
X8797190Y-5776840D02*
X8822590Y-5802240D01*
X8822590Y-5776840D02*
X8797190Y-5802240D01*
X8797190Y-7547400D02*
X8822590Y-7572800D01*
X8822590Y-7547400D02*
X8797190Y-7572800D01*
X8797190Y-7708360D02*
X8822590Y-7733760D01*
X8822590Y-7708360D02*
X8797190Y-7733760D01*
X8797190Y-7869320D02*
X8822590Y-7894720D01*
X8822590Y-7869320D02*
X8797190Y-7894720D01*
X8797190Y-8030280D02*
X8822590Y-8055680D01*
X8822590Y-8030280D02*
X8797190Y-8055680D01*
X8797190Y-8191240D02*
X8822590Y-8216640D01*
X8822590Y-8191240D02*
X8797190Y-8216640D01*
X8797190Y-8352200D02*
X8822590Y-8377600D01*
X8822590Y-8352200D02*
X8797190Y-8377600D01*
X8797190Y-8513160D02*
X8822590Y-8538560D01*
X8822590Y-8513160D02*
X8797190Y-8538560D01*
X8797190Y-8674120D02*
X8822590Y-8699520D01*
X8822590Y-8674120D02*
X8797190Y-8699520D01*
X8797190Y-8835080D02*
X8822590Y-8860480D01*
X8822590Y-8835080D02*
X8797190Y-8860480D01*
X8797190Y-8996040D02*
X8822590Y-9021440D01*
X8822590Y-8996040D02*
X8797190Y-9021440D01*
X8797190Y-9157000D02*
X8822590Y-9182400D01*
X8822590Y-9157000D02*
X8797190Y-9182400D01*
X8797190Y-9317960D02*
X8822590Y-9343360D01*
X8822590Y-9317960D02*
X8797190Y-9343360D01*
X8797190Y-9478920D02*
X8822590Y-9504320D01*
X8822590Y-9478920D02*
X8797190Y-9504320D01*
X8797190Y-9639880D02*
X8822590Y-9665280D01*
X8822590Y-9639880D02*
X8797190Y-9665280D01*
X8816503Y-6908800D02*
X8841903Y-6934200D01*
X8841903Y-6908800D02*
X8816503Y-6934200D01*
X8817756Y-6558640D02*
X8843156Y-6584040D01*
X8843156Y-6558640D02*
X8817756Y-6584040D01*
X8817756Y-6758640D02*
X8843156Y-6784040D01*
X8843156Y-6758640D02*
X8817756Y-6784040D01*
X8833699Y-6413500D02*
X8859099Y-6438900D01*
X8859099Y-6413500D02*
X8833699Y-6438900D01*
X8846399Y-6832600D02*
X8871799Y-6858000D01*
X8871799Y-6832600D02*
X8846399Y-6858000D01*
X8859099Y-6489700D02*
X8884499Y-6515100D01*
X8884499Y-6489700D02*
X8859099Y-6515100D01*
X8891579Y-6908800D02*
X8916979Y-6934200D01*
X8916979Y-6908800D02*
X8891579Y-6934200D01*
X8892832Y-6558640D02*
X8918232Y-6584040D01*
X8918232Y-6558640D02*
X8892832Y-6584040D01*
X8892832Y-6758640D02*
X8918232Y-6784040D01*
X8918232Y-6758640D02*
X8892832Y-6784040D01*
X8908775Y-6413500D02*
X8934175Y-6438900D01*
X8934175Y-6413500D02*
X8908775Y-6438900D01*
X8921475Y-6832600D02*
X8946875Y-6858000D01*
X8946875Y-6832600D02*
X8921475Y-6858000D01*
X8934175Y-6489700D02*
X8959575Y-6515100D01*
X8959575Y-6489700D02*
X8934175Y-6515100D01*
X8958150Y-4650120D02*
X8983550Y-4675520D01*
X8983550Y-4650120D02*
X8958150Y-4675520D01*
X8958150Y-4811080D02*
X8983550Y-4836480D01*
X8983550Y-4811080D02*
X8958150Y-4836480D01*
X8958150Y-4972040D02*
X8983550Y-4997440D01*
X8983550Y-4972040D02*
X8958150Y-4997440D01*
X8958150Y-5133000D02*
X8983550Y-5158400D01*
X8983550Y-5133000D02*
X8958150Y-5158400D01*
X8958150Y-5293960D02*
X8983550Y-5319360D01*
X8983550Y-5293960D02*
X8958150Y-5319360D01*
X8958150Y-5454920D02*
X8983550Y-5480320D01*
X8983550Y-5454920D02*
X8958150Y-5480320D01*
X8958150Y-5615880D02*
X8983550Y-5641280D01*
X8983550Y-5615880D02*
X8958150Y-5641280D01*
X8958150Y-5776840D02*
X8983550Y-5802240D01*
X8983550Y-5776840D02*
X8958150Y-5802240D01*
X8958150Y-7547400D02*
X8983550Y-7572800D01*
X8983550Y-7547400D02*
X8958150Y-7572800D01*
X8958150Y-7708360D02*
X8983550Y-7733760D01*
X8983550Y-7708360D02*
X8958150Y-7733760D01*
X8958150Y-7869320D02*
X8983550Y-7894720D01*
X8983550Y-7869320D02*
X8958150Y-7894720D01*
X8958150Y-8030280D02*
X8983550Y-8055680D01*
X8983550Y-8030280D02*
X8958150Y-8055680D01*
X8958150Y-8191240D02*
X8983550Y-8216640D01*
X8983550Y-8191240D02*
X8958150Y-8216640D01*
X8958150Y-8352200D02*
X8983550Y-8377600D01*
X8983550Y-8352200D02*
X8958150Y-8377600D01*
X8958150Y-8513160D02*
X8983550Y-8538560D01*
X8983550Y-8513160D02*
X8958150Y-8538560D01*
X8958150Y-8674120D02*
X8983550Y-8699520D01*
X8983550Y-8674120D02*
X8958150Y-8699520D01*
X8958150Y-8835080D02*
X8983550Y-8860480D01*
X8983550Y-8835080D02*
X8958150Y-8860480D01*
X8958150Y-8996040D02*
X8983550Y-9021440D01*
X8983550Y-8996040D02*
X8958150Y-9021440D01*
X8958150Y-9157000D02*
X8983550Y-9182400D01*
X8983550Y-9157000D02*
X8958150Y-9182400D01*
X8958150Y-9317960D02*
X8983550Y-9343360D01*
X8983550Y-9317960D02*
X8958150Y-9343360D01*
X8958150Y-9478920D02*
X8983550Y-9504320D01*
X8983550Y-9478920D02*
X8958150Y-9504320D01*
X8958150Y-9639880D02*
X8983550Y-9665280D01*
X8983550Y-9639880D02*
X8958150Y-9665280D01*
X8966655Y-6908800D02*
X8992055Y-6934200D01*
X8992055Y-6908800D02*
X8966655Y-6934200D01*
X8967908Y-6558640D02*
X8993308Y-6584040D01*
X8993308Y-6558640D02*
X8967908Y-6584040D01*
X8967908Y-6758640D02*
X8993308Y-6784040D01*
X8993308Y-6758640D02*
X8967908Y-6784040D01*
X8983851Y-6413500D02*
X9009251Y-6438900D01*
X9009251Y-6413500D02*
X8983851Y-6438900D01*
X8996551Y-6832600D02*
X9021951Y-6858000D01*
X9021951Y-6832600D02*
X8996551Y-6858000D01*
X9009251Y-6489700D02*
X9034651Y-6515100D01*
X9034651Y-6489700D02*
X9009251Y-6515100D01*
X9041731Y-6908800D02*
X9067131Y-6934200D01*
X9067131Y-6908800D02*
X9041731Y-6934200D01*
X9042984Y-6558640D02*
X9068384Y-6584040D01*
X9068384Y-6558640D02*
X9042984Y-6584040D01*
X9042984Y-6758640D02*
X9068384Y-6784040D01*
X9068384Y-6758640D02*
X9042984Y-6784040D01*
X9058927Y-6413500D02*
X9084327Y-6438900D01*
X9084327Y-6413500D02*
X9058927Y-6438900D01*
X9071627Y-6832600D02*
X9097027Y-6858000D01*
X9097027Y-6832600D02*
X9071627Y-6858000D01*
X9084327Y-6489700D02*
X9109727Y-6515100D01*
X9109727Y-6489700D02*
X9084327Y-6515100D01*
X9116806Y-6908800D02*
X9142206Y-6934200D01*
X9142206Y-6908800D02*
X9116806Y-6934200D01*
X9118059Y-6558640D02*
X9143459Y-6584040D01*
X9143459Y-6558640D02*
X9118059Y-6584040D01*
X9118059Y-6758640D02*
X9143459Y-6784040D01*
X9143459Y-6758640D02*
X9118059Y-6784040D01*
X9119110Y-4650120D02*
X9144510Y-4675520D01*
X9144510Y-4650120D02*
X9119110Y-4675520D01*
X9119110Y-4811080D02*
X9144510Y-4836480D01*
X9144510Y-4811080D02*
X9119110Y-4836480D01*
X9119110Y-4972040D02*
X9144510Y-4997440D01*
X9144510Y-4972040D02*
X9119110Y-4997440D01*
X9119110Y-5133000D02*
X9144510Y-5158400D01*
X9144510Y-5133000D02*
X9119110Y-5158400D01*
X9119110Y-5293960D02*
X9144510Y-5319360D01*
X9144510Y-5293960D02*
X9119110Y-5319360D01*
X9119110Y-5454920D02*
X9144510Y-5480320D01*
X9144510Y-5454920D02*
X9119110Y-5480320D01*
X9119110Y-5615880D02*
X9144510Y-5641280D01*
X9144510Y-5615880D02*
X9119110Y-5641280D01*
X9119110Y-5776840D02*
X9144510Y-5802240D01*
X9144510Y-5776840D02*
X9119110Y-5802240D01*
X9119110Y-7547400D02*
X9144510Y-7572800D01*
X9144510Y-7547400D02*
X9119110Y-7572800D01*
X9119110Y-7708360D02*
X9144510Y-7733760D01*
X9144510Y-7708360D02*
X9119110Y-7733760D01*
X9119110Y-7869320D02*
X9144510Y-7894720D01*
X9144510Y-7869320D02*
X9119110Y-7894720D01*
X9119110Y-8030280D02*
X9144510Y-8055680D01*
X9144510Y-8030280D02*
X9119110Y-8055680D01*
X9119110Y-8191240D02*
X9144510Y-8216640D01*
X9144510Y-8191240D02*
X9119110Y-8216640D01*
X9119110Y-8352200D02*
X9144510Y-8377600D01*
X9144510Y-8352200D02*
X9119110Y-8377600D01*
X9119110Y-8513160D02*
X9144510Y-8538560D01*
X9144510Y-8513160D02*
X9119110Y-8538560D01*
X9119110Y-8674120D02*
X9144510Y-8699520D01*
X9144510Y-8674120D02*
X9119110Y-8699520D01*
X9119110Y-8835080D02*
X9144510Y-8860480D01*
X9144510Y-8835080D02*
X9119110Y-8860480D01*
X9119110Y-8996040D02*
X9144510Y-9021440D01*
X9144510Y-8996040D02*
X9119110Y-9021440D01*
X9119110Y-9157000D02*
X9144510Y-9182400D01*
X9144510Y-9157000D02*
X9119110Y-9182400D01*
X9119110Y-9317960D02*
X9144510Y-9343360D01*
X9144510Y-9317960D02*
X9119110Y-9343360D01*
X9119110Y-9478920D02*
X9144510Y-9504320D01*
X9144510Y-9478920D02*
X9119110Y-9504320D01*
X9119110Y-9639880D02*
X9144510Y-9665280D01*
X9144510Y-9639880D02*
X9119110Y-9665280D01*
X9134003Y-6413500D02*
X9159403Y-6438900D01*
X9159403Y-6413500D02*
X9134003Y-6438900D01*
X9146703Y-6832600D02*
X9172103Y-6858000D01*
X9172103Y-6832600D02*
X9146703Y-6858000D01*
X9159403Y-6489700D02*
X9184803Y-6515100D01*
X9184803Y-6489700D02*
X9159403Y-6515100D01*
X9191882Y-6908800D02*
X9217282Y-6934200D01*
X9217282Y-6908800D02*
X9191882Y-6934200D01*
X9193135Y-6558640D02*
X9218535Y-6584040D01*
X9218535Y-6558640D02*
X9193135Y-6584040D01*
X9193135Y-6758640D02*
X9218535Y-6784040D01*
X9218535Y-6758640D02*
X9193135Y-6784040D01*
X9209079Y-6413500D02*
X9234479Y-6438900D01*
X9234479Y-6413500D02*
X9209079Y-6438900D01*
X9221779Y-6832600D02*
X9247179Y-6858000D01*
X9247179Y-6832600D02*
X9221779Y-6858000D01*
X9234479Y-6489700D02*
X9259879Y-6515100D01*
X9259879Y-6489700D02*
X9234479Y-6515100D01*
X9266958Y-6908800D02*
X9292358Y-6934200D01*
X9292358Y-6908800D02*
X9266958Y-6934200D01*
X9268211Y-6558640D02*
X9293611Y-6584040D01*
X9293611Y-6558640D02*
X9268211Y-6584040D01*
X9268211Y-6758640D02*
X9293611Y-6784040D01*
X9293611Y-6758640D02*
X9268211Y-6784040D01*
X9280070Y-4650120D02*
X9305470Y-4675520D01*
X9305470Y-4650120D02*
X9280070Y-4675520D01*
X9280070Y-4811080D02*
X9305470Y-4836480D01*
X9305470Y-4811080D02*
X9280070Y-4836480D01*
X9280070Y-4972040D02*
X9305470Y-4997440D01*
X9305470Y-4972040D02*
X9280070Y-4997440D01*
X9280070Y-5133000D02*
X9305470Y-5158400D01*
X9305470Y-5133000D02*
X9280070Y-5158400D01*
X9280070Y-5293960D02*
X9305470Y-5319360D01*
X9305470Y-5293960D02*
X9280070Y-5319360D01*
X9280070Y-5454920D02*
X9305470Y-5480320D01*
X9305470Y-5454920D02*
X9280070Y-5480320D01*
X9280070Y-5615880D02*
X9305470Y-5641280D01*
X9305470Y-5615880D02*
X9280070Y-5641280D01*
X9280070Y-5776840D02*
X9305470Y-5802240D01*
X9305470Y-5776840D02*
X9280070Y-5802240D01*
X9280070Y-5937800D02*
X9305470Y-5963200D01*
X9305470Y-5937800D02*
X9280070Y-5963200D01*
X9280070Y-6098760D02*
X9305470Y-6124160D01*
X9305470Y-6098760D02*
X9280070Y-6124160D01*
X9280070Y-7225480D02*
X9305470Y-7250880D01*
X9305470Y-7225480D02*
X9280070Y-7250880D01*
X9280070Y-7386440D02*
X9305470Y-7411840D01*
X9305470Y-7386440D02*
X9280070Y-7411840D01*
X9280070Y-7547400D02*
X9305470Y-7572800D01*
X9305470Y-7547400D02*
X9280070Y-7572800D01*
X9280070Y-7708360D02*
X9305470Y-7733760D01*
X9305470Y-7708360D02*
X9280070Y-7733760D01*
X9280070Y-7869320D02*
X9305470Y-7894720D01*
X9305470Y-7869320D02*
X9280070Y-7894720D01*
X9280070Y-8030280D02*
X9305470Y-8055680D01*
X9305470Y-8030280D02*
X9280070Y-8055680D01*
X9280070Y-8191240D02*
X9305470Y-8216640D01*
X9305470Y-8191240D02*
X9280070Y-8216640D01*
X9280070Y-8352200D02*
X9305470Y-8377600D01*
X9305470Y-8352200D02*
X9280070Y-8377600D01*
X9280070Y-8513160D02*
X9305470Y-8538560D01*
X9305470Y-8513160D02*
X9280070Y-8538560D01*
X9280070Y-8674120D02*
X9305470Y-8699520D01*
X9305470Y-8674120D02*
X9280070Y-8699520D01*
X9280070Y-8835080D02*
X9305470Y-8860480D01*
X9305470Y-8835080D02*
X9280070Y-8860480D01*
X9280070Y-8996040D02*
X9305470Y-9021440D01*
X9305470Y-8996040D02*
X9280070Y-9021440D01*
X9280070Y-9157000D02*
X9305470Y-9182400D01*
X9305470Y-9157000D02*
X9280070Y-9182400D01*
X9280070Y-9317960D02*
X9305470Y-9343360D01*
X9305470Y-9317960D02*
X9280070Y-9343360D01*
X9280070Y-9478920D02*
X9305470Y-9504320D01*
X9305470Y-9478920D02*
X9280070Y-9504320D01*
X9280070Y-9639880D02*
X9305470Y-9665280D01*
X9305470Y-9639880D02*
X9280070Y-9665280D01*
X9284155Y-6413500D02*
X9309555Y-6438900D01*
X9309555Y-6413500D02*
X9284155Y-6438900D01*
X9296855Y-6832600D02*
X9322255Y-6858000D01*
X9322255Y-6832600D02*
X9296855Y-6858000D01*
X9309555Y-6489700D02*
X9334955Y-6515100D01*
X9334955Y-6489700D02*
X9309555Y-6515100D01*
X9342034Y-6908800D02*
X9367434Y-6934200D01*
X9367434Y-6908800D02*
X9342034Y-6934200D01*
X9343287Y-6558640D02*
X9368687Y-6584040D01*
X9368687Y-6558640D02*
X9343287Y-6584040D01*
X9343287Y-6758640D02*
X9368687Y-6784040D01*
X9368687Y-6758640D02*
X9343287Y-6784040D01*
X9359231Y-6413500D02*
X9384631Y-6438900D01*
X9384631Y-6413500D02*
X9359231Y-6438900D01*
X9371931Y-6832600D02*
X9397331Y-6858000D01*
X9397331Y-6832600D02*
X9371931Y-6858000D01*
X9384631Y-6489700D02*
X9410031Y-6515100D01*
X9410031Y-6489700D02*
X9384631Y-6515100D01*
X9417110Y-6908800D02*
X9442510Y-6934200D01*
X9442510Y-6908800D02*
X9417110Y-6934200D01*
X9418363Y-6558640D02*
X9443763Y-6584040D01*
X9443763Y-6558640D02*
X9418363Y-6584040D01*
X9418363Y-6758640D02*
X9443763Y-6784040D01*
X9443763Y-6758640D02*
X9418363Y-6784040D01*
X9434307Y-6413500D02*
X9459707Y-6438900D01*
X9459707Y-6413500D02*
X9434307Y-6438900D01*
X9441030Y-4650120D02*
X9466430Y-4675520D01*
X9466430Y-4650120D02*
X9441030Y-4675520D01*
X9441030Y-4811080D02*
X9466430Y-4836480D01*
X9466430Y-4811080D02*
X9441030Y-4836480D01*
X9441030Y-4972040D02*
X9466430Y-4997440D01*
X9466430Y-4972040D02*
X9441030Y-4997440D01*
X9441030Y-5133000D02*
X9466430Y-5158400D01*
X9466430Y-5133000D02*
X9441030Y-5158400D01*
X9441030Y-5293960D02*
X9466430Y-5319360D01*
X9466430Y-5293960D02*
X9441030Y-5319360D01*
X9441030Y-5454920D02*
X9466430Y-5480320D01*
X9466430Y-5454920D02*
X9441030Y-5480320D01*
X9441030Y-5615880D02*
X9466430Y-5641280D01*
X9466430Y-5615880D02*
X9441030Y-5641280D01*
X9441030Y-5776840D02*
X9466430Y-5802240D01*
X9466430Y-5776840D02*
X9441030Y-5802240D01*
X9441030Y-5937800D02*
X9466430Y-5963200D01*
X9466430Y-5937800D02*
X9441030Y-5963200D01*
X9441030Y-6098760D02*
X9466430Y-6124160D01*
X9466430Y-6098760D02*
X9441030Y-6124160D01*
X9441030Y-7225480D02*
X9466430Y-7250880D01*
X9466430Y-7225480D02*
X9441030Y-7250880D01*
X9441030Y-7386440D02*
X9466430Y-7411840D01*
X9466430Y-7386440D02*
X9441030Y-7411840D01*
X9441030Y-7547400D02*
X9466430Y-7572800D01*
X9466430Y-7547400D02*
X9441030Y-7572800D01*
X9441030Y-7708360D02*
X9466430Y-7733760D01*
X9466430Y-7708360D02*
X9441030Y-7733760D01*
X9441030Y-7869320D02*
X9466430Y-7894720D01*
X9466430Y-7869320D02*
X9441030Y-7894720D01*
X9441030Y-8030280D02*
X9466430Y-8055680D01*
X9466430Y-8030280D02*
X9441030Y-8055680D01*
X9441030Y-8191240D02*
X9466430Y-8216640D01*
X9466430Y-8191240D02*
X9441030Y-8216640D01*
X9441030Y-8352200D02*
X9466430Y-8377600D01*
X9466430Y-8352200D02*
X9441030Y-8377600D01*
X9441030Y-8513160D02*
X9466430Y-8538560D01*
X9466430Y-8513160D02*
X9441030Y-8538560D01*
X9441030Y-8674120D02*
X9466430Y-8699520D01*
X9466430Y-8674120D02*
X9441030Y-8699520D01*
X9441030Y-8835080D02*
X9466430Y-8860480D01*
X9466430Y-8835080D02*
X9441030Y-8860480D01*
X9441030Y-8996040D02*
X9466430Y-9021440D01*
X9466430Y-8996040D02*
X9441030Y-9021440D01*
X9441030Y-9157000D02*
X9466430Y-9182400D01*
X9466430Y-9157000D02*
X9441030Y-9182400D01*
X9441030Y-9317960D02*
X9466430Y-9343360D01*
X9466430Y-9317960D02*
X9441030Y-9343360D01*
X9441030Y-9478920D02*
X9466430Y-9504320D01*
X9466430Y-9478920D02*
X9441030Y-9504320D01*
X9441030Y-9639880D02*
X9466430Y-9665280D01*
X9466430Y-9639880D02*
X9441030Y-9665280D01*
X9447007Y-6832600D02*
X9472407Y-6858000D01*
X9472407Y-6832600D02*
X9447007Y-6858000D01*
X9459707Y-6489700D02*
X9485107Y-6515100D01*
X9485107Y-6489700D02*
X9459707Y-6515100D01*
X9492186Y-6908800D02*
X9517586Y-6934200D01*
X9517586Y-6908800D02*
X9492186Y-6934200D01*
X9493439Y-6558640D02*
X9518839Y-6584040D01*
X9518839Y-6558640D02*
X9493439Y-6584040D01*
X9493439Y-6758640D02*
X9518839Y-6784040D01*
X9518839Y-6758640D02*
X9493439Y-6784040D01*
X9509382Y-6413500D02*
X9534782Y-6438900D01*
X9534782Y-6413500D02*
X9509382Y-6438900D01*
X9522082Y-6832600D02*
X9547482Y-6858000D01*
X9547482Y-6832600D02*
X9522082Y-6858000D01*
X9534782Y-6489700D02*
X9560182Y-6515100D01*
X9560182Y-6489700D02*
X9534782Y-6515100D01*
X9567262Y-6908800D02*
X9592662Y-6934200D01*
X9592662Y-6908800D02*
X9567262Y-6934200D01*
X9568515Y-6558640D02*
X9593915Y-6584040D01*
X9593915Y-6558640D02*
X9568515Y-6584040D01*
X9568515Y-6758640D02*
X9593915Y-6784040D01*
X9593915Y-6758640D02*
X9568515Y-6784040D01*
X9584458Y-6413500D02*
X9609858Y-6438900D01*
X9609858Y-6413500D02*
X9584458Y-6438900D01*
X9597158Y-6832600D02*
X9622558Y-6858000D01*
X9622558Y-6832600D02*
X9597158Y-6858000D01*
X9601990Y-4650120D02*
X9627390Y-4675520D01*
X9627390Y-4650120D02*
X9601990Y-4675520D01*
X9601990Y-4811080D02*
X9627390Y-4836480D01*
X9627390Y-4811080D02*
X9601990Y-4836480D01*
X9601990Y-4972040D02*
X9627390Y-4997440D01*
X9627390Y-4972040D02*
X9601990Y-4997440D01*
X9601990Y-5133000D02*
X9627390Y-5158400D01*
X9627390Y-5133000D02*
X9601990Y-5158400D01*
X9601990Y-5293960D02*
X9627390Y-5319360D01*
X9627390Y-5293960D02*
X9601990Y-5319360D01*
X9601990Y-5454920D02*
X9627390Y-5480320D01*
X9627390Y-5454920D02*
X9601990Y-5480320D01*
X9601990Y-5615880D02*
X9627390Y-5641280D01*
X9627390Y-5615880D02*
X9601990Y-5641280D01*
X9601990Y-5776840D02*
X9627390Y-5802240D01*
X9627390Y-5776840D02*
X9601990Y-5802240D01*
X9601990Y-5937800D02*
X9627390Y-5963200D01*
X9627390Y-5937800D02*
X9601990Y-5963200D01*
X9601990Y-6098760D02*
X9627390Y-6124160D01*
X9627390Y-6098760D02*
X9601990Y-6124160D01*
X9601990Y-7225480D02*
X9627390Y-7250880D01*
X9627390Y-7225480D02*
X9601990Y-7250880D01*
X9601990Y-7386440D02*
X9627390Y-7411840D01*
X9627390Y-7386440D02*
X9601990Y-7411840D01*
X9601990Y-7547400D02*
X9627390Y-7572800D01*
X9627390Y-7547400D02*
X9601990Y-7572800D01*
X9601990Y-7708360D02*
X9627390Y-7733760D01*
X9627390Y-7708360D02*
X9601990Y-7733760D01*
X9601990Y-7869320D02*
X9627390Y-7894720D01*
X9627390Y-7869320D02*
X9601990Y-7894720D01*
X9601990Y-8030280D02*
X9627390Y-8055680D01*
X9627390Y-8030280D02*
X9601990Y-8055680D01*
X9601990Y-8191240D02*
X9627390Y-8216640D01*
X9627390Y-8191240D02*
X9601990Y-8216640D01*
X9601990Y-8352200D02*
X9627390Y-8377600D01*
X9627390Y-8352200D02*
X9601990Y-8377600D01*
X9601990Y-8513160D02*
X9627390Y-8538560D01*
X9627390Y-8513160D02*
X9601990Y-8538560D01*
X9601990Y-8674120D02*
X9627390Y-8699520D01*
X9627390Y-8674120D02*
X9601990Y-8699520D01*
X9601990Y-8835080D02*
X9627390Y-8860480D01*
X9627390Y-8835080D02*
X9601990Y-8860480D01*
X9601990Y-8996040D02*
X9627390Y-9021440D01*
X9627390Y-8996040D02*
X9601990Y-9021440D01*
X9601990Y-9157000D02*
X9627390Y-9182400D01*
X9627390Y-9157000D02*
X9601990Y-9182400D01*
X9601990Y-9317960D02*
X9627390Y-9343360D01*
X9627390Y-9317960D02*
X9601990Y-9343360D01*
X9601990Y-9478920D02*
X9627390Y-9504320D01*
X9627390Y-9478920D02*
X9601990Y-9504320D01*
X9601990Y-9639880D02*
X9627390Y-9665280D01*
X9627390Y-9639880D02*
X9601990Y-9665280D01*
X9609858Y-6489700D02*
X9635258Y-6515100D01*
X9635258Y-6489700D02*
X9609858Y-6515100D01*
X9642338Y-6908800D02*
X9667738Y-6934200D01*
X9667738Y-6908800D02*
X9642338Y-6934200D01*
X9643591Y-6558640D02*
X9668991Y-6584040D01*
X9668991Y-6558640D02*
X9643591Y-6584040D01*
X9643591Y-6758640D02*
X9668991Y-6784040D01*
X9668991Y-6758640D02*
X9643591Y-6784040D01*
X9659534Y-6413500D02*
X9684934Y-6438900D01*
X9684934Y-6413500D02*
X9659534Y-6438900D01*
X9672234Y-6832600D02*
X9697634Y-6858000D01*
X9697634Y-6832600D02*
X9672234Y-6858000D01*
X9684934Y-6489700D02*
X9710334Y-6515100D01*
X9710334Y-6489700D02*
X9684934Y-6515100D01*
X9717414Y-6908800D02*
X9742814Y-6934200D01*
X9742814Y-6908800D02*
X9717414Y-6934200D01*
X9718666Y-6558640D02*
X9744066Y-6584040D01*
X9744066Y-6558640D02*
X9718666Y-6584040D01*
X9718666Y-6758640D02*
X9744066Y-6784040D01*
X9744066Y-6758640D02*
X9718666Y-6784040D01*
X9734610Y-6413500D02*
X9760010Y-6438900D01*
X9760010Y-6413500D02*
X9734610Y-6438900D01*
X9747310Y-6832600D02*
X9772710Y-6858000D01*
X9772710Y-6832600D02*
X9747310Y-6858000D01*
X9760010Y-6489700D02*
X9785410Y-6515100D01*
X9785410Y-6489700D02*
X9760010Y-6515100D01*
X9762950Y-4650120D02*
X9788350Y-4675520D01*
X9788350Y-4650120D02*
X9762950Y-4675520D01*
X9762950Y-4811080D02*
X9788350Y-4836480D01*
X9788350Y-4811080D02*
X9762950Y-4836480D01*
X9762950Y-4972040D02*
X9788350Y-4997440D01*
X9788350Y-4972040D02*
X9762950Y-4997440D01*
X9762950Y-5133000D02*
X9788350Y-5158400D01*
X9788350Y-5133000D02*
X9762950Y-5158400D01*
X9762950Y-5293960D02*
X9788350Y-5319360D01*
X9788350Y-5293960D02*
X9762950Y-5319360D01*
X9762950Y-5454920D02*
X9788350Y-5480320D01*
X9788350Y-5454920D02*
X9762950Y-5480320D01*
X9762950Y-5615880D02*
X9788350Y-5641280D01*
X9788350Y-5615880D02*
X9762950Y-5641280D01*
X9762950Y-5776840D02*
X9788350Y-5802240D01*
X9788350Y-5776840D02*
X9762950Y-5802240D01*
X9762950Y-5937800D02*
X9788350Y-5963200D01*
X9788350Y-5937800D02*
X9762950Y-5963200D01*
X9762950Y-6098760D02*
X9788350Y-6124160D01*
X9788350Y-6098760D02*
X9762950Y-6124160D01*
X9762950Y-7225480D02*
X9788350Y-7250880D01*
X9788350Y-7225480D02*
X9762950Y-7250880D01*
X9762950Y-7386440D02*
X9788350Y-7411840D01*
X9788350Y-7386440D02*
X9762950Y-7411840D01*
X9762950Y-7547400D02*
X9788350Y-7572800D01*
X9788350Y-7547400D02*
X9762950Y-7572800D01*
X9762950Y-7708360D02*
X9788350Y-7733760D01*
X9788350Y-7708360D02*
X9762950Y-7733760D01*
X9762950Y-7869320D02*
X9788350Y-7894720D01*
X9788350Y-7869320D02*
X9762950Y-7894720D01*
X9762950Y-8030280D02*
X9788350Y-8055680D01*
X9788350Y-8030280D02*
X9762950Y-8055680D01*
X9762950Y-8191240D02*
X9788350Y-8216640D01*
X9788350Y-8191240D02*
X9762950Y-8216640D01*
X9762950Y-8352200D02*
X9788350Y-8377600D01*
X9788350Y-8352200D02*
X9762950Y-8377600D01*
X9762950Y-8513160D02*
X9788350Y-8538560D01*
X9788350Y-8513160D02*
X9762950Y-8538560D01*
X9762950Y-8674120D02*
X9788350Y-8699520D01*
X9788350Y-8674120D02*
X9762950Y-8699520D01*
X9762950Y-8835080D02*
X9788350Y-8860480D01*
X9788350Y-8835080D02*
X9762950Y-8860480D01*
X9762950Y-8996040D02*
X9788350Y-9021440D01*
X9788350Y-8996040D02*
X9762950Y-9021440D01*
X9762950Y-9157000D02*
X9788350Y-9182400D01*
X9788350Y-9157000D02*
X9762950Y-9182400D01*
X9762950Y-9317960D02*
X9788350Y-9343360D01*
X9788350Y-9317960D02*
X9762950Y-9343360D01*
X9762950Y-9478920D02*
X9788350Y-9504320D01*
X9788350Y-9478920D02*
X9762950Y-9504320D01*
X9762950Y-9639880D02*
X9788350Y-9665280D01*
X9788350Y-9639880D02*
X9762950Y-9665280D01*
X9792489Y-6908800D02*
X9817889Y-6934200D01*
X9817889Y-6908800D02*
X9792489Y-6934200D01*
X9793742Y-6558640D02*
X9819142Y-6584040D01*
X9819142Y-6558640D02*
X9793742Y-6584040D01*
X9793742Y-6758640D02*
X9819142Y-6784040D01*
X9819142Y-6758640D02*
X9793742Y-6784040D01*
X9809686Y-6413500D02*
X9835086Y-6438900D01*
X9835086Y-6413500D02*
X9809686Y-6438900D01*
X9822386Y-6832600D02*
X9847786Y-6858000D01*
X9847786Y-6832600D02*
X9822386Y-6858000D01*
X9835086Y-6489700D02*
X9860486Y-6515100D01*
X9860486Y-6489700D02*
X9835086Y-6515100D01*
X9867565Y-6908800D02*
X9892965Y-6934200D01*
X9892965Y-6908800D02*
X9867565Y-6934200D01*
X9868818Y-6558640D02*
X9894218Y-6584040D01*
X9894218Y-6558640D02*
X9868818Y-6584040D01*
X9868818Y-6758640D02*
X9894218Y-6784040D01*
X9894218Y-6758640D02*
X9868818Y-6784040D01*
X9884762Y-6413500D02*
X9910162Y-6438900D01*
X9910162Y-6413500D02*
X9884762Y-6438900D01*
X9897462Y-6832600D02*
X9922862Y-6858000D01*
X9922862Y-6832600D02*
X9897462Y-6858000D01*
X9910162Y-6489700D02*
X9935562Y-6515100D01*
X9935562Y-6489700D02*
X9910162Y-6515100D01*
X9923910Y-4650120D02*
X9949310Y-4675520D01*
X9949310Y-4650120D02*
X9923910Y-4675520D01*
X9923910Y-4811080D02*
X9949310Y-4836480D01*
X9949310Y-4811080D02*
X9923910Y-4836480D01*
X9923910Y-4972040D02*
X9949310Y-4997440D01*
X9949310Y-4972040D02*
X9923910Y-4997440D01*
X9923910Y-5133000D02*
X9949310Y-5158400D01*
X9949310Y-5133000D02*
X9923910Y-5158400D01*
X9923910Y-5293960D02*
X9949310Y-5319360D01*
X9949310Y-5293960D02*
X9923910Y-5319360D01*
X9923910Y-5454920D02*
X9949310Y-5480320D01*
X9949310Y-5454920D02*
X9923910Y-5480320D01*
X9923910Y-5615880D02*
X9949310Y-5641280D01*
X9949310Y-5615880D02*
X9923910Y-5641280D01*
X9923910Y-5776840D02*
X9949310Y-5802240D01*
X9949310Y-5776840D02*
X9923910Y-5802240D01*
X9923910Y-5937800D02*
X9949310Y-5963200D01*
X9949310Y-5937800D02*
X9923910Y-5963200D01*
X9923910Y-6098760D02*
X9949310Y-6124160D01*
X9949310Y-6098760D02*
X9923910Y-6124160D01*
X9923910Y-7225480D02*
X9949310Y-7250880D01*
X9949310Y-7225480D02*
X9923910Y-7250880D01*
X9923910Y-7386440D02*
X9949310Y-7411840D01*
X9949310Y-7386440D02*
X9923910Y-7411840D01*
X9923910Y-7547400D02*
X9949310Y-7572800D01*
X9949310Y-7547400D02*
X9923910Y-7572800D01*
X9923910Y-7708360D02*
X9949310Y-7733760D01*
X9949310Y-7708360D02*
X9923910Y-7733760D01*
X9923910Y-7869320D02*
X9949310Y-7894720D01*
X9949310Y-7869320D02*
X9923910Y-7894720D01*
X9923910Y-8030280D02*
X9949310Y-8055680D01*
X9949310Y-8030280D02*
X9923910Y-8055680D01*
X9923910Y-8191240D02*
X9949310Y-8216640D01*
X9949310Y-8191240D02*
X9923910Y-8216640D01*
X9923910Y-8352200D02*
X9949310Y-8377600D01*
X9949310Y-8352200D02*
X9923910Y-8377600D01*
X9923910Y-8513160D02*
X9949310Y-8538560D01*
X9949310Y-8513160D02*
X9923910Y-8538560D01*
X9923910Y-8674120D02*
X9949310Y-8699520D01*
X9949310Y-8674120D02*
X9923910Y-8699520D01*
X9923910Y-8835080D02*
X9949310Y-8860480D01*
X9949310Y-8835080D02*
X9923910Y-8860480D01*
X9923910Y-8996040D02*
X9949310Y-9021440D01*
X9949310Y-8996040D02*
X9923910Y-9021440D01*
X9923910Y-9157000D02*
X9949310Y-9182400D01*
X9949310Y-9157000D02*
X9923910Y-9182400D01*
X9923910Y-9317960D02*
X9949310Y-9343360D01*
X9949310Y-9317960D02*
X9923910Y-9343360D01*
X9923910Y-9478920D02*
X9949310Y-9504320D01*
X9949310Y-9478920D02*
X9923910Y-9504320D01*
X9923910Y-9639880D02*
X9949310Y-9665280D01*
X9949310Y-9639880D02*
X9923910Y-9665280D01*
X9942641Y-6908800D02*
X9968041Y-6934200D01*
X9968041Y-6908800D02*
X9942641Y-6934200D01*
X9943894Y-6558640D02*
X9969294Y-6584040D01*
X9969294Y-6558640D02*
X9943894Y-6584040D01*
X9943894Y-6758640D02*
X9969294Y-6784040D01*
X9969294Y-6758640D02*
X9943894Y-6784040D01*
X9959838Y-6413500D02*
X9985238Y-6438900D01*
X9985238Y-6413500D02*
X9959838Y-6438900D01*
X9972538Y-6832600D02*
X9997938Y-6858000D01*
X9997938Y-6832600D02*
X9972538Y-6858000D01*
X9985238Y-6489700D02*
X10010638Y-6515100D01*
X10010638Y-6489700D02*
X9985238Y-6515100D01*
X10017717Y-6908800D02*
X10043117Y-6934200D01*
X10043117Y-6908800D02*
X10017717Y-6934200D01*
X10018970Y-6558640D02*
X10044370Y-6584040D01*
X10044370Y-6558640D02*
X10018970Y-6584040D01*
X10018970Y-6758640D02*
X10044370Y-6784040D01*
X10044370Y-6758640D02*
X10018970Y-6784040D01*
X10034914Y-6413500D02*
X10060314Y-6438900D01*
X10060314Y-6413500D02*
X10034914Y-6438900D01*
X10047614Y-6832600D02*
X10073014Y-6858000D01*
X10073014Y-6832600D02*
X10047614Y-6858000D01*
X10060314Y-6489700D02*
X10085714Y-6515100D01*
X10085714Y-6489700D02*
X10060314Y-6515100D01*
X10084870Y-4650120D02*
X10110270Y-4675520D01*
X10110270Y-4650120D02*
X10084870Y-4675520D01*
X10084870Y-4811080D02*
X10110270Y-4836480D01*
X10110270Y-4811080D02*
X10084870Y-4836480D01*
X10084870Y-4972040D02*
X10110270Y-4997440D01*
X10110270Y-4972040D02*
X10084870Y-4997440D01*
X10084870Y-5133000D02*
X10110270Y-5158400D01*
X10110270Y-5133000D02*
X10084870Y-5158400D01*
X10084870Y-5293960D02*
X10110270Y-5319360D01*
X10110270Y-5293960D02*
X10084870Y-5319360D01*
X10084870Y-5454920D02*
X10110270Y-5480320D01*
X10110270Y-5454920D02*
X10084870Y-5480320D01*
X10084870Y-5615880D02*
X10110270Y-5641280D01*
X10110270Y-5615880D02*
X10084870Y-5641280D01*
X10084870Y-5776840D02*
X10110270Y-5802240D01*
X10110270Y-5776840D02*
X10084870Y-5802240D01*
X10084870Y-5937800D02*
X10110270Y-5963200D01*
X10110270Y-5937800D02*
X10084870Y-5963200D01*
X10084870Y-6098760D02*
X10110270Y-6124160D01*
X10110270Y-6098760D02*
X10084870Y-6124160D01*
X10084870Y-7225480D02*
X10110270Y-7250880D01*
X10110270Y-7225480D02*
X10084870Y-7250880D01*
X10084870Y-7386440D02*
X10110270Y-7411840D01*
X10110270Y-7386440D02*
X10084870Y-7411840D01*
X10084870Y-7547400D02*
X10110270Y-7572800D01*
X10110270Y-7547400D02*
X10084870Y-7572800D01*
X10084870Y-7708360D02*
X10110270Y-7733760D01*
X10110270Y-7708360D02*
X10084870Y-7733760D01*
X10084870Y-7869320D02*
X10110270Y-7894720D01*
X10110270Y-7869320D02*
X10084870Y-7894720D01*
X10084870Y-8030280D02*
X10110270Y-8055680D01*
X10110270Y-8030280D02*
X10084870Y-8055680D01*
X10084870Y-8191240D02*
X10110270Y-8216640D01*
X10110270Y-8191240D02*
X10084870Y-8216640D01*
X10084870Y-8352200D02*
X10110270Y-8377600D01*
X10110270Y-8352200D02*
X10084870Y-8377600D01*
X10084870Y-8513160D02*
X10110270Y-8538560D01*
X10110270Y-8513160D02*
X10084870Y-8538560D01*
X10084870Y-8674120D02*
X10110270Y-8699520D01*
X10110270Y-8674120D02*
X10084870Y-8699520D01*
X10084870Y-8835080D02*
X10110270Y-8860480D01*
X10110270Y-8835080D02*
X10084870Y-8860480D01*
X10084870Y-8996040D02*
X10110270Y-9021440D01*
X10110270Y-8996040D02*
X10084870Y-9021440D01*
X10084870Y-9157000D02*
X10110270Y-9182400D01*
X10110270Y-9157000D02*
X10084870Y-9182400D01*
X10084870Y-9317960D02*
X10110270Y-9343360D01*
X10110270Y-9317960D02*
X10084870Y-9343360D01*
X10084870Y-9478920D02*
X10110270Y-9504320D01*
X10110270Y-9478920D02*
X10084870Y-9504320D01*
X10084870Y-9639880D02*
X10110270Y-9665280D01*
X10110270Y-9639880D02*
X10084870Y-9665280D01*
X10092793Y-6908800D02*
X10118193Y-6934200D01*
X10118193Y-6908800D02*
X10092793Y-6934200D01*
X10094046Y-6558640D02*
X10119446Y-6584040D01*
X10119446Y-6558640D02*
X10094046Y-6584040D01*
X10094046Y-6758640D02*
X10119446Y-6784040D01*
X10119446Y-6758640D02*
X10094046Y-6784040D01*
X10109989Y-6413500D02*
X10135389Y-6438900D01*
X10135389Y-6413500D02*
X10109989Y-6438900D01*
X10122689Y-6832600D02*
X10148089Y-6858000D01*
X10148089Y-6832600D02*
X10122689Y-6858000D01*
X10135389Y-6489700D02*
X10160789Y-6515100D01*
X10160789Y-6489700D02*
X10135389Y-6515100D01*
X10167869Y-6908800D02*
X10193269Y-6934200D01*
X10193269Y-6908800D02*
X10167869Y-6934200D01*
X10169122Y-6558640D02*
X10194522Y-6584040D01*
X10194522Y-6558640D02*
X10169122Y-6584040D01*
X10169122Y-6758640D02*
X10194522Y-6784040D01*
X10194522Y-6758640D02*
X10169122Y-6784040D01*
X10185065Y-6413500D02*
X10210465Y-6438900D01*
X10210465Y-6413500D02*
X10185065Y-6438900D01*
X10197765Y-6832600D02*
X10223165Y-6858000D01*
X10223165Y-6832600D02*
X10197765Y-6858000D01*
X10210465Y-6489700D02*
X10235865Y-6515100D01*
X10235865Y-6489700D02*
X10210465Y-6515100D01*
X10242945Y-6908800D02*
X10268345Y-6934200D01*
X10268345Y-6908800D02*
X10242945Y-6934200D01*
X10244198Y-6558640D02*
X10269598Y-6584040D01*
X10269598Y-6558640D02*
X10244198Y-6584040D01*
X10244198Y-6758640D02*
X10269598Y-6784040D01*
X10269598Y-6758640D02*
X10244198Y-6784040D01*
X10245830Y-4650120D02*
X10271230Y-4675520D01*
X10271230Y-4650120D02*
X10245830Y-4675520D01*
X10245830Y-4811080D02*
X10271230Y-4836480D01*
X10271230Y-4811080D02*
X10245830Y-4836480D01*
X10245830Y-4972040D02*
X10271230Y-4997440D01*
X10271230Y-4972040D02*
X10245830Y-4997440D01*
X10245830Y-5133000D02*
X10271230Y-5158400D01*
X10271230Y-5133000D02*
X10245830Y-5158400D01*
X10245830Y-5293960D02*
X10271230Y-5319360D01*
X10271230Y-5293960D02*
X10245830Y-5319360D01*
X10245830Y-5454920D02*
X10271230Y-5480320D01*
X10271230Y-5454920D02*
X10245830Y-5480320D01*
X10245830Y-5615880D02*
X10271230Y-5641280D01*
X10271230Y-5615880D02*
X10245830Y-5641280D01*
X10245830Y-5776840D02*
X10271230Y-5802240D01*
X10271230Y-5776840D02*
X10245830Y-5802240D01*
X10245830Y-5937800D02*
X10271230Y-5963200D01*
X10271230Y-5937800D02*
X10245830Y-5963200D01*
X10245830Y-6098760D02*
X10271230Y-6124160D01*
X10271230Y-6098760D02*
X10245830Y-6124160D01*
X10245830Y-7225480D02*
X10271230Y-7250880D01*
X10271230Y-7225480D02*
X10245830Y-7250880D01*
X10245830Y-7386440D02*
X10271230Y-7411840D01*
X10271230Y-7386440D02*
X10245830Y-7411840D01*
X10245830Y-7547400D02*
X10271230Y-7572800D01*
X10271230Y-7547400D02*
X10245830Y-7572800D01*
X10245830Y-7708360D02*
X10271230Y-7733760D01*
X10271230Y-7708360D02*
X10245830Y-7733760D01*
X10245830Y-7869320D02*
X10271230Y-7894720D01*
X10271230Y-7869320D02*
X10245830Y-7894720D01*
X10245830Y-8030280D02*
X10271230Y-8055680D01*
X10271230Y-8030280D02*
X10245830Y-8055680D01*
X10245830Y-8191240D02*
X10271230Y-8216640D01*
X10271230Y-8191240D02*
X10245830Y-8216640D01*
X10245830Y-8352200D02*
X10271230Y-8377600D01*
X10271230Y-8352200D02*
X10245830Y-8377600D01*
X10245830Y-8513160D02*
X10271230Y-8538560D01*
X10271230Y-8513160D02*
X10245830Y-8538560D01*
X10245830Y-8674120D02*
X10271230Y-8699520D01*
X10271230Y-8674120D02*
X10245830Y-8699520D01*
X10245830Y-8835080D02*
X10271230Y-8860480D01*
X10271230Y-8835080D02*
X10245830Y-8860480D01*
X10245830Y-8996040D02*
X10271230Y-9021440D01*
X10271230Y-8996040D02*
X10245830Y-9021440D01*
X10245830Y-9157000D02*
X10271230Y-9182400D01*
X10271230Y-9157000D02*
X10245830Y-9182400D01*
X10245830Y-9317960D02*
X10271230Y-9343360D01*
X10271230Y-9317960D02*
X10245830Y-9343360D01*
X10245830Y-9478920D02*
X10271230Y-9504320D01*
X10271230Y-9478920D02*
X10245830Y-9504320D01*
X10245830Y-9639880D02*
X10271230Y-9665280D01*
X10271230Y-9639880D02*
X10245830Y-9665280D01*
X10260141Y-6413500D02*
X10285541Y-6438900D01*
X10285541Y-6413500D02*
X10260141Y-6438900D01*
X10272841Y-6832600D02*
X10298241Y-6858000D01*
X10298241Y-6832600D02*
X10272841Y-6858000D01*
X10285541Y-6489700D02*
X10310941Y-6515100D01*
X10310941Y-6489700D02*
X10285541Y-6515100D01*
X10318021Y-6908800D02*
X10343421Y-6934200D01*
X10343421Y-6908800D02*
X10318021Y-6934200D01*
X10319274Y-6558640D02*
X10344674Y-6584040D01*
X10344674Y-6558640D02*
X10319274Y-6584040D01*
X10319274Y-6758640D02*
X10344674Y-6784040D01*
X10344674Y-6758640D02*
X10319274Y-6784040D01*
X10335217Y-6413500D02*
X10360617Y-6438900D01*
X10360617Y-6413500D02*
X10335217Y-6438900D01*
X10347917Y-6832600D02*
X10373317Y-6858000D01*
X10373317Y-6832600D02*
X10347917Y-6858000D01*
X10360617Y-6489700D02*
X10386017Y-6515100D01*
X10386017Y-6489700D02*
X10360617Y-6515100D01*
X10393096Y-6908800D02*
X10418496Y-6934200D01*
X10418496Y-6908800D02*
X10393096Y-6934200D01*
X10394349Y-6558640D02*
X10419749Y-6584040D01*
X10419749Y-6558640D02*
X10394349Y-6584040D01*
X10394349Y-6758640D02*
X10419749Y-6784040D01*
X10419749Y-6758640D02*
X10394349Y-6784040D01*
X10406790Y-4650120D02*
X10432190Y-4675520D01*
X10432190Y-4650120D02*
X10406790Y-4675520D01*
X10406790Y-4811080D02*
X10432190Y-4836480D01*
X10432190Y-4811080D02*
X10406790Y-4836480D01*
X10406790Y-4972040D02*
X10432190Y-4997440D01*
X10432190Y-4972040D02*
X10406790Y-4997440D01*
X10406790Y-5133000D02*
X10432190Y-5158400D01*
X10432190Y-5133000D02*
X10406790Y-5158400D01*
X10406790Y-5293960D02*
X10432190Y-5319360D01*
X10432190Y-5293960D02*
X10406790Y-5319360D01*
X10406790Y-5454920D02*
X10432190Y-5480320D01*
X10432190Y-5454920D02*
X10406790Y-5480320D01*
X10406790Y-5615880D02*
X10432190Y-5641280D01*
X10432190Y-5615880D02*
X10406790Y-5641280D01*
X10406790Y-5776840D02*
X10432190Y-5802240D01*
X10432190Y-5776840D02*
X10406790Y-5802240D01*
X10406790Y-5937800D02*
X10432190Y-5963200D01*
X10432190Y-5937800D02*
X10406790Y-5963200D01*
X10406790Y-6098760D02*
X10432190Y-6124160D01*
X10432190Y-6098760D02*
X10406790Y-6124160D01*
X10406790Y-7547400D02*
X10432190Y-7572800D01*
X10432190Y-7547400D02*
X10406790Y-7572800D01*
X10406790Y-7708360D02*
X10432190Y-7733760D01*
X10432190Y-7708360D02*
X10406790Y-7733760D01*
X10406790Y-7869320D02*
X10432190Y-7894720D01*
X10432190Y-7869320D02*
X10406790Y-7894720D01*
X10406790Y-8030280D02*
X10432190Y-8055680D01*
X10432190Y-8030280D02*
X10406790Y-8055680D01*
X10406790Y-8191240D02*
X10432190Y-8216640D01*
X10432190Y-8191240D02*
X10406790Y-8216640D01*
X10406790Y-8352200D02*
X10432190Y-8377600D01*
X10432190Y-8352200D02*
X10406790Y-8377600D01*
X10406790Y-8513160D02*
X10432190Y-8538560D01*
X10432190Y-8513160D02*
X10406790Y-8538560D01*
X10406790Y-8674120D02*
X10432190Y-8699520D01*
X10432190Y-8674120D02*
X10406790Y-8699520D01*
X10406790Y-8835080D02*
X10432190Y-8860480D01*
X10432190Y-8835080D02*
X10406790Y-8860480D01*
X10406790Y-8996040D02*
X10432190Y-9021440D01*
X10432190Y-8996040D02*
X10406790Y-9021440D01*
X10406790Y-9157000D02*
X10432190Y-9182400D01*
X10432190Y-9157000D02*
X10406790Y-9182400D01*
X10406790Y-9317960D02*
X10432190Y-9343360D01*
X10432190Y-9317960D02*
X10406790Y-9343360D01*
X10406790Y-9478920D02*
X10432190Y-9504320D01*
X10432190Y-9478920D02*
X10406790Y-9504320D01*
X10406790Y-9639880D02*
X10432190Y-9665280D01*
X10432190Y-9639880D02*
X10406790Y-9665280D01*
X10410293Y-6413500D02*
X10435693Y-6438900D01*
X10435693Y-6413500D02*
X10410293Y-6438900D01*
X10422993Y-6832600D02*
X10448393Y-6858000D01*
X10448393Y-6832600D02*
X10422993Y-6858000D01*
X10435693Y-6489700D02*
X10461093Y-6515100D01*
X10461093Y-6489700D02*
X10435693Y-6515100D01*
X10452100Y-7213600D02*
X10477500Y-7239000D01*
X10477500Y-7213600D02*
X10452100Y-7239000D01*
X10452100Y-7366000D02*
X10477500Y-7391400D01*
X10477500Y-7366000D02*
X10452100Y-7391400D01*
X10468172Y-6908800D02*
X10493572Y-6934200D01*
X10493572Y-6908800D02*
X10468172Y-6934200D01*
X10469425Y-6558640D02*
X10494825Y-6584040D01*
X10494825Y-6558640D02*
X10469425Y-6584040D01*
X10469425Y-6758640D02*
X10494825Y-6784040D01*
X10494825Y-6758640D02*
X10469425Y-6784040D01*
X10485369Y-6413500D02*
X10510769Y-6438900D01*
X10510769Y-6413500D02*
X10485369Y-6438900D01*
X10498069Y-6832600D02*
X10523469Y-6858000D01*
X10523469Y-6832600D02*
X10498069Y-6858000D01*
X10510769Y-6489700D02*
X10536169Y-6515100D01*
X10536169Y-6489700D02*
X10510769Y-6515100D01*
X10543248Y-6908800D02*
X10568648Y-6934200D01*
X10568648Y-6908800D02*
X10543248Y-6934200D01*
X10544501Y-6558640D02*
X10569901Y-6584040D01*
X10569901Y-6558640D02*
X10544501Y-6584040D01*
X10544501Y-6758640D02*
X10569901Y-6784040D01*
X10569901Y-6758640D02*
X10544501Y-6784040D01*
X10560445Y-6413500D02*
X10585845Y-6438900D01*
X10585845Y-6413500D02*
X10560445Y-6438900D01*
X10567750Y-4650120D02*
X10593150Y-4675520D01*
X10593150Y-4650120D02*
X10567750Y-4675520D01*
X10567750Y-4811080D02*
X10593150Y-4836480D01*
X10593150Y-4811080D02*
X10567750Y-4836480D01*
X10567750Y-4972040D02*
X10593150Y-4997440D01*
X10593150Y-4972040D02*
X10567750Y-4997440D01*
X10567750Y-5133000D02*
X10593150Y-5158400D01*
X10593150Y-5133000D02*
X10567750Y-5158400D01*
X10567750Y-5293960D02*
X10593150Y-5319360D01*
X10593150Y-5293960D02*
X10567750Y-5319360D01*
X10567750Y-5454920D02*
X10593150Y-5480320D01*
X10593150Y-5454920D02*
X10567750Y-5480320D01*
X10567750Y-5615880D02*
X10593150Y-5641280D01*
X10593150Y-5615880D02*
X10567750Y-5641280D01*
X10567750Y-5776840D02*
X10593150Y-5802240D01*
X10593150Y-5776840D02*
X10567750Y-5802240D01*
X10567750Y-5937800D02*
X10593150Y-5963200D01*
X10593150Y-5937800D02*
X10567750Y-5963200D01*
X10567750Y-6098760D02*
X10593150Y-6124160D01*
X10593150Y-6098760D02*
X10567750Y-6124160D01*
X10567750Y-7869320D02*
X10593150Y-7894720D01*
X10593150Y-7869320D02*
X10567750Y-7894720D01*
X10567750Y-8030280D02*
X10593150Y-8055680D01*
X10593150Y-8030280D02*
X10567750Y-8055680D01*
X10567750Y-8191240D02*
X10593150Y-8216640D01*
X10593150Y-8191240D02*
X10567750Y-8216640D01*
X10567750Y-8352200D02*
X10593150Y-8377600D01*
X10593150Y-8352200D02*
X10567750Y-8377600D01*
X10567750Y-8513160D02*
X10593150Y-8538560D01*
X10593150Y-8513160D02*
X10567750Y-8538560D01*
X10567750Y-8674120D02*
X10593150Y-8699520D01*
X10593150Y-8674120D02*
X10567750Y-8699520D01*
X10567750Y-8835080D02*
X10593150Y-8860480D01*
X10593150Y-8835080D02*
X10567750Y-8860480D01*
X10567750Y-8996040D02*
X10593150Y-9021440D01*
X10593150Y-8996040D02*
X10567750Y-9021440D01*
X10567750Y-9157000D02*
X10593150Y-9182400D01*
X10593150Y-9157000D02*
X10567750Y-9182400D01*
X10567750Y-9317960D02*
X10593150Y-9343360D01*
X10593150Y-9317960D02*
X10567750Y-9343360D01*
X10567750Y-9478920D02*
X10593150Y-9504320D01*
X10593150Y-9478920D02*
X10567750Y-9504320D01*
X10567750Y-9639880D02*
X10593150Y-9665280D01*
X10593150Y-9639880D02*
X10567750Y-9665280D01*
X10573145Y-6832600D02*
X10598545Y-6858000D01*
X10598545Y-6832600D02*
X10573145Y-6858000D01*
X10585845Y-6489700D02*
X10611245Y-6515100D01*
X10611245Y-6489700D02*
X10585845Y-6515100D01*
X10618324Y-6908800D02*
X10643724Y-6934200D01*
X10643724Y-6908800D02*
X10618324Y-6934200D01*
X10619577Y-6558640D02*
X10644977Y-6584040D01*
X10644977Y-6558640D02*
X10619577Y-6584040D01*
X10619577Y-6758640D02*
X10644977Y-6784040D01*
X10644977Y-6758640D02*
X10619577Y-6784040D01*
X10635521Y-6413500D02*
X10660921Y-6438900D01*
X10660921Y-6413500D02*
X10635521Y-6438900D01*
X10648221Y-6832600D02*
X10673621Y-6858000D01*
X10673621Y-6832600D02*
X10648221Y-6858000D01*
X10660921Y-6489700D02*
X10686321Y-6515100D01*
X10686321Y-6489700D02*
X10660921Y-6515100D01*
X10693400Y-6908800D02*
X10718800Y-6934200D01*
X10718800Y-6908800D02*
X10693400Y-6934200D01*
X10694653Y-6558640D02*
X10720053Y-6584040D01*
X10720053Y-6558640D02*
X10694653Y-6584040D01*
X10694653Y-6758640D02*
X10720053Y-6784040D01*
X10720053Y-6758640D02*
X10694653Y-6784040D01*
X10710597Y-6413500D02*
X10735997Y-6438900D01*
X10735997Y-6413500D02*
X10710597Y-6438900D01*
X10723297Y-6832600D02*
X10748697Y-6858000D01*
X10748697Y-6832600D02*
X10723297Y-6858000D01*
X10728710Y-4650120D02*
X10754110Y-4675520D01*
X10754110Y-4650120D02*
X10728710Y-4675520D01*
X10728710Y-4811080D02*
X10754110Y-4836480D01*
X10754110Y-4811080D02*
X10728710Y-4836480D01*
X10728710Y-4972040D02*
X10754110Y-4997440D01*
X10754110Y-4972040D02*
X10728710Y-4997440D01*
X10728710Y-5133000D02*
X10754110Y-5158400D01*
X10754110Y-5133000D02*
X10728710Y-5158400D01*
X10728710Y-5293960D02*
X10754110Y-5319360D01*
X10754110Y-5293960D02*
X10728710Y-5319360D01*
X10728710Y-5454920D02*
X10754110Y-5480320D01*
X10754110Y-5454920D02*
X10728710Y-5480320D01*
X10728710Y-5615880D02*
X10754110Y-5641280D01*
X10754110Y-5615880D02*
X10728710Y-5641280D01*
X10728710Y-5776840D02*
X10754110Y-5802240D01*
X10754110Y-5776840D02*
X10728710Y-5802240D01*
X10728710Y-5937800D02*
X10754110Y-5963200D01*
X10754110Y-5937800D02*
X10728710Y-5963200D01*
X10728710Y-6098760D02*
X10754110Y-6124160D01*
X10754110Y-6098760D02*
X10728710Y-6124160D01*
X10728710Y-8030280D02*
X10754110Y-8055680D01*
X10754110Y-8030280D02*
X10728710Y-8055680D01*
X10728710Y-8191240D02*
X10754110Y-8216640D01*
X10754110Y-8191240D02*
X10728710Y-8216640D01*
X10728710Y-8352200D02*
X10754110Y-8377600D01*
X10754110Y-8352200D02*
X10728710Y-8377600D01*
X10728710Y-8513160D02*
X10754110Y-8538560D01*
X10754110Y-8513160D02*
X10728710Y-8538560D01*
X10728710Y-8674120D02*
X10754110Y-8699520D01*
X10754110Y-8674120D02*
X10728710Y-8699520D01*
X10728710Y-8835080D02*
X10754110Y-8860480D01*
X10754110Y-8835080D02*
X10728710Y-8860480D01*
X10728710Y-8996040D02*
X10754110Y-9021440D01*
X10754110Y-8996040D02*
X10728710Y-9021440D01*
X10728710Y-9157000D02*
X10754110Y-9182400D01*
X10754110Y-9157000D02*
X10728710Y-9182400D01*
X10728710Y-9317960D02*
X10754110Y-9343360D01*
X10754110Y-9317960D02*
X10728710Y-9343360D01*
X10728710Y-9478920D02*
X10754110Y-9504320D01*
X10754110Y-9478920D02*
X10728710Y-9504320D01*
X10728710Y-9639880D02*
X10754110Y-9665280D01*
X10754110Y-9639880D02*
X10728710Y-9665280D01*
X10735997Y-6489700D02*
X10761397Y-6515100D01*
X10761397Y-6489700D02*
X10735997Y-6515100D01*
X10769729Y-6558640D02*
X10795129Y-6584040D01*
X10795129Y-6558640D02*
X10769729Y-6584040D01*
X10769729Y-6758640D02*
X10795129Y-6784040D01*
X10795129Y-6758640D02*
X10769729Y-6784040D01*
X10785672Y-6413500D02*
X10811072Y-6438900D01*
X10811072Y-6413500D02*
X10785672Y-6438900D01*
X10798372Y-6832600D02*
X10823772Y-6858000D01*
X10823772Y-6832600D02*
X10798372Y-6858000D01*
X10811072Y-6489700D02*
X10836472Y-6515100D01*
X10836472Y-6489700D02*
X10811072Y-6515100D01*
X10844805Y-6558640D02*
X10870205Y-6584040D01*
X10870205Y-6558640D02*
X10844805Y-6584040D01*
X10844805Y-6758640D02*
X10870205Y-6784040D01*
X10870205Y-6758640D02*
X10844805Y-6784040D01*
X10860748Y-6413500D02*
X10886148Y-6438900D01*
X10886148Y-6413500D02*
X10860748Y-6438900D01*
X10873448Y-6832600D02*
X10898848Y-6858000D01*
X10898848Y-6832600D02*
X10873448Y-6858000D01*
X10886148Y-6489700D02*
X10911548Y-6515100D01*
X10911548Y-6489700D02*
X10886148Y-6515100D01*
X10889670Y-4650120D02*
X10915070Y-4675520D01*
X10915070Y-4650120D02*
X10889670Y-4675520D01*
X10889670Y-4811080D02*
X10915070Y-4836480D01*
X10915070Y-4811080D02*
X10889670Y-4836480D01*
X10889670Y-4972040D02*
X10915070Y-4997440D01*
X10915070Y-4972040D02*
X10889670Y-4997440D01*
X10889670Y-5133000D02*
X10915070Y-5158400D01*
X10915070Y-5133000D02*
X10889670Y-5158400D01*
X10889670Y-5293960D02*
X10915070Y-5319360D01*
X10915070Y-5293960D02*
X10889670Y-5319360D01*
X10889670Y-5454920D02*
X10915070Y-5480320D01*
X10915070Y-5454920D02*
X10889670Y-5480320D01*
X10889670Y-5615880D02*
X10915070Y-5641280D01*
X10915070Y-5615880D02*
X10889670Y-5641280D01*
X10889670Y-5776840D02*
X10915070Y-5802240D01*
X10915070Y-5776840D02*
X10889670Y-5802240D01*
X10889670Y-7386440D02*
X10915070Y-7411840D01*
X10915070Y-7386440D02*
X10889670Y-7411840D01*
X10889670Y-8030280D02*
X10915070Y-8055680D01*
X10915070Y-8030280D02*
X10889670Y-8055680D01*
X10889670Y-8191240D02*
X10915070Y-8216640D01*
X10915070Y-8191240D02*
X10889670Y-8216640D01*
X10889670Y-8352200D02*
X10915070Y-8377600D01*
X10915070Y-8352200D02*
X10889670Y-8377600D01*
X10889670Y-8513160D02*
X10915070Y-8538560D01*
X10915070Y-8513160D02*
X10889670Y-8538560D01*
X10889670Y-8674120D02*
X10915070Y-8699520D01*
X10915070Y-8674120D02*
X10889670Y-8699520D01*
X10889670Y-8835080D02*
X10915070Y-8860480D01*
X10915070Y-8835080D02*
X10889670Y-8860480D01*
X10889670Y-8996040D02*
X10915070Y-9021440D01*
X10915070Y-8996040D02*
X10889670Y-9021440D01*
X10889670Y-9157000D02*
X10915070Y-9182400D01*
X10915070Y-9157000D02*
X10889670Y-9182400D01*
X10889670Y-9317960D02*
X10915070Y-9343360D01*
X10915070Y-9317960D02*
X10889670Y-9343360D01*
X10889670Y-9478920D02*
X10915070Y-9504320D01*
X10915070Y-9478920D02*
X10889670Y-9504320D01*
X10889670Y-9639880D02*
X10915070Y-9665280D01*
X10915070Y-9639880D02*
X10889670Y-9665280D01*
X10919881Y-6558640D02*
X10945281Y-6584040D01*
X10945281Y-6558640D02*
X10919881Y-6584040D01*
X10919881Y-6758640D02*
X10945281Y-6784040D01*
X10945281Y-6758640D02*
X10919881Y-6784040D01*
X10922000Y-6019800D02*
X10947400Y-6045200D01*
X10947400Y-6019800D02*
X10922000Y-6045200D01*
X10922000Y-6146800D02*
X10947400Y-6172200D01*
X10947400Y-6146800D02*
X10922000Y-6172200D01*
X10922000Y-7632700D02*
X10947400Y-7658100D01*
X10947400Y-7632700D02*
X10922000Y-7658100D01*
X10935824Y-6413500D02*
X10961224Y-6438900D01*
X10961224Y-6413500D02*
X10935824Y-6438900D01*
X10947400Y-7162800D02*
X10972800Y-7188200D01*
X10972800Y-7162800D02*
X10947400Y-7188200D01*
X10948524Y-6832600D02*
X10973924Y-6858000D01*
X10973924Y-6832600D02*
X10948524Y-6858000D01*
X10961224Y-6489700D02*
X10986624Y-6515100D01*
X10986624Y-6489700D02*
X10961224Y-6515100D01*
X10994956Y-6558640D02*
X11020356Y-6584040D01*
X11020356Y-6558640D02*
X10994956Y-6584040D01*
X10994956Y-6758640D02*
X11020356Y-6784040D01*
X11020356Y-6758640D02*
X10994956Y-6784040D01*
X11010900Y-6413500D02*
X11036300Y-6438900D01*
X11036300Y-6413500D02*
X11010900Y-6438900D01*
X11023600Y-6832600D02*
X11049000Y-6858000D01*
X11049000Y-6832600D02*
X11023600Y-6858000D01*
X11023600Y-7315200D02*
X11049000Y-7340600D01*
X11049000Y-7315200D02*
X11023600Y-7340600D01*
X11023600Y-7442200D02*
X11049000Y-7467600D01*
X11049000Y-7442200D02*
X11023600Y-7467600D01*
X11036300Y-6489700D02*
X11061700Y-6515100D01*
X11061700Y-6489700D02*
X11036300Y-6515100D01*
X11050630Y-4650120D02*
X11076030Y-4675520D01*
X11076030Y-4650120D02*
X11050630Y-4675520D01*
X11050630Y-4811080D02*
X11076030Y-4836480D01*
X11076030Y-4811080D02*
X11050630Y-4836480D01*
X11050630Y-4972040D02*
X11076030Y-4997440D01*
X11076030Y-4972040D02*
X11050630Y-4997440D01*
X11050630Y-5133000D02*
X11076030Y-5158400D01*
X11076030Y-5133000D02*
X11050630Y-5158400D01*
X11050630Y-5293960D02*
X11076030Y-5319360D01*
X11076030Y-5293960D02*
X11050630Y-5319360D01*
X11050630Y-5454920D02*
X11076030Y-5480320D01*
X11076030Y-5454920D02*
X11050630Y-5480320D01*
X11050630Y-8030280D02*
X11076030Y-8055680D01*
X11076030Y-8030280D02*
X11050630Y-8055680D01*
X11050630Y-8191240D02*
X11076030Y-8216640D01*
X11076030Y-8191240D02*
X11050630Y-8216640D01*
X11050630Y-8352200D02*
X11076030Y-8377600D01*
X11076030Y-8352200D02*
X11050630Y-8377600D01*
X11050630Y-8835080D02*
X11076030Y-8860480D01*
X11076030Y-8835080D02*
X11050630Y-8860480D01*
X11050630Y-8996040D02*
X11076030Y-9021440D01*
X11076030Y-8996040D02*
X11050630Y-9021440D01*
X11050630Y-9157000D02*
X11076030Y-9182400D01*
X11076030Y-9157000D02*
X11050630Y-9182400D01*
X11050630Y-9317960D02*
X11076030Y-9343360D01*
X11076030Y-9317960D02*
X11050630Y-9343360D01*
X11050630Y-9478920D02*
X11076030Y-9504320D01*
X11076030Y-9478920D02*
X11050630Y-9504320D01*
X11050630Y-9639880D02*
X11076030Y-9665280D01*
X11076030Y-9639880D02*
X11050630Y-9665280D01*
X11070032Y-6558640D02*
X11095432Y-6584040D01*
X11095432Y-6558640D02*
X11070032Y-6584040D01*
X11070032Y-6758640D02*
X11095432Y-6784040D01*
X11095432Y-6758640D02*
X11070032Y-6784040D01*
X11085976Y-6413500D02*
X11111376Y-6438900D01*
X11111376Y-6413500D02*
X11085976Y-6438900D01*
X11098676Y-6832600D02*
X11124076Y-6858000D01*
X11124076Y-6832600D02*
X11098676Y-6858000D01*
X11099800Y-7162800D02*
X11125200Y-7188200D01*
X11125200Y-7162800D02*
X11099800Y-7188200D01*
X11111376Y-6489700D02*
X11136776Y-6515100D01*
X11136776Y-6489700D02*
X11111376Y-6515100D01*
X11145108Y-6558640D02*
X11170508Y-6584040D01*
X11170508Y-6558640D02*
X11145108Y-6584040D01*
X11145108Y-6758640D02*
X11170508Y-6784040D01*
X11170508Y-6758640D02*
X11145108Y-6784040D01*
X11161052Y-6413500D02*
X11186452Y-6438900D01*
X11186452Y-6413500D02*
X11161052Y-6438900D01*
X11186452Y-6489700D02*
X11211852Y-6515100D01*
X11211852Y-6489700D02*
X11186452Y-6515100D01*
X11211590Y-4650120D02*
X11236990Y-4675520D01*
X11236990Y-4650120D02*
X11211590Y-4675520D01*
X11211590Y-4811080D02*
X11236990Y-4836480D01*
X11236990Y-4811080D02*
X11211590Y-4836480D01*
X11211590Y-4972040D02*
X11236990Y-4997440D01*
X11236990Y-4972040D02*
X11211590Y-4997440D01*
X11211590Y-5133000D02*
X11236990Y-5158400D01*
X11236990Y-5133000D02*
X11211590Y-5158400D01*
X11211590Y-5293960D02*
X11236990Y-5319360D01*
X11236990Y-5293960D02*
X11211590Y-5319360D01*
X11211590Y-5454920D02*
X11236990Y-5480320D01*
X11236990Y-5454920D02*
X11211590Y-5480320D01*
X11211590Y-8030280D02*
X11236990Y-8055680D01*
X11236990Y-8030280D02*
X11211590Y-8055680D01*
X11211590Y-8191240D02*
X11236990Y-8216640D01*
X11236990Y-8191240D02*
X11211590Y-8216640D01*
X11211590Y-8352200D02*
X11236990Y-8377600D01*
X11236990Y-8352200D02*
X11211590Y-8377600D01*
X11211590Y-8835080D02*
X11236990Y-8860480D01*
X11236990Y-8835080D02*
X11211590Y-8860480D01*
X11211590Y-8996040D02*
X11236990Y-9021440D01*
X11236990Y-8996040D02*
X11211590Y-9021440D01*
X11211590Y-9157000D02*
X11236990Y-9182400D01*
X11236990Y-9157000D02*
X11211590Y-9182400D01*
X11211590Y-9317960D02*
X11236990Y-9343360D01*
X11236990Y-9317960D02*
X11211590Y-9343360D01*
X11211590Y-9478920D02*
X11236990Y-9504320D01*
X11236990Y-9478920D02*
X11211590Y-9504320D01*
X11211590Y-9639880D02*
X11236990Y-9665280D01*
X11236990Y-9639880D02*
X11211590Y-9665280D01*
X11220184Y-6558640D02*
X11245584Y-6584040D01*
X11245584Y-6558640D02*
X11220184Y-6584040D01*
X11220184Y-6758640D02*
X11245584Y-6784040D01*
X11245584Y-6758640D02*
X11220184Y-6784040D01*
X11264900Y-6019800D02*
X11290300Y-6045200D01*
X11290300Y-6019800D02*
X11264900Y-6045200D01*
X11264900Y-6146800D02*
X11290300Y-6172200D01*
X11290300Y-6146800D02*
X11264900Y-6172200D01*
X11264900Y-7035800D02*
X11290300Y-7061200D01*
X11290300Y-7035800D02*
X11264900Y-7061200D01*
X11295260Y-6558640D02*
X11320660Y-6584040D01*
X11320660Y-6558640D02*
X11295260Y-6584040D01*
X11295260Y-6758640D02*
X11320660Y-6784040D01*
X11320660Y-6758640D02*
X11295260Y-6784040D01*
X11315700Y-5854700D02*
X11341100Y-5880100D01*
X11341100Y-5854700D02*
X11315700Y-5880100D01*
X11328400Y-6438900D02*
X11353800Y-6464300D01*
X11353800Y-6438900D02*
X11328400Y-6464300D01*
X11353800Y-7416800D02*
X11379200Y-7442200D01*
X11379200Y-7416800D02*
X11353800Y-7442200D01*
X11353800Y-7543800D02*
X11379200Y-7569200D01*
X11379200Y-7543800D02*
X11353800Y-7569200D01*
X11372550Y-4650120D02*
X11397950Y-4675520D01*
X11397950Y-4650120D02*
X11372550Y-4675520D01*
X11372550Y-4811080D02*
X11397950Y-4836480D01*
X11397950Y-4811080D02*
X11372550Y-4836480D01*
X11372550Y-4972040D02*
X11397950Y-4997440D01*
X11397950Y-4972040D02*
X11372550Y-4997440D01*
X11372550Y-5133000D02*
X11397950Y-5158400D01*
X11397950Y-5133000D02*
X11372550Y-5158400D01*
X11372550Y-5293960D02*
X11397950Y-5319360D01*
X11397950Y-5293960D02*
X11372550Y-5319360D01*
X11372550Y-5454920D02*
X11397950Y-5480320D01*
X11397950Y-5454920D02*
X11372550Y-5480320D01*
X11372550Y-8835080D02*
X11397950Y-8860480D01*
X11397950Y-8835080D02*
X11372550Y-8860480D01*
X11372550Y-8996040D02*
X11397950Y-9021440D01*
X11397950Y-8996040D02*
X11372550Y-9021440D01*
X11372550Y-9157000D02*
X11397950Y-9182400D01*
X11397950Y-9157000D02*
X11372550Y-9182400D01*
X11372550Y-9317960D02*
X11397950Y-9343360D01*
X11397950Y-9317960D02*
X11372550Y-9343360D01*
X11372550Y-9478920D02*
X11397950Y-9504320D01*
X11397950Y-9478920D02*
X11372550Y-9504320D01*
X11372550Y-9639880D02*
X11397950Y-9665280D01*
X11397950Y-9639880D02*
X11372550Y-9665280D01*
X11404600Y-6540500D02*
X11430000Y-6565900D01*
X11430000Y-6540500D02*
X11404600Y-6565900D01*
X11404600Y-6616700D02*
X11430000Y-6642100D01*
X11430000Y-6616700D02*
X11404600Y-6642100D01*
X11404600Y-6705600D02*
X11430000Y-6731000D01*
X11430000Y-6705600D02*
X11404600Y-6731000D01*
X11404681Y-6794500D02*
X11430081Y-6819900D01*
X11430081Y-6794500D02*
X11404681Y-6819900D01*
X11493500Y-6540581D02*
X11518900Y-6565981D01*
X11518900Y-6540581D02*
X11493500Y-6565981D01*
X11493500Y-6616700D02*
X11518900Y-6642100D01*
X11518900Y-6616700D02*
X11493500Y-6642100D01*
X11493500Y-6705600D02*
X11518900Y-6731000D01*
X11518900Y-6705600D02*
X11493500Y-6731000D01*
X11493581Y-6794500D02*
X11518981Y-6819900D01*
X11518981Y-6794500D02*
X11493581Y-6819900D01*
X11533510Y-4972040D02*
X11558910Y-4997440D01*
X11558910Y-4972040D02*
X11533510Y-4997440D01*
X11533510Y-5133000D02*
X11558910Y-5158400D01*
X11558910Y-5133000D02*
X11533510Y-5158400D01*
X11533510Y-5293960D02*
X11558910Y-5319360D01*
X11558910Y-5293960D02*
X11533510Y-5319360D01*
X11533510Y-8835080D02*
X11558910Y-8860480D01*
X11558910Y-8835080D02*
X11533510Y-8860480D01*
X11533510Y-8996040D02*
X11558910Y-9021440D01*
X11558910Y-8996040D02*
X11533510Y-9021440D01*
X11533510Y-9157000D02*
X11558910Y-9182400D01*
X11558910Y-9157000D02*
X11533510Y-9182400D01*
X11533510Y-9317960D02*
X11558910Y-9343360D01*
X11558910Y-9317960D02*
X11533510Y-9343360D01*
X11533510Y-9478920D02*
X11558910Y-9504320D01*
X11558910Y-9478920D02*
X11533510Y-9504320D01*
X11533510Y-9639880D02*
X11558910Y-9665280D01*
X11558910Y-9639880D02*
X11533510Y-9665280D01*
X11582400Y-6540500D02*
X11607800Y-6565900D01*
X11607800Y-6540500D02*
X11582400Y-6565900D01*
X11582400Y-6616700D02*
X11607800Y-6642100D01*
X11607800Y-6616700D02*
X11582400Y-6642100D01*
X11582400Y-6705600D02*
X11607800Y-6731000D01*
X11607800Y-6705600D02*
X11582400Y-6731000D01*
X11582481Y-6794500D02*
X11607881Y-6819900D01*
X11607881Y-6794500D02*
X11582481Y-6819900D01*
X11595100Y-5880100D02*
X11620500Y-5905500D01*
X11620500Y-5880100D02*
X11595100Y-5905500D01*
X11620500Y-5969000D02*
X11645900Y-5994400D01*
X11645900Y-5969000D02*
X11620500Y-5994400D01*
X11620500Y-6057900D02*
X11645900Y-6083300D01*
X11645900Y-6057900D02*
X11620500Y-6083300D01*
X11620500Y-6146800D02*
X11645900Y-6172200D01*
X11645900Y-6146800D02*
X11620500Y-6172200D01*
X11632035Y-7487477D02*
X11657435Y-7512877D01*
X11657435Y-7487477D02*
X11632035Y-7512877D01*
X11633200Y-7353300D02*
X11658600Y-7378700D01*
X11658600Y-7353300D02*
X11633200Y-7378700D01*
X11671300Y-6540500D02*
X11696700Y-6565900D01*
X11696700Y-6540500D02*
X11671300Y-6565900D01*
X11671300Y-6616700D02*
X11696700Y-6642100D01*
X11696700Y-6616700D02*
X11671300Y-6642100D01*
X11671300Y-6705600D02*
X11696700Y-6731000D01*
X11696700Y-6705600D02*
X11671300Y-6731000D01*
X11671381Y-6794500D02*
X11696781Y-6819900D01*
X11696781Y-6794500D02*
X11671381Y-6819900D01*
X11694470Y-7869320D02*
X11719870Y-7894720D01*
X11719870Y-7869320D02*
X11694470Y-7894720D01*
X11694470Y-8030280D02*
X11719870Y-8055680D01*
X11719870Y-8030280D02*
X11694470Y-8055680D01*
X11694470Y-8191240D02*
X11719870Y-8216640D01*
X11719870Y-8191240D02*
X11694470Y-8216640D01*
X11694470Y-8352200D02*
X11719870Y-8377600D01*
X11719870Y-8352200D02*
X11694470Y-8377600D01*
X11694470Y-8835080D02*
X11719870Y-8860480D01*
X11719870Y-8835080D02*
X11694470Y-8860480D01*
X11694470Y-8996040D02*
X11719870Y-9021440D01*
X11719870Y-8996040D02*
X11694470Y-9021440D01*
X11694470Y-9157000D02*
X11719870Y-9182400D01*
X11719870Y-9157000D02*
X11694470Y-9182400D01*
X11694470Y-9317960D02*
X11719870Y-9343360D01*
X11719870Y-9317960D02*
X11694470Y-9343360D01*
X11694470Y-9478920D02*
X11719870Y-9504320D01*
X11719870Y-9478920D02*
X11694470Y-9504320D01*
X11694470Y-9639880D02*
X11719870Y-9665280D01*
X11719870Y-9639880D02*
X11694470Y-9665280D01*
X11785260Y-6558640D02*
X11810660Y-6584040D01*
X11810660Y-6558640D02*
X11785260Y-6584040D01*
X11785600Y-6731000D02*
X11811000Y-6756400D01*
X11811000Y-6731000D02*
X11785600Y-6756400D01*
X11855430Y-7869320D02*
X11880830Y-7894720D01*
X11880830Y-7869320D02*
X11855430Y-7894720D01*
X11855430Y-8030280D02*
X11880830Y-8055680D01*
X11880830Y-8030280D02*
X11855430Y-8055680D01*
X11855430Y-8191240D02*
X11880830Y-8216640D01*
X11880830Y-8191240D02*
X11855430Y-8216640D01*
X11855430Y-8352200D02*
X11880830Y-8377600D01*
X11880830Y-8352200D02*
X11855430Y-8377600D01*
X11855430Y-8835080D02*
X11880830Y-8860480D01*
X11880830Y-8835080D02*
X11855430Y-8860480D01*
X11855430Y-8996040D02*
X11880830Y-9021440D01*
X11880830Y-8996040D02*
X11855430Y-9021440D01*
X11855430Y-9157000D02*
X11880830Y-9182400D01*
X11880830Y-9157000D02*
X11855430Y-9182400D01*
X11855430Y-9317960D02*
X11880830Y-9343360D01*
X11880830Y-9317960D02*
X11855430Y-9343360D01*
X11855430Y-9478920D02*
X11880830Y-9504320D01*
X11880830Y-9478920D02*
X11855430Y-9504320D01*
X11855430Y-9639880D02*
X11880830Y-9665280D01*
X11880830Y-9639880D02*
X11855430Y-9665280D01*
X11861632Y-6558640D02*
X11887032Y-6584040D01*
X11887032Y-6558640D02*
X11861632Y-6584040D01*
X11874500Y-7315200D02*
X11899900Y-7340600D01*
X11899900Y-7315200D02*
X11874500Y-7340600D01*
X11899555Y-6489700D02*
X11924955Y-6515100D01*
X11924955Y-6489700D02*
X11899555Y-6515100D01*
X11899900Y-7620000D02*
X11925300Y-7645400D01*
X11925300Y-7620000D02*
X11899900Y-7645400D01*
X11912600Y-7493000D02*
X11938000Y-7518400D01*
X11938000Y-7493000D02*
X11912600Y-7518400D01*
X11937655Y-6413500D02*
X11963055Y-6438900D01*
X11963055Y-6413500D02*
X11937655Y-6438900D01*
X11938005Y-6558640D02*
X11963405Y-6584040D01*
X11963405Y-6558640D02*
X11938005Y-6584040D01*
X11960186Y-6014905D02*
X11985586Y-6040305D01*
X11985586Y-6014905D02*
X11960186Y-6040305D01*
X11963400Y-5867400D02*
X11988800Y-5892800D01*
X11988800Y-5867400D02*
X11963400Y-5892800D01*
X11975928Y-6489700D02*
X12001328Y-6515100D01*
X12001328Y-6489700D02*
X11975928Y-6515100D01*
X12014028Y-6413500D02*
X12039428Y-6438900D01*
X12039428Y-6413500D02*
X12014028Y-6438900D01*
X12014377Y-6558640D02*
X12039777Y-6584040D01*
X12039777Y-6558640D02*
X12014377Y-6584040D01*
X12016390Y-7708360D02*
X12041790Y-7733760D01*
X12041790Y-7708360D02*
X12016390Y-7733760D01*
X12016390Y-7869320D02*
X12041790Y-7894720D01*
X12041790Y-7869320D02*
X12016390Y-7894720D01*
X12016390Y-8030280D02*
X12041790Y-8055680D01*
X12041790Y-8030280D02*
X12016390Y-8055680D01*
X12016390Y-8191240D02*
X12041790Y-8216640D01*
X12041790Y-8191240D02*
X12016390Y-8216640D01*
X12016390Y-8352200D02*
X12041790Y-8377600D01*
X12041790Y-8352200D02*
X12016390Y-8377600D01*
X12016390Y-8835080D02*
X12041790Y-8860480D01*
X12041790Y-8835080D02*
X12016390Y-8860480D01*
X12016390Y-8996040D02*
X12041790Y-9021440D01*
X12041790Y-8996040D02*
X12016390Y-9021440D01*
X12016390Y-9157000D02*
X12041790Y-9182400D01*
X12041790Y-9157000D02*
X12016390Y-9182400D01*
X12016390Y-9317960D02*
X12041790Y-9343360D01*
X12041790Y-9317960D02*
X12016390Y-9343360D01*
X12016390Y-9478920D02*
X12041790Y-9504320D01*
X12041790Y-9478920D02*
X12016390Y-9504320D01*
X12016390Y-9639880D02*
X12041790Y-9665280D01*
X12041790Y-9639880D02*
X12016390Y-9665280D01*
X12052300Y-6489700D02*
X12077700Y-6515100D01*
X12077700Y-6489700D02*
X12052300Y-6515100D01*
X12090400Y-6413500D02*
X12115800Y-6438900D01*
X12115800Y-6413500D02*
X12090400Y-6438900D01*
X12090749Y-6558640D02*
X12116149Y-6584040D01*
X12116149Y-6558640D02*
X12090749Y-6584040D01*
X12128672Y-6489700D02*
X12154072Y-6515100D01*
X12154072Y-6489700D02*
X12128672Y-6515100D01*
X12141200Y-6946900D02*
X12166600Y-6972300D01*
X12166600Y-6946900D02*
X12141200Y-6972300D01*
X12166772Y-6413500D02*
X12192172Y-6438900D01*
X12192172Y-6413500D02*
X12166772Y-6438900D01*
X12167122Y-6558640D02*
X12192522Y-6584040D01*
X12192522Y-6558640D02*
X12167122Y-6584040D01*
X12177350Y-4650120D02*
X12202750Y-4675520D01*
X12202750Y-4650120D02*
X12177350Y-4675520D01*
X12177350Y-4811080D02*
X12202750Y-4836480D01*
X12202750Y-4811080D02*
X12177350Y-4836480D01*
X12177350Y-4972040D02*
X12202750Y-4997440D01*
X12202750Y-4972040D02*
X12177350Y-4997440D01*
X12177350Y-5133000D02*
X12202750Y-5158400D01*
X12202750Y-5133000D02*
X12177350Y-5158400D01*
X12177350Y-5776840D02*
X12202750Y-5802240D01*
X12202750Y-5776840D02*
X12177350Y-5802240D01*
X12177350Y-5937800D02*
X12202750Y-5963200D01*
X12202750Y-5937800D02*
X12177350Y-5963200D01*
X12177350Y-6098760D02*
X12202750Y-6124160D01*
X12202750Y-6098760D02*
X12177350Y-6124160D01*
X12177350Y-8835080D02*
X12202750Y-8860480D01*
X12202750Y-8835080D02*
X12177350Y-8860480D01*
X12177350Y-8996040D02*
X12202750Y-9021440D01*
X12202750Y-8996040D02*
X12177350Y-9021440D01*
X12177350Y-9157000D02*
X12202750Y-9182400D01*
X12202750Y-9157000D02*
X12177350Y-9182400D01*
X12177350Y-9317960D02*
X12202750Y-9343360D01*
X12202750Y-9317960D02*
X12177350Y-9343360D01*
X12177350Y-9478920D02*
X12202750Y-9504320D01*
X12202750Y-9478920D02*
X12177350Y-9504320D01*
X12177350Y-9639880D02*
X12202750Y-9665280D01*
X12202750Y-9639880D02*
X12177350Y-9665280D01*
X12205045Y-6489700D02*
X12230445Y-6515100D01*
X12230445Y-6489700D02*
X12205045Y-6515100D01*
X12230100Y-5410200D02*
X12255500Y-5435600D01*
X12255500Y-5410200D02*
X12230100Y-5435600D01*
X12230100Y-5486400D02*
X12255500Y-5511800D01*
X12255500Y-5486400D02*
X12230100Y-5511800D01*
X12242800Y-7023100D02*
X12268200Y-7048500D01*
X12268200Y-7023100D02*
X12242800Y-7048500D01*
X12243145Y-6413500D02*
X12268545Y-6438900D01*
X12268545Y-6413500D02*
X12243145Y-6438900D01*
X12243494Y-6558640D02*
X12268894Y-6584040D01*
X12268894Y-6558640D02*
X12243494Y-6584040D01*
X12281417Y-6489700D02*
X12306817Y-6515100D01*
X12306817Y-6489700D02*
X12281417Y-6515100D01*
X12319517Y-6413500D02*
X12344917Y-6438900D01*
X12344917Y-6413500D02*
X12319517Y-6438900D01*
X12319867Y-6558640D02*
X12345267Y-6584040D01*
X12345267Y-6558640D02*
X12319867Y-6584040D01*
X12331700Y-7099300D02*
X12357100Y-7124700D01*
X12357100Y-7099300D02*
X12331700Y-7124700D01*
X12338310Y-4650120D02*
X12363710Y-4675520D01*
X12363710Y-4650120D02*
X12338310Y-4675520D01*
X12338310Y-4811080D02*
X12363710Y-4836480D01*
X12363710Y-4811080D02*
X12338310Y-4836480D01*
X12338310Y-4972040D02*
X12363710Y-4997440D01*
X12363710Y-4972040D02*
X12338310Y-4997440D01*
X12338310Y-5133000D02*
X12363710Y-5158400D01*
X12363710Y-5133000D02*
X12338310Y-5158400D01*
X12338310Y-5293960D02*
X12363710Y-5319360D01*
X12363710Y-5293960D02*
X12338310Y-5319360D01*
X12338310Y-5454920D02*
X12363710Y-5480320D01*
X12363710Y-5454920D02*
X12338310Y-5480320D01*
X12338310Y-5615880D02*
X12363710Y-5641280D01*
X12363710Y-5615880D02*
X12338310Y-5641280D01*
X12338310Y-5776840D02*
X12363710Y-5802240D01*
X12363710Y-5776840D02*
X12338310Y-5802240D01*
X12338310Y-5937800D02*
X12363710Y-5963200D01*
X12363710Y-5937800D02*
X12338310Y-5963200D01*
X12338310Y-6098760D02*
X12363710Y-6124160D01*
X12363710Y-6098760D02*
X12338310Y-6124160D01*
X12338310Y-8835080D02*
X12363710Y-8860480D01*
X12363710Y-8835080D02*
X12338310Y-8860480D01*
X12338310Y-8996040D02*
X12363710Y-9021440D01*
X12363710Y-8996040D02*
X12338310Y-9021440D01*
X12338310Y-9157000D02*
X12363710Y-9182400D01*
X12363710Y-9157000D02*
X12338310Y-9182400D01*
X12338310Y-9317960D02*
X12363710Y-9343360D01*
X12363710Y-9317960D02*
X12338310Y-9343360D01*
X12338310Y-9478920D02*
X12363710Y-9504320D01*
X12363710Y-9478920D02*
X12338310Y-9504320D01*
X12338310Y-9639880D02*
X12363710Y-9665280D01*
X12363710Y-9639880D02*
X12338310Y-9665280D01*
X12357790Y-6489700D02*
X12383190Y-6515100D01*
X12383190Y-6489700D02*
X12357790Y-6515100D01*
X12369800Y-7518400D02*
X12395200Y-7543800D01*
X12395200Y-7518400D02*
X12369800Y-7543800D01*
X12369800Y-7645400D02*
X12395200Y-7670800D01*
X12395200Y-7645400D02*
X12369800Y-7670800D01*
X12395890Y-6413500D02*
X12421290Y-6438900D01*
X12421290Y-6413500D02*
X12395890Y-6438900D01*
X12396239Y-6558640D02*
X12421639Y-6584040D01*
X12421639Y-6558640D02*
X12396239Y-6584040D01*
X12420600Y-7175500D02*
X12446000Y-7200900D01*
X12446000Y-7175500D02*
X12420600Y-7200900D01*
X12434162Y-6489700D02*
X12459562Y-6515100D01*
X12459562Y-6489700D02*
X12434162Y-6515100D01*
X12472262Y-6413500D02*
X12497662Y-6438900D01*
X12497662Y-6413500D02*
X12472262Y-6438900D01*
X12472611Y-6558640D02*
X12498011Y-6584040D01*
X12498011Y-6558640D02*
X12472611Y-6584040D01*
X12472611Y-6758640D02*
X12498011Y-6784040D01*
X12498011Y-6758640D02*
X12472611Y-6784040D01*
X12499270Y-4650120D02*
X12524670Y-4675520D01*
X12524670Y-4650120D02*
X12499270Y-4675520D01*
X12499270Y-4811080D02*
X12524670Y-4836480D01*
X12524670Y-4811080D02*
X12499270Y-4836480D01*
X12499270Y-4972040D02*
X12524670Y-4997440D01*
X12524670Y-4972040D02*
X12499270Y-4997440D01*
X12499270Y-5133000D02*
X12524670Y-5158400D01*
X12524670Y-5133000D02*
X12499270Y-5158400D01*
X12499270Y-5293960D02*
X12524670Y-5319360D01*
X12524670Y-5293960D02*
X12499270Y-5319360D01*
X12499270Y-5454920D02*
X12524670Y-5480320D01*
X12524670Y-5454920D02*
X12499270Y-5480320D01*
X12499270Y-5615880D02*
X12524670Y-5641280D01*
X12524670Y-5615880D02*
X12499270Y-5641280D01*
X12499270Y-5776840D02*
X12524670Y-5802240D01*
X12524670Y-5776840D02*
X12499270Y-5802240D01*
X12499270Y-5937800D02*
X12524670Y-5963200D01*
X12524670Y-5937800D02*
X12499270Y-5963200D01*
X12499270Y-6098760D02*
X12524670Y-6124160D01*
X12524670Y-6098760D02*
X12499270Y-6124160D01*
X12499270Y-7547400D02*
X12524670Y-7572800D01*
X12524670Y-7547400D02*
X12499270Y-7572800D01*
X12499270Y-7708360D02*
X12524670Y-7733760D01*
X12524670Y-7708360D02*
X12499270Y-7733760D01*
X12499270Y-7869320D02*
X12524670Y-7894720D01*
X12524670Y-7869320D02*
X12499270Y-7894720D01*
X12499270Y-8030280D02*
X12524670Y-8055680D01*
X12524670Y-8030280D02*
X12499270Y-8055680D01*
X12499270Y-8191240D02*
X12524670Y-8216640D01*
X12524670Y-8191240D02*
X12499270Y-8216640D01*
X12499270Y-8352200D02*
X12524670Y-8377600D01*
X12524670Y-8352200D02*
X12499270Y-8377600D01*
X12499270Y-8835080D02*
X12524670Y-8860480D01*
X12524670Y-8835080D02*
X12499270Y-8860480D01*
X12499270Y-9478920D02*
X12524670Y-9504320D01*
X12524670Y-9478920D02*
X12499270Y-9504320D01*
X12499270Y-9639880D02*
X12524670Y-9665280D01*
X12524670Y-9639880D02*
X12499270Y-9665280D01*
X12510534Y-6489700D02*
X12535934Y-6515100D01*
X12535934Y-6489700D02*
X12510534Y-6515100D01*
X12547600Y-8636000D02*
X12573000Y-8661400D01*
X12573000Y-8636000D02*
X12547600Y-8661400D01*
X12548447Y-8501957D02*
X12573847Y-8527357D01*
X12573847Y-8501957D02*
X12548447Y-8527357D01*
X12548634Y-6413500D02*
X12574034Y-6438900D01*
X12574034Y-6413500D02*
X12548634Y-6438900D01*
X12548984Y-6558640D02*
X12574384Y-6584040D01*
X12574384Y-6558640D02*
X12548984Y-6584040D01*
X12548984Y-6758640D02*
X12574384Y-6784040D01*
X12574384Y-6758640D02*
X12548984Y-6784040D01*
X12586907Y-6489700D02*
X12612307Y-6515100D01*
X12612307Y-6489700D02*
X12586907Y-6515100D01*
X12598228Y-6832600D02*
X12623628Y-6858000D01*
X12623628Y-6832600D02*
X12598228Y-6858000D01*
X12625007Y-6413500D02*
X12650407Y-6438900D01*
X12650407Y-6413500D02*
X12625007Y-6438900D01*
X12625356Y-6558640D02*
X12650756Y-6584040D01*
X12650756Y-6558640D02*
X12625356Y-6584040D01*
X12625356Y-6758640D02*
X12650756Y-6784040D01*
X12650756Y-6758640D02*
X12625356Y-6784040D01*
X12649028Y-6908800D02*
X12674428Y-6934200D01*
X12674428Y-6908800D02*
X12649028Y-6934200D01*
X12658835Y-8636000D02*
X12684235Y-8661400D01*
X12684235Y-8636000D02*
X12658835Y-8661400D01*
X12658835Y-8796960D02*
X12684235Y-8822360D01*
X12684235Y-8796960D02*
X12658835Y-8822360D01*
X12658835Y-8957920D02*
X12684235Y-8983320D01*
X12684235Y-8957920D02*
X12658835Y-8983320D01*
X12659683Y-8173749D02*
X12685083Y-8199149D01*
X12685083Y-8173749D02*
X12659683Y-8199149D01*
X12659683Y-8334709D02*
X12685083Y-8360109D01*
X12685083Y-8334709D02*
X12659683Y-8360109D01*
X12659683Y-8501957D02*
X12685083Y-8527357D01*
X12685083Y-8501957D02*
X12659683Y-8527357D01*
X12660230Y-4650120D02*
X12685630Y-4675520D01*
X12685630Y-4650120D02*
X12660230Y-4675520D01*
X12660230Y-4811080D02*
X12685630Y-4836480D01*
X12685630Y-4811080D02*
X12660230Y-4836480D01*
X12660230Y-4972040D02*
X12685630Y-4997440D01*
X12685630Y-4972040D02*
X12660230Y-4997440D01*
X12660230Y-5133000D02*
X12685630Y-5158400D01*
X12685630Y-5133000D02*
X12660230Y-5158400D01*
X12660230Y-5293960D02*
X12685630Y-5319360D01*
X12685630Y-5293960D02*
X12660230Y-5319360D01*
X12660230Y-5454920D02*
X12685630Y-5480320D01*
X12685630Y-5454920D02*
X12660230Y-5480320D01*
X12660230Y-5615880D02*
X12685630Y-5641280D01*
X12685630Y-5615880D02*
X12660230Y-5641280D01*
X12660230Y-5776840D02*
X12685630Y-5802240D01*
X12685630Y-5776840D02*
X12660230Y-5802240D01*
X12660230Y-5937800D02*
X12685630Y-5963200D01*
X12685630Y-5937800D02*
X12660230Y-5963200D01*
X12660230Y-6098760D02*
X12685630Y-6124160D01*
X12685630Y-6098760D02*
X12660230Y-6124160D01*
X12660230Y-7547400D02*
X12685630Y-7572800D01*
X12685630Y-7547400D02*
X12660230Y-7572800D01*
X12660230Y-7708360D02*
X12685630Y-7733760D01*
X12685630Y-7708360D02*
X12660230Y-7733760D01*
X12660230Y-7869320D02*
X12685630Y-7894720D01*
X12685630Y-7869320D02*
X12660230Y-7894720D01*
X12660230Y-8030280D02*
X12685630Y-8055680D01*
X12685630Y-8030280D02*
X12660230Y-8055680D01*
X12660230Y-9478920D02*
X12685630Y-9504320D01*
X12685630Y-9478920D02*
X12660230Y-9504320D01*
X12660230Y-9639880D02*
X12685630Y-9665280D01*
X12685630Y-9639880D02*
X12660230Y-9665280D01*
X12663279Y-6489700D02*
X12688679Y-6515100D01*
X12688679Y-6489700D02*
X12663279Y-6515100D01*
X12674600Y-6832600D02*
X12700000Y-6858000D01*
X12700000Y-6832600D02*
X12674600Y-6858000D01*
X12701379Y-6413500D02*
X12726779Y-6438900D01*
X12726779Y-6413500D02*
X12701379Y-6438900D01*
X12701729Y-6558640D02*
X12727129Y-6584040D01*
X12727129Y-6558640D02*
X12701729Y-6584040D01*
X12701729Y-6758640D02*
X12727129Y-6784040D01*
X12727129Y-6758640D02*
X12701729Y-6784040D01*
X12725400Y-6908800D02*
X12750800Y-6934200D01*
X12750800Y-6908800D02*
X12725400Y-6934200D01*
X12739651Y-6489700D02*
X12765051Y-6515100D01*
X12765051Y-6489700D02*
X12739651Y-6515100D01*
X12750972Y-6832600D02*
X12776372Y-6858000D01*
X12776372Y-6832600D02*
X12750972Y-6858000D01*
X12777751Y-6413500D02*
X12803151Y-6438900D01*
X12803151Y-6413500D02*
X12777751Y-6438900D01*
X12778101Y-6558640D02*
X12803501Y-6584040D01*
X12803501Y-6558640D02*
X12778101Y-6584040D01*
X12778101Y-6758640D02*
X12803501Y-6784040D01*
X12803501Y-6758640D02*
X12778101Y-6784040D01*
X12801772Y-6908800D02*
X12827172Y-6934200D01*
X12827172Y-6908800D02*
X12801772Y-6934200D01*
X12816024Y-6489700D02*
X12841424Y-6515100D01*
X12841424Y-6489700D02*
X12816024Y-6515100D01*
X12821190Y-4650120D02*
X12846590Y-4675520D01*
X12846590Y-4650120D02*
X12821190Y-4675520D01*
X12821190Y-4811080D02*
X12846590Y-4836480D01*
X12846590Y-4811080D02*
X12821190Y-4836480D01*
X12821190Y-4972040D02*
X12846590Y-4997440D01*
X12846590Y-4972040D02*
X12821190Y-4997440D01*
X12821190Y-5133000D02*
X12846590Y-5158400D01*
X12846590Y-5133000D02*
X12821190Y-5158400D01*
X12821190Y-5293960D02*
X12846590Y-5319360D01*
X12846590Y-5293960D02*
X12821190Y-5319360D01*
X12821190Y-5454920D02*
X12846590Y-5480320D01*
X12846590Y-5454920D02*
X12821190Y-5480320D01*
X12821190Y-5615880D02*
X12846590Y-5641280D01*
X12846590Y-5615880D02*
X12821190Y-5641280D01*
X12821190Y-5776840D02*
X12846590Y-5802240D01*
X12846590Y-5776840D02*
X12821190Y-5802240D01*
X12821190Y-5937800D02*
X12846590Y-5963200D01*
X12846590Y-5937800D02*
X12821190Y-5963200D01*
X12821190Y-6098760D02*
X12846590Y-6124160D01*
X12846590Y-6098760D02*
X12821190Y-6124160D01*
X12821190Y-9478920D02*
X12846590Y-9504320D01*
X12846590Y-9478920D02*
X12821190Y-9504320D01*
X12821190Y-9639880D02*
X12846590Y-9665280D01*
X12846590Y-9639880D02*
X12821190Y-9665280D01*
X12827345Y-6832600D02*
X12852745Y-6858000D01*
X12852745Y-6832600D02*
X12827345Y-6858000D01*
X12854124Y-6413500D02*
X12879524Y-6438900D01*
X12879524Y-6413500D02*
X12854124Y-6438900D01*
X12854473Y-6558640D02*
X12879873Y-6584040D01*
X12879873Y-6558640D02*
X12854473Y-6584040D01*
X12854473Y-6758640D02*
X12879873Y-6784040D01*
X12879873Y-6758640D02*
X12854473Y-6784040D01*
X12878145Y-6908800D02*
X12903545Y-6934200D01*
X12903545Y-6908800D02*
X12878145Y-6934200D01*
X12892396Y-6489700D02*
X12917796Y-6515100D01*
X12917796Y-6489700D02*
X12892396Y-6515100D01*
X12903717Y-6832600D02*
X12929117Y-6858000D01*
X12929117Y-6832600D02*
X12903717Y-6858000D01*
X12930496Y-6413500D02*
X12955896Y-6438900D01*
X12955896Y-6413500D02*
X12930496Y-6438900D01*
X12930846Y-6558640D02*
X12956246Y-6584040D01*
X12956246Y-6558640D02*
X12930846Y-6584040D01*
X12930846Y-6758640D02*
X12956246Y-6784040D01*
X12956246Y-6758640D02*
X12930846Y-6784040D01*
X12954517Y-6908800D02*
X12979917Y-6934200D01*
X12979917Y-6908800D02*
X12954517Y-6934200D01*
X12968769Y-6489700D02*
X12994169Y-6515100D01*
X12994169Y-6489700D02*
X12968769Y-6515100D01*
X12980089Y-6832600D02*
X13005489Y-6858000D01*
X13005489Y-6832600D02*
X12980089Y-6858000D01*
X12982150Y-4650120D02*
X13007550Y-4675520D01*
X13007550Y-4650120D02*
X12982150Y-4675520D01*
X12982150Y-4811080D02*
X13007550Y-4836480D01*
X13007550Y-4811080D02*
X12982150Y-4836480D01*
X12982150Y-4972040D02*
X13007550Y-4997440D01*
X13007550Y-4972040D02*
X12982150Y-4997440D01*
X12982150Y-5133000D02*
X13007550Y-5158400D01*
X13007550Y-5133000D02*
X12982150Y-5158400D01*
X12982150Y-5293960D02*
X13007550Y-5319360D01*
X13007550Y-5293960D02*
X12982150Y-5319360D01*
X12982150Y-5454920D02*
X13007550Y-5480320D01*
X13007550Y-5454920D02*
X12982150Y-5480320D01*
X12982150Y-5615880D02*
X13007550Y-5641280D01*
X13007550Y-5615880D02*
X12982150Y-5641280D01*
X12982150Y-5776840D02*
X13007550Y-5802240D01*
X13007550Y-5776840D02*
X12982150Y-5802240D01*
X12982150Y-5937800D02*
X13007550Y-5963200D01*
X13007550Y-5937800D02*
X12982150Y-5963200D01*
X12982150Y-6098760D02*
X13007550Y-6124160D01*
X13007550Y-6098760D02*
X12982150Y-6124160D01*
X12982150Y-9478920D02*
X13007550Y-9504320D01*
X13007550Y-9478920D02*
X12982150Y-9504320D01*
X12982150Y-9639880D02*
X13007550Y-9665280D01*
X13007550Y-9639880D02*
X12982150Y-9665280D01*
X13006869Y-6413500D02*
X13032269Y-6438900D01*
X13032269Y-6413500D02*
X13006869Y-6438900D01*
X13007218Y-6558640D02*
X13032618Y-6584040D01*
X13032618Y-6558640D02*
X13007218Y-6584040D01*
X13007218Y-6758640D02*
X13032618Y-6784040D01*
X13032618Y-6758640D02*
X13007218Y-6784040D01*
X13017500Y-7797800D02*
X13042900Y-7823200D01*
X13042900Y-7797800D02*
X13017500Y-7823200D01*
X13030200Y-8509000D02*
X13055600Y-8534400D01*
X13055600Y-8509000D02*
X13030200Y-8534400D01*
X13030200Y-8851900D02*
X13055600Y-8877300D01*
X13055600Y-8851900D02*
X13030200Y-8877300D01*
X13030889Y-6908800D02*
X13056289Y-6934200D01*
X13056289Y-6908800D02*
X13030889Y-6934200D01*
X13045141Y-6489700D02*
X13070541Y-6515100D01*
X13070541Y-6489700D02*
X13045141Y-6515100D01*
X13056462Y-6832600D02*
X13081862Y-6858000D01*
X13081862Y-6832600D02*
X13056462Y-6858000D01*
X13068300Y-8001000D02*
X13093700Y-8026400D01*
X13093700Y-8001000D02*
X13068300Y-8026400D01*
X13083241Y-6413500D02*
X13108641Y-6438900D01*
X13108641Y-6413500D02*
X13083241Y-6438900D01*
X13083591Y-6558640D02*
X13108991Y-6584040D01*
X13108991Y-6558640D02*
X13083591Y-6584040D01*
X13083591Y-6758640D02*
X13108991Y-6784040D01*
X13108991Y-6758640D02*
X13083591Y-6784040D01*
X13107262Y-6908800D02*
X13132662Y-6934200D01*
X13132662Y-6908800D02*
X13107262Y-6934200D01*
X13119100Y-8216900D02*
X13144500Y-8242300D01*
X13144500Y-8216900D02*
X13119100Y-8242300D01*
X13121513Y-6489700D02*
X13146913Y-6515100D01*
X13146913Y-6489700D02*
X13121513Y-6515100D01*
X13132834Y-6832600D02*
X13158234Y-6858000D01*
X13158234Y-6832600D02*
X13132834Y-6858000D01*
X13143110Y-4650120D02*
X13168510Y-4675520D01*
X13168510Y-4650120D02*
X13143110Y-4675520D01*
X13143110Y-4811080D02*
X13168510Y-4836480D01*
X13168510Y-4811080D02*
X13143110Y-4836480D01*
X13143110Y-4972040D02*
X13168510Y-4997440D01*
X13168510Y-4972040D02*
X13143110Y-4997440D01*
X13143110Y-5133000D02*
X13168510Y-5158400D01*
X13168510Y-5133000D02*
X13143110Y-5158400D01*
X13143110Y-5293960D02*
X13168510Y-5319360D01*
X13168510Y-5293960D02*
X13143110Y-5319360D01*
X13143110Y-5454920D02*
X13168510Y-5480320D01*
X13168510Y-5454920D02*
X13143110Y-5480320D01*
X13143110Y-5615880D02*
X13168510Y-5641280D01*
X13168510Y-5615880D02*
X13143110Y-5641280D01*
X13143110Y-5776840D02*
X13168510Y-5802240D01*
X13168510Y-5776840D02*
X13143110Y-5802240D01*
X13143110Y-5937800D02*
X13168510Y-5963200D01*
X13168510Y-5937800D02*
X13143110Y-5963200D01*
X13143110Y-6098760D02*
X13168510Y-6124160D01*
X13168510Y-6098760D02*
X13143110Y-6124160D01*
X13143110Y-9317960D02*
X13168510Y-9343360D01*
X13168510Y-9317960D02*
X13143110Y-9343360D01*
X13143110Y-9478920D02*
X13168510Y-9504320D01*
X13168510Y-9478920D02*
X13143110Y-9504320D01*
X13143110Y-9639880D02*
X13168510Y-9665280D01*
X13168510Y-9639880D02*
X13143110Y-9665280D01*
X13159613Y-6413500D02*
X13185013Y-6438900D01*
X13185013Y-6413500D02*
X13159613Y-6438900D01*
X13159963Y-6558640D02*
X13185363Y-6584040D01*
X13185363Y-6558640D02*
X13159963Y-6584040D01*
X13159963Y-6758640D02*
X13185363Y-6784040D01*
X13185363Y-6758640D02*
X13159963Y-6784040D01*
X13183634Y-6908800D02*
X13209034Y-6934200D01*
X13209034Y-6908800D02*
X13183634Y-6934200D01*
X13197886Y-6489700D02*
X13223286Y-6515100D01*
X13223286Y-6489700D02*
X13197886Y-6515100D01*
X13209207Y-6832600D02*
X13234607Y-6858000D01*
X13234607Y-6832600D02*
X13209207Y-6858000D01*
X13220700Y-8128000D02*
X13246100Y-8153400D01*
X13246100Y-8128000D02*
X13220700Y-8153400D01*
X13220700Y-8445500D02*
X13246100Y-8470900D01*
X13246100Y-8445500D02*
X13220700Y-8470900D01*
X13235986Y-6413500D02*
X13261386Y-6438900D01*
X13261386Y-6413500D02*
X13235986Y-6438900D01*
X13236335Y-6558640D02*
X13261735Y-6584040D01*
X13261735Y-6558640D02*
X13236335Y-6584040D01*
X13236335Y-6758640D02*
X13261735Y-6784040D01*
X13261735Y-6758640D02*
X13236335Y-6784040D01*
X13260007Y-6908800D02*
X13285407Y-6934200D01*
X13285407Y-6908800D02*
X13260007Y-6934200D01*
X13274258Y-6489700D02*
X13299658Y-6515100D01*
X13299658Y-6489700D02*
X13274258Y-6515100D01*
X13285579Y-6832600D02*
X13310979Y-6858000D01*
X13310979Y-6832600D02*
X13285579Y-6858000D01*
X13304070Y-4650120D02*
X13329470Y-4675520D01*
X13329470Y-4650120D02*
X13304070Y-4675520D01*
X13304070Y-4811080D02*
X13329470Y-4836480D01*
X13329470Y-4811080D02*
X13304070Y-4836480D01*
X13304070Y-4972040D02*
X13329470Y-4997440D01*
X13329470Y-4972040D02*
X13304070Y-4997440D01*
X13304070Y-5133000D02*
X13329470Y-5158400D01*
X13329470Y-5133000D02*
X13304070Y-5158400D01*
X13304070Y-5293960D02*
X13329470Y-5319360D01*
X13329470Y-5293960D02*
X13304070Y-5319360D01*
X13304070Y-5454920D02*
X13329470Y-5480320D01*
X13329470Y-5454920D02*
X13304070Y-5480320D01*
X13304070Y-5615880D02*
X13329470Y-5641280D01*
X13329470Y-5615880D02*
X13304070Y-5641280D01*
X13304070Y-5776840D02*
X13329470Y-5802240D01*
X13329470Y-5776840D02*
X13304070Y-5802240D01*
X13304070Y-5937800D02*
X13329470Y-5963200D01*
X13329470Y-5937800D02*
X13304070Y-5963200D01*
X13304070Y-6098760D02*
X13329470Y-6124160D01*
X13329470Y-6098760D02*
X13304070Y-6124160D01*
X13304070Y-9478920D02*
X13329470Y-9504320D01*
X13329470Y-9478920D02*
X13304070Y-9504320D01*
X13304070Y-9639880D02*
X13329470Y-9665280D01*
X13329470Y-9639880D02*
X13304070Y-9665280D01*
X13309600Y-7416800D02*
X13335000Y-7442200D01*
X13335000Y-7416800D02*
X13309600Y-7442200D01*
X13309600Y-7577760D02*
X13335000Y-7603160D01*
X13335000Y-7577760D02*
X13309600Y-7603160D01*
X13309600Y-8255000D02*
X13335000Y-8280400D01*
X13335000Y-8255000D02*
X13309600Y-8280400D01*
X13309600Y-8356600D02*
X13335000Y-8382000D01*
X13335000Y-8356600D02*
X13309600Y-8382000D01*
X13312358Y-6413500D02*
X13337758Y-6438900D01*
X13337758Y-6413500D02*
X13312358Y-6438900D01*
X13312708Y-6558640D02*
X13338108Y-6584040D01*
X13338108Y-6558640D02*
X13312708Y-6584040D01*
X13312708Y-6758640D02*
X13338108Y-6784040D01*
X13338108Y-6758640D02*
X13312708Y-6784040D01*
X13313740Y-7747000D02*
X13339140Y-7772400D01*
X13339140Y-7747000D02*
X13313740Y-7772400D01*
X13336379Y-6908800D02*
X13361779Y-6934200D01*
X13361779Y-6908800D02*
X13336379Y-6934200D01*
X13350631Y-6489700D02*
X13376031Y-6515100D01*
X13376031Y-6489700D02*
X13350631Y-6515100D01*
X13361951Y-6832600D02*
X13387351Y-6858000D01*
X13387351Y-6832600D02*
X13361951Y-6858000D01*
X13388731Y-6413500D02*
X13414131Y-6438900D01*
X13414131Y-6413500D02*
X13388731Y-6438900D01*
X13389080Y-6558640D02*
X13414480Y-6584040D01*
X13414480Y-6558640D02*
X13389080Y-6584040D01*
X13389080Y-6758640D02*
X13414480Y-6784040D01*
X13414480Y-6758640D02*
X13389080Y-6784040D01*
X13412751Y-6908800D02*
X13438151Y-6934200D01*
X13438151Y-6908800D02*
X13412751Y-6934200D01*
X13427003Y-6489700D02*
X13452403Y-6515100D01*
X13452403Y-6489700D02*
X13427003Y-6515100D01*
X13438324Y-6832600D02*
X13463724Y-6858000D01*
X13463724Y-6832600D02*
X13438324Y-6858000D01*
X13465030Y-4650120D02*
X13490430Y-4675520D01*
X13490430Y-4650120D02*
X13465030Y-4675520D01*
X13465030Y-4811080D02*
X13490430Y-4836480D01*
X13490430Y-4811080D02*
X13465030Y-4836480D01*
X13465030Y-4972040D02*
X13490430Y-4997440D01*
X13490430Y-4972040D02*
X13465030Y-4997440D01*
X13465030Y-5133000D02*
X13490430Y-5158400D01*
X13490430Y-5133000D02*
X13465030Y-5158400D01*
X13465030Y-5293960D02*
X13490430Y-5319360D01*
X13490430Y-5293960D02*
X13465030Y-5319360D01*
X13465030Y-5454920D02*
X13490430Y-5480320D01*
X13490430Y-5454920D02*
X13465030Y-5480320D01*
X13465030Y-5615880D02*
X13490430Y-5641280D01*
X13490430Y-5615880D02*
X13465030Y-5641280D01*
X13465030Y-5776840D02*
X13490430Y-5802240D01*
X13490430Y-5776840D02*
X13465030Y-5802240D01*
X13465030Y-5937800D02*
X13490430Y-5963200D01*
X13490430Y-5937800D02*
X13465030Y-5963200D01*
X13465030Y-6098760D02*
X13490430Y-6124160D01*
X13490430Y-6098760D02*
X13465030Y-6124160D01*
X13465030Y-9478920D02*
X13490430Y-9504320D01*
X13490430Y-9478920D02*
X13465030Y-9504320D01*
X13465030Y-9639880D02*
X13490430Y-9665280D01*
X13490430Y-9639880D02*
X13465030Y-9665280D01*
X13465103Y-6413500D02*
X13490503Y-6438900D01*
X13490503Y-6413500D02*
X13465103Y-6438900D01*
X13465453Y-6558640D02*
X13490853Y-6584040D01*
X13490853Y-6558640D02*
X13465453Y-6584040D01*
X13465453Y-6758640D02*
X13490853Y-6784040D01*
X13490853Y-6758640D02*
X13465453Y-6784040D01*
X13470560Y-7416800D02*
X13495960Y-7442200D01*
X13495960Y-7416800D02*
X13470560Y-7442200D01*
X13470560Y-7577760D02*
X13495960Y-7603160D01*
X13495960Y-7577760D02*
X13470560Y-7603160D01*
X13474700Y-7747000D02*
X13500100Y-7772400D01*
X13500100Y-7747000D02*
X13474700Y-7772400D01*
X13489124Y-6908800D02*
X13514524Y-6934200D01*
X13514524Y-6908800D02*
X13489124Y-6934200D01*
X13503375Y-6489700D02*
X13528775Y-6515100D01*
X13528775Y-6489700D02*
X13503375Y-6515100D01*
X13514696Y-6832600D02*
X13540096Y-6858000D01*
X13540096Y-6832600D02*
X13514696Y-6858000D01*
X13541475Y-6413500D02*
X13566875Y-6438900D01*
X13566875Y-6413500D02*
X13541475Y-6438900D01*
X13541825Y-6558640D02*
X13567225Y-6584040D01*
X13567225Y-6558640D02*
X13541825Y-6584040D01*
X13541825Y-6758640D02*
X13567225Y-6784040D01*
X13567225Y-6758640D02*
X13541825Y-6784040D01*
X13565496Y-6908800D02*
X13590896Y-6934200D01*
X13590896Y-6908800D02*
X13565496Y-6934200D01*
X13579748Y-6489700D02*
X13605148Y-6515100D01*
X13605148Y-6489700D02*
X13579748Y-6515100D01*
X13589000Y-7734300D02*
X13614400Y-7759700D01*
X13614400Y-7734300D02*
X13589000Y-7759700D01*
X13591069Y-6832600D02*
X13616469Y-6858000D01*
X13616469Y-6832600D02*
X13591069Y-6858000D01*
X13617848Y-6413500D02*
X13643248Y-6438900D01*
X13643248Y-6413500D02*
X13617848Y-6438900D01*
X13618197Y-6558640D02*
X13643597Y-6584040D01*
X13643597Y-6558640D02*
X13618197Y-6584040D01*
X13618197Y-6758640D02*
X13643597Y-6784040D01*
X13643597Y-6758640D02*
X13618197Y-6784040D01*
X13625990Y-4650120D02*
X13651390Y-4675520D01*
X13651390Y-4650120D02*
X13625990Y-4675520D01*
X13625990Y-4811080D02*
X13651390Y-4836480D01*
X13651390Y-4811080D02*
X13625990Y-4836480D01*
X13625990Y-4972040D02*
X13651390Y-4997440D01*
X13651390Y-4972040D02*
X13625990Y-4997440D01*
X13625990Y-5133000D02*
X13651390Y-5158400D01*
X13651390Y-5133000D02*
X13625990Y-5158400D01*
X13625990Y-5293960D02*
X13651390Y-5319360D01*
X13651390Y-5293960D02*
X13625990Y-5319360D01*
X13625990Y-5454920D02*
X13651390Y-5480320D01*
X13651390Y-5454920D02*
X13625990Y-5480320D01*
X13625990Y-5615880D02*
X13651390Y-5641280D01*
X13651390Y-5615880D02*
X13625990Y-5641280D01*
X13625990Y-5776840D02*
X13651390Y-5802240D01*
X13651390Y-5776840D02*
X13625990Y-5802240D01*
X13625990Y-5937800D02*
X13651390Y-5963200D01*
X13651390Y-5937800D02*
X13625990Y-5963200D01*
X13625990Y-6098760D02*
X13651390Y-6124160D01*
X13651390Y-6098760D02*
X13625990Y-6124160D01*
X13625990Y-9478920D02*
X13651390Y-9504320D01*
X13651390Y-9478920D02*
X13625990Y-9504320D01*
X13625990Y-9639880D02*
X13651390Y-9665280D01*
X13651390Y-9639880D02*
X13625990Y-9665280D01*
X13632350Y-8064480D02*
X13657750Y-8089880D01*
X13657750Y-8064480D02*
X13632350Y-8089880D01*
X13641869Y-6908800D02*
X13667269Y-6934200D01*
X13667269Y-6908800D02*
X13641869Y-6934200D01*
X13656120Y-6489700D02*
X13681520Y-6515100D01*
X13681520Y-6489700D02*
X13656120Y-6515100D01*
X13667441Y-6832600D02*
X13692841Y-6858000D01*
X13692841Y-6832600D02*
X13667441Y-6858000D01*
X13677900Y-8191220D02*
X13703300Y-8216620D01*
X13703300Y-8191220D02*
X13677900Y-8216620D01*
X13677900Y-8352180D02*
X13703300Y-8377580D01*
X13703300Y-8352180D02*
X13677900Y-8377580D01*
X13677900Y-8513140D02*
X13703300Y-8538540D01*
X13703300Y-8513140D02*
X13677900Y-8538540D01*
X13677900Y-8674100D02*
X13703300Y-8699500D01*
X13703300Y-8674100D02*
X13677900Y-8699500D01*
X13677900Y-8835060D02*
X13703300Y-8860460D01*
X13703300Y-8835060D02*
X13677900Y-8860460D01*
X13694220Y-6413500D02*
X13719620Y-6438900D01*
X13719620Y-6413500D02*
X13694220Y-6438900D01*
X13694570Y-6558640D02*
X13719970Y-6584040D01*
X13719970Y-6558640D02*
X13694570Y-6584040D01*
X13694570Y-6758640D02*
X13719970Y-6784040D01*
X13719970Y-6758640D02*
X13694570Y-6784040D01*
X13718241Y-6908800D02*
X13743641Y-6934200D01*
X13743641Y-6908800D02*
X13718241Y-6934200D01*
X13732493Y-6489700D02*
X13757893Y-6515100D01*
X13757893Y-6489700D02*
X13732493Y-6515100D01*
X13741400Y-8064500D02*
X13766800Y-8089900D01*
X13766800Y-8064500D02*
X13741400Y-8089900D01*
X13743813Y-6832600D02*
X13769213Y-6858000D01*
X13769213Y-6832600D02*
X13743813Y-6858000D01*
X13770593Y-6413500D02*
X13795993Y-6438900D01*
X13795993Y-6413500D02*
X13770593Y-6438900D01*
X13770942Y-6558640D02*
X13796342Y-6584040D01*
X13796342Y-6558640D02*
X13770942Y-6584040D01*
X13770942Y-6758640D02*
X13796342Y-6784040D01*
X13796342Y-6758640D02*
X13770942Y-6784040D01*
X13786950Y-4650120D02*
X13812350Y-4675520D01*
X13812350Y-4650120D02*
X13786950Y-4675520D01*
X13786950Y-4811080D02*
X13812350Y-4836480D01*
X13812350Y-4811080D02*
X13786950Y-4836480D01*
X13786950Y-4972040D02*
X13812350Y-4997440D01*
X13812350Y-4972040D02*
X13786950Y-4997440D01*
X13786950Y-5133000D02*
X13812350Y-5158400D01*
X13812350Y-5133000D02*
X13786950Y-5158400D01*
X13786950Y-5293960D02*
X13812350Y-5319360D01*
X13812350Y-5293960D02*
X13786950Y-5319360D01*
X13786950Y-5454920D02*
X13812350Y-5480320D01*
X13812350Y-5454920D02*
X13786950Y-5480320D01*
X13786950Y-5615880D02*
X13812350Y-5641280D01*
X13812350Y-5615880D02*
X13786950Y-5641280D01*
X13786950Y-5776840D02*
X13812350Y-5802240D01*
X13812350Y-5776840D02*
X13786950Y-5802240D01*
X13786950Y-5937800D02*
X13812350Y-5963200D01*
X13812350Y-5937800D02*
X13786950Y-5963200D01*
X13786950Y-6098760D02*
X13812350Y-6124160D01*
X13812350Y-6098760D02*
X13786950Y-6124160D01*
X13786950Y-8191240D02*
X13812350Y-8216640D01*
X13812350Y-8191240D02*
X13786950Y-8216640D01*
X13786950Y-8352200D02*
X13812350Y-8377600D01*
X13812350Y-8352200D02*
X13786950Y-8377600D01*
X13786950Y-8513160D02*
X13812350Y-8538560D01*
X13812350Y-8513160D02*
X13786950Y-8538560D01*
X13786950Y-8674120D02*
X13812350Y-8699520D01*
X13812350Y-8674120D02*
X13786950Y-8699520D01*
X13786950Y-8835080D02*
X13812350Y-8860480D01*
X13812350Y-8835080D02*
X13786950Y-8860480D01*
X13786950Y-9478920D02*
X13812350Y-9504320D01*
X13812350Y-9478920D02*
X13786950Y-9504320D01*
X13786950Y-9639880D02*
X13812350Y-9665280D01*
X13812350Y-9639880D02*
X13786950Y-9665280D01*
X13794613Y-6908800D02*
X13820013Y-6934200D01*
X13820013Y-6908800D02*
X13794613Y-6934200D01*
X13808865Y-6489700D02*
X13834265Y-6515100D01*
X13834265Y-6489700D02*
X13808865Y-6515100D01*
X13820186Y-6832600D02*
X13845586Y-6858000D01*
X13845586Y-6832600D02*
X13820186Y-6858000D01*
X13846965Y-6413500D02*
X13872365Y-6438900D01*
X13872365Y-6413500D02*
X13846965Y-6438900D01*
X13847314Y-6558640D02*
X13872714Y-6584040D01*
X13872714Y-6558640D02*
X13847314Y-6584040D01*
X13847314Y-6758640D02*
X13872714Y-6784040D01*
X13872714Y-6758640D02*
X13847314Y-6784040D01*
X13870986Y-6908800D02*
X13896386Y-6934200D01*
X13896386Y-6908800D02*
X13870986Y-6934200D01*
X13885237Y-6489700D02*
X13910637Y-6515100D01*
X13910637Y-6489700D02*
X13885237Y-6515100D01*
X13896558Y-6832600D02*
X13921958Y-6858000D01*
X13921958Y-6832600D02*
X13896558Y-6858000D01*
X13923337Y-6413500D02*
X13948737Y-6438900D01*
X13948737Y-6413500D02*
X13923337Y-6438900D01*
X13923687Y-6558640D02*
X13949087Y-6584040D01*
X13949087Y-6558640D02*
X13923687Y-6584040D01*
X13923687Y-6758640D02*
X13949087Y-6784040D01*
X13949087Y-6758640D02*
X13923687Y-6784040D01*
X13947358Y-6908800D02*
X13972758Y-6934200D01*
X13972758Y-6908800D02*
X13947358Y-6934200D01*
X13947910Y-4650120D02*
X13973310Y-4675520D01*
X13973310Y-4650120D02*
X13947910Y-4675520D01*
X13947910Y-4811080D02*
X13973310Y-4836480D01*
X13973310Y-4811080D02*
X13947910Y-4836480D01*
X13947910Y-4972040D02*
X13973310Y-4997440D01*
X13973310Y-4972040D02*
X13947910Y-4997440D01*
X13947910Y-5133000D02*
X13973310Y-5158400D01*
X13973310Y-5133000D02*
X13947910Y-5158400D01*
X13947910Y-5293960D02*
X13973310Y-5319360D01*
X13973310Y-5293960D02*
X13947910Y-5319360D01*
X13947910Y-5454920D02*
X13973310Y-5480320D01*
X13973310Y-5454920D02*
X13947910Y-5480320D01*
X13947910Y-5615880D02*
X13973310Y-5641280D01*
X13973310Y-5615880D02*
X13947910Y-5641280D01*
X13947910Y-5776840D02*
X13973310Y-5802240D01*
X13973310Y-5776840D02*
X13947910Y-5802240D01*
X13947910Y-5937800D02*
X13973310Y-5963200D01*
X13973310Y-5937800D02*
X13947910Y-5963200D01*
X13947910Y-6098760D02*
X13973310Y-6124160D01*
X13973310Y-6098760D02*
X13947910Y-6124160D01*
X13947910Y-7225480D02*
X13973310Y-7250880D01*
X13973310Y-7225480D02*
X13947910Y-7250880D01*
X13947910Y-7386440D02*
X13973310Y-7411840D01*
X13973310Y-7386440D02*
X13947910Y-7411840D01*
X13947910Y-7547400D02*
X13973310Y-7572800D01*
X13973310Y-7547400D02*
X13947910Y-7572800D01*
X13947910Y-8674120D02*
X13973310Y-8699520D01*
X13973310Y-8674120D02*
X13947910Y-8699520D01*
X13947910Y-8835080D02*
X13973310Y-8860480D01*
X13973310Y-8835080D02*
X13947910Y-8860480D01*
X13947910Y-9478920D02*
X13973310Y-9504320D01*
X13973310Y-9478920D02*
X13947910Y-9504320D01*
X13947910Y-9639880D02*
X13973310Y-9665280D01*
X13973310Y-9639880D02*
X13947910Y-9665280D01*
X13961610Y-6489700D02*
X13987010Y-6515100D01*
X13987010Y-6489700D02*
X13961610Y-6515100D01*
X13972931Y-6832600D02*
X13998331Y-6858000D01*
X13998331Y-6832600D02*
X13972931Y-6858000D01*
X13999710Y-6413500D02*
X14025110Y-6438900D01*
X14025110Y-6413500D02*
X13999710Y-6438900D01*
X14000059Y-6558640D02*
X14025459Y-6584040D01*
X14025459Y-6558640D02*
X14000059Y-6584040D01*
X14000059Y-6758640D02*
X14025459Y-6784040D01*
X14025459Y-6758640D02*
X14000059Y-6784040D01*
X14023731Y-6908800D02*
X14049131Y-6934200D01*
X14049131Y-6908800D02*
X14023731Y-6934200D01*
X14037982Y-6489700D02*
X14063382Y-6515100D01*
X14063382Y-6489700D02*
X14037982Y-6515100D01*
X14049303Y-6832600D02*
X14074703Y-6858000D01*
X14074703Y-6832600D02*
X14049303Y-6858000D01*
X14076082Y-6413500D02*
X14101482Y-6438900D01*
X14101482Y-6413500D02*
X14076082Y-6438900D01*
X14076432Y-6558640D02*
X14101832Y-6584040D01*
X14101832Y-6558640D02*
X14076432Y-6584040D01*
X14076432Y-6758640D02*
X14101832Y-6784040D01*
X14101832Y-6758640D02*
X14076432Y-6784040D01*
X14100103Y-6908800D02*
X14125503Y-6934200D01*
X14125503Y-6908800D02*
X14100103Y-6934200D01*
X14108870Y-4650120D02*
X14134270Y-4675520D01*
X14134270Y-4650120D02*
X14108870Y-4675520D01*
X14108870Y-4811080D02*
X14134270Y-4836480D01*
X14134270Y-4811080D02*
X14108870Y-4836480D01*
X14108870Y-4972040D02*
X14134270Y-4997440D01*
X14134270Y-4972040D02*
X14108870Y-4997440D01*
X14108870Y-5133000D02*
X14134270Y-5158400D01*
X14134270Y-5133000D02*
X14108870Y-5158400D01*
X14108870Y-5293960D02*
X14134270Y-5319360D01*
X14134270Y-5293960D02*
X14108870Y-5319360D01*
X14108870Y-5454920D02*
X14134270Y-5480320D01*
X14134270Y-5454920D02*
X14108870Y-5480320D01*
X14108870Y-5615880D02*
X14134270Y-5641280D01*
X14134270Y-5615880D02*
X14108870Y-5641280D01*
X14108870Y-5776840D02*
X14134270Y-5802240D01*
X14134270Y-5776840D02*
X14108870Y-5802240D01*
X14108870Y-5937800D02*
X14134270Y-5963200D01*
X14134270Y-5937800D02*
X14108870Y-5963200D01*
X14108870Y-6098760D02*
X14134270Y-6124160D01*
X14134270Y-6098760D02*
X14108870Y-6124160D01*
X14108870Y-7225480D02*
X14134270Y-7250880D01*
X14134270Y-7225480D02*
X14108870Y-7250880D01*
X14108870Y-7386440D02*
X14134270Y-7411840D01*
X14134270Y-7386440D02*
X14108870Y-7411840D01*
X14108870Y-7547400D02*
X14134270Y-7572800D01*
X14134270Y-7547400D02*
X14108870Y-7572800D01*
X14108870Y-7708360D02*
X14134270Y-7733760D01*
X14134270Y-7708360D02*
X14108870Y-7733760D01*
X14108870Y-8674120D02*
X14134270Y-8699520D01*
X14134270Y-8674120D02*
X14108870Y-8699520D01*
X14108870Y-8835080D02*
X14134270Y-8860480D01*
X14134270Y-8835080D02*
X14108870Y-8860480D01*
X14108870Y-8996040D02*
X14134270Y-9021440D01*
X14134270Y-8996040D02*
X14108870Y-9021440D01*
X14108870Y-9157000D02*
X14134270Y-9182400D01*
X14134270Y-9157000D02*
X14108870Y-9182400D01*
X14108870Y-9317960D02*
X14134270Y-9343360D01*
X14134270Y-9317960D02*
X14108870Y-9343360D01*
X14108870Y-9478920D02*
X14134270Y-9504320D01*
X14134270Y-9478920D02*
X14108870Y-9504320D01*
X14108870Y-9639880D02*
X14134270Y-9665280D01*
X14134270Y-9639880D02*
X14108870Y-9665280D01*
X14114355Y-6489700D02*
X14139755Y-6515100D01*
X14139755Y-6489700D02*
X14114355Y-6515100D01*
X14125675Y-6832600D02*
X14151075Y-6858000D01*
X14151075Y-6832600D02*
X14125675Y-6858000D01*
X14152455Y-6413500D02*
X14177855Y-6438900D01*
X14177855Y-6413500D02*
X14152455Y-6438900D01*
X14152804Y-6558640D02*
X14178204Y-6584040D01*
X14178204Y-6558640D02*
X14152804Y-6584040D01*
X14152804Y-6758640D02*
X14178204Y-6784040D01*
X14178204Y-6758640D02*
X14152804Y-6784040D01*
X14176475Y-6908800D02*
X14201875Y-6934200D01*
X14201875Y-6908800D02*
X14176475Y-6934200D01*
X14190727Y-6489700D02*
X14216127Y-6515100D01*
X14216127Y-6489700D02*
X14190727Y-6515100D01*
X14202048Y-6832600D02*
X14227448Y-6858000D01*
X14227448Y-6832600D02*
X14202048Y-6858000D01*
X14228827Y-6413500D02*
X14254227Y-6438900D01*
X14254227Y-6413500D02*
X14228827Y-6438900D01*
X14229176Y-6558640D02*
X14254576Y-6584040D01*
X14254576Y-6558640D02*
X14229176Y-6584040D01*
X14229176Y-6758640D02*
X14254576Y-6784040D01*
X14254576Y-6758640D02*
X14229176Y-6784040D01*
X14252848Y-6908800D02*
X14278248Y-6934200D01*
X14278248Y-6908800D02*
X14252848Y-6934200D01*
X14267099Y-6489700D02*
X14292499Y-6515100D01*
X14292499Y-6489700D02*
X14267099Y-6515100D01*
X14269830Y-4650120D02*
X14295230Y-4675520D01*
X14295230Y-4650120D02*
X14269830Y-4675520D01*
X14269830Y-4811080D02*
X14295230Y-4836480D01*
X14295230Y-4811080D02*
X14269830Y-4836480D01*
X14269830Y-4972040D02*
X14295230Y-4997440D01*
X14295230Y-4972040D02*
X14269830Y-4997440D01*
X14269830Y-5133000D02*
X14295230Y-5158400D01*
X14295230Y-5133000D02*
X14269830Y-5158400D01*
X14269830Y-5293960D02*
X14295230Y-5319360D01*
X14295230Y-5293960D02*
X14269830Y-5319360D01*
X14269830Y-5454920D02*
X14295230Y-5480320D01*
X14295230Y-5454920D02*
X14269830Y-5480320D01*
X14269830Y-5615880D02*
X14295230Y-5641280D01*
X14295230Y-5615880D02*
X14269830Y-5641280D01*
X14269830Y-5776840D02*
X14295230Y-5802240D01*
X14295230Y-5776840D02*
X14269830Y-5802240D01*
X14269830Y-5937800D02*
X14295230Y-5963200D01*
X14295230Y-5937800D02*
X14269830Y-5963200D01*
X14269830Y-6098760D02*
X14295230Y-6124160D01*
X14295230Y-6098760D02*
X14269830Y-6124160D01*
X14269830Y-7225480D02*
X14295230Y-7250880D01*
X14295230Y-7225480D02*
X14269830Y-7250880D01*
X14269830Y-7386440D02*
X14295230Y-7411840D01*
X14295230Y-7386440D02*
X14269830Y-7411840D01*
X14269830Y-7547400D02*
X14295230Y-7572800D01*
X14295230Y-7547400D02*
X14269830Y-7572800D01*
X14269830Y-7708360D02*
X14295230Y-7733760D01*
X14295230Y-7708360D02*
X14269830Y-7733760D01*
X14269830Y-7869320D02*
X14295230Y-7894720D01*
X14295230Y-7869320D02*
X14269830Y-7894720D01*
X14269830Y-8674120D02*
X14295230Y-8699520D01*
X14295230Y-8674120D02*
X14269830Y-8699520D01*
X14269830Y-8835080D02*
X14295230Y-8860480D01*
X14295230Y-8835080D02*
X14269830Y-8860480D01*
X14269830Y-8996040D02*
X14295230Y-9021440D01*
X14295230Y-8996040D02*
X14269830Y-9021440D01*
X14269830Y-9157000D02*
X14295230Y-9182400D01*
X14295230Y-9157000D02*
X14269830Y-9182400D01*
X14269830Y-9317960D02*
X14295230Y-9343360D01*
X14295230Y-9317960D02*
X14269830Y-9343360D01*
X14269830Y-9478920D02*
X14295230Y-9504320D01*
X14295230Y-9478920D02*
X14269830Y-9504320D01*
X14269830Y-9639880D02*
X14295230Y-9665280D01*
X14295230Y-9639880D02*
X14269830Y-9665280D01*
X14278420Y-6832600D02*
X14303820Y-6858000D01*
X14303820Y-6832600D02*
X14278420Y-6858000D01*
X14305199Y-6413500D02*
X14330599Y-6438900D01*
X14330599Y-6413500D02*
X14305199Y-6438900D01*
X14305549Y-6558640D02*
X14330949Y-6584040D01*
X14330949Y-6558640D02*
X14305549Y-6584040D01*
X14305549Y-6758640D02*
X14330949Y-6784040D01*
X14330949Y-6758640D02*
X14305549Y-6784040D01*
X14329220Y-6908800D02*
X14354620Y-6934200D01*
X14354620Y-6908800D02*
X14329220Y-6934200D01*
X14343472Y-6489700D02*
X14368872Y-6515100D01*
X14368872Y-6489700D02*
X14343472Y-6515100D01*
X14354793Y-6832600D02*
X14380193Y-6858000D01*
X14380193Y-6832600D02*
X14354793Y-6858000D01*
X14381572Y-6413500D02*
X14406972Y-6438900D01*
X14406972Y-6413500D02*
X14381572Y-6438900D01*
X14381921Y-6558640D02*
X14407321Y-6584040D01*
X14407321Y-6558640D02*
X14381921Y-6584040D01*
X14381921Y-6758640D02*
X14407321Y-6784040D01*
X14407321Y-6758640D02*
X14381921Y-6784040D01*
X14405593Y-6908800D02*
X14430993Y-6934200D01*
X14430993Y-6908800D02*
X14405593Y-6934200D01*
X14419844Y-6489700D02*
X14445244Y-6515100D01*
X14445244Y-6489700D02*
X14419844Y-6515100D01*
X14430790Y-4650120D02*
X14456190Y-4675520D01*
X14456190Y-4650120D02*
X14430790Y-4675520D01*
X14430790Y-4811080D02*
X14456190Y-4836480D01*
X14456190Y-4811080D02*
X14430790Y-4836480D01*
X14430790Y-4972040D02*
X14456190Y-4997440D01*
X14456190Y-4972040D02*
X14430790Y-4997440D01*
X14430790Y-5133000D02*
X14456190Y-5158400D01*
X14456190Y-5133000D02*
X14430790Y-5158400D01*
X14430790Y-5293960D02*
X14456190Y-5319360D01*
X14456190Y-5293960D02*
X14430790Y-5319360D01*
X14430790Y-5454920D02*
X14456190Y-5480320D01*
X14456190Y-5454920D02*
X14430790Y-5480320D01*
X14430790Y-5615880D02*
X14456190Y-5641280D01*
X14456190Y-5615880D02*
X14430790Y-5641280D01*
X14430790Y-5776840D02*
X14456190Y-5802240D01*
X14456190Y-5776840D02*
X14430790Y-5802240D01*
X14430790Y-5937800D02*
X14456190Y-5963200D01*
X14456190Y-5937800D02*
X14430790Y-5963200D01*
X14430790Y-6098760D02*
X14456190Y-6124160D01*
X14456190Y-6098760D02*
X14430790Y-6124160D01*
X14430790Y-7225480D02*
X14456190Y-7250880D01*
X14456190Y-7225480D02*
X14430790Y-7250880D01*
X14430790Y-7386440D02*
X14456190Y-7411840D01*
X14456190Y-7386440D02*
X14430790Y-7411840D01*
X14430790Y-7547400D02*
X14456190Y-7572800D01*
X14456190Y-7547400D02*
X14430790Y-7572800D01*
X14430790Y-7708360D02*
X14456190Y-7733760D01*
X14456190Y-7708360D02*
X14430790Y-7733760D01*
X14430790Y-7869320D02*
X14456190Y-7894720D01*
X14456190Y-7869320D02*
X14430790Y-7894720D01*
X14430790Y-8030280D02*
X14456190Y-8055680D01*
X14456190Y-8030280D02*
X14430790Y-8055680D01*
X14430790Y-8191240D02*
X14456190Y-8216640D01*
X14456190Y-8191240D02*
X14430790Y-8216640D01*
X14430790Y-8352200D02*
X14456190Y-8377600D01*
X14456190Y-8352200D02*
X14430790Y-8377600D01*
X14430790Y-8513160D02*
X14456190Y-8538560D01*
X14456190Y-8513160D02*
X14430790Y-8538560D01*
X14430790Y-8674120D02*
X14456190Y-8699520D01*
X14456190Y-8674120D02*
X14430790Y-8699520D01*
X14430790Y-8835080D02*
X14456190Y-8860480D01*
X14456190Y-8835080D02*
X14430790Y-8860480D01*
X14430790Y-8996040D02*
X14456190Y-9021440D01*
X14456190Y-8996040D02*
X14430790Y-9021440D01*
X14430790Y-9157000D02*
X14456190Y-9182400D01*
X14456190Y-9157000D02*
X14430790Y-9182400D01*
X14430790Y-9317960D02*
X14456190Y-9343360D01*
X14456190Y-9317960D02*
X14430790Y-9343360D01*
X14430790Y-9478920D02*
X14456190Y-9504320D01*
X14456190Y-9478920D02*
X14430790Y-9504320D01*
X14430790Y-9639880D02*
X14456190Y-9665280D01*
X14456190Y-9639880D02*
X14430790Y-9665280D01*
X14431165Y-6832600D02*
X14456565Y-6858000D01*
X14456565Y-6832600D02*
X14431165Y-6858000D01*
X14457944Y-6413500D02*
X14483344Y-6438900D01*
X14483344Y-6413500D02*
X14457944Y-6438900D01*
X14458294Y-6558640D02*
X14483694Y-6584040D01*
X14483694Y-6558640D02*
X14458294Y-6584040D01*
X14458294Y-6758640D02*
X14483694Y-6784040D01*
X14483694Y-6758640D02*
X14458294Y-6784040D01*
X14481965Y-6908800D02*
X14507365Y-6934200D01*
X14507365Y-6908800D02*
X14481965Y-6934200D01*
X14496216Y-6489700D02*
X14521616Y-6515100D01*
X14521616Y-6489700D02*
X14496216Y-6515100D01*
X14507537Y-6832600D02*
X14532937Y-6858000D01*
X14532937Y-6832600D02*
X14507537Y-6858000D01*
X14534316Y-6413500D02*
X14559716Y-6438900D01*
X14559716Y-6413500D02*
X14534316Y-6438900D01*
X14534666Y-6558640D02*
X14560066Y-6584040D01*
X14560066Y-6558640D02*
X14534666Y-6584040D01*
X14534666Y-6758640D02*
X14560066Y-6784040D01*
X14560066Y-6758640D02*
X14534666Y-6784040D01*
X14558337Y-6908800D02*
X14583737Y-6934200D01*
X14583737Y-6908800D02*
X14558337Y-6934200D01*
X14572589Y-6489700D02*
X14597989Y-6515100D01*
X14597989Y-6489700D02*
X14572589Y-6515100D01*
X14583910Y-6832600D02*
X14609310Y-6858000D01*
X14609310Y-6832600D02*
X14583910Y-6858000D01*
X14591750Y-4650120D02*
X14617150Y-4675520D01*
X14617150Y-4650120D02*
X14591750Y-4675520D01*
X14591750Y-4811080D02*
X14617150Y-4836480D01*
X14617150Y-4811080D02*
X14591750Y-4836480D01*
X14591750Y-4972040D02*
X14617150Y-4997440D01*
X14617150Y-4972040D02*
X14591750Y-4997440D01*
X14591750Y-5133000D02*
X14617150Y-5158400D01*
X14617150Y-5133000D02*
X14591750Y-5158400D01*
X14591750Y-5293960D02*
X14617150Y-5319360D01*
X14617150Y-5293960D02*
X14591750Y-5319360D01*
X14591750Y-5454920D02*
X14617150Y-5480320D01*
X14617150Y-5454920D02*
X14591750Y-5480320D01*
X14591750Y-5615880D02*
X14617150Y-5641280D01*
X14617150Y-5615880D02*
X14591750Y-5641280D01*
X14591750Y-5776840D02*
X14617150Y-5802240D01*
X14617150Y-5776840D02*
X14591750Y-5802240D01*
X14591750Y-5937800D02*
X14617150Y-5963200D01*
X14617150Y-5937800D02*
X14591750Y-5963200D01*
X14591750Y-6098760D02*
X14617150Y-6124160D01*
X14617150Y-6098760D02*
X14591750Y-6124160D01*
X14591750Y-7225480D02*
X14617150Y-7250880D01*
X14617150Y-7225480D02*
X14591750Y-7250880D01*
X14591750Y-7386440D02*
X14617150Y-7411840D01*
X14617150Y-7386440D02*
X14591750Y-7411840D01*
X14591750Y-7547400D02*
X14617150Y-7572800D01*
X14617150Y-7547400D02*
X14591750Y-7572800D01*
X14591750Y-7708360D02*
X14617150Y-7733760D01*
X14617150Y-7708360D02*
X14591750Y-7733760D01*
X14591750Y-7869320D02*
X14617150Y-7894720D01*
X14617150Y-7869320D02*
X14591750Y-7894720D01*
X14591750Y-8030280D02*
X14617150Y-8055680D01*
X14617150Y-8030280D02*
X14591750Y-8055680D01*
X14591750Y-8191240D02*
X14617150Y-8216640D01*
X14617150Y-8191240D02*
X14591750Y-8216640D01*
X14591750Y-8352200D02*
X14617150Y-8377600D01*
X14617150Y-8352200D02*
X14591750Y-8377600D01*
X14591750Y-8513160D02*
X14617150Y-8538560D01*
X14617150Y-8513160D02*
X14591750Y-8538560D01*
X14591750Y-8674120D02*
X14617150Y-8699520D01*
X14617150Y-8674120D02*
X14591750Y-8699520D01*
X14591750Y-8835080D02*
X14617150Y-8860480D01*
X14617150Y-8835080D02*
X14591750Y-8860480D01*
X14591750Y-8996040D02*
X14617150Y-9021440D01*
X14617150Y-8996040D02*
X14591750Y-9021440D01*
X14591750Y-9157000D02*
X14617150Y-9182400D01*
X14617150Y-9157000D02*
X14591750Y-9182400D01*
X14591750Y-9317960D02*
X14617150Y-9343360D01*
X14617150Y-9317960D02*
X14591750Y-9343360D01*
X14591750Y-9478920D02*
X14617150Y-9504320D01*
X14617150Y-9478920D02*
X14591750Y-9504320D01*
X14591750Y-9639880D02*
X14617150Y-9665280D01*
X14617150Y-9639880D02*
X14591750Y-9665280D01*
X14610689Y-6413500D02*
X14636089Y-6438900D01*
X14636089Y-6413500D02*
X14610689Y-6438900D01*
X14611038Y-6558640D02*
X14636438Y-6584040D01*
X14636438Y-6558640D02*
X14611038Y-6584040D01*
X14611038Y-6758640D02*
X14636438Y-6784040D01*
X14636438Y-6758640D02*
X14611038Y-6784040D01*
X14634710Y-6908800D02*
X14660110Y-6934200D01*
X14660110Y-6908800D02*
X14634710Y-6934200D01*
X14648961Y-6489700D02*
X14674361Y-6515100D01*
X14674361Y-6489700D02*
X14648961Y-6515100D01*
X14660282Y-6832600D02*
X14685682Y-6858000D01*
X14685682Y-6832600D02*
X14660282Y-6858000D01*
X14687061Y-6413500D02*
X14712461Y-6438900D01*
X14712461Y-6413500D02*
X14687061Y-6438900D01*
X14687411Y-6558640D02*
X14712811Y-6584040D01*
X14712811Y-6558640D02*
X14687411Y-6584040D01*
X14687411Y-6758640D02*
X14712811Y-6784040D01*
X14712811Y-6758640D02*
X14687411Y-6784040D01*
X14711082Y-6908800D02*
X14736482Y-6934200D01*
X14736482Y-6908800D02*
X14711082Y-6934200D01*
X14725334Y-6489700D02*
X14750734Y-6515100D01*
X14750734Y-6489700D02*
X14725334Y-6515100D01*
X14736654Y-6832600D02*
X14762054Y-6858000D01*
X14762054Y-6832600D02*
X14736654Y-6858000D01*
X14752710Y-4650120D02*
X14778110Y-4675520D01*
X14778110Y-4650120D02*
X14752710Y-4675520D01*
X14752710Y-4811080D02*
X14778110Y-4836480D01*
X14778110Y-4811080D02*
X14752710Y-4836480D01*
X14752710Y-4972040D02*
X14778110Y-4997440D01*
X14778110Y-4972040D02*
X14752710Y-4997440D01*
X14752710Y-5133000D02*
X14778110Y-5158400D01*
X14778110Y-5133000D02*
X14752710Y-5158400D01*
X14752710Y-5293960D02*
X14778110Y-5319360D01*
X14778110Y-5293960D02*
X14752710Y-5319360D01*
X14752710Y-5454920D02*
X14778110Y-5480320D01*
X14778110Y-5454920D02*
X14752710Y-5480320D01*
X14752710Y-5615880D02*
X14778110Y-5641280D01*
X14778110Y-5615880D02*
X14752710Y-5641280D01*
X14752710Y-5776840D02*
X14778110Y-5802240D01*
X14778110Y-5776840D02*
X14752710Y-5802240D01*
X14752710Y-5937800D02*
X14778110Y-5963200D01*
X14778110Y-5937800D02*
X14752710Y-5963200D01*
X14752710Y-6098760D02*
X14778110Y-6124160D01*
X14778110Y-6098760D02*
X14752710Y-6124160D01*
X14752710Y-7225480D02*
X14778110Y-7250880D01*
X14778110Y-7225480D02*
X14752710Y-7250880D01*
X14752710Y-7386440D02*
X14778110Y-7411840D01*
X14778110Y-7386440D02*
X14752710Y-7411840D01*
X14752710Y-7547400D02*
X14778110Y-7572800D01*
X14778110Y-7547400D02*
X14752710Y-7572800D01*
X14752710Y-7708360D02*
X14778110Y-7733760D01*
X14778110Y-7708360D02*
X14752710Y-7733760D01*
X14752710Y-7869320D02*
X14778110Y-7894720D01*
X14778110Y-7869320D02*
X14752710Y-7894720D01*
X14752710Y-8030280D02*
X14778110Y-8055680D01*
X14778110Y-8030280D02*
X14752710Y-8055680D01*
X14752710Y-8191240D02*
X14778110Y-8216640D01*
X14778110Y-8191240D02*
X14752710Y-8216640D01*
X14752710Y-8352200D02*
X14778110Y-8377600D01*
X14778110Y-8352200D02*
X14752710Y-8377600D01*
X14752710Y-8513160D02*
X14778110Y-8538560D01*
X14778110Y-8513160D02*
X14752710Y-8538560D01*
X14752710Y-8674120D02*
X14778110Y-8699520D01*
X14778110Y-8674120D02*
X14752710Y-8699520D01*
X14752710Y-8835080D02*
X14778110Y-8860480D01*
X14778110Y-8835080D02*
X14752710Y-8860480D01*
X14752710Y-8996040D02*
X14778110Y-9021440D01*
X14778110Y-8996040D02*
X14752710Y-9021440D01*
X14752710Y-9157000D02*
X14778110Y-9182400D01*
X14778110Y-9157000D02*
X14752710Y-9182400D01*
X14752710Y-9317960D02*
X14778110Y-9343360D01*
X14778110Y-9317960D02*
X14752710Y-9343360D01*
X14752710Y-9478920D02*
X14778110Y-9504320D01*
X14778110Y-9478920D02*
X14752710Y-9504320D01*
X14752710Y-9639880D02*
X14778110Y-9665280D01*
X14778110Y-9639880D02*
X14752710Y-9665280D01*
X14763434Y-6413500D02*
X14788834Y-6438900D01*
X14788834Y-6413500D02*
X14763434Y-6438900D01*
X14763783Y-6558640D02*
X14789183Y-6584040D01*
X14789183Y-6558640D02*
X14763783Y-6584040D01*
X14763783Y-6758640D02*
X14789183Y-6784040D01*
X14789183Y-6758640D02*
X14763783Y-6784040D01*
X14787454Y-6908800D02*
X14812854Y-6934200D01*
X14812854Y-6908800D02*
X14787454Y-6934200D01*
X14801706Y-6489700D02*
X14827106Y-6515100D01*
X14827106Y-6489700D02*
X14801706Y-6515100D01*
X14813027Y-6832600D02*
X14838427Y-6858000D01*
X14838427Y-6832600D02*
X14813027Y-6858000D01*
X14839806Y-6413500D02*
X14865206Y-6438900D01*
X14865206Y-6413500D02*
X14839806Y-6438900D01*
X14840156Y-6558640D02*
X14865556Y-6584040D01*
X14865556Y-6558640D02*
X14840156Y-6584040D01*
X14840156Y-6758640D02*
X14865556Y-6784040D01*
X14865556Y-6758640D02*
X14840156Y-6784040D01*
X14863827Y-6908800D02*
X14889227Y-6934200D01*
X14889227Y-6908800D02*
X14863827Y-6934200D01*
X14878078Y-6489700D02*
X14903478Y-6515100D01*
X14903478Y-6489700D02*
X14878078Y-6515100D01*
X14889399Y-6832600D02*
X14914799Y-6858000D01*
X14914799Y-6832600D02*
X14889399Y-6858000D01*
X14913670Y-4650120D02*
X14939070Y-4675520D01*
X14939070Y-4650120D02*
X14913670Y-4675520D01*
X14913670Y-4811080D02*
X14939070Y-4836480D01*
X14939070Y-4811080D02*
X14913670Y-4836480D01*
X14913670Y-4972040D02*
X14939070Y-4997440D01*
X14939070Y-4972040D02*
X14913670Y-4997440D01*
X14913670Y-5133000D02*
X14939070Y-5158400D01*
X14939070Y-5133000D02*
X14913670Y-5158400D01*
X14913670Y-5293960D02*
X14939070Y-5319360D01*
X14939070Y-5293960D02*
X14913670Y-5319360D01*
X14913670Y-5454920D02*
X14939070Y-5480320D01*
X14939070Y-5454920D02*
X14913670Y-5480320D01*
X14913670Y-5615880D02*
X14939070Y-5641280D01*
X14939070Y-5615880D02*
X14913670Y-5641280D01*
X14913670Y-5776840D02*
X14939070Y-5802240D01*
X14939070Y-5776840D02*
X14913670Y-5802240D01*
X14913670Y-5937800D02*
X14939070Y-5963200D01*
X14939070Y-5937800D02*
X14913670Y-5963200D01*
X14913670Y-6098760D02*
X14939070Y-6124160D01*
X14939070Y-6098760D02*
X14913670Y-6124160D01*
X14913670Y-7225480D02*
X14939070Y-7250880D01*
X14939070Y-7225480D02*
X14913670Y-7250880D01*
X14913670Y-7386440D02*
X14939070Y-7411840D01*
X14939070Y-7386440D02*
X14913670Y-7411840D01*
X14913670Y-7547400D02*
X14939070Y-7572800D01*
X14939070Y-7547400D02*
X14913670Y-7572800D01*
X14913670Y-7708360D02*
X14939070Y-7733760D01*
X14939070Y-7708360D02*
X14913670Y-7733760D01*
X14913670Y-7869320D02*
X14939070Y-7894720D01*
X14939070Y-7869320D02*
X14913670Y-7894720D01*
X14913670Y-8030280D02*
X14939070Y-8055680D01*
X14939070Y-8030280D02*
X14913670Y-8055680D01*
X14913670Y-8191240D02*
X14939070Y-8216640D01*
X14939070Y-8191240D02*
X14913670Y-8216640D01*
X14913670Y-8352200D02*
X14939070Y-8377600D01*
X14939070Y-8352200D02*
X14913670Y-8377600D01*
X14913670Y-8513160D02*
X14939070Y-8538560D01*
X14939070Y-8513160D02*
X14913670Y-8538560D01*
X14913670Y-8674120D02*
X14939070Y-8699520D01*
X14939070Y-8674120D02*
X14913670Y-8699520D01*
X14913670Y-8835080D02*
X14939070Y-8860480D01*
X14939070Y-8835080D02*
X14913670Y-8860480D01*
X14913670Y-8996040D02*
X14939070Y-9021440D01*
X14939070Y-8996040D02*
X14913670Y-9021440D01*
X14913670Y-9157000D02*
X14939070Y-9182400D01*
X14939070Y-9157000D02*
X14913670Y-9182400D01*
X14913670Y-9317960D02*
X14939070Y-9343360D01*
X14939070Y-9317960D02*
X14913670Y-9343360D01*
X14913670Y-9478920D02*
X14939070Y-9504320D01*
X14939070Y-9478920D02*
X14913670Y-9504320D01*
X14913670Y-9639880D02*
X14939070Y-9665280D01*
X14939070Y-9639880D02*
X14913670Y-9665280D01*
X14916178Y-6413500D02*
X14941578Y-6438900D01*
X14941578Y-6413500D02*
X14916178Y-6438900D01*
X14916528Y-6558640D02*
X14941928Y-6584040D01*
X14941928Y-6558640D02*
X14916528Y-6584040D01*
X14916528Y-6758640D02*
X14941928Y-6784040D01*
X14941928Y-6758640D02*
X14916528Y-6784040D01*
X14940199Y-6908800D02*
X14965599Y-6934200D01*
X14965599Y-6908800D02*
X14940199Y-6934200D01*
X14954451Y-6489700D02*
X14979851Y-6515100D01*
X14979851Y-6489700D02*
X14954451Y-6515100D01*
X14965772Y-6832600D02*
X14991172Y-6858000D01*
X14991172Y-6832600D02*
X14965772Y-6858000D01*
X14992551Y-6413500D02*
X15017951Y-6438900D01*
X15017951Y-6413500D02*
X14992551Y-6438900D01*
X14992900Y-6558640D02*
X15018300Y-6584040D01*
X15018300Y-6558640D02*
X14992900Y-6584040D01*
X14992900Y-6758640D02*
X15018300Y-6784040D01*
X15018300Y-6758640D02*
X14992900Y-6784040D01*
X15016572Y-6908800D02*
X15041972Y-6934200D01*
X15041972Y-6908800D02*
X15016572Y-6934200D01*
X15030823Y-6489700D02*
X15056223Y-6515100D01*
X15056223Y-6489700D02*
X15030823Y-6515100D01*
X15042144Y-6832600D02*
X15067544Y-6858000D01*
X15067544Y-6832600D02*
X15042144Y-6858000D01*
X15068923Y-6413500D02*
X15094323Y-6438900D01*
X15094323Y-6413500D02*
X15068923Y-6438900D01*
X15069273Y-6558640D02*
X15094673Y-6584040D01*
X15094673Y-6558640D02*
X15069273Y-6584040D01*
X15069273Y-6758640D02*
X15094673Y-6784040D01*
X15094673Y-6758640D02*
X15069273Y-6784040D01*
X15074630Y-4650120D02*
X15100030Y-4675520D01*
X15100030Y-4650120D02*
X15074630Y-4675520D01*
X15074630Y-4811080D02*
X15100030Y-4836480D01*
X15100030Y-4811080D02*
X15074630Y-4836480D01*
X15074630Y-4972040D02*
X15100030Y-4997440D01*
X15100030Y-4972040D02*
X15074630Y-4997440D01*
X15074630Y-5133000D02*
X15100030Y-5158400D01*
X15100030Y-5133000D02*
X15074630Y-5158400D01*
X15074630Y-5293960D02*
X15100030Y-5319360D01*
X15100030Y-5293960D02*
X15074630Y-5319360D01*
X15074630Y-5454920D02*
X15100030Y-5480320D01*
X15100030Y-5454920D02*
X15074630Y-5480320D01*
X15074630Y-5615880D02*
X15100030Y-5641280D01*
X15100030Y-5615880D02*
X15074630Y-5641280D01*
X15074630Y-5776840D02*
X15100030Y-5802240D01*
X15100030Y-5776840D02*
X15074630Y-5802240D01*
X15074630Y-7547400D02*
X15100030Y-7572800D01*
X15100030Y-7547400D02*
X15074630Y-7572800D01*
X15074630Y-7708360D02*
X15100030Y-7733760D01*
X15100030Y-7708360D02*
X15074630Y-7733760D01*
X15074630Y-7869320D02*
X15100030Y-7894720D01*
X15100030Y-7869320D02*
X15074630Y-7894720D01*
X15074630Y-8030280D02*
X15100030Y-8055680D01*
X15100030Y-8030280D02*
X15074630Y-8055680D01*
X15074630Y-8191240D02*
X15100030Y-8216640D01*
X15100030Y-8191240D02*
X15074630Y-8216640D01*
X15074630Y-8352200D02*
X15100030Y-8377600D01*
X15100030Y-8352200D02*
X15074630Y-8377600D01*
X15074630Y-8513160D02*
X15100030Y-8538560D01*
X15100030Y-8513160D02*
X15074630Y-8538560D01*
X15074630Y-8674120D02*
X15100030Y-8699520D01*
X15100030Y-8674120D02*
X15074630Y-8699520D01*
X15074630Y-8835080D02*
X15100030Y-8860480D01*
X15100030Y-8835080D02*
X15074630Y-8860480D01*
X15074630Y-8996040D02*
X15100030Y-9021440D01*
X15100030Y-8996040D02*
X15074630Y-9021440D01*
X15074630Y-9157000D02*
X15100030Y-9182400D01*
X15100030Y-9157000D02*
X15074630Y-9182400D01*
X15074630Y-9317960D02*
X15100030Y-9343360D01*
X15100030Y-9317960D02*
X15074630Y-9343360D01*
X15074630Y-9478920D02*
X15100030Y-9504320D01*
X15100030Y-9478920D02*
X15074630Y-9504320D01*
X15074630Y-9639880D02*
X15100030Y-9665280D01*
X15100030Y-9639880D02*
X15074630Y-9665280D01*
X15092944Y-6908800D02*
X15118344Y-6934200D01*
X15118344Y-6908800D02*
X15092944Y-6934200D01*
X15107196Y-6489700D02*
X15132596Y-6515100D01*
X15132596Y-6489700D02*
X15107196Y-6515100D01*
X15118516Y-6832600D02*
X15143916Y-6858000D01*
X15143916Y-6832600D02*
X15118516Y-6858000D01*
X15145296Y-6413500D02*
X15170696Y-6438900D01*
X15170696Y-6413500D02*
X15145296Y-6438900D01*
X15145645Y-6558640D02*
X15171045Y-6584040D01*
X15171045Y-6558640D02*
X15145645Y-6584040D01*
X15145645Y-6758640D02*
X15171045Y-6784040D01*
X15171045Y-6758640D02*
X15145645Y-6784040D01*
X15169316Y-6908800D02*
X15194716Y-6934200D01*
X15194716Y-6908800D02*
X15169316Y-6934200D01*
X15183568Y-6489700D02*
X15208968Y-6515100D01*
X15208968Y-6489700D02*
X15183568Y-6515100D01*
X15194889Y-6832600D02*
X15220289Y-6858000D01*
X15220289Y-6832600D02*
X15194889Y-6858000D01*
X15221668Y-6413500D02*
X15247068Y-6438900D01*
X15247068Y-6413500D02*
X15221668Y-6438900D01*
X15222018Y-6558640D02*
X15247418Y-6584040D01*
X15247418Y-6558640D02*
X15222018Y-6584040D01*
X15222018Y-6758640D02*
X15247418Y-6784040D01*
X15247418Y-6758640D02*
X15222018Y-6784040D01*
X15235590Y-4650120D02*
X15260990Y-4675520D01*
X15260990Y-4650120D02*
X15235590Y-4675520D01*
X15235590Y-4811080D02*
X15260990Y-4836480D01*
X15260990Y-4811080D02*
X15235590Y-4836480D01*
X15235590Y-4972040D02*
X15260990Y-4997440D01*
X15260990Y-4972040D02*
X15235590Y-4997440D01*
X15235590Y-5133000D02*
X15260990Y-5158400D01*
X15260990Y-5133000D02*
X15235590Y-5158400D01*
X15235590Y-5293960D02*
X15260990Y-5319360D01*
X15260990Y-5293960D02*
X15235590Y-5319360D01*
X15235590Y-5454920D02*
X15260990Y-5480320D01*
X15260990Y-5454920D02*
X15235590Y-5480320D01*
X15235590Y-5615880D02*
X15260990Y-5641280D01*
X15260990Y-5615880D02*
X15235590Y-5641280D01*
X15235590Y-5776840D02*
X15260990Y-5802240D01*
X15260990Y-5776840D02*
X15235590Y-5802240D01*
X15235590Y-7547400D02*
X15260990Y-7572800D01*
X15260990Y-7547400D02*
X15235590Y-7572800D01*
X15235590Y-7708360D02*
X15260990Y-7733760D01*
X15260990Y-7708360D02*
X15235590Y-7733760D01*
X15235590Y-7869320D02*
X15260990Y-7894720D01*
X15260990Y-7869320D02*
X15235590Y-7894720D01*
X15235590Y-8030280D02*
X15260990Y-8055680D01*
X15260990Y-8030280D02*
X15235590Y-8055680D01*
X15235590Y-8191240D02*
X15260990Y-8216640D01*
X15260990Y-8191240D02*
X15235590Y-8216640D01*
X15235590Y-8352200D02*
X15260990Y-8377600D01*
X15260990Y-8352200D02*
X15235590Y-8377600D01*
X15235590Y-8513160D02*
X15260990Y-8538560D01*
X15260990Y-8513160D02*
X15235590Y-8538560D01*
X15235590Y-8674120D02*
X15260990Y-8699520D01*
X15260990Y-8674120D02*
X15235590Y-8699520D01*
X15235590Y-8835080D02*
X15260990Y-8860480D01*
X15260990Y-8835080D02*
X15235590Y-8860480D01*
X15235590Y-8996040D02*
X15260990Y-9021440D01*
X15260990Y-8996040D02*
X15235590Y-9021440D01*
X15235590Y-9157000D02*
X15260990Y-9182400D01*
X15260990Y-9157000D02*
X15235590Y-9182400D01*
X15235590Y-9317960D02*
X15260990Y-9343360D01*
X15260990Y-9317960D02*
X15235590Y-9343360D01*
X15235590Y-9478920D02*
X15260990Y-9504320D01*
X15260990Y-9478920D02*
X15235590Y-9504320D01*
X15235590Y-9639880D02*
X15260990Y-9665280D01*
X15260990Y-9639880D02*
X15235590Y-9665280D01*
X15245689Y-6908800D02*
X15271089Y-6934200D01*
X15271089Y-6908800D02*
X15245689Y-6934200D01*
X15259940Y-6489700D02*
X15285340Y-6515100D01*
X15285340Y-6489700D02*
X15259940Y-6515100D01*
X15271261Y-6832600D02*
X15296661Y-6858000D01*
X15296661Y-6832600D02*
X15271261Y-6858000D01*
X15298040Y-6413500D02*
X15323440Y-6438900D01*
X15323440Y-6413500D02*
X15298040Y-6438900D01*
X15298390Y-6558640D02*
X15323790Y-6584040D01*
X15323790Y-6558640D02*
X15298390Y-6584040D01*
X15298390Y-6758640D02*
X15323790Y-6784040D01*
X15323790Y-6758640D02*
X15298390Y-6784040D01*
X15322061Y-6908800D02*
X15347461Y-6934200D01*
X15347461Y-6908800D02*
X15322061Y-6934200D01*
X15347634Y-6832600D02*
X15373034Y-6858000D01*
X15373034Y-6832600D02*
X15347634Y-6858000D01*
X15396550Y-4650120D02*
X15421950Y-4675520D01*
X15421950Y-4650120D02*
X15396550Y-4675520D01*
X15396550Y-4811080D02*
X15421950Y-4836480D01*
X15421950Y-4811080D02*
X15396550Y-4836480D01*
X15396550Y-4972040D02*
X15421950Y-4997440D01*
X15421950Y-4972040D02*
X15396550Y-4997440D01*
X15396550Y-5133000D02*
X15421950Y-5158400D01*
X15421950Y-5133000D02*
X15396550Y-5158400D01*
X15396550Y-5293960D02*
X15421950Y-5319360D01*
X15421950Y-5293960D02*
X15396550Y-5319360D01*
X15396550Y-5454920D02*
X15421950Y-5480320D01*
X15421950Y-5454920D02*
X15396550Y-5480320D01*
X15396550Y-5615880D02*
X15421950Y-5641280D01*
X15421950Y-5615880D02*
X15396550Y-5641280D01*
X15396550Y-5776840D02*
X15421950Y-5802240D01*
X15421950Y-5776840D02*
X15396550Y-5802240D01*
X15396550Y-7547400D02*
X15421950Y-7572800D01*
X15421950Y-7547400D02*
X15396550Y-7572800D01*
X15396550Y-7708360D02*
X15421950Y-7733760D01*
X15421950Y-7708360D02*
X15396550Y-7733760D01*
X15396550Y-7869320D02*
X15421950Y-7894720D01*
X15421950Y-7869320D02*
X15396550Y-7894720D01*
X15396550Y-8030280D02*
X15421950Y-8055680D01*
X15421950Y-8030280D02*
X15396550Y-8055680D01*
X15396550Y-8191240D02*
X15421950Y-8216640D01*
X15421950Y-8191240D02*
X15396550Y-8216640D01*
X15396550Y-8352200D02*
X15421950Y-8377600D01*
X15421950Y-8352200D02*
X15396550Y-8377600D01*
X15396550Y-8513160D02*
X15421950Y-8538560D01*
X15421950Y-8513160D02*
X15396550Y-8538560D01*
X15396550Y-8674120D02*
X15421950Y-8699520D01*
X15421950Y-8674120D02*
X15396550Y-8699520D01*
X15396550Y-8835080D02*
X15421950Y-8860480D01*
X15421950Y-8835080D02*
X15396550Y-8860480D01*
X15396550Y-8996040D02*
X15421950Y-9021440D01*
X15421950Y-8996040D02*
X15396550Y-9021440D01*
X15396550Y-9157000D02*
X15421950Y-9182400D01*
X15421950Y-9157000D02*
X15396550Y-9182400D01*
X15396550Y-9317960D02*
X15421950Y-9343360D01*
X15421950Y-9317960D02*
X15396550Y-9343360D01*
X15396550Y-9478920D02*
X15421950Y-9504320D01*
X15421950Y-9478920D02*
X15396550Y-9504320D01*
X15396550Y-9639880D02*
X15421950Y-9665280D01*
X15421950Y-9639880D02*
X15396550Y-9665280D01*
X15398434Y-6908800D02*
X15423834Y-6934200D01*
X15423834Y-6908800D02*
X15398434Y-6934200D01*
X11302200Y-8610600D02*
G75*
G02*
X11202200Y-8610600I-50000J0D01*
G01*
X11202200Y-8610600D02*
G75*
G02*
X11302200Y-8610600I50000J0D01*
G01*
X11556200Y-8610600D02*
G75*
G02*
X11456200Y-8610600I-50000J0D01*
G01*
X11456200Y-8610600D02*
G75*
G02*
X11556200Y-8610600I50000J0D01*
G01*
X11658300Y-4762500D02*
G75*
G02*
X11558300Y-4762500I-50000J0D01*
G01*
X11558300Y-4762500D02*
G75*
G02*
X11658300Y-4762500I50000J0D01*
G01*
X11912300Y-4762500D02*
G75*
G02*
X11812300Y-4762500I-50000J0D01*
G01*
X11812300Y-4762500D02*
G75*
G02*
X11912300Y-4762500I50000J0D01*
G01*
X12115500Y-8597900D02*
G75*
G02*
X12015500Y-8597900I-50000J0D01*
G01*
X12015500Y-8597900D02*
G75*
G02*
X12115500Y-8597900I50000J0D01*
G01*
X12369500Y-8597900D02*
G75*
G02*
X12269500Y-8597900I-50000J0D01*
G01*
X12269500Y-8597900D02*
G75*
G02*
X12369500Y-8597900I50000J0D01*
G01*
X12636200Y-9194800D02*
G75*
G02*
X12536200Y-9194800I-50000J0D01*
G01*
X12536200Y-9194800D02*
G75*
G02*
X12636200Y-9194800I50000J0D01*
G01*
X12890200Y-9194800D02*
G75*
G02*
X12790200Y-9194800I-50000J0D01*
G01*
X12790200Y-9194800D02*
G75*
G02*
X12890200Y-9194800I50000J0D01*
G01*
X13689300Y-9194800D02*
G75*
G02*
X13589300Y-9194800I-50000J0D01*
G01*
X13589300Y-9194800D02*
G75*
G02*
X13689300Y-9194800I50000J0D01*
G01*
X13943300Y-9194800D02*
G75*
G02*
X13843300Y-9194800I-50000J0D01*
G01*
X13843300Y-9194800D02*
G75*
G02*
X13943300Y-9194800I50000J0D01*
G01*
X14210500Y-8178300D02*
G75*
G02*
X14110500Y-8178300I-50000J0D01*
G01*
X14110500Y-8178300D02*
G75*
G02*
X14210500Y-8178300I50000J0D01*
G01*
X14210500Y-8432300D02*
G75*
G02*
X14110500Y-8432300I-50000J0D01*
G01*
X14110500Y-8432300D02*
G75*
G02*
X14210500Y-8432300I50000J0D01*
G01*
D11*
X8741877Y-10131084D02*
X8741877Y-9931084D01*
X8741877Y-9931084D02*
X8789496Y-9931084D01*
X8789496Y-9931084D02*
X8818067Y-9940608D01*
X8818067Y-9940608D02*
X8837115Y-9959655D01*
X8837115Y-9959655D02*
X8846639Y-9978703D01*
X8846639Y-9978703D02*
X8856163Y-10016798D01*
X8856163Y-10016798D02*
X8856163Y-10045370D01*
X8856163Y-10045370D02*
X8846639Y-10083465D01*
X8846639Y-10083465D02*
X8837115Y-10102512D01*
X8837115Y-10102512D02*
X8818067Y-10121560D01*
X8818067Y-10121560D02*
X8789496Y-10131084D01*
X8789496Y-10131084D02*
X8741877Y-10131084D01*
X8941877Y-10131084D02*
X8941877Y-9997750D01*
X8941877Y-10035846D02*
X8951401Y-10016798D01*
X8951401Y-10016798D02*
X8960924Y-10007274D01*
X8960924Y-10007274D02*
X8979972Y-9997750D01*
X8979972Y-9997750D02*
X8999020Y-9997750D01*
X9065686Y-10131084D02*
X9065686Y-9997750D01*
X9065686Y-9931084D02*
X9056163Y-9940608D01*
X9056163Y-9940608D02*
X9065686Y-9950131D01*
X9065686Y-9950131D02*
X9075210Y-9940608D01*
X9075210Y-9940608D02*
X9065686Y-9931084D01*
X9065686Y-9931084D02*
X9065686Y-9950131D01*
X9189496Y-10131084D02*
X9170448Y-10121560D01*
X9170448Y-10121560D02*
X9160924Y-10102512D01*
X9160924Y-10102512D02*
X9160924Y-9931084D01*
X9294258Y-10131084D02*
X9275210Y-10121560D01*
X9275210Y-10121560D02*
X9265686Y-10102512D01*
X9265686Y-10102512D02*
X9265686Y-9931084D01*
X9522829Y-10131084D02*
X9522829Y-9931084D01*
X9522829Y-9931084D02*
X9589496Y-10073941D01*
X9589496Y-10073941D02*
X9656163Y-9931084D01*
X9656163Y-9931084D02*
X9656163Y-10131084D01*
X9837115Y-10131084D02*
X9837115Y-10026322D01*
X9837115Y-10026322D02*
X9827591Y-10007274D01*
X9827591Y-10007274D02*
X9808544Y-9997750D01*
X9808544Y-9997750D02*
X9770448Y-9997750D01*
X9770448Y-9997750D02*
X9751401Y-10007274D01*
X9837115Y-10121560D02*
X9818067Y-10131084D01*
X9818067Y-10131084D02*
X9770448Y-10131084D01*
X9770448Y-10131084D02*
X9751401Y-10121560D01*
X9751401Y-10121560D02*
X9741877Y-10102512D01*
X9741877Y-10102512D02*
X9741877Y-10083465D01*
X9741877Y-10083465D02*
X9751401Y-10064417D01*
X9751401Y-10064417D02*
X9770448Y-10054893D01*
X9770448Y-10054893D02*
X9818067Y-10054893D01*
X9818067Y-10054893D02*
X9837115Y-10045370D01*
X9932353Y-9997750D02*
X9932353Y-10197750D01*
X9932353Y-10007274D02*
X9951401Y-9997750D01*
X9951401Y-9997750D02*
X9989496Y-9997750D01*
X9989496Y-9997750D02*
X10008544Y-10007274D01*
X10008544Y-10007274D02*
X10018067Y-10016798D01*
X10018067Y-10016798D02*
X10027591Y-10035846D01*
X10027591Y-10035846D02*
X10027591Y-10092989D01*
X10027591Y-10092989D02*
X10018067Y-10112036D01*
X10018067Y-10112036D02*
X10008544Y-10121560D01*
X10008544Y-10121560D02*
X9989496Y-10131084D01*
X9989496Y-10131084D02*
X9951401Y-10131084D01*
X9951401Y-10131084D02*
X9932353Y-10121560D01*
X10113305Y-10112036D02*
X10122829Y-10121560D01*
X10122829Y-10121560D02*
X10113305Y-10131084D01*
X10113305Y-10131084D02*
X10103782Y-10121560D01*
X10103782Y-10121560D02*
X10113305Y-10112036D01*
X10113305Y-10112036D02*
X10113305Y-10131084D01*
X10113305Y-10007274D02*
X10122829Y-10016798D01*
X10122829Y-10016798D02*
X10113305Y-10026322D01*
X10113305Y-10026322D02*
X10103782Y-10016798D01*
X10103782Y-10016798D02*
X10113305Y-10007274D01*
X10113305Y-10007274D02*
X10113305Y-10026322D01*
D12*
X8455700Y-10446900D02*
X8481100Y-10472300D01*
X8481100Y-10446900D02*
X8455700Y-10472300D01*
D11*
X8779972Y-10351084D02*
X8799020Y-10351084D01*
X8799020Y-10351084D02*
X8818067Y-10360608D01*
X8818067Y-10360608D02*
X8827591Y-10370131D01*
X8827591Y-10370131D02*
X8837115Y-10389179D01*
X8837115Y-10389179D02*
X8846639Y-10427274D01*
X8846639Y-10427274D02*
X8846639Y-10474893D01*
X8846639Y-10474893D02*
X8837115Y-10512989D01*
X8837115Y-10512989D02*
X8827591Y-10532036D01*
X8827591Y-10532036D02*
X8818067Y-10541560D01*
X8818067Y-10541560D02*
X8799020Y-10551084D01*
X8799020Y-10551084D02*
X8779972Y-10551084D01*
X8779972Y-10551084D02*
X8760924Y-10541560D01*
X8760924Y-10541560D02*
X8751401Y-10532036D01*
X8751401Y-10532036D02*
X8741877Y-10512989D01*
X8741877Y-10512989D02*
X8732353Y-10474893D01*
X8732353Y-10474893D02*
X8732353Y-10427274D01*
X8732353Y-10427274D02*
X8741877Y-10389179D01*
X8741877Y-10389179D02*
X8751401Y-10370131D01*
X8751401Y-10370131D02*
X8760924Y-10360608D01*
X8760924Y-10360608D02*
X8779972Y-10351084D01*
X8932353Y-10532036D02*
X8941877Y-10541560D01*
X8941877Y-10541560D02*
X8932353Y-10551084D01*
X8932353Y-10551084D02*
X8922829Y-10541560D01*
X8922829Y-10541560D02*
X8932353Y-10532036D01*
X8932353Y-10532036D02*
X8932353Y-10551084D01*
X9018067Y-10370131D02*
X9027591Y-10360608D01*
X9027591Y-10360608D02*
X9046639Y-10351084D01*
X9046639Y-10351084D02*
X9094258Y-10351084D01*
X9094258Y-10351084D02*
X9113305Y-10360608D01*
X9113305Y-10360608D02*
X9122829Y-10370131D01*
X9122829Y-10370131D02*
X9132353Y-10389179D01*
X9132353Y-10389179D02*
X9132353Y-10408227D01*
X9132353Y-10408227D02*
X9122829Y-10436798D01*
X9122829Y-10436798D02*
X9008544Y-10551084D01*
X9008544Y-10551084D02*
X9132353Y-10551084D01*
X9313305Y-10351084D02*
X9218067Y-10351084D01*
X9218067Y-10351084D02*
X9208544Y-10446322D01*
X9208544Y-10446322D02*
X9218067Y-10436798D01*
X9218067Y-10436798D02*
X9237115Y-10427274D01*
X9237115Y-10427274D02*
X9284734Y-10427274D01*
X9284734Y-10427274D02*
X9303782Y-10436798D01*
X9303782Y-10436798D02*
X9313305Y-10446322D01*
X9313305Y-10446322D02*
X9322829Y-10465370D01*
X9322829Y-10465370D02*
X9322829Y-10512989D01*
X9322829Y-10512989D02*
X9313305Y-10532036D01*
X9313305Y-10532036D02*
X9303782Y-10541560D01*
X9303782Y-10541560D02*
X9284734Y-10551084D01*
X9284734Y-10551084D02*
X9237115Y-10551084D01*
X9237115Y-10551084D02*
X9218067Y-10541560D01*
X9218067Y-10541560D02*
X9208544Y-10532036D01*
X9494258Y-10417750D02*
X9494258Y-10551084D01*
X9446639Y-10341560D02*
X9399020Y-10484417D01*
X9399020Y-10484417D02*
X9522829Y-10484417D01*
X9599020Y-10551084D02*
X9599020Y-10417750D01*
X9599020Y-10436798D02*
X9608544Y-10427274D01*
X9608544Y-10427274D02*
X9627591Y-10417750D01*
X9627591Y-10417750D02*
X9656163Y-10417750D01*
X9656163Y-10417750D02*
X9675210Y-10427274D01*
X9675210Y-10427274D02*
X9684734Y-10446322D01*
X9684734Y-10446322D02*
X9684734Y-10551084D01*
X9684734Y-10446322D02*
X9694258Y-10427274D01*
X9694258Y-10427274D02*
X9713305Y-10417750D01*
X9713305Y-10417750D02*
X9741877Y-10417750D01*
X9741877Y-10417750D02*
X9760925Y-10427274D01*
X9760925Y-10427274D02*
X9770448Y-10446322D01*
X9770448Y-10446322D02*
X9770448Y-10551084D01*
X9865686Y-10551084D02*
X9865686Y-10417750D01*
X9865686Y-10436798D02*
X9875210Y-10427274D01*
X9875210Y-10427274D02*
X9894258Y-10417750D01*
X9894258Y-10417750D02*
X9922829Y-10417750D01*
X9922829Y-10417750D02*
X9941877Y-10427274D01*
X9941877Y-10427274D02*
X9951401Y-10446322D01*
X9951401Y-10446322D02*
X9951401Y-10551084D01*
X9951401Y-10446322D02*
X9960925Y-10427274D01*
X9960925Y-10427274D02*
X9979972Y-10417750D01*
X9979972Y-10417750D02*
X10008544Y-10417750D01*
X10008544Y-10417750D02*
X10027591Y-10427274D01*
X10027591Y-10427274D02*
X10037115Y-10446322D01*
X10037115Y-10446322D02*
X10037115Y-10551084D01*
X10427591Y-10341560D02*
X10256163Y-10598703D01*
X10684734Y-10351084D02*
X10703782Y-10351084D01*
X10703782Y-10351084D02*
X10722829Y-10360608D01*
X10722829Y-10360608D02*
X10732353Y-10370131D01*
X10732353Y-10370131D02*
X10741877Y-10389179D01*
X10741877Y-10389179D02*
X10751401Y-10427274D01*
X10751401Y-10427274D02*
X10751401Y-10474893D01*
X10751401Y-10474893D02*
X10741877Y-10512989D01*
X10741877Y-10512989D02*
X10732353Y-10532036D01*
X10732353Y-10532036D02*
X10722829Y-10541560D01*
X10722829Y-10541560D02*
X10703782Y-10551084D01*
X10703782Y-10551084D02*
X10684734Y-10551084D01*
X10684734Y-10551084D02*
X10665687Y-10541560D01*
X10665687Y-10541560D02*
X10656163Y-10532036D01*
X10656163Y-10532036D02*
X10646639Y-10512989D01*
X10646639Y-10512989D02*
X10637115Y-10474893D01*
X10637115Y-10474893D02*
X10637115Y-10427274D01*
X10637115Y-10427274D02*
X10646639Y-10389179D01*
X10646639Y-10389179D02*
X10656163Y-10370131D01*
X10656163Y-10370131D02*
X10665687Y-10360608D01*
X10665687Y-10360608D02*
X10684734Y-10351084D01*
X10837115Y-10532036D02*
X10846639Y-10541560D01*
X10846639Y-10541560D02*
X10837115Y-10551084D01*
X10837115Y-10551084D02*
X10827591Y-10541560D01*
X10827591Y-10541560D02*
X10837115Y-10532036D01*
X10837115Y-10532036D02*
X10837115Y-10551084D01*
X10970448Y-10351084D02*
X10989496Y-10351084D01*
X10989496Y-10351084D02*
X11008544Y-10360608D01*
X11008544Y-10360608D02*
X11018068Y-10370131D01*
X11018068Y-10370131D02*
X11027591Y-10389179D01*
X11027591Y-10389179D02*
X11037115Y-10427274D01*
X11037115Y-10427274D02*
X11037115Y-10474893D01*
X11037115Y-10474893D02*
X11027591Y-10512989D01*
X11027591Y-10512989D02*
X11018068Y-10532036D01*
X11018068Y-10532036D02*
X11008544Y-10541560D01*
X11008544Y-10541560D02*
X10989496Y-10551084D01*
X10989496Y-10551084D02*
X10970448Y-10551084D01*
X10970448Y-10551084D02*
X10951401Y-10541560D01*
X10951401Y-10541560D02*
X10941877Y-10532036D01*
X10941877Y-10532036D02*
X10932353Y-10512989D01*
X10932353Y-10512989D02*
X10922829Y-10474893D01*
X10922829Y-10474893D02*
X10922829Y-10427274D01*
X10922829Y-10427274D02*
X10932353Y-10389179D01*
X10932353Y-10389179D02*
X10941877Y-10370131D01*
X10941877Y-10370131D02*
X10951401Y-10360608D01*
X10951401Y-10360608D02*
X10970448Y-10351084D01*
X11227591Y-10551084D02*
X11113306Y-10551084D01*
X11170448Y-10551084D02*
X11170448Y-10351084D01*
X11170448Y-10351084D02*
X11151401Y-10379655D01*
X11151401Y-10379655D02*
X11132353Y-10398703D01*
X11132353Y-10398703D02*
X11113306Y-10408227D01*
X11351401Y-10351084D02*
X11370448Y-10351084D01*
X11370448Y-10351084D02*
X11389496Y-10360608D01*
X11389496Y-10360608D02*
X11399020Y-10370131D01*
X11399020Y-10370131D02*
X11408544Y-10389179D01*
X11408544Y-10389179D02*
X11418067Y-10427274D01*
X11418067Y-10427274D02*
X11418067Y-10474893D01*
X11418067Y-10474893D02*
X11408544Y-10512989D01*
X11408544Y-10512989D02*
X11399020Y-10532036D01*
X11399020Y-10532036D02*
X11389496Y-10541560D01*
X11389496Y-10541560D02*
X11370448Y-10551084D01*
X11370448Y-10551084D02*
X11351401Y-10551084D01*
X11351401Y-10551084D02*
X11332353Y-10541560D01*
X11332353Y-10541560D02*
X11322829Y-10532036D01*
X11322829Y-10532036D02*
X11313306Y-10512989D01*
X11313306Y-10512989D02*
X11303782Y-10474893D01*
X11303782Y-10474893D02*
X11303782Y-10427274D01*
X11303782Y-10427274D02*
X11313306Y-10389179D01*
X11313306Y-10389179D02*
X11322829Y-10370131D01*
X11322829Y-10370131D02*
X11332353Y-10360608D01*
X11332353Y-10360608D02*
X11351401Y-10351084D01*
X11541877Y-10351084D02*
X11560925Y-10351084D01*
X11560925Y-10351084D02*
X11579972Y-10360608D01*
X11579972Y-10360608D02*
X11589496Y-10370131D01*
X11589496Y-10370131D02*
X11599020Y-10389179D01*
X11599020Y-10389179D02*
X11608544Y-10427274D01*
X11608544Y-10427274D02*
X11608544Y-10474893D01*
X11608544Y-10474893D02*
X11599020Y-10512989D01*
X11599020Y-10512989D02*
X11589496Y-10532036D01*
X11589496Y-10532036D02*
X11579972Y-10541560D01*
X11579972Y-10541560D02*
X11560925Y-10551084D01*
X11560925Y-10551084D02*
X11541877Y-10551084D01*
X11541877Y-10551084D02*
X11522829Y-10541560D01*
X11522829Y-10541560D02*
X11513306Y-10532036D01*
X11513306Y-10532036D02*
X11503782Y-10512989D01*
X11503782Y-10512989D02*
X11494258Y-10474893D01*
X11494258Y-10474893D02*
X11494258Y-10427274D01*
X11494258Y-10427274D02*
X11503782Y-10389179D01*
X11503782Y-10389179D02*
X11513306Y-10370131D01*
X11513306Y-10370131D02*
X11522829Y-10360608D01*
X11522829Y-10360608D02*
X11541877Y-10351084D01*
X11684734Y-10351084D02*
X11684734Y-10389179D01*
X11760925Y-10351084D02*
X11760925Y-10389179D01*
X12056163Y-10627274D02*
X12046639Y-10617750D01*
X12046639Y-10617750D02*
X12027591Y-10589179D01*
X12027591Y-10589179D02*
X12018068Y-10570131D01*
X12018068Y-10570131D02*
X12008544Y-10541560D01*
X12008544Y-10541560D02*
X11999020Y-10493941D01*
X11999020Y-10493941D02*
X11999020Y-10455846D01*
X11999020Y-10455846D02*
X12008544Y-10408227D01*
X12008544Y-10408227D02*
X12018068Y-10379655D01*
X12018068Y-10379655D02*
X12027591Y-10360608D01*
X12027591Y-10360608D02*
X12046639Y-10332036D01*
X12046639Y-10332036D02*
X12056163Y-10322512D01*
X12237115Y-10551084D02*
X12122829Y-10551084D01*
X12179972Y-10551084D02*
X12179972Y-10351084D01*
X12179972Y-10351084D02*
X12160925Y-10379655D01*
X12160925Y-10379655D02*
X12141877Y-10398703D01*
X12141877Y-10398703D02*
X12122829Y-10408227D01*
X12303782Y-10351084D02*
X12427591Y-10351084D01*
X12427591Y-10351084D02*
X12360925Y-10427274D01*
X12360925Y-10427274D02*
X12389496Y-10427274D01*
X12389496Y-10427274D02*
X12408544Y-10436798D01*
X12408544Y-10436798D02*
X12418068Y-10446322D01*
X12418068Y-10446322D02*
X12427591Y-10465370D01*
X12427591Y-10465370D02*
X12427591Y-10512989D01*
X12427591Y-10512989D02*
X12418068Y-10532036D01*
X12418068Y-10532036D02*
X12408544Y-10541560D01*
X12408544Y-10541560D02*
X12389496Y-10551084D01*
X12389496Y-10551084D02*
X12332353Y-10551084D01*
X12332353Y-10551084D02*
X12313306Y-10541560D01*
X12313306Y-10541560D02*
X12303782Y-10532036D01*
X12608544Y-10351084D02*
X12513306Y-10351084D01*
X12513306Y-10351084D02*
X12503782Y-10446322D01*
X12503782Y-10446322D02*
X12513306Y-10436798D01*
X12513306Y-10436798D02*
X12532353Y-10427274D01*
X12532353Y-10427274D02*
X12579972Y-10427274D01*
X12579972Y-10427274D02*
X12599020Y-10436798D01*
X12599020Y-10436798D02*
X12608544Y-10446322D01*
X12608544Y-10446322D02*
X12618068Y-10465370D01*
X12618068Y-10465370D02*
X12618068Y-10512989D01*
X12618068Y-10512989D02*
X12608544Y-10532036D01*
X12608544Y-10532036D02*
X12599020Y-10541560D01*
X12599020Y-10541560D02*
X12579972Y-10551084D01*
X12579972Y-10551084D02*
X12532353Y-10551084D01*
X12532353Y-10551084D02*
X12513306Y-10541560D01*
X12513306Y-10541560D02*
X12503782Y-10532036D01*
X12789496Y-10417750D02*
X12789496Y-10551084D01*
X12741877Y-10341560D02*
X12694258Y-10484417D01*
X12694258Y-10484417D02*
X12818068Y-10484417D01*
X13046639Y-10551084D02*
X13046639Y-10351084D01*
X13132353Y-10551084D02*
X13132353Y-10446322D01*
X13132353Y-10446322D02*
X13122830Y-10427274D01*
X13122830Y-10427274D02*
X13103782Y-10417750D01*
X13103782Y-10417750D02*
X13075210Y-10417750D01*
X13075210Y-10417750D02*
X13056163Y-10427274D01*
X13056163Y-10427274D02*
X13046639Y-10436798D01*
X13256163Y-10551084D02*
X13237115Y-10541560D01*
X13237115Y-10541560D02*
X13227591Y-10532036D01*
X13227591Y-10532036D02*
X13218068Y-10512989D01*
X13218068Y-10512989D02*
X13218068Y-10455846D01*
X13218068Y-10455846D02*
X13227591Y-10436798D01*
X13227591Y-10436798D02*
X13237115Y-10427274D01*
X13237115Y-10427274D02*
X13256163Y-10417750D01*
X13256163Y-10417750D02*
X13284734Y-10417750D01*
X13284734Y-10417750D02*
X13303782Y-10427274D01*
X13303782Y-10427274D02*
X13313306Y-10436798D01*
X13313306Y-10436798D02*
X13322830Y-10455846D01*
X13322830Y-10455846D02*
X13322830Y-10512989D01*
X13322830Y-10512989D02*
X13313306Y-10532036D01*
X13313306Y-10532036D02*
X13303782Y-10541560D01*
X13303782Y-10541560D02*
X13284734Y-10551084D01*
X13284734Y-10551084D02*
X13256163Y-10551084D01*
X13437115Y-10551084D02*
X13418068Y-10541560D01*
X13418068Y-10541560D02*
X13408544Y-10522512D01*
X13408544Y-10522512D02*
X13408544Y-10351084D01*
X13589496Y-10541560D02*
X13570449Y-10551084D01*
X13570449Y-10551084D02*
X13532353Y-10551084D01*
X13532353Y-10551084D02*
X13513306Y-10541560D01*
X13513306Y-10541560D02*
X13503782Y-10522512D01*
X13503782Y-10522512D02*
X13503782Y-10446322D01*
X13503782Y-10446322D02*
X13513306Y-10427274D01*
X13513306Y-10427274D02*
X13532353Y-10417750D01*
X13532353Y-10417750D02*
X13570449Y-10417750D01*
X13570449Y-10417750D02*
X13589496Y-10427274D01*
X13589496Y-10427274D02*
X13599020Y-10446322D01*
X13599020Y-10446322D02*
X13599020Y-10465370D01*
X13599020Y-10465370D02*
X13503782Y-10484417D01*
X13675211Y-10541560D02*
X13694258Y-10551084D01*
X13694258Y-10551084D02*
X13732353Y-10551084D01*
X13732353Y-10551084D02*
X13751401Y-10541560D01*
X13751401Y-10541560D02*
X13760925Y-10522512D01*
X13760925Y-10522512D02*
X13760925Y-10512989D01*
X13760925Y-10512989D02*
X13751401Y-10493941D01*
X13751401Y-10493941D02*
X13732353Y-10484417D01*
X13732353Y-10484417D02*
X13703782Y-10484417D01*
X13703782Y-10484417D02*
X13684734Y-10474893D01*
X13684734Y-10474893D02*
X13675211Y-10455846D01*
X13675211Y-10455846D02*
X13675211Y-10446322D01*
X13675211Y-10446322D02*
X13684734Y-10427274D01*
X13684734Y-10427274D02*
X13703782Y-10417750D01*
X13703782Y-10417750D02*
X13732353Y-10417750D01*
X13732353Y-10417750D02*
X13751401Y-10427274D01*
X13827592Y-10627274D02*
X13837115Y-10617750D01*
X13837115Y-10617750D02*
X13856163Y-10589179D01*
X13856163Y-10589179D02*
X13865687Y-10570131D01*
X13865687Y-10570131D02*
X13875211Y-10541560D01*
X13875211Y-10541560D02*
X13884734Y-10493941D01*
X13884734Y-10493941D02*
X13884734Y-10455846D01*
X13884734Y-10455846D02*
X13875211Y-10408227D01*
X13875211Y-10408227D02*
X13865687Y-10379655D01*
X13865687Y-10379655D02*
X13856163Y-10360608D01*
X13856163Y-10360608D02*
X13837115Y-10332036D01*
X13837115Y-10332036D02*
X13827592Y-10322512D01*
D12*
X8481100Y-10723600D02*
G75*
G02*
X8381100Y-10723600I-50000J0D01*
G01*
X8381100Y-10723600D02*
G75*
G02*
X8481100Y-10723600I50000J0D01*
G01*
D11*
X8846639Y-10815084D02*
X8732353Y-10815084D01*
X8789496Y-10815084D02*
X8789496Y-10615084D01*
X8789496Y-10615084D02*
X8770448Y-10643655D01*
X8770448Y-10643655D02*
X8751401Y-10662703D01*
X8751401Y-10662703D02*
X8732353Y-10672227D01*
X8932353Y-10796036D02*
X8941877Y-10805560D01*
X8941877Y-10805560D02*
X8932353Y-10815084D01*
X8932353Y-10815084D02*
X8922829Y-10805560D01*
X8922829Y-10805560D02*
X8932353Y-10796036D01*
X8932353Y-10796036D02*
X8932353Y-10815084D01*
X9065686Y-10615084D02*
X9084734Y-10615084D01*
X9084734Y-10615084D02*
X9103782Y-10624608D01*
X9103782Y-10624608D02*
X9113305Y-10634131D01*
X9113305Y-10634131D02*
X9122829Y-10653179D01*
X9122829Y-10653179D02*
X9132353Y-10691274D01*
X9132353Y-10691274D02*
X9132353Y-10738893D01*
X9132353Y-10738893D02*
X9122829Y-10776989D01*
X9122829Y-10776989D02*
X9113305Y-10796036D01*
X9113305Y-10796036D02*
X9103782Y-10805560D01*
X9103782Y-10805560D02*
X9084734Y-10815084D01*
X9084734Y-10815084D02*
X9065686Y-10815084D01*
X9065686Y-10815084D02*
X9046639Y-10805560D01*
X9046639Y-10805560D02*
X9037115Y-10796036D01*
X9037115Y-10796036D02*
X9027591Y-10776989D01*
X9027591Y-10776989D02*
X9018067Y-10738893D01*
X9018067Y-10738893D02*
X9018067Y-10691274D01*
X9018067Y-10691274D02*
X9027591Y-10653179D01*
X9027591Y-10653179D02*
X9037115Y-10634131D01*
X9037115Y-10634131D02*
X9046639Y-10624608D01*
X9046639Y-10624608D02*
X9065686Y-10615084D01*
X9256163Y-10615084D02*
X9275210Y-10615084D01*
X9275210Y-10615084D02*
X9294258Y-10624608D01*
X9294258Y-10624608D02*
X9303782Y-10634131D01*
X9303782Y-10634131D02*
X9313305Y-10653179D01*
X9313305Y-10653179D02*
X9322829Y-10691274D01*
X9322829Y-10691274D02*
X9322829Y-10738893D01*
X9322829Y-10738893D02*
X9313305Y-10776989D01*
X9313305Y-10776989D02*
X9303782Y-10796036D01*
X9303782Y-10796036D02*
X9294258Y-10805560D01*
X9294258Y-10805560D02*
X9275210Y-10815084D01*
X9275210Y-10815084D02*
X9256163Y-10815084D01*
X9256163Y-10815084D02*
X9237115Y-10805560D01*
X9237115Y-10805560D02*
X9227591Y-10796036D01*
X9227591Y-10796036D02*
X9218067Y-10776989D01*
X9218067Y-10776989D02*
X9208544Y-10738893D01*
X9208544Y-10738893D02*
X9208544Y-10691274D01*
X9208544Y-10691274D02*
X9218067Y-10653179D01*
X9218067Y-10653179D02*
X9227591Y-10634131D01*
X9227591Y-10634131D02*
X9237115Y-10624608D01*
X9237115Y-10624608D02*
X9256163Y-10615084D01*
X9446639Y-10615084D02*
X9465686Y-10615084D01*
X9465686Y-10615084D02*
X9484734Y-10624608D01*
X9484734Y-10624608D02*
X9494258Y-10634131D01*
X9494258Y-10634131D02*
X9503782Y-10653179D01*
X9503782Y-10653179D02*
X9513305Y-10691274D01*
X9513305Y-10691274D02*
X9513305Y-10738893D01*
X9513305Y-10738893D02*
X9503782Y-10776989D01*
X9503782Y-10776989D02*
X9494258Y-10796036D01*
X9494258Y-10796036D02*
X9484734Y-10805560D01*
X9484734Y-10805560D02*
X9465686Y-10815084D01*
X9465686Y-10815084D02*
X9446639Y-10815084D01*
X9446639Y-10815084D02*
X9427591Y-10805560D01*
X9427591Y-10805560D02*
X9418067Y-10796036D01*
X9418067Y-10796036D02*
X9408544Y-10776989D01*
X9408544Y-10776989D02*
X9399020Y-10738893D01*
X9399020Y-10738893D02*
X9399020Y-10691274D01*
X9399020Y-10691274D02*
X9408544Y-10653179D01*
X9408544Y-10653179D02*
X9418067Y-10634131D01*
X9418067Y-10634131D02*
X9427591Y-10624608D01*
X9427591Y-10624608D02*
X9446639Y-10615084D01*
X9599020Y-10815084D02*
X9599020Y-10681750D01*
X9599020Y-10700798D02*
X9608544Y-10691274D01*
X9608544Y-10691274D02*
X9627591Y-10681750D01*
X9627591Y-10681750D02*
X9656163Y-10681750D01*
X9656163Y-10681750D02*
X9675210Y-10691274D01*
X9675210Y-10691274D02*
X9684734Y-10710322D01*
X9684734Y-10710322D02*
X9684734Y-10815084D01*
X9684734Y-10710322D02*
X9694258Y-10691274D01*
X9694258Y-10691274D02*
X9713305Y-10681750D01*
X9713305Y-10681750D02*
X9741877Y-10681750D01*
X9741877Y-10681750D02*
X9760925Y-10691274D01*
X9760925Y-10691274D02*
X9770448Y-10710322D01*
X9770448Y-10710322D02*
X9770448Y-10815084D01*
X9865686Y-10815084D02*
X9865686Y-10681750D01*
X9865686Y-10700798D02*
X9875210Y-10691274D01*
X9875210Y-10691274D02*
X9894258Y-10681750D01*
X9894258Y-10681750D02*
X9922829Y-10681750D01*
X9922829Y-10681750D02*
X9941877Y-10691274D01*
X9941877Y-10691274D02*
X9951401Y-10710322D01*
X9951401Y-10710322D02*
X9951401Y-10815084D01*
X9951401Y-10710322D02*
X9960925Y-10691274D01*
X9960925Y-10691274D02*
X9979972Y-10681750D01*
X9979972Y-10681750D02*
X10008544Y-10681750D01*
X10008544Y-10681750D02*
X10027591Y-10691274D01*
X10027591Y-10691274D02*
X10037115Y-10710322D01*
X10037115Y-10710322D02*
X10037115Y-10815084D01*
X10427591Y-10605560D02*
X10256163Y-10862703D01*
X10684734Y-10615084D02*
X10703782Y-10615084D01*
X10703782Y-10615084D02*
X10722829Y-10624608D01*
X10722829Y-10624608D02*
X10732353Y-10634131D01*
X10732353Y-10634131D02*
X10741877Y-10653179D01*
X10741877Y-10653179D02*
X10751401Y-10691274D01*
X10751401Y-10691274D02*
X10751401Y-10738893D01*
X10751401Y-10738893D02*
X10741877Y-10776989D01*
X10741877Y-10776989D02*
X10732353Y-10796036D01*
X10732353Y-10796036D02*
X10722829Y-10805560D01*
X10722829Y-10805560D02*
X10703782Y-10815084D01*
X10703782Y-10815084D02*
X10684734Y-10815084D01*
X10684734Y-10815084D02*
X10665687Y-10805560D01*
X10665687Y-10805560D02*
X10656163Y-10796036D01*
X10656163Y-10796036D02*
X10646639Y-10776989D01*
X10646639Y-10776989D02*
X10637115Y-10738893D01*
X10637115Y-10738893D02*
X10637115Y-10691274D01*
X10637115Y-10691274D02*
X10646639Y-10653179D01*
X10646639Y-10653179D02*
X10656163Y-10634131D01*
X10656163Y-10634131D02*
X10665687Y-10624608D01*
X10665687Y-10624608D02*
X10684734Y-10615084D01*
X10837115Y-10796036D02*
X10846639Y-10805560D01*
X10846639Y-10805560D02*
X10837115Y-10815084D01*
X10837115Y-10815084D02*
X10827591Y-10805560D01*
X10827591Y-10805560D02*
X10837115Y-10796036D01*
X10837115Y-10796036D02*
X10837115Y-10815084D01*
X10970448Y-10615084D02*
X10989496Y-10615084D01*
X10989496Y-10615084D02*
X11008544Y-10624608D01*
X11008544Y-10624608D02*
X11018068Y-10634131D01*
X11018068Y-10634131D02*
X11027591Y-10653179D01*
X11027591Y-10653179D02*
X11037115Y-10691274D01*
X11037115Y-10691274D02*
X11037115Y-10738893D01*
X11037115Y-10738893D02*
X11027591Y-10776989D01*
X11027591Y-10776989D02*
X11018068Y-10796036D01*
X11018068Y-10796036D02*
X11008544Y-10805560D01*
X11008544Y-10805560D02*
X10989496Y-10815084D01*
X10989496Y-10815084D02*
X10970448Y-10815084D01*
X10970448Y-10815084D02*
X10951401Y-10805560D01*
X10951401Y-10805560D02*
X10941877Y-10796036D01*
X10941877Y-10796036D02*
X10932353Y-10776989D01*
X10932353Y-10776989D02*
X10922829Y-10738893D01*
X10922829Y-10738893D02*
X10922829Y-10691274D01*
X10922829Y-10691274D02*
X10932353Y-10653179D01*
X10932353Y-10653179D02*
X10941877Y-10634131D01*
X10941877Y-10634131D02*
X10951401Y-10624608D01*
X10951401Y-10624608D02*
X10970448Y-10615084D01*
X11103782Y-10615084D02*
X11227591Y-10615084D01*
X11227591Y-10615084D02*
X11160925Y-10691274D01*
X11160925Y-10691274D02*
X11189496Y-10691274D01*
X11189496Y-10691274D02*
X11208544Y-10700798D01*
X11208544Y-10700798D02*
X11218067Y-10710322D01*
X11218067Y-10710322D02*
X11227591Y-10729370D01*
X11227591Y-10729370D02*
X11227591Y-10776989D01*
X11227591Y-10776989D02*
X11218067Y-10796036D01*
X11218067Y-10796036D02*
X11208544Y-10805560D01*
X11208544Y-10805560D02*
X11189496Y-10815084D01*
X11189496Y-10815084D02*
X11132353Y-10815084D01*
X11132353Y-10815084D02*
X11113306Y-10805560D01*
X11113306Y-10805560D02*
X11103782Y-10796036D01*
X11322829Y-10815084D02*
X11360925Y-10815084D01*
X11360925Y-10815084D02*
X11379972Y-10805560D01*
X11379972Y-10805560D02*
X11389496Y-10796036D01*
X11389496Y-10796036D02*
X11408544Y-10767465D01*
X11408544Y-10767465D02*
X11418067Y-10729370D01*
X11418067Y-10729370D02*
X11418067Y-10653179D01*
X11418067Y-10653179D02*
X11408544Y-10634131D01*
X11408544Y-10634131D02*
X11399020Y-10624608D01*
X11399020Y-10624608D02*
X11379972Y-10615084D01*
X11379972Y-10615084D02*
X11341877Y-10615084D01*
X11341877Y-10615084D02*
X11322829Y-10624608D01*
X11322829Y-10624608D02*
X11313306Y-10634131D01*
X11313306Y-10634131D02*
X11303782Y-10653179D01*
X11303782Y-10653179D02*
X11303782Y-10700798D01*
X11303782Y-10700798D02*
X11313306Y-10719846D01*
X11313306Y-10719846D02*
X11322829Y-10729370D01*
X11322829Y-10729370D02*
X11341877Y-10738893D01*
X11341877Y-10738893D02*
X11379972Y-10738893D01*
X11379972Y-10738893D02*
X11399020Y-10729370D01*
X11399020Y-10729370D02*
X11408544Y-10719846D01*
X11408544Y-10719846D02*
X11418067Y-10700798D01*
X11589496Y-10681750D02*
X11589496Y-10815084D01*
X11541877Y-10605560D02*
X11494258Y-10748417D01*
X11494258Y-10748417D02*
X11618067Y-10748417D01*
X11684734Y-10615084D02*
X11684734Y-10653179D01*
X11760925Y-10615084D02*
X11760925Y-10653179D01*
X12056163Y-10891274D02*
X12046639Y-10881750D01*
X12046639Y-10881750D02*
X12027591Y-10853179D01*
X12027591Y-10853179D02*
X12018068Y-10834131D01*
X12018068Y-10834131D02*
X12008544Y-10805560D01*
X12008544Y-10805560D02*
X11999020Y-10757941D01*
X11999020Y-10757941D02*
X11999020Y-10719846D01*
X11999020Y-10719846D02*
X12008544Y-10672227D01*
X12008544Y-10672227D02*
X12018068Y-10643655D01*
X12018068Y-10643655D02*
X12027591Y-10624608D01*
X12027591Y-10624608D02*
X12046639Y-10596036D01*
X12046639Y-10596036D02*
X12056163Y-10586512D01*
X12237115Y-10815084D02*
X12122829Y-10815084D01*
X12179972Y-10815084D02*
X12179972Y-10615084D01*
X12179972Y-10615084D02*
X12160925Y-10643655D01*
X12160925Y-10643655D02*
X12141877Y-10662703D01*
X12141877Y-10662703D02*
X12122829Y-10672227D01*
X12313306Y-10634131D02*
X12322829Y-10624608D01*
X12322829Y-10624608D02*
X12341877Y-10615084D01*
X12341877Y-10615084D02*
X12389496Y-10615084D01*
X12389496Y-10615084D02*
X12408544Y-10624608D01*
X12408544Y-10624608D02*
X12418068Y-10634131D01*
X12418068Y-10634131D02*
X12427591Y-10653179D01*
X12427591Y-10653179D02*
X12427591Y-10672227D01*
X12427591Y-10672227D02*
X12418068Y-10700798D01*
X12418068Y-10700798D02*
X12303782Y-10815084D01*
X12303782Y-10815084D02*
X12427591Y-10815084D01*
X12665687Y-10815084D02*
X12665687Y-10615084D01*
X12751401Y-10815084D02*
X12751401Y-10710322D01*
X12751401Y-10710322D02*
X12741877Y-10691274D01*
X12741877Y-10691274D02*
X12722830Y-10681750D01*
X12722830Y-10681750D02*
X12694258Y-10681750D01*
X12694258Y-10681750D02*
X12675210Y-10691274D01*
X12675210Y-10691274D02*
X12665687Y-10700798D01*
X12875210Y-10815084D02*
X12856163Y-10805560D01*
X12856163Y-10805560D02*
X12846639Y-10796036D01*
X12846639Y-10796036D02*
X12837115Y-10776989D01*
X12837115Y-10776989D02*
X12837115Y-10719846D01*
X12837115Y-10719846D02*
X12846639Y-10700798D01*
X12846639Y-10700798D02*
X12856163Y-10691274D01*
X12856163Y-10691274D02*
X12875210Y-10681750D01*
X12875210Y-10681750D02*
X12903782Y-10681750D01*
X12903782Y-10681750D02*
X12922830Y-10691274D01*
X12922830Y-10691274D02*
X12932353Y-10700798D01*
X12932353Y-10700798D02*
X12941877Y-10719846D01*
X12941877Y-10719846D02*
X12941877Y-10776989D01*
X12941877Y-10776989D02*
X12932353Y-10796036D01*
X12932353Y-10796036D02*
X12922830Y-10805560D01*
X12922830Y-10805560D02*
X12903782Y-10815084D01*
X12903782Y-10815084D02*
X12875210Y-10815084D01*
X13056163Y-10815084D02*
X13037115Y-10805560D01*
X13037115Y-10805560D02*
X13027591Y-10786512D01*
X13027591Y-10786512D02*
X13027591Y-10615084D01*
X13208544Y-10805560D02*
X13189496Y-10815084D01*
X13189496Y-10815084D02*
X13151401Y-10815084D01*
X13151401Y-10815084D02*
X13132353Y-10805560D01*
X13132353Y-10805560D02*
X13122830Y-10786512D01*
X13122830Y-10786512D02*
X13122830Y-10710322D01*
X13122830Y-10710322D02*
X13132353Y-10691274D01*
X13132353Y-10691274D02*
X13151401Y-10681750D01*
X13151401Y-10681750D02*
X13189496Y-10681750D01*
X13189496Y-10681750D02*
X13208544Y-10691274D01*
X13208544Y-10691274D02*
X13218068Y-10710322D01*
X13218068Y-10710322D02*
X13218068Y-10729370D01*
X13218068Y-10729370D02*
X13122830Y-10748417D01*
X13294258Y-10805560D02*
X13313306Y-10815084D01*
X13313306Y-10815084D02*
X13351401Y-10815084D01*
X13351401Y-10815084D02*
X13370449Y-10805560D01*
X13370449Y-10805560D02*
X13379972Y-10786512D01*
X13379972Y-10786512D02*
X13379972Y-10776989D01*
X13379972Y-10776989D02*
X13370449Y-10757941D01*
X13370449Y-10757941D02*
X13351401Y-10748417D01*
X13351401Y-10748417D02*
X13322830Y-10748417D01*
X13322830Y-10748417D02*
X13303782Y-10738893D01*
X13303782Y-10738893D02*
X13294258Y-10719846D01*
X13294258Y-10719846D02*
X13294258Y-10710322D01*
X13294258Y-10710322D02*
X13303782Y-10691274D01*
X13303782Y-10691274D02*
X13322830Y-10681750D01*
X13322830Y-10681750D02*
X13351401Y-10681750D01*
X13351401Y-10681750D02*
X13370449Y-10691274D01*
X13446639Y-10891274D02*
X13456163Y-10881750D01*
X13456163Y-10881750D02*
X13475211Y-10853179D01*
X13475211Y-10853179D02*
X13484734Y-10834131D01*
X13484734Y-10834131D02*
X13494258Y-10805560D01*
X13494258Y-10805560D02*
X13503782Y-10757941D01*
X13503782Y-10757941D02*
X13503782Y-10719846D01*
X13503782Y-10719846D02*
X13494258Y-10672227D01*
X13494258Y-10672227D02*
X13484734Y-10643655D01*
X13484734Y-10643655D02*
X13475211Y-10624608D01*
X13475211Y-10624608D02*
X13456163Y-10596036D01*
X13456163Y-10596036D02*
X13446639Y-10586512D01*
M02*
