%TF.GenerationSoftware,KiCad,Pcbnew,8.0.4*%
%TF.CreationDate,2025-12-20T23:30:35-08:00*%
%TF.ProjectId,Power_Amplifier,506f7765-725f-4416-9d70-6c6966696572,rev?*%
%TF.SameCoordinates,Original*%
%TF.FileFunction,Drillmap*%
%TF.FilePolarity,Positive*%
%FSLAX45Y45*%
G04 Gerber Fmt 4.5, Leading zero omitted, Abs format (unit mm)*
G04 Created by KiCad (PCBNEW 8.0.4) date 2025-12-20 23:30:35*
%MOMM*%
%LPD*%
G01*
G04 APERTURE LIST*
%ADD10C,0.050000*%
%ADD11C,0.200000*%
%ADD12C,0.210820*%
G04 APERTURE END LIST*
D10*
X8483600Y-4343400D02*
X15582900Y-4343400D01*
X15582900Y-9817100D01*
X8483600Y-9817100D01*
X8483600Y-4343400D01*
D11*
D12*
X8679942Y-6090950D02*
X8890762Y-6301770D01*
X8890762Y-6090950D02*
X8679942Y-6301770D01*
X8679942Y-7040910D02*
X8890762Y-7251730D01*
X8890762Y-7040910D02*
X8679942Y-7251730D01*
X15175738Y-6090920D02*
X15386558Y-6301740D01*
X15386558Y-6090920D02*
X15175738Y-6301740D01*
X15175738Y-7040880D02*
X15386558Y-7251700D01*
X15386558Y-7040880D02*
X15175738Y-7251700D01*
D11*
X8741877Y-10131084D02*
X8741877Y-9931084D01*
X8741877Y-9931084D02*
X8789496Y-9931084D01*
X8789496Y-9931084D02*
X8818067Y-9940608D01*
X8818067Y-9940608D02*
X8837115Y-9959655D01*
X8837115Y-9959655D02*
X8846639Y-9978703D01*
X8846639Y-9978703D02*
X8856163Y-10016798D01*
X8856163Y-10016798D02*
X8856163Y-10045370D01*
X8856163Y-10045370D02*
X8846639Y-10083465D01*
X8846639Y-10083465D02*
X8837115Y-10102512D01*
X8837115Y-10102512D02*
X8818067Y-10121560D01*
X8818067Y-10121560D02*
X8789496Y-10131084D01*
X8789496Y-10131084D02*
X8741877Y-10131084D01*
X8941877Y-10131084D02*
X8941877Y-9997750D01*
X8941877Y-10035846D02*
X8951401Y-10016798D01*
X8951401Y-10016798D02*
X8960924Y-10007274D01*
X8960924Y-10007274D02*
X8979972Y-9997750D01*
X8979972Y-9997750D02*
X8999020Y-9997750D01*
X9065686Y-10131084D02*
X9065686Y-9997750D01*
X9065686Y-9931084D02*
X9056163Y-9940608D01*
X9056163Y-9940608D02*
X9065686Y-9950131D01*
X9065686Y-9950131D02*
X9075210Y-9940608D01*
X9075210Y-9940608D02*
X9065686Y-9931084D01*
X9065686Y-9931084D02*
X9065686Y-9950131D01*
X9189496Y-10131084D02*
X9170448Y-10121560D01*
X9170448Y-10121560D02*
X9160924Y-10102512D01*
X9160924Y-10102512D02*
X9160924Y-9931084D01*
X9294258Y-10131084D02*
X9275210Y-10121560D01*
X9275210Y-10121560D02*
X9265686Y-10102512D01*
X9265686Y-10102512D02*
X9265686Y-9931084D01*
X9522829Y-10131084D02*
X9522829Y-9931084D01*
X9522829Y-9931084D02*
X9589496Y-10073941D01*
X9589496Y-10073941D02*
X9656163Y-9931084D01*
X9656163Y-9931084D02*
X9656163Y-10131084D01*
X9837115Y-10131084D02*
X9837115Y-10026322D01*
X9837115Y-10026322D02*
X9827591Y-10007274D01*
X9827591Y-10007274D02*
X9808544Y-9997750D01*
X9808544Y-9997750D02*
X9770448Y-9997750D01*
X9770448Y-9997750D02*
X9751401Y-10007274D01*
X9837115Y-10121560D02*
X9818067Y-10131084D01*
X9818067Y-10131084D02*
X9770448Y-10131084D01*
X9770448Y-10131084D02*
X9751401Y-10121560D01*
X9751401Y-10121560D02*
X9741877Y-10102512D01*
X9741877Y-10102512D02*
X9741877Y-10083465D01*
X9741877Y-10083465D02*
X9751401Y-10064417D01*
X9751401Y-10064417D02*
X9770448Y-10054893D01*
X9770448Y-10054893D02*
X9818067Y-10054893D01*
X9818067Y-10054893D02*
X9837115Y-10045370D01*
X9932353Y-9997750D02*
X9932353Y-10197750D01*
X9932353Y-10007274D02*
X9951401Y-9997750D01*
X9951401Y-9997750D02*
X9989496Y-9997750D01*
X9989496Y-9997750D02*
X10008544Y-10007274D01*
X10008544Y-10007274D02*
X10018067Y-10016798D01*
X10018067Y-10016798D02*
X10027591Y-10035846D01*
X10027591Y-10035846D02*
X10027591Y-10092989D01*
X10027591Y-10092989D02*
X10018067Y-10112036D01*
X10018067Y-10112036D02*
X10008544Y-10121560D01*
X10008544Y-10121560D02*
X9989496Y-10131084D01*
X9989496Y-10131084D02*
X9951401Y-10131084D01*
X9951401Y-10131084D02*
X9932353Y-10121560D01*
X10113305Y-10112036D02*
X10122829Y-10121560D01*
X10122829Y-10121560D02*
X10113305Y-10131084D01*
X10113305Y-10131084D02*
X10103782Y-10121560D01*
X10103782Y-10121560D02*
X10113305Y-10112036D01*
X10113305Y-10112036D02*
X10113305Y-10131084D01*
X10113305Y-10007274D02*
X10122829Y-10016798D01*
X10122829Y-10016798D02*
X10113305Y-10026322D01*
X10113305Y-10026322D02*
X10103782Y-10016798D01*
X10103782Y-10016798D02*
X10113305Y-10007274D01*
X10113305Y-10007274D02*
X10113305Y-10026322D01*
X8281100Y-10359600D02*
X8481100Y-10559600D01*
X8481100Y-10359600D02*
X8281100Y-10559600D01*
X8732353Y-10370131D02*
X8741877Y-10360608D01*
X8741877Y-10360608D02*
X8760924Y-10351084D01*
X8760924Y-10351084D02*
X8808544Y-10351084D01*
X8808544Y-10351084D02*
X8827591Y-10360608D01*
X8827591Y-10360608D02*
X8837115Y-10370131D01*
X8837115Y-10370131D02*
X8846639Y-10389179D01*
X8846639Y-10389179D02*
X8846639Y-10408227D01*
X8846639Y-10408227D02*
X8837115Y-10436798D01*
X8837115Y-10436798D02*
X8722829Y-10551084D01*
X8722829Y-10551084D02*
X8846639Y-10551084D01*
X8932353Y-10532036D02*
X8941877Y-10541560D01*
X8941877Y-10541560D02*
X8932353Y-10551084D01*
X8932353Y-10551084D02*
X8922829Y-10541560D01*
X8922829Y-10541560D02*
X8932353Y-10532036D01*
X8932353Y-10532036D02*
X8932353Y-10551084D01*
X9132353Y-10551084D02*
X9018067Y-10551084D01*
X9075210Y-10551084D02*
X9075210Y-10351084D01*
X9075210Y-10351084D02*
X9056163Y-10379655D01*
X9056163Y-10379655D02*
X9037115Y-10398703D01*
X9037115Y-10398703D02*
X9018067Y-10408227D01*
X9256163Y-10351084D02*
X9275210Y-10351084D01*
X9275210Y-10351084D02*
X9294258Y-10360608D01*
X9294258Y-10360608D02*
X9303782Y-10370131D01*
X9303782Y-10370131D02*
X9313305Y-10389179D01*
X9313305Y-10389179D02*
X9322829Y-10427274D01*
X9322829Y-10427274D02*
X9322829Y-10474893D01*
X9322829Y-10474893D02*
X9313305Y-10512989D01*
X9313305Y-10512989D02*
X9303782Y-10532036D01*
X9303782Y-10532036D02*
X9294258Y-10541560D01*
X9294258Y-10541560D02*
X9275210Y-10551084D01*
X9275210Y-10551084D02*
X9256163Y-10551084D01*
X9256163Y-10551084D02*
X9237115Y-10541560D01*
X9237115Y-10541560D02*
X9227591Y-10532036D01*
X9227591Y-10532036D02*
X9218067Y-10512989D01*
X9218067Y-10512989D02*
X9208544Y-10474893D01*
X9208544Y-10474893D02*
X9208544Y-10427274D01*
X9208544Y-10427274D02*
X9218067Y-10389179D01*
X9218067Y-10389179D02*
X9227591Y-10370131D01*
X9227591Y-10370131D02*
X9237115Y-10360608D01*
X9237115Y-10360608D02*
X9256163Y-10351084D01*
X9437115Y-10436798D02*
X9418067Y-10427274D01*
X9418067Y-10427274D02*
X9408544Y-10417750D01*
X9408544Y-10417750D02*
X9399020Y-10398703D01*
X9399020Y-10398703D02*
X9399020Y-10389179D01*
X9399020Y-10389179D02*
X9408544Y-10370131D01*
X9408544Y-10370131D02*
X9418067Y-10360608D01*
X9418067Y-10360608D02*
X9437115Y-10351084D01*
X9437115Y-10351084D02*
X9475210Y-10351084D01*
X9475210Y-10351084D02*
X9494258Y-10360608D01*
X9494258Y-10360608D02*
X9503782Y-10370131D01*
X9503782Y-10370131D02*
X9513305Y-10389179D01*
X9513305Y-10389179D02*
X9513305Y-10398703D01*
X9513305Y-10398703D02*
X9503782Y-10417750D01*
X9503782Y-10417750D02*
X9494258Y-10427274D01*
X9494258Y-10427274D02*
X9475210Y-10436798D01*
X9475210Y-10436798D02*
X9437115Y-10436798D01*
X9437115Y-10436798D02*
X9418067Y-10446322D01*
X9418067Y-10446322D02*
X9408544Y-10455846D01*
X9408544Y-10455846D02*
X9399020Y-10474893D01*
X9399020Y-10474893D02*
X9399020Y-10512989D01*
X9399020Y-10512989D02*
X9408544Y-10532036D01*
X9408544Y-10532036D02*
X9418067Y-10541560D01*
X9418067Y-10541560D02*
X9437115Y-10551084D01*
X9437115Y-10551084D02*
X9475210Y-10551084D01*
X9475210Y-10551084D02*
X9494258Y-10541560D01*
X9494258Y-10541560D02*
X9503782Y-10532036D01*
X9503782Y-10532036D02*
X9513305Y-10512989D01*
X9513305Y-10512989D02*
X9513305Y-10474893D01*
X9513305Y-10474893D02*
X9503782Y-10455846D01*
X9503782Y-10455846D02*
X9494258Y-10446322D01*
X9494258Y-10446322D02*
X9475210Y-10436798D01*
X9599020Y-10551084D02*
X9599020Y-10417750D01*
X9599020Y-10436798D02*
X9608544Y-10427274D01*
X9608544Y-10427274D02*
X9627591Y-10417750D01*
X9627591Y-10417750D02*
X9656163Y-10417750D01*
X9656163Y-10417750D02*
X9675210Y-10427274D01*
X9675210Y-10427274D02*
X9684734Y-10446322D01*
X9684734Y-10446322D02*
X9684734Y-10551084D01*
X9684734Y-10446322D02*
X9694258Y-10427274D01*
X9694258Y-10427274D02*
X9713305Y-10417750D01*
X9713305Y-10417750D02*
X9741877Y-10417750D01*
X9741877Y-10417750D02*
X9760925Y-10427274D01*
X9760925Y-10427274D02*
X9770448Y-10446322D01*
X9770448Y-10446322D02*
X9770448Y-10551084D01*
X9865686Y-10551084D02*
X9865686Y-10417750D01*
X9865686Y-10436798D02*
X9875210Y-10427274D01*
X9875210Y-10427274D02*
X9894258Y-10417750D01*
X9894258Y-10417750D02*
X9922829Y-10417750D01*
X9922829Y-10417750D02*
X9941877Y-10427274D01*
X9941877Y-10427274D02*
X9951401Y-10446322D01*
X9951401Y-10446322D02*
X9951401Y-10551084D01*
X9951401Y-10446322D02*
X9960925Y-10427274D01*
X9960925Y-10427274D02*
X9979972Y-10417750D01*
X9979972Y-10417750D02*
X10008544Y-10417750D01*
X10008544Y-10417750D02*
X10027591Y-10427274D01*
X10027591Y-10427274D02*
X10037115Y-10446322D01*
X10037115Y-10446322D02*
X10037115Y-10551084D01*
X10427591Y-10341560D02*
X10256163Y-10598703D01*
X10684734Y-10351084D02*
X10703782Y-10351084D01*
X10703782Y-10351084D02*
X10722829Y-10360608D01*
X10722829Y-10360608D02*
X10732353Y-10370131D01*
X10732353Y-10370131D02*
X10741877Y-10389179D01*
X10741877Y-10389179D02*
X10751401Y-10427274D01*
X10751401Y-10427274D02*
X10751401Y-10474893D01*
X10751401Y-10474893D02*
X10741877Y-10512989D01*
X10741877Y-10512989D02*
X10732353Y-10532036D01*
X10732353Y-10532036D02*
X10722829Y-10541560D01*
X10722829Y-10541560D02*
X10703782Y-10551084D01*
X10703782Y-10551084D02*
X10684734Y-10551084D01*
X10684734Y-10551084D02*
X10665687Y-10541560D01*
X10665687Y-10541560D02*
X10656163Y-10532036D01*
X10656163Y-10532036D02*
X10646639Y-10512989D01*
X10646639Y-10512989D02*
X10637115Y-10474893D01*
X10637115Y-10474893D02*
X10637115Y-10427274D01*
X10637115Y-10427274D02*
X10646639Y-10389179D01*
X10646639Y-10389179D02*
X10656163Y-10370131D01*
X10656163Y-10370131D02*
X10665687Y-10360608D01*
X10665687Y-10360608D02*
X10684734Y-10351084D01*
X10837115Y-10532036D02*
X10846639Y-10541560D01*
X10846639Y-10541560D02*
X10837115Y-10551084D01*
X10837115Y-10551084D02*
X10827591Y-10541560D01*
X10827591Y-10541560D02*
X10837115Y-10532036D01*
X10837115Y-10532036D02*
X10837115Y-10551084D01*
X10970448Y-10351084D02*
X10989496Y-10351084D01*
X10989496Y-10351084D02*
X11008544Y-10360608D01*
X11008544Y-10360608D02*
X11018068Y-10370131D01*
X11018068Y-10370131D02*
X11027591Y-10389179D01*
X11027591Y-10389179D02*
X11037115Y-10427274D01*
X11037115Y-10427274D02*
X11037115Y-10474893D01*
X11037115Y-10474893D02*
X11027591Y-10512989D01*
X11027591Y-10512989D02*
X11018068Y-10532036D01*
X11018068Y-10532036D02*
X11008544Y-10541560D01*
X11008544Y-10541560D02*
X10989496Y-10551084D01*
X10989496Y-10551084D02*
X10970448Y-10551084D01*
X10970448Y-10551084D02*
X10951401Y-10541560D01*
X10951401Y-10541560D02*
X10941877Y-10532036D01*
X10941877Y-10532036D02*
X10932353Y-10512989D01*
X10932353Y-10512989D02*
X10922829Y-10474893D01*
X10922829Y-10474893D02*
X10922829Y-10427274D01*
X10922829Y-10427274D02*
X10932353Y-10389179D01*
X10932353Y-10389179D02*
X10941877Y-10370131D01*
X10941877Y-10370131D02*
X10951401Y-10360608D01*
X10951401Y-10360608D02*
X10970448Y-10351084D01*
X11151401Y-10436798D02*
X11132353Y-10427274D01*
X11132353Y-10427274D02*
X11122829Y-10417750D01*
X11122829Y-10417750D02*
X11113306Y-10398703D01*
X11113306Y-10398703D02*
X11113306Y-10389179D01*
X11113306Y-10389179D02*
X11122829Y-10370131D01*
X11122829Y-10370131D02*
X11132353Y-10360608D01*
X11132353Y-10360608D02*
X11151401Y-10351084D01*
X11151401Y-10351084D02*
X11189496Y-10351084D01*
X11189496Y-10351084D02*
X11208544Y-10360608D01*
X11208544Y-10360608D02*
X11218067Y-10370131D01*
X11218067Y-10370131D02*
X11227591Y-10389179D01*
X11227591Y-10389179D02*
X11227591Y-10398703D01*
X11227591Y-10398703D02*
X11218067Y-10417750D01*
X11218067Y-10417750D02*
X11208544Y-10427274D01*
X11208544Y-10427274D02*
X11189496Y-10436798D01*
X11189496Y-10436798D02*
X11151401Y-10436798D01*
X11151401Y-10436798D02*
X11132353Y-10446322D01*
X11132353Y-10446322D02*
X11122829Y-10455846D01*
X11122829Y-10455846D02*
X11113306Y-10474893D01*
X11113306Y-10474893D02*
X11113306Y-10512989D01*
X11113306Y-10512989D02*
X11122829Y-10532036D01*
X11122829Y-10532036D02*
X11132353Y-10541560D01*
X11132353Y-10541560D02*
X11151401Y-10551084D01*
X11151401Y-10551084D02*
X11189496Y-10551084D01*
X11189496Y-10551084D02*
X11208544Y-10541560D01*
X11208544Y-10541560D02*
X11218067Y-10532036D01*
X11218067Y-10532036D02*
X11227591Y-10512989D01*
X11227591Y-10512989D02*
X11227591Y-10474893D01*
X11227591Y-10474893D02*
X11218067Y-10455846D01*
X11218067Y-10455846D02*
X11208544Y-10446322D01*
X11208544Y-10446322D02*
X11189496Y-10436798D01*
X11294258Y-10351084D02*
X11418067Y-10351084D01*
X11418067Y-10351084D02*
X11351401Y-10427274D01*
X11351401Y-10427274D02*
X11379972Y-10427274D01*
X11379972Y-10427274D02*
X11399020Y-10436798D01*
X11399020Y-10436798D02*
X11408544Y-10446322D01*
X11408544Y-10446322D02*
X11418067Y-10465370D01*
X11418067Y-10465370D02*
X11418067Y-10512989D01*
X11418067Y-10512989D02*
X11408544Y-10532036D01*
X11408544Y-10532036D02*
X11399020Y-10541560D01*
X11399020Y-10541560D02*
X11379972Y-10551084D01*
X11379972Y-10551084D02*
X11322829Y-10551084D01*
X11322829Y-10551084D02*
X11303782Y-10541560D01*
X11303782Y-10541560D02*
X11294258Y-10532036D01*
X11541877Y-10351084D02*
X11560925Y-10351084D01*
X11560925Y-10351084D02*
X11579972Y-10360608D01*
X11579972Y-10360608D02*
X11589496Y-10370131D01*
X11589496Y-10370131D02*
X11599020Y-10389179D01*
X11599020Y-10389179D02*
X11608544Y-10427274D01*
X11608544Y-10427274D02*
X11608544Y-10474893D01*
X11608544Y-10474893D02*
X11599020Y-10512989D01*
X11599020Y-10512989D02*
X11589496Y-10532036D01*
X11589496Y-10532036D02*
X11579972Y-10541560D01*
X11579972Y-10541560D02*
X11560925Y-10551084D01*
X11560925Y-10551084D02*
X11541877Y-10551084D01*
X11541877Y-10551084D02*
X11522829Y-10541560D01*
X11522829Y-10541560D02*
X11513306Y-10532036D01*
X11513306Y-10532036D02*
X11503782Y-10512989D01*
X11503782Y-10512989D02*
X11494258Y-10474893D01*
X11494258Y-10474893D02*
X11494258Y-10427274D01*
X11494258Y-10427274D02*
X11503782Y-10389179D01*
X11503782Y-10389179D02*
X11513306Y-10370131D01*
X11513306Y-10370131D02*
X11522829Y-10360608D01*
X11522829Y-10360608D02*
X11541877Y-10351084D01*
X11684734Y-10351084D02*
X11684734Y-10389179D01*
X11760925Y-10351084D02*
X11760925Y-10389179D01*
X12056163Y-10627274D02*
X12046639Y-10617750D01*
X12046639Y-10617750D02*
X12027591Y-10589179D01*
X12027591Y-10589179D02*
X12018068Y-10570131D01*
X12018068Y-10570131D02*
X12008544Y-10541560D01*
X12008544Y-10541560D02*
X11999020Y-10493941D01*
X11999020Y-10493941D02*
X11999020Y-10455846D01*
X11999020Y-10455846D02*
X12008544Y-10408227D01*
X12008544Y-10408227D02*
X12018068Y-10379655D01*
X12018068Y-10379655D02*
X12027591Y-10360608D01*
X12027591Y-10360608D02*
X12046639Y-10332036D01*
X12046639Y-10332036D02*
X12056163Y-10322512D01*
X12218068Y-10417750D02*
X12218068Y-10551084D01*
X12170448Y-10341560D02*
X12122829Y-10484417D01*
X12122829Y-10484417D02*
X12246639Y-10484417D01*
X12475210Y-10551084D02*
X12475210Y-10351084D01*
X12560925Y-10551084D02*
X12560925Y-10446322D01*
X12560925Y-10446322D02*
X12551401Y-10427274D01*
X12551401Y-10427274D02*
X12532353Y-10417750D01*
X12532353Y-10417750D02*
X12503782Y-10417750D01*
X12503782Y-10417750D02*
X12484734Y-10427274D01*
X12484734Y-10427274D02*
X12475210Y-10436798D01*
X12684734Y-10551084D02*
X12665687Y-10541560D01*
X12665687Y-10541560D02*
X12656163Y-10532036D01*
X12656163Y-10532036D02*
X12646639Y-10512989D01*
X12646639Y-10512989D02*
X12646639Y-10455846D01*
X12646639Y-10455846D02*
X12656163Y-10436798D01*
X12656163Y-10436798D02*
X12665687Y-10427274D01*
X12665687Y-10427274D02*
X12684734Y-10417750D01*
X12684734Y-10417750D02*
X12713306Y-10417750D01*
X12713306Y-10417750D02*
X12732353Y-10427274D01*
X12732353Y-10427274D02*
X12741877Y-10436798D01*
X12741877Y-10436798D02*
X12751401Y-10455846D01*
X12751401Y-10455846D02*
X12751401Y-10512989D01*
X12751401Y-10512989D02*
X12741877Y-10532036D01*
X12741877Y-10532036D02*
X12732353Y-10541560D01*
X12732353Y-10541560D02*
X12713306Y-10551084D01*
X12713306Y-10551084D02*
X12684734Y-10551084D01*
X12865687Y-10551084D02*
X12846639Y-10541560D01*
X12846639Y-10541560D02*
X12837115Y-10522512D01*
X12837115Y-10522512D02*
X12837115Y-10351084D01*
X13018068Y-10541560D02*
X12999020Y-10551084D01*
X12999020Y-10551084D02*
X12960925Y-10551084D01*
X12960925Y-10551084D02*
X12941877Y-10541560D01*
X12941877Y-10541560D02*
X12932353Y-10522512D01*
X12932353Y-10522512D02*
X12932353Y-10446322D01*
X12932353Y-10446322D02*
X12941877Y-10427274D01*
X12941877Y-10427274D02*
X12960925Y-10417750D01*
X12960925Y-10417750D02*
X12999020Y-10417750D01*
X12999020Y-10417750D02*
X13018068Y-10427274D01*
X13018068Y-10427274D02*
X13027591Y-10446322D01*
X13027591Y-10446322D02*
X13027591Y-10465370D01*
X13027591Y-10465370D02*
X12932353Y-10484417D01*
X13103782Y-10541560D02*
X13122830Y-10551084D01*
X13122830Y-10551084D02*
X13160925Y-10551084D01*
X13160925Y-10551084D02*
X13179972Y-10541560D01*
X13179972Y-10541560D02*
X13189496Y-10522512D01*
X13189496Y-10522512D02*
X13189496Y-10512989D01*
X13189496Y-10512989D02*
X13179972Y-10493941D01*
X13179972Y-10493941D02*
X13160925Y-10484417D01*
X13160925Y-10484417D02*
X13132353Y-10484417D01*
X13132353Y-10484417D02*
X13113306Y-10474893D01*
X13113306Y-10474893D02*
X13103782Y-10455846D01*
X13103782Y-10455846D02*
X13103782Y-10446322D01*
X13103782Y-10446322D02*
X13113306Y-10427274D01*
X13113306Y-10427274D02*
X13132353Y-10417750D01*
X13132353Y-10417750D02*
X13160925Y-10417750D01*
X13160925Y-10417750D02*
X13179972Y-10427274D01*
X13256163Y-10627274D02*
X13265687Y-10617750D01*
X13265687Y-10617750D02*
X13284734Y-10589179D01*
X13284734Y-10589179D02*
X13294258Y-10570131D01*
X13294258Y-10570131D02*
X13303782Y-10541560D01*
X13303782Y-10541560D02*
X13313306Y-10493941D01*
X13313306Y-10493941D02*
X13313306Y-10455846D01*
X13313306Y-10455846D02*
X13303782Y-10408227D01*
X13303782Y-10408227D02*
X13294258Y-10379655D01*
X13294258Y-10379655D02*
X13284734Y-10360608D01*
X13284734Y-10360608D02*
X13265687Y-10332036D01*
X13265687Y-10332036D02*
X13256163Y-10322512D01*
X13618068Y-10627274D02*
X13608544Y-10617750D01*
X13608544Y-10617750D02*
X13589496Y-10589179D01*
X13589496Y-10589179D02*
X13579972Y-10570131D01*
X13579972Y-10570131D02*
X13570449Y-10541560D01*
X13570449Y-10541560D02*
X13560925Y-10493941D01*
X13560925Y-10493941D02*
X13560925Y-10455846D01*
X13560925Y-10455846D02*
X13570449Y-10408227D01*
X13570449Y-10408227D02*
X13579972Y-10379655D01*
X13579972Y-10379655D02*
X13589496Y-10360608D01*
X13589496Y-10360608D02*
X13608544Y-10332036D01*
X13608544Y-10332036D02*
X13618068Y-10322512D01*
X13694258Y-10417750D02*
X13694258Y-10551084D01*
X13694258Y-10436798D02*
X13703782Y-10427274D01*
X13703782Y-10427274D02*
X13722830Y-10417750D01*
X13722830Y-10417750D02*
X13751401Y-10417750D01*
X13751401Y-10417750D02*
X13770449Y-10427274D01*
X13770449Y-10427274D02*
X13779972Y-10446322D01*
X13779972Y-10446322D02*
X13779972Y-10551084D01*
X13903782Y-10551084D02*
X13884734Y-10541560D01*
X13884734Y-10541560D02*
X13875211Y-10532036D01*
X13875211Y-10532036D02*
X13865687Y-10512989D01*
X13865687Y-10512989D02*
X13865687Y-10455846D01*
X13865687Y-10455846D02*
X13875211Y-10436798D01*
X13875211Y-10436798D02*
X13884734Y-10427274D01*
X13884734Y-10427274D02*
X13903782Y-10417750D01*
X13903782Y-10417750D02*
X13932353Y-10417750D01*
X13932353Y-10417750D02*
X13951401Y-10427274D01*
X13951401Y-10427274D02*
X13960925Y-10436798D01*
X13960925Y-10436798D02*
X13970449Y-10455846D01*
X13970449Y-10455846D02*
X13970449Y-10512989D01*
X13970449Y-10512989D02*
X13960925Y-10532036D01*
X13960925Y-10532036D02*
X13951401Y-10541560D01*
X13951401Y-10541560D02*
X13932353Y-10551084D01*
X13932353Y-10551084D02*
X13903782Y-10551084D01*
X14027592Y-10417750D02*
X14103782Y-10417750D01*
X14056163Y-10351084D02*
X14056163Y-10522512D01*
X14056163Y-10522512D02*
X14065687Y-10541560D01*
X14065687Y-10541560D02*
X14084734Y-10551084D01*
X14084734Y-10551084D02*
X14103782Y-10551084D01*
X14322830Y-10417750D02*
X14322830Y-10617750D01*
X14322830Y-10427274D02*
X14341877Y-10417750D01*
X14341877Y-10417750D02*
X14379973Y-10417750D01*
X14379973Y-10417750D02*
X14399020Y-10427274D01*
X14399020Y-10427274D02*
X14408544Y-10436798D01*
X14408544Y-10436798D02*
X14418068Y-10455846D01*
X14418068Y-10455846D02*
X14418068Y-10512989D01*
X14418068Y-10512989D02*
X14408544Y-10532036D01*
X14408544Y-10532036D02*
X14399020Y-10541560D01*
X14399020Y-10541560D02*
X14379973Y-10551084D01*
X14379973Y-10551084D02*
X14341877Y-10551084D01*
X14341877Y-10551084D02*
X14322830Y-10541560D01*
X14532353Y-10551084D02*
X14513306Y-10541560D01*
X14513306Y-10541560D02*
X14503782Y-10522512D01*
X14503782Y-10522512D02*
X14503782Y-10351084D01*
X14694258Y-10551084D02*
X14694258Y-10446322D01*
X14694258Y-10446322D02*
X14684734Y-10427274D01*
X14684734Y-10427274D02*
X14665687Y-10417750D01*
X14665687Y-10417750D02*
X14627592Y-10417750D01*
X14627592Y-10417750D02*
X14608544Y-10427274D01*
X14694258Y-10541560D02*
X14675211Y-10551084D01*
X14675211Y-10551084D02*
X14627592Y-10551084D01*
X14627592Y-10551084D02*
X14608544Y-10541560D01*
X14608544Y-10541560D02*
X14599020Y-10522512D01*
X14599020Y-10522512D02*
X14599020Y-10503465D01*
X14599020Y-10503465D02*
X14608544Y-10484417D01*
X14608544Y-10484417D02*
X14627592Y-10474893D01*
X14627592Y-10474893D02*
X14675211Y-10474893D01*
X14675211Y-10474893D02*
X14694258Y-10465370D01*
X14760925Y-10417750D02*
X14837115Y-10417750D01*
X14789496Y-10351084D02*
X14789496Y-10522512D01*
X14789496Y-10522512D02*
X14799020Y-10541560D01*
X14799020Y-10541560D02*
X14818068Y-10551084D01*
X14818068Y-10551084D02*
X14837115Y-10551084D01*
X14979973Y-10541560D02*
X14960925Y-10551084D01*
X14960925Y-10551084D02*
X14922830Y-10551084D01*
X14922830Y-10551084D02*
X14903782Y-10541560D01*
X14903782Y-10541560D02*
X14894258Y-10522512D01*
X14894258Y-10522512D02*
X14894258Y-10446322D01*
X14894258Y-10446322D02*
X14903782Y-10427274D01*
X14903782Y-10427274D02*
X14922830Y-10417750D01*
X14922830Y-10417750D02*
X14960925Y-10417750D01*
X14960925Y-10417750D02*
X14979973Y-10427274D01*
X14979973Y-10427274D02*
X14989496Y-10446322D01*
X14989496Y-10446322D02*
X14989496Y-10465370D01*
X14989496Y-10465370D02*
X14894258Y-10484417D01*
X15160925Y-10551084D02*
X15160925Y-10351084D01*
X15160925Y-10541560D02*
X15141877Y-10551084D01*
X15141877Y-10551084D02*
X15103782Y-10551084D01*
X15103782Y-10551084D02*
X15084734Y-10541560D01*
X15084734Y-10541560D02*
X15075211Y-10532036D01*
X15075211Y-10532036D02*
X15065687Y-10512989D01*
X15065687Y-10512989D02*
X15065687Y-10455846D01*
X15065687Y-10455846D02*
X15075211Y-10436798D01*
X15075211Y-10436798D02*
X15084734Y-10427274D01*
X15084734Y-10427274D02*
X15103782Y-10417750D01*
X15103782Y-10417750D02*
X15141877Y-10417750D01*
X15141877Y-10417750D02*
X15160925Y-10427274D01*
X15237115Y-10627274D02*
X15246639Y-10617750D01*
X15246639Y-10617750D02*
X15265687Y-10589179D01*
X15265687Y-10589179D02*
X15275211Y-10570131D01*
X15275211Y-10570131D02*
X15284734Y-10541560D01*
X15284734Y-10541560D02*
X15294258Y-10493941D01*
X15294258Y-10493941D02*
X15294258Y-10455846D01*
X15294258Y-10455846D02*
X15284734Y-10408227D01*
X15284734Y-10408227D02*
X15275211Y-10379655D01*
X15275211Y-10379655D02*
X15265687Y-10360608D01*
X15265687Y-10360608D02*
X15246639Y-10332036D01*
X15246639Y-10332036D02*
X15237115Y-10322512D01*
M02*
