%TF.GenerationSoftware,KiCad,Pcbnew,8.0.4*%
%TF.CreationDate,2025-12-20T23:30:38-08:00*%
%TF.ProjectId,Power_Amplifier,506f7765-725f-4416-9d70-6c6966696572,rev?*%
%TF.SameCoordinates,Original*%
%TF.FileFunction,Legend,Top*%
%TF.FilePolarity,Positive*%
%FSLAX46Y46*%
G04 Gerber Fmt 4.6, Leading zero omitted, Abs format (unit mm)*
G04 Created by KiCad (PCBNEW 8.0.4) date 2025-12-20 23:30:38*
%MOMM*%
%LPD*%
G01*
G04 APERTURE LIST*
%ADD10C,0.200000*%
%ADD11C,0.177800*%
%ADD12C,0.150000*%
%ADD13C,0.254000*%
%ADD14C,0.120000*%
%ADD15C,0.250000*%
%ADD16C,0.508000*%
G04 APERTURE END LIST*
D10*
X122682000Y-44323000D02*
X131191000Y-44323000D01*
X131191000Y-45466000D01*
X122682000Y-45466000D01*
X122682000Y-44323000D01*
G36*
X122682000Y-44323000D02*
G01*
X131191000Y-44323000D01*
X131191000Y-45466000D01*
X122682000Y-45466000D01*
X122682000Y-44323000D01*
G37*
D11*
X101009401Y-45236499D02*
X101009401Y-44474499D01*
X101009401Y-44474499D02*
X101263401Y-45018785D01*
X101263401Y-45018785D02*
X101517401Y-44474499D01*
X101517401Y-44474499D02*
X101517401Y-45236499D01*
X101989115Y-45236499D02*
X101916544Y-45200214D01*
X101916544Y-45200214D02*
X101880258Y-45163928D01*
X101880258Y-45163928D02*
X101843972Y-45091356D01*
X101843972Y-45091356D02*
X101843972Y-44873642D01*
X101843972Y-44873642D02*
X101880258Y-44801071D01*
X101880258Y-44801071D02*
X101916544Y-44764785D01*
X101916544Y-44764785D02*
X101989115Y-44728499D01*
X101989115Y-44728499D02*
X102097972Y-44728499D01*
X102097972Y-44728499D02*
X102170544Y-44764785D01*
X102170544Y-44764785D02*
X102206830Y-44801071D01*
X102206830Y-44801071D02*
X102243115Y-44873642D01*
X102243115Y-44873642D02*
X102243115Y-45091356D01*
X102243115Y-45091356D02*
X102206830Y-45163928D01*
X102206830Y-45163928D02*
X102170544Y-45200214D01*
X102170544Y-45200214D02*
X102097972Y-45236499D01*
X102097972Y-45236499D02*
X101989115Y-45236499D01*
X102569687Y-44728499D02*
X102569687Y-45236499D01*
X102569687Y-44801071D02*
X102605973Y-44764785D01*
X102605973Y-44764785D02*
X102678544Y-44728499D01*
X102678544Y-44728499D02*
X102787401Y-44728499D01*
X102787401Y-44728499D02*
X102859973Y-44764785D01*
X102859973Y-44764785D02*
X102896259Y-44837356D01*
X102896259Y-44837356D02*
X102896259Y-45236499D01*
X103150259Y-44728499D02*
X103440545Y-44728499D01*
X103259116Y-44474499D02*
X103259116Y-45127642D01*
X103259116Y-45127642D02*
X103295402Y-45200214D01*
X103295402Y-45200214D02*
X103367973Y-45236499D01*
X103367973Y-45236499D02*
X103440545Y-45236499D01*
X104275116Y-45236499D02*
X104275116Y-44474499D01*
X104275116Y-44474499D02*
X104529116Y-45018785D01*
X104529116Y-45018785D02*
X104783116Y-44474499D01*
X104783116Y-44474499D02*
X104783116Y-45236499D01*
X105472545Y-44728499D02*
X105472545Y-45236499D01*
X105145973Y-44728499D02*
X105145973Y-45127642D01*
X105145973Y-45127642D02*
X105182259Y-45200214D01*
X105182259Y-45200214D02*
X105254830Y-45236499D01*
X105254830Y-45236499D02*
X105363687Y-45236499D01*
X105363687Y-45236499D02*
X105436259Y-45200214D01*
X105436259Y-45200214D02*
X105472545Y-45163928D01*
X105835402Y-45236499D02*
X105835402Y-44728499D01*
X105835402Y-44873642D02*
X105871688Y-44801071D01*
X105871688Y-44801071D02*
X105907974Y-44764785D01*
X105907974Y-44764785D02*
X105980545Y-44728499D01*
X105980545Y-44728499D02*
X106053116Y-44728499D01*
X106633688Y-45236499D02*
X106633688Y-44837356D01*
X106633688Y-44837356D02*
X106597402Y-44764785D01*
X106597402Y-44764785D02*
X106524830Y-44728499D01*
X106524830Y-44728499D02*
X106379688Y-44728499D01*
X106379688Y-44728499D02*
X106307116Y-44764785D01*
X106633688Y-45200214D02*
X106561116Y-45236499D01*
X106561116Y-45236499D02*
X106379688Y-45236499D01*
X106379688Y-45236499D02*
X106307116Y-45200214D01*
X106307116Y-45200214D02*
X106270830Y-45127642D01*
X106270830Y-45127642D02*
X106270830Y-45055071D01*
X106270830Y-45055071D02*
X106307116Y-44982499D01*
X106307116Y-44982499D02*
X106379688Y-44946214D01*
X106379688Y-44946214D02*
X106561116Y-44946214D01*
X106561116Y-44946214D02*
X106633688Y-44909928D01*
X107323117Y-45236499D02*
X107323117Y-44474499D01*
X107323117Y-45200214D02*
X107250545Y-45236499D01*
X107250545Y-45236499D02*
X107105402Y-45236499D01*
X107105402Y-45236499D02*
X107032831Y-45200214D01*
X107032831Y-45200214D02*
X106996545Y-45163928D01*
X106996545Y-45163928D02*
X106960259Y-45091356D01*
X106960259Y-45091356D02*
X106960259Y-44873642D01*
X106960259Y-44873642D02*
X106996545Y-44801071D01*
X106996545Y-44801071D02*
X107032831Y-44764785D01*
X107032831Y-44764785D02*
X107105402Y-44728499D01*
X107105402Y-44728499D02*
X107250545Y-44728499D01*
X107250545Y-44728499D02*
X107323117Y-44764785D01*
X108447974Y-45490499D02*
X108447974Y-44401928D01*
X109572830Y-45236499D02*
X109572830Y-44474499D01*
X109572830Y-44474499D02*
X109863116Y-44474499D01*
X109863116Y-44474499D02*
X109935687Y-44510785D01*
X109935687Y-44510785D02*
X109971973Y-44547071D01*
X109971973Y-44547071D02*
X110008259Y-44619642D01*
X110008259Y-44619642D02*
X110008259Y-44728499D01*
X110008259Y-44728499D02*
X109971973Y-44801071D01*
X109971973Y-44801071D02*
X109935687Y-44837356D01*
X109935687Y-44837356D02*
X109863116Y-44873642D01*
X109863116Y-44873642D02*
X109572830Y-44873642D01*
X110298544Y-45018785D02*
X110661402Y-45018785D01*
X110225973Y-45236499D02*
X110479973Y-44474499D01*
X110479973Y-44474499D02*
X110733973Y-45236499D01*
X111749973Y-45490499D02*
X111749973Y-44401928D01*
X113310258Y-45236499D02*
X113056258Y-44873642D01*
X112874829Y-45236499D02*
X112874829Y-44474499D01*
X112874829Y-44474499D02*
X113165115Y-44474499D01*
X113165115Y-44474499D02*
X113237686Y-44510785D01*
X113237686Y-44510785D02*
X113273972Y-44547071D01*
X113273972Y-44547071D02*
X113310258Y-44619642D01*
X113310258Y-44619642D02*
X113310258Y-44728499D01*
X113310258Y-44728499D02*
X113273972Y-44801071D01*
X113273972Y-44801071D02*
X113237686Y-44837356D01*
X113237686Y-44837356D02*
X113165115Y-44873642D01*
X113165115Y-44873642D02*
X112874829Y-44873642D01*
X113636829Y-44837356D02*
X113890829Y-44837356D01*
X113999686Y-45236499D02*
X113636829Y-45236499D01*
X113636829Y-45236499D02*
X113636829Y-44474499D01*
X113636829Y-44474499D02*
X113999686Y-44474499D01*
X114217401Y-44474499D02*
X114471401Y-45236499D01*
X114471401Y-45236499D02*
X114725401Y-44474499D01*
X115705115Y-44474499D02*
X115777686Y-44474499D01*
X115777686Y-44474499D02*
X115850258Y-44510785D01*
X115850258Y-44510785D02*
X115886544Y-44547071D01*
X115886544Y-44547071D02*
X115922829Y-44619642D01*
X115922829Y-44619642D02*
X115959115Y-44764785D01*
X115959115Y-44764785D02*
X115959115Y-44946214D01*
X115959115Y-44946214D02*
X115922829Y-45091356D01*
X115922829Y-45091356D02*
X115886544Y-45163928D01*
X115886544Y-45163928D02*
X115850258Y-45200214D01*
X115850258Y-45200214D02*
X115777686Y-45236499D01*
X115777686Y-45236499D02*
X115705115Y-45236499D01*
X115705115Y-45236499D02*
X115632544Y-45200214D01*
X115632544Y-45200214D02*
X115596258Y-45163928D01*
X115596258Y-45163928D02*
X115559972Y-45091356D01*
X115559972Y-45091356D02*
X115523686Y-44946214D01*
X115523686Y-44946214D02*
X115523686Y-44764785D01*
X115523686Y-44764785D02*
X115559972Y-44619642D01*
X115559972Y-44619642D02*
X115596258Y-44547071D01*
X115596258Y-44547071D02*
X115632544Y-44510785D01*
X115632544Y-44510785D02*
X115705115Y-44474499D01*
X117047686Y-45490499D02*
X117047686Y-44401928D01*
X118136256Y-45018785D02*
X118499114Y-45018785D01*
X118063685Y-45236499D02*
X118317685Y-44474499D01*
X118317685Y-44474499D02*
X118571685Y-45236499D01*
X118789399Y-45200214D02*
X118898257Y-45236499D01*
X118898257Y-45236499D02*
X119079685Y-45236499D01*
X119079685Y-45236499D02*
X119152257Y-45200214D01*
X119152257Y-45200214D02*
X119188542Y-45163928D01*
X119188542Y-45163928D02*
X119224828Y-45091356D01*
X119224828Y-45091356D02*
X119224828Y-45018785D01*
X119224828Y-45018785D02*
X119188542Y-44946214D01*
X119188542Y-44946214D02*
X119152257Y-44909928D01*
X119152257Y-44909928D02*
X119079685Y-44873642D01*
X119079685Y-44873642D02*
X118934542Y-44837356D01*
X118934542Y-44837356D02*
X118861971Y-44801071D01*
X118861971Y-44801071D02*
X118825685Y-44764785D01*
X118825685Y-44764785D02*
X118789399Y-44692214D01*
X118789399Y-44692214D02*
X118789399Y-44619642D01*
X118789399Y-44619642D02*
X118825685Y-44547071D01*
X118825685Y-44547071D02*
X118861971Y-44510785D01*
X118861971Y-44510785D02*
X118934542Y-44474499D01*
X118934542Y-44474499D02*
X119115971Y-44474499D01*
X119115971Y-44474499D02*
X119224828Y-44510785D01*
X119515113Y-45200214D02*
X119623971Y-45236499D01*
X119623971Y-45236499D02*
X119805399Y-45236499D01*
X119805399Y-45236499D02*
X119877971Y-45200214D01*
X119877971Y-45200214D02*
X119914256Y-45163928D01*
X119914256Y-45163928D02*
X119950542Y-45091356D01*
X119950542Y-45091356D02*
X119950542Y-45018785D01*
X119950542Y-45018785D02*
X119914256Y-44946214D01*
X119914256Y-44946214D02*
X119877971Y-44909928D01*
X119877971Y-44909928D02*
X119805399Y-44873642D01*
X119805399Y-44873642D02*
X119660256Y-44837356D01*
X119660256Y-44837356D02*
X119587685Y-44801071D01*
X119587685Y-44801071D02*
X119551399Y-44764785D01*
X119551399Y-44764785D02*
X119515113Y-44692214D01*
X119515113Y-44692214D02*
X119515113Y-44619642D01*
X119515113Y-44619642D02*
X119551399Y-44547071D01*
X119551399Y-44547071D02*
X119587685Y-44510785D01*
X119587685Y-44510785D02*
X119660256Y-44474499D01*
X119660256Y-44474499D02*
X119841685Y-44474499D01*
X119841685Y-44474499D02*
X119950542Y-44510785D01*
X120277113Y-44474499D02*
X120277113Y-45091356D01*
X120277113Y-45091356D02*
X120313399Y-45163928D01*
X120313399Y-45163928D02*
X120349685Y-45200214D01*
X120349685Y-45200214D02*
X120422256Y-45236499D01*
X120422256Y-45236499D02*
X120567399Y-45236499D01*
X120567399Y-45236499D02*
X120639970Y-45200214D01*
X120639970Y-45200214D02*
X120676256Y-45163928D01*
X120676256Y-45163928D02*
X120712542Y-45091356D01*
X120712542Y-45091356D02*
X120712542Y-44474499D01*
X121075399Y-45236499D02*
X121075399Y-44474499D01*
X121075399Y-44474499D02*
X121329399Y-45018785D01*
X121329399Y-45018785D02*
X121583399Y-44474499D01*
X121583399Y-44474499D02*
X121583399Y-45236499D01*
X121946256Y-45163928D02*
X121982542Y-45200214D01*
X121982542Y-45200214D02*
X121946256Y-45236499D01*
X121946256Y-45236499D02*
X121909970Y-45200214D01*
X121909970Y-45200214D02*
X121946256Y-45163928D01*
X121946256Y-45163928D02*
X121946256Y-45236499D01*
X121946256Y-44764785D02*
X121982542Y-44801071D01*
X121982542Y-44801071D02*
X121946256Y-44837356D01*
X121946256Y-44837356D02*
X121909970Y-44801071D01*
X121909970Y-44801071D02*
X121946256Y-44764785D01*
X121946256Y-44764785D02*
X121946256Y-44837356D01*
D12*
X109725833Y-80337819D02*
X109392500Y-79861628D01*
X109154405Y-80337819D02*
X109154405Y-79337819D01*
X109154405Y-79337819D02*
X109535357Y-79337819D01*
X109535357Y-79337819D02*
X109630595Y-79385438D01*
X109630595Y-79385438D02*
X109678214Y-79433057D01*
X109678214Y-79433057D02*
X109725833Y-79528295D01*
X109725833Y-79528295D02*
X109725833Y-79671152D01*
X109725833Y-79671152D02*
X109678214Y-79766390D01*
X109678214Y-79766390D02*
X109630595Y-79814009D01*
X109630595Y-79814009D02*
X109535357Y-79861628D01*
X109535357Y-79861628D02*
X109154405Y-79861628D01*
X110582976Y-79671152D02*
X110582976Y-80337819D01*
X110344881Y-79290200D02*
X110106786Y-80004485D01*
X110106786Y-80004485D02*
X110725833Y-80004485D01*
X141271666Y-78907819D02*
X141271666Y-79622104D01*
X141271666Y-79622104D02*
X141224047Y-79764961D01*
X141224047Y-79764961D02*
X141128809Y-79860200D01*
X141128809Y-79860200D02*
X140985952Y-79907819D01*
X140985952Y-79907819D02*
X140890714Y-79907819D01*
X141652619Y-78907819D02*
X142319285Y-78907819D01*
X142319285Y-78907819D02*
X141890714Y-79907819D01*
X108188142Y-75289580D02*
X108140523Y-75337200D01*
X108140523Y-75337200D02*
X107997666Y-75384819D01*
X107997666Y-75384819D02*
X107902428Y-75384819D01*
X107902428Y-75384819D02*
X107759571Y-75337200D01*
X107759571Y-75337200D02*
X107664333Y-75241961D01*
X107664333Y-75241961D02*
X107616714Y-75146723D01*
X107616714Y-75146723D02*
X107569095Y-74956247D01*
X107569095Y-74956247D02*
X107569095Y-74813390D01*
X107569095Y-74813390D02*
X107616714Y-74622914D01*
X107616714Y-74622914D02*
X107664333Y-74527676D01*
X107664333Y-74527676D02*
X107759571Y-74432438D01*
X107759571Y-74432438D02*
X107902428Y-74384819D01*
X107902428Y-74384819D02*
X107997666Y-74384819D01*
X107997666Y-74384819D02*
X108140523Y-74432438D01*
X108140523Y-74432438D02*
X108188142Y-74480057D01*
X109140523Y-75384819D02*
X108569095Y-75384819D01*
X108854809Y-75384819D02*
X108854809Y-74384819D01*
X108854809Y-74384819D02*
X108759571Y-74527676D01*
X108759571Y-74527676D02*
X108664333Y-74622914D01*
X108664333Y-74622914D02*
X108569095Y-74670533D01*
X110045285Y-74384819D02*
X109569095Y-74384819D01*
X109569095Y-74384819D02*
X109521476Y-74861009D01*
X109521476Y-74861009D02*
X109569095Y-74813390D01*
X109569095Y-74813390D02*
X109664333Y-74765771D01*
X109664333Y-74765771D02*
X109902428Y-74765771D01*
X109902428Y-74765771D02*
X109997666Y-74813390D01*
X109997666Y-74813390D02*
X110045285Y-74861009D01*
X110045285Y-74861009D02*
X110092904Y-74956247D01*
X110092904Y-74956247D02*
X110092904Y-75194342D01*
X110092904Y-75194342D02*
X110045285Y-75289580D01*
X110045285Y-75289580D02*
X109997666Y-75337200D01*
X109997666Y-75337200D02*
X109902428Y-75384819D01*
X109902428Y-75384819D02*
X109664333Y-75384819D01*
X109664333Y-75384819D02*
X109569095Y-75337200D01*
X109569095Y-75337200D02*
X109521476Y-75289580D01*
X108153833Y-62208580D02*
X108106214Y-62256200D01*
X108106214Y-62256200D02*
X107963357Y-62303819D01*
X107963357Y-62303819D02*
X107868119Y-62303819D01*
X107868119Y-62303819D02*
X107725262Y-62256200D01*
X107725262Y-62256200D02*
X107630024Y-62160961D01*
X107630024Y-62160961D02*
X107582405Y-62065723D01*
X107582405Y-62065723D02*
X107534786Y-61875247D01*
X107534786Y-61875247D02*
X107534786Y-61732390D01*
X107534786Y-61732390D02*
X107582405Y-61541914D01*
X107582405Y-61541914D02*
X107630024Y-61446676D01*
X107630024Y-61446676D02*
X107725262Y-61351438D01*
X107725262Y-61351438D02*
X107868119Y-61303819D01*
X107868119Y-61303819D02*
X107963357Y-61303819D01*
X107963357Y-61303819D02*
X108106214Y-61351438D01*
X108106214Y-61351438D02*
X108153833Y-61399057D01*
X108630024Y-62303819D02*
X108820500Y-62303819D01*
X108820500Y-62303819D02*
X108915738Y-62256200D01*
X108915738Y-62256200D02*
X108963357Y-62208580D01*
X108963357Y-62208580D02*
X109058595Y-62065723D01*
X109058595Y-62065723D02*
X109106214Y-61875247D01*
X109106214Y-61875247D02*
X109106214Y-61494295D01*
X109106214Y-61494295D02*
X109058595Y-61399057D01*
X109058595Y-61399057D02*
X109010976Y-61351438D01*
X109010976Y-61351438D02*
X108915738Y-61303819D01*
X108915738Y-61303819D02*
X108725262Y-61303819D01*
X108725262Y-61303819D02*
X108630024Y-61351438D01*
X108630024Y-61351438D02*
X108582405Y-61399057D01*
X108582405Y-61399057D02*
X108534786Y-61494295D01*
X108534786Y-61494295D02*
X108534786Y-61732390D01*
X108534786Y-61732390D02*
X108582405Y-61827628D01*
X108582405Y-61827628D02*
X108630024Y-61875247D01*
X108630024Y-61875247D02*
X108725262Y-61922866D01*
X108725262Y-61922866D02*
X108915738Y-61922866D01*
X108915738Y-61922866D02*
X109010976Y-61875247D01*
X109010976Y-61875247D02*
X109058595Y-61827628D01*
X109058595Y-61827628D02*
X109106214Y-61732390D01*
X130148819Y-73064666D02*
X129672628Y-73397999D01*
X130148819Y-73636094D02*
X129148819Y-73636094D01*
X129148819Y-73636094D02*
X129148819Y-73255142D01*
X129148819Y-73255142D02*
X129196438Y-73159904D01*
X129196438Y-73159904D02*
X129244057Y-73112285D01*
X129244057Y-73112285D02*
X129339295Y-73064666D01*
X129339295Y-73064666D02*
X129482152Y-73064666D01*
X129482152Y-73064666D02*
X129577390Y-73112285D01*
X129577390Y-73112285D02*
X129625009Y-73159904D01*
X129625009Y-73159904D02*
X129672628Y-73255142D01*
X129672628Y-73255142D02*
X129672628Y-73636094D01*
X130148819Y-72112285D02*
X130148819Y-72683713D01*
X130148819Y-72397999D02*
X129148819Y-72397999D01*
X129148819Y-72397999D02*
X129291676Y-72493237D01*
X129291676Y-72493237D02*
X129386914Y-72588475D01*
X129386914Y-72588475D02*
X129434533Y-72683713D01*
X108223833Y-60430580D02*
X108176214Y-60478200D01*
X108176214Y-60478200D02*
X108033357Y-60525819D01*
X108033357Y-60525819D02*
X107938119Y-60525819D01*
X107938119Y-60525819D02*
X107795262Y-60478200D01*
X107795262Y-60478200D02*
X107700024Y-60382961D01*
X107700024Y-60382961D02*
X107652405Y-60287723D01*
X107652405Y-60287723D02*
X107604786Y-60097247D01*
X107604786Y-60097247D02*
X107604786Y-59954390D01*
X107604786Y-59954390D02*
X107652405Y-59763914D01*
X107652405Y-59763914D02*
X107700024Y-59668676D01*
X107700024Y-59668676D02*
X107795262Y-59573438D01*
X107795262Y-59573438D02*
X107938119Y-59525819D01*
X107938119Y-59525819D02*
X108033357Y-59525819D01*
X108033357Y-59525819D02*
X108176214Y-59573438D01*
X108176214Y-59573438D02*
X108223833Y-59621057D01*
X109176214Y-60525819D02*
X108604786Y-60525819D01*
X108890500Y-60525819D02*
X108890500Y-59525819D01*
X108890500Y-59525819D02*
X108795262Y-59668676D01*
X108795262Y-59668676D02*
X108700024Y-59763914D01*
X108700024Y-59763914D02*
X108604786Y-59811533D01*
D13*
X116108237Y-63693318D02*
X116108237Y-62423318D01*
X117438714Y-63572365D02*
X117378238Y-63632842D01*
X117378238Y-63632842D02*
X117196809Y-63693318D01*
X117196809Y-63693318D02*
X117075857Y-63693318D01*
X117075857Y-63693318D02*
X116894428Y-63632842D01*
X116894428Y-63632842D02*
X116773476Y-63511889D01*
X116773476Y-63511889D02*
X116712999Y-63390937D01*
X116712999Y-63390937D02*
X116652523Y-63149032D01*
X116652523Y-63149032D02*
X116652523Y-62967603D01*
X116652523Y-62967603D02*
X116712999Y-62725699D01*
X116712999Y-62725699D02*
X116773476Y-62604746D01*
X116773476Y-62604746D02*
X116894428Y-62483794D01*
X116894428Y-62483794D02*
X117075857Y-62423318D01*
X117075857Y-62423318D02*
X117196809Y-62423318D01*
X117196809Y-62423318D02*
X117378238Y-62483794D01*
X117378238Y-62483794D02*
X117438714Y-62544270D01*
X118648238Y-63693318D02*
X117922523Y-63693318D01*
X118285380Y-63693318D02*
X118285380Y-62423318D01*
X118285380Y-62423318D02*
X118164428Y-62604746D01*
X118164428Y-62604746D02*
X118043476Y-62725699D01*
X118043476Y-62725699D02*
X117922523Y-62786175D01*
D12*
X113149142Y-59414580D02*
X113101523Y-59462200D01*
X113101523Y-59462200D02*
X112958666Y-59509819D01*
X112958666Y-59509819D02*
X112863428Y-59509819D01*
X112863428Y-59509819D02*
X112720571Y-59462200D01*
X112720571Y-59462200D02*
X112625333Y-59366961D01*
X112625333Y-59366961D02*
X112577714Y-59271723D01*
X112577714Y-59271723D02*
X112530095Y-59081247D01*
X112530095Y-59081247D02*
X112530095Y-58938390D01*
X112530095Y-58938390D02*
X112577714Y-58747914D01*
X112577714Y-58747914D02*
X112625333Y-58652676D01*
X112625333Y-58652676D02*
X112720571Y-58557438D01*
X112720571Y-58557438D02*
X112863428Y-58509819D01*
X112863428Y-58509819D02*
X112958666Y-58509819D01*
X112958666Y-58509819D02*
X113101523Y-58557438D01*
X113101523Y-58557438D02*
X113149142Y-58605057D01*
X114101523Y-59509819D02*
X113530095Y-59509819D01*
X113815809Y-59509819D02*
X113815809Y-58509819D01*
X113815809Y-58509819D02*
X113720571Y-58652676D01*
X113720571Y-58652676D02*
X113625333Y-58747914D01*
X113625333Y-58747914D02*
X113530095Y-58795533D01*
X114720571Y-58509819D02*
X114815809Y-58509819D01*
X114815809Y-58509819D02*
X114911047Y-58557438D01*
X114911047Y-58557438D02*
X114958666Y-58605057D01*
X114958666Y-58605057D02*
X115006285Y-58700295D01*
X115006285Y-58700295D02*
X115053904Y-58890771D01*
X115053904Y-58890771D02*
X115053904Y-59128866D01*
X115053904Y-59128866D02*
X115006285Y-59319342D01*
X115006285Y-59319342D02*
X114958666Y-59414580D01*
X114958666Y-59414580D02*
X114911047Y-59462200D01*
X114911047Y-59462200D02*
X114815809Y-59509819D01*
X114815809Y-59509819D02*
X114720571Y-59509819D01*
X114720571Y-59509819D02*
X114625333Y-59462200D01*
X114625333Y-59462200D02*
X114577714Y-59414580D01*
X114577714Y-59414580D02*
X114530095Y-59319342D01*
X114530095Y-59319342D02*
X114482476Y-59128866D01*
X114482476Y-59128866D02*
X114482476Y-58890771D01*
X114482476Y-58890771D02*
X114530095Y-58700295D01*
X114530095Y-58700295D02*
X114577714Y-58605057D01*
X114577714Y-58605057D02*
X114625333Y-58557438D01*
X114625333Y-58557438D02*
X114720571Y-58509819D01*
X115617666Y-88227819D02*
X115617666Y-88942104D01*
X115617666Y-88942104D02*
X115570047Y-89084961D01*
X115570047Y-89084961D02*
X115474809Y-89180200D01*
X115474809Y-89180200D02*
X115331952Y-89227819D01*
X115331952Y-89227819D02*
X115236714Y-89227819D01*
X115998619Y-88227819D02*
X116617666Y-88227819D01*
X116617666Y-88227819D02*
X116284333Y-88608771D01*
X116284333Y-88608771D02*
X116427190Y-88608771D01*
X116427190Y-88608771D02*
X116522428Y-88656390D01*
X116522428Y-88656390D02*
X116570047Y-88704009D01*
X116570047Y-88704009D02*
X116617666Y-88799247D01*
X116617666Y-88799247D02*
X116617666Y-89037342D01*
X116617666Y-89037342D02*
X116570047Y-89132580D01*
X116570047Y-89132580D02*
X116522428Y-89180200D01*
X116522428Y-89180200D02*
X116427190Y-89227819D01*
X116427190Y-89227819D02*
X116141476Y-89227819D01*
X116141476Y-89227819D02*
X116046238Y-89180200D01*
X116046238Y-89180200D02*
X115998619Y-89132580D01*
X129079666Y-94069819D02*
X129079666Y-94784104D01*
X129079666Y-94784104D02*
X129032047Y-94926961D01*
X129032047Y-94926961D02*
X128936809Y-95022200D01*
X128936809Y-95022200D02*
X128793952Y-95069819D01*
X128793952Y-95069819D02*
X128698714Y-95069819D01*
X130032047Y-94069819D02*
X129555857Y-94069819D01*
X129555857Y-94069819D02*
X129508238Y-94546009D01*
X129508238Y-94546009D02*
X129555857Y-94498390D01*
X129555857Y-94498390D02*
X129651095Y-94450771D01*
X129651095Y-94450771D02*
X129889190Y-94450771D01*
X129889190Y-94450771D02*
X129984428Y-94498390D01*
X129984428Y-94498390D02*
X130032047Y-94546009D01*
X130032047Y-94546009D02*
X130079666Y-94641247D01*
X130079666Y-94641247D02*
X130079666Y-94879342D01*
X130079666Y-94879342D02*
X130032047Y-94974580D01*
X130032047Y-94974580D02*
X129984428Y-95022200D01*
X129984428Y-95022200D02*
X129889190Y-95069819D01*
X129889190Y-95069819D02*
X129651095Y-95069819D01*
X129651095Y-95069819D02*
X129555857Y-95022200D01*
X129555857Y-95022200D02*
X129508238Y-94974580D01*
X129532142Y-83815580D02*
X129484523Y-83863200D01*
X129484523Y-83863200D02*
X129341666Y-83910819D01*
X129341666Y-83910819D02*
X129246428Y-83910819D01*
X129246428Y-83910819D02*
X129103571Y-83863200D01*
X129103571Y-83863200D02*
X129008333Y-83767961D01*
X129008333Y-83767961D02*
X128960714Y-83672723D01*
X128960714Y-83672723D02*
X128913095Y-83482247D01*
X128913095Y-83482247D02*
X128913095Y-83339390D01*
X128913095Y-83339390D02*
X128960714Y-83148914D01*
X128960714Y-83148914D02*
X129008333Y-83053676D01*
X129008333Y-83053676D02*
X129103571Y-82958438D01*
X129103571Y-82958438D02*
X129246428Y-82910819D01*
X129246428Y-82910819D02*
X129341666Y-82910819D01*
X129341666Y-82910819D02*
X129484523Y-82958438D01*
X129484523Y-82958438D02*
X129532142Y-83006057D01*
X130484523Y-83910819D02*
X129913095Y-83910819D01*
X130198809Y-83910819D02*
X130198809Y-82910819D01*
X130198809Y-82910819D02*
X130103571Y-83053676D01*
X130103571Y-83053676D02*
X130008333Y-83148914D01*
X130008333Y-83148914D02*
X129913095Y-83196533D01*
X131055952Y-83339390D02*
X130960714Y-83291771D01*
X130960714Y-83291771D02*
X130913095Y-83244152D01*
X130913095Y-83244152D02*
X130865476Y-83148914D01*
X130865476Y-83148914D02*
X130865476Y-83101295D01*
X130865476Y-83101295D02*
X130913095Y-83006057D01*
X130913095Y-83006057D02*
X130960714Y-82958438D01*
X130960714Y-82958438D02*
X131055952Y-82910819D01*
X131055952Y-82910819D02*
X131246428Y-82910819D01*
X131246428Y-82910819D02*
X131341666Y-82958438D01*
X131341666Y-82958438D02*
X131389285Y-83006057D01*
X131389285Y-83006057D02*
X131436904Y-83101295D01*
X131436904Y-83101295D02*
X131436904Y-83148914D01*
X131436904Y-83148914D02*
X131389285Y-83244152D01*
X131389285Y-83244152D02*
X131341666Y-83291771D01*
X131341666Y-83291771D02*
X131246428Y-83339390D01*
X131246428Y-83339390D02*
X131055952Y-83339390D01*
X131055952Y-83339390D02*
X130960714Y-83387009D01*
X130960714Y-83387009D02*
X130913095Y-83434628D01*
X130913095Y-83434628D02*
X130865476Y-83529866D01*
X130865476Y-83529866D02*
X130865476Y-83720342D01*
X130865476Y-83720342D02*
X130913095Y-83815580D01*
X130913095Y-83815580D02*
X130960714Y-83863200D01*
X130960714Y-83863200D02*
X131055952Y-83910819D01*
X131055952Y-83910819D02*
X131246428Y-83910819D01*
X131246428Y-83910819D02*
X131341666Y-83863200D01*
X131341666Y-83863200D02*
X131389285Y-83815580D01*
X131389285Y-83815580D02*
X131436904Y-83720342D01*
X131436904Y-83720342D02*
X131436904Y-83529866D01*
X131436904Y-83529866D02*
X131389285Y-83434628D01*
X131389285Y-83434628D02*
X131341666Y-83387009D01*
X131341666Y-83387009D02*
X131246428Y-83339390D01*
X120677833Y-58906580D02*
X120630214Y-58954200D01*
X120630214Y-58954200D02*
X120487357Y-59001819D01*
X120487357Y-59001819D02*
X120392119Y-59001819D01*
X120392119Y-59001819D02*
X120249262Y-58954200D01*
X120249262Y-58954200D02*
X120154024Y-58858961D01*
X120154024Y-58858961D02*
X120106405Y-58763723D01*
X120106405Y-58763723D02*
X120058786Y-58573247D01*
X120058786Y-58573247D02*
X120058786Y-58430390D01*
X120058786Y-58430390D02*
X120106405Y-58239914D01*
X120106405Y-58239914D02*
X120154024Y-58144676D01*
X120154024Y-58144676D02*
X120249262Y-58049438D01*
X120249262Y-58049438D02*
X120392119Y-58001819D01*
X120392119Y-58001819D02*
X120487357Y-58001819D01*
X120487357Y-58001819D02*
X120630214Y-58049438D01*
X120630214Y-58049438D02*
X120677833Y-58097057D01*
X121011167Y-58001819D02*
X121630214Y-58001819D01*
X121630214Y-58001819D02*
X121296881Y-58382771D01*
X121296881Y-58382771D02*
X121439738Y-58382771D01*
X121439738Y-58382771D02*
X121534976Y-58430390D01*
X121534976Y-58430390D02*
X121582595Y-58478009D01*
X121582595Y-58478009D02*
X121630214Y-58573247D01*
X121630214Y-58573247D02*
X121630214Y-58811342D01*
X121630214Y-58811342D02*
X121582595Y-58906580D01*
X121582595Y-58906580D02*
X121534976Y-58954200D01*
X121534976Y-58954200D02*
X121439738Y-59001819D01*
X121439738Y-59001819D02*
X121154024Y-59001819D01*
X121154024Y-59001819D02*
X121058786Y-58954200D01*
X121058786Y-58954200D02*
X121011167Y-58906580D01*
X113752333Y-63097580D02*
X113704714Y-63145200D01*
X113704714Y-63145200D02*
X113561857Y-63192819D01*
X113561857Y-63192819D02*
X113466619Y-63192819D01*
X113466619Y-63192819D02*
X113323762Y-63145200D01*
X113323762Y-63145200D02*
X113228524Y-63049961D01*
X113228524Y-63049961D02*
X113180905Y-62954723D01*
X113180905Y-62954723D02*
X113133286Y-62764247D01*
X113133286Y-62764247D02*
X113133286Y-62621390D01*
X113133286Y-62621390D02*
X113180905Y-62430914D01*
X113180905Y-62430914D02*
X113228524Y-62335676D01*
X113228524Y-62335676D02*
X113323762Y-62240438D01*
X113323762Y-62240438D02*
X113466619Y-62192819D01*
X113466619Y-62192819D02*
X113561857Y-62192819D01*
X113561857Y-62192819D02*
X113704714Y-62240438D01*
X113704714Y-62240438D02*
X113752333Y-62288057D01*
X114133286Y-62288057D02*
X114180905Y-62240438D01*
X114180905Y-62240438D02*
X114276143Y-62192819D01*
X114276143Y-62192819D02*
X114514238Y-62192819D01*
X114514238Y-62192819D02*
X114609476Y-62240438D01*
X114609476Y-62240438D02*
X114657095Y-62288057D01*
X114657095Y-62288057D02*
X114704714Y-62383295D01*
X114704714Y-62383295D02*
X114704714Y-62478533D01*
X114704714Y-62478533D02*
X114657095Y-62621390D01*
X114657095Y-62621390D02*
X114085667Y-63192819D01*
X114085667Y-63192819D02*
X114704714Y-63192819D01*
X112101333Y-56461819D02*
X111625143Y-56461819D01*
X111625143Y-56461819D02*
X111625143Y-55461819D01*
X112958476Y-56461819D02*
X112387048Y-56461819D01*
X112672762Y-56461819D02*
X112672762Y-55461819D01*
X112672762Y-55461819D02*
X112577524Y-55604676D01*
X112577524Y-55604676D02*
X112482286Y-55699914D01*
X112482286Y-55699914D02*
X112387048Y-55747533D01*
X119499142Y-56819580D02*
X119451523Y-56867200D01*
X119451523Y-56867200D02*
X119308666Y-56914819D01*
X119308666Y-56914819D02*
X119213428Y-56914819D01*
X119213428Y-56914819D02*
X119070571Y-56867200D01*
X119070571Y-56867200D02*
X118975333Y-56771961D01*
X118975333Y-56771961D02*
X118927714Y-56676723D01*
X118927714Y-56676723D02*
X118880095Y-56486247D01*
X118880095Y-56486247D02*
X118880095Y-56343390D01*
X118880095Y-56343390D02*
X118927714Y-56152914D01*
X118927714Y-56152914D02*
X118975333Y-56057676D01*
X118975333Y-56057676D02*
X119070571Y-55962438D01*
X119070571Y-55962438D02*
X119213428Y-55914819D01*
X119213428Y-55914819D02*
X119308666Y-55914819D01*
X119308666Y-55914819D02*
X119451523Y-55962438D01*
X119451523Y-55962438D02*
X119499142Y-56010057D01*
X120451523Y-56914819D02*
X119880095Y-56914819D01*
X120165809Y-56914819D02*
X120165809Y-55914819D01*
X120165809Y-55914819D02*
X120070571Y-56057676D01*
X120070571Y-56057676D02*
X119975333Y-56152914D01*
X119975333Y-56152914D02*
X119880095Y-56200533D01*
X120784857Y-55914819D02*
X121451523Y-55914819D01*
X121451523Y-55914819D02*
X121022952Y-56914819D01*
X148891666Y-70193819D02*
X148891666Y-70908104D01*
X148891666Y-70908104D02*
X148844047Y-71050961D01*
X148844047Y-71050961D02*
X148748809Y-71146200D01*
X148748809Y-71146200D02*
X148605952Y-71193819D01*
X148605952Y-71193819D02*
X148510714Y-71193819D01*
X149510714Y-70622390D02*
X149415476Y-70574771D01*
X149415476Y-70574771D02*
X149367857Y-70527152D01*
X149367857Y-70527152D02*
X149320238Y-70431914D01*
X149320238Y-70431914D02*
X149320238Y-70384295D01*
X149320238Y-70384295D02*
X149367857Y-70289057D01*
X149367857Y-70289057D02*
X149415476Y-70241438D01*
X149415476Y-70241438D02*
X149510714Y-70193819D01*
X149510714Y-70193819D02*
X149701190Y-70193819D01*
X149701190Y-70193819D02*
X149796428Y-70241438D01*
X149796428Y-70241438D02*
X149844047Y-70289057D01*
X149844047Y-70289057D02*
X149891666Y-70384295D01*
X149891666Y-70384295D02*
X149891666Y-70431914D01*
X149891666Y-70431914D02*
X149844047Y-70527152D01*
X149844047Y-70527152D02*
X149796428Y-70574771D01*
X149796428Y-70574771D02*
X149701190Y-70622390D01*
X149701190Y-70622390D02*
X149510714Y-70622390D01*
X149510714Y-70622390D02*
X149415476Y-70670009D01*
X149415476Y-70670009D02*
X149367857Y-70717628D01*
X149367857Y-70717628D02*
X149320238Y-70812866D01*
X149320238Y-70812866D02*
X149320238Y-71003342D01*
X149320238Y-71003342D02*
X149367857Y-71098580D01*
X149367857Y-71098580D02*
X149415476Y-71146200D01*
X149415476Y-71146200D02*
X149510714Y-71193819D01*
X149510714Y-71193819D02*
X149701190Y-71193819D01*
X149701190Y-71193819D02*
X149796428Y-71146200D01*
X149796428Y-71146200D02*
X149844047Y-71098580D01*
X149844047Y-71098580D02*
X149891666Y-71003342D01*
X149891666Y-71003342D02*
X149891666Y-70812866D01*
X149891666Y-70812866D02*
X149844047Y-70717628D01*
X149844047Y-70717628D02*
X149796428Y-70670009D01*
X149796428Y-70670009D02*
X149701190Y-70622390D01*
X124900642Y-75670580D02*
X124853023Y-75718200D01*
X124853023Y-75718200D02*
X124710166Y-75765819D01*
X124710166Y-75765819D02*
X124614928Y-75765819D01*
X124614928Y-75765819D02*
X124472071Y-75718200D01*
X124472071Y-75718200D02*
X124376833Y-75622961D01*
X124376833Y-75622961D02*
X124329214Y-75527723D01*
X124329214Y-75527723D02*
X124281595Y-75337247D01*
X124281595Y-75337247D02*
X124281595Y-75194390D01*
X124281595Y-75194390D02*
X124329214Y-75003914D01*
X124329214Y-75003914D02*
X124376833Y-74908676D01*
X124376833Y-74908676D02*
X124472071Y-74813438D01*
X124472071Y-74813438D02*
X124614928Y-74765819D01*
X124614928Y-74765819D02*
X124710166Y-74765819D01*
X124710166Y-74765819D02*
X124853023Y-74813438D01*
X124853023Y-74813438D02*
X124900642Y-74861057D01*
X125853023Y-75765819D02*
X125281595Y-75765819D01*
X125567309Y-75765819D02*
X125567309Y-74765819D01*
X125567309Y-74765819D02*
X125472071Y-74908676D01*
X125472071Y-74908676D02*
X125376833Y-75003914D01*
X125376833Y-75003914D02*
X125281595Y-75051533D01*
X126233976Y-74861057D02*
X126281595Y-74813438D01*
X126281595Y-74813438D02*
X126376833Y-74765819D01*
X126376833Y-74765819D02*
X126614928Y-74765819D01*
X126614928Y-74765819D02*
X126710166Y-74813438D01*
X126710166Y-74813438D02*
X126757785Y-74861057D01*
X126757785Y-74861057D02*
X126805404Y-74956295D01*
X126805404Y-74956295D02*
X126805404Y-75051533D01*
X126805404Y-75051533D02*
X126757785Y-75194390D01*
X126757785Y-75194390D02*
X126186357Y-75765819D01*
X126186357Y-75765819D02*
X126805404Y-75765819D01*
X124995833Y-76940580D02*
X124948214Y-76988200D01*
X124948214Y-76988200D02*
X124805357Y-77035819D01*
X124805357Y-77035819D02*
X124710119Y-77035819D01*
X124710119Y-77035819D02*
X124567262Y-76988200D01*
X124567262Y-76988200D02*
X124472024Y-76892961D01*
X124472024Y-76892961D02*
X124424405Y-76797723D01*
X124424405Y-76797723D02*
X124376786Y-76607247D01*
X124376786Y-76607247D02*
X124376786Y-76464390D01*
X124376786Y-76464390D02*
X124424405Y-76273914D01*
X124424405Y-76273914D02*
X124472024Y-76178676D01*
X124472024Y-76178676D02*
X124567262Y-76083438D01*
X124567262Y-76083438D02*
X124710119Y-76035819D01*
X124710119Y-76035819D02*
X124805357Y-76035819D01*
X124805357Y-76035819D02*
X124948214Y-76083438D01*
X124948214Y-76083438D02*
X124995833Y-76131057D01*
X125852976Y-76369152D02*
X125852976Y-77035819D01*
X125614881Y-75988200D02*
X125376786Y-76702485D01*
X125376786Y-76702485D02*
X125995833Y-76702485D01*
X91106666Y-71971819D02*
X91106666Y-72686104D01*
X91106666Y-72686104D02*
X91059047Y-72828961D01*
X91059047Y-72828961D02*
X90963809Y-72924200D01*
X90963809Y-72924200D02*
X90820952Y-72971819D01*
X90820952Y-72971819D02*
X90725714Y-72971819D01*
X92106666Y-72971819D02*
X91535238Y-72971819D01*
X91820952Y-72971819D02*
X91820952Y-71971819D01*
X91820952Y-71971819D02*
X91725714Y-72114676D01*
X91725714Y-72114676D02*
X91630476Y-72209914D01*
X91630476Y-72209914D02*
X91535238Y-72257533D01*
X119372142Y-74273580D02*
X119324523Y-74321200D01*
X119324523Y-74321200D02*
X119181666Y-74368819D01*
X119181666Y-74368819D02*
X119086428Y-74368819D01*
X119086428Y-74368819D02*
X118943571Y-74321200D01*
X118943571Y-74321200D02*
X118848333Y-74225961D01*
X118848333Y-74225961D02*
X118800714Y-74130723D01*
X118800714Y-74130723D02*
X118753095Y-73940247D01*
X118753095Y-73940247D02*
X118753095Y-73797390D01*
X118753095Y-73797390D02*
X118800714Y-73606914D01*
X118800714Y-73606914D02*
X118848333Y-73511676D01*
X118848333Y-73511676D02*
X118943571Y-73416438D01*
X118943571Y-73416438D02*
X119086428Y-73368819D01*
X119086428Y-73368819D02*
X119181666Y-73368819D01*
X119181666Y-73368819D02*
X119324523Y-73416438D01*
X119324523Y-73416438D02*
X119372142Y-73464057D01*
X120324523Y-74368819D02*
X119753095Y-74368819D01*
X120038809Y-74368819D02*
X120038809Y-73368819D01*
X120038809Y-73368819D02*
X119943571Y-73511676D01*
X119943571Y-73511676D02*
X119848333Y-73606914D01*
X119848333Y-73606914D02*
X119753095Y-73654533D01*
X120657857Y-73368819D02*
X121276904Y-73368819D01*
X121276904Y-73368819D02*
X120943571Y-73749771D01*
X120943571Y-73749771D02*
X121086428Y-73749771D01*
X121086428Y-73749771D02*
X121181666Y-73797390D01*
X121181666Y-73797390D02*
X121229285Y-73845009D01*
X121229285Y-73845009D02*
X121276904Y-73940247D01*
X121276904Y-73940247D02*
X121276904Y-74178342D01*
X121276904Y-74178342D02*
X121229285Y-74273580D01*
X121229285Y-74273580D02*
X121181666Y-74321200D01*
X121181666Y-74321200D02*
X121086428Y-74368819D01*
X121086428Y-74368819D02*
X120800714Y-74368819D01*
X120800714Y-74368819D02*
X120705476Y-74321200D01*
X120705476Y-74321200D02*
X120657857Y-74273580D01*
X102540642Y-74146580D02*
X102493023Y-74194200D01*
X102493023Y-74194200D02*
X102350166Y-74241819D01*
X102350166Y-74241819D02*
X102254928Y-74241819D01*
X102254928Y-74241819D02*
X102112071Y-74194200D01*
X102112071Y-74194200D02*
X102016833Y-74098961D01*
X102016833Y-74098961D02*
X101969214Y-74003723D01*
X101969214Y-74003723D02*
X101921595Y-73813247D01*
X101921595Y-73813247D02*
X101921595Y-73670390D01*
X101921595Y-73670390D02*
X101969214Y-73479914D01*
X101969214Y-73479914D02*
X102016833Y-73384676D01*
X102016833Y-73384676D02*
X102112071Y-73289438D01*
X102112071Y-73289438D02*
X102254928Y-73241819D01*
X102254928Y-73241819D02*
X102350166Y-73241819D01*
X102350166Y-73241819D02*
X102493023Y-73289438D01*
X102493023Y-73289438D02*
X102540642Y-73337057D01*
X103493023Y-74241819D02*
X102921595Y-74241819D01*
X103207309Y-74241819D02*
X103207309Y-73241819D01*
X103207309Y-73241819D02*
X103112071Y-73384676D01*
X103112071Y-73384676D02*
X103016833Y-73479914D01*
X103016833Y-73479914D02*
X102921595Y-73527533D01*
X104350166Y-73241819D02*
X104159690Y-73241819D01*
X104159690Y-73241819D02*
X104064452Y-73289438D01*
X104064452Y-73289438D02*
X104016833Y-73337057D01*
X104016833Y-73337057D02*
X103921595Y-73479914D01*
X103921595Y-73479914D02*
X103873976Y-73670390D01*
X103873976Y-73670390D02*
X103873976Y-74051342D01*
X103873976Y-74051342D02*
X103921595Y-74146580D01*
X103921595Y-74146580D02*
X103969214Y-74194200D01*
X103969214Y-74194200D02*
X104064452Y-74241819D01*
X104064452Y-74241819D02*
X104254928Y-74241819D01*
X104254928Y-74241819D02*
X104350166Y-74194200D01*
X104350166Y-74194200D02*
X104397785Y-74146580D01*
X104397785Y-74146580D02*
X104445404Y-74051342D01*
X104445404Y-74051342D02*
X104445404Y-73813247D01*
X104445404Y-73813247D02*
X104397785Y-73718009D01*
X104397785Y-73718009D02*
X104350166Y-73670390D01*
X104350166Y-73670390D02*
X104254928Y-73622771D01*
X104254928Y-73622771D02*
X104064452Y-73622771D01*
X104064452Y-73622771D02*
X103969214Y-73670390D01*
X103969214Y-73670390D02*
X103921595Y-73718009D01*
X103921595Y-73718009D02*
X103873976Y-73813247D01*
X115276333Y-56561819D02*
X114800143Y-56561819D01*
X114800143Y-56561819D02*
X114800143Y-55561819D01*
X115562048Y-55657057D02*
X115609667Y-55609438D01*
X115609667Y-55609438D02*
X115704905Y-55561819D01*
X115704905Y-55561819D02*
X115943000Y-55561819D01*
X115943000Y-55561819D02*
X116038238Y-55609438D01*
X116038238Y-55609438D02*
X116085857Y-55657057D01*
X116085857Y-55657057D02*
X116133476Y-55752295D01*
X116133476Y-55752295D02*
X116133476Y-55847533D01*
X116133476Y-55847533D02*
X116085857Y-55990390D01*
X116085857Y-55990390D02*
X115514429Y-56561819D01*
X115514429Y-56561819D02*
X116133476Y-56561819D01*
X103457333Y-72622580D02*
X103409714Y-72670200D01*
X103409714Y-72670200D02*
X103266857Y-72717819D01*
X103266857Y-72717819D02*
X103171619Y-72717819D01*
X103171619Y-72717819D02*
X103028762Y-72670200D01*
X103028762Y-72670200D02*
X102933524Y-72574961D01*
X102933524Y-72574961D02*
X102885905Y-72479723D01*
X102885905Y-72479723D02*
X102838286Y-72289247D01*
X102838286Y-72289247D02*
X102838286Y-72146390D01*
X102838286Y-72146390D02*
X102885905Y-71955914D01*
X102885905Y-71955914D02*
X102933524Y-71860676D01*
X102933524Y-71860676D02*
X103028762Y-71765438D01*
X103028762Y-71765438D02*
X103171619Y-71717819D01*
X103171619Y-71717819D02*
X103266857Y-71717819D01*
X103266857Y-71717819D02*
X103409714Y-71765438D01*
X103409714Y-71765438D02*
X103457333Y-71813057D01*
X104028762Y-72146390D02*
X103933524Y-72098771D01*
X103933524Y-72098771D02*
X103885905Y-72051152D01*
X103885905Y-72051152D02*
X103838286Y-71955914D01*
X103838286Y-71955914D02*
X103838286Y-71908295D01*
X103838286Y-71908295D02*
X103885905Y-71813057D01*
X103885905Y-71813057D02*
X103933524Y-71765438D01*
X103933524Y-71765438D02*
X104028762Y-71717819D01*
X104028762Y-71717819D02*
X104219238Y-71717819D01*
X104219238Y-71717819D02*
X104314476Y-71765438D01*
X104314476Y-71765438D02*
X104362095Y-71813057D01*
X104362095Y-71813057D02*
X104409714Y-71908295D01*
X104409714Y-71908295D02*
X104409714Y-71955914D01*
X104409714Y-71955914D02*
X104362095Y-72051152D01*
X104362095Y-72051152D02*
X104314476Y-72098771D01*
X104314476Y-72098771D02*
X104219238Y-72146390D01*
X104219238Y-72146390D02*
X104028762Y-72146390D01*
X104028762Y-72146390D02*
X103933524Y-72194009D01*
X103933524Y-72194009D02*
X103885905Y-72241628D01*
X103885905Y-72241628D02*
X103838286Y-72336866D01*
X103838286Y-72336866D02*
X103838286Y-72527342D01*
X103838286Y-72527342D02*
X103885905Y-72622580D01*
X103885905Y-72622580D02*
X103933524Y-72670200D01*
X103933524Y-72670200D02*
X104028762Y-72717819D01*
X104028762Y-72717819D02*
X104219238Y-72717819D01*
X104219238Y-72717819D02*
X104314476Y-72670200D01*
X104314476Y-72670200D02*
X104362095Y-72622580D01*
X104362095Y-72622580D02*
X104409714Y-72527342D01*
X104409714Y-72527342D02*
X104409714Y-72336866D01*
X104409714Y-72336866D02*
X104362095Y-72241628D01*
X104362095Y-72241628D02*
X104314476Y-72194009D01*
X104314476Y-72194009D02*
X104219238Y-72146390D01*
X114387333Y-80337819D02*
X114054000Y-79861628D01*
X113815905Y-80337819D02*
X113815905Y-79337819D01*
X113815905Y-79337819D02*
X114196857Y-79337819D01*
X114196857Y-79337819D02*
X114292095Y-79385438D01*
X114292095Y-79385438D02*
X114339714Y-79433057D01*
X114339714Y-79433057D02*
X114387333Y-79528295D01*
X114387333Y-79528295D02*
X114387333Y-79671152D01*
X114387333Y-79671152D02*
X114339714Y-79766390D01*
X114339714Y-79766390D02*
X114292095Y-79814009D01*
X114292095Y-79814009D02*
X114196857Y-79861628D01*
X114196857Y-79861628D02*
X113815905Y-79861628D01*
X114720667Y-79337819D02*
X115339714Y-79337819D01*
X115339714Y-79337819D02*
X115006381Y-79718771D01*
X115006381Y-79718771D02*
X115149238Y-79718771D01*
X115149238Y-79718771D02*
X115244476Y-79766390D01*
X115244476Y-79766390D02*
X115292095Y-79814009D01*
X115292095Y-79814009D02*
X115339714Y-79909247D01*
X115339714Y-79909247D02*
X115339714Y-80147342D01*
X115339714Y-80147342D02*
X115292095Y-80242580D01*
X115292095Y-80242580D02*
X115244476Y-80290200D01*
X115244476Y-80290200D02*
X115149238Y-80337819D01*
X115149238Y-80337819D02*
X114863524Y-80337819D01*
X114863524Y-80337819D02*
X114768286Y-80290200D01*
X114768286Y-80290200D02*
X114720667Y-80242580D01*
X136390142Y-79353580D02*
X136342523Y-79401200D01*
X136342523Y-79401200D02*
X136199666Y-79448819D01*
X136199666Y-79448819D02*
X136104428Y-79448819D01*
X136104428Y-79448819D02*
X135961571Y-79401200D01*
X135961571Y-79401200D02*
X135866333Y-79305961D01*
X135866333Y-79305961D02*
X135818714Y-79210723D01*
X135818714Y-79210723D02*
X135771095Y-79020247D01*
X135771095Y-79020247D02*
X135771095Y-78877390D01*
X135771095Y-78877390D02*
X135818714Y-78686914D01*
X135818714Y-78686914D02*
X135866333Y-78591676D01*
X135866333Y-78591676D02*
X135961571Y-78496438D01*
X135961571Y-78496438D02*
X136104428Y-78448819D01*
X136104428Y-78448819D02*
X136199666Y-78448819D01*
X136199666Y-78448819D02*
X136342523Y-78496438D01*
X136342523Y-78496438D02*
X136390142Y-78544057D01*
X136771095Y-78544057D02*
X136818714Y-78496438D01*
X136818714Y-78496438D02*
X136913952Y-78448819D01*
X136913952Y-78448819D02*
X137152047Y-78448819D01*
X137152047Y-78448819D02*
X137247285Y-78496438D01*
X137247285Y-78496438D02*
X137294904Y-78544057D01*
X137294904Y-78544057D02*
X137342523Y-78639295D01*
X137342523Y-78639295D02*
X137342523Y-78734533D01*
X137342523Y-78734533D02*
X137294904Y-78877390D01*
X137294904Y-78877390D02*
X136723476Y-79448819D01*
X136723476Y-79448819D02*
X137342523Y-79448819D01*
X137961571Y-78448819D02*
X138056809Y-78448819D01*
X138056809Y-78448819D02*
X138152047Y-78496438D01*
X138152047Y-78496438D02*
X138199666Y-78544057D01*
X138199666Y-78544057D02*
X138247285Y-78639295D01*
X138247285Y-78639295D02*
X138294904Y-78829771D01*
X138294904Y-78829771D02*
X138294904Y-79067866D01*
X138294904Y-79067866D02*
X138247285Y-79258342D01*
X138247285Y-79258342D02*
X138199666Y-79353580D01*
X138199666Y-79353580D02*
X138152047Y-79401200D01*
X138152047Y-79401200D02*
X138056809Y-79448819D01*
X138056809Y-79448819D02*
X137961571Y-79448819D01*
X137961571Y-79448819D02*
X137866333Y-79401200D01*
X137866333Y-79401200D02*
X137818714Y-79353580D01*
X137818714Y-79353580D02*
X137771095Y-79258342D01*
X137771095Y-79258342D02*
X137723476Y-79067866D01*
X137723476Y-79067866D02*
X137723476Y-78829771D01*
X137723476Y-78829771D02*
X137771095Y-78639295D01*
X137771095Y-78639295D02*
X137818714Y-78544057D01*
X137818714Y-78544057D02*
X137866333Y-78496438D01*
X137866333Y-78496438D02*
X137961571Y-78448819D01*
X120407819Y-47958333D02*
X121122104Y-47958333D01*
X121122104Y-47958333D02*
X121264961Y-48005952D01*
X121264961Y-48005952D02*
X121360200Y-48101190D01*
X121360200Y-48101190D02*
X121407819Y-48244047D01*
X121407819Y-48244047D02*
X121407819Y-48339285D01*
X120503057Y-47529761D02*
X120455438Y-47482142D01*
X120455438Y-47482142D02*
X120407819Y-47386904D01*
X120407819Y-47386904D02*
X120407819Y-47148809D01*
X120407819Y-47148809D02*
X120455438Y-47053571D01*
X120455438Y-47053571D02*
X120503057Y-47005952D01*
X120503057Y-47005952D02*
X120598295Y-46958333D01*
X120598295Y-46958333D02*
X120693533Y-46958333D01*
X120693533Y-46958333D02*
X120836390Y-47005952D01*
X120836390Y-47005952D02*
X121407819Y-47577380D01*
X121407819Y-47577380D02*
X121407819Y-46958333D01*
X120169833Y-76940580D02*
X120122214Y-76988200D01*
X120122214Y-76988200D02*
X119979357Y-77035819D01*
X119979357Y-77035819D02*
X119884119Y-77035819D01*
X119884119Y-77035819D02*
X119741262Y-76988200D01*
X119741262Y-76988200D02*
X119646024Y-76892961D01*
X119646024Y-76892961D02*
X119598405Y-76797723D01*
X119598405Y-76797723D02*
X119550786Y-76607247D01*
X119550786Y-76607247D02*
X119550786Y-76464390D01*
X119550786Y-76464390D02*
X119598405Y-76273914D01*
X119598405Y-76273914D02*
X119646024Y-76178676D01*
X119646024Y-76178676D02*
X119741262Y-76083438D01*
X119741262Y-76083438D02*
X119884119Y-76035819D01*
X119884119Y-76035819D02*
X119979357Y-76035819D01*
X119979357Y-76035819D02*
X120122214Y-76083438D01*
X120122214Y-76083438D02*
X120169833Y-76131057D01*
X121074595Y-76035819D02*
X120598405Y-76035819D01*
X120598405Y-76035819D02*
X120550786Y-76512009D01*
X120550786Y-76512009D02*
X120598405Y-76464390D01*
X120598405Y-76464390D02*
X120693643Y-76416771D01*
X120693643Y-76416771D02*
X120931738Y-76416771D01*
X120931738Y-76416771D02*
X121026976Y-76464390D01*
X121026976Y-76464390D02*
X121074595Y-76512009D01*
X121074595Y-76512009D02*
X121122214Y-76607247D01*
X121122214Y-76607247D02*
X121122214Y-76845342D01*
X121122214Y-76845342D02*
X121074595Y-76940580D01*
X121074595Y-76940580D02*
X121026976Y-76988200D01*
X121026976Y-76988200D02*
X120931738Y-77035819D01*
X120931738Y-77035819D02*
X120693643Y-77035819D01*
X120693643Y-77035819D02*
X120598405Y-76988200D01*
X120598405Y-76988200D02*
X120550786Y-76940580D01*
X109112833Y-73511580D02*
X109065214Y-73559200D01*
X109065214Y-73559200D02*
X108922357Y-73606819D01*
X108922357Y-73606819D02*
X108827119Y-73606819D01*
X108827119Y-73606819D02*
X108684262Y-73559200D01*
X108684262Y-73559200D02*
X108589024Y-73463961D01*
X108589024Y-73463961D02*
X108541405Y-73368723D01*
X108541405Y-73368723D02*
X108493786Y-73178247D01*
X108493786Y-73178247D02*
X108493786Y-73035390D01*
X108493786Y-73035390D02*
X108541405Y-72844914D01*
X108541405Y-72844914D02*
X108589024Y-72749676D01*
X108589024Y-72749676D02*
X108684262Y-72654438D01*
X108684262Y-72654438D02*
X108827119Y-72606819D01*
X108827119Y-72606819D02*
X108922357Y-72606819D01*
X108922357Y-72606819D02*
X109065214Y-72654438D01*
X109065214Y-72654438D02*
X109112833Y-72702057D01*
X109446167Y-72606819D02*
X110112833Y-72606819D01*
X110112833Y-72606819D02*
X109684262Y-73606819D01*
X114446833Y-73511580D02*
X114399214Y-73559200D01*
X114399214Y-73559200D02*
X114256357Y-73606819D01*
X114256357Y-73606819D02*
X114161119Y-73606819D01*
X114161119Y-73606819D02*
X114018262Y-73559200D01*
X114018262Y-73559200D02*
X113923024Y-73463961D01*
X113923024Y-73463961D02*
X113875405Y-73368723D01*
X113875405Y-73368723D02*
X113827786Y-73178247D01*
X113827786Y-73178247D02*
X113827786Y-73035390D01*
X113827786Y-73035390D02*
X113875405Y-72844914D01*
X113875405Y-72844914D02*
X113923024Y-72749676D01*
X113923024Y-72749676D02*
X114018262Y-72654438D01*
X114018262Y-72654438D02*
X114161119Y-72606819D01*
X114161119Y-72606819D02*
X114256357Y-72606819D01*
X114256357Y-72606819D02*
X114399214Y-72654438D01*
X114399214Y-72654438D02*
X114446833Y-72702057D01*
X115303976Y-72606819D02*
X115113500Y-72606819D01*
X115113500Y-72606819D02*
X115018262Y-72654438D01*
X115018262Y-72654438D02*
X114970643Y-72702057D01*
X114970643Y-72702057D02*
X114875405Y-72844914D01*
X114875405Y-72844914D02*
X114827786Y-73035390D01*
X114827786Y-73035390D02*
X114827786Y-73416342D01*
X114827786Y-73416342D02*
X114875405Y-73511580D01*
X114875405Y-73511580D02*
X114923024Y-73559200D01*
X114923024Y-73559200D02*
X115018262Y-73606819D01*
X115018262Y-73606819D02*
X115208738Y-73606819D01*
X115208738Y-73606819D02*
X115303976Y-73559200D01*
X115303976Y-73559200D02*
X115351595Y-73511580D01*
X115351595Y-73511580D02*
X115399214Y-73416342D01*
X115399214Y-73416342D02*
X115399214Y-73178247D01*
X115399214Y-73178247D02*
X115351595Y-73083009D01*
X115351595Y-73083009D02*
X115303976Y-73035390D01*
X115303976Y-73035390D02*
X115208738Y-72987771D01*
X115208738Y-72987771D02*
X115018262Y-72987771D01*
X115018262Y-72987771D02*
X114923024Y-73035390D01*
X114923024Y-73035390D02*
X114875405Y-73083009D01*
X114875405Y-73083009D02*
X114827786Y-73178247D01*
X123872666Y-88100819D02*
X123872666Y-88815104D01*
X123872666Y-88815104D02*
X123825047Y-88957961D01*
X123825047Y-88957961D02*
X123729809Y-89053200D01*
X123729809Y-89053200D02*
X123586952Y-89100819D01*
X123586952Y-89100819D02*
X123491714Y-89100819D01*
X124777428Y-88434152D02*
X124777428Y-89100819D01*
X124539333Y-88053200D02*
X124301238Y-88767485D01*
X124301238Y-88767485D02*
X124920285Y-88767485D01*
X129500333Y-77189819D02*
X129167000Y-76713628D01*
X128928905Y-77189819D02*
X128928905Y-76189819D01*
X128928905Y-76189819D02*
X129309857Y-76189819D01*
X129309857Y-76189819D02*
X129405095Y-76237438D01*
X129405095Y-76237438D02*
X129452714Y-76285057D01*
X129452714Y-76285057D02*
X129500333Y-76380295D01*
X129500333Y-76380295D02*
X129500333Y-76523152D01*
X129500333Y-76523152D02*
X129452714Y-76618390D01*
X129452714Y-76618390D02*
X129405095Y-76666009D01*
X129405095Y-76666009D02*
X129309857Y-76713628D01*
X129309857Y-76713628D02*
X128928905Y-76713628D01*
X129881286Y-76285057D02*
X129928905Y-76237438D01*
X129928905Y-76237438D02*
X130024143Y-76189819D01*
X130024143Y-76189819D02*
X130262238Y-76189819D01*
X130262238Y-76189819D02*
X130357476Y-76237438D01*
X130357476Y-76237438D02*
X130405095Y-76285057D01*
X130405095Y-76285057D02*
X130452714Y-76380295D01*
X130452714Y-76380295D02*
X130452714Y-76475533D01*
X130452714Y-76475533D02*
X130405095Y-76618390D01*
X130405095Y-76618390D02*
X129833667Y-77189819D01*
X129833667Y-77189819D02*
X130452714Y-77189819D01*
X120582642Y-60684580D02*
X120535023Y-60732200D01*
X120535023Y-60732200D02*
X120392166Y-60779819D01*
X120392166Y-60779819D02*
X120296928Y-60779819D01*
X120296928Y-60779819D02*
X120154071Y-60732200D01*
X120154071Y-60732200D02*
X120058833Y-60636961D01*
X120058833Y-60636961D02*
X120011214Y-60541723D01*
X120011214Y-60541723D02*
X119963595Y-60351247D01*
X119963595Y-60351247D02*
X119963595Y-60208390D01*
X119963595Y-60208390D02*
X120011214Y-60017914D01*
X120011214Y-60017914D02*
X120058833Y-59922676D01*
X120058833Y-59922676D02*
X120154071Y-59827438D01*
X120154071Y-59827438D02*
X120296928Y-59779819D01*
X120296928Y-59779819D02*
X120392166Y-59779819D01*
X120392166Y-59779819D02*
X120535023Y-59827438D01*
X120535023Y-59827438D02*
X120582642Y-59875057D01*
X121535023Y-60779819D02*
X120963595Y-60779819D01*
X121249309Y-60779819D02*
X121249309Y-59779819D01*
X121249309Y-59779819D02*
X121154071Y-59922676D01*
X121154071Y-59922676D02*
X121058833Y-60017914D01*
X121058833Y-60017914D02*
X120963595Y-60065533D01*
X122487404Y-60779819D02*
X121915976Y-60779819D01*
X122201690Y-60779819D02*
X122201690Y-59779819D01*
X122201690Y-59779819D02*
X122106452Y-59922676D01*
X122106452Y-59922676D02*
X122011214Y-60017914D01*
X122011214Y-60017914D02*
X121915976Y-60065533D01*
X114165142Y-77321580D02*
X114117523Y-77369200D01*
X114117523Y-77369200D02*
X113974666Y-77416819D01*
X113974666Y-77416819D02*
X113879428Y-77416819D01*
X113879428Y-77416819D02*
X113736571Y-77369200D01*
X113736571Y-77369200D02*
X113641333Y-77273961D01*
X113641333Y-77273961D02*
X113593714Y-77178723D01*
X113593714Y-77178723D02*
X113546095Y-76988247D01*
X113546095Y-76988247D02*
X113546095Y-76845390D01*
X113546095Y-76845390D02*
X113593714Y-76654914D01*
X113593714Y-76654914D02*
X113641333Y-76559676D01*
X113641333Y-76559676D02*
X113736571Y-76464438D01*
X113736571Y-76464438D02*
X113879428Y-76416819D01*
X113879428Y-76416819D02*
X113974666Y-76416819D01*
X113974666Y-76416819D02*
X114117523Y-76464438D01*
X114117523Y-76464438D02*
X114165142Y-76512057D01*
X115117523Y-77416819D02*
X114546095Y-77416819D01*
X114831809Y-77416819D02*
X114831809Y-76416819D01*
X114831809Y-76416819D02*
X114736571Y-76559676D01*
X114736571Y-76559676D02*
X114641333Y-76654914D01*
X114641333Y-76654914D02*
X114546095Y-76702533D01*
X115974666Y-76750152D02*
X115974666Y-77416819D01*
X115736571Y-76369200D02*
X115498476Y-77083485D01*
X115498476Y-77083485D02*
X116117523Y-77083485D01*
X131691142Y-88243580D02*
X131643523Y-88291200D01*
X131643523Y-88291200D02*
X131500666Y-88338819D01*
X131500666Y-88338819D02*
X131405428Y-88338819D01*
X131405428Y-88338819D02*
X131262571Y-88291200D01*
X131262571Y-88291200D02*
X131167333Y-88195961D01*
X131167333Y-88195961D02*
X131119714Y-88100723D01*
X131119714Y-88100723D02*
X131072095Y-87910247D01*
X131072095Y-87910247D02*
X131072095Y-87767390D01*
X131072095Y-87767390D02*
X131119714Y-87576914D01*
X131119714Y-87576914D02*
X131167333Y-87481676D01*
X131167333Y-87481676D02*
X131262571Y-87386438D01*
X131262571Y-87386438D02*
X131405428Y-87338819D01*
X131405428Y-87338819D02*
X131500666Y-87338819D01*
X131500666Y-87338819D02*
X131643523Y-87386438D01*
X131643523Y-87386438D02*
X131691142Y-87434057D01*
X132643523Y-88338819D02*
X132072095Y-88338819D01*
X132357809Y-88338819D02*
X132357809Y-87338819D01*
X132357809Y-87338819D02*
X132262571Y-87481676D01*
X132262571Y-87481676D02*
X132167333Y-87576914D01*
X132167333Y-87576914D02*
X132072095Y-87624533D01*
X133119714Y-88338819D02*
X133310190Y-88338819D01*
X133310190Y-88338819D02*
X133405428Y-88291200D01*
X133405428Y-88291200D02*
X133453047Y-88243580D01*
X133453047Y-88243580D02*
X133548285Y-88100723D01*
X133548285Y-88100723D02*
X133595904Y-87910247D01*
X133595904Y-87910247D02*
X133595904Y-87529295D01*
X133595904Y-87529295D02*
X133548285Y-87434057D01*
X133548285Y-87434057D02*
X133500666Y-87386438D01*
X133500666Y-87386438D02*
X133405428Y-87338819D01*
X133405428Y-87338819D02*
X133214952Y-87338819D01*
X133214952Y-87338819D02*
X133119714Y-87386438D01*
X133119714Y-87386438D02*
X133072095Y-87434057D01*
X133072095Y-87434057D02*
X133024476Y-87529295D01*
X133024476Y-87529295D02*
X133024476Y-87767390D01*
X133024476Y-87767390D02*
X133072095Y-87862628D01*
X133072095Y-87862628D02*
X133119714Y-87910247D01*
X133119714Y-87910247D02*
X133214952Y-87957866D01*
X133214952Y-87957866D02*
X133405428Y-87957866D01*
X133405428Y-87957866D02*
X133500666Y-87910247D01*
X133500666Y-87910247D02*
X133548285Y-87862628D01*
X133548285Y-87862628D02*
X133595904Y-87767390D01*
X134921666Y-94069819D02*
X134921666Y-94784104D01*
X134921666Y-94784104D02*
X134874047Y-94926961D01*
X134874047Y-94926961D02*
X134778809Y-95022200D01*
X134778809Y-95022200D02*
X134635952Y-95069819D01*
X134635952Y-95069819D02*
X134540714Y-95069819D01*
X135826428Y-94069819D02*
X135635952Y-94069819D01*
X135635952Y-94069819D02*
X135540714Y-94117438D01*
X135540714Y-94117438D02*
X135493095Y-94165057D01*
X135493095Y-94165057D02*
X135397857Y-94307914D01*
X135397857Y-94307914D02*
X135350238Y-94498390D01*
X135350238Y-94498390D02*
X135350238Y-94879342D01*
X135350238Y-94879342D02*
X135397857Y-94974580D01*
X135397857Y-94974580D02*
X135445476Y-95022200D01*
X135445476Y-95022200D02*
X135540714Y-95069819D01*
X135540714Y-95069819D02*
X135731190Y-95069819D01*
X135731190Y-95069819D02*
X135826428Y-95022200D01*
X135826428Y-95022200D02*
X135874047Y-94974580D01*
X135874047Y-94974580D02*
X135921666Y-94879342D01*
X135921666Y-94879342D02*
X135921666Y-94641247D01*
X135921666Y-94641247D02*
X135874047Y-94546009D01*
X135874047Y-94546009D02*
X135826428Y-94498390D01*
X135826428Y-94498390D02*
X135731190Y-94450771D01*
X135731190Y-94450771D02*
X135540714Y-94450771D01*
X135540714Y-94450771D02*
X135445476Y-94498390D01*
X135445476Y-94498390D02*
X135397857Y-94546009D01*
X135397857Y-94546009D02*
X135350238Y-94641247D01*
D14*
%TO.C,R4*%
X109724879Y-78233000D02*
X110060121Y-78233000D01*
X109724879Y-78993000D02*
X110060121Y-78993000D01*
%TO.C,J7*%
X140275000Y-80453000D02*
X141605000Y-80453000D01*
X140275000Y-81783000D02*
X140275000Y-80453000D01*
X140275000Y-83053000D02*
X140275000Y-85653000D01*
X140275000Y-83053000D02*
X142935000Y-83053000D01*
X140275000Y-85653000D02*
X142935000Y-85653000D01*
X142935000Y-83053000D02*
X142935000Y-85653000D01*
%TO.C,C15*%
X111382165Y-74189000D02*
X111613835Y-74189000D01*
X111382165Y-74909000D02*
X111613835Y-74909000D01*
%TO.C,C9*%
X110374165Y-61235000D02*
X110605835Y-61235000D01*
X110374165Y-61955000D02*
X110605835Y-61955000D01*
%TO.C,R1*%
X128144000Y-72730379D02*
X128144000Y-73065621D01*
X128904000Y-72730379D02*
X128904000Y-73065621D01*
%TO.C,C1*%
X110374165Y-59965000D02*
X110605835Y-59965000D01*
X110374165Y-60685000D02*
X110605835Y-60685000D01*
D15*
%TO.C,IC1*%
X112779600Y-64463400D02*
G75*
G02*
X112529600Y-64463400I-125000J0D01*
G01*
X112529600Y-64463400D02*
G75*
G02*
X112779600Y-64463400I125000J0D01*
G01*
D14*
%TO.C,C10*%
X113803165Y-59965000D02*
X114034835Y-59965000D01*
X113803165Y-60685000D02*
X114034835Y-60685000D01*
%TO.C,J3*%
X111192000Y-84776000D02*
X111192000Y-87436000D01*
X113792000Y-84776000D02*
X111192000Y-84776000D01*
X113792000Y-84776000D02*
X113792000Y-87436000D01*
X113792000Y-87436000D02*
X111192000Y-87436000D01*
X115062000Y-84776000D02*
X116392000Y-84776000D01*
X116392000Y-84776000D02*
X116392000Y-86106000D01*
%TO.C,J5*%
X124532000Y-90618000D02*
X124532000Y-93278000D01*
X127132000Y-90618000D02*
X124532000Y-90618000D01*
X127132000Y-90618000D02*
X127132000Y-93278000D01*
X127132000Y-93278000D02*
X124532000Y-93278000D01*
X128402000Y-90618000D02*
X129732000Y-90618000D01*
X129732000Y-90618000D02*
X129732000Y-91948000D01*
%TO.C,C18*%
X130290835Y-81936000D02*
X130059165Y-81936000D01*
X130290835Y-82656000D02*
X130059165Y-82656000D01*
%TO.C,C3*%
X118674335Y-58441000D02*
X118442665Y-58441000D01*
X118674335Y-59161000D02*
X118442665Y-59161000D01*
%TO.C,C2*%
X113803165Y-61235000D02*
X114034835Y-61235000D01*
X113803165Y-61955000D02*
X114034835Y-61955000D01*
%TO.C,L1*%
X112167800Y-56917000D02*
X112368200Y-56917000D01*
X112167800Y-57637000D02*
X112368200Y-57637000D01*
%TO.C,C17*%
X120853252Y-53700000D02*
X119430748Y-53700000D01*
X120853252Y-55520000D02*
X119430748Y-55520000D01*
D16*
%TO.C,J8*%
X153492200Y-75615800D02*
G75*
G02*
X152730200Y-75615800I-381000J0D01*
G01*
X152730200Y-75615800D02*
G75*
G02*
X153492200Y-75615800I381000J0D01*
G01*
D14*
%TO.C,C12*%
X122865335Y-74951000D02*
X122633665Y-74951000D01*
X122865335Y-75671000D02*
X122633665Y-75671000D01*
%TO.C,C4*%
X122865335Y-76221000D02*
X122633665Y-76221000D01*
X122865335Y-76941000D02*
X122633665Y-76941000D01*
D16*
%TO.C,J1*%
X87934800Y-57810700D02*
G75*
G02*
X87172800Y-57810700I-381000J0D01*
G01*
X87172800Y-57810700D02*
G75*
G02*
X87934800Y-57810700I381000J0D01*
G01*
D14*
%TO.C,C13*%
X118166335Y-74697000D02*
X117934665Y-74697000D01*
X118166335Y-75417000D02*
X117934665Y-75417000D01*
%TO.C,C16*%
X105734665Y-73427000D02*
X105966335Y-73427000D01*
X105734665Y-74147000D02*
X105966335Y-74147000D01*
%TO.C,L2*%
X115342800Y-56917000D02*
X115543200Y-56917000D01*
X115342800Y-57637000D02*
X115543200Y-57637000D01*
%TO.C,C8*%
X105734665Y-71903000D02*
X105966335Y-71903000D01*
X105734665Y-72623000D02*
X105966335Y-72623000D01*
%TO.C,R3*%
X114386379Y-78233000D02*
X114721621Y-78233000D01*
X114386379Y-78993000D02*
X114721621Y-78993000D01*
%TO.C,C20*%
X137275835Y-77110000D02*
X137044165Y-77110000D01*
X137275835Y-77830000D02*
X137044165Y-77830000D01*
%TO.C,J2*%
X114753000Y-46295000D02*
X114753000Y-48955000D01*
X117353000Y-46295000D02*
X114753000Y-46295000D01*
X117353000Y-46295000D02*
X117353000Y-48955000D01*
X117353000Y-48955000D02*
X114753000Y-48955000D01*
X118623000Y-46295000D02*
X119953000Y-46295000D01*
X119953000Y-46295000D02*
X119953000Y-47625000D01*
%TO.C,C5*%
X118166335Y-75967000D02*
X117934665Y-75967000D01*
X118166335Y-76687000D02*
X117934665Y-76687000D01*
%TO.C,C7*%
X111382165Y-72919000D02*
X111613835Y-72919000D01*
X111382165Y-73639000D02*
X111613835Y-73639000D01*
%TO.C,C6*%
X114692165Y-73935000D02*
X114923835Y-73935000D01*
X114692165Y-74655000D02*
X114923835Y-74655000D01*
%TO.C,J4*%
X119325000Y-84649000D02*
X119325000Y-87309000D01*
X121925000Y-84649000D02*
X119325000Y-84649000D01*
X121925000Y-84649000D02*
X121925000Y-87309000D01*
X121925000Y-87309000D02*
X119325000Y-87309000D01*
X123195000Y-84649000D02*
X124525000Y-84649000D01*
X124525000Y-84649000D02*
X124525000Y-85979000D01*
%TO.C,R2*%
X129834621Y-75185000D02*
X129499379Y-75185000D01*
X129834621Y-75945000D02*
X129499379Y-75945000D01*
%TO.C,C11*%
X118418165Y-59903000D02*
X118649835Y-59903000D01*
X118418165Y-60623000D02*
X118649835Y-60623000D01*
%TO.C,C14*%
X114692165Y-75205000D02*
X114923835Y-75205000D01*
X114692165Y-75925000D02*
X114923835Y-75925000D01*
%TO.C,C19*%
X131974000Y-85840835D02*
X131974000Y-85609165D01*
X132694000Y-85840835D02*
X132694000Y-85609165D01*
%TO.C,J6*%
X135063000Y-93278000D02*
X135063000Y-91948000D01*
X136393000Y-93278000D02*
X135063000Y-93278000D01*
X137663000Y-90618000D02*
X140263000Y-90618000D01*
X137663000Y-93278000D02*
X137663000Y-90618000D01*
X137663000Y-93278000D02*
X140263000Y-93278000D01*
X140263000Y-93278000D02*
X140263000Y-90618000D01*
%TD*%
M02*
